<svg preserveAspectRatio="none" xmlns="http://www.w3.org/2000/svg" viewBox="0 0 632.2 521.32"><title>Vector Smart Object1</title><path d="M355.62,128.59a26.63,26.63,0,0,1-9.55-1.73,13.41,13.41,0,0,1-5.49,1.17h-3.27a13.4,13.4,0,0,1-7-2,13.42,13.42,0,0,1-7,2h-3.4a13.31,13.31,0,0,1-9.91-4.42A13.37,13.37,0,0,1,300,128h-3.4a13.14,13.14,0,0,1-3.78-.55,13.23,13.23,0,0,1-3.8.55h-3.28a13.4,13.4,0,0,1-7-2,13.4,13.4,0,0,1-7,2h-3.36A13.36,13.36,0,0,1,255,114.69V93.27a13.11,13.11,0,0,1,.36-11.34,13.35,13.35,0,0,1,1-1.62,13.2,13.2,0,0,1-4.69-1.57,29,29,0,0,1-10.26,1.85,27.91,27.91,0,0,1-17.62-6.09A13.44,13.44,0,0,1,212.91,80h-3.36a13.36,13.36,0,0,1-13.34-13.34V45.27A13.1,13.1,0,0,1,196.58,34,12.92,12.92,0,0,1,208.07,27h16.07a13.49,13.49,0,0,1,6.36,1.57,29,29,0,0,1,24.09,1A13,13,0,0,1,262.4,27h17.51a13.3,13.3,0,0,1,7.54,2.33,29,29,0,0,1,24.35-.42A12.94,12.94,0,0,1,318.59,27h11.56a21.89,21.89,0,0,1,7.35,1.25A13,13,0,0,1,343.07,27H348a13.4,13.4,0,0,1,7,2,13.37,13.37,0,0,1,7-2h3.28a13.33,13.33,0,0,1,3.05.35,13,13,0,0,1,3-.35h4.88a13.44,13.44,0,0,1,7,2,13.46,13.46,0,0,1,7.06-2h3.54a13.31,13.31,0,0,1,6-6,12.54,12.54,0,0,1,1.46-.62l2.11-.74a13.07,13.07,0,0,1,4.43-.77,12.76,12.76,0,0,1,3.56.5,12.83,12.83,0,0,1,3.57-.5,13.15,13.15,0,0,1,4.43.77l2.11.74A12.19,12.19,0,0,1,423,21a13.33,13.33,0,0,1,7,8.74,13.37,13.37,0,0,1,5.34,10.68V66.69A13.4,13.4,0,0,1,421.91,80h-3.28a13.37,13.37,0,0,1-7-2,13.43,13.43,0,0,1-7,2h-3.4a13.14,13.14,0,0,1-3.78-.55,13.23,13.23,0,0,1-3.8.55h-3.28a13.4,13.4,0,0,1-7-2,13.39,13.39,0,0,1-7,2h-3.4a13.29,13.29,0,0,1-2.45-.23,19,19,0,0,1,6.48,14.57,18.35,18.35,0,0,1-.73,5.11,19.93,19.93,0,0,1,1.81,8.25C378,119.62,368.38,128.59,355.62,128.59Z" fill="#ed1d24"/><path d="M225.14,40.37l.36,2.4c.08.56-.32.76-.88.56a11.33,11.33,0,0,0-3.52-.6h-6.43a.84.84,0,0,0-.84.92v23a.89.89,0,0,1-.92.84h-3.36a.87.87,0,0,1-.84-.84V43.81a5,5,0,0,0-.92-3.32c-.36-.52-.16-1,.28-1h16.07A1,1,0,0,1,225.14,40.37Zm31.46,13.2c0,8.2-6.36,14.52-15.2,14.52s-15.07-6.32-15.07-14.52S232.68,39,241.4,39,256.6,45.29,256.6,53.57Zm-5.6,0c0-6.36-4-11.36-9.6-11.36s-9.48,5-9.48,11.36,4,11.36,9.48,11.36S251,59.89,251,53.53Zm15.6-10.08a.65.65,0,0,1,.72-.72h7.48a.89.89,0,0,1,.87.92v23a.87.87,0,0,0,.85.84h3.39a.88.88,0,0,0,.88-.84V40.41a.89.89,0,0,0-.88-.88H262.4c-.44,0-.6.44-.24,1a5,5,0,0,1,1,3.32v5c0,3.08-.16,8.6-1.56,12.24-.52,1.52-1.72,3.44-3.48,3.08a.68.68,0,0,0-.88.84l.32,2.36a.61.61,0,0,0,.72.6c7.72-.64,8.36-12.88,8.36-18.6ZM285,53.57c0-8.28,6.36-14.6,15.08-14.6s15.19,6.32,15.19,14.6-6.35,14.52-15.19,14.52S285,61.77,285,53.57Zm5.6,0c0,6.36,4,11.36,9.48,11.36s9.6-5,9.6-11.36-4-11.36-9.6-11.36S290.57,47.17,290.57,53.53Zm27.78-13c-.36-.52-.2-1,.24-1h11.56c4.88,0,8.16,3.24,8.16,7.32a6.65,6.65,0,0,1-2.84,5.4c-.24.2-.28.48,0,.64a7.58,7.58,0,0,1,4.15,6.6c0,4.4-3.55,8-8.79,8H320.11a.87.87,0,0,1-.84-.84V43.81A5,5,0,0,0,318.35,40.49Zm6,10.08a.63.63,0,0,0,.52.68h3.8a4.26,4.26,0,0,0,0-8.52H325a.65.65,0,0,0-.64.72Zm0,13.08a.63.63,0,0,0,.52.68H329a4.94,4.94,0,1,0,.28-9.88H325a.64.64,0,0,0-.64.68Zm40.92-24.12H362a.9.9,0,0,0-.92.88V50.77a.88.88,0,0,1-.84.88H349.71a.83.83,0,0,1-.84-.88V40.41a.9.9,0,0,0-.92-.88h-4.88c-.44,0-.6.44-.24,1a5,5,0,0,1,.92,3.32V66.69a.87.87,0,0,0,.84.84H348a.89.89,0,0,0,.92-.84v-11a.83.83,0,0,1,.84-.88h10.56a.88.88,0,0,1,.84.88v11a.89.89,0,0,0,.92.84h3.28a.9.9,0,0,0,.92-.84V40.41A.9.9,0,0,0,365.31,39.53Zm28.3,0h-3.28a1.24,1.24,0,0,0-1,.68L377.65,59.45c-.16.28-.48.2-.48-.12V40.41a.9.9,0,0,0-.92-.88h-4.88c-.44,0-.6.44-.24,1a5,5,0,0,1,.92,3.32V66.69a.87.87,0,0,0,.84.84h3.4a1.26,1.26,0,0,0,1-.68l11.64-19.28c.16-.28.48-.2.48.12v19a.89.89,0,0,0,.92.84h3.28a.89.89,0,0,0,.92-.84V40.41A.9.9,0,0,0,393.61,39.53Zm17.82-1.92a6.85,6.85,0,0,0,6.4-4.48.77.77,0,0,0-.44-1l-2.16-.76a.58.58,0,0,0-.8.44c-.52,1.76-1.6,3.12-3,3.12s-2.48-1.36-3-3.12a.58.58,0,0,0-.8-.44l-2.16.76a.77.77,0,0,0-.44,1A6.85,6.85,0,0,0,411.43,37.61Zm10.48,1.92h-3.28a1.24,1.24,0,0,0-1,.68L406,59.45c-.16.28-.48.2-.48-.12V40.41a.9.9,0,0,0-.92-.88h-4.87c-.44,0-.6.44-.24,1a5,5,0,0,1,.92,3.32V66.69a.87.87,0,0,0,.83.84h3.4a1.26,1.26,0,0,0,1-.68l11.64-19.28c.16-.28.48-.2.48.12v19a.89.89,0,0,0,.92.84h3.28a.89.89,0,0,0,.92-.84V40.41A.9.9,0,0,0,421.91,39.53ZM289,87.53H266.8c-.44,0-.6.44-.24,1a5,5,0,0,1,.92,3.32v22.88a.87.87,0,0,0,.84.84h3.36a.89.89,0,0,0,.92-.84V91.61a.83.83,0,0,1,.84-.88H284a.88.88,0,0,1,.84.88v23.08a.89.89,0,0,0,.92.84H289a.89.89,0,0,0,.92-.84V88.41A.9.9,0,0,0,289,87.53Zm26.38,8.8a9,9,0,0,1-9.16,8.72h-4.52a.84.84,0,0,0-.84.84v8.8a.88.88,0,0,1-.88.84h-3.4a.88.88,0,0,1-.84-.84V91.81a5,5,0,0,0-.92-3.32c-.35-.52-.19-1,.25-1h11.15A9,9,0,0,1,315.42,96.33Zm-5.36,0a5.31,5.31,0,0,0-5.2-5.6h-3.12a.79.79,0,0,0-.84.88v9.32a.79.79,0,0,0,.84.88h3.12A5.26,5.26,0,0,0,310.06,96.33Zm30.52-8.8h-3.27a1.23,1.23,0,0,0-1,.68l-11.64,19.24c-.16.28-.48.2-.48-.12V88.41a.9.9,0,0,0-.92-.88h-4.88c-.44,0-.6.44-.24,1a5,5,0,0,1,.92,3.32v22.88a.87.87,0,0,0,.84.84h3.4a1.26,1.26,0,0,0,1-.68L335.9,95.57c.17-.28.49-.2.49.12v19a.88.88,0,0,0,.92.84h3.27a.89.89,0,0,0,.92-.84V88.41A.9.9,0,0,0,340.58,87.53Zm20.6,13.28c-.32-.16-.32-.44,0-.64a7.51,7.51,0,0,0,3.28-5.8c0-4.36-3.48-7.4-9.24-7.4a10.18,10.18,0,0,0-7.8,3.2,1.09,1.09,0,0,0,.08,1.32l1,1.6a.77.77,0,0,0,1.36-.2,4.94,4.94,0,0,1,4.6-2.72c2.84,0,4.6,1.76,4.6,4.32a4.44,4.44,0,0,1-4.28,4.76h-1.6a.91.91,0,0,0-.92.92v1.4a.9.9,0,0,0,.92.88h1.6c3.44,0,5.2,2,5.2,5.08a5,5,0,0,1-5.2,5.36,8.68,8.68,0,0,1-6.6-3.32.73.73,0,0,0-1.08-.24l-1.4.92a.64.64,0,0,0-.24,1c2,3.08,5.84,4.88,10.2,4.88,6.12,0,9.88-3.72,9.88-8.36A7.93,7.93,0,0,0,361.18,100.81Z" fill="#fff"/><path d="M618.91,240.37l-11.86-67.26a12.49,12.49,0,0,0-5.14-8.07l-15.84-11.1a12.54,12.54,0,0,0-7.17-2.26,13.37,13.37,0,0,0-2.18.19L536.39,159a12.48,12.48,0,0,0-7.53,4.44l-8.86-6.2a12.43,12.43,0,0,0-7.17-2.27,13.25,13.25,0,0,0-2.17.19l-26.87,4.74a12.52,12.52,0,0,0-8.07,5.14l-8.38,12-12-8.38a12.52,12.52,0,0,0-7.17-2.26,12.24,12.24,0,0,0-2.17.19l-26.88,4.74a12.49,12.49,0,0,0-8.06,5.14l-7,10-19.78,3.48a12.48,12.48,0,0,0-8.65,6.07,12.49,12.49,0,0,0-10.21-2.74l-10.78,1.9a12.48,12.48,0,0,0-8.66,6.06,12.52,12.52,0,0,0-10.21-2.73l-11.85,2.09a12.48,12.48,0,0,0-6.07-1.57,12.24,12.24,0,0,0-2.17.19l-20.18,3.56a12.49,12.49,0,0,0-9.15,7,12.5,12.5,0,0,0-8.83-3.65,12.32,12.32,0,0,0-2.17.19l-20.25,3.57a12.5,12.5,0,0,0-8.41,19L274.42,273l1.33,7.53a12.72,12.72,0,0,0-2.31-2.08,12.48,12.48,0,0,0-7.16-2.26,12.35,12.35,0,0,0-2.18.19L249.46,279l-10.91-61.85a12.49,12.49,0,0,0-12.29-10.34,12.65,12.65,0,0,0-2.19.2l-20.15,3.55A12.52,12.52,0,0,0,193.78,225l10.91,61.86-9.08,1.6-10.9-61.86a12.5,12.5,0,0,0-14.48-10.14l-15.52,2.74a15.08,15.08,0,0,0,1.1-3.81l6.35-41.1a12.54,12.54,0,0,0,.14-1.36,16.22,16.22,0,0,0,1.31-2.6l3.79-9.59a15.39,15.39,0,0,0-8.32-20.08l-55.17-21.83a14.69,14.69,0,0,0-5.44-1,15.49,15.49,0,0,0-14.37,10l-3.8,9.59a12.56,12.56,0,0,0-.22,8.61l1.18,3.47a15.19,15.19,0,0,0-7.92,11.17S67,201.81,67,201.85a15.3,15.3,0,0,0,12.77,17.26l36.35,5.61-17.42,3.07a12.45,12.45,0,0,0-8.06,5.14l-7.45,10.63a12.62,12.62,0,0,0-4.71-.92,13.25,13.25,0,0,0-2.17.19l-20.15,3.56a12.43,12.43,0,0,0-6.42,3.22,12.28,12.28,0,0,0-4.9-1,12.43,12.43,0,0,0-2.18.19l-20.16,3.55a12.5,12.5,0,0,0-10.13,14.48l16.59,94.09a12.5,12.5,0,0,0,12.31,10.33,12.32,12.32,0,0,0,2.17-.19l20.15-3.55A12.45,12.45,0,0,0,70,364.26a12.52,12.52,0,0,0,4.9,1,12.16,12.16,0,0,0,2.17-.19l20.16-3.55A12.5,12.5,0,0,0,107.36,347l-.92-5.18,3.86,2.7a12.49,12.49,0,0,0,7.17,2.26,13.25,13.25,0,0,0,2.17-.19l26.87-4.74a12.52,12.52,0,0,0,8.07-5.14l3.13-4.47a12.52,12.52,0,0,0,11.15,6.89,12.65,12.65,0,0,0,2.19-.2l47.1-8.3a12.53,12.53,0,0,0,3.29-1.06c.42,0,.84.06,1.27.06a12.63,12.63,0,0,0,2.19-.19l47.1-8.31a12.47,12.47,0,0,0,8.07-5.14,12.62,12.62,0,0,0,1.45-2.74l.29,1.62a12.5,12.5,0,0,0,14.48,10.14l20.15-3.55A12.5,12.5,0,0,0,326.57,307l-7.38-41.9,1.57-7.38,19.44,52a12.5,12.5,0,0,0,13.88,7.94l21.49-3.79a12.53,12.53,0,0,0,5.17-2.19,12.74,12.74,0,0,0,3.43.48,12.43,12.43,0,0,0,2.18-.19l21.56-3.81A12.48,12.48,0,0,0,418.24,296l.16-16.62L429,286.8c-.15.18-.32.34-.46.53a12.5,12.5,0,0,0-.66,14.62l12.64,19.28-13.46,16.95a12.49,12.49,0,0,0,9.78,20.27A12.32,12.32,0,0,0,440,358l21.09-5.53,12.79,19.23a12.5,12.5,0,0,0,22.9-6.41l1-23L519.89,336a12.5,12.5,0,0,0,.94-23.74l-21.49-8,1-22.71a12,12,0,0,0-.21-2.88,12.65,12.65,0,0,0,2.45.25,12.24,12.24,0,0,0,2.17-.19L531.62,274a12.5,12.5,0,0,0,8.07-5.14l2.7-3.86.43,2.49a12.52,12.52,0,0,0,12.32,10.33,12.32,12.32,0,0,0,2.17-.19l40.33-7.11a12.5,12.5,0,0,0,8-5.07l11.13-15.64A12.51,12.51,0,0,0,618.91,240.37Z" fill="#ed1d24"/><path d="M321.39,509.41a13.32,13.32,0,0,1-9.78-4.18,13.21,13.21,0,0,1-9.73,4.18h-2.12a13.49,13.49,0,0,1-11.64-6.68,13.16,13.16,0,0,1-4.35.74H277.6a13.47,13.47,0,0,1-2.71-.28,24.27,24.27,0,0,1-6.62.91,23.38,23.38,0,0,1-10.11-2.27,13.4,13.4,0,0,1-6.42,1.64h-5a13.48,13.48,0,0,1-4.68-.84,13.5,13.5,0,0,1-4.69.84h-4.91A13.46,13.46,0,0,1,219,490V473.44a13.2,13.2,0,0,1,.22-11.69A13,13,0,0,1,224,456.7h-.72a27,27,0,0,1-14.36-4,23.18,23.18,0,0,1-10,3.8A13.56,13.56,0,0,1,186.85,464h-4.78a13.58,13.58,0,0,1-12.28-7.81,29.31,29.31,0,0,1-5.7.55,28.14,28.14,0,0,1-5.16-.46,13.55,13.55,0,0,1-11.1,5.78h-2a13.35,13.35,0,0,1-9.77-4.18A13.26,13.26,0,0,1,126.3,462h-2.12a13.46,13.46,0,0,1-11-5.74,28.78,28.78,0,0,1-5,.42,27.52,27.52,0,0,1-11.9-2.61,13.5,13.5,0,0,1-7.07,2H83.86a13.5,13.5,0,0,1-6.94-1.9,13.5,13.5,0,0,1-6.94,1.9H64.53a13.46,13.46,0,0,1-13.44-13.44V418.17a13.17,13.17,0,0,1,.22-11.69,12.93,12.93,0,0,1,11.51-6.93h26.4a13.57,13.57,0,0,1,12.37,8,28.89,28.89,0,0,1,6.6-.75,27.39,27.39,0,0,1,12.41,2.86,13.06,13.06,0,0,1,7.32-2.23h16.8a13.46,13.46,0,0,1,7.24,2.1,27.51,27.51,0,0,1,12.13-2.73,27.88,27.88,0,0,1,10.47,2,13,13,0,0,1,5.71-1.3h6.17a13.39,13.39,0,0,1,2.71.27,24.27,24.27,0,0,1,6.62-.91,23.25,23.25,0,0,1,13.06,4,27,27,0,0,1,14.42-4,27.87,27.87,0,0,1,10.14,1.85,13.45,13.45,0,0,1,5.62-1.22h4a14,14,0,0,1,4.86.86,13.29,13.29,0,0,1,4.74-.86h4.91a13.39,13.39,0,0,1,4.75.86,13.93,13.93,0,0,1,4.85-.86h3.38a13.13,13.13,0,0,1,10.27,5,13,13,0,0,1,10.3-5h16.81a13.42,13.42,0,0,1,7.23,2.1,27.42,27.42,0,0,1,12.14-2.73,26.65,26.65,0,0,1,16.49,5.43,13,13,0,0,1,13-12.69h19.64a13.57,13.57,0,0,1,12.11,7.32c.63,0,1.26-.06,1.9-.06a27.51,27.51,0,0,1,12.27,2.78,13,13,0,0,1,7.19-2.15h17.85a13.48,13.48,0,0,1,4.51.77,13.21,13.21,0,0,1,4.45-.77h12.69a16.57,16.57,0,0,1,30.31,0h5.88a21.18,21.18,0,0,1,5.84.82,13.63,13.63,0,0,1,4.66-.82h6.12a15.07,15.07,0,0,1,6.45,1.36,14.25,14.25,0,0,1,6.21-1.36h2.57a13.26,13.26,0,0,1,3.63.5,13.24,13.24,0,0,1,3.62-.5h16.81a13.31,13.31,0,0,1,2.91.31,13.22,13.22,0,0,1,2.9-.31h6.13a15,15,0,0,1,6.44,1.36,14.32,14.32,0,0,1,6.22-1.36h2.56a13,13,0,0,1,10.72,5.53A13.25,13.25,0,0,1,580.89,425l-11.07,29.82a13.46,13.46,0,0,1-13,9.05h-2.53a13.34,13.34,0,0,1-7.3-2.15,13.33,13.33,0,0,1-2.38.21h-2a13.28,13.28,0,0,1-9.77-4.18,13.25,13.25,0,0,1-9.74,4.18h-2.11a13.54,13.54,0,0,1-6.12-1.46,13.6,13.6,0,0,1-9.25,3.4h-2.52a13.25,13.25,0,0,1-10.89-5.6,12.85,12.85,0,0,1-1.47-2.79A22.14,22.14,0,0,1,486,456H474.67a13.35,13.35,0,0,1-3.76-.54,13.35,13.35,0,0,1-3.76.54h-5a13.37,13.37,0,0,1-3.82-.56,13.56,13.56,0,0,1-3.84.56h-4.91a13.54,13.54,0,0,1-7.16-2,20.62,20.62,0,0,1-8,2.43l-.2,0c-.32,0-.75,0-1.07,0a13.43,13.43,0,0,1-3.83-.55,12.32,12.32,0,0,1-1.61.1h-4.92a13.5,13.5,0,0,1-7.15-2,20.72,20.72,0,0,1-8,2.43l-.2,0c-.33,0-.75,0-1.08,0h-.12a13,13,0,0,1,4.3,18.91l-2.1,3,3.25,5.06.2.32a13,13,0,0,1-11.17,19.75h-6.17a14.43,14.43,0,0,1-6.35-1.39,14.25,14.25,0,0,1-6.22,1.39h-3.11a13.06,13.06,0,0,1-5.38-1.16,28,28,0,0,1-10,1.79,27.21,27.21,0,0,1-13.46-3.43,21.76,21.76,0,0,1-10.73,2.8h-4.69a13.54,13.54,0,0,1-11.21,5.94Zm12.16-77.86" fill="#ed1d24"/><path d="M252.69,468.26V490a1,1,0,0,1-.95,1h-5a1,1,0,0,1-1-1v-8.29a1,1,0,0,0-1-1h-5.41a.92.92,0,0,0-.95,1V490a1,1,0,0,1-1,1h-4.91a1,1,0,0,1-1-1V472.14a5.68,5.68,0,0,0-1-3.74c-.41-.59-.23-1.09.27-1.09h6.62a1,1,0,0,1,1,.95V476a.93.93,0,0,0,.95,1h5.41a1,1,0,0,0,1-1v-7.75a1,1,0,0,1,1-.95h5A1,1,0,0,1,252.69,468.26ZM284,489.89c.41.58.23,1.08-.27,1.08H277.6a1,1,0,0,1-1-1v-.68c0-.81-.5-.77-1-.32a10.88,10.88,0,0,1-7.3,2.62c-6.75,0-11.35-5.59-11.35-12.44s4.6-12.48,11.35-12.48a10.73,10.73,0,0,1,6.94,2.35c.63.49,1,0,1-.18v-.59a1,1,0,0,1,1-.95h4.91a1,1,0,0,1,.95.95v17.89A5.72,5.72,0,0,0,284,489.89Zm-7.88-13.47a3.71,3.71,0,0,0-.5-1.85,6.51,6.51,0,0,0-5.49-3.56c-3.47,0-6.18,3.06-6.18,8.15s2.71,8.11,6.18,8.11c2.2,0,4.14-1.39,5.49-3.56a3.7,3.7,0,0,0,.5-1.84Zm48.74,11.84-.45,7.66a1,1,0,0,1-1,1h-2c-.59,0-.9-.45-1-1l-.9-3.92a1.19,1.19,0,0,0-1.08-1H304.85a1.19,1.19,0,0,0-1.08,1l-.9,3.92c-.13.54-.4,1-1,1h-2.12a1,1,0,0,1-1-1l-.45-7.66a1,1,0,0,1,1-.94h1.53c.86,0,1.13-.14,1.36-.95a42.4,42.4,0,0,0,2.07-12v-2.2a5.61,5.61,0,0,0-1-3.74c-.4-.59-.22-1.09.27-1.09h16.81a1,1,0,0,1,1,.95v18.07a1,1,0,0,0,1,1h1.58A1,1,0,0,1,324.9,488.26ZM314.4,472a1,1,0,0,0-1-1h-4.06a1,1,0,0,0-.94,1v2.34a41.29,41.29,0,0,1-1.89,12c-.18.63,0,.95.72.95h6.17a1,1,0,0,0,1-1Zm33,12.39c0,3.42-3.47,6.58-8.11,6.58H328a1,1,0,0,1-.95-1V472.14a5.68,5.68,0,0,0-1-3.74c-.41-.59-.23-1.09.27-1.09h12.61c4.06,0,7.17,2.8,7.17,5.91a5.72,5.72,0,0,1-2.53,4.59c-.4.27-.31.45.05.68A6.78,6.78,0,0,1,347.43,484.39ZM334,475.51a1,1,0,0,0,.94,1H337a2.64,2.64,0,0,0,2.21-2.8A2.53,2.53,0,0,0,336.7,471h-1.8a.92.92,0,0,0-.94,1Zm6.3,8.34c0-1.85-1.21-3.65-2.92-3.65H334.9a.92.92,0,0,0-.94.95v5.18a1,1,0,0,0,.94,1h2.44C339.05,487.32,340.26,485.65,340.26,483.85Zm36.63-4.69c0,7.17-5.36,12.44-13.38,12.44s-13.33-5.27-13.33-12.44,5.4-12.48,13.33-12.48S376.89,472,376.89,479.16Zm-7.12,0c0-5.09-2.65-8.78-6.26-8.78s-6.22,3.69-6.22,8.78,2.71,8.74,6.22,8.74S369.77,484.16,369.77,479.16Zm24.06-.45a1,1,0,0,1,0-1.35l6.49-9.19a.52.52,0,0,0-.45-.86h-3.11a1.79,1.79,0,0,0-1.58.86l-3.78,5.41c-.36.49-.68.45-1-.05l-3.34-5.36a1.44,1.44,0,0,0-1.57-.86h-7.17c-.72,0-.94.55-.22,1.09a13.6,13.6,0,0,1,3.29,3.74l4.14,6.57a1,1,0,0,1,0,1.35l-7.12,10.1a.5.5,0,0,0,.45.81H382a1.77,1.77,0,0,0,1.58-.86L388,483.8c.36-.49.63-.49.95,0l4.05,6.31a1.43,1.43,0,0,0,1.58.86h6.17c.5,0,.72-.36.45-.81ZM89.22,412.05H62.82c-.5,0-.68.49-.27,1.08a5.62,5.62,0,0,1,1,3.74v25.77a1,1,0,0,0,1,.94H70a1,1,0,0,0,1-.94V417a.93.93,0,0,1,1-1h9.91a1,1,0,0,1,.94,1v25.64a1,1,0,0,0,1,.94h5.36a1,1,0,0,0,1-.94V413A1,1,0,0,0,89.22,412.05Zm32.35,19.73c0,7.16-5.37,12.43-13.38,12.43s-13.34-5.27-13.34-12.43,5.41-12.48,13.34-12.48S121.57,424.61,121.57,431.78Zm-7.12,0c0-5.09-2.66-8.79-6.26-8.79s-6.22,3.7-6.22,8.79,2.7,8.74,6.22,8.74S114.45,436.78,114.45,431.78Zm34.87,9.1-.45,7.66a1,1,0,0,1-1,1h-2c-.58,0-.9-.45-1-1l-.9-3.92a1.2,1.2,0,0,0-1.08-1H129.27a1.19,1.19,0,0,0-1.08,1l-.9,3.92c-.14.54-.41,1-1,1h-2.12a1,1,0,0,1-1-1l-.45-7.66a1,1,0,0,1,1-.95h1.53c.86,0,1.13-.13,1.35-.94a42.05,42.05,0,0,0,2.07-12v-2.21a5.7,5.7,0,0,0-1-3.74c-.41-.58-.23-1.08.27-1.08h16.8a1,1,0,0,1,1,.95v18.06a1,1,0,0,0,1,1h1.57A1,1,0,0,1,149.32,440.88Zm-10.5-16.27a1,1,0,0,0-1-1h-4.05a1,1,0,0,0-.95,1V427a41,41,0,0,1-1.89,12c-.18.63.05.94.72.94h6.17a1,1,0,0,0,1-1Zm38.66,7.17c0,7.16-5.37,12.43-13.38,12.43s-13.34-5.27-13.34-12.43,5.41-12.48,13.34-12.48S177.48,424.61,177.48,431.78Zm-7.12,0c0-5.09-2.66-8.79-6.26-8.79s-6.22,3.7-6.22,8.79,2.7,8.74,6.22,8.74S170.36,436.78,170.36,431.78Zm36.76,0c0,6.85-4.6,12.48-11.35,12.48a10.71,10.71,0,0,1-6.94-2.35c-.63-.49-1,0-1,.18v8.38a1,1,0,0,1-1,1h-4.78a1,1,0,0,1-1-1V424.79a5.67,5.67,0,0,0-1-3.73c-.41-.59-.23-1.09.27-1.09h6.17a1,1,0,0,1,1,1v.67c0,.81.5.77,1,.32a10.88,10.88,0,0,1,7.3-2.62C202.52,419.34,207.12,424.93,207.12,431.78Zm-7.07,0c0-5-2.71-8.11-6.18-8.11-2.2,0-4.14,1.4-5.49,3.56a3.71,3.71,0,0,0-.5,1.85v5.45a3.7,3.7,0,0,0,.5,1.84,6.51,6.51,0,0,0,5.49,3.56C197.34,439.93,200.05,436.87,200.05,431.78Zm23.2,12.43c-7.93,0-13.34-5.27-13.34-12.43s5.41-12.48,13.34-12.48,13.38,5.31,13.38,12.48S231.27,444.21,223.25,444.21Zm6.26-12.43c0-5.09-2.66-8.79-6.26-8.79s-6.22,3.7-6.22,8.79,2.7,8.74,6.22,8.74S229.51,436.78,229.51,431.78Zm8.15,11.8H243a2.3,2.3,0,0,0,2.07-.9l5.32-8.74a.94.94,0,0,1,.85-.5c.23,0,.41.19.41.64v8.56a1,1,0,0,0,1,.94h4.91a1,1,0,0,0,1-.94v-8.56c0-.45.18-.64.41-.64a.94.94,0,0,1,.85.5l5.32,8.74a2.3,2.3,0,0,0,2.07.9h5.32a.55.55,0,0,0,.4-.94l-8.51-12.26a.77.77,0,0,1,0-1.08l6.4-8.29c.45-.54.31-1.08-.27-1.08h-3.38c-.5,0-.9.18-1.53.9l-5.73,7.61a1.14,1.14,0,0,1-.9.54c-.31,0-.45-.18-.45-.58v-7.48a1,1,0,0,0-1-1h-4.91a1,1,0,0,0-1,1v7.48c0,.4-.14.58-.45.58a1.14,1.14,0,0,1-.9-.54l-5.72-7.61c-.63-.72-1-.9-1.54-.9h-4c-.72,0-.94.54-.18,1.08a19.55,19.55,0,0,1,3.43,3.74l3.51,4.55a.77.77,0,0,1,0,1.08l-8.51,12.26A.55.55,0,0,0,237.66,443.58ZM306,443.5H292.44a1.2,1.2,0,0,0-1.09,1l-.9,3.92c-.13.54-.4,1-1,1h-2.11a1,1,0,0,1-1-1l-.45-7.66a1,1,0,0,1,1-.94h1.54c.85,0,1.12-.14,1.35-1a42.4,42.4,0,0,0,2.07-12v-2.2a5.61,5.61,0,0,0-1-3.74c-.4-.59-.22-1.08.27-1.08h16.81a1,1,0,0,1,1,.94v18.07a1,1,0,0,0,1,1h1.58a1,1,0,0,1,1,.94l-.45,7.66a1,1,0,0,1-1,1h-2c-.59,0-.9-.45-1-1l-.9-3.92A1.17,1.17,0,0,0,306,443.5Zm-4-19a1,1,0,0,0-1-1H296.9a1,1,0,0,0-.95,1v2.34a41.29,41.29,0,0,1-1.89,12c-.18.63,0,1,.72,1H301a1,1,0,0,0,1-1Zm11.93,7.16c0-7.16,5.41-12.47,13.34-12.47s13.38,5.31,13.38,12.47-5.36,12.44-13.38,12.44S313.92,438.86,313.92,431.69Zm7.12,0c0,5,2.71,8.74,6.22,8.74s6.26-3.74,6.26-8.74-2.66-8.78-6.26-8.78S321,426.6,321,431.69ZM377.94,416l-.4-3.11a1.08,1.08,0,0,0-1.13-1H356.77c-.5,0-.72.5-.32,1.08a5.65,5.65,0,0,1,1,3.74v25.77a1,1,0,0,0,.95.95h5.49a1,1,0,0,0,1-.95V417a1,1,0,0,1,.94-1H373a12.77,12.77,0,0,1,4,.68C377.58,416.87,378,416.65,377.94,416Zm25.86,15.67c0,7.17-5.36,12.44-13.38,12.44s-13.33-5.27-13.33-12.44,5.4-12.47,13.33-12.47S403.8,424.53,403.8,431.69Zm-7.12,0c0-5.09-2.65-8.78-6.26-8.78s-6.21,3.69-6.21,8.78,2.7,8.74,6.21,8.74S396.68,436.69,396.68,431.69Zm31-11.84H409.88c-.49,0-.67.49-.27,1.08a5.61,5.61,0,0,1,1,3.74v4.23a27.21,27.21,0,0,1-.95,8.2c-.54,1.44-1.71,3.15-3.6,2.84a.68.68,0,0,0-.9.81l.49,2.66a.64.64,0,0,0,.77.54,8,8,0,0,0,6.76-5.05,25.68,25.68,0,0,0,1.48-9.55v-4.82a1,1,0,0,1,1-1h5.09a1,1,0,0,1,.95,1v18a1,1,0,0,0,1,.95h4.91a1,1,0,0,0,1-.95V420.79A1,1,0,0,0,427.72,419.85Zm26.81,0H436.69c-.5,0-.68.49-.27,1.08a5.61,5.61,0,0,1,1,3.74v4.23a27.21,27.21,0,0,1-.95,8.2c-.54,1.44-1.71,3.15-3.6,2.84a.68.68,0,0,0-.9.81l.49,2.66a.64.64,0,0,0,.77.54A7.92,7.92,0,0,0,440,438.9a25.48,25.48,0,0,0,1.49-9.55v-4.82a1,1,0,0,1,1-1h5.09a1,1,0,0,1,.94,1v18a1,1,0,0,0,1,.95h4.91a1,1,0,0,0,1-.95V420.79A1,1,0,0,0,454.53,419.85Zm10-9.87a4,4,0,1,0,4.06,4A4,4,0,0,0,464.53,410Zm2.61,9.87h-6.66c-.5,0-.68.49-.27,1.08a5.68,5.68,0,0,1,1,3.74v17.88a1,1,0,0,0,.95.95h4.95a1,1,0,0,0,1-.95V420.84A1,1,0,0,0,467.14,419.85Zm26.95,17.07c0,3.42-3.47,6.58-8.11,6.58H474.67a1,1,0,0,1-.95-.95V424.67a5.68,5.68,0,0,0-1-3.74c-.41-.59-.23-1.08.27-1.08h12.61c4.06,0,7.16,2.79,7.16,5.9a5.71,5.71,0,0,1-2.52,4.59c-.4.27-.31.45.05.68A6.78,6.78,0,0,1,494.09,436.92Zm-13.48-8.87a1,1,0,0,0,.95,1h2.12a2.64,2.64,0,0,0,2.21-2.8,2.53,2.53,0,0,0-2.53-2.75h-1.8a.93.93,0,0,0-.95.95Zm6.31,8.33c0-1.85-1.21-3.65-2.93-3.65h-2.43a.93.93,0,0,0-.95.95v5.18a1,1,0,0,0,.95,1H484C485.71,439.85,486.92,438.18,486.92,436.38Zm30.5-16.53h-2.57c-.81,0-1.08.18-1.3.9l-4.46,12.16c0,.18-.14.32-.32.32a.38.38,0,0,1-.31-.32L504,420.75c-.27-.72-.9-.9-1.81-.9h-6.12c-.68,0-.9.54-.36,1.08a9,9,0,0,1,2.48,3.74l6.71,17.57a1.74,1.74,0,0,1,0,1.8l-2.52,6.44c-.19.5,0,.9.67.9h2.52c.86,0,1-.18,1.31-.9l11-29.73C518.1,420.25,518,419.85,517.42,419.85Zm28.65,20.94-.45,7.66a1,1,0,0,1-1,1h-2c-.59,0-.9-.45-1-1l-.9-3.92a1.17,1.17,0,0,0-1.08-1H526a1.2,1.2,0,0,0-1.09,1l-.9,3.92c-.13.54-.4,1-1,1h-2.11a1,1,0,0,1-1-1l-.46-7.66a1,1,0,0,1,1-.94H522c.85,0,1.12-.14,1.35-1a42.05,42.05,0,0,0,2.07-12v-2.2a5.68,5.68,0,0,0-1-3.74c-.41-.59-.23-1.08.26-1.08h16.81a1,1,0,0,1,1,.94v18.07a1,1,0,0,0,1,1H545A1,1,0,0,1,546.07,440.79Zm-10.49-16.26a1,1,0,0,0-1-1h-4a1,1,0,0,0-1,1v2.34a41.29,41.29,0,0,1-1.89,12c-.18.63,0,1,.72,1h6.17a1,1,0,0,0,1-1Zm33.06-4.68h-2.56c-.81,0-1.08.18-1.31.9l-4.46,12.16c0,.18-.14.32-.32.32a.38.38,0,0,1-.31-.32l-4.46-12.16c-.27-.72-.9-.9-1.8-.9h-6.13c-.68,0-.9.54-.36,1.08a8.86,8.86,0,0,1,2.48,3.74l6.71,17.57a1.74,1.74,0,0,1,0,1.8l-2.52,6.44c-.18.5,0,.9.67.9h2.53c.85,0,1-.18,1.3-.9l11-29.73C569.32,420.25,569.18,419.85,568.64,419.85Z" fill="#fff"/><path d="M58.31,258.7l20.15-3.56,16.59,94.07-20.16,3.55-6.5-36.88-13.5,2.38,6.51,36.93-20.15,3.55L24.66,264.65l20.15-3.55,6.52,37,13.51-2.38Zm69.42-23.34,15.84,11.09,11.86,67.28-11.09,15.85-26.87,4.74-15.84-11.1L89.76,255.94l11.1-15.84Zm-3.13,21.33-13.51,2.38,9.49,53.81,13.51-2.38Zm47.8-27.9-20.15,3.55,16.63,94.32,47.1-8.3-3.55-20.15-27,4.75Zm53.84-9.49-20.14,3.55,16.63,94.32,47.1-8.31-3.55-20.15-27,4.75Zm71.43-4.22-5.47,28.07-14.68-24.52-20.25,3.57,29,46.25,7.81,44.29,20.15-3.55-7.81-44.3,11.4-53.37Zm87.19,41.19-17.27-50.69-10.78,1.9,1.1,53.54-20-50.21-20.05,3.53,34,91,21.49-3.79-.11-32.17,10.89,30.27,21.56-3.8.9-97.2-20.19,3.56Zm63.34-77.42L464,190l11.86,67.28-11.09,15.84-26.87,4.74-15.84-11.1-11.87-67.28,11.1-15.84Zm-3.13,21.33-13.51,2.38,9.49,53.81L454.56,254Zm67.76-32.73,15.84,11.1,11.87,67.28-11.09,15.84-26.88,4.74-15.84-11.09L474.86,188,486,172.19Zm-3.13,21.34-13.51,2.38L505.68,245l13.51-2.38Zm85-13.51,11.86,67.26-11.13,15.65-40.33,7.11-16.58-94,40.34-7.12Zm-19,10.23-13.51,2.38,9.49,53.81,13.5-2.38Z" fill="#fff"/><polygon points="468.02 305.92 487.84 280.99 486.45 312.79 516.47 323.97 485.61 332.75 484.29 364.81 466.55 338.15 436.83 345.95 455.92 321.93 438.32 295.09 468.02 305.92" fill="#fff"/><path d="M147.5,169.26l-45.16-7-.08,0-13.42-2.07a2.75,2.75,0,0,0-3.14,2.3l-6.35,41.1h0a2.76,2.76,0,0,0,2.3,3.12l58.66,9.05a2.76,2.76,0,0,0,3.14-2.31l6.34-41.1A2.76,2.76,0,0,0,147.5,169.26ZM99,175.69l-9.52-1.46,6.37-9.68,9.51,1.47Zm24.66,17.22a2.35,2.35,0,0,1-1.25,1.74l-11.38,5.85a2.34,2.34,0,0,1-1.44.24,2.46,2.46,0,0,1-1-.42,2.36,2.36,0,0,1-1-2.28l2.29-14.86a2.33,2.33,0,0,1,1.59-1.88,2.38,2.38,0,0,1,2.41.56l9.08,9A2.35,2.35,0,0,1,123.68,192.91ZM118,178.62l-9.51-1.47,6.36-9.67,9.51,1.47Zm19,2.93-9.51-1.47,6.36-9.67,9.52,1.46Zm17.5-29.24L99.31,130.47a2.91,2.91,0,0,0-3.59,1.92L91.92,142l1.31,3.86,55.17,21.83a2.89,2.89,0,0,0,3.58-1.92l3.8-9.59A2.89,2.89,0,0,0,154.48,152.31ZM106,147.67,97,144.12l8.35-8,9,3.54Zm17.86,7.06-8.95-3.54,8.35-8,8.95,3.54Zm17.86,7.07-9-3.54,8.35-8,8.95,3.54Z" fill="#fff"/><path d="M418,463.86a.22.22,0,0,0,0-.42l-1.29-.45c-1-.33.54-2.91,1.29-2.19l1,.9a.23.23,0,0,0,.36-.21l-.24-1.32c-.12-.54.54-.78,1.23-.78s1.41.27,1.29.75l-.24,1.35a.2.2,0,0,0,.33.18l1-.9c.84-.78,2.25,1.92,1.29,2.22l-1.29.45c-.21.06-.15.33,0,.39l1.29.45c1.05.33-.51,2.88-1.26,2.22l-1.05-.9a.19.19,0,0,0-.33.18l.24,1.35c.12.54-.54.78-1.23.78s-1.47-.27-1.32-.78l.3-1.35c.06-.18-.21-.33-.36-.18l-1.05.87c-.81.78-2.25-1.86-1.29-2.16Z" fill="#b1181e"/><path d="M429.13,463.86a.22.22,0,0,0,0-.42l-1.29-.45c-1-.33.54-2.91,1.29-2.19l1,.9a.23.23,0,0,0,.36-.21l-.24-1.32c-.12-.54.54-.78,1.23-.78s1.41.27,1.29.75l-.24,1.35a.2.2,0,0,0,.33.18l1-.9c.84-.78,2.25,1.92,1.29,2.22l-1.29.45c-.21.06-.15.33,0,.39l1.29.45c1,.33-.51,2.88-1.26,2.22l-1-.9a.19.19,0,0,0-.33.18l.24,1.35c.12.54-.54.78-1.23.78s-1.47-.27-1.32-.78l.3-1.35c.06-.18-.21-.33-.36-.18l-1,.87c-.81.78-2.25-1.86-1.29-2.16Z" fill="#b1181e"/><path d="M440.29,463.86a.22.22,0,0,0,0-.42L439,463c-1-.33.54-2.91,1.29-2.19l1,.9a.23.23,0,0,0,.36-.21l-.24-1.32c-.12-.54.54-.78,1.23-.78s1.41.27,1.29.75l-.24,1.35a.2.2,0,0,0,.33.18l1-.9c.84-.78,2.25,1.92,1.29,2.22l-1.29.45c-.21.06-.15.33,0,.39l1.29.45c1.05.33-.51,2.88-1.26,2.22l-1.05-.9a.19.19,0,0,0-.33.18l.24,1.35c.12.54-.54.78-1.23.78s-1.47-.27-1.32-.78l.3-1.35c.06-.18-.21-.33-.36-.18l-1.05.87c-.81.78-2.25-1.86-1.29-2.16Z" fill="#b1181e"/></svg>