<svg xmlns="http://www.w3.org/2000/svg" xmlns:xlink="http://www.w3.org/1999/xlink" viewBox="0 0 354.86 500.84"><defs><radialGradient id="a" cx="-903.2" cy="95.45" r="1.5" gradientTransform="matrix(31.93, 0, 0, -31.93, 28964.28, 3261.17)" gradientUnits="userSpaceOnUse"><stop offset="0" stop-color="#bd0738"/><stop offset="0.5" stop-color="#bd0738"/><stop offset="0.76" stop-color="#bb0737"/><stop offset="0.86" stop-color="#b40834"/><stop offset="0.94" stop-color="#a7092e"/><stop offset="1" stop-color="#990b28"/></radialGradient><linearGradient id="b" x1="104.9" y1="174.7" x2="129.11" y2="241.23" gradientUnits="userSpaceOnUse"><stop offset="0" stop-color="#f08998"/><stop offset="0.11" stop-color="#e67086"/><stop offset="0.33" stop-color="#d44364"/><stop offset="0.53" stop-color="#c8224c"/><stop offset="0.69" stop-color="#c00e3d"/><stop offset="0.8" stop-color="#bd0738"/><stop offset="1" stop-color="#bd0738"/></linearGradient><linearGradient id="c" x1="93.07" y1="191.15" x2="148.61" y2="246.69" gradientUnits="userSpaceOnUse"><stop offset="0" stop-color="#cc3c58"/><stop offset="0.06" stop-color="#c23450"/><stop offset="0.23" stop-color="#ae2341"/><stop offset="0.41" stop-color="#9f1736"/><stop offset="0.64" stop-color="#971030"/><stop offset="1" stop-color="#940e2e"/></linearGradient><linearGradient id="d" x1="125.06" y1="212.78" x2="126.08" y2="212.78" gradientUnits="userSpaceOnUse"><stop offset="0" stop-color="#c2c6c9"/><stop offset="0.1" stop-color="#b1b5b8"/><stop offset="0.53" stop-color="#6d7174"/><stop offset="0.84" stop-color="#43474a"/><stop offset="1" stop-color="#33373a"/></linearGradient><linearGradient id="e" x1="134.19" y1="232.97" x2="135.09" y2="232.97" gradientUnits="userSpaceOnUse"><stop offset="0" stop-color="#bec3c8"/><stop offset="0.11" stop-color="#acb1b6"/><stop offset="0.53" stop-color="#6b6f72"/><stop offset="0.84" stop-color="#424648"/><stop offset="1" stop-color="#323638"/></linearGradient><linearGradient id="f" x1="-858.56" y1="144.47" x2="-857.52" y2="144.47" gradientTransform="matrix(8.1, 8.1, 8.1, -8.1, 5890.9, 8322.99)" gradientUnits="userSpaceOnUse"><stop offset="0" stop-color="#bac3c9"/><stop offset="1" stop-color="#26292b"/></linearGradient><linearGradient id="g" x1="-919.72" y1="104.01" x2="-918.67" y2="104.01" gradientTransform="matrix(53.1, 53.1, 53.1, -53.1, 43410.33, 54555.58)" gradientUnits="userSpaceOnUse"><stop offset="0" stop-color="#c2c6c9"/><stop offset="1" stop-color="#404548"/></linearGradient><linearGradient id="h" x1="-945.14" y1="99.57" x2="-944.1" y2="99.57" gradientTransform="matrix(-67.41, 0, 0, 67.41, -63548.57, -6497.07)" gradientUnits="userSpaceOnUse"><stop offset="0" stop-color="#c2c6c9"/><stop offset="1" stop-color="#4c5155"/></linearGradient><linearGradient id="i" x1="125.1" y1="178.06" x2="125.99" y2="178.06" xlink:href="#e"/><radialGradient id="j" cx="391.78" cy="-157.95" r="84.26" gradientTransform="translate(-164.93 308.49) scale(0.7)" gradientUnits="userSpaceOnUse"><stop offset="0" stop-color="#fff"/><stop offset="0.35" stop-color="#fff"/><stop offset="0.53" stop-color="#fbfbfc"/><stop offset="0.72" stop-color="#eef1f2"/><stop offset="0.91" stop-color="#dadfe3"/><stop offset="1" stop-color="#cdd4d9"/></radialGradient><radialGradient id="k" cx="389.71" cy="-158.53" r="12.3" gradientTransform="translate(-164.93 308.49) scale(0.7)" gradientUnits="userSpaceOnUse"><stop offset="0" stop-color="#fff"/><stop offset="0.35" stop-color="#fff"/><stop offset="0.57" stop-color="#fbfbfc"/><stop offset="0.79" stop-color="#eef1f2"/><stop offset="1" stop-color="#dce1e4"/></radialGradient></defs><title>Vector Smart Object1</title><path d="M199.77,73.66a13.31,13.31,0,0,1-10.94-5.78,13.33,13.33,0,0,1-10.94,5.78h-1.56a13.28,13.28,0,0,1-11.2-6,29.62,29.62,0,0,1-12-.17,13.26,13.26,0,0,1-11.31,6.22h-1.56a13.33,13.33,0,0,1-11.14-6.08h-19A13.35,13.35,0,0,1,96.75,54.24V32.83a13.08,13.08,0,0,1,.36-11.34,12.88,12.88,0,0,1,11.46-6.9h4.92a13.41,13.41,0,0,1,4.62.82,13.31,13.31,0,0,1,4.61-.82h3.36a13.27,13.27,0,0,1,4.65.83,13.16,13.16,0,0,1,4.63-.83h3.44a13.26,13.26,0,0,1,7.78,2.51,29,29,0,0,1,26.47.26,13,13,0,0,1,8-2.77h17.12a13.44,13.44,0,0,1,3.61.49,13.33,13.33,0,0,1,3.58-.49h4.88a13.4,13.4,0,0,1,7,2,13.4,13.4,0,0,1,7-2h3.28A13.3,13.3,0,0,1,234,16.2a21.76,21.76,0,0,1,8.24-1.61h9.48A13.41,13.41,0,0,1,265.15,28V54.24a13.36,13.36,0,0,1-13.34,13.34h-3.36a13.34,13.34,0,0,1-5.58-1.21,13.83,13.83,0,0,1-5.66,1.21h-4.16a12.64,12.64,0,0,1-2.68-.28,12.9,12.9,0,0,1-2.73.28h-3.28a13.39,13.39,0,0,1-7-2,13.31,13.31,0,0,1-4.64,1.77,13.29,13.29,0,0,1-11.35,6.29Z" fill="#00a3e2"/><path d="M143.12,52.76l-.4,7.52a.92.92,0,0,1-.88.88h-1.56c-.48,0-.76-.4-.88-.88L138.2,56a1.27,1.27,0,0,0-1.08-.92h-27a.87.87,0,0,1-.84-.84V31.37a5,5,0,0,0-.92-3.32c-.36-.52-.2-1,.24-1h4.92a.89.89,0,0,1,.88.88V51a.83.83,0,0,0,.84.88H121a.85.85,0,0,0,.84-.88V28a.89.89,0,0,1,.88-.88h3.36A.89.89,0,0,1,127,28V51a.86.86,0,0,0,.88.88h5.76a.87.87,0,0,0,.92-.88V28a.85.85,0,0,1,.84-.88h3.44a.88.88,0,0,1,.84.88V51a.86.86,0,0,0,.88.88h1.8A.8.8,0,0,1,143.12,52.76Zm31.62-11.64c0,8.2-6.36,14.52-15.2,14.52s-15.08-6.32-15.08-14.52,6.36-14.59,15.08-14.59S174.74,32.85,174.74,41.12Zm-5.6,0c0-6.35-4-11.35-9.6-11.35s-9.48,5-9.48,11.35,4,11.36,9.48,11.36S169.14,47.44,169.14,41.08Zm33.47,11.68-.4,7.52a.92.92,0,0,1-.88.88h-1.56c-.48,0-.76-.4-.88-.88L197.69,56a1.27,1.27,0,0,0-1.08-.92H181.05A1.27,1.27,0,0,0,180,56l-1.2,4.28c-.12.48-.4.88-.88.88h-1.56a.92.92,0,0,1-.88-.88l-.4-7.52a.77.77,0,0,1,.76-.88h1.56c.8,0,1-.12,1.2-.8a50.45,50.45,0,0,0,3.2-16.83V31.37a5,5,0,0,0-.92-3.32c-.36-.52-.2-1,.24-1h17.12a.89.89,0,0,1,.88.88V51a.86.86,0,0,0,.88.88h1.76A.86.86,0,0,1,202.61,52.76ZM194,31.21a.9.9,0,0,0-.88-.92h-6.88a.9.9,0,0,0-.88.92v2.36a57,57,0,0,1-2.88,17.51.59.59,0,0,0,.6.8h10A.86.86,0,0,0,194,51Zm33.67-4.12h-3.28a.9.9,0,0,0-.92.88V38.33a.88.88,0,0,1-.84.88H212a.83.83,0,0,1-.84-.88V28a.9.9,0,0,0-.92-.88H205.4c-.44,0-.6.44-.24,1a5,5,0,0,1,.92,3.32V54.24a.87.87,0,0,0,.84.84h3.36a.89.89,0,0,0,.92-.84v-11a.82.82,0,0,1,.84-.88H222.6a.87.87,0,0,1,.84.88v11a.89.89,0,0,0,.92.84h3.28a.89.89,0,0,0,.92-.84V28A.9.9,0,0,0,227.64,27.09Zm25,.88V54.24a.87.87,0,0,1-.84.84h-3.36a.89.89,0,0,1-.92-.84v-8.8a.81.81,0,0,0-.84-.88h-2.16a1.23,1.23,0,0,0-1.28.8l-4.68,8.88a1.75,1.75,0,0,1-1.36.84h-4.16c-.48,0-.64-.4-.4-.84l5.64-9.68a.78.78,0,0,0-.4-1.15c-2.68-1.49-4.8-4-4.8-7.4a9.08,9.08,0,0,1,9.16-8.92h9.48A.9.9,0,0,1,252.65,28Zm-5.12,3.28a.9.9,0,0,0-.84-1h-3.12c-3,0-5.12,2.52-5.12,5.6a5.19,5.19,0,0,0,5.12,5.48h3.12c.52,0,.84-.44.84-1Z" fill="#fff"/><path d="M100.38,342.33a12.5,12.5,0,0,1-4.74-24.07l14.54-5.95h-69a25.74,25.74,0,0,1-25.71-25.7v-148a25.74,25.74,0,0,1,25.71-25.7H320.68a25.73,25.73,0,0,1,25.7,25.7v148a25.73,25.73,0,0,1-25.7,25.7h-69l14.54,5.95a12.5,12.5,0,0,1-4.74,24.07Z" fill="#00a3e2"/><path d="M208.53,491.65a19.85,19.85,0,0,1-12.74-4.38,13.47,13.47,0,0,1-9.34,3.75H181.5a13.78,13.78,0,0,1-2.9-.31,13.64,13.64,0,0,1-2.87.31h-6.17a13.39,13.39,0,0,1-2.71-.27,24.71,24.71,0,0,1-6.62.9,23.39,23.39,0,0,1-10.12-2.27,13.41,13.41,0,0,1-6.46,1.64h-5a13.23,13.23,0,0,1-4.19-.67,13.23,13.23,0,0,1-4.19.67h-5a13.4,13.4,0,0,1-4.18-.66,13.58,13.58,0,0,1-4.2.66h-5a13.4,13.4,0,0,1-6.15-1.49,25.6,25.6,0,0,1-10.38,2.12c-10.14,0-18.92-5.19-22.93-13.55a14,14,0,0,1,.26-12.71l1.37-2.52a21.74,21.74,0,0,1-1.56-8.5,19.81,19.81,0,0,1,4-11.81,13.52,13.52,0,0,1-8.21-12.41V416.3A13,13,0,0,1,59.25,402l.4-3.08c0-.1,0-.2,0-.3A13.57,13.57,0,0,1,73.17,387.1H95.92a13.57,13.57,0,0,1,12.1,7.3c.53,0,1.06,0,1.6,0a26.71,26.71,0,0,1,12,2.73,13.07,13.07,0,0,1,7.13-2.1h17.84a13.43,13.43,0,0,1,6.86,1.87,27.17,27.17,0,0,1,11.57-2.5,26.88,26.88,0,0,1,10.58,2.1,13.08,13.08,0,0,1,6-1.47h13.31a16.57,16.57,0,0,1,30.06-.57c.63-.05,1.23-.07,1.81-.07a22.43,22.43,0,0,1,12.11,3.42,27.16,27.16,0,0,1,13.44-3.42,28.08,28.08,0,0,1,10.47,2,13.09,13.09,0,0,1,5.7-1.3h6.18a14.31,14.31,0,0,1,2.71.27,24.64,24.64,0,0,1,6.61-.9c13.38,0,23.85,11,23.85,24.93,0,10.13-5.48,18.68-13.57,22.63a13.27,13.27,0,0,1,.46,10.19l-11.17,29.68A13.38,13.38,0,0,1,270.47,491H266.6a13.4,13.4,0,0,1-12.06-7,13.52,13.52,0,0,1-11.82,7h-5.5a13.52,13.52,0,0,1-12.49-8.39,13.2,13.2,0,0,1-6.91,7.2A25.16,25.16,0,0,1,208.53,491.65Z" fill="#00a3e2"/><path d="M320.68,125.39H41.23A13.25,13.25,0,0,0,28,138.59v148a13.25,13.25,0,0,0,13.21,13.2H173.72l-73.34,30H261.52l-73.34-30h132.5a13.24,13.24,0,0,0,13.2-13.2v-148A13.24,13.24,0,0,0,320.68,125.39Z" fill="#fff"/><path d="M87.32,431.14h-5.5a1,1,0,0,1-1-1v-25.5a1,1,0,0,0-1-1H76.6a12.78,12.78,0,0,0-4,.68c-.63.22-1.08,0-1-.63l.4-3.11a1.1,1.1,0,0,1,1.13-.95H95.92a1.08,1.08,0,0,1,1.13.95l.4,3.11c.09.63-.36.85-1,.63a12.77,12.77,0,0,0-4-.68H89.25a1,1,0,0,0-.94,1v25.5A1,1,0,0,1,87.32,431.14Zm9.14-11.81c0-7.29,5.32-12.47,13.16-12.47,7.66,0,13,5.18,13,12.47v.14a1.54,1.54,0,0,1-1.44,1.44h-16.8c-.41,0-.63.23-.54.72a7.3,7.3,0,0,0,7.16,6.44,8.71,8.71,0,0,0,7.21-3.6.68.68,0,0,1,1-.09l1.75,1.35a.93.93,0,0,1,.14,1.17c-2.61,3.29-6.17,4.87-11,4.87C102.18,431.77,96.46,426.63,96.46,419.33Zm7.93-2.11h10.14c.4,0,.58-.23.49-.86-.45-3.33-2.84-5.81-5.58-5.81s-5.09,2.48-5.54,5.9C103.81,417,104,417.22,104.39,417.22Zm42.17-9.73H128.72c-.5,0-.68.49-.27,1.08a5.67,5.67,0,0,1,1,3.74v4.23a27.21,27.21,0,0,1-1,8.2c-.54,1.44-1.71,3.15-3.6,2.84a.68.68,0,0,0-.91.81l.5,2.66a.63.63,0,0,0,.77.54,7.92,7.92,0,0,0,6.75-5,25.45,25.45,0,0,0,1.49-9.55v-4.82a1,1,0,0,1,1-1h5.09a1,1,0,0,1,.94,1v18a1,1,0,0,0,1,.95h4.91a1,1,0,0,0,1-.95V408.43A1,1,0,0,0,146.56,407.49ZM178,419.33v.14a1.55,1.55,0,0,1-1.44,1.44H159.71c-.4,0-.63.23-.54.72a7.31,7.31,0,0,0,7.17,6.44,8.71,8.71,0,0,0,7.21-3.6.68.68,0,0,1,1-.09l1.75,1.35a.94.94,0,0,1,.14,1.17c-2.61,3.29-6.17,4.87-11,4.87-7.84,0-13.56-5.14-13.56-12.44s5.32-12.47,13.16-12.47C172.64,406.86,178,412,178,419.33Zm-7.57-3c-.45-3.33-2.84-5.81-5.59-5.81s-5.09,2.48-5.54,5.9c-.09.59.14.77.5.77H169.9C170.3,417.22,170.48,417,170.39,416.36Zm11-7.79c-.41-.59-.23-1.08.27-1.08h12.61c4.06,0,7.17,2.79,7.17,5.9a5.68,5.68,0,0,1-2.53,4.59c-.4.27-.31.45,0,.68a6.78,6.78,0,0,1,3.83,5.9c0,3.42-3.47,6.58-8.11,6.58H183.32a1,1,0,0,1-.95-.95V412.31A5.62,5.62,0,0,0,181.34,408.57Zm7.93,7.12a1,1,0,0,0,.94,1h2.12a2.64,2.64,0,0,0,2.21-2.8,2.53,2.53,0,0,0-2.52-2.75h-1.81a.92.92,0,0,0-.94.95Zm0,10.81a1,1,0,0,0,.94,1h2.44c1.71,0,2.93-1.67,2.93-3.47s-1.22-3.65-2.93-3.65h-2.44a.92.92,0,0,0-.94.95Zm23.42-19H206c-.5,0-.68.49-.27,1.08a5.68,5.68,0,0,1,1,3.74v17.88a1,1,0,0,0,1,.95h4.95a1,1,0,0,0,1-.95V408.48A1,1,0,0,0,212.69,407.49Zm-2.61-9.87a4,4,0,1,0,4.06,4A4,4,0,0,0,210.08,397.62Zm26.27,26.8c0-2.52-1.49-4.46-4-5.76-.36-.18-.4-.41,0-.68a6.05,6.05,0,0,0,2.61-5c0-3.2-3.19-6.12-8.2-6.12-2.61,0-5.63,1-7.07,2.52a1.12,1.12,0,0,0-.13,1.48l1,2a.75.75,0,0,0,1.3,0,4.08,4.08,0,0,1,3.38-2.3,2.65,2.65,0,0,1,2.89,2.93c0,2-1.17,3.2-2.75,3.2h-.72a1,1,0,0,0-1,.94v1.89c0,.68.54.86,1.17.86h.72a3.26,3.26,0,0,1,3.56,3.6c0,2.48-1.26,4.1-3.88,4.1a5.86,5.86,0,0,1-4.37-2.2c-.27-.36-.67-.86-1.26-.54l-1.57.85c-.77.41-.68.86-.55,1.13,1.49,2.43,4.46,4.46,9.74,4.46C232.34,431.77,236.35,428.52,236.35,424.42Zm2.65-5.09c0-7.16,5.41-12.47,13.34-12.47s13.38,5.31,13.38,12.47-5.36,12.44-13.38,12.44S239,426.5,239,419.33Zm7.12,0c0,5,2.71,8.74,6.22,8.74s6.26-3.73,6.26-8.74-2.66-8.78-6.26-8.78S246.12,414.24,246.12,419.33Zm49.24,0c0,6.85-4.59,12.48-11.35,12.48a10.75,10.75,0,0,1-6.94-2.34c-.63-.49-.94,0-.94.18V438a1,1,0,0,1-1,1h-4.77a1,1,0,0,1-1-1V412.35a5.63,5.63,0,0,0-1-3.74c-.4-.58-.22-1.08.27-1.08h6.18a1,1,0,0,1,1,1v.68c0,.81.49.76,1,.31a10.94,10.94,0,0,1,7.3-2.61C290.77,406.9,295.36,412.49,295.36,419.33Zm-7.07,0c0-5-2.7-8.1-6.17-8.1-2.21,0-4.15,1.39-5.5,3.55a3.77,3.77,0,0,0-.49,1.85v5.45a3.74,3.74,0,0,0,.49,1.85,6.53,6.53,0,0,0,5.5,3.56C285.59,427.49,288.29,424.42,288.29,419.33ZM97.7,458.3c-3.33-1.72-6-2.93-6-5.05,0-1.8,1.31-2.88,3.56-2.88a7,7,0,0,1,5.59,3.06c.4.58,1.17.68,1.48,0l1.58-2.61a1.28,1.28,0,0,0-.09-1.49c-1.94-1.84-4.78-3-8.7-3-5.45,0-10,3.15-10,8.11,0,5.81,4.37,8.47,9,10.72,3.16,1.57,5.86,3,5.86,5.9,0,2.43-1.71,4.05-4.82,4.05-4,0-7.3-3.33-8.11-6.93a.74.74,0,0,0-1.35-.27l-1.89,3.46a1.57,1.57,0,0,0,0,1.27c1.71,3.6,6,6.48,11.67,6.48,6.8,0,10.9-4.19,10.9-9.5C106.35,463.57,101.62,460.32,97.7,458.3Zm39.06-4.06c-2.66,0-4.37.77-6.67,2.52-.45.41-.67.32-.94,0a6.58,6.58,0,0,0-5.45-2.48,7.25,7.25,0,0,0-5.59,2.3c-.4.36-.63.31-.63-.36v-.32a1,1,0,0,0-1-1h-6.22c-.49,0-.67.5-.27,1.08a5.63,5.63,0,0,1,1,3.74v17.89a1,1,0,0,0,.94.94h5a1,1,0,0,0,1-.94V464.47c0-3.2,2-5.68,3.6-5.68,1.85,0,2.84,1.17,2.84,4.42v14.37a1,1,0,0,0,.95.94h5a1,1,0,0,0,1-.94V464.42c0-3.24,2-5.72,3.64-5.72,1.85,0,2.84,1.17,2.84,4.41v14.47a1,1,0,0,0,.95.94h5a1,1,0,0,0,1-.94V462.12C144.65,456.67,141.36,454.24,136.76,454.24ZM176,477.44c.41.59.23,1.08-.27,1.08h-6.17a1,1,0,0,1-1-1v-.67c0-.82-.5-.77-1-.32a10.94,10.94,0,0,1-7.3,2.61c-6.75,0-11.35-5.58-11.35-12.43s4.6-12.48,11.35-12.48a10.78,10.78,0,0,1,6.94,2.34c.63.5,1,.05,1-.18v-.58a1,1,0,0,1,1-.95H174a1,1,0,0,1,.94.95V473.7A5.67,5.67,0,0,0,176,477.44ZM168.12,464a3.74,3.74,0,0,0-.5-1.85,6.54,6.54,0,0,0-5.49-3.55c-3.47,0-6.18,3.06-6.18,8.15s2.71,8.11,6.18,8.11c2.2,0,4.14-1.4,5.49-3.56a3.74,3.74,0,0,0,.5-1.85ZM196,454.6a8.29,8.29,0,0,0-2.38-.36,7.94,7.94,0,0,0-5.91,2.48c-.4.36-.72.27-.72-.23v-.63a1,1,0,0,0-1-1h-6.22c-.49,0-.67.5-.27,1.08a5.63,5.63,0,0,1,1,3.74v17.89a1,1,0,0,0,.95.94h4.95a1,1,0,0,0,1-.94V464.65c0-3.16,1.31-5.14,3.47-5.14a3.57,3.57,0,0,1,2.57,1.17.78.78,0,0,0,1.4-.36l1.71-4.64C196.81,455.1,196.5,454.78,196,454.6Zm16.31.27h-2.75a.88.88,0,0,1-.9-.9V450.5a1,1,0,0,0-1-1h-4.91a1,1,0,0,0-.95,1V454a.93.93,0,0,1-1,.9h-1.53a1,1,0,0,0-1,.95v1.75a.93.93,0,0,0,1,.95h1.53a1,1,0,0,1,1,1v13.7c0,3.65,2.7,5.94,6.76,5.94a13.16,13.16,0,0,0,4.05-.67c.5-.23.59-.36.5-.9l-.32-1.94c0-.36-.22-.63-.76-.45a3.88,3.88,0,0,1-1.45.27c-1.12,0-1.89-.81-1.89-2.21V459.51a.9.9,0,0,1,.9-1h2.75a.92.92,0,0,0,.95-.95v-1.75A1,1,0,0,0,212.31,454.87Zm39-7.88H228.57a1.08,1.08,0,0,0-1.12.94L227,451c-.09.63.36.86,1,.63a12.79,12.79,0,0,1,4-.67h3.24a1,1,0,0,1,1,1v25.5a1,1,0,0,0,1,1h5.5a1,1,0,0,0,1-1V452a1,1,0,0,1,.95-1h3.24a12.85,12.85,0,0,1,4,.67c.63.23,1.08,0,1-.63l-.41-3.11A1.08,1.08,0,0,0,251.32,447Zm31,0h-3.38c-.81,0-1,.27-1.31,1l-7.56,20.5a.34.34,0,0,1-.68,0L262,448c-.31-.81-.49-1-1.3-1h-7.12c-.63,0-.9.54-.27,1.12a9,9,0,0,1,2.2,3.7l9.78,25.77c.32.81.5.94,1.31.94h3.87c.86,0,1.08-.13,1.35-.94L283,447.89C283.18,447.39,283,447,282.32,447Z" fill="#fff"/><path d="M300.93,451.42a.22.22,0,0,0,0-.42l-1.29-.45c-1-.33.54-2.91,1.29-2.19l1,.9a.23.23,0,0,0,.36-.21l-.24-1.32c-.12-.54.54-.78,1.23-.78s1.41.27,1.29.75l-.24,1.35a.2.2,0,0,0,.33.18l1-.9c.84-.78,2.25,1.92,1.29,2.22l-1.29.45c-.21.06-.15.33,0,.39l1.29.45c1.05.33-.51,2.88-1.26,2.22l-1.05-.9a.19.19,0,0,0-.33.18l.24,1.35c.12.54-.54.78-1.23.78s-1.47-.27-1.32-.78l.3-1.35c.06-.18-.21-.33-.36-.18l-1.05.87c-.81.78-2.25-1.86-1.29-2.16Z" fill="#2371b9"/><path d="M312.09,451.42a.22.22,0,0,0,0-.42l-1.29-.45c-1-.33.54-2.91,1.29-2.19l1,.9a.23.23,0,0,0,.36-.21l-.24-1.32c-.12-.54.54-.78,1.23-.78s1.41.27,1.29.75l-.24,1.35a.2.2,0,0,0,.33.18l1-.9c.84-.78,2.25,1.92,1.29,2.22l-1.29.45c-.21.06-.15.33,0,.39l1.29.45c1.05.33-.51,2.88-1.26,2.22l-1.05-.9a.19.19,0,0,0-.33.18l.24,1.35c.12.54-.54.78-1.23.78s-1.47-.27-1.32-.78l.3-1.35c.06-.18-.21-.33-.36-.18l-1.05.87c-.81.78-2.25-1.86-1.29-2.16Z" fill="#2371b9"/><polygon points="203.82 184.75 190.11 184.75 190.11 244.09 232.22 244.09 232.22 232.53 203.82 232.53 203.82 184.75" fill="#6f6f6e"/><path d="M262.38,221.47h11.16v10.37a31.34,31.34,0,0,1-9.88,1.58c-12.35,0-16.46-6.28-16.46-19,0-12.15,3.92-19.29,16.26-19.29,6.85,0,10.77,2.15,14,6.26l8.52-7.83c-5.19-7.44-14.3-9.69-22.82-9.69-19.19,0-29.28,10.47-29.28,30.45S243,245,263.06,245c9.21,0,18.22-2.35,23.11-5.78V210.4H262.38Z" fill="#6f6f6e"/><path d="M123.67,168.77A45.9,45.9,0,1,0,169.6,215v-.72A45.91,45.91,0,0,0,123.67,168.77Z" fill="url(#a)"/><path d="M92.62,183.6c-15.33,15.34-16.89,38.71-3.42,52.18s36.82,11.92,52.16-3.42,16.92-38.74,3.46-52.21A32,32,0,0,0,121.88,171,41.82,41.82,0,0,0,92.62,183.6" fill="url(#b)"/><path d="M121.32,235.24l1.13-.65V195.82l-.28-.46.28-.08v-.06h.2l3.43-1.17.61,1.06a.42.42,0,0,1,.09.29l0,35.31h8.35l.67,1a.63.63,0,0,1,.1.43v3.55a.29.29,0,0,1-.26.31H122.84a1.14,1.14,0,0,1-.64-.19Zm41.41-22.68H134.34v4.54l.7.95h0a.36.36,0,0,0,.24.09H159a34.61,34.61,0,0,1-58.92,22,34.68,34.68,0,0,1-.19-48.74c6.56-6.46,14.8-9.88,24.68-10.09l1.86,0h.21c.13,0,.24,0,.24-.3v-3.73a.74.74,0,0,0-.09-.4l-.84-1-1.89.27-.95.31c-21.56,0-37.73,18-37.73,39.48a39.12,39.12,0,0,0,78.24-.23v-2.24Zm-53.11-18a6.13,6.13,0,1,0,6.17,6.13A6.15,6.15,0,0,0,109.62,194.59Z" fill="url(#c)"/><polygon points="122.25 234.35 121.32 235.24 135.09 235.24 134.19 234.32 122.25 234.35" fill="#6b7277"/><polygon points="134.19 231.58 135.09 230.71 126.08 230.71 125.01 231.58 134.19 231.58" fill="#96a2a9"/><polygon points="126.08 194.05 121.32 194.05 122.21 194.9 125.06 194.89 126.08 194.05" fill="#98a1a8"/><polygon points="125.08 231.51 126.08 230.71 126.08 194.05 125.06 194.89 125.08 231.51" fill="url(#d)"/><polygon points="134.19 231.58 134.19 234.32 135.09 235.24 135.09 230.71 134.19 231.58" fill="url(#e)"/><polygon points="121.32 194.05 121.32 235.24 122.25 234.35 122.21 194.9 121.32 194.05" fill="#c2c6c9"/><path d="M103.93,200a5.1,5.1,0,1,0,5.11-5.09A5.09,5.09,0,0,0,103.93,200Z" fill="none"/><path d="M103,200a6,6,0,1,0,6-6A6,6,0,0,0,103,200Zm11.09,0a5.1,5.1,0,1,1-5.09-5.09A5.09,5.09,0,0,1,114.13,200Z" fill="url(#f)"/><polygon points="158.85 216.07 135.06 216.04 134.18 216.97 157.94 216.97 158.41 216.48 158.85 216.07" fill="#555c5e"/><polygon points="135.06 213.36 161.67 213.32 162.57 212.41 134.18 212.42 135.06 213.36" fill="#9ea5aa"/><path d="M162.57,214.66v-2.25l-.9.91v1.34a38,38,0,1,1-38-38l1.45,0,.89-.86-2.34,0a38.91,38.91,0,1,0,38.92,38.91Z" fill="url(#g)"/><path d="M125.1,179.45l-1,0h-.95a35.23,35.23,0,0,0,.07,70.46h.91A35.32,35.32,0,0,0,158.82,217l0-1-.45.41-.47.49a34.33,34.33,0,0,1-58.54,22,34.32,34.32,0,0,1,24.28-58.6l2.31,0Z" fill="url(#h)"/><polygon points="135.06 213.36 134.18 212.42 134.18 216.97 135.06 216.04 135.06 213.36" fill="#c2c6c9"/><polygon points="125.1 179.46 125.99 180.35 125.99 175.77 125.1 176.63 125.1 179.46" fill="url(#i)"/><path d="M121.82,194.53v40.22h12.79v-3.58h-9.12V194.53Zm1.34-18.3a38.43,38.43,0,1,0,38.9,38.43v-1.75H134.64v3.56h23.77c0,.08,0,.45,0,.52a34.83,34.83,0,1,1-34.75-37.16h1.84v-3.6l-1.44,0Z" fill="url(#j)"/><path d="M103.5,200a5.51,5.51,0,1,0,5.51-5.51A5.5,5.5,0,0,0,103.5,200" fill="url(#k)"/><path d="M110,195.5a5.45,5.45,0,0,1,3.35,1.17,5.45,5.45,0,0,0-4.34-2.16A5.51,5.51,0,0,0,103.5,200a5.44,5.44,0,0,0,2.14,4.3,5.41,5.41,0,0,1-1.16-3.31A5.52,5.52,0,0,1,110,195.5" fill="#fff"/><path d="M125.49,176.25l-1.86,0A38.43,38.43,0,0,0,96.5,241.82l.71.68A38.15,38.15,0,0,1,86.6,216c0-21.13,15-38.68,38.89-39.75" fill="#fff"/><path d="M125.49,231.17s2.63.76,9.12.76v-.76Z" fill="#fff"/><path d="M125.49,195.66v-1.13h-3.67v40.22s1.15-6.11,1.15-39.09Z" fill="#fff"/><path d="M162.06,212.91H134.64v3.57h1V213.9c23.88,0,26.42-1,26.42-1" fill="#fff"/><path d="M158.41,216.48c0,.08,0,.46,0,.53A34.81,34.81,0,0,1,99,239.27a34.53,34.53,0,0,1-8.9-15.22,35.28,35.28,0,0,0,34.13,25.86,34.89,34.89,0,0,0,34.61-33.43Z" fill="#fff"/></svg>