<svg xmlns="http://www.w3.org/2000/svg" viewBox="0 0 401.2 514.94"><title>Vector Smart Object1</title><path d="M78.78,498.91a13.46,13.46,0,0,1-13.25-11.18C58.42,483.6,54,476,54,466.72c0-8.57,3.84-15.79,10.1-20.09a12.95,12.95,0,0,1,13-13.22h6.67a13.43,13.43,0,0,1,8.49,3,16.59,16.59,0,0,1,25.86,5.95h14.13a13.44,13.44,0,0,1,3,.34,13.08,13.08,0,0,1,2.95-.34h6.67a13.47,13.47,0,0,1,8.89,3.34,13,13,0,0,1,8.73-3.34h8a13.78,13.78,0,0,1,6.22,1.5,13.71,13.71,0,0,1,6.21-1.5h6.22a13.37,13.37,0,0,1,3,.34,13.17,13.17,0,0,1,3-.34h6.62a13.61,13.61,0,0,1,4.71.84,13.45,13.45,0,0,1,4.7-.84h5a13.36,13.36,0,0,1,9.1,3.56,13,13,0,0,1,9-3.56h12.62A20.42,20.42,0,0,1,258.34,446a12.92,12.92,0,0,1,12.9-11.47h7.17a13.4,13.4,0,0,1,6.93,1.91,13.44,13.44,0,0,1,6.94-1.91h5.36a13.34,13.34,0,0,1,3.48.45,12.87,12.87,0,0,1,3.41-.45h13.83c16.39,0,29.22,12.39,29.22,28.22S334.75,491,318.36,491H306.25a13.26,13.26,0,0,1-4.29-.7,13.44,13.44,0,0,1-4.32.7h-5.36a13.52,13.52,0,0,1-6.94-1.9,13.49,13.49,0,0,1-6.93,1.9H273a13.43,13.43,0,0,1-11.06-5.81,21.4,21.4,0,0,1-14.8,5.81h-11.3a13.41,13.41,0,0,1-9.89-4.34A13.41,13.41,0,0,1,216,491h-5a13.43,13.43,0,0,1-4.68-.83,13.57,13.57,0,0,1-4.69.83h-4.91a13.43,13.43,0,0,1-3.83-.55,13.48,13.48,0,0,1-3.83.55h-5a13.7,13.7,0,0,1-3.52-.46,13.66,13.66,0,0,1-3.5.46h-3.79a13.4,13.4,0,0,1-3.41-.44,13.46,13.46,0,0,1-3.44.44h-2.25a13.37,13.37,0,0,1-5.82-1.33,21.46,21.46,0,0,1-7.47,1.33H139.87a13.41,13.41,0,0,1-3.82-.55,13.48,13.48,0,0,1-3.83.55H127.3a13.49,13.49,0,0,1-7.15-2,20.89,20.89,0,0,1-8,2.43l-.21,0c-.32,0-.74,0-1.06,0a13.51,13.51,0,0,1-3.79-.54,15.16,15.16,0,0,1-1.52.08h-5a13.41,13.41,0,0,1-4.27-.69,13.52,13.52,0,0,1-12.58,8.58Z" fill="#00aa4f"/><path d="M353.07,424.34a34,34,0,0,1-31.81-22.16c-4.14,13.3-16.06,22.16-31.33,22.16-14.3,0-26.31-8.06-31.65-19.89a33.9,33.9,0,0,1-61.67.14c-4.77,12-16.15,19.75-30.48,19.75a34.55,34.55,0,0,1-28.74-14.74,15.19,15.19,0,0,1-15.15,14H95.72a15.2,15.2,0,0,1-15.16-14.13,15.2,15.2,0,0,1-15.17,14.13H57.18a15.1,15.1,0,0,1-9.76-3.55,15.12,15.12,0,0,1-9.76,3.55H29.44a15.21,15.21,0,0,1-15.2-15.2v-36a15.21,15.21,0,0,1,15.2-15.2h8.22a15.2,15.2,0,0,1,9.76,3.55,15.18,15.18,0,0,1,9.76-3.55h8.21a15.21,15.21,0,0,1,15.17,14.13,15.21,15.21,0,0,1,15.16-14.13h26.52a15.2,15.2,0,0,1,15.16,14.17,34.07,34.07,0,0,1,28.17-14.88c11.69,0,22.65,5.87,28.59,15.33a15.19,15.19,0,0,1,2.06,5.29,33.9,33.9,0,0,1,62.1-.63,34.1,34.1,0,0,1,31-20c11.7,0,22.66,5.87,28.59,15.33a15.25,15.25,0,0,1,2.33,8.05c.13.19.25.39.37.58a33.9,33.9,0,1,1,32.42,43.83Z" fill="#00aa4f"/><path d="M116.36,332.83A37.5,37.5,0,0,1,78.9,295.37V204.64a71.48,71.48,0,0,1,106.62-95.2,71.48,71.48,0,0,1,113.66,85.41,36.28,36.28,0,0,1,.69,4.15h9.76l40.3-21.68a12.5,12.5,0,0,1,18.42,11V296.8a12.5,12.5,0,0,1-18.42,11l-40.3-21.68h-9.54v9.24a37.5,37.5,0,0,1-37.46,37.46Z" fill="#00aa4f"/><path d="M312.78,211.5H287.59v-8.38A24.88,24.88,0,0,0,285.44,193a59,59,0,1,0-99.92-62,59,59,0,1,0-93.91,69,25.12,25.12,0,0,0-.21,3.15v92.25a25,25,0,0,0,25,25H262.63a25,25,0,0,0,25-25V273.63h25.19l43.07,23.17V188.33Z" fill="#fff"/><path d="M350.91,451.42a.22.22,0,0,0,0-.42l-1.29-.45c-1-.33.54-2.91,1.29-2.19l1,.9a.23.23,0,0,0,.36-.21l-.24-1.32c-.12-.54.54-.78,1.23-.78s1.41.27,1.29.75l-.24,1.35a.2.2,0,0,0,.33.18l1-.9c.84-.78,2.25,1.92,1.29,2.22l-1.29.45c-.21.06-.15.33,0,.39l1.29.45c1.05.33-.51,2.88-1.26,2.22l-1.05-.9a.19.19,0,0,0-.33.18l.24,1.35c.12.54-.54.78-1.23.78s-1.47-.27-1.32-.78l.3-1.35c.06-.18-.21-.33-.36-.18l-1.05.87c-.81.78-2.25-1.86-1.29-2.16Z" fill="#008453"/><path d="M217,455.82v21.76a1,1,0,0,1-1,.94h-5a1,1,0,0,1-1-.94V465.23c0-.36-.32-.45-.5-.13l-6.8,12.61c-.27.5-.59.81-1.08.81h-4.91a1,1,0,0,1-.95-.94V459.69a5.7,5.7,0,0,0-1-3.74c-.41-.58-.23-1.08.27-1.08h6.62a1,1,0,0,1,1,.95v12.34c0,.36.31.45.49.14l6.8-12.62c.27-.49.59-.81,1.08-.81h5A1,1,0,0,1,217,455.82ZM251.37,466c-.36-.22-.45-.4,0-.67a5.73,5.73,0,0,0,2.52-4.6c0-3.11-3.11-5.9-7.16-5.9H234.07c-.49,0-.67.5-.27,1.08a5.63,5.63,0,0,1,1,3.74v17.89a1,1,0,0,0,.95.94h11.3c4.65,0,8.11-3.15,8.11-6.58A6.78,6.78,0,0,0,251.37,466Zm-9.64-6.57a.92.92,0,0,1,1-1h1.8a2.52,2.52,0,0,1,2.52,2.75,2.63,2.63,0,0,1-2.2,2.79h-2.12a1,1,0,0,1-1-1Zm3.38,15.4h-2.43a1,1,0,0,1-1-1V468.7a.93.93,0,0,1,1-.95h2.43c1.71,0,2.93,1.81,2.93,3.65S246.82,474.87,245.11,474.87ZM298.68,448v29.6a1,1,0,0,1-1,.94h-5.36a1,1,0,0,1-1-.94V465.41a1,1,0,0,0-.94-1h-9.91a.93.93,0,0,0-.95,1v12.17a1,1,0,0,1-1,.94H273a1,1,0,0,1-.94-.94V451.81a5.61,5.61,0,0,0-1-3.74c-.4-.59-.22-1.08.27-1.08h7.17a1,1,0,0,1,1,1v11.49a.93.93,0,0,0,.95,1h9.91a1,1,0,0,0,.94-1V448a1,1,0,0,1,1-1h5.36A1,1,0,0,1,298.68,448Zm19.69-1H304.53c-.49,0-.67.49-.27,1.08a5.61,5.61,0,0,1,1,3.74v25.77a1,1,0,0,0,.95.94h12.12c9.55,0,16.71-7.07,16.71-15.81S327.92,447,318.37,447Zm-1.13,27.52h-3.56a.94.94,0,0,1-.95-1V452a1,1,0,0,1,.95-1h3.56c5.77,0,9.91,4.59,9.91,11.76S323,474.51,317.24,474.51ZM85.54,454.92q-.81-.07-.81-.81V446.9a1,1,0,0,0-1-1H77.07c-.49,0-.67.49-.27,1.08a5.61,5.61,0,0,1,1,3.74v3.38a.73.73,0,0,1-.77.81c-6.71.58-10.59,5.45-10.59,11.8s3.88,11.22,10.59,11.76a.72.72,0,0,1,.77.81v6.17a1,1,0,0,0,.94,1h5a1,1,0,0,0,1-1v-6.17q0-.75.81-.81c6.67-.59,10.54-5.41,10.54-11.76S92.21,455.5,85.54,454.92Zm-7.7,19.23c0,.59-.32.81-.63.72-2.21-.76-3.74-3.78-3.74-8.2s1.53-7.38,3.74-8.1c.31-.05.63.13.63.72Zm7.52.68c-.31.09-.63-.14-.63-.72V459.29c0-.59.32-.77.63-.72,2.21.72,3.74,3.69,3.74,8.1S87.57,474.06,85.36,474.83Zm21.17-19v21.72a1,1,0,0,1-1,.94h-5a1,1,0,0,1-1-.94V459.69a5.7,5.7,0,0,0-1-3.74c-.41-.58-.23-1.08.27-1.08h6.66A1,1,0,0,1,106.53,455.86ZM107,449a4.06,4.06,0,1,1-4.06-4A4,4,0,0,1,107,449Zm26.21,6.81v21.76a1,1,0,0,1-1,.94H127.3a1,1,0,0,1-1-.94v-18a1,1,0,0,0-1-1h-5.09a1,1,0,0,0-1,1v4.82a25.71,25.71,0,0,1-1.48,9.55,7.94,7.94,0,0,1-6.76,5,.63.63,0,0,1-.77-.54l-.49-2.66a.68.68,0,0,1,.9-.81c1.89.32,3.06-1.39,3.6-2.83a27.28,27.28,0,0,0,1-8.2v-4.24a5.63,5.63,0,0,0-1-3.74c-.4-.58-.22-1.08.27-1.08h17.84A1,1,0,0,1,133.2,455.82Zm17.62,6.84h-4a1,1,0,0,1-1-1.08v-5.76a1,1,0,0,0-1-.95h-6.67c-.49,0-.67.5-.27,1.08a5.63,5.63,0,0,1,1,3.74v17.89a1,1,0,0,0,.94.94h10.95c4.64,0,8.52-3.51,8.52-7.88S155.46,462.66,150.82,462.66Zm-2.16,12.21h-1.94a1,1,0,0,1-.9-1V467.3a1,1,0,0,1,.9-1h1.94c2.12,0,3.47,1.72,3.47,4.15S150.78,474.87,148.66,474.87ZM190,455.77v21.85a.85.85,0,0,1-.9.9h-5a.91.91,0,0,1-.94-.9V466c0-.45-.54-.49-.68-.09l-4.14,11.67a1.41,1.41,0,0,1-1.26.9h-3.79a1.38,1.38,0,0,1-1.21-.9L167.9,466a.32.32,0,1,0-.63.14v11.53a.91.91,0,0,1-.91.9h-2.25a.85.85,0,0,1-.9-.9V459.69a5.63,5.63,0,0,0-1-3.74c-.4-.58-.22-1.08.28-1.08h8a1.36,1.36,0,0,1,1.21.9l4.69,13.56a.3.3,0,0,0,.59,0l4.73-13.56a1.42,1.42,0,0,1,1.21-.9h6.22A.88.88,0,0,1,190,455.77Z" fill="#fff"/><path d="M246.11,390.44a18.7,18.7,0,1,1-18.7-18.69A18.54,18.54,0,0,1,246.11,390.44Zm-8.22,0a10.48,10.48,0,1,0-20.95,0c0,6.42,4.62,10.69,10.47,10.69A10.23,10.23,0,0,0,237.89,390.44Zm51.73,5.14h9.6c-1.28,3.44-4.41,5.55-9.19,5.55-7,0-11.3-4.47-11.3-10.59,0-6.31,4.52-10.78,10.58-10.78,4.06,0,7.3,1.85,8.78,4.21l7-4a18.4,18.4,0,0,0-15.72-8.21,18.64,18.64,0,0,0-18.85,18.74c0,10.33,8.12,18.65,19.42,18.65,10.07,0,17.72-6.68,17.72-17.67v-3.08h-18Zm82.14-5.14a18.7,18.7,0,1,1-18.69-18.69A18.54,18.54,0,0,1,371.76,390.44Zm-8.22,0a10.48,10.48,0,1,0-10.47,10.69C358.92,401.13,363.54,396.86,363.54,390.44Zm-306.36-18h8.21v36H57.18V387.51l-9.3,15.26H47l-9.3-15.26v20.91H29.44v-36h8.22l9.76,16Zm38.54,36h26.52v-7.91h-18.3v-6.37h18.3v-7.81h-18.3v-6h18.3v-7.91H95.72Zm70.1-12.84h9.61c-1.29,3.44-4.42,5.55-9.2,5.55-7,0-11.3-4.47-11.3-10.59,0-6.31,4.52-10.78,10.59-10.78,4,0,7.29,1.85,8.78,4.21l7-4a18.39,18.39,0,0,0-15.71-8.21,18.64,18.64,0,0,0-18.85,18.74c0,10.33,8.11,18.65,19.41,18.65,10.07,0,17.72-6.68,17.72-17.67v-3.08h-18Z" fill="#fff"/><path d="M347.53,73.66a13.31,13.31,0,0,1-10.94-5.78,13.33,13.33,0,0,1-10.94,5.78h-1.56a13.28,13.28,0,0,1-11.2-6,29.28,29.28,0,0,1-5.59.53,28.78,28.78,0,0,1-9.91-1.73A13.05,13.05,0,0,1,292,67.58H287.7a15.22,15.22,0,0,1-7.24-1.79,13.37,13.37,0,0,1-6.71,1.79h-3.36a13.32,13.32,0,0,1-9.46-3.93,13.4,13.4,0,0,1-9.51,3.93h-3.28a13.36,13.36,0,0,1-7-2,13.39,13.39,0,0,1-7,2h-3.36a13.59,13.59,0,0,1-3.08-.35,13.59,13.59,0,0,1-3.08.35H209a13.53,13.53,0,0,1-2.39-.21,13.08,13.08,0,0,1-2.35.21h-4.16a15.2,15.2,0,0,1-6.41-1.38,13.45,13.45,0,0,1-5.95,1.38h-3.28a13.31,13.31,0,0,1-5.94-1.38,15.2,15.2,0,0,1-6.41,1.38H167.9a13,13,0,0,1-5.54-1.23,29.35,29.35,0,0,1-20,.06,13.05,13.05,0,0,1-5.41,1.17h-4.28a15.22,15.22,0,0,1-7.24-1.79,13.37,13.37,0,0,1-6.71,1.79h-3.36a13.25,13.25,0,0,1-8.11-2.75,13.25,13.25,0,0,1-8.1,2.75H95.37A13.79,13.79,0,0,1,86,63.85a13.83,13.83,0,0,1-9.42,3.73h-2a13.31,13.31,0,0,1-4.32-.71,24.92,24.92,0,0,1-8,1.27c-8.63,0-16.35-3.93-20.65-10.53a13,13,0,0,1,3.23-17.83c-.12-.17-.23-.34-.34-.51l-.94-1.52A13.57,13.57,0,0,1,44.14,22l.11-.15C48.21,17,54.77,14,61.79,14a23.74,23.74,0,0,1,13,3.63,13.09,13.09,0,0,1,8.45-3.07h5.28a14,14,0,0,1,13,9,14.71,14.71,0,0,1,.86-2.06,12.93,12.93,0,0,1,11.49-6.91h4.84a13.42,13.42,0,0,1,6.72,1.8,14.81,14.81,0,0,1,7.19-1.8h2.48a13,13,0,0,1,6.22,1.58A28.56,28.56,0,0,1,152.25,14a29,29,0,0,1,10.65,2,13,13,0,0,1,6-1.44H172A15.09,15.09,0,0,1,178.42,16a13.41,13.41,0,0,1,6-1.41h3.28a13.25,13.25,0,0,1,6,1.41,15.07,15.07,0,0,1,6.45-1.41h2.24a13.13,13.13,0,0,1,2.52.24,13.41,13.41,0,0,1,2.54-.24H224a14.35,14.35,0,0,1,2.65.25,13.87,13.87,0,0,1,2.59-.25h4.88a13.4,13.4,0,0,1,7,2,13.37,13.37,0,0,1,7-2h3.28a13.37,13.37,0,0,1,8.82,3.3,12.92,12.92,0,0,1,8.67-3.3h4.84a13.42,13.42,0,0,1,6.72,1.8,14.81,14.81,0,0,1,7.19-1.8h2.48a13,13,0,0,1,6.22,1.58,29.05,29.05,0,0,1,24.45,1.19,13,13,0,0,1,8-2.77H346A13.4,13.4,0,0,1,359.35,28V43.71h0a13.26,13.26,0,0,1,3.49,9.77L362.45,61l0,.37a13.32,13.32,0,0,1-13.33,12.34Z" fill="#00aa4f"/><path d="M72.11,47.28c0,4.64-3.76,8.36-9.88,8.36-4.36,0-8.2-1.8-10.2-4.88a.64.64,0,0,1,.24-1l1.4-.92a.73.73,0,0,1,1.08.24,8.68,8.68,0,0,0,6.6,3.32,5,5,0,0,0,5.2-5.36c0-3-1.76-5.08-5.2-5.08h-1.6a.89.89,0,0,1-.92-.88V39.73a.91.91,0,0,1,.92-.92h1.6a4.44,4.44,0,0,0,4.28-4.76c0-2.56-1.76-4.32-4.6-4.32a4.94,4.94,0,0,0-4.6,2.72.77.77,0,0,1-1.36.2l-1-1.6A1.09,1.09,0,0,1,54,29.73a10.18,10.18,0,0,1,7.8-3.2c5.76,0,9.24,3,9.24,7.4a7.51,7.51,0,0,1-3.28,5.8c-.28.2-.28.48,0,.64A7.92,7.92,0,0,1,72.11,47.28Zm27.66,7a.61.61,0,0,1-.64.84H95.37a1.42,1.42,0,0,1-1.2-.84l-2.28-6.36a.9.9,0,0,0-1-.6H81.14c-.56,0-.92.16-1.08.6l-2.32,6.36a1.37,1.37,0,0,1-1.2.84h-2c-.56,0-.84-.4-.68-.84l8.72-22.87a6,6,0,0,0,.44-2,2.76,2.76,0,0,0-.28-1.28.63.63,0,0,1,.52-1h5.28a1.39,1.39,0,0,1,1.27.88Zm-9.55-11L86.38,32.37a.34.34,0,0,0-.32-.28.38.38,0,0,0-.36.28L81.78,43.21c-.2.55,0,.87.52.87h7.36C90.22,44.08,90.42,43.76,90.22,43.21Zm36-2.8c-.4-.48-.48-.68-.12-1.12L135.29,28c.4-.48.28-.88-.2-.88h-2.48a2.19,2.19,0,0,0-1.88.88l-8.51,10.64a1.06,1.06,0,0,1-.8.4h-1.2c-.4,0-.6-.24-.6-.68V28a.9.9,0,0,0-.92-.88h-4.84c-.44,0-.64.44-.28,1a5,5,0,0,1,.92,3.32V54.24a.87.87,0,0,0,.84.84h3.36a.89.89,0,0,0,.92-.84V42.92a.65.65,0,0,1,.64-.71H121a1,1,0,0,1,.72.4l9,11.63a2.43,2.43,0,0,0,2,.84h4.28c.48,0,.68-.4.32-.84Zm41.2.71c0,8.2-6.36,14.52-15.2,14.52s-15.08-6.32-15.08-14.52,6.36-14.59,15.08-14.59S167.45,32.85,167.45,41.12Zm-5.6,0c0-6.35-4-11.35-9.6-11.35s-9.48,5-9.48,11.35,4,11.36,9.48,11.36S161.85,47.44,161.85,41.08Zm32.92-.67a.94.94,0,0,1-.2-1.12l8-11.32c.4-.48.28-.88-.2-.88h-2.24a2,2,0,0,0-1.88.88l-7.44,10.64a1,1,0,0,1-.8.4h-.8c-.4,0-.6-.24-.6-.68V28a.9.9,0,0,0-.92-.88h-3.28a.9.9,0,0,0-.92.88V38.33c0,.44-.2.68-.6.68h-.8a1,1,0,0,1-.8-.4L173.86,28a2,2,0,0,0-1.88-.88H168.9c-.6,0-.72.68,0,1A9,9,0,0,1,171.7,31l5.83,8.28a1,1,0,0,1-.19,1.12l-9.76,13.83c-.36.44-.16.84.32.84h4.16a2,2,0,0,0,1.84-.84l7.87-11.63a.84.84,0,0,1,.72-.4h.36a.65.65,0,0,1,.64.71V54.24a.89.89,0,0,0,.92.84h3.28a.89.89,0,0,0,.92-.84V42.92a.65.65,0,0,1,.64-.71h.36a.84.84,0,0,1,.72.4l7.88,11.63a2,2,0,0,0,1.84.84h4.16c.48,0,.68-.4.32-.84Zm29.78,11.47H214.07a.83.83,0,0,1-.84-.88V43.29a.85.85,0,0,1,.84-.88h8a.89.89,0,0,0,.84-.88V40.05a.87.87,0,0,0-.84-.84h-8a.85.85,0,0,1-.84-.88V31.17a.88.88,0,0,1,.84-.88h6.84a11.33,11.33,0,0,1,3.52.6c.56.2,1,0,.88-.56l-.36-2.4a1,1,0,0,0-1-.84H207.43c-.44,0-.6.44-.24,1a5,5,0,0,1,.92,3.32V54.24a.87.87,0,0,0,.84.84h15.6a.88.88,0,0,0,.88-.84V52.76A.89.89,0,0,0,224.55,51.88Zm26.87-24.79h-3.28a.9.9,0,0,0-.92.88V38.33a.88.88,0,0,1-.84.88H235.83a.83.83,0,0,1-.84-.88V28a.9.9,0,0,0-.92-.88h-4.88c-.44,0-.6.44-.24,1a5,5,0,0,1,.92,3.32V54.24a.87.87,0,0,0,.84.84h3.36a.89.89,0,0,0,.92-.84v-11a.82.82,0,0,1,.84-.88h10.55a.87.87,0,0,1,.84.88v11a.89.89,0,0,0,.92.84h3.28a.89.89,0,0,0,.92-.84V28A.9.9,0,0,0,251.42,27.09ZM281.3,40.41c-.4-.48-.48-.68-.12-1.12L290.34,28c.4-.48.28-.88-.2-.88h-2.48a2.19,2.19,0,0,0-1.88.88l-8.52,10.64a1,1,0,0,1-.79.4h-1.2c-.4,0-.6-.24-.6-.68V28a.9.9,0,0,0-.92-.88h-4.84c-.44,0-.64.44-.28,1a5,5,0,0,1,.92,3.32V54.24a.87.87,0,0,0,.84.84h3.36a.89.89,0,0,0,.92-.84V42.92a.65.65,0,0,1,.63-.71h.77a1,1,0,0,1,.72.4l8.95,11.63a2.43,2.43,0,0,0,2,.84H292c.48,0,.68-.4.32-.84Zm41.2.71c0,8.2-6.36,14.52-15.2,14.52s-15.08-6.32-15.08-14.52,6.36-14.59,15.08-14.59S322.5,32.85,322.5,41.12Zm-5.6,0c0-6.35-4-11.35-9.6-11.35s-9.48,5-9.48,11.35,4,11.36,9.48,11.36S316.9,47.44,316.9,41.08Zm33.47,11.68-.4,7.52a.92.92,0,0,1-.88.88h-1.56c-.48,0-.76-.4-.88-.88L345.45,56a1.27,1.27,0,0,0-1.08-.92H328.81a1.27,1.27,0,0,0-1.08.92l-1.2,4.28c-.12.48-.4.88-.88.88h-1.56a.92.92,0,0,1-.88-.88l-.4-7.52a.77.77,0,0,1,.76-.88h1.56c.8,0,1-.12,1.2-.8a50.45,50.45,0,0,0,3.2-16.83V31.37a5,5,0,0,0-.92-3.32c-.36-.52-.2-1,.24-1H346a.89.89,0,0,1,.88.88V51a.86.86,0,0,0,.88.88h1.76A.86.86,0,0,1,350.37,52.76Zm-8.64-21.55a.9.9,0,0,0-.88-.92H334a.9.9,0,0,0-.88.92v2.36a57,57,0,0,1-2.88,17.51.59.59,0,0,0,.6.8h10a.86.86,0,0,0,.88-.88Z" fill="#fff"/></svg>