<svg xmlns="http://www.w3.org/2000/svg" width="47" height="47" viewBox="0 0 47 47">
    <g fill="none" fill-rule="evenodd">
        <g fill="#E13016">
            <rect width="47" height="6" rx="3"/>
            <rect width="47" height="6" y="11" rx="3"/>
            <rect width="47" height="6" y="22" rx="3"/>
        </g>
        <path fill="#E33311" d="M.868 46h2.66v-5.6l2.492 3.808h.056l2.506-3.836V46h2.702v-9.8h-2.87l-2.338 3.794L3.738 36.2H.868V46zm12.152 0h7.952v-2.31h-5.264v-1.554h4.704v-2.142h-4.704V38.51h5.194V36.2H13.02V46zm9.338 0h2.716v-3.724h3.486V46h2.716v-9.8H28.56v3.668h-3.486V36.2h-2.716V46zm19.362.196c-2.52 0-4.382-1.666-4.858-3.92h-1.134V46h-2.716v-9.8h2.716v3.668h1.148c.518-2.212 2.38-3.864 4.872-3.864 2.926 0 4.97 2.268 4.97 5.096 0 2.8-2.058 5.096-4.998 5.096zm.028-2.436c1.33 0 2.212-1.162 2.212-2.66 0-1.47-.91-2.66-2.24-2.66-1.316 0-2.198 1.162-2.198 2.66 0 1.47.896 2.66 2.226 2.66z"/>
    </g>
</svg>
