<?xml version="1.0" encoding="utf-8"?>
<!-- Generator: Adobe Illustrator 22.0.1, SVG Export Plug-In . SVG Version: 6.00 Build 0)  -->
<svg version="1.1" id="Layer_1" xmlns="http://www.w3.org/2000/svg" xmlns:xlink="http://www.w3.org/1999/xlink" x="0px" y="0px"
	 viewBox="0 0 84 32" style="enable-background:new 0 0 84 32;" xml:space="preserve">
<style type="text/css">
	.st0{fill:none;}
	.st1{fill:#ED1D24;}
	.st2{fill:none;stroke:#ED1D24;stroke-width:3;stroke-linecap:round;stroke-linejoin:round;stroke-miterlimit:10;}
	.st3{fill:none;stroke:#FFFFFF;stroke-width:3;stroke-linecap:round;stroke-linejoin:round;stroke-miterlimit:10;}
</style>
<path id="canvas_background" class="st0" d="M-4.3-5.8h92v42h-92V-5.8z"/>
<g>
	<path id="svg_1" class="st1" d="M82,27.7c0,1.6-1.4,3-3,3H5.2c-1.7,0-3-1.4-3-3V5.2c0-1.6,1.3-3,3-3H79c1.6,0,3,1.4,3,3V27.7z"/>
	<path id="svg_2" class="st2" d="M82,27.7c0,1.6-1.4,3-3,3H5.2c-1.7,0-3-1.4-3-3V5.2c0-1.6,1.3-3,3-3H79c1.6,0,3,1.4,3,3V27.7z"/>
	<g id="svg_3">
		<path id="svg_4" class="st3" d="M10.8,10.7l9.7,11.4 M10.8,22.1l9.7-11.4 M28.5,10.7l9.6,11.4 M28.5,22.1l9.6-11.4"/>
		<g id="svg_5">
			<path id="svg_6" class="st3" d="M46.1,10.7l9.6,11.4 M46.1,22.1l9.6-11.4"/>
		</g>
		<g id="svg_7">
			<path id="svg_8" class="st3" d="M63.7,10.7l9.7,11.4 M63.7,22.1l9.7-11.4"/>
		</g>
	</g>
</g>
</svg>
