<?xml version="1.0" encoding="utf-8"?>
<!-- Generator: Adobe Illustrator 22.0.1, SVG Export Plug-In . SVG Version: 6.00 Build 0)  -->
<svg version="1.1" id="Layer_1" xmlns="http://www.w3.org/2000/svg" xmlns:xlink="http://www.w3.org/1999/xlink" x="0px" y="0px"
	 viewBox="0 0 47 47" style="enable-background:new 0 0 47 47;" xml:space="preserve">
<style type="text/css">
	.st0{fill:#ED1D24;}
	.st1{fill:none;stroke:#ED1D24;stroke-width:2;stroke-linecap:round;stroke-linejoin:round;stroke-miterlimit:10;}
	.st2{fill:none;stroke:#FFFFFF;stroke-width:5;stroke-linecap:round;stroke-linejoin:round;stroke-miterlimit:10;}
	.st3{fill:none;stroke:#FFFFFF;stroke-width:1.8;stroke-linecap:round;stroke-linejoin:round;}
	.st4{fill:#FFFFFF;}
</style>
<path class="st0" d="M23.7,1.3c-12.3,0-22.3,10-22.3,22.3c0,5.1,1.7,9.7,4.5,13.5l-0.4,7.3l7-1.6c3.3,1.9,7.1,3,11.1,3
	c12.3,0,22.3-10,22.3-22.3S36,1.3,23.7,1.3z"/>
<path class="st1" d="M23.7,1.3c-12.3,0-22.3,10-22.3,22.3c0,5.1,1.7,9.7,4.5,13.5l-0.4,7.3l7-1.6c3.3,1.9,7.1,3,11.1,3
	c12.3,0,22.3-10,22.3-22.3S36,1.3,23.7,1.3z"/>
<g>
	<path class="st2" d="M15.7,16.4c0.6-2.5,3-5.9,8.2-5.9c4.6,0,7.7,2.9,7.7,6.1c0,5.6-8.6,6.8-8.6,10.5"/>
	<circle class="st3" cx="23.2" cy="37" r="2.7"/>
	<circle class="st4" cx="23.2" cy="37" r="2.7"/>
</g>
</svg>
