<svg version="1" id="Layer_8" xmlns="http://www.w3.org/2000/svg" viewBox="0 0 53 60"><style>.st0{fill:none;stroke:#ed1d24;stroke-width:3;stroke-linecap:round;stroke-linejoin:round;stroke-miterlimit:10}</style><path class="st0" d="M3 5c0 10 11 19 24 19s23-9 23-19H3z"/><path d="M30 32v-6c5-3 8-13 8-25H15c0 12 4 22 9 25v6c0 4-6 8-8 8h21c-2 0-7-4-7-8z" fill="none" stroke="#fff" stroke-width="8" stroke-linecap="round" stroke-linejoin="round" stroke-miterlimit="10"/><path d="M30 32v-6c5-3 8-13 8-25H15c0 12 4 22 9 25v6c0 4-6 8-8 8h21c-2 0-7-4-7-8z" fill="#ed1d24"/><path d="M30 32v-6c5-3 8-13 8-25H15c0 12 4 22 9 25v6c0 4-6 8-8 8h21c-2 0-7-4-7-8z" fill="none" stroke="#e13016" stroke-width="3" stroke-linecap="round" stroke-linejoin="round" stroke-miterlimit="10"/><path class="st0" d="M2 49h14v10H2V49zm35-2h14v12H37V47zm-21-7h21v19H16V40z"/></svg>