<?xml version="1.0" encoding="utf-8"?>
<!-- Generator: Adobe Illustrator 22.0.1, SVG Export Plug-In . SVG Version: 6.00 Build 0)  -->
<svg version="1.1" id="Layer_8" xmlns="http://www.w3.org/2000/svg" xmlns:xlink="http://www.w3.org/1999/xlink" x="0px" y="0px"
	 viewBox="0 0 58.5 59" style="enable-background:new 0 0 58.5 59;" xml:space="preserve">
<style type="text/css">
	.st0{fill:none;stroke:#ED1D24;stroke-width:3;stroke-linecap:round;stroke-linejoin:round;stroke-miterlimit:10;}
	.st1{fill:#ED1D24;stroke:#ED1D24;stroke-width:3;stroke-linecap:round;stroke-linejoin:round;stroke-miterlimit:10;}
	.st2{fill:#FFFFFF;}
</style>
<path class="st0" d="M37.8,40.2c3.1,4.2,5.9,5.8,8.6,5.8c6.5,0,10.3,4.3,10.3,11.6H1.7C1.7,50.3,5.5,46,12,46c2.7,0,5.6-1.6,8.6-5.8
	 M20.3,30.8c2.4,4.4,6.1,6.1,9,6.1s6.6-1.7,9-6.1 M39.6,7.4C37.8,4.1,34.7,2,29.3,2S20.7,4.1,19,7.4"/>
<path class="st1" d="M46.6,25.1H34.9l-5.7-5.7l-5.7,5.7H12V13h34.6V25.1z"/>
<path class="st2" d="M16.5,17.1h4v4h-4V17.1z"/>
<path class="st2" d="M42,21h-4v-4h4V21z"/>
</svg>
