<?xml version="1.0" encoding="utf-8"?>
<!-- Generator: Adobe Illustrator 22.0.1, SVG Export Plug-In . SVG Version: 6.00 Build 0)  -->
<svg version="1.1" id="Layer_8" xmlns="http://www.w3.org/2000/svg" xmlns:xlink="http://www.w3.org/1999/xlink" x="0px" y="0px"
	 viewBox="0 0 49.1 53.3" style="enable-background:new 0 0 49.1 53.3;" xml:space="preserve">
<style type="text/css">
	.st0{fill:none;stroke:#ED1D24;stroke-width:3;stroke-linecap:round;stroke-linejoin:round;stroke-miterlimit:10;}
	.st1{fill:none;stroke:#FFFFFF;stroke-width:8;stroke-linecap:round;stroke-linejoin:round;stroke-miterlimit:10;}
	.st2{fill:#ED1D24;}
	.st3{fill:none;stroke:#ED1D24;stroke-width:2;stroke-linecap:round;stroke-linejoin:round;stroke-miterlimit:10;}
	.st4{fill:#FFFFFF;}
</style>
<path class="st0" d="M5.8,7.6h25.5v38H5.8V7.6z"/>
<path class="st1" d="M48,21.8H36.5v-5.5L24.7,26.6l11.8,10.2v-5.4H48V21.8z"/>
<path class="st2" d="M48,21.8H36.5v-5.5L24.7,26.6l11.8,10.2v-5.4H48V21.8z"/>
<path class="st3" d="M48,21.8H36.5v-5.5L24.7,26.6l11.8,10.2v-5.4H48V21.8z"/>
<g>
	<path class="st1" d="M16.6,52.1L1.1,47.4V5.8l15.5-4.7V52.1z"/>
	<path class="st2" d="M16.6,52.1L1.1,47.4V5.8l15.5-4.7V52.1z"/>
	<path class="st3" d="M16.6,52.1L1.1,47.4V5.8l15.5-4.7V52.1z"/>
</g>
<ellipse class="st4" cx="12.5" cy="26.6" rx="1.5" ry="2"/>
</svg>
