<?xml version="1.0" encoding="utf-8"?>
<!-- Generator: Adobe Illustrator 22.0.1, SVG Export Plug-In . SVG Version: 6.00 Build 0)  -->
<svg version="1.1" id="Layer_8" xmlns="http://www.w3.org/2000/svg" xmlns:xlink="http://www.w3.org/1999/xlink" x="0px" y="0px"
	 viewBox="0 0 45.4 54" style="enable-background:new 0 0 45.4 54;" xml:space="preserve">
<style type="text/css">
	.st0{fill:#ED1D24;}
	.st1{fill:none;stroke:#ED1D24;stroke-width:2;stroke-linecap:round;stroke-linejoin:round;stroke-miterlimit:10;}
	.st2{fill:#FFFFFF;}
	.st3{fill:none;stroke:#ED1D24;stroke-width:2.5;stroke-linecap:round;stroke-linejoin:round;stroke-miterlimit:10;}
	.st4{fill:#ED1D24;stroke:#FFFFFF;stroke-width:3;stroke-linecap:round;stroke-linejoin:round;stroke-miterlimit:10;}
	.st5{fill:none;stroke:#FFFFFF;stroke-width:2.43;stroke-linecap:round;stroke-linejoin:round;stroke-miterlimit:10;}
</style>
<path class="st0" d="M44.3,50c0,1.6-1.4,3-3,3H4.2c-1.7,0-3-1.4-3-3V4.2c0-1.7,1.3-3,3-3h37.1c1.6,0,3,1.4,3,3V50z"/>
<path class="st1" d="M44.3,50c0,1.6-1.4,3-3,3H4.2c-1.7,0-3-1.4-3-3V4.2c0-1.7,1.3-3,3-3h37.1c1.6,0,3,1.4,3,3V50z"/>
<path class="st2" d="M39.6,47.6c0,0.5-0.4,1-1,1H6.9c-0.6,0-1-0.5-1-1v-41c0-0.6,0.4-1,1-1h31.6c0.6,0,1,0.4,1,1L39.6,47.6
	L39.6,47.6z"/>
<path class="st3" d="M11,20.7h23.6 M11,27h23.6 M11,33.3h23.6 M11,39.6h23.6 M16.8,14.2h12"/>
<g>
	<circle class="st4" cx="29.5" cy="38.6" r="8.5"/>
	<path class="st5" d="M33,37l-4.2,4.9l-2.7-3.5"/>
</g>
</svg>
