<svg id="content-hollywood" xmlns="http://www.w3.org/2000/svg" viewBox="0 0 750 600"><title>content-hollywood</title><path id="logo-hollywood" d="M103.29,262.55,123.44,259,140,353.06l-20.15,3.55-6.5-36.88-13.5,2.38L106.38,359,86.23,362.6,69.64,268.51,89.79,265l6.53,37,13.5-2.38Zm69.42-23.34,15.84,11.09,11.86,67.28-11.09,15.84-26.87,4.74-15.84-11.09L134.74,259.8,145.84,244Zm-3.13,21.33-13.51,2.38,9.49,53.81,13.51-2.38Zm47.8-27.9-20.15,3.55,16.63,94.32,47.1-8.31-3.55-20.15-27,4.75Zm53.85-9.5-20.15,3.55L267.71,321l47.1-8.31-3.55-20.15-27,4.75Zm71.42-4.22L337.18,247,322.5,222.49l-20.25,3.57,29,46.25,7.81,44.3L359.25,313l-7.81-44.3,11.4-53.38Zm87.19,41.19-17.28-50.69-10.78,1.9,1.1,53.54-20-50.21-20,3.54,34,91,21.5-3.79-.12-32.17,10.9,30.27,21.56-3.8.89-97.19-20.18,3.56Zm63.33-77.42L509,193.8l11.86,67.28-11.09,15.84-26.87,4.74-15.84-11.09-11.86-67.28,11.09-15.84ZM490,204l-13.51,2.38L486,260.23l13.51-2.38Zm67.76-32.73,15.84,11.1,11.86,67.28-11.09,15.84-26.87,4.74-15.84-11.09-11.86-67.28L530.94,176Zm-3.13,21.33L541.18,195l9.49,53.81,13.51-2.38Zm85-13.51,11.86,67.26L640.45,262l-40.34,7.11-16.58-94L623.88,168Zm-19,10.24-13.51,2.38,9.49,53.81,13.51-2.38Z" fill="#fff"/><polygon id="star-hollywood" points="513 309.77 532.83 284.85 531.43 316.64 561.45 327.82 530.59 336.61 529.27 368.67 511.53 342.01 481.81 349.81 500.9 325.79 483.31 298.95 513 309.77" fill="#fff"/><path id="movie-hollywood" d="M192.48,173.12l-45.16-7-.08,0-13.42-2.07a2.75,2.75,0,0,0-3.14,2.3l-6.34,41.1h0a2.75,2.75,0,0,0,2.3,3.12l58.66,9.05a2.75,2.75,0,0,0,3.14-2.3l6.34-41.1A2.75,2.75,0,0,0,192.48,173.12ZM144,179.55l-9.51-1.47,6.36-9.68,9.51,1.47Zm24.67,17.22a2.36,2.36,0,0,1-1.25,1.74L156,204.36a2.36,2.36,0,0,1-3.41-2.46L154.91,187a2.36,2.36,0,0,1,4-1.32l9.09,9A2.36,2.36,0,0,1,168.67,196.77ZM163,182.48,153.47,181l6.36-9.68,9.51,1.47Zm19,2.93-9.51-1.47,6.36-9.68,9.51,1.47Zm17.5-29.25-55.17-21.83a2.9,2.9,0,0,0-3.59,1.92l-3.8,9.59,1.3,3.85,55.17,21.83a2.9,2.9,0,0,0,3.59-1.92l3.8-9.59A2.9,2.9,0,0,0,199.46,156.16ZM151,151.52,142,148l8.35-8,9,3.54Zm17.86,7.07-9-3.54,8.35-8,9,3.54Zm17.86,7.07-9-3.54,8.35-8,9,3.54Z" fill="#fff"/><g id="desc-hollywood"><path d="M297.67,457.12v21.76a1,1,0,0,1-.95.95h-5a1,1,0,0,1-1-.95v-8.29a1,1,0,0,0-1-1h-5.41a.92.92,0,0,0-.95,1v8.29a1,1,0,0,1-1,.95h-4.91a1,1,0,0,1-.95-.95V461a5.66,5.66,0,0,0-1-3.74c-.41-.59-.23-1.08.27-1.08h6.62a1,1,0,0,1,1,.95v7.75a.93.93,0,0,0,.95,1h5.41a1,1,0,0,0,1-1v-7.75a1,1,0,0,1,1-.95h5A1,1,0,0,1,297.67,457.12ZM329,478.74c.41.59.23,1.08-.27,1.08h-6.17a1,1,0,0,1-1-1v-.68c0-.81-.5-.77-1-.32a10.92,10.92,0,0,1-7.3,2.61c-6.76,0-11.35-5.59-11.35-12.43s4.6-12.48,11.35-12.48a10.75,10.75,0,0,1,6.94,2.34c.63.5.95,0,.95-.18v-.59a1,1,0,0,1,1-.95H327a1,1,0,0,1,.95.95V475A5.66,5.66,0,0,0,329,478.74Zm-7.88-13.47a3.73,3.73,0,0,0-.5-1.85,6.53,6.53,0,0,0-5.5-3.56c-3.47,0-6.17,3.06-6.17,8.15s2.7,8.11,6.17,8.11c2.21,0,4.14-1.4,5.5-3.56a3.72,3.72,0,0,0,.5-1.85Zm48.74,11.85-.45,7.66a1,1,0,0,1-1,1h-2c-.59,0-.9-.45-1-1l-.9-3.92a1.19,1.19,0,0,0-1.08-1H349.84a1.19,1.19,0,0,0-1.08,1l-.9,3.92c-.14.54-.41,1-1,1h-2.12a1,1,0,0,1-1-1l-.45-7.66a1,1,0,0,1,1-.95h1.53c.86,0,1.13-.14,1.35-.95a42.14,42.14,0,0,0,2.07-12V461a5.66,5.66,0,0,0-1-3.74c-.41-.59-.23-1.08.27-1.08h16.8a1,1,0,0,1,1,.95v18.07a1,1,0,0,0,1,1h1.58A1,1,0,0,1,369.88,477.12Zm-10.5-16.26a1,1,0,0,0-1-1H354.3a1,1,0,0,0-.95,1v2.34a41.07,41.07,0,0,1-1.89,12c-.18.63,0,.95.72.95h6.17a1,1,0,0,0,1-1Zm33,12.39c0,3.42-3.47,6.58-8.11,6.58H373a1,1,0,0,1-.95-.95V461a5.65,5.65,0,0,0-1-3.74c-.41-.59-.22-1.08.27-1.08h12.61c4.05,0,7.16,2.79,7.16,5.9a5.71,5.71,0,0,1-2.52,4.6c-.41.27-.32.45,0,.68A6.78,6.78,0,0,1,392.41,473.25Zm-13.47-8.88a1,1,0,0,0,.95,1H382a2.63,2.63,0,0,0,2.21-2.79,2.52,2.52,0,0,0-2.52-2.75h-1.8a.92.92,0,0,0-.95.95Zm6.31,8.33c0-1.85-1.22-3.65-2.93-3.65h-2.43a.92.92,0,0,0-.95.95v5.18a1,1,0,0,0,.95,1h2.43C384,476.17,385.25,474.51,385.25,472.71ZM421.87,468c0,7.16-5.36,12.43-13.38,12.43s-13.34-5.27-13.34-12.43,5.41-12.48,13.34-12.48S421.87,460.86,421.87,468Zm-7.12,0c0-5.09-2.66-8.78-6.26-8.78s-6.22,3.69-6.22,8.78,2.7,8.74,6.22,8.74S414.75,473,414.75,468Zm24.06-.45a1,1,0,0,1,0-1.35L445.3,457a.52.52,0,0,0-.45-.86h-3.11a1.78,1.78,0,0,0-1.58.86l-3.78,5.41c-.36.5-.68.45-1,0L432.05,457a1.45,1.45,0,0,0-1.58-.86h-7.16c-.72,0-.95.54-.23,1.08a13.62,13.62,0,0,1,3.29,3.74l4.14,6.58a1,1,0,0,1,0,1.35L423.41,479a.5.5,0,0,0,.45.81H427a1.76,1.76,0,0,0,1.58-.86l4.42-6.31c.36-.5.63-.5.95,0L438,479a1.43,1.43,0,0,0,1.58.86h6.17c.5,0,.72-.36.45-.81ZM134.2,400.9H107.8c-.5,0-.68.5-.27,1.08a5.66,5.66,0,0,1,1,3.74v25.77a1,1,0,0,0,.95.95H115a1,1,0,0,0,1-.95V405.86a.94.94,0,0,1,.95-1h9.91a1,1,0,0,1,.95,1v25.63a1,1,0,0,0,1,.95h5.36a1,1,0,0,0,1-.95v-29.6A1,1,0,0,0,134.2,400.9Zm32.35,19.73c0,7.16-5.36,12.43-13.38,12.43s-13.34-5.27-13.34-12.43,5.41-12.48,13.34-12.48S166.55,413.47,166.55,420.64Zm-7.12,0c0-5.09-2.66-8.79-6.26-8.79s-6.22,3.69-6.22,8.79,2.7,8.74,6.22,8.74S159.43,425.64,159.43,420.64Zm34.87,9.1-.45,7.66a1,1,0,0,1-1,1h-2c-.59,0-.9-.45-1-1l-.9-3.92a1.19,1.19,0,0,0-1.08-1H174.25a1.19,1.19,0,0,0-1.08,1l-.9,3.92c-.14.54-.41,1-1,1h-2.12a1,1,0,0,1-1-1l-.45-7.66a1,1,0,0,1,1-.95h1.53c.86,0,1.13-.14,1.35-.95a42.16,42.16,0,0,0,2.07-12v-2.21a5.66,5.66,0,0,0-1-3.74c-.41-.59-.23-1.08.27-1.08h16.8a1,1,0,0,1,1,.95V427.8a1,1,0,0,0,1,1h1.58A1,1,0,0,1,194.3,429.74Zm-10.5-16.26a1,1,0,0,0-1-1h-4.05a1,1,0,0,0-.95,1v2.34a41.08,41.08,0,0,1-1.89,12c-.18.63,0,.95.72.95h6.17a1,1,0,0,0,1-1Zm38.65,7.16c0,7.16-5.36,12.43-13.38,12.43s-13.34-5.27-13.34-12.43,5.41-12.48,13.34-12.48S222.46,413.47,222.46,420.64Zm-7.12,0c0-5.09-2.66-8.79-6.26-8.79s-6.22,3.69-6.22,8.79,2.7,8.74,6.22,8.74S215.34,425.64,215.34,420.64Zm36.76,0c0,6.85-4.6,12.48-11.35,12.48a10.75,10.75,0,0,1-6.94-2.34c-.63-.5-.95,0-.95.18v8.38a1,1,0,0,1-1,1h-4.78a1,1,0,0,1-1-1V413.65a5.66,5.66,0,0,0-1-3.74c-.41-.59-.22-1.08.27-1.08h6.17a1,1,0,0,1,1,1v.68c0,.81.5.77,1,.32a10.92,10.92,0,0,1,7.3-2.61C247.5,408.2,252.1,413.79,252.1,420.64Zm-7.07,0c0-5-2.7-8.11-6.17-8.11-2.21,0-4.14,1.4-5.5,3.56a3.72,3.72,0,0,0-.5,1.85v5.45a3.72,3.72,0,0,0,.5,1.85,6.53,6.53,0,0,0,5.5,3.56C242.32,428.79,245,425.73,245,420.64Zm23.2,12.43c-7.93,0-13.34-5.27-13.34-12.43s5.41-12.48,13.34-12.48,13.38,5.32,13.38,12.48S276.25,433.07,268.23,433.07Zm6.26-12.43c0-5.09-2.66-8.79-6.26-8.79s-6.22,3.69-6.22,8.79,2.7,8.74,6.22,8.74S274.49,425.64,274.49,420.64Zm8.15,11.8H288a2.31,2.31,0,0,0,2.07-.9l5.32-8.74a.93.93,0,0,1,.86-.5c.22,0,.41.18.41.63v8.56a1,1,0,0,0,1,.95h4.91a1,1,0,0,0,1-.95v-8.56c0-.45.18-.63.4-.63a.93.93,0,0,1,.86.5l5.32,8.74a2.31,2.31,0,0,0,2.07.9h5.32a.55.55,0,0,0,.41-.95l-8.51-12.25a.77.77,0,0,1,0-1.08l6.4-8.29c.45-.54.32-1.08-.27-1.08h-3.38c-.5,0-.9.18-1.53.9l-5.72,7.61a1.16,1.16,0,0,1-.9.54c-.32,0-.45-.18-.45-.59v-7.48a1,1,0,0,0-1-1H297.6a1,1,0,0,0-1,1v7.48c0,.41-.14.59-.45.59a1.16,1.16,0,0,1-.9-.54l-5.72-7.61c-.63-.72-1-.9-1.53-.9h-4c-.72,0-.95.54-.18,1.08a19.69,19.69,0,0,1,3.42,3.74l3.51,4.55a.77.77,0,0,1,0,1.08l-8.51,12.25A.55.55,0,0,0,282.65,432.44Zm68.29-.08H337.42a1.19,1.19,0,0,0-1.08,1l-.9,3.92c-.14.54-.41,1-1,1h-2.12a1,1,0,0,1-1-1l-.45-7.66a1,1,0,0,1,1-.95h1.53c.86,0,1.13-.14,1.35-.95a42.15,42.15,0,0,0,2.07-12v-2.21a5.66,5.66,0,0,0-1-3.74c-.41-.59-.23-1.08.27-1.08h16.8a1,1,0,0,1,1,.95v18.07a1,1,0,0,0,1,1h1.58a1,1,0,0,1,1,.95l-.45,7.66a1,1,0,0,1-1,1h-2c-.59,0-.9-.45-1-1l-.9-3.92A1.19,1.19,0,0,0,350.93,432.35Zm-4-19a1,1,0,0,0-1-1h-4.05a1,1,0,0,0-.95,1v2.34a41.07,41.07,0,0,1-1.89,12c-.18.63,0,.95.72.95h6.17a1,1,0,0,0,1-1Zm11.94,7.16c0-7.16,5.41-12.48,13.34-12.48s13.38,5.32,13.38,12.48S380.26,433,372.24,433,358.91,427.71,358.91,420.55Zm7.12,0c0,5,2.7,8.74,6.22,8.74s6.26-3.74,6.26-8.74-2.66-8.78-6.26-8.78S366,415.46,366,420.55Zm56.9-15.68-.41-3.11a1.08,1.08,0,0,0-1.13-.95H401.75c-.5,0-.72.5-.32,1.08a5.66,5.66,0,0,1,1,3.74v25.77a1,1,0,0,0,.95.95h5.5a1,1,0,0,0,1-.95V405.86a1,1,0,0,1,.95-1H418a12.74,12.74,0,0,1,4,.68C422.56,405.73,423,405.5,422.92,404.87Zm25.86,15.68c0,7.16-5.36,12.43-13.38,12.43s-13.34-5.27-13.34-12.43,5.41-12.48,13.34-12.48S448.78,413.39,448.78,420.55Zm-7.12,0c0-5.09-2.66-8.78-6.26-8.78s-6.22,3.69-6.22,8.78,2.7,8.74,6.22,8.74S441.67,425.55,441.67,420.55Zm31-11.85H454.87c-.5,0-.68.5-.27,1.08a5.66,5.66,0,0,1,1,3.74v4.23a27.34,27.34,0,0,1-.95,8.2c-.54,1.44-1.71,3.15-3.6,2.84a.68.68,0,0,0-.9.81l.5,2.66a.63.63,0,0,0,.77.54,7.93,7.93,0,0,0,6.76-5,25.57,25.57,0,0,0,1.49-9.55v-4.82a1,1,0,0,1,1-1h5.09a1,1,0,0,1,.95,1v18a1,1,0,0,0,1,.95h4.91a1,1,0,0,0,1-.95V409.65A1,1,0,0,0,472.71,408.7Zm26.81,0H481.67c-.5,0-.68.5-.27,1.08a5.66,5.66,0,0,1,1,3.74v4.23a27.34,27.34,0,0,1-.95,8.2c-.54,1.44-1.71,3.15-3.6,2.84a.68.68,0,0,0-.9.81l.5,2.66a.63.63,0,0,0,.77.54,7.93,7.93,0,0,0,6.76-5,25.57,25.57,0,0,0,1.49-9.55v-4.82a1,1,0,0,1,1-1h5.09a1,1,0,0,1,.95,1v18a1,1,0,0,0,1,.95h4.91a1,1,0,0,0,1-.95V409.65A1,1,0,0,0,499.51,408.7Zm10-9.87a4,4,0,1,0,4.05,4A4,4,0,0,0,509.51,398.84Zm2.61,9.87h-6.67c-.5,0-.68.5-.27,1.08a5.65,5.65,0,0,1,1,3.74v17.89a1,1,0,0,0,.95.95h5a1,1,0,0,0,1-.95V409.69A1,1,0,0,0,512.13,408.7Zm26.94,17.07c0,3.42-3.47,6.58-8.11,6.58H519.65a1,1,0,0,1-.95-.95V413.52a5.65,5.65,0,0,0-1-3.74c-.41-.59-.22-1.08.27-1.08h12.61c4.05,0,7.16,2.79,7.16,5.9a5.71,5.71,0,0,1-2.52,4.6c-.41.27-.32.45,0,.68A6.78,6.78,0,0,1,539.07,425.78ZM525.6,416.9a1,1,0,0,0,.95,1h2.12a2.63,2.63,0,0,0,2.21-2.79,2.52,2.52,0,0,0-2.52-2.75h-1.8a.92.92,0,0,0-.95.95Zm6.31,8.33c0-1.85-1.22-3.65-2.93-3.65h-2.43a.92.92,0,0,0-.95.95v5.18a1,1,0,0,0,.95,1H529C530.69,428.71,531.9,427,531.9,425.24Zm30.5-16.53h-2.57c-.81,0-1.08.18-1.31.9l-4.46,12.16c0,.18-.14.32-.32.32a.38.38,0,0,1-.32-.32L549,409.6c-.27-.72-.9-.9-1.8-.9H541c-.68,0-.9.54-.36,1.08a8.93,8.93,0,0,1,2.48,3.74l6.71,17.57a1.73,1.73,0,0,1,0,1.8l-2.52,6.44c-.18.49,0,.9.67.9h2.52c.86,0,1-.18,1.31-.9l11-29.73C563.08,409.11,562.94,408.7,562.4,408.7Zm28.65,20.95-.45,7.66a1,1,0,0,1-1,1h-2c-.59,0-.9-.45-1-1l-.9-3.92a1.19,1.19,0,0,0-1.08-1H571a1.19,1.19,0,0,0-1.08,1l-.9,3.92c-.14.54-.41,1-1,1h-2.12a1,1,0,0,1-1-1l-.45-7.66a1,1,0,0,1,1-.95H567c.86,0,1.13-.14,1.35-.95a42.15,42.15,0,0,0,2.07-12v-2.21a5.66,5.66,0,0,0-1-3.74c-.41-.59-.23-1.08.27-1.08h16.8a1,1,0,0,1,1,.95v18.07a1,1,0,0,0,1,1H590A1,1,0,0,1,591.06,429.65Zm-10.5-16.26a1,1,0,0,0-1-1h-4.05a1,1,0,0,0-.95,1v2.34a41.07,41.07,0,0,1-1.89,12c-.18.63,0,.95.72.95h6.17a1,1,0,0,0,1-1Zm33.07-4.69h-2.57c-.81,0-1.08.18-1.31.9l-4.46,12.16c0,.18-.14.32-.32.32a.38.38,0,0,1-.32-.32L600.2,409.6c-.27-.72-.9-.9-1.8-.9h-6.13c-.68,0-.9.54-.36,1.08a8.92,8.92,0,0,1,2.48,3.74l6.71,17.57a1.73,1.73,0,0,1,0,1.8l-2.52,6.44c-.18.49,0,.9.67.9h2.52c.86,0,1-.18,1.31-.9l11-29.73C614.3,409.11,614.17,408.7,613.63,408.7Z" fill="#fff"/><path d="M455,435.87a.22.22,0,0,0,0-.42l-1.29-.45c-1-.33.54-2.91,1.29-2.19l1,.9a.23.23,0,0,0,.36-.21l-.24-1.32c-.12-.54.54-.78,1.23-.78s1.41.27,1.29.75l-.24,1.35a.2.2,0,0,0,.33.18l1-.9c.84-.78,2.25,1.92,1.29,2.22l-1.29.45c-.21.06-.15.33,0,.39l1.29.45c1,.33-.51,2.88-1.26,2.22l-1-.9a.19.19,0,0,0-.33.18l.24,1.35c.12.54-.54.78-1.23.78s-1.47-.27-1.32-.78l.3-1.35c.06-.18-.21-.33-.36-.18l-1,.87c-.81.78-2.25-1.86-1.29-2.16Z" fill="#fff"/><path d="M466.11,435.87a.22.22,0,0,0,0-.42l-1.29-.45c-1-.33.54-2.91,1.29-2.19l1,.9a.23.23,0,0,0,.36-.21l-.24-1.32c-.12-.54.54-.78,1.23-.78s1.41.27,1.29.75l-.24,1.35a.2.2,0,0,0,.33.18l1-.9c.84-.78,2.25,1.92,1.29,2.22l-1.29.45c-.21.06-.15.33,0,.39l1.29.45c1,.33-.51,2.88-1.26,2.22l-1-.9a.19.19,0,0,0-.33.18l.24,1.35c.12.54-.54.78-1.23.78s-1.47-.27-1.32-.78l.3-1.35c.06-.18-.21-.33-.36-.18l-1.05.87c-.81.78-2.25-1.86-1.29-2.16Z" fill="#fff"/><path d="M477.28,435.87a.22.22,0,0,0,0-.42L476,435c-1-.33.54-2.91,1.29-2.19l1,.9a.23.23,0,0,0,.36-.21l-.24-1.32c-.12-.54.54-.78,1.23-.78s1.41.27,1.29.75l-.24,1.35a.2.2,0,0,0,.33.18l1-.9c.84-.78,2.25,1.92,1.29,2.22l-1.29.45c-.21.06-.15.33,0,.39l1.29.45c1,.33-.51,2.88-1.26,2.22l-1-.9a.19.19,0,0,0-.33.18l.24,1.35c.12.54-.54.78-1.23.78s-1.47-.27-1.32-.78l.3-1.35c.06-.18-.21-.33-.36-.18l-1,.87c-.81.78-2.25-1.86-1.29-2.16Z" fill="#fff"/></g><g id="title-hollywood"><path d="M270.13,81.48l.36,2.4c.08.56-.32.76-.88.56a11.35,11.35,0,0,0-3.52-.6h-6.44a.84.84,0,0,0-.84.92v23a.89.89,0,0,1-.92.84h-3.36a.87.87,0,0,1-.84-.84V84.92a5,5,0,0,0-.92-3.32c-.36-.52-.16-1,.28-1h16.08A1,1,0,0,1,270.13,81.48Zm31.46,13.2c0,8.2-6.36,14.52-15.2,14.52s-15.08-6.32-15.08-14.52,6.36-14.6,15.08-14.6S301.58,86.4,301.58,94.68Zm-5.6,0c0-6.36-4-11.36-9.6-11.36s-9.48,5-9.48,11.36,4,11.36,9.48,11.36S296,101,296,94.64Zm15.59-10.08a.65.65,0,0,1,.72-.72h7.48a.9.9,0,0,1,.88.92v23a.87.87,0,0,0,.84.84h3.4a.88.88,0,0,0,.88-.84V81.52a.89.89,0,0,0-.88-.88H307.38c-.44,0-.6.44-.24,1a5,5,0,0,1,1,3.32v5c0,3.08-.16,8.6-1.56,12.24-.52,1.52-1.72,3.44-3.48,3.08a.68.68,0,0,0-.88.84l.32,2.36a.61.61,0,0,0,.72.6c7.72-.64,8.36-12.88,8.36-18.6ZM330,94.68c0-8.28,6.36-14.6,15.08-14.6s15.2,6.32,15.2,14.6-6.36,14.52-15.2,14.52S330,102.87,330,94.68Zm5.6,0c0,6.36,4,11.36,9.48,11.36s9.6-5,9.6-11.36-4-11.36-9.6-11.36S335.55,88.28,335.55,94.64Zm27.78-13c-.36-.52-.2-1,.24-1h11.56c4.88,0,8.16,3.24,8.16,7.32a6.62,6.62,0,0,1-2.84,5.4c-.24.2-.28.48,0,.64a7.58,7.58,0,0,1,4.16,6.6c0,4.4-3.56,8-8.8,8H365.09a.87.87,0,0,1-.84-.84V84.92A5,5,0,0,0,363.33,81.6Zm6,10.08a.63.63,0,0,0,.52.68h3.8a4.26,4.26,0,0,0,0-8.52H370a.65.65,0,0,0-.64.72Zm0,13.08a.63.63,0,0,0,.52.68H374a4.94,4.94,0,1,0,.28-9.88H370a.64.64,0,0,0-.64.68Zm40.92-24.12H407a.9.9,0,0,0-.92.88V91.88a.88.88,0,0,1-.84.88H394.69a.83.83,0,0,1-.84-.88V81.52a.9.9,0,0,0-.92-.88h-4.88c-.44,0-.6.44-.24,1a5,5,0,0,1,.92,3.32v22.88a.87.87,0,0,0,.84.84h3.36a.89.89,0,0,0,.92-.84v-11a.83.83,0,0,1,.84-.88h10.56a.88.88,0,0,1,.84.88v11a.89.89,0,0,0,.92.84h3.28a.89.89,0,0,0,.92-.84V81.52A.9.9,0,0,0,410.29,80.64Zm28.3,0h-3.28a1.24,1.24,0,0,0-1,.68l-11.64,19.24c-.16.28-.48.2-.48-.12V81.52a.9.9,0,0,0-.92-.88h-4.88c-.44,0-.6.44-.24,1a5,5,0,0,1,.92,3.32v22.88a.87.87,0,0,0,.84.84h3.4a1.26,1.26,0,0,0,1-.68l11.64-19.28c.16-.28.48-.2.48.12v19a.89.89,0,0,0,.92.84h3.28a.89.89,0,0,0,.92-.84V81.52A.9.9,0,0,0,438.59,80.64Zm17.82-1.92a6.85,6.85,0,0,0,6.4-4.48.77.77,0,0,0-.44-1l-2.16-.76a.58.58,0,0,0-.8.44c-.52,1.76-1.6,3.12-3,3.12s-2.48-1.36-3-3.12a.58.58,0,0,0-.8-.44l-2.16.76a.77.77,0,0,0-.44,1A6.85,6.85,0,0,0,456.41,78.72Zm10.48,1.92h-3.28a1.24,1.24,0,0,0-1,.68l-11.64,19.24c-.16.28-.48.2-.48-.12V81.52a.9.9,0,0,0-.92-.88h-4.88c-.44,0-.6.44-.24,1a5,5,0,0,1,.92,3.32v22.88a.87.87,0,0,0,.84.84h3.4a1.26,1.26,0,0,0,1-.68l11.64-19.28c.16-.28.48-.2.48.12v19a.89.89,0,0,0,.92.84h3.28a.89.89,0,0,0,.92-.84V81.52A.9.9,0,0,0,466.89,80.64ZM334,128.64H311.78c-.44,0-.6.44-.24,1a5,5,0,0,1,.92,3.32v22.88a.87.87,0,0,0,.84.84h3.36a.89.89,0,0,0,.92-.84V132.72a.83.83,0,0,1,.84-.88H329a.88.88,0,0,1,.84.88v23.08a.89.89,0,0,0,.92.84H334a.89.89,0,0,0,.92-.84V129.52A.9.9,0,0,0,334,128.64Zm26.38,8.8a9,9,0,0,1-9.16,8.72h-4.52a.85.85,0,0,0-.84.84v8.8a.88.88,0,0,1-.88.84h-3.4a.87.87,0,0,1-.84-.84V132.92a5,5,0,0,0-.92-3.32c-.36-.52-.2-1,.24-1h11.16A9,9,0,0,1,360.4,137.44Zm-5.36,0a5.31,5.31,0,0,0-5.2-5.6h-3.12a.79.79,0,0,0-.84.88V142a.79.79,0,0,0,.84.88h3.12A5.25,5.25,0,0,0,355,137.44Zm30.52-8.8h-3.28a1.24,1.24,0,0,0-1,.68l-11.64,19.24c-.16.28-.48.2-.48-.12V129.52a.9.9,0,0,0-.92-.88h-4.88c-.44,0-.6.44-.24,1a5,5,0,0,1,.92,3.32v22.88a.87.87,0,0,0,.84.84h3.4a1.26,1.26,0,0,0,1-.68l11.64-19.28c.16-.28.48-.2.48.12v19a.89.89,0,0,0,.92.84h3.28a.89.89,0,0,0,.92-.84V129.52A.9.9,0,0,0,385.57,128.64Zm20.59,13.28c-.32-.16-.32-.44,0-.64a7.51,7.51,0,0,0,3.28-5.8c0-4.36-3.48-7.4-9.24-7.4a10.18,10.18,0,0,0-7.8,3.2,1.09,1.09,0,0,0,.08,1.32l1,1.6a.77.77,0,0,0,1.36-.2,4.94,4.94,0,0,1,4.6-2.72c2.84,0,4.6,1.76,4.6,4.32a4.44,4.44,0,0,1-4.28,4.76h-1.6a.91.91,0,0,0-.92.92v1.4a.9.9,0,0,0,.92.88h1.6c3.44,0,5.2,2,5.2,5.08a5,5,0,0,1-5.2,5.36,8.68,8.68,0,0,1-6.6-3.32.73.73,0,0,0-1.08-.24l-1.4.92a.64.64,0,0,0-.24,1c2,3.08,5.84,4.88,10.2,4.88,6.12,0,9.88-3.72,9.88-8.36A7.93,7.93,0,0,0,406.16,141.92Z" fill="#fde619"/></g></svg>