<svg xmlns="http://www.w3.org/2000/svg" viewBox="0 0 750 600"><title>hollywood-bg</title><path d="M366.37,1535.77c-3.27,0-6.53,0-9.75,0s-6.48,0-9.75,0h-2.12a1076,1076,0,0,1-125.84-7.66c-100.82-6-209.84-28.87-307.13-64.49-201.59-38.94-392.84-139.2-538.63-282.39C-754,1056.34-851.38,892.46-901,719.76A1075,1075,0,0,1-947.81,545l-16.6-94.13C-1010,192.25-957.78-72-817.41-293.35-648-671.52-271-915.83,143.45-915.83a1050.52,1050.52,0,0,1,299.41,43.46c32-3.51,64.35-5.58,96.26-6.16,28.24-2.28,56.75-3.44,84.75-3.44,216.54,0,424.76,65.64,602.15,189.82l16,11.24c229.68,160.74,383,401.42,431.7,677.7l11.86,67.27c27.71,157.38,15.7,338.38-32.94,496.74-10.48,70.77-28.78,144.25-51.57,207l-13.64,36.77c-132.94,354.2-444.92,611.54-814.34,671.84-90.67,29.17-194.6,48.26-285.4,52.43a1076.47,1076.47,0,0,1-119.35,6.89Z" fill="#ed1d24"/><path d="M366.37,1523.27c-3.27,0-6.53,0-9.75-.05s-6.48.05-9.75.05h-2.12A1063.1,1063.1,0,0,1,220,1515.66c-100.11-5.9-208.32-28.65-304.89-64.11-199.57-38.34-388.91-137.48-533.22-279.22-125.77-123.52-222-285.6-271-456.41A1062.23,1062.23,0,0,1-935.5,542.82l-16.6-94.13c-45.09-255.86,6.65-517.23,145.73-736.1,167.19-374.2,539.91-615.92,949.82-615.92a1037.88,1037.88,0,0,1,298.27,43.67c32.54-3.65,65.51-5.8,98-6.37,28-2.27,56.34-3.43,84.14-3.43,214,0,419.7,64.86,595,187.56l16,11.23C1461.84-511.84,1613.33-274,1661.46-1l11.86,67.27c27.44,155.84,15.46,335-32.86,491.8-10.34,70.26-28.47,143.22-51.09,205.53l-13.61,36.69c-131.5,350.36-440.11,604.7-805.56,664-90,29.06-193.27,48.05-283.46,52.15a1063.62,1063.62,0,0,1-118.35,6.86Z" fill="#b1181e"/><path d="M366.37,1510.77c-3.27,0-6.53,0-9.75-.05s-6.48.05-9.75.05h-2.12a1050.17,1050.17,0,0,1-123.61-7.57c-99.4-5.81-206.81-28.43-302.65-63.74-197.57-37.74-385-135.76-527.82-276.06C-733.7,1041.26-828.82,881-877.22,712.06a1049.44,1049.44,0,0,1-46-171.41l-16.6-94.13c-44.61-253.1,6.7-511.61,144.46-728,165-370.18,533.4-609.35,938.78-609.35A1025.24,1025.24,0,0,1,440.57-847c33.12-3.8,66.67-6,99.77-6.59,27.83-2.27,55.93-3.42,83.53-3.42,211.38,0,414.64,64.08,587.82,185.3l16,11.23C1451.94-503.51,1601.6-268.56,1649.15,1.14L1661,68.4c27.17,154.3,15.22,331.69-32.77,486.86-10.2,69.76-28.16,142.18-50.61,204L1564,795.91c-130.06,346.52-435.32,597.85-796.78,656.16-89.42,29-191.94,47.85-281.51,51.87a1050.81,1050.81,0,0,1-117.36,6.83Z" fill="#ed1d24"/><path d="M366.37,1498.27c-3.27,0-6.53,0-9.75-.05s-6.48.05-9.75.05h-2.12a1037.5,1037.5,0,0,1-122.49-7.53c-98.68-5.73-205.31-28.22-300.41-63.37-195.55-37.15-381-134-522.42-272.89-123-120.76-217-279.24-264.75-446.28a1036.64,1036.64,0,0,1-45.56-169.73l-16.6-94.12c-44.12-250.35,6.72-506,143.19-719.9,162.83-366.21,526.88-602.79,927.74-602.79a1012.62,1012.62,0,0,1,296,44.1c33.69-4,67.83-6.25,101.54-6.81,27.63-2.26,55.52-3.41,82.91-3.41,208.8,0,409.59,63.29,580.65,183l16,11.23C1442-495.18,1589.87-263.1,1636.84,3.31l11.86,67.27c26.9,152.76,15,328.36-32.69,481.92C1606,621.75,1588.16,693.64,1565.87,755l-13.55,36.52c-128.62,342.69-430.51,591-788,648.32-88.8,28.85-190.6,47.64-279.57,51.59a1038.17,1038.17,0,0,1-116.37,6.8Z" fill="#b1181e"/><path d="M366.37,1485.77c-3.27,0-6.54,0-9.75-.05s-6.48.05-9.75.05h-2.12a1024.76,1024.76,0,0,1-121.38-7.48c-98-5.64-203.8-28-298.16-63-193.53-36.55-377.11-132.31-517-269.72-121.55-119.38-214.45-276.05-261.61-441.21A1023.84,1023.84,0,0,1-898.57,536.3l-16.6-94.12c-43.64-247.6,6.77-500.34,141.92-711.79,160.65-362.23,520.37-596.22,916.7-596.22a1000.08,1000.08,0,0,1,294.83,44.32,1009.08,1009.08,0,0,1,103.3-7c27.42-2.26,55.11-3.4,82.29-3.4,206.22,0,404.53,62.51,573.48,180.78l16,11.23c218.74,153.09,364.76,382.31,411.15,645.43l11.86,67.27c26.63,151.22,14.74,325-32.61,477-9.91,68.75-27.54,140.1-49.66,201l-13.52,36.44c-127.18,338.85-425.69,584.17-779.22,640.48-88.18,28.75-189.27,47.44-277.62,51.31a1025.3,1025.3,0,0,1-115.37,6.77Z" fill="#ed1d24"/><path d="M366.37,1473.27c-3.27,0-6.54,0-9.75-.05s-6.48.05-9.75.05h-2.12a1012,1012,0,0,1-120.27-7.44c-97.25-5.56-202.28-27.79-295.92-62.63-191.53-36-373.18-130.58-511.61-266.55C-703.2,1018.65-795,863.78-841.53,700.51a1011,1011,0,0,1-44.74-166.37L-902.86,440C-946,195.16-896.07-54.69-762.2-263.68c158.47-358.22,513.86-589.65,905.65-589.65a987.43,987.43,0,0,1,293.69,44.55,996.23,996.23,0,0,1,105.06-7.29c27.22-2.25,54.69-3.39,81.68-3.39,203.65,0,399.47,61.73,566.31,178.52l16,11.23c216,151.18,360.2,377.53,406,637.36l11.86,67.27c26.36,149.68,14.5,321.66-32.53,472-9.77,68.25-27.22,139.07-49.18,199.55l-13.49,36.36c-125.74,335-420.9,577.32-770.44,632.64-87.55,28.65-187.94,47.23-275.67,51a1012.45,1012.45,0,0,1-114.38,6.74Z" fill="#b1181e"/><path d="M366.37,1460.77c-3.27,0-6.54,0-9.75-.05s-6.48.05-9.75.05h-2.12a999.22,999.22,0,0,1-119.15-7.4C129,1447.9,24.82,1425.8-68.09,1391.11c-189.52-35.35-369.25-128.86-506.21-263.38C-693,1011.11-783.7,858-829.63,696.66A998.25,998.25,0,0,1-874,532l-16.6-94.12c-42.67-242.09,6.84-489.08,139.39-695.58C-594.87-612-243.83-840.83,143.45-840.83A974.88,974.88,0,0,1,436-796a983.27,983.27,0,0,1,106.82-7.53c27-2.25,54.28-3.39,81.06-3.39,201.07,0,394.42,61,559.14,176.26l16,11.22c213.27,149.26,355.64,372.75,400.87,629.29l11.86,67.27c26.09,148.14,14.26,318.32-32.45,467.11-9.63,67.74-26.91,138-48.69,198.05l-13.46,36.28c-124.3,331.18-416.08,570.48-761.66,624.79-86.93,28.55-186.6,47-273.72,50.75a999.82,999.82,0,0,1-113.39,6.7Z" fill="#ed1d24"/><path d="M366.37,1448.27c-3.27,0-6.54,0-9.76-.05s-6.48.05-9.75.05h-2.12a986.31,986.31,0,0,1-118-7.35c-95.83-5.39-199.26-27.35-291.44-61.89-187.5-34.75-365.32-127.13-500.81-260.21-117.33-115.24-206.88-266.51-252.19-426a985.47,985.47,0,0,1-43.92-163l-16.6-94.12c-42.18-239.34,6.86-483.44,138.12-687.47C-586-602.07-239.3-828.33,143.45-828.33a962.24,962.24,0,0,1,291.4,45,970.26,970.26,0,0,1,108.59-7.79c26.8-2.24,53.87-3.38,80.44-3.38,198.49,0,389.36,60.17,552,174l16,11.22C1402.41-461.88,1543-241.26,1587.6,12l11.86,67.27c25.82,146.6,14,315-32.37,462.17-9.48,67.23-26.59,137-48.21,196.56l-13.42,36.2c-122.86,327.33-411.26,563.63-752.88,616.95-86.3,28.45-185.26,46.83-271.77,50.47a986.93,986.93,0,0,1-112.41,6.67Z" fill="#b1181e"/><path d="M366.37,1435.77c-3.27,0-6.54,0-9.76-.05s-6.48.05-9.75.05h-2.12a973.61,973.61,0,0,1-116.92-7.31c-95.12-5.3-197.75-27.14-289.19-61.53-185.48-34.15-361.39-125.4-495.41-257C-672.71,996-761.14,846.57-805.83,689a972.64,972.64,0,0,1-43.51-161.33l-16.6-94.12C-907.62,196.91-859-44.32-729.07-245.87a952.82,952.82,0,0,1,872.52-570A949.68,949.68,0,0,1,433.7-770.54a957.44,957.44,0,0,1,110.35-8c26.59-2.24,53.45-3.37,79.83-3.37,195.91,0,384.3,59.39,544.8,171.74l16,11.22c207.81,145.44,346.52,363.19,390.59,613.15l11.86,67.27c25.54,145.06,13.77,311.64-32.3,457.23-9.34,66.72-26.27,136-47.73,195.06l-13.39,36.11c-121.42,323.49-406.48,556.78-744.1,609.1-85.68,28.35-183.92,46.63-269.82,50.2a974.07,974.07,0,0,1-111.42,6.64Z" fill="#ed1d24"/><path d="M366.37,1423.27c-3.27,0-6.54,0-9.76-.05s-6.48.05-9.75.05h-2.12A960.87,960.87,0,0,1,228.94,1416c-94.41-5.21-196.24-26.92-286.95-61.16C-241.5,1321.29-415.47,1231.17-548,1101-662.54,988.5-749.86,840.82-793.92,685.1A959.92,959.92,0,0,1-837,525.44l-16.6-94.12C-894.83,197.49-846.67-40.87-718-239.94A940.14,940.14,0,0,1,143.45-803.33a937.09,937.09,0,0,1,289.1,45.55,944.47,944.47,0,0,1,112.12-8.32c26.38-2.23,53-3.36,79.21-3.36,193.33,0,379.25,58.61,537.64,169.48l16,11.22c205.07,143.53,342,358.42,385.45,605.09l11.86,67.27c25.27,143.52,13.53,308.31-32.22,452.29-9.19,66.21-26,134.91-47.24,193.57l-13.36,36c-120,319.65-401.66,549.93-735.32,601.25-85,28.25-182.58,46.43-267.87,49.92a961.29,961.29,0,0,1-110.43,6.61Z" fill="#b1181e"/><path d="M366.37,1410.77c-3.27,0-6.54,0-9.76-.05s-6.48.05-9.75.05h-2.12A948.12,948.12,0,0,1,230,1403.54c-93.7-5.12-194.74-26.71-284.7-60.8-181.47-32.94-353.53-121.94-484.61-250.68C-652.38,981-738.58,835.09-782,681.25a947.11,947.11,0,0,1-42.69-158l-16.6-94.12C-882,198.07-834.33-37.4-707-234A927.48,927.48,0,0,1,143.45-790.83,924.5,924.5,0,0,1,431.4-745a931.68,931.68,0,0,1,113.88-8.6c26.18-2.23,52.62-3.35,78.59-3.35,190.76,0,374.19,57.83,530.47,167.22l16,11.22c202.34,141.61,337.4,353.64,380.31,597l11.86,67.27c25,142,13.28,305-32.15,447.34-9,65.7-25.63,133.88-46.76,192.08l-13.33,36c-118.53,315.81-396.87,543.08-726.54,593.41-84.42,28.16-181.24,46.23-265.91,49.64a948.52,948.52,0,0,1-109.44,6.58Z" fill="#ed1d24"/><path d="M366.37,1398.27c-3.27,0-6.54,0-9.76-.05s-6.48.05-9.75.05h-2.12a935.15,935.15,0,0,1-113.58-7.18c-93-5-193.23-26.49-282.46-60.44-179.46-32.34-349.6-120.21-479.21-247.51C-642.21,973.43-727.3,829.35-770.12,677.4A934.26,934.26,0,0,1-812.4,521.1L-829,427c-40.24-228.34,7-460.93,133.07-655A914.87,914.87,0,0,1,143.45-778.33a911.83,911.83,0,0,1,286.8,46.1,918.59,918.59,0,0,1,115.65-8.89c26-2.22,52.2-3.35,78-3.35a908.08,908.08,0,0,1,523.3,165l16,11.21c199.6,139.7,332.84,348.86,375.17,588.95l11.86,67.27c24.73,140.45,13,301.63-32.07,442.4-8.89,65.2-25.31,132.84-46.27,190.58l-13.3,35.87c-117.09,312-392,536.24-717.76,585.56-83.79,28.06-179.89,46-264,49.37a935.8,935.8,0,0,1-108.46,6.55Z" fill="#b1181e"/><path d="M366.37,1385.77c-3.27,0-6.54,0-9.76-.05s-6.48.05-9.75.05h-2.12a922.44,922.44,0,0,1-112.47-7.14c-92.28-4.95-191.72-26.27-280.21-60.08-177.45-31.74-345.67-118.48-473.81-244.33C-632.05,965.89-716,823.61-758.22,673.54a921.43,921.43,0,0,1-41.87-154.62l-16.59-94.12c-39.76-225.59,7-455.28,131.81-646.94A902.2,902.2,0,0,1,143.45-765.83,899.29,899.29,0,0,1,429.1-719.44a905.8,905.8,0,0,1,117.41-9.18c25.76-2.22,51.79-3.34,77.36-3.34A895.64,895.64,0,0,1,1140-569.26L1156-558C1352.88-420.26,1484.3-214,1526,22.84L1537.9,90.1c24.46,138.92,12.8,298.29-32,437.46-8.74,64.69-25,131.8-45.78,189.09l-13.27,35.79c-115.65,308.13-387.26,529.39-709,577.71-83.16,28-178.55,45.84-262,49.1a923,923,0,0,1-107.47,6.53Z" fill="#ed1d24"/><path d="M366.37,1373.27c-3.27,0-6.54,0-9.76-.06s-6.48.06-9.75.06h-2.12a909.47,909.47,0,0,1-111.36-7.1c-91.56-4.86-190.21-26.05-278-59.72C-220,1275.32-386.32,1189.71-513,1065.31c-108.9-107-191.76-247.44-233.33-395.61a908.69,908.69,0,0,1-41.46-152.94l-16.59-94.12C-843.65,199.81-797.29-27-673.83-216.19A889.59,889.59,0,0,1,143.45-753.33,886.74,886.74,0,0,1,428-706.64a893,893,0,0,1,119.18-9.49c25.56-2.21,51.38-3.33,76.74-3.33a883.2,883.2,0,0,1,509,160.44l16,11.21C1343-411.94,1472.57-208.51,1513.74,25l11.86,67.27c24.19,137.38,12.55,295-31.93,432.51-8.59,64.19-24.66,130.77-45.29,187.6l-13.24,35.71c-114.21,304.3-382.44,522.54-700.21,569.85-82.54,27.87-177.21,45.65-260,48.82a910.06,910.06,0,0,1-106.49,6.5Z" fill="#b1181e"/><path d="M366.37,1360.77c-3.27,0-6.55,0-9.76-.06s-6.48.06-9.75.06h-2.12a896.66,896.66,0,0,1-110.25-7.06c-90.85-4.77-188.7-25.83-275.71-59.36-173.43-30.52-337.82-115-463-238-107.5-105.58-189.23-244.25-230.19-390.54a895.92,895.92,0,0,1-41.06-151.26l-16.59-94.11c-38.79-220.08,7.13-444,129.29-630.72A876.91,876.91,0,0,1,143.45-740.83a874.24,874.24,0,0,1,283.35,47,880,880,0,0,1,120.95-9.81c25.36-2.21,51-3.33,76.13-3.33a870.77,870.77,0,0,1,501.79,158.18l16,11.21c191.4,134,319.17,334.52,359.75,564.74l11.86,67.27c23.92,135.85,12.31,291.61-31.86,427.57-8.44,63.68-24.34,129.73-44.8,186.12l-13.21,35.62c-112.77,300.46-377.65,515.69-691.43,562-81.91,27.78-175.86,45.46-258.07,48.55a897.36,897.36,0,0,1-105.5,6.47Z" fill="#ed1d24"/><path d="M366.37,1348.27c-3.27,0-6.55,0-9.76-.06s-6.48.06-9.75.06h-2.12a883.71,883.71,0,0,1-109.13-7c-90.15-4.67-187.18-25.61-273.47-59-171.42-29.91-333.89-113.26-457.61-234.78-106.09-104.2-186.71-241.08-227-385.48a883,883,0,0,1-40.65-149.58l-16.59-94.11c-38.3-217.33,7.17-438.4,128-622.61a864.29,864.29,0,0,1,795.18-524A861.64,861.64,0,0,1,425.65-681a867.07,867.07,0,0,1,122.71-10.14c25.15-2.2,50.56-3.32,75.51-3.32A858.33,858.33,0,0,1,1118.5-538.54l16,11.21c188.67,132,314.61,329.74,354.62,556.68L1501,96.61c23.65,134.31,12.06,288.27-31.79,422.62-8.29,63.17-24,128.69-44.31,184.63l-13.18,35.54C1300.36,1036,1038.86,1248.25,729,1293.55c-81.27,27.69-174.51,45.27-256.11,48.28a884.68,884.68,0,0,1-104.52,6.44Z" fill="#b1181e"/><path d="M366.37,1335.77c-3.27,0-6.55,0-9.76-.06s-6.47.06-9.75.06h-2.12a870.9,870.9,0,0,1-108-7c-89.43-4.58-185.68-25.4-271.22-58.64-169.41-29.3-330-111.52-452.22-231.6C-591.4,935.73-670.9,800.65-710.61,658.14a870.27,870.27,0,0,1-40.24-147.9l-16.59-94.11c-37.82-214.58,7.2-432.76,126.78-614.5A851.6,851.6,0,0,1,143.45-715.83a849.06,849.06,0,0,1,281,47.66A854,854,0,0,1,549-678.64c24.95-2.2,50.15-3.32,74.9-3.32a845.89,845.89,0,0,1,487.46,153.67l16,11.2c185.93,130.13,310,325,349.48,548.61l11.86,67.27c23.38,132.77,11.81,284.94-31.73,417.68-8.13,62.67-23.68,127.66-43.82,183.14L1400,735.06c-109.89,292.78-368,502-673.88,546.29-80.64,27.6-173.16,45.09-254.15,48a871.87,871.87,0,0,1-103.54,6.41Z" fill="#ed1d24"/><path d="M366.37,1323.27c-3.28,0-6.55,0-9.76-.06s-6.47.06-9.75.06h-2.12a858.17,858.17,0,0,1-106.91-6.94c-88.72-4.49-184.17-25.18-269-58.29-167.4-28.69-326-109.78-446.82-228.41C-581.24,928.19-659.62,794.91-698.71,654.29a857.49,857.49,0,0,1-39.84-146.22L-755.14,414c-37.33-211.83,7.24-427.13,125.52-606.39a839,839,0,0,1,773.07-510.9,836.55,836.55,0,0,1,279.89,48,841.08,841.08,0,0,1,126.25-10.83c24.75-2.2,49.74-3.31,74.28-3.31a833.45,833.45,0,0,1,480.29,151.41l16,11.2c183.2,128.22,305.49,320.19,344.34,540.54L1476.35,101c23.11,131.24,11.57,281.6-31.66,412.73-8,62.16-23.35,126.62-43.32,181.65l-13.12,35.38C1279.8,1019.65,1025,1225.85,723.14,1269.14c-80,27.52-171.81,44.9-252.19,47.75a859.15,859.15,0,0,1-102.55,6.39Z" fill="#b1181e"/><path d="M366.37,1310.77c-3.28,0-6.55,0-9.76-.06s-6.47.06-9.75.06h-2.12a845.41,845.41,0,0,1-105.8-6.9c-88-4.4-182.66-25-266.71-57.93-165.38-28.08-322.11-108-441.43-225.22C-571.07,920.65-648.34,789.18-686.8,650.44A844.68,844.68,0,0,1-726.23,505.9l-16.59-94.11c-36.85-209.08,7.28-421.5,124.27-598.27a826.3,826.3,0,0,1,762-504.34,824,824,0,0,1,278.74,48.36,828.13,828.13,0,0,1,128-11.19c24.54-2.19,49.33-3.3,73.67-3.3A821,821,0,0,1,1097-507.81l16,11.2c180.47,126.3,300.93,315.41,339.2,532.47L1464,103.12c22.84,129.71,11.32,278.26-31.6,407.78-7.82,61.66-23,125.59-42.82,180.16l-13.09,35.29c-107,285.09-358.42,488.28-656.34,530.57-79.37,27.43-170.46,44.72-250.22,47.48a846.29,846.29,0,0,1-101.58,6.36Z" fill="#ed1d24"/><path d="M366.37,1298.27c-3.28,0-6.56,0-9.76-.06s-6.47.06-9.75.06h-2.12a832.67,832.67,0,0,1-104.69-6.86c-87.31-4.3-181.15-24.74-264.46-57.58-163.37-27.46-318.18-106.28-436-222C-560.91,913.12-637.06,783.44-674.9,646.59a831.87,831.87,0,0,1-39-142.87l-16.59-94.11c-36.36-206.33,7.32-415.87,123-590.16C-479.61-483-185-678.33,143.45-678.33A811.5,811.5,0,0,1,421-629.59a815.18,815.18,0,0,1,129.79-11.57c24.34-2.19,48.91-3.3,73.05-3.3a808.58,808.58,0,0,1,466,146.89l16,11.2C1283.54-362,1402.19-175.75,1439.88,38l11.86,67.27c22.57,128.17,11.07,274.93-31.54,402.83-7.67,61.16-22.68,124.56-42.33,178.68L1364.81,722c-105.57,281.26-353.63,481.43-647.56,522.71-78.74,27.35-169.11,44.54-248.25,47.21a833.64,833.64,0,0,1-100.59,6.33Z" fill="#b1181e"/><path d="M366.37,1285.77c-3.28,0-6.56,0-9.76-.06s-6.47.06-9.75.06h-2.12A819.81,819.81,0,0,1,241.17,1279c-86.6-4.21-179.64-24.52-262.2-57.23-161.37-26.84-314.25-104.53-430.64-218.84C-550.75,905.58-625.78,777.69-663,642.74a819.06,819.06,0,0,1-38.62-141.19l-16.59-94.11c-35.88-203.58,7.37-410.24,121.77-582,125.7-298.46,416-491.23,739.89-491.23a799,799,0,0,1,276.43,49.12,802.35,802.35,0,0,1,131.56-12c24.13-2.19,48.5-3.3,72.44-3.3a796.13,796.13,0,0,1,458.78,144.63l16,11.19c175,122.48,291.81,305.85,328.92,516.34l11.86,67.27c22.3,126.65,10.83,271.58-31.48,397.88-7.51,60.65-22.35,123.53-41.83,177.19l-13,35.13C1249,995.09,1004.26,1192.25,714.3,1232.52c-78.1,27.27-167.75,44.36-246.29,46.95a820.86,820.86,0,0,1-99.62,6.31Z" fill="#ed1d24"/><path d="M366.37,1273.27c-3.28,0-6.56,0-9.76-.06s-6.47.06-9.75.06h-2.12a807,807,0,0,1-102.47-6.78c-85.89-4.11-178.13-24.3-259.94-56.88C-177,1183.38-328,1106.83-442.91,994-540.59,898-614.5,772-651.09,638.89A806.32,806.32,0,0,1-689.3,499.38l-16.59-94.11C-741.29,204.45-698.49.67-585.38-168.66c123.51-294.46,409.46-484.67,728.83-484.67a786.47,786.47,0,0,1,275.27,49.52l2.3-.41a789.72,789.72,0,0,1,131-12c23.92-2.18,48.08-3.29,71.82-3.29a783.69,783.69,0,0,1,451.62,142.37l16,11.19c172.26,120.56,287.26,301.07,323.79,508.27l11.86,67.27c22,125.11,10.58,268.25-31.42,392.93-7.35,60.15-22,122.5-41.32,175.71l-13,35c-102.69,273.6-344,467.74-630,507C633.88,1247.5,545,1264.49,467,1267a808.17,808.17,0,0,1-98.64,6.28Z" fill="#b1181e"/><path d="M366.37,1260.77c-3.28,0-6.56,0-9.76-.06s-6.47.06-9.75.06h-2.12A794,794,0,0,1,243.38,1254c-85.18-4-176.61-24.08-257.68-56.54-157.35-25.61-306.41-101-419.86-212.45-96.27-94.55-169.06-218.83-205-350A793.43,793.43,0,0,1-677,497.21l-16.59-94.11C-728.5,205-686.14,4.13-574.32-162.71-453-453.19-171.39-640.83,143.45-640.83a774,774,0,0,1,274.08,49.92l5.67-1a777.11,777.11,0,0,1,129.48-11.76c23.71-2.18,47.67-3.29,71.2-3.29a771.25,771.25,0,0,1,444.45,140.11l16,11.19C1253.83-337,1367-159.37,1402.94,44.54l11.86,67.27c21.76,123.58,10.33,264.91-31.36,388-7.19,59.64-21.67,121.46-40.82,174.23l-13,35C1228.4,978.73,990.43,1169.86,708.4,1208.09c-76.83,27.12-165,44-242.34,46.42a795.32,795.32,0,0,1-97.66,6.26Z" fill="#ed1d24"/><path d="M366.37,1248.27c-3.28,0-6.56,0-9.76-.07s-6.47.07-9.75.07h-2.12a781.21,781.21,0,0,1-100.25-6.7c-84.47-3.92-175.1-23.86-255.42-56.19-155.34-25-302.48-99.26-414.47-209.25C-520.26,883-591.94,760.47-627.28,631.19A780.59,780.59,0,0,1-664.68,495l-16.59-94.11c-34.43-195.33,7.49-393.35,118-557.7,119.12-286.51,396.38-471.56,706.7-471.56A761.51,761.51,0,0,1,416.31-578l9.05-1.6a764.47,764.47,0,0,1,127.92-11.58c23.5-2.18,47.25-3.28,70.59-3.28a758.81,758.81,0,0,1,437.28,137.85l16,11.19c166.8,116.74,278.14,291.52,313.51,492.13L1402.49,114C1424,236,1412.57,375.55,1371.19,497c-7,59.14-21.32,120.43-40.31,172.75l-12.94,34.88c-99.81,265.92-334.42,454-612.48,491.25-76.19,27-163.68,43.85-240.37,46.16a782.49,782.49,0,0,1-96.68,6.23Z" fill="#b1181e"/><path d="M366.37,1235.77c-3.3,0-6.58,0-9.76-.07s-6.45.07-9.75.07h-2.12a768.47,768.47,0,0,1-99.15-6.67c-83.76-3.82-173.59-23.64-253.16-55.85-153.33-24.36-298.56-97.5-409.07-206-93.46-91.79-164-212.48-198.74-339.87a768,768,0,0,1-37-134.47L-669,398.76C-702.91,206.18-661.43,11-552.18-150.82c116.93-282.52,389.85-465,695.64-465a749,749,0,0,1,271.61,50.74l12.47-2.2a752,752,0,0,1,126.37-11.39c23.29-2.18,46.83-3.28,70-3.28A746.37,746.37,0,0,1,1054-446.37l16,11.18C1234-320.36,1343.53-148.45,1378.32,48.88l11.86,67.27c21.22,120.52,9.83,258.24-31.26,378.07-6.86,58.63-21,119.4-39.81,171.26l-12.91,34.8c-98.37,262.09-329.63,447.19-603.71,483.38-75.56,27-162.32,43.68-238.4,45.9a769.68,769.68,0,0,1-95.7,6.21Z" fill="#ed1d24"/><path d="M366.37,1223.27c-3.29,0-6.57,0-9.76-.07s-6.46.07-9.75.07h-2.12a755.57,755.57,0,0,1-98-6.63c-83.06-3.72-172.07-23.41-250.9-55.51-151.31-23.73-294.63-95.73-403.69-202.84C-499.94,867.88-569.38,749-603.47,623.48a755.06,755.06,0,0,1-36.6-132.79l-16.59-94.1c-33.46-189.84,7.57-382.08,115.54-541.47,114.74-278.54,383.3-458.45,684.57-458.45a736.57,736.57,0,0,1,270.33,51.16L429.71-555a739.36,739.36,0,0,1,124.81-11.2c23.09-2.18,46.42-3.28,69.36-3.28a733.93,733.93,0,0,1,422.94,133.33l16,11.18C1224.11-312,1331.8-143,1366,51l11.86,67.27c21,119,9.58,254.9-31.21,373.12C1340,549.56,1326,609.8,1307.37,661.21l-12.88,34.71c-96.94,258.27-324.81,440.34-594.95,475.51-74.91,26.9-161,43.52-236.42,45.64a756.85,756.85,0,0,1-94.73,6.19Z" fill="#b1181e"/><path d="M366.37,1210.77c-3.25,0-6.53,0-9.76-.07s-6.5.07-9.75.07h-2.12a742.89,742.89,0,0,1-96.93-6.59C165.46,1200.56,77.25,1181-.82,1149c-149.31-23.1-290.71-94-398.3-199.63-90.65-89-159-206.11-192.44-329.74a742.25,742.25,0,0,1-36.19-131.11l-16.59-94.1C-677.32,207.33-636.73,18-530-138.93c112.54-274.58,376.76-451.9,673.5-451.9A724.19,724.19,0,0,1,411.2-539.75l1.28.51,19.41-3.42a726.8,726.8,0,0,1,123.25-11c22.88-2.17,46-3.28,68.74-3.28a721.49,721.49,0,0,1,415.77,131.07l16,11.18c158.6,111,264.46,277.18,298.09,467.93l11.86,67.27C1386.25,238,1374.89,372,1334.4,488.64c-6.53,57.62-20.28,117.33-38.78,168.31l-12.85,34.63c-95.5,254.42-320,433.48-586.18,467.64-74.28,26.84-159.6,43.36-234.44,45.39a744.07,744.07,0,0,1-93.75,6.17Z" fill="#ed1d24"/><path d="M366.37,1198.27c-3.26,0-6.54,0-9.76-.07s-6.49.07-9.75.07h-2.12a730.13,730.13,0,0,1-95.82-6.55c-81.65-3.51-169-23-246.37-54.84-147.3-22.47-286.79-92.19-392.91-196.42-89.25-87.65-156.45-202.93-189.29-324.67a729.44,729.44,0,0,1-35.79-129.43L-632,392.25C-664.53,207.92-624.38,21.45-519-133c110.36-270.6,370.23-445.35,662.43-445.35a711.75,711.75,0,0,1,263.14,50.2l4.57,1.81,22.89-4a714.25,714.25,0,0,1,121.7-10.83c22.68-2.17,45.59-3.27,68.12-3.27a709.05,709.05,0,0,1,408.61,128.81l16,11.18c155.86,109.08,259.9,272.4,293,459.86l11.86,67.27c20.42,115.93,9.07,248.22-31.12,363.2-6.36,57.12-19.93,116.31-38.27,166.83l-12.82,34.54C1177,937.81,955.85,1113.85,693.63,1147c-73.64,26.78-158.23,43.21-232.46,45.13a731.27,731.27,0,0,1-92.78,6.14Z" fill="#b1181e"/><path d="M366.37,1185.77c-3.25,0-6.53,0-9.76-.07s-6.5.07-9.75.07h-2.12a717.45,717.45,0,0,1-94.72-6.52c-80.94-3.41-167.54-22.75-244.1-54.51-145.29-21.84-282.86-90.41-387.53-193.21-87.84-86.27-153.93-199.76-186.14-319.61a716.67,716.67,0,0,1-35.39-127.75l-16.59-94.1C-651.73,208.5-612,24.91-507.9-127c108.17-266.61,363.69-438.8,651.35-438.8A699.29,699.29,0,0,1,402-516.51l7.86,3.11L436.23-518a701.6,701.6,0,0,1,120.14-10.64c22.47-2.17,45.18-3.27,67.51-3.27a696.62,696.62,0,0,1,401.44,126.55l16,11.17c153.13,107.17,255.34,267.62,287.82,451.8l11.86,67.27c20.15,114.41,8.81,244.89-31.07,358.24-6.18,56.61-19.57,115.27-37.75,165.35l-12.79,34.46c-92.61,246.74-310.41,419.76-568.66,451.88-73,26.72-156.87,43.05-230.47,44.88a718.5,718.5,0,0,1-91.81,6.12Z" fill="#ed1d24"/><path d="M366.37,1173.27c-3.21,0-6.49,0-9.76-.07s-6.54.07-9.74.07h-2.12a704.61,704.61,0,0,1-93.61-6.48c-80.23-3.3-166-22.53-241.83-54.18-143.28-21.2-278.94-88.63-382.14-190-86.44-84.9-151.41-196.58-183-314.54a703.87,703.87,0,0,1-35-126.07l-16.59-94.1c-31.52-178.83,7.75-359.53,110.59-509,106-262.63,357.14-432.26,640.28-432.26a686.84,686.84,0,0,1,253.94,48.44l11.17,4.42,3-.53,26.87-4.74A689,689,0,0,1,557-516.19c22.27-2.17,44.77-3.27,66.89-3.27a684.18,684.18,0,0,1,394.27,124.29L1034.09-384c150.39,105.26,250.79,262.85,282.68,443.73L1328.63,127c19.88,112.88,8.56,241.56-31,353.28-6,56.1-19.21,114.24-37.23,163.88l-12.76,34.38c-91.17,242.9-305.61,412.9-559.89,444-72.36,26.66-155.5,42.9-228.48,44.63a705.7,705.7,0,0,1-90.84,6.1Z" fill="#b1181e"/><path d="M366.37,1160.77c-3.21,0-6.49,0-9.76-.07s-6.54.07-9.74.07h-2.12a691.82,691.82,0,0,1-92.51-6.45c-79.52-3.2-164.51-22.3-239.56-53.85-141.27-20.56-275-86.85-376.76-186.77-85-83.52-148.89-193.4-179.84-309.47a691.06,691.06,0,0,1-34.59-124.39l-16.59-94.1c-31-176.08,7.8-353.88,109.36-500.86C-382-373.78-135.16-540.83,143.45-540.83a674.39,674.39,0,0,1,249.34,47.57l14.5,5.74c2.14-.4,4.28-.79,6.41-1.16l26.87-4.74a676.36,676.36,0,0,1,117-10.26C579.66-505.86,602-507,623.88-507a671.75,671.75,0,0,1,387.1,122l15.94,11.17C1174.58-270.42,1273.15-115.7,1304.46,61.9l11.86,67.27c19.61,111.36,8.31,238.22-31,348.31-5.83,55.59-18.84,113.21-36.7,162.41l-12.73,34.29c-89.73,239.07-300.83,406-551.13,436.12-71.72,26.61-154.14,42.76-226.49,44.38a692.94,692.94,0,0,1-89.87,6.08Z" fill="#ed1d24"/><path d="M366.37,1148.27c-3.18,0-6.46,0-9.76-.07s-6.57.07-9.74.07h-2.12a679.08,679.08,0,0,1-91.41-6.42c-78.82-3.09-163-22.08-237.29-53.53-139.27-19.92-271.1-85.06-371.37-183.55C-439,822.64-501.69,714.57-532,600.38A678.23,678.23,0,0,1-566.2,477.66l-16.59-94.1c-30.55-173.32,7.85-348.24,108.13-492.73,101.57-254.68,344-419.16,618.12-419.16a661.94,661.94,0,0,1,244.73,46.69l17.88,7.07c3.28-.63,6.57-1.24,9.82-1.81l26.87-4.74a663.84,663.84,0,0,1,115.07-10.07h.4c21.85-2.17,43.94-3.27,65.67-3.27a659.3,659.3,0,0,1,379.93,119.77l15.94,11.17c144.93,101.43,241.67,253.29,272.4,427.6L1304,131.34c19.34,109.83,8,234.89-31,343.35-5.65,55.09-18.48,112.18-36.17,160.94l-12.69,34.21c-88.3,235.24-296,399.19-542.38,428.23-71.08,26.56-152.76,42.62-224.5,44.13a680.12,680.12,0,0,1-88.9,6.07Z" fill="#b1181e"/><path d="M366.37,1135.77c-3.13,0-6.42,0-9.76-.07s-6.62.07-9.74.07h-2.12a666.27,666.27,0,0,1-90.3-6.38c-78.12-3-161.47-21.85-235-53.21-137.27-19.27-267.18-83.27-366-180.32-82.23-80.76-143.84-187-173.54-299.34a665.36,665.36,0,0,1-33.79-121l-16.59-94.1c-30.06-170.56,7.91-342.61,106.9-484.61,99.36-250.68,337.6-412.62,607-412.62A649.5,649.5,0,0,1,383.58-470l21.28,8.42c4.4-.87,8.82-1.7,13.19-2.47l26.87-4.74a651.37,651.37,0,0,1,112.9-9.88h1c21.65-2.17,43.53-3.27,65.06-3.27A646.86,646.86,0,0,1,996.64-364.45l15.94,11.16c142.19,99.52,237.11,248.51,267.27,419.53l11.86,67.27c19.07,108.32,7.79,231.55-30.94,338.38-5.47,54.58-18.11,111.15-35.64,159.47l-12.66,34.12c-86.86,231.41-291.23,392.34-533.62,420.34-70.43,26.51-151.39,42.48-222.5,43.89a667.36,667.36,0,0,1-87.94,6Z" fill="#ed1d24"/><path d="M366.37,1123.27c-3.12,0-6.41,0-9.76-.08s-6.62.08-9.74.08h-2.12a653.5,653.5,0,0,1-89.2-6.35c-77.41-2.87-160-21.63-232.74-52.89-135.25-18.62-263.26-81.47-360.61-177.08-80.82-79.38-141.32-183.87-170.38-294.27a652.59,652.59,0,0,1-33.39-119.35l-16.59-94.09c-29.56-167.71,7.94-336.88,105.59-476.35l.09-.12.43-1.08c97.39-246,331.15-405,595.52-405A637.05,637.05,0,0,1,379-458.4l24.72,9.78c5.51-1.12,11.06-2.18,16.52-3.14l26.87-4.74a638.85,638.85,0,0,1,110.73-9.69h1.62a641.74,641.74,0,0,1,64.44-3.27A634.42,634.42,0,0,1,989.47-354.21L1005.4-343C1144.86-245.44,1238-99.32,1267.53,68.41l11.86,67.27c18.8,106.79,7.53,228.21-30.91,333.41-5.28,54.07-17.73,110.12-35.11,158l-12.63,34c-85.42,227.58-286.43,385.48-524.87,412.45-69.79,26.47-150,42.35-220.5,43.65a654.46,654.46,0,0,1-87,6Z" fill="#b1181e"/><path d="M366.37,1110.77c-3.17,0-6.46,0-9.76-.08s-6.57.08-9.74.08h-2.12a640.73,640.73,0,0,1-88.1-6.32c-76.71-2.75-158.44-21.4-230.46-52.58-133.25-18-259.34-79.67-355.24-173.85-79.42-78-138.79-180.69-167.23-289.21a639.81,639.81,0,0,1-33-117.67l-16.59-94.09c-29-164.42,7.78-330.27,103.52-467l.93-1.32,1-2.46C-345-335-115.76-490.83,143.45-490.83a624.61,624.61,0,0,1,230.93,44.05l28.08,11.11,1.08-.16c6.27-1.3,12.61-2.52,18.86-3.63l26.87-4.74a626.31,626.31,0,0,1,108.55-9.5h2.24A629.1,629.1,0,0,1,623.88-457,622,622,0,0,1,982.3-344l15.93,11.16c136.73,95.69,228,239,257,403.4l11.86,67.27c18.54,105.27,7.27,224.88-30.89,328.44-5.1,53.57-17.35,109.09-34.57,156.54l-12.6,34c-84,223.75-281.65,378.62-516.11,404.55-69.15,26.43-148.63,42.23-218.5,43.41a641.73,641.73,0,0,1-86,6Z" fill="#ed1d24"/><path d="M366.37,1098.27c-3.18,0-6.47,0-9.76-.08s-6.57.08-9.74.08h-2.12a627.83,627.83,0,0,1-87-6.29c-76-2.64-156.93-21.18-228.18-52.27A617.45,617.45,0,0,1-320.29,869.11c-78-76.63-136.27-177.51-164.08-284.14A627,627,0,0,1-517,469l-16.59-94.09C-562,213.75-525.93,51.21-432.11-82.79l1.76-2.5,1.52-3.85c93.59-236.43,318.22-389.2,572.28-389.2a612.17,612.17,0,0,1,226.33,43.18L401-422.81l4.72-.7c6.29-1.31,12.63-2.53,18.86-3.63l26.86-4.74a613.76,613.76,0,0,1,106.38-9.31h2.85a616.39,616.39,0,0,1,63.21-3.28A609.53,609.53,0,0,1,975.13-333.73l15.93,11.16c134,93.78,223.44,234.18,251.85,395.33L1254.78,140c18.27,103.75,7,221.55-30.87,323.47-4.91,53.06-17,108.06-34,155.07l-12.57,33.87c-82.55,219.92-276.85,371.76-507.36,396.65-68.5,26.4-147.25,42.11-216.49,43.17a628.82,628.82,0,0,1-85.05,6Z" fill="#b1181e"/><path d="M366.37,1085.77c-3.21,0-6.5,0-9.76-.08s-6.54.08-9.74.08h-2.12a615.09,615.09,0,0,1-85.9-6.26c-75.3-2.52-155.42-21-225.89-52A604.67,604.67,0,0,1-311.53,860.19c-76.62-75.25-133.75-174.34-160.92-279.08a614.19,614.19,0,0,1-32.2-114.31l-16.59-94.09c-27.82-157.85,7.47-317.06,99.38-448.33.81-1.16,1.68-2.39,2.59-3.66l2.08-5.26c91.69-231.63,311.76-381.3,560.65-381.3a599.72,599.72,0,0,1,221.73,42.3l34.36,13.6c2.79-.44,5.59-.86,8.33-1.25,6.28-1.31,12.62-2.54,18.86-3.64l26.86-4.74a601.27,601.27,0,0,1,104.21-9.12h3.46a603.82,603.82,0,0,1,62.6-3.28A597.1,597.1,0,0,1,968-323.49l15.92,11.15c131.26,91.87,218.88,229.4,246.71,387.26l11.86,67.27c18,102.23,6.75,218.21-30.86,318.5-4.71,52.56-16.58,107-33.48,153.61l-12.54,33.79C1084.47,864.18,893.52,1013,667,1036.84c-67.84,26.37-145.86,42-214.48,42.94a616,616,0,0,1-84.09,6Z" fill="#ed1d24"/><path d="M366.37,1073.27c-3.19,0-6.48,0-9.76-.08s-6.56.08-9.74.08h-2.12a602.25,602.25,0,0,1-84.8-6.23c-74.6-2.4-153.9-20.72-223.61-51.66A591.87,591.87,0,0,1-302.77,851.27C-378,777.4-434,680.11-460.54,577.26a601.33,601.33,0,0,1-31.81-112.63l-16.59-94.09c-27.24-154.56,7.32-310.46,97.31-439,1.05-1.51,2.21-3.14,3.4-4.8l2.64-6.68c89.79-226.83,305.3-373.4,549-373.4a587.27,587.27,0,0,1,217.12,41.42L398.13-397c4-.65,8-1.26,11.92-1.82,6.27-1.32,12.62-2.55,18.86-3.65l26.87-4.74a588.78,588.78,0,0,1,102-8.93l4.08,0a591.37,591.37,0,0,1,62-3.29A584.65,584.65,0,0,1,960.8-313.25l15.92,11.15c128.53,90,214.32,224.62,241.58,379.19l11.86,67.27c17.74,100.72,6.49,214.88-30.85,313.53-4.52,52.05-16.19,106-32.93,152.15l-12.51,33.7C1074.19,856,886.6,1001.78,664,1024.58c-67.19,26.34-144.47,41.88-212.47,42.71a603.22,603.22,0,0,1-83.13,6Z" fill="#b1181e"/><path d="M366.37,1060.77c-3.19,0-6.47,0-9.76-.08s-6.56.08-9.74.08h-2.12a589.45,589.45,0,0,1-83.7-6.2c-73.9-2.28-152.39-20.5-221.32-51.36A579.07,579.07,0,0,1-294,842.36c-73.82-72.5-128.7-168-154.61-268.94a588.47,588.47,0,0,1-31.41-111l-16.59-94.09c-26.66-151.27,7.16-303.85,95.24-429.65,1.29-1.85,2.73-3.87,4.22-5.93l3.22-8.13c87.89-222,298.84-365.5,537.41-365.5A574.83,574.83,0,0,1,356-400.29l40.79,16.14c5.19-.88,10.36-1.68,15.46-2.41,6.28-1.32,12.62-2.55,18.86-3.65L457.95-395a576.2,576.2,0,0,1,99.87-8.74l4.69,0A578.75,578.75,0,0,1,623.88-407,572.21,572.21,0,0,1,953.63-303l15.92,11.15C1095.34-203.82,1179.31-72,1206,79.27l11.86,67.27c17.47,99.2,6.22,211.55-30.85,308.55-4.32,51.55-15.79,105-32.38,150.69l-12.48,33.62C1063.91,847.83,879.67,990.56,661,1012.31c-66.54,26.32-143.08,41.78-210.45,42.49a590.4,590.4,0,0,1-82.18,6Z" fill="#ed1d24"/><path d="M366.37,1048.27c-3.21,0-6.5,0-9.76-.09s-6.53.09-9.74.09h-2.12a576.66,576.66,0,0,1-82.6-6.17c-73.21-2.15-150.87-20.27-219-51.07A566.27,566.27,0,0,1-285.26,833.44c-72.42-71.12-126.18-164.81-151.45-263.88a575.65,575.65,0,0,1-31-109.27l-16.59-94.09c-26.08-148,7-297.25,93.17-420.31,1.53-2.19,3.25-4.6,5-7l3.79-9.58C-296.34-288-90-428.33,143.45-428.33a562.39,562.39,0,0,1,207.92,39.66l44.05,17.43h0c6.29-1.1,12.65-2.11,18.92-3,6.28-1.33,12.63-2.56,18.86-3.66l26.87-4.74a563.63,563.63,0,0,1,97.7-8.55l5.29,0a566.1,566.1,0,0,1,60.77-3.3A559.77,559.77,0,0,1,946.46-292.77l15.92,11.15c123.06,86.13,205.2,215.06,231.3,363.06l11.86,67.27c17.2,97.69,6,208.22-30.85,303.57-4.11,51-15.39,104-31.82,149.23L1130.43,635c-76.8,204.6-257.69,344.3-472.38,365-65.89,26.31-141.68,41.69-208.43,42.26a577.7,577.7,0,0,1-81.23,6Z" fill="#b1181e"/><path d="M366.37,1035.77c-3.2,0-6.48,0-9.76-.09s-6.55.09-9.74.09h-2.12a563.92,563.92,0,0,1-81.5-6.14c-72.51-2-149.36-20-216.73-50.79a553.5,553.5,0,0,1-323-154.32c-71-69.75-123.66-161.63-148.29-258.81a562.92,562.92,0,0,1-30.63-107.59L-472,364c-25.5-144.69,6.85-290.64,91.1-411,1.79-2.55,3.78-5.34,5.83-8.14l4.37-11.06c84.09-212.43,285.91-349.69,514.16-349.69A549.94,549.94,0,0,1,346.77-377l47.34,18.73,3.53-.62c6.3-1.1,12.65-2.11,18.92-3,6.26-1.33,12.61-2.57,18.86-3.67l26.87-4.74a551.07,551.07,0,0,1,95.52-8.36c1.87,0,3.87,0,5.91,0A553.61,553.61,0,0,1,623.88-382a547.34,547.34,0,0,1,315.41,99.43l15.91,11.15c120.32,84.21,200.64,210.29,226.16,355l11.86,67.27c16.94,96.18,5.69,204.89-30.85,298.59-3.9,50.54-15,102.94-31.25,147.78l-12.41,33.45c-75.36,200.77-252.9,337.43-463.64,357.07-65.23,26.31-140.29,41.6-206.4,42a564.76,564.76,0,0,1-80.27,6Z" fill="#ed1d24"/><path d="M366.37,1023.27c-3.2,0-6.48,0-9.76-.09s-6.55.09-9.75.09h-2.12a551.15,551.15,0,0,1-80.41-6.12c-71.81-1.9-147.85-19.81-214.44-50.51a540.72,540.72,0,0,1-317.64-151c-69.62-68.37-121.13-158.46-145.13-253.74a550.07,550.07,0,0,1-30.24-105.91l-16.59-94.09c-24.92-141.4,6.69-284,89-401.63,2-2.9,4.31-6.07,6.64-9.24l1.09-2.79,3.85-9.73c82.19-207.63,279.45-341.79,502.54-341.79a537.5,537.5,0,0,1,198.72,37.91l50.63,20,7-1.24c6.29-1.1,12.65-2.1,18.92-3,6.26-1.34,12.6-2.57,18.86-3.68L464.46-358a538.52,538.52,0,0,1,93.35-8.17c2.06,0,4.27,0,6.52,0a540.9,540.9,0,0,1,59.55-3.32,534.9,534.9,0,0,1,308.25,97.17L948-261.14c117.59,82.3,196.08,205.51,221,346.92L1180.91,153c16.67,94.67,5.42,201.56-30.87,293.6-3.69,50-14.56,101.92-30.68,146.33L1107,626.35c-73.93,196.94-248.11,330.56-454.9,349.14-64.58,26.31-138.89,41.52-204.37,41.83a551.9,551.9,0,0,1-79.32,6Z" fill="#b1181e"/><path d="M366.37,1010.77c-3.22,0-6.5,0-9.76-.09s-6.53.09-9.75.09h-2.12a538.38,538.38,0,0,1-79.31-6.09c-71.12-1.76-146.33-19.58-212.13-50.23A527.92,527.92,0,0,1-259,806.68c-68.22-67-118.61-155.28-142-248.68A537.26,537.26,0,0,1-430.8,453.77l-16.59-94.09c-24.34-138.11,6.54-277.43,87-392.29,2.27-3.25,4.83-6.79,7.45-10.34.55-1.44,1.11-2.87,1.67-4.27l3.85-9.72c80.29-202.83,273-333.9,490.92-333.9a525,525,0,0,1,194.12,37l53.93,21.34,10.5-1.85c6.28-1.1,12.64-2.1,18.92-3,6.25-1.34,12.59-2.58,18.85-3.68l26.87-4.74a526,526,0,0,1,91.18-8c2.24,0,4.67,0,7.12.06A528.45,528.45,0,0,1,623.88-357,522.46,522.46,0,0,1,925-262l15.91,11.14c114.86,80.39,191.52,200.73,215.88,338.86l11.86,67.27c16.4,93.16,5.14,198.22-30.89,288.61-3.47,49.54-14.14,100.91-30.1,144.88L1095.27,622C1022.78,815.11,852,945.69,649.11,963.21c-63.93,26.31-137.49,41.45-202.33,41.62a539.06,539.06,0,0,1-78.38,5.95Z" fill="#ed1d24"/><path d="M366.37,998.27c-3.21,0-6.49,0-9.75-.09s-6.54.09-9.75.09h-2.12a525.59,525.59,0,0,1-78.21-6.07c-70.43-1.63-144.82-19.35-209.83-50A515.12,515.12,0,0,1-250.22,797.77C-317,732.14-366.31,645.66-389,554.16A524.46,524.46,0,0,1-418.49,451.6l-16.59-94.09c-23.76-134.83,6.38-270.83,84.89-382.95,2.52-3.6,5.36-7.53,8.27-11.43.74-1.94,1.49-3.87,2.23-5.75l3.85-9.72c78.4-198,266.53-326,479.29-326A512.61,512.61,0,0,1,333-342.18L388-320.38l2.12.85,14-2.47c6.28-1.1,12.63-2.1,18.92-3,6.25-1.35,12.59-2.59,18.85-3.69l26.87-4.74a513.43,513.43,0,0,1,89-7.79c2.42,0,5.08,0,7.73.07a515.73,515.73,0,0,1,58.33-3.34,510,510,0,0,1,293.91,92.65l15.91,11.14c112.12,78.47,187,196,210.74,330.79l11.86,67.27c16.14,91.65,4.87,194.89-30.91,283.62-3.25,49-13.71,99.89-29.51,143.44l-12.32,33.2C1012.5,806.93,845,934.46,646.12,950.91,582.89,977.23,510,992.3,445.83,992.32a526.23,526.23,0,0,1-77.43,5.95Z" fill="#b1181e"/><path d="M366.37,985.77c-3.22,0-6.5,0-9.75-.1s-6.53.1-9.75.1h-2.12a512.84,512.84,0,0,1-77.12-6.05C197.89,978.23,124.31,960.6,60.1,930A502.35,502.35,0,0,1-241.46,788.85C-306.88,724.6-355,639.91-377.1,550.3a511.67,511.67,0,0,1-29.07-100.87l-16.59-94.09c-23.18-131.54,6.23-264.22,82.82-373.61,2.77-4,5.89-8.26,9.09-12.52.92-2.44,1.86-4.87,2.79-7.24l3.84-9.71c76.5-193.24,260.07-318.1,467.67-318.1a500.16,500.16,0,0,1,184.91,35.27l55.08,21.8c1.73.69,3.52,1.41,5.35,2.16l17.55-3.1c6.27-1.1,12.62-2.09,18.92-3,6.26-1.35,12.6-2.6,18.85-3.7L471-321.09a500.91,500.91,0,0,1,86.84-7.6c2.61,0,5.48,0,8.34.08A503.14,503.14,0,0,1,623.88-332a497.58,497.58,0,0,1,286.74,90.39l15.9,11.14c109.39,76.56,182.41,191.17,205.6,322.72L1144,159.56c15.87,90.14,4.59,191.56-30.95,278.63-3,48.53-13.26,98.87-28.92,142l-12.29,33.11c-69.62,185.46-233.75,309.93-428.71,325.31C580.88,964.82,509,979.82,445.7,979.82h-.82a513.37,513.37,0,0,1-76.49,5.95Z" fill="#ed1d24"/><path d="M366.37,973.27c-3.22,0-6.5,0-9.75-.1s-6.53.1-9.75.1h-2.12a500,500,0,0,1-76-6c-69.05-1.34-141.79-18.88-205.21-49.46A489.57,489.57,0,0,1-232.7,779.93c-64-62.87-111-145.76-132.47-233.48a498.86,498.86,0,0,1-28.69-99.19l-16.59-94.09c-22.6-128.25,6.07-257.62,80.75-364.27,3-4.31,6.43-9,9.92-13.61,1.1-3,2.23-5.88,3.35-8.72l3.84-9.7c74.6-188.44,253.6-310.2,456-310.2a487.71,487.71,0,0,1,180.31,34.4l55.08,21.8c2.75,1.09,5.6,2.26,8.51,3.48l21.15-3.73c6.26-1.1,12.62-2.09,18.92-2.95,6.27-1.36,12.61-2.61,18.85-3.71l26.87-4.74a488.35,488.35,0,0,1,84.67-7.41c2.79,0,5.87,0,9,.09a490.58,490.58,0,0,1,57.11-3.36,485.14,485.14,0,0,1,279.57,88.13l15.9,11.14C1026-145.55,1097.2-33.8,1119.81,94.46l11.86,67.27c15.61,88.63,4.31,188.23-31,273.63-2.78,48-12.81,97.85-28.31,140.56l-12.26,33c-68.18,181.63-229,303-420,317.36-61.23,26.08-132,41-194.43,41h-1.78a500.47,500.47,0,0,1-75.53,5.95Z" fill="#b1181e"/><path d="M366.37,960.77c-3.22,0-6.5,0-9.75-.1s-6.53.1-9.75.1h-2.12a487.16,487.16,0,0,1-74.93-6c-68.36-1.19-140.28-18.64-202.89-49.21A476.79,476.79,0,0,1-223.94,771c-62.62-61.5-108.51-142.58-129.3-228.42a486,486,0,0,1-28.31-97.51L-398.15,351c-22-125,5.92-251,78.68-354.93,3.26-4.66,7-9.71,10.76-14.7,1.27-3.45,2.58-6.87,3.9-10.21l3.84-9.7c72.7-183.64,247.14-302.3,444.43-302.3a475.27,475.27,0,0,1,175.71,33.52l55.08,21.8c3.73,1.48,7.63,3.09,11.63,4.82l24.81-4.38c6.26-1.1,12.62-2.08,18.92-2.94,6.27-1.37,12.61-2.62,18.85-3.72l26.87-4.74a475.81,475.81,0,0,1,82.49-7.22c3,0,6.28,0,9.57.11a478,478,0,0,1,56.5-3.38,472.7,472.7,0,0,1,272.4,85.87L912.18-210C1016.1-137.22,1085.47-28.34,1107.5,96.63l11.86,67.27c15.34,87.13,4,184.9-31,268.63-2.54,47.52-12.35,96.84-27.7,139.12L1048.4,604.6C981.65,782.41,824.21,900.77,637.14,914c-60.2,26-129.84,40.83-191.43,40.83H443a487.69,487.69,0,0,1-74.56,5.95Z" fill="#ed1d24"/><path d="M366.37,948.27c-3.22,0-6.5,0-9.75-.1s-6.53.1-9.75.1h-2.12a474.34,474.34,0,0,1-73.84-6c-67.68-1-138.76-18.41-200.57-49a464,464,0,0,1-285.52-131.2c-61.21-60.12-106-139.41-126.13-223.35a473.22,473.22,0,0,1-27.93-95.82l-16.59-94.09c-21.45-121.67,5.76-244.4,76.6-345.59,3.52-5,7.51-10.46,11.6-15.78,1.43-3.93,2.92-7.86,4.44-11.7l3.84-9.69c70.8-178.84,240.68-294.4,432.8-294.4a462.82,462.82,0,0,1,171.11,32.64l55.09,21.8c4.65,1.84,9.67,3.95,14.69,6.16l28.52-5c6.25-1.1,12.61-2.08,18.92-2.92,6.27-1.38,12.6-2.63,18.84-3.73l26.87-4.74a463.28,463.28,0,0,1,80.32-7c3.18,0,6.68,0,10.18.12a465.45,465.45,0,0,1,55.89-3.39,460.25,460.25,0,0,1,265.23,83.61L905-199.71C1006.19-128.9,1073.74-22.88,1095.19,98.8l11.86,67.27c15.08,85.63,3.74,181.57-31.1,263.63-2.29,47-11.88,95.82-27.08,137.69l-12.19,32.86c-65.31,174-219.41,289.28-402.54,301.42C575,927.52,506.42,942.32,445.7,942.32H442a474.82,474.82,0,0,1-73.58,5.95Z" fill="#b1181e"/><path d="M366.37,935.77c-3.23,0-6.51,0-9.75-.11s-6.52.11-9.75.11h-2.12a461.51,461.51,0,0,1-72.75-6C205,928.9,134.74,911.62,73.75,881A451.24,451.24,0,0,1-206.43,753.18c-59.81-58.75-103.46-136.24-123-218.29a460.42,460.42,0,0,1-27.55-94.14l-16.59-94.09c-20.87-118.38,5.6-237.8,74.53-336.25,3.78-5.4,8.06-11.19,12.45-16.86,1.59-4.44,3.27-8.87,5-13.2l3.83-9.69c68.9-174,234.22-286.5,421.18-286.5A450.37,450.37,0,0,1,310-284.07L365-262.27c5.63,2.23,11.7,4.81,17.75,7.54,1.81-.35,3.6-.68,5.35-1L415-260.46c6.25-1.1,12.61-2.08,18.92-2.91,6.27-1.38,12.6-2.64,18.84-3.74l26.87-4.74a450.76,450.76,0,0,1,78.15-6.84c3.38,0,7.09,0,10.79.14A452.82,452.82,0,0,1,623.88-282a447.81,447.81,0,0,1,258.06,81.35l15.9,11.13c98.45,68.9,164.17,172.06,185,290.45l11.86,67.27c14.81,84.13,3.45,178.25-31.18,258.62-2,46.51-11.4,94.81-26.45,136.26L1025,595.91C961.09,766.05,810.32,878.29,631.13,889.34,573,915.08,505.55,929.82,445.7,929.82H441a462.08,462.08,0,0,1-72.58,5.95Z" fill="#ed1d24"/><path d="M366.37,923.27c-3.23,0-6.51,0-9.75-.11s-6.52.11-9.75.11h-2.12a448.6,448.6,0,0,1-71.66-6c-66.31-.72-135.73-17.93-195.91-48.54a438.47,438.47,0,0,1-274.84-124.5C-256.08,686.88-298.6,611.2-317.46,531a447.61,447.61,0,0,1-27.17-92.46l-16.59-94.09c-20.29-115.1,5.45-231.19,72.46-326.91,4-5.75,8.6-11.92,13.31-17.94,1.76-5,3.6-9.89,5.5-14.7l3.83-9.68c67-169.24,227.76-278.6,409.56-278.6a437.93,437.93,0,0,1,161.9,30.88l55.09,21.8c6.62,2.62,13.75,5.69,20.82,9,3.09-.62,6.12-1.2,9.05-1.71l26.88-4.74c6.25-1.1,12.61-2.07,18.92-2.9,6.26-1.39,12.6-2.65,18.84-3.75l26.87-4.74a438.23,438.23,0,0,1,76-6.65c3.57,0,7.49.06,11.4.16a440.2,440.2,0,0,1,54.66-3.43,435.38,435.38,0,0,1,250.9,79.09l15.89,11.13c95.72,67,159.61,167.28,179.91,282.38l11.86,67.27c14.55,82.64,3.15,174.93-31.26,253.61-1.77,46-10.91,93.8-25.8,134.84l-12.13,32.69C950.8,757.89,803.37,867.06,628.12,877,571,902.64,504.68,917.32,445.7,917.32H440a449.33,449.33,0,0,1-71.57,5.95Z" fill="#b1181e"/><path d="M366.37,910.77c-3.23,0-6.51,0-9.75-.11-3.24.08-6.52.11-9.75.11h-2.12a435.81,435.81,0,0,1-70.57-6c-65.63-.55-134.22-17.69-193.57-48.34A425.69,425.69,0,0,1-188.91,735.34c-57-56-98.4-129.89-116.61-208.16a434.78,434.78,0,0,1-26.79-90.77l-16.59-94.09c-19.71-111.81,5.29-224.59,70.39-317.57,4.28-6.12,9.16-12.65,14.18-19,1.91-5.47,3.93-10.91,6-16.2l3.83-9.68c65.1-164.44,221.29-270.7,397.93-270.7a425.47,425.47,0,0,1,157.3,30L355.85-239c7.62,3,15.8,6.59,23.89,10.41,4.39-.93,8.67-1.77,12.76-2.49l26.88-4.74c6.25-1.1,12.61-2.07,18.92-2.89,6.26-1.4,12.6-2.66,18.83-3.76L484-247.23a425.71,425.71,0,0,1,73.81-6.46c3.77,0,7.9.06,12,.19A427.6,427.6,0,0,1,623.88-257,422.94,422.94,0,0,1,867.6-180.13L883.5-169c93,65.08,155,162.5,174.76,274.31l11.86,67.27c14.29,81.15,2.86,171.6-31.36,248.59-1.5,45.51-10.4,92.79-25.15,133.42l-12.1,32.61c-61,162.51-205.1,268.61-376.42,277.43C569,890.19,503.81,904.82,445.7,904.82h-6.76a436.53,436.53,0,0,1-70.55,5.95Z" fill="#ed1d24"/><path d="M366.37,898.27c-3.21,0-6.49,0-9.75-.12-3.26.08-6.54.12-9.75.12h-2.12a423,423,0,0,1-69.48-6c-64.95-.37-132.7-17.44-191.22-48.15A412.91,412.91,0,0,1-180.15,726.42c-55.62-54.63-95.87-126.71-113.43-203.1A421.94,421.94,0,0,1-320,434.24l-16.59-94.09c-19.13-108.52,5.14-218,68.32-308.23,4.53-6.47,9.71-13.38,15.05-20.08,2.05-6,4.24-11.92,6.53-17.71l3.83-9.68C-179.66-175.18-28-278.33,143.45-278.33a413,413,0,0,1,152.7,29.13l55.1,21.8c8.62,3.42,17.86,7.5,27,11.92,5.65-1.26,11.27-2.39,16.46-3.3l26.88-4.74c6.25-1.1,12.61-2.06,18.93-2.88,6.26-1.41,12.59-2.68,18.83-3.78l26.87-4.74a413.19,413.19,0,0,1,71.64-6.27c4,0,8.31.07,12.62.21a415,415,0,0,1,53.44-3.48,410.5,410.5,0,0,1,236.56,74.57l15.89,11.13C966.57-95.59,1026.82-1,1046,107.49l11.86,67.27c14,79.66,2.56,168.28-31.46,243.57-1.21,45-9.88,91.77-24.48,132L989.8,582.86C930.23,741.55,789.48,844.58,622.08,852.27c-55,25.47-119.13,40.05-176.37,40.05h-7.79a423.75,423.75,0,0,1-69.51,5.95Z" fill="#b1181e"/><path d="M366.37,885.77c-3.23,0-6.51,0-9.75-.12-3.24.08-6.52.12-9.75.12h-2.12a410.16,410.16,0,0,1-68.4-5.95c-64.28-.19-131.18-17.2-188.87-48A400.19,400.19,0,0,1-171.39,717.5c-54.22-53.26-93.34-123.54-110.25-198a409.14,409.14,0,0,1-26.05-87.4L-324.29,338c-18.55-105.23,5-211.38,66.25-298.89C-253.25,32.25-247.76,25-242.09,18c2.19-6.49,4.55-12.94,7-19.22l3.83-9.67c61.3-154.84,208.37-254.89,374.69-254.89a400.58,400.58,0,0,1,148.1,28.25l55.1,21.8c9.64,3.82,19.93,8.44,30,13.47,6.9-1.62,13.8-3,20.17-4.17l26.88-4.74c6.26-1.1,12.62-2.06,18.93-2.86,6.25-1.41,12.58-2.69,18.83-3.79l26.87-4.74a400.68,400.68,0,0,1,69.47-6.08c4.16,0,8.72.08,13.23.24A402.4,402.4,0,0,1,623.88-232a398.06,398.06,0,0,1,229.39,72.31l15.89,11.13c87.51,61.25,145.93,152.94,164.49,258.18l11.86,67.27c13.77,78.18,2.25,165-31.59,238.55-.92,44.49-9.34,90.76-23.79,130.6l-12,32.44C919.94,733.39,782.52,833.32,619,839.89c-53.94,25.4-117,39.93-173.34,39.93h-8.82a410.83,410.83,0,0,1-68.49,6Z" fill="#ed1d24"/><path d="M366.37,873.27c-3.23,0-6.51,0-9.75-.12-3.24.08-6.52.13-9.75.13h-2.12a397.36,397.36,0,0,1-67.31-5.95c-63.6,0-129.71-17-186.51-47.82A387.43,387.43,0,0,1-162.63,708.59c-52.82-51.88-90.82-120.37-107.06-193a396.3,396.3,0,0,1-25.69-85.72L-312,335.81A385,385,0,0,1-247.79,46.26c5-7.2,10.83-14.84,16.84-22.2,2.32-7,4.84-14,7.52-20.73l3.83-9.67c59.4-150,201.91-247,363.06-247A388.13,388.13,0,0,1,286.95-226l55.1,21.8c10.66,4.22,22,9.4,33.07,15.07,8.15-2,16.32-3.75,23.89-5.08l26.88-4.74c6.26-1.1,12.62-2.06,18.93-2.85,6.25-1.43,12.58-2.7,18.83-3.81l26.87-4.74a388.14,388.14,0,0,1,67.3-5.89c4.36,0,9.12.09,13.85.27a389.83,389.83,0,0,1,52.22-3.54A385.62,385.62,0,0,1,846.1-149.41L862-138.28c84.78,59.33,141.37,148.16,159.35,250.11l11.86,67.27c13.51,76.7,1.94,161.64-31.73,233.51-.61,44-8.78,89.76-23.09,129.19l-12,32.35C909.66,725.22,775.57,822.07,616,827.5c-52.87,25.33-114.78,39.83-170.31,39.83h-6.17l-3.67,0a397.91,397.91,0,0,1-67.46,6Z" fill="#b1181e"/><path d="M366.37,860.77c-3.21,0-6.49,0-9.75-.13-3.26.09-6.54.13-9.75.13h-2.12a384.54,384.54,0,0,1-66.22-5.95h-1.07c-62.59,0-127.47-16.92-183.07-47.68A374.67,374.67,0,0,1-153.87,699.67c-51.43-50.51-88.29-117.21-103.88-187.91a383.47,383.47,0,0,1-25.33-84l-16.59-94.09A372.59,372.59,0,0,1-237.55,53.43c5.3-7.57,11.41-15.57,17.75-23.25,2.44-7.52,5.12-15,8-22.25L-208-1.74C-150.49-147-12.54-240.83,143.45-240.83a375.69,375.69,0,0,1,138.89,26.5l55.1,21.81a370.86,370.86,0,0,1,36.11,16.74c9.39-2.44,18.84-4.51,27.61-6.06l26.88-4.74c6.25-1.1,12.62-2,18.93-2.83,6.25-1.44,12.58-2.72,18.82-3.82L492.69-198a375.61,375.61,0,0,1,65.13-5.7c4.56,0,9.53.1,14.46.3a377.29,377.29,0,0,1,51.6-3.57,373.18,373.18,0,0,1,215.05,67.79L854.82-128A372.41,372.41,0,0,1,1009,114l11.86,67.27c13.25,75.23,1.62,158.33-31.89,228.48-.28,43.48-8.2,88.75-22.37,127.8l-12,32.27c-55.28,147.24-186,241-341.68,245.27-51.79,25.28-112.58,39.74-167.26,39.74h-6.17c-1.54,0-3.11,0-4.7,0a385.1,385.1,0,0,1-66.44,6Z" fill="#ed1d24"/><path d="M366.37,848.27c-3.22,0-6.5,0-9.76-.13-3.25.09-6.53.13-9.75.13h-2.12a371.79,371.79,0,0,1-65.11-5.95h-2.19c-61.58,0-125.22-16.87-179.6-47.57a362,362,0,0,1-243-104c-50-49.14-85.76-114-100.68-182.85a370.64,370.64,0,0,1-25-82.35l-16.59-94.09a360.17,360.17,0,0,1,60-270.87c5.56-7.94,12-16.3,18.67-24.29,2.55-8,5.39-16,8.45-23.78l3.82-9.66c55.6-140.44,189-231.19,339.82-231.19a363.23,363.23,0,0,1,134.29,25.62l55.1,21.81A360.55,360.55,0,0,1,372-162.44c10.62-2.9,21.36-5.34,31.34-7.1l26.88-4.74c6.25-1.1,12.62-2,18.94-2.82,6.25-1.45,12.57-2.74,18.82-3.84l26.88-4.74a363.07,363.07,0,0,1,63-5.51c4.76,0,9.94.12,15.07.34a364.72,364.72,0,0,1,51-3.61,360.75,360.75,0,0,1,207.89,65.53l15.88,11.12a360,360,0,0,1,149.07,234l11.86,67.27c13,73.76,1.3,155-32.08,223.43.06,43-7.59,87.74-21.63,126.41l-11.94,32.19c-53.84,143.41-181.27,234.06-333,237.19-50.7,25.23-110.38,39.67-164.21,39.67h-6.17c-1.87,0-3.79,0-5.72,0a372.27,372.27,0,0,1-65.41,6Z" fill="#b1181e"/><path d="M366.37,835.77c-3.21,0-6.49,0-9.76-.14-3.26.09-6.54.14-9.75.14h-2.12a359,359,0,0,1-64-5.95h-3.32c-60.58,0-123-16.84-176.12-47.48A349.27,349.27,0,0,1-136.36,681.83,355.64,355.64,0,0,1-233.84,504a357.8,357.8,0,0,1-24.61-80.66L-275,329.29a347.75,347.75,0,0,1,58-261.53c5.82-8.32,12.57-17,19.61-25.33,2.65-8.57,5.64-17.07,8.9-25.31l3.82-9.66C-131-128.18-2.22-215.83,143.45-215.83a350.78,350.78,0,0,1,129.69,24.74l55.11,21.81A349.87,349.87,0,0,1,370.44-149a343.56,343.56,0,0,1,35.08-8.22L432.4-162c6.25-1.1,12.61-2,18.94-2.8,6.25-1.46,12.58-2.75,18.82-3.85L497-173.37a350.53,350.53,0,0,1,60.79-5.32c4.95,0,10.35.13,15.69.38A352.15,352.15,0,0,1,623.88-182a348.31,348.31,0,0,1,200.72,63.27l15.88,11.12A347.59,347.59,0,0,1,984.4,118.34l11.86,67.27C1009,257.91,997.23,337.31,964,404c.41,42.46-7,86.74-20.86,125l-11.91,32.1C878.8,700.71,754.7,788.25,606.85,790.2c-49.61,25.2-108.16,39.62-161.14,39.62h-6.17c-2.05,0-4.16,0-6.29-.06h-.56a359.48,359.48,0,0,1-64.29,6Z" fill="#ed1d24"/><path d="M366.37,823.27c-3.21,0-6.49,0-9.76-.14-3.26.09-6.54.14-9.75.14h-2.12a346.25,346.25,0,0,1-62.83-5.95h-4.47c-59.57,0-120.75-16.82-172.64-47.42a336.61,336.61,0,0,1-232.4-97,342.8,342.8,0,0,1-94.28-172.74,345,345,0,0,1-24.26-79l-16.59-94.09a335.33,335.33,0,0,1,55.9-252.19c6.09-8.69,13.16-17.76,20.56-26.36,2.74-9.1,5.87-18.12,9.33-26.85l3.82-9.66c51.8-130.85,176.06-215.39,316.57-215.39a338.34,338.34,0,0,1,125.09,23.86l55.11,21.81a339,339,0,0,1,45.22,22.15,333.57,333.57,0,0,1,38.82-9.41l26.88-4.74c6.24-1.1,12.61-2,18.94-2.78,6.25-1.47,12.57-2.77,18.81-3.87l26.88-4.74a338,338,0,0,1,58.61-5.13c5.14,0,10.75.14,16.3.42a339.6,339.6,0,0,1,49.76-3.69,335.86,335.86,0,0,1,193.55,61l15.88,11.12A335.17,335.17,0,0,1,972.09,120.51L984,187.78c12.48,70.84.62,148.39-32.51,213.32.79,42-6.31,85.73-20.07,123.65l-11.88,32C868.55,692.46,747.7,777,603.77,777.73c-48.5,25.19-105.92,39.59-158.06,39.59h-6.17c-2,0-4.15,0-6.27-.06l-1.83,0a346.63,346.63,0,0,1-63,6Z" fill="#b1181e"/><path d="M366.37,810.77c-3.2,0-6.48,0-9.76-.15-3.27.1-6.55.15-9.75.15h-2.12a333.48,333.48,0,0,1-61.66-5.95h-5.64c-58.41,0-118.26-16.74-168.81-47.19l-1.08-.2A324.12,324.12,0,0,1-118.84,664a330,330,0,0,1-91.08-167.68A332.14,332.14,0,0,1-233.83,419L-250.42,325A322.91,322.91,0,0,1-196.59,82.11a329.1,329.1,0,0,1,21.54-27.38c2.81-9.63,6.08-19.17,9.74-28.4l3.82-9.66c49.9-126,169.6-207.49,304.95-207.49a325.89,325.89,0,0,1,120.49,23L319.05-146a327.91,327.91,0,0,1,48.24,24.12,323.25,323.25,0,0,1,42.58-10.7l26.88-4.74c6.24-1.1,12.61-2,18.95-2.76,6.25-1.49,12.57-2.8,18.81-3.89l26.88-4.74a325.49,325.49,0,0,1,56.44-4.94c5.34,0,11.16.16,16.92.47A327,327,0,0,1,623.88-157,323.42,323.42,0,0,1,810.26-98.21l15.88,11.12A322.76,322.76,0,0,1,959.78,122.68L971.64,190c12.22,69.39.27,145.08-32.78,208.25,1.18,41.44-5.62,84.73-19.25,122.28l-11.85,31.93c-49.29,131.29-166.53,212.82-306,212.82h-1.1c-47.37,25.18-103.66,39.59-155,39.59h-6.17c-2,0-4.16,0-6.28-.06l-3.08,0a333.73,333.73,0,0,1-61.78,6Z" fill="#ed1d24"/><path d="M366.37,798.27c-3.2,0-6.48-.05-9.76-.15-3.27.1-6.55.15-9.75.15h-2.12a320.68,320.68,0,0,1-60.49-6h-6.81c-57,0-115.23-16.52-164.29-46.56-1.47-.27-2.93-.54-4.38-.82a311.64,311.64,0,0,1-218.85-89.86,317.15,317.15,0,0,1-87.86-162.62,319.29,319.29,0,0,1-23.58-75.59l-16.59-94.09A310.49,310.49,0,0,1-186.35,89.27a317.07,317.07,0,0,1,22.53-28.39,314,314,0,0,1,10.12-30l3.82-9.66c48-121.25,163.13-199.59,293.33-199.59a313.45,313.45,0,0,1,115.88,22.11l55.11,21.81a316.51,316.51,0,0,1,51.24,26.21A312.48,312.48,0,0,1,412-120.3L438.91-125c6.23-1.09,12.6-2,19-2.74,6.25-1.5,12.57-2.82,18.8-3.92l26.88-4.74a313,313,0,0,1,54.27-4.75c5.54,0,11.57.18,17.53.52a314.39,314.39,0,0,1,48.53-3.79A311,311,0,0,1,803.09-88L819-76.85a310.35,310.35,0,0,1,128.51,201.7l11.86,67.27c12,67.95-.09,141.77-33.07,203.17,1.61,40.93-4.89,83.73-18.39,120.93l-11.82,31.85C848.65,674.33,735.9,752.74,601.78,752.74h-4.24c-46.23,25.19-101.36,39.59-151.83,39.59h-6.17c-2,0-4.16,0-6.28-.06l-4.29.06h0a320.91,320.91,0,0,1-60.52,5.95Z" fill="#b1181e"/><path d="M366.37,785.77c-3.19,0-6.47-.05-9.75-.16-3.28.11-6.56.16-9.75.16h-2.12a307.83,307.83,0,0,1-59.32-6l-3.07,0h-4.91c-55.57,0-112.2-16.3-159.75-46-2.58-.45-5.16-.93-7.69-1.43h-.46a299.22,299.22,0,0,1-210.85-86.28A304.34,304.34,0,0,1-186,488.59a306.46,306.46,0,0,1-23.25-73.9l-16.59-94.09A298.08,298.08,0,0,1-176.11,96.44,305,305,0,0,1-152.56,67a301.44,301.44,0,0,1,10.49-31.54l3.82-9.65c46.1-116.45,156.67-191.69,281.7-191.69A301,301,0,0,1,254.74-144.6l55.12,21.81a305.1,305.1,0,0,1,54.23,28.41A301.65,301.65,0,0,1,414.2-108l26.88-4.74c6.24-1.1,12.61-2,19-2.71,6.23-1.51,12.55-2.84,18.79-3.94l26.88-4.74a300.47,300.47,0,0,1,52.1-4.56c5.74,0,12,.2,18.15.58A301.81,301.81,0,0,1,623.88-132a298.54,298.54,0,0,1,172,54.24l15.88,11.12A297.93,297.93,0,0,1,935.16,127L947,194.3c11.71,66.51-.46,138.47-33.41,198.08,2.06,40.41-4.12,82.73-17.5,119.58l-11.79,31.76C838.82,665,730.55,740.24,601.78,740.24h-2.52c-1.61,0-3.24,0-4.88,0-45.07,25.21-99,39.63-148.67,39.63h-6.17c-2.06,0-4.17,0-6.28-.07-1.55,0-3.13.05-4.71.06l-1.22.07a308,308,0,0,1-58.93,5.88Z" fill="#ed1d24"/><path d="M366.37,773.27c-3.18,0-6.46-.06-9.75-.17-3.29.11-6.57.17-9.75.17h-2.12a295.08,295.08,0,0,1-58.15-6c-1.41,0-2.83,0-4.24,0h-4.91A292.65,292.65,0,0,1,122.23,722c-3.71-.61-7.4-1.29-11-2h-1.71a286.78,286.78,0,0,1-202.08-82.7A291.49,291.49,0,0,1-174,484.73a293.6,293.6,0,0,1-22.93-72.2l-16.59-94.09a285.66,285.66,0,0,1,47.62-214.83,292.75,292.75,0,0,1,24.47-30.24l.42-1.22a288.84,288.84,0,0,1,10.54-32l3.82-9.65C-82.43-81.19,23.58-153.33,143.45-153.33A288.56,288.56,0,0,1,250.13-133l55.12,21.81a293.51,293.51,0,0,1,57.21,30.75,290.56,290.56,0,0,1,53.92-15.27l26.88-4.74c6.25-1.1,12.63-2,19-2.69,6.22-1.53,12.54-2.86,18.79-4l26.88-4.74a288,288,0,0,1,49.93-4.37c5.95,0,12.4.22,18.77.64a289.23,289.23,0,0,1,47.29-3.92,286.1,286.1,0,0,1,164.87,52l15.87,11.12A285.52,285.52,0,0,1,922.85,129.2l11.86,67.27c11.46,65.08-.85,135.17-33.78,193,2.54,39.9-3.31,81.73-16.56,118.25l-11.76,31.68C829,655.58,725.21,727.74,601.78,727.74h-2.52c-2.65,0-5.34,0-8-.11-43.89,25.26-96.7,39.7-145.5,39.7h-6.17c-2.06,0-4.17,0-6.28-.07-1.69,0-3.41.06-5.13.07l-2.39.14a295.29,295.29,0,0,1-57.34,5.8Z" fill="#b1181e"/><path d="M366.37,760.77c-3.18,0-6.46-.06-9.75-.17-3.29.12-6.57.17-9.75.17h-2.12a282.3,282.3,0,0,1-56.85-6h-.83c-1.56,0-3.14,0-4.71,0h-4.91A279.63,279.63,0,0,1,126.8,710c-4.82-.75-9.61-1.62-14.3-2.6h-3A274.35,274.35,0,0,1-83.8,628.33,278.67,278.67,0,0,1-162,480.86a280.74,280.74,0,0,1-22.61-70.5l-16.59-94.09a273.24,273.24,0,0,1,45.55-205.49,280.5,280.5,0,0,1,25.22-30.87c.45-1.38.92-2.75,1.39-4.11a276.36,276.36,0,0,1,10.2-31.1l3.82-9.65C-72.71-71.79,28.74-140.83,143.45-140.83a276.11,276.11,0,0,1,102.08,19.47l55.12,21.81a281.79,281.79,0,0,1,60.16,33.26,279.31,279.31,0,0,1,57.73-17.09l26.88-4.74c6.25-1.1,12.63-2,19-2.66,6.22-1.55,12.54-2.89,18.78-4l26.88-4.74a275.38,275.38,0,0,1,47.76-4.18c6.15,0,12.82.25,19.39.72a276.68,276.68,0,0,1,46.67-4,273.66,273.66,0,0,1,157.7,49.72l15.87,11.12a273.11,273.11,0,0,1,113.09,177.5l11.86,67.27c11.21,63.67-1.26,131.88-34.21,187.85,3.06,39.38-2.43,80.74-15.57,116.93L860.9,535c-41.74,111.18-141,180.21-259.12,180.21h-2.52c-3.71,0-7.47-.08-11.23-.23-42.69,25.34-94.32,39.82-142.32,39.82h-6.17c-2.06,0-4.17,0-6.28-.07-1.83,0-3.69.07-5.56.07l-3.55.21a282.47,282.47,0,0,1-55.74,5.74Z" fill="#ed1d24"/><path d="M366.37,748.27c-3.19,0-6.47-.06-9.75-.18-3.28.12-6.56.18-9.75.18h-2.12a269.41,269.41,0,0,1-55.47-6l-2.22,0c-1.56,0-3.13,0-4.7,0h-4.91a266.62,266.62,0,0,1-146.07-44.24c-5.89-.86-11.89-1.94-17.58-3.15h-4.28A261.92,261.92,0,0,1-75,619.41,265.84,265.84,0,0,1-150,477a267.86,267.86,0,0,1-22.31-68.81l-16.59-94.09A260.82,260.82,0,0,1-145.39,118a267.93,267.93,0,0,1,26-31.48c.75-2.36,1.53-4.71,2.34-7A263.88,263.88,0,0,1-107.2,49.3l3.82-9.64c40.4-102,137.29-168,246.83-168a263.66,263.66,0,0,1,97.48,18.59l55.12,21.81a270.11,270.11,0,0,1,63.1,36,267.85,267.85,0,0,1,61.56-19.1l26.88-4.74c6.25-1.1,12.62-2,19-2.63,6.21-1.57,12.52-2.92,18.78-4l26.88-4.74a262.94,262.94,0,0,1,45.59-4c6.36,0,13.24.28,20,.8l.46-.08a264,264,0,0,1,45.59-4A261.22,261.22,0,0,1,774.41-47l15.87,11.11A260.69,260.69,0,0,1,898.23,133.54l11.86,67.27c11,62.26-1.68,128.59-34.7,182.72,3.62,38.85-1.5,79.74-14.52,115.63l-11.69,31.51c-39.85,106.15-134.65,172.06-247.4,172.06h-2.52c-4.76,0-9.6-.13-14.43-.4-41.46,25.45-91.92,40-139.12,40h-6.17c-2.07,0-4.18,0-6.28-.08s-4,.07-6,.08c-1.55.1-3.13.2-4.72.28a269.65,269.65,0,0,1-54.15,5.67Z" fill="#b1181e"/><path d="M366.37,735.77c-3.2,0-6.48-.06-9.75-.19-3.27.13-6.55.19-9.75.19h-2.12a256.53,256.53,0,0,1-54.09-5.95l-3.6,0c-1.56,0-3.13,0-4.7,0h-4.91A253.6,253.6,0,0,1,136,686.11c-7-.95-14.09-2.2-20.84-3.67h-5.61a249.48,249.48,0,0,1-175.8-71.95A253,253,0,0,1-138,473.12,255,255,0,0,1-160,406l-16.59-94.09a248.4,248.4,0,0,1,41.41-186.81A255.33,255.33,0,0,1-108.35,93c1-3.35,2.11-6.69,3.26-10A251.19,251.19,0,0,1-95.57,53.9l3.82-9.64C-53.26-53,39.07-115.83,143.45-115.83a251.21,251.21,0,0,1,92.88,17.72L291.45-76.3a261.39,261.39,0,0,1,66,38.88,259.3,259.3,0,0,1,65.42-21.34l26.88-4.74c6.25-1.1,12.62-2,19-2.59,6.21-1.59,12.52-3,18.77-4.06l26.88-4.74a250.38,250.38,0,0,1,43.42-3.8c6.56,0,13.65.31,20.61.89l2-.36A251.47,251.47,0,0,1,623.88-82a248.78,248.78,0,0,1,143.37,45.2l15.87,11.11A248.28,248.28,0,0,1,885.92,135.71L897.78,203c10.72,60.88-2.12,125.32-35.25,177.57,4.23,38.32-.48,78.74-13.41,114.34l-11.66,31.43c-38,101.12-128.27,163.91-235.68,163.91h-2.52c-5.84,0-11.76-.21-17.65-.62-40.21,25.59-89.48,40.21-135.89,40.21h-6.17c-2.06,0-4.17,0-6.28-.08s-4.22.08-6.29.08h-.12c-1.93.13-3.91.25-5.9.34a256.85,256.85,0,0,1-52.54,5.61Z" fill="#ed1d24"/><path d="M366.37,723.27c-3.2,0-6.48-.07-9.75-.2-3.27.13-6.55.2-9.75.2h-2.12A243.73,243.73,0,0,1,292,717.32h-.3c-1.55,0-3.11,0-4.68,0s-3.13,0-4.71,0h-4.91A240.57,240.57,0,0,1,140.57,674.1c-8.06-1-16.31-2.42-24.1-4.17h-7a237.05,237.05,0,0,1-167-68.37,240.15,240.15,0,0,1-68.41-132.33,242.09,242.09,0,0,1-21.73-65.4l-16.59-94.09a236,236,0,0,1,39.34-177.47A242.71,242.71,0,0,1-97.27,99.63c1.27-4.35,2.66-8.67,4.15-12.9A238.72,238.72,0,0,1-84,58.5l3.81-9.64c36.6-92.45,124.36-152.19,223.59-152.19a238.77,238.77,0,0,1,88.27,16.84l55.13,21.82c24,9.52,48.3,24.36,68.89,42.09a246.72,246.72,0,0,1,69.31-23.86l26.88-4.74c6.25-1.1,12.63-2,19-2.56,6.21-1.62,12.51-3,18.76-4.1l26.88-4.74a237.93,237.93,0,0,1,41.25-3.61c6.74,0,14,.34,21.16,1l3.65-.64a238.92,238.92,0,0,1,41.25-3.61,236.34,236.34,0,0,1,136.2,42.94l15.87,11.11a235.86,235.86,0,0,1,97.67,153.29l11.86,67.27a239.51,239.51,0,0,1-35.89,172.4,244.35,244.35,0,0,1-12.21,113.08L825.74,522c-36.08,96.09-121.89,155.76-224,155.76h-2.52c-6.92,0-13.93-.31-20.9-.92-38.93,25.79-87,40.5-132.65,40.5h-6.17c-2,0-4.15,0-6.28-.08s-4.24.08-6.29.08h-.55c-2.33.16-4.7.3-7.08.4a244,244,0,0,1-50.94,5.55Z" fill="#b1181e"/><path d="M366.37,710.77c-3.21,0-6.49-.07-9.75-.21-3.27.14-6.54.21-9.75.21h-2.12a230.91,230.91,0,0,1-51.3-5.95h-1.71c-1.55,0-3.12,0-4.68,0s-3.13,0-4.7,0h-4.91A227.57,227.57,0,0,1,145.2,662.06a239.11,239.11,0,0,1-27.39-4.64l-2.85,0h-5.45A224.63,224.63,0,0,1-48.77,592.65a227.31,227.31,0,0,1-65.12-127.29,229.21,229.21,0,0,1-21.47-63.69l-16.59-94.09a223.56,223.56,0,0,1,37.27-168.13,230,230,0,0,1,28.53-33.22c1.48-5.36,3.15-10.68,5-15.86a226.17,226.17,0,0,1,8.82-27.29l3.81-9.64c34.7-87.65,117.9-144.29,212-144.29a226.32,226.32,0,0,1,83.67,16l55.13,21.82a235.21,235.21,0,0,1,69.6,43.7c2-.1,4-.17,6-.22a233.66,233.66,0,0,1,69.34-24.56l26.88-4.74c6.26-1.1,12.65-1.94,19-2.51,6.2-1.65,12.5-3,18.75-4.14l26.88-4.74a225.44,225.44,0,0,1,39.08-3.42c6.92,0,14.37.37,21.68,1.08l5.31-.94A226.38,226.38,0,0,1,623.88-57a223.9,223.9,0,0,1,129,40.68L768.78-5.17A223.45,223.45,0,0,1,861.3,140.05l11.86,67.27a226.51,226.51,0,0,1-36.63,167.21,230.84,230.84,0,0,1-10.91,111.83L814,517.63c-34.19,91.07-115.51,147.61-212.24,147.61h-2.52a228,228,0,0,1-24.18-1.3c-37.59,26-84.54,40.88-129.37,40.88h-6.17c-2,0-4.15,0-6.28-.09s-4.24.09-6.29.09h-1c-2.72.2-5.48.35-8.25.46a231.17,231.17,0,0,1-49.33,5.49Z" fill="#ed1d24"/><path d="M366.37,698.27c-3.22,0-6.49-.08-9.76-.22-3.26.15-6.54.22-9.75.22h-2.12a218,218,0,0,1-49.85-5.95h-3.16c-1.55,0-3.11,0-4.68-.05s-3.13.05-4.7.05h-4.91A214.56,214.56,0,0,1,149.85,650a224.32,224.32,0,0,1-30.69-5.07c-1.42,0-2.83,0-4.2,0h-5.45A212.2,212.2,0,0,1-40,583.74a214.47,214.47,0,0,1-61.82-122.26,216.34,216.34,0,0,1-21.22-62l-16.59-94.09a211.14,211.14,0,0,1,35.2-158.79A217.3,217.3,0,0,1-75,112.88c1.65-6.38,3.6-12.7,5.81-18.86A213.74,213.74,0,0,1-60.7,67.69l3.81-9.63C-24.09-24.8,54.55-78.33,143.45-78.33a213.86,213.86,0,0,1,79.07,15.08l55.13,21.82A221.78,221.78,0,0,1,347.28,3.45c4.42-.33,8.85-.51,13.22-.56l1.06-.21a220.58,220.58,0,0,1,67.83-24.5l26.88-4.74c6.26-1.1,12.65-1.93,19-2.47,6.19-1.68,12.49-3.08,18.74-4.19L520.91-38a213,213,0,0,1,36.91-3.23A215.63,215.63,0,0,1,580-40l7-1.24a213.78,213.78,0,0,1,36.91-3.23A211.46,211.46,0,0,1,745.74-6L761.61,5.07A211,211,0,0,1,849,142.22l11.86,67.27a213.87,213.87,0,0,1-36.08,160l-1.4,2a217.33,217.33,0,0,1-9.5,110.6L802.3,513.28c-32.3,86-109.13,139.46-200.53,139.46h-2.52a215.33,215.33,0,0,1-24.31-1.39c-1.44.16-2.89.31-4.33.45-36,25.79-81.33,40.52-124.91,40.52h-6.17c-2.05,0-4.17,0-6.28-.09s-4.22.09-6.28.09h-1.44c-3.1.23-6.26.4-9.4.5a218.33,218.33,0,0,1-47.72,5.44Z" fill="#b1181e"/><path d="M366.37,685.77c-3.21,0-6.49-.08-9.75-.24-3.26.16-6.54.24-9.75.24h-2.12a205.12,205.12,0,0,1-48.36-5.95h-4.66c-1.54,0-3.11,0-4.67-.05s-3.13.05-4.7.05h-4.91a201.57,201.57,0,0,1-122.92-42,209.62,209.62,0,0,1-34-5.46c-1.87.05-3.73.08-5.55.08h-5.45A201.14,201.14,0,0,1-89.74,457.58a203.45,203.45,0,0,1-21-60.25l-16.59-94.09A198.71,198.71,0,0,1-94.2,153.8a204.42,204.42,0,0,1,30.43-34.24A204,204,0,0,1-57.2,97.67a201.16,201.16,0,0,1,8.13-25.38l3.81-9.63c30.9-78.05,105-128.48,188.72-128.48a201.42,201.42,0,0,1,74.47,14.2l55.13,21.82A208.2,208.2,0,0,1,342.65,16.4c6.4-.65,12.81-1,19.15-1,1.37-.28,2.75-.55,4.13-.8a207.42,207.42,0,0,1,65.65-24.1l26.88-4.74c6.27-1.1,12.66-1.91,19-2.42,6.18-1.71,12.47-3.13,18.73-4.24l26.88-4.74a200.39,200.39,0,0,1,34.73-3,203.43,203.43,0,0,1,22.56,1.31l8.77-1.55a201.23,201.23,0,0,1,34.73-3A199,199,0,0,1,738.57,4.2l15.87,11.11a198.61,198.61,0,0,1,82.24,129.09l11.86,67.27a201.3,201.3,0,0,1-34,150.63l-4.49,6.31a203.81,203.81,0,0,1-8,109.23l-11.54,31.09c-30.42,81-102.76,131.31-188.81,131.31h-2.52a202.64,202.64,0,0,1-24.3-1.47c-2.94.35-5.92.65-8.88.88C531.65,665.22,488,679.82,445.7,679.82h-6.17c-2.06,0-4.18,0-6.29-.1s-4.21.1-6.28.1h-1.91c-3.49.27-7,.45-10.55.55a205.52,205.52,0,0,1-46.11,5.4Z" fill="#ed1d24"/><path d="M366.37,673.27c-3.22,0-6.5-.08-9.75-.25-3.26.17-6.54.25-9.75.25h-2.12a192.31,192.31,0,0,1-46.59-5.89l-.77-.06h-5.66c-1.54,0-3.11,0-4.67-.06s-3.13.06-4.7.06h-4.91a189,189,0,0,1-118.22-41.72,195.12,195.12,0,0,1-37.35-5.79c-2.31.08-4.63.13-6.9.13h-5.45A188.64,188.64,0,0,1-77.63,453.68a190.54,190.54,0,0,1-20.79-58.52L-115,301.07A186.3,186.3,0,0,1-84,161a191.48,191.48,0,0,1,31.47-34.69,191.24,191.24,0,0,1,7.25-25,188.54,188.54,0,0,1,7.78-24.43l3.81-9.63C-4.64-6,64.87-53.33,143.45-53.33A189,189,0,0,1,213.32-40l55.14,21.82a194.56,194.56,0,0,1,69.49,47.72,188.7,188.7,0,0,1,24.89-1.67h.26c2.06-.43,4.12-.83,6.15-1.19l1.05-.19a194.24,194.24,0,0,1,63.45-23.7l26.87-4.74a190.48,190.48,0,0,1,19-2.36,189.29,189.29,0,0,1,18.72-4.3l26.88-4.74a187.78,187.78,0,0,1,32.56-2.85,191.16,191.16,0,0,1,22.92,1.44l10.58-1.87a188.6,188.6,0,0,1,32.56-2.85A186.59,186.59,0,0,1,731.4,14.44l15.87,11.11a186.2,186.2,0,0,1,77.1,121l11.86,67.27A188.71,188.71,0,0,1,804.39,355l-7.7,10.83a190.33,190.33,0,0,1-6.32,107.7l-11.51,31c-28.53,76-96.38,123.16-177.09,123.16h-2.52a189.86,189.86,0,0,1-24.3-1.57c-4.46.57-9,1-13.46,1.25-32.78,25.4-74.74,39.9-115.79,39.9h-6.17c-2.06,0-4.18,0-6.29-.1s-4.21.1-6.28.1h-2.39c-3.87.3-7.79.5-11.68.58a192.64,192.64,0,0,1-44.5,5.36Z" fill="#b1181e"/><path d="M366.37,660.77c-3.22,0-6.5-.09-9.75-.27-3.25.18-6.53.27-9.75.27h-2.12A179.49,179.49,0,0,1,300.18,655l-2.31-.18h-6.15c-1.54,0-3.11,0-4.67-.06s-3.12.06-4.7.06h-4.91a176.45,176.45,0,0,1-110.4-39q-1.55-1.25-3.09-2.55a180.66,180.66,0,0,1-40.28-5.94l-1.77-.06c-2.33.09-4.66.14-6.94.14h-5.45a176.13,176.13,0,0,1-175-157.67A177.61,177.61,0,0,1-86.11,393L-102.7,298.9a173.88,173.88,0,0,1,29-130.77A178.44,178.44,0,0,1-41.12,133,178.45,178.45,0,0,1-33.25,105a176,176,0,0,1,7.42-23.49L-22,71.85C5.08,3.4,70-40.83,143.45-40.83a176.52,176.52,0,0,1,65.26,12.45L263.85-6.56a180.88,180.88,0,0,1,69.29,49.47,176.76,176.76,0,0,1,29.69-2.54h1.56c2.35-.51,4.7-1,7-1.39l3.33-.59a181.07,181.07,0,0,1,61.18-23.3l26.88-4.74a177.74,177.74,0,0,1,19-2.29,176.48,176.48,0,0,1,18.71-4.37L527.42-1a175.32,175.32,0,0,1,30.39-2.66A178.55,178.55,0,0,1,581-2.11l12.45-2.2A175.94,175.94,0,0,1,623.88-7,174.15,174.15,0,0,1,724.23,24.68L740.1,35.79a173.79,173.79,0,0,1,72,112.95L823.92,216a176.13,176.13,0,0,1-29.72,131.8l-11,15.53a176.86,176.86,0,0,1-4.54,106l-11.48,30.92c-26.64,71-90,115-165.37,115h-2.52a177.21,177.21,0,0,1-24.3-1.68,178.89,178.89,0,0,1-18.07,1.57c-31.11,25.28-71.36,39.7-111.18,39.7h-6.17c-2.05,0-4.17,0-6.29-.11s-4.22.11-6.28.11h-2.88c-4.25.34-8.55.55-12.81.61a179.82,179.82,0,0,1-42.87,5.33Z" fill="#ed1d24"/><path d="M366.37,648.27c-3.23,0-6.5-.1-9.75-.29-3.25.19-6.52.29-9.75.29h-2.12a166.65,166.65,0,0,1-42.53-5.67c-1.28-.08-2.58-.18-3.87-.29h-6.62c-1.54,0-3.11,0-4.67-.07s-3.12.07-4.7.07h-4.91a163.91,163.91,0,0,1-102.55-36.2c-2.08-1.68-4.15-3.43-6.17-5.24a166.7,166.7,0,0,1-43.23-6c-1.19,0-2.39-.06-3.58-.11-2.32.1-4.65.15-6.94.15h-5.45A163.63,163.63,0,0,1-53.31,445.85a164.69,164.69,0,0,1-20.5-55l-16.59-94.09A161.46,161.46,0,0,1-63.48,175.3a165.29,165.29,0,0,1,33.83-35.42,165.75,165.75,0,0,1,8.37-31.27A163.35,163.35,0,0,1-14.2,86.08l3.81-9.62C14.8,12.8,75.19-28.33,143.45-28.33a164.06,164.06,0,0,1,60.66,11.57L259.26,5.06a167.18,167.18,0,0,1,68.89,51.42l6.46-1.14a164.15,164.15,0,0,1,28.22-2.47l2.85,0c2.63-.6,5.27-1.13,7.89-1.59l5.7-1a167.88,167.88,0,0,1,58.82-22.89L465,22.68A164.71,164.71,0,0,1,484,20.47,164,164,0,0,1,502.71,16l26.88-4.74a162.74,162.74,0,0,1,28.22-2.47,165.88,165.88,0,0,1,23.45,1.73L595.65,8a163.36,163.36,0,0,1,28.22-2.47,161.72,161.72,0,0,1,93.19,29.38L732.93,46a161.37,161.37,0,0,1,66.82,104.88l11.86,67.27A163.54,163.54,0,0,1,784,340.56l-11.14,15.67q-1.67,2.35-3.44,4.66A163.43,163.43,0,0,1,766.87,465l-11.44,30.84c-24.75,65.93-83.62,106.86-153.65,106.86h-2.52A164.58,164.58,0,0,1,575,600.93a166,166,0,0,1-22.74,1.8A165.36,165.36,0,0,1,445.7,642.32h-6.17c-2,0-4.16,0-6.29-.12-2.11.08-4.22.12-6.28.12h-3.4c-4.62.39-9.3.6-13.92.63a166.93,166.93,0,0,1-41.25,5.32Z" fill="#b1181e"/><path d="M366.37,635.77c-3.23,0-6.51-.11-9.75-.31-3.25.21-6.52.31-9.75.31h-2.12a153.81,153.81,0,0,1-40.5-5.57c-1.82-.1-3.64-.23-5.44-.39h-7.09c-1.53,0-3.1,0-4.68-.07s-3.13.07-4.69.07h-4.91a151.37,151.37,0,0,1-94.71-33.43c-3.14-2.53-6.21-5.22-9.16-8l-2.29,0h-2.12a153.76,153.76,0,0,1-41.86-6c-1.79,0-3.6-.07-5.4-.15-2.32.11-4.65.16-6.94.16h-5.45A151.12,151.12,0,0,1-41.08,441.9a151.73,151.73,0,0,1-20.42-53.26l-16.59-94.09A149,149,0,0,1-53.24,182.47a152.15,152.15,0,0,1,35.16-35.64l.51-3.29a153.15,153.15,0,0,1,8.29-31.27A150.75,150.75,0,0,1-2.58,90.67l3.81-9.62C24.52,22.2,80.35-15.83,143.45-15.83A151.62,151.62,0,0,1,199.51-5.14l55.14,21.82a153.51,153.51,0,0,1,68.11,53.44l14-2.47a151.59,151.59,0,0,1,26.05-2.28c1.38,0,2.77,0,4.15.06,2.9-.69,5.84-1.3,8.75-1.81l8.16-1.44a154.7,154.7,0,0,1,56.36-22.45L467.13,35a151.91,151.91,0,0,1,19.08-2.11,151.23,151.23,0,0,1,18.68-4.54l26.88-4.74a150.15,150.15,0,0,1,26.05-2.28,153.25,153.25,0,0,1,23.6,1.9l16.41-2.89A150.8,150.8,0,0,1,623.88,18a149.27,149.27,0,0,1,86,27.12l15.86,11.11a149,149,0,0,1,61.68,96.81l11.86,67.27a151,151,0,0,1-25.47,113L762.69,349c-2.29,3.23-4.73,6.38-7.28,9.42a150.05,150.05,0,0,1-.29,102.38l-11.41,30.75c-22.87,60.9-77.25,98.7-141.93,98.7h-2.52a151.87,151.87,0,0,1-24.29-2,153.33,153.33,0,0,1-24.41,2h-3.08A152,152,0,0,1,445.7,629.82h-6.17c-2.06,0-4.18,0-6.29-.13-2.09.08-4.2.13-6.27.13H423c-4.83.42-9.72.63-14.55.63H408a154.08,154.08,0,0,1-39.61,5.32Z" fill="#ed1d24"/><path d="M366.37,623.27c-3.24,0-6.52-.12-9.75-.34-3.24.23-6.51.34-9.75.34h-2.12a141,141,0,0,1-38.45-5.48c-2.34-.11-4.69-.28-7-.49l-2.56,0h-5c-1.54,0-3.12,0-4.68-.08s-3.13.08-4.69.08h-4.91a138.28,138.28,0,0,1-98.92-41.63c-2.41.13-4.84.19-7.24.19h-2.12a140.89,140.89,0,0,1-40-5.95h-.29c-2.3,0-4.63-.06-6.94-.17-2.31.12-4.64.17-6.94.17h-5.45a138.61,138.61,0,0,1-138.3-132,138.79,138.79,0,0,1-20.4-51.46l-16.59-94.09A136.62,136.62,0,0,1-43,189.64,139,139,0,0,1-6.54,154l1.32-8.59A140.59,140.59,0,0,1,2.7,115.91,138.18,138.18,0,0,1,9,95.27l3.8-9.61A140.22,140.22,0,0,1,194.91,6.48l55.15,21.82a139.91,139.91,0,0,1,66.86,55.55l1.82-.33L339,80a138.92,138.92,0,0,1,23.88-2.09c1.72,0,3.47,0,5.21.1l.49-.05c3.1-.77,6.25-1.44,9.38-2L388.64,74a141.51,141.51,0,0,1,53.78-22L469.3,47.3a139.2,139.2,0,0,1,19.09-2,138.81,138.81,0,0,1,18.66-4.65l26.88-4.74a137.67,137.67,0,0,1,23.88-2.09,140.48,140.48,0,0,1,23.67,2.08L600,32.63a138.22,138.22,0,0,1,23.88-2.09A136.84,136.84,0,0,1,702.73,55.4l15.86,11.1a136.54,136.54,0,0,1,56.54,88.74L787,222.52a138.38,138.38,0,0,1-23.35,103.56L752.5,341.74A139.5,139.5,0,0,1,741,355.86a136.81,136.81,0,0,1,2.37,100.66L732,487.18c-21,55.87-70.87,90.55-130.21,90.55h-2.52a139.25,139.25,0,0,1-24.15-2.12l-.36,0a140.61,140.61,0,0,1-24.18,2.1H548c-1.8,0-3.61,0-5.42-.11a138.65,138.65,0,0,1-96.91,39.69h-6.17c-2.08,0-4.19,0-6.3-.14-2.1.09-4.21.14-6.27.14h-4.44c-4.66.42-9.37.64-14,.64l-2.12,0a141.2,141.2,0,0,1-38,5.33Z" fill="#b1181e"/><path d="M366.37,610.77c-3.24,0-6.51-.13-9.76-.38-3.24.25-6.51.38-9.75.38h-2.12a128.1,128.1,0,0,1-36.4-5.4c-2.87-.1-5.75-.3-8.6-.58-1,0-2,0-3,0h-5c-1.54,0-3.11,0-4.68-.09s-3.14.09-4.69.09h-4.91a125.81,125.81,0,0,1-93.51-41.62q-1.45-.08-2.9-.19c-3.24.25-6.52.38-9.75.38h-2.12A128,128,0,0,1,131,557.44h-2.17c-2.3,0-4.63-.06-6.94-.19-2.31.13-4.64.19-6.94.19h-5.45A126.1,126.1,0,0,1-16.41,433.94a125.84,125.84,0,0,1-20.46-49.63l-16.59-94.09a124.2,124.2,0,0,1,20.71-93.41A125.72,125.72,0,0,1,5,161.53l2.19-14.18a128,128,0,0,1,7.56-27.78,125.59,125.59,0,0,1,6-19.7l3.8-9.61A127.72,127.72,0,0,1,190.31,18.11l55.15,21.83A126.62,126.62,0,0,1,310.72,98l.22,0c3.3-.86,6.65-1.6,10-2.19l20.21-3.56a126.29,126.29,0,0,1,21.71-1.9c1.87,0,3.76,0,5.65.13l2.23-.24c3.1-.79,6.25-1.48,9.37-2l10.78-1.9,2.6-.43a128.28,128.28,0,0,1,51.14-21.56l26.88-4.74a126.22,126.22,0,0,1,19.12-1.87A126,126,0,0,1,509.23,53l26.88-4.74a125.23,125.23,0,0,1,21.71-1.9,127.69,127.69,0,0,1,23.64,2.28l20.72-3.65a125,125,0,0,1,93.39,20.7l15.86,11.1a124.14,124.14,0,0,1,51.4,80.68l11.86,67.27a125.81,125.81,0,0,1-21.23,94.14l-11.14,15.66A126.06,126.06,0,0,1,726,353.21a125.14,125.14,0,0,1,5.6,99l-11.35,30.58c-19.09,50.84-64.49,82.4-118.49,82.4h-2.52a126.59,126.59,0,0,1-23.37-2.18l-2.52.13a128,128,0,0,1-22.8,2H548c-3.44,0-6.91-.15-10.38-.43a125.37,125.37,0,0,1-92,40h-6.17c-2.07,0-4.19-.05-6.3-.15-2.1.1-4.21.15-6.27.15H422c-4.49.43-9,.65-13.53.65-1.25,0-2.51,0-3.78-.05a128.31,128.31,0,0,1-36.32,5.37Z" fill="#ed1d24"/><path d="M366.37,598.27c-3.24,0-6.51-.14-9.76-.42-3.24.28-6.51.42-9.75.42h-2.12a115.22,115.22,0,0,1-34.34-5.35c-3.4-.08-6.82-.3-10.2-.65-1.17,0-2.34.05-3.49.05h-5c-1.55,0-3.12,0-4.68-.1s-3.15.1-4.69.1h-4.91a113.33,113.33,0,0,1-87.62-41.44c-2.92,0-5.87-.16-8.79-.41-3.24.28-6.52.42-9.75.42h-2.12A115.15,115.15,0,0,1,133,544.94h-4.15c-2.3,0-4.63-.07-6.94-.21-2.31.14-4.64.21-6.94.21h-5.45A113.57,113.57,0,0,1-3.93,431.49v-1.61a112.94,112.94,0,0,1-20.63-47.75L-41.15,288A111.78,111.78,0,0,1-22.52,204a112.57,112.57,0,0,1,38.9-34.59l3.11-20.14a115.4,115.4,0,0,1,7.21-26,112.92,112.92,0,0,1,5.59-18.76l3.8-9.61A115.22,115.22,0,0,1,185.7,29.73l55.15,21.83a114.31,114.31,0,0,1,62.49,59.81l.11.25c3.16-.54,6.41-1,9.66-1.23,3.29-.89,6.63-1.64,10-2.23l20.21-3.56a113.69,113.69,0,0,1,19.54-1.71c2,0,4.05.06,6.09.17,1.32-.17,2.65-.31,4-.43,3.09-.82,6.24-1.52,9.37-2.07L393,98.65c1.75-.31,3.51-.57,5.27-.8a115,115,0,0,1,48.46-21.19l26.88-4.74a113.33,113.33,0,0,1,19.14-1.71,113.38,113.38,0,0,1,18.61-4.95l26.88-4.74a112.72,112.72,0,0,1,19.54-1.71,114.85,114.85,0,0,1,23.48,2.5l23-4.06a112.52,112.52,0,0,1,84.05,18.63L704.25,87a111.73,111.73,0,0,1,46.26,72.61l11.86,67.27a113.23,113.23,0,0,1-19.1,84.73l-11.14,15.66a112.44,112.44,0,0,1-21.95,23.13A113.38,113.38,0,0,1,719.87,448l-11.32,30.5c-17.2,45.82-58.11,74.25-106.78,74.25h-2.52a114,114,0,0,1-22.59-2.26c-1.57.12-3.13.21-4.69.26a115.39,115.39,0,0,1-21.41,2H548a112.85,112.85,0,0,1-15.45-1.07,113.51,113.51,0,0,1-86.88,40.65h-6.17c-2.08,0-4.19-.06-6.3-.17-2.1.11-4.2.17-6.27.17h-3.11l-2.33,0a130.44,130.44,0,0,1-13,.66c-1.8,0-3.62,0-5.45-.12a115.41,115.41,0,0,1-34.64,5.43Z" fill="#b1181e"/><path d="M366.37,585.77c-3.25,0-6.52-.16-9.76-.47-3.24.31-6.51.47-9.75.47h-2.12a102.33,102.33,0,0,1-32.26-5.32,112.41,112.41,0,0,1-11.81-.71c-1.32.05-2.65.08-4,.08h-5c-1.53,0-3.11,0-4.68-.11s-3.15.11-4.69.11h-4.91a100.86,100.86,0,0,1-81.53-41.49q-1.55,0-3.09,0h-2c-3.24,0-6.52-.16-9.76-.47-3.24.31-6.51.47-9.75.47h-2.12a102.27,102.27,0,0,1-34.08-6h-6.24c-2.3,0-4.63-.08-6.94-.24-2.31.16-4.64.24-6.94.24h-5.45A101.06,101.06,0,0,1,8.57,431.49V425.6A100.09,100.09,0,0,1-12.25,380l-16.59-94.09a100.05,100.05,0,0,1,56.6-108.19l4.09-26.53a102.82,102.82,0,0,1,6.88-24.28,100.3,100.3,0,0,1,5.19-17.82l3.8-9.6A102.72,102.72,0,0,1,181.1,41.35l55.16,21.83a101.87,101.87,0,0,1,55.69,53.31c1.35,3,2.56,6.08,3.61,9.21l9.58-1.69a99.58,99.58,0,0,1,10.16-1.26,100.9,100.9,0,0,1,10-2.29l20.2-3.56a101,101,0,0,1,17.37-1.52c2.16,0,4.35.07,6.53.21,1.89-.26,3.8-.46,5.7-.61,3.09-.86,6.23-1.57,9.36-2.12L395.2,111c2.65-.46,5.33-.83,8-1.08A101.79,101.79,0,0,1,448.94,89l26.88-4.74a100.75,100.75,0,0,1,17.37-1.52l1.81,0a100.67,100.67,0,0,1,18.58-5.15l26.88-4.74a100.11,100.11,0,0,1,17.37-1.52A102,102,0,0,1,581,74.06l25.5-4.5a100,100,0,0,1,74.71,16.56l15.85,11.1a99.31,99.31,0,0,1,41.12,64.54L750.06,229a100.65,100.65,0,0,1-17,75.32L721.94,320a99.9,99.9,0,0,1-29.09,27.26q1.63,2.08,3.15,4.25a100.82,100.82,0,0,1,12.12,92.21l-11.29,30.41c-15.32,40.79-51.73,66.1-95.06,66.1h-2.52a101.34,101.34,0,0,1-21.8-2.37c-2.29.21-4.58.35-6.87.4a102.74,102.74,0,0,1-20,2H548a100.48,100.48,0,0,1-20.71-2.16,101,101,0,0,1-81.62,41.75h-6.17c-2.08,0-4.2-.06-6.3-.19-2.09.13-4.2.19-6.27.19h-3.11c-.94,0-1.88,0-2.82,0a117.8,117.8,0,0,1-12.54.67c-2.37,0-4.76-.07-7.15-.22a102.49,102.49,0,0,1-32.95,5.53Z" fill="#ed1d24"/><path d="M366.37,573.27a89.75,89.75,0,0,1-9.76-.53,89.68,89.68,0,0,1-9.75.53h-2.12a89.45,89.45,0,0,1-30.16-5.32h-1.32a99.69,99.69,0,0,1-12.13-.74c-1.48.07-3,.11-4.41.11h-5c-1.54,0-3.11,0-4.68-.12-1.57.08-3.14.12-4.69.12h-4.91a88.42,88.42,0,0,1-75.2-41.95,87.66,87.66,0,0,1-9.42.51h-2a89.78,89.78,0,0,1-9.76-.53,89.67,89.67,0,0,1-9.75.53h-2.12a89.37,89.37,0,0,1-32-6c-1,0-2,.05-3,.05h-5.36c-2.3,0-4.63-.09-6.94-.27-2.31.18-4.64.27-6.94.27h-5.45a88.55,88.55,0,0,1-88.45-88.45V421a88.31,88.31,0,0,1-21-43.21l-16.59-94.09A87.53,87.53,0,0,1,39,186.52l5.16-33.46a90.19,90.19,0,0,1,6.56-22.53,87.63,87.63,0,0,1,4.78-16.88l3.8-9.6A90.22,90.22,0,0,1,176.5,53L231.66,74.8a89.43,89.43,0,0,1,48.88,46.8,90.84,90.84,0,0,1,5.28,15.26q4.15.7,8.21,1.79l13.27-2.34a87.44,87.44,0,0,1,10.17-1.19,88.17,88.17,0,0,1,10-2.37l20.2-3.56a88.36,88.36,0,0,1,15.2-1.33c2.31,0,4.64.09,7,.28,2.47-.37,5-.64,7.44-.81a88.39,88.39,0,0,1,9.35-2.18l10.78-1.9a88.64,88.64,0,0,1,9.51-1.14l1.76-.5a88.65,88.65,0,0,1,42.46-20.35L478,96.54a88.1,88.1,0,0,1,15.2-1.33c1.34,0,2.68,0,4,.09a87.86,87.86,0,0,1,18.54-5.42l26.88-4.74a87.57,87.57,0,0,1,15.2-1.33,89.07,89.07,0,0,1,22.74,3l28.13-5a88,88,0,0,1,15.2-1.33,87.08,87.08,0,0,1,50.18,15.82l15.85,11.1a86.9,86.9,0,0,1,36,56.47l11.86,67.27a88.07,88.07,0,0,1-14.86,65.9l-11.13,15.66a87,87,0,0,1-39.43,30.8,88.14,88.14,0,0,1,24,95.9l-11.26,30.33c-13.43,35.76-45.36,58-83.34,58h-2.52A88.67,88.67,0,0,1,579,525.39l-1.19-.12c-2.85.31-5.72.49-8.59.53a90.12,90.12,0,0,1-18.64,1.95H548a88.91,88.91,0,0,1-26.26-4,88.21,88.21,0,0,1-76.06,43.6h-6.17c-2.09,0-4.2-.07-6.3-.22-2.09.14-4.19.22-6.26.22h-3.11c-1.09,0-2.2,0-3.31-.06a105.29,105.29,0,0,1-12,.69c-2.95,0-5.92-.13-8.88-.38a89.54,89.54,0,0,1-31.22,5.69Z" fill="#b1181e"/><path d="M366.37,560.77a77.18,77.18,0,0,1-9.76-.62,77.08,77.08,0,0,1-9.75.62h-2.12a76.55,76.55,0,0,1-28-5.38c-1.15,0-2.31.07-3.45.07a87,87,0,0,1-11.68-.79c-1.63.1-3.25.16-4.86.16h-5c-1.54,0-3.11,0-4.68-.14-1.56.1-3.14.14-4.69.14h-4.91a76,76,0,0,1-67.66-41.48q-2.05-.48-4.07-1.07a75.54,75.54,0,0,1-12.9,1.12h-2a77.21,77.21,0,0,1-9.76-.62,77.09,77.09,0,0,1-9.75.62h-2.12a76.53,76.53,0,0,1-29.83-6.12c-1.71.12-3.43.17-5.13.17h-5.36c-2.3,0-4.63-.11-6.94-.32-2.31.21-4.64.32-6.94.32h-5.45a76,76,0,0,1-75.95-75.95V416a75.12,75.12,0,0,1-21.2-40.39L-4.22,281.54a75,75,0,0,1,54.44-85.47L56.55,155a77.59,77.59,0,0,1,6.26-20.77,75,75,0,0,1,4.35-15.94l3.8-9.6A77.72,77.72,0,0,1,171.9,64.59l55.16,21.83a77,77,0,0,1,42.08,40.3,78.83,78.83,0,0,1,6.16,21.54,74.59,74.59,0,0,1,18.05,3.21l16.13-2.84a75.07,75.07,0,0,1,10.19-1.09,75.51,75.51,0,0,1,9.95-2.46l20.2-3.56a75.76,75.76,0,0,1,13-1.14c2.46,0,4.94.12,7.41.37a75.8,75.8,0,0,1,9.19-1,75.82,75.82,0,0,1,9.34-2.27l10.78-1.9a76,76,0,0,1,9.53-1.06c1.86-.58,3.75-1.09,5.65-1.52a75.51,75.51,0,0,1,38.56-19.41l26.88-4.74a75.44,75.44,0,0,1,13-1.14c2.08,0,4.18.09,6.26.26a75.07,75.07,0,0,1,18.47-5.78l26.88-4.74a75.08,75.08,0,0,1,13-1.14,76.11,76.11,0,0,1,22.07,3.33l31-5.46a75,75,0,0,1,56,12.42l15.85,11.1a74.49,74.49,0,0,1,30.84,48.4l11.86,67.27a75.49,75.49,0,0,1-12.74,56.49l-11.13,15.66a74.57,74.57,0,0,1-48.1,30.39l-13.77,2.43a75.51,75.51,0,0,1,44.93,96.86L673.4,465.44c-11.54,30.74-39,49.8-71.62,49.8h-2.52A76.11,76.11,0,0,1,581,513c-1.08-.09-2.16-.21-3.23-.34a77,77,0,0,1-9.75.62h-.23a77.46,77.46,0,0,1-17.25,1.94H548A76.18,76.18,0,0,1,515.64,508a75.46,75.46,0,0,1-69.94,46.85h-6.17c-2.09,0-4.21-.08-6.31-.25-2.08.17-4.18.25-6.26.25h-3.11c-1.26,0-2.53,0-3.8-.09a92.12,92.12,0,0,1-22.22.11,76.58,76.58,0,0,1-29.44,5.93Z" fill="#ed1d24"/><path d="M366.37,548.27a64.48,64.48,0,0,1-9.76-.74,64.35,64.35,0,0,1-9.75.74h-2.12a63.67,63.67,0,0,1-25.86-5.53c-1.87.14-3.76.21-5.62.21A74.38,74.38,0,0,1,302,542.1c-1.77.15-3.54.22-5.3.22h-5c-1.55,0-3.12-.06-4.68-.17-1.56.12-3.14.17-4.69.17h-4.91a63.53,63.53,0,0,1-59-40.08,63,63,0,0,1-12-2.86,63.17,63.17,0,0,1-13.63,1.5h-2a64.47,64.47,0,0,1-9.76-.74,64.37,64.37,0,0,1-9.75.74h-2.12a63.78,63.78,0,0,1-27.1-6.09l-1.29-.19a64,64,0,0,1-6.56.34h-5.36a63.79,63.79,0,0,1-6.94-.38,63.79,63.79,0,0,1-6.94.38h-5.45a63.52,63.52,0,0,1-63.45-63.45V414q-.42-2-.7-4.09a62,62,0,0,1-20.69-36.45L8.09,279.36A62.5,62.5,0,0,1,58.78,207l3-.54a65.14,65.14,0,0,1,.65-7.87l6.43-41.69a65,65,0,0,1,6-19,62.38,62.38,0,0,1,3.87-15l3.8-9.6a65.22,65.22,0,0,1,60.87-41.58,64.48,64.48,0,0,1,23.84,4.55L222.46,98a64.56,64.56,0,0,1,35.28,33.8,65.57,65.57,0,0,1,5.75,29.29,62.62,62.62,0,0,1,28.92,3.19l19.24-3.39a62.59,62.59,0,0,1,10.21-.95,62.86,62.86,0,0,1,9.93-2.6L352,153.82a62.43,62.43,0,0,1,18.66-.46l1.43-.25a63,63,0,0,1,9.55-.94,63.11,63.11,0,0,1,9.32-2.39l10.78-1.9a63.15,63.15,0,0,1,9.55-.94,62.83,62.83,0,0,1,9.32-2.39l.3-.05a62.41,62.41,0,0,1,34.57-18.61l26.88-4.74a62.72,62.72,0,0,1,19.38-.37,62.32,62.32,0,0,1,18.38-6.29L547,109.76a62.5,62.5,0,0,1,32,2.73l34.06-6a62.52,62.52,0,0,1,46.7,10.35l15.85,11.1a62.08,62.08,0,0,1,25.7,40.34l11.86,67.27a62.91,62.91,0,0,1-10.62,47.07l-11.13,15.65A62.14,62.14,0,0,1,651.3,323.6l-27.35,4.82q0,.94,0,1.88a62.79,62.79,0,0,1-2.82,16.34,63,63,0,0,1,51.79,84.28l-11.19,30.16c-9.65,25.71-32.6,41.65-59.9,41.65h-2.52a63.53,63.53,0,0,1-16.2-2.09c-1.76-.12-3.53-.32-5.27-.59a64.24,64.24,0,0,1-9.75.74h-1.71a64.78,64.78,0,0,1-15.77,1.94H548a63.43,63.43,0,0,1-30.69-7.93l-1.45-.07c-1.26.07-2.52.11-3.76.11h-5.28a63,63,0,0,1-61.14,47.47h-6.17c-2.1,0-4.22-.1-6.31-.3-2.08.2-4.17.3-6.26.3h-3.11c-1.41,0-2.84,0-4.26-.14A79.54,79.54,0,0,1,396,542a63.67,63.67,0,0,1-27.6,6.31Z" fill="#b1181e"/><path d="M366.37,535.77a51.66,51.66,0,0,1-9.76-.93,51.54,51.54,0,0,1-9.75.93h-2.12A50.86,50.86,0,0,1,321.14,530a62.45,62.45,0,0,1-7.88.5,61.59,61.59,0,0,1-10.82-1,51,51,0,0,1-5.72.32h-5c-1.55,0-3.12-.07-4.68-.21-1.56.14-3.13.21-4.69.21h-4.91a51,51,0,0,1-49.65-39.5h-.74a51.09,51.09,0,0,1-19.86-4,51.33,51.33,0,0,1-14.38,2.09h-2a51.65,51.65,0,0,1-9.76-.93,51.55,51.55,0,0,1-9.75.93h-2.12a51,51,0,0,1-23.45-5.73q-2.33-.26-4.63-.68a51.24,51.24,0,0,1-6.88.47h-5.36a51.28,51.28,0,0,1-6.94-.47,51.28,51.28,0,0,1-6.94.47h-5.45a51,51,0,0,1-50.95-50.95V412.65a50.4,50.4,0,0,1-1.25-9.26A49.65,49.65,0,0,1,37,371.28L20.4,277.19A50,50,0,0,1,61,219.27l14.13-2.49a52,52,0,0,1-.23-16.43l6.41-41.57a52.43,52.43,0,0,1,5.83-17.24,49.79,49.79,0,0,1,3.32-14.09l3.8-9.6a52.78,52.78,0,0,1,49.24-33.68,52,52,0,0,1,19.24,3.67l55.17,21.83c26.35,10.43,39.54,40.08,30.12,66.81l14.57-2.57a50.15,50.15,0,0,1,28.66,3.38q1.18-.27,2.37-.48l20.25-3.57a50,50,0,0,1,8.69-.76l1.56,0a50,50,0,0,1,9.89-2.82l20.19-3.56a50,50,0,0,1,16.7-.11l3.39-.6a50.33,50.33,0,0,1,8.69-.76h.89a50.28,50.28,0,0,1,9.29-2.57l10.78-1.9a50.38,50.38,0,0,1,8.69-.76h.89a50.1,50.1,0,0,1,9.29-2.57l4.64-.82a49.62,49.62,0,0,1,30.23-17.84l26.88-4.74a50.24,50.24,0,0,1,19.53.42,50.08,50.08,0,0,1,18.23-7.08l26.88-4.74a50,50,0,0,1,28.54,3.35l37.53-6.62a50,50,0,0,1,37.36,8.28l15.85,11.1A49.66,49.66,0,0,1,689,170.45l11.86,67.27a50.33,50.33,0,0,1-8.49,37.66L681.2,291a49.71,49.71,0,0,1-32.07,20.26l-38.64,6.81a50,50,0,0,1-9.73,40.65c1.34.06,2.68.17,4,.32a53.33,53.33,0,0,1,6.29-.37h2.57a50.53,50.53,0,0,1,47.5,68L650,456.74c-7.77,20.68-26.22,33.5-48.18,33.5h-2.52a50.89,50.89,0,0,1-14.15-2,51.54,51.54,0,0,1-7.33-.87,51.54,51.54,0,0,1-9.75.93h-3.29a52.08,52.08,0,0,1-14.19,2H548a51.29,51.29,0,0,1-27.21-7.88h-1.17c-1.25,0-2.5,0-3.76-.14-1.25.09-2.52.14-3.77.14h-5c-1.27,0-2.56,0-3.83-.14-1.28.1-2.56.14-3.83.14h-3.3a50.53,50.53,0,0,1-50.51,47.47h-6.17a54,54,0,0,1-6.32-.37,53,53,0,0,1-6.25.37h-3.11c-1.57,0-3.14-.07-4.71-.22a67,67,0,0,1-10.66.85,66.27,66.27,0,0,1-14.05-1.5l-.79.13a50.94,50.94,0,0,1-25.25,6.68Z" fill="#ed1d24"/><path d="M366.37,523.27a38.81,38.81,0,0,1-9.76-1.23,38.69,38.69,0,0,1-9.75,1.23h-2.12a38.58,38.58,0,0,1-20.51-5.95h-1.65l-1.29,0a49.83,49.83,0,0,1-8,.65,48.86,48.86,0,0,1-10.44-1.12,38.43,38.43,0,0,1-6.1.49h-5A38.88,38.88,0,0,1,287,517a39,39,0,0,1-4.69.28h-4.91A38.49,38.49,0,0,1,239,478.88v-1.71a39.18,39.18,0,0,1-7.17.66h-4.78A38.35,38.35,0,0,1,208,472.76a38.69,38.69,0,0,1-15.16,3.12h-2a38.81,38.81,0,0,1-9.76-1.23,38.7,38.7,0,0,1-9.75,1.23h-2.12a38.72,38.72,0,0,1-19.7-5.44,53.23,53.23,0,0,1-8.11-1.17,38.63,38.63,0,0,1-7.15.67h-5.36a38.67,38.67,0,0,1-6.94-.63,38.66,38.66,0,0,1-6.94.63h-5.45a38.49,38.49,0,0,1-38.45-38.45V411.13a37.83,37.83,0,0,1-1-14.67,37.81,37.81,0,0,1-5.38-3.15,37.25,37.25,0,0,1-15.42-24.2L32.71,275a37.5,37.5,0,0,1,30.42-43.44L83.28,228a37.93,37.93,0,0,1,6.53-.57h.27q.8-.3,1.61-.56a40.06,40.06,0,0,1-4.46-24.76l6.39-41.45a40.31,40.31,0,0,1,5.8-15.44A37.59,37.59,0,0,1,102,132l3.8-9.6a40.35,40.35,0,0,1,37.62-25.78,39.6,39.6,0,0,1,14.64,2.79l55.17,21.83c20.58,8.15,30.61,31.71,22.37,52.52l-3.79,9.59-.34.83-1.8,11.65a37.43,37.43,0,0,1,14.86-6.1l20.15-3.55a37.82,37.82,0,0,1,6.53-.57,37.34,37.34,0,0,1,18.7,5,37.73,37.73,0,0,1,5.8-1.5L316,185.56a37.32,37.32,0,0,1,10.31-.37,37.27,37.27,0,0,1,9.83-3.18l20.19-3.56a37.49,37.49,0,0,1,14.46.28l5.63-1a37.7,37.7,0,0,1,6.52-.57c1,0,2.08,0,3.12.13a37.42,37.42,0,0,1,9.23-2.89l10.78-1.9a37.78,37.78,0,0,1,6.52-.57q1.56,0,3.12.13a37.39,37.39,0,0,1,9.23-2.89l9.58-1.69,1.09-1.55a37.24,37.24,0,0,1,24.2-15.42l26.88-4.74a37.78,37.78,0,0,1,6.51-.57,37.38,37.38,0,0,1,13.27,2.42,37.26,37.26,0,0,1,18-8.51l26.88-4.74a37.53,37.53,0,0,1,24.58,4.06l1.16-.22,40.33-7.11a37.5,37.5,0,0,1,28,6.21l15.85,11.1a37.25,37.25,0,0,1,15.42,24.2l11.86,67.27a37.74,37.74,0,0,1-6.37,28.25L671,283.78A37.28,37.28,0,0,1,647,299l-40.33,7.11a37.69,37.69,0,0,1-14.86-.36,37.53,37.53,0,0,1-20,58.16l-4.78,1.36-.2,5c0,.37,0,.74-.06,1.11,1-.08,2-.12,3-.12h16.8c1,0,1.94,0,2.91.11s1.94-.11,2.91-.11h6.13a41.8,41.8,0,0,1,6.38.49,40.5,40.5,0,0,1,6.28-.49h2.57a38,38,0,0,1,35.75,51.2l-11.13,30a38.19,38.19,0,0,1-36.46,25.35h-2.52a38.31,38.31,0,0,1-12.08-1.94,38.74,38.74,0,0,1-9.39-1.23A38.69,38.69,0,0,1,568,475.8h-2.12c-.92,0-1.84,0-2.77-.1a39.36,39.36,0,0,1-12.6,2H548a38.6,38.6,0,0,1-23.32-7.88h-5.06c-1.25,0-2.51-.06-3.76-.18-1.25.12-2.51.18-3.77.18h-5c-1.27,0-2.56-.06-3.83-.19-1.27.13-2.56.19-3.83.19H494.6a38.67,38.67,0,0,1-7-.64,46.61,46.61,0,0,1-5,.84,38,38,0,0,1-36.92,47.27h-6.17a41.16,41.16,0,0,1-6.32-.49,40.24,40.24,0,0,1-6.24.49h-3.11a38.42,38.42,0,0,1-5.11-.34,54.09,54.09,0,0,1-10.26,1,53.39,53.39,0,0,1-13.79-1.79,47,47,0,0,1-5.31.88,38.65,38.65,0,0,1-21,6.22Zm-50.88-152a37.7,37.7,0,0,1,10.09,1.37,38.16,38.16,0,0,1,10.49-1.45h16.8a38.59,38.59,0,0,1,7.37.71,53.76,53.76,0,0,1,12-1.34,55,55,0,0,1,6.6.4,38.1,38.1,0,0,1,22.91-7.65h19.64a38.44,38.44,0,0,1,23.78,8.13q1.16.21,2.3.47,1.82-.36,3.67-.54-.38-.53-.73-1.08A37.45,37.45,0,0,1,446,338.65l-10.32,1.82a37.59,37.59,0,0,1-5.47.56,37.5,37.5,0,0,1-5.32,1.35l-21.49,3.79a37.72,37.72,0,0,1-6.52.57,37.29,37.29,0,0,1-15.54-3.38A37.29,37.29,0,0,1,365.76,350l-20.15,3.55a37.51,37.51,0,0,1-24.25-3.89L274.22,358c-1.12.2-2.26.34-3.4.44-1.1.3-2.23.55-3.35.75l-47.11,8.31a37.83,37.83,0,0,1-14.62-.3,37.77,37.77,0,0,1-9.91,3.21l-5.28.93a38.53,38.53,0,0,1,6.52.7,54.46,54.46,0,0,1,22.74-.27,38,38,0,0,1,5.44-.39h6.17l1.29,0a49.81,49.81,0,0,1,8-.65,48.5,48.5,0,0,1,13.31,1.85,53.28,53.28,0,0,1,14.17-1.89,54.15,54.15,0,0,1,10.4,1,39,39,0,0,1,5.36-.37h4a39.48,39.48,0,0,1,4.82.3,38.82,38.82,0,0,1,4.78-.3h4.91a38.79,38.79,0,0,1,4.78.3,39.49,39.49,0,0,1,4.82-.3Z" fill="#b1181e"/><path d="M676.2,242.06l-11.86-67.27a24.83,24.83,0,0,0-10.28-16.13l-15.85-11.1A24.88,24.88,0,0,0,623.88,143a25.14,25.14,0,0,0-4.34.38l-40.33,7.11a25,25,0,0,0-5.27,1.54l-1.77-1.24a25,25,0,0,0-18.69-4.14l-26.88,4.74a24.83,24.83,0,0,0-16.13,10.28l-1.21,1.73-1.73-1.21a25,25,0,0,0-18.68-4.14L462,162.83a24.83,24.83,0,0,0-16.13,10.28l-4.06,5.79-14.68,2.59A25,25,0,0,0,418,185a24.92,24.92,0,0,0-5.41-.59,25.19,25.19,0,0,0-4.35.38l-10.78,1.9a25,25,0,0,0-9.11,3.54,24.94,24.94,0,0,0-9.76-.21l-8.31,1.46a25,25,0,0,0-11.78-.76l-20.18,3.56a25,25,0,0,0-9.7,3.94,24.78,24.78,0,0,0-10.45-.39l-20.25,3.57a25,25,0,0,0-9.34,3.69,24.93,24.93,0,0,0-17.33-7,25.28,25.28,0,0,0-4.36.38l-20.15,3.55a24.82,24.82,0,0,0-15.66,9.63,24.91,24.91,0,0,0-13.68-4.07c-.72,0-1.45,0-2.17.09l4.18-27.08q.44-.91.81-1.86l3.8-9.59a27.9,27.9,0,0,0-15.35-36.3l-55.17-21.83a27.14,27.14,0,0,0-10-1.91,27.92,27.92,0,0,0-26,17.88l-3.8,9.59A25,25,0,0,0,112.11,149,27.91,27.91,0,0,0,106,162.58l-6.38,41.34a27.86,27.86,0,0,0,19.3,30.5l-20,3.52a25,25,0,0,0-6.62,2.15,25.16,25.16,0,0,0-6.88.25l-20.15,3.55a25,25,0,0,0-20.28,29l16.59,94.09A25,25,0,0,0,86.23,387.6h.13c-.41.63-.8,1.28-1.15,2a25.45,25.45,0,0,0-1.65,19.79v22.15a26,26,0,0,0,25.95,25.95H115a26.1,26.1,0,0,0,6.94-.94,26.1,26.1,0,0,0,6.94.94h5.36a26.12,26.12,0,0,0,7.3-1,40.67,40.67,0,0,0,11.67,1.67h.26a26,26,0,0,0,15.74,5.32h2.12a26,26,0,0,0,9.74-1.87,26.06,26.06,0,0,0,9.76,1.87h2a26.07,26.07,0,0,0,15.77-5.32H209a26.14,26.14,0,0,0,18,7.25h4.78a25.93,25.93,0,0,0,18.41-7.6,25.78,25.78,0,0,0,1.25,6.89v14.27a26,26,0,0,0,25.95,25.95h4.91a26.18,26.18,0,0,0,4.69-.42,26.08,26.08,0,0,0,4.68.42h5a26,26,0,0,0,6.4-.8,36,36,0,0,0,10.13,1.44,37.08,37.08,0,0,0,7.26-.71q1,.08,2.07.08h5.65a26.07,26.07,0,0,0,16.52,5.95h2.12a26,26,0,0,0,9.74-1.87,26.07,26.07,0,0,0,9.76,1.87h2a26,26,0,0,0,16.58-6,34.57,34.57,0,0,0,9.95-1.66,41.44,41.44,0,0,0,23.53,1.1,25.65,25.65,0,0,0,5.41.57H427a27.23,27.23,0,0,0,6.23-.71,28,28,0,0,0,6.34.71h6.17a25.47,25.47,0,0,0,22.47-37.66,25.51,25.51,0,0,0,2.26-9.81h2.83a26.14,26.14,0,0,0,4.89.46c.65,0,1.4,0,2-.08l.4,0a33.63,33.63,0,0,0,6.8-1.35,26.11,26.11,0,0,0,7.2,1h4.91a26.16,26.16,0,0,0,3.83-.28,26,26,0,0,0,3.83.28h5a26.05,26.05,0,0,0,3.76-.27,26.09,26.09,0,0,0,3.76.27h9.76A25.84,25.84,0,0,0,548,465.24h2.52a26.9,26.9,0,0,0,11-2.31,25.93,25.93,0,0,0,4.38.37H568a26,26,0,0,0,9.74-1.87,26.07,26.07,0,0,0,9.76,1.87h1.85a25.94,25.94,0,0,0,9.86,1.94h2.52A25.91,25.91,0,0,0,626.52,448l11.1-29.9a25.53,25.53,0,0,0-24-34.43h-2.57a27.5,27.5,0,0,0-6.26.71,28.67,28.67,0,0,0-6.4-.71h-6.13a26.11,26.11,0,0,1-5.81,0h-16.8A25.67,25.67,0,0,0,566,384a25.73,25.73,0,0,0-3.63-.26h-2.57a27.5,27.5,0,0,0-6.26.71,28.18,28.18,0,0,0-4.39-.63,25,25,0,0,0,5.06-14.08l.58-14,13.47-3.84a25,25,0,0,0,1.88-47.47l-13-4.83.25-5.66,21.32-3.76a25.2,25.2,0,0,0,5.52-1.64q.72.59,1.49,1.13a25,25,0,0,0,18.68,4.14l40.33-7.11a24.85,24.85,0,0,0,16-10.13L672,260.89A25.17,25.17,0,0,0,676.2,242.06ZM487.69,383.7h-6a25.71,25.71,0,0,0-4.47.39,26.09,26.09,0,0,0-4.5-.39H454.87a25.64,25.64,0,0,0-7.51,1.12,39.74,39.74,0,0,0-7.61-1.53,26.08,26.08,0,0,0-18.35-7.47H401.75a25.46,25.46,0,0,0-19.1,8.56,41.18,41.18,0,0,0-10.4-1.31,40.54,40.54,0,0,0-11.87,1.73,26,26,0,0,0-7.5-1.1h-16.8a25.58,25.58,0,0,0-10.43,2.2,25.6,25.6,0,0,0-10.14-2.12h-3.38a26.59,26.59,0,0,0-4.83.44,26,26,0,0,0-4.77-.44H297.6a26,26,0,0,0-4.77.44,26.59,26.59,0,0,0-4.83-.44h-4a26.09,26.09,0,0,0-5.65.61,41.09,41.09,0,0,0-10.12-1.24A40.49,40.49,0,0,0,254,385.7a36,36,0,0,0-13.23-2.5,37.14,37.14,0,0,0-7.26.71q-1-.08-2.07-.08h-6.17a25.68,25.68,0,0,0-5.73.65,41,41,0,0,0-10.44-1.33,40.55,40.55,0,0,0-11.87,1.73,26,26,0,0,0-7.5-1.1H172.9a25.61,25.61,0,0,0-7.65,1.16,40.61,40.61,0,0,0-12.09-1.79h-.92a26.16,26.16,0,0,0-8.37-5.39l.5-.09a25,25,0,0,0,18.52-14.52,25,25,0,0,0,3.9-.37l26.87-4.74a24.9,24.9,0,0,0,10.48-4.47,25.17,25.17,0,0,0,14.06,1.56l47.11-8.3a25,25,0,0,0,3.33-.83,25.5,25.5,0,0,0,3.41-.36l47.11-8.31a25.32,25.32,0,0,0,4.37-1.18q.6.48,1.23.92a25,25,0,0,0,18.68,4.14l20.15-3.55a24.92,24.92,0,0,0,16.13-10.29,24.93,24.93,0,0,0,21.51,6.48l21.49-3.79a25.1,25.1,0,0,0,5.28-1.55l1.16,0a25.07,25.07,0,0,0,4.35-.38l21.56-3.8a24.93,24.93,0,0,0,11.53-5.3l3.49,5.33-7.85,9.87A25,25,0,0,0,488.16,374l12.45-3.27,2.54,3.82A29.13,29.13,0,0,0,487.69,383.7Z" fill="#ed1d24"/><path d="M663.89,244.23,652,177a12.5,12.5,0,0,0-5.14-8.07L631,157.8a12.51,12.51,0,0,0-9.34-2.07l-40.33,7.11a12.46,12.46,0,0,0-7.53,4.43l-8.85-6.2a12.51,12.51,0,0,0-9.34-2.07l-26.87,4.74a12.5,12.5,0,0,0-8.07,5.14l-8.38,12-12-8.38A12.51,12.51,0,0,0,491,170.4l-26.87,4.74a12.5,12.5,0,0,0-8.07,5.14l-7,10-19.78,3.49a12.5,12.5,0,0,0-8.66,6.06,12.49,12.49,0,0,0-10.21-2.74L399.62,199a12.49,12.49,0,0,0-8.66,6.06,12.49,12.49,0,0,0-10.21-2.74l-11.85,2.09a12.51,12.51,0,0,0-8.24-1.38l-20.18,3.56a12.5,12.5,0,0,0-9.15,7,12.48,12.48,0,0,0-11-3.46l-20.25,3.57a12.5,12.5,0,0,0-8.42,19l27.73,44.18,1.33,7.53a12.51,12.51,0,0,0-11.64-4.15l-14.64,2.58L283.54,221a12.49,12.49,0,0,0-14.48-10.14l-20.15,3.55a12.5,12.5,0,0,0-10.14,14.48l10.91,61.86-9.08,1.6-10.91-61.86a12.49,12.49,0,0,0-14.48-10.14l-15.52,2.74a15.46,15.46,0,0,0,1.1-3.81l6.34-41.1q.1-.68.15-1.36a16.46,16.46,0,0,0,1.3-2.6l3.8-9.59a15.39,15.39,0,0,0-8.32-20.08l-55.17-21.83a14.7,14.7,0,0,0-5.44-1,15.48,15.48,0,0,0-14.37,10l-3.8,9.59a12.5,12.5,0,0,0-.22,8.6l1.18,3.48a15.18,15.18,0,0,0-7.92,11.17L112,205.71A15.3,15.3,0,0,0,124.74,223l36.34,5.61-17.41,3.07a12.5,12.5,0,0,0-8.07,5.14l-7.45,10.64a12.49,12.49,0,0,0-6.88-.73l-20.15,3.55a12.44,12.44,0,0,0-6.41,3.22,12.42,12.42,0,0,0-4.9-1,12.62,12.62,0,0,0-2.19.19L67.47,256.2a12.5,12.5,0,0,0-10.14,14.48l16.59,94.09A12.5,12.5,0,0,0,88.4,374.91l20.15-3.55a12.44,12.44,0,0,0,6.43-3.23,12.51,12.51,0,0,0,7.07.81l20.15-3.55a12.5,12.5,0,0,0,10.14-14.48l-.91-5.18,3.85,2.7a12.51,12.51,0,0,0,9.34,2.07l26.87-4.74a12.5,12.5,0,0,0,8.07-5.14l3.13-4.46A12.49,12.49,0,0,0,216,342.83l47.1-8.3a12.51,12.51,0,0,0,3.29-1.06,12.53,12.53,0,0,0,3.46-.13L317,325a12.5,12.5,0,0,0,9.52-7.88l.29,1.62a12.5,12.5,0,0,0,14.48,10.14l20.15-3.55a12.5,12.5,0,0,0,10.14-14.48L364.17,269l1.58-7.38,19.43,52a12.5,12.5,0,0,0,13.88,7.94l21.5-3.79a12.45,12.45,0,0,0,5.17-2.19,12.48,12.48,0,0,0,5.61.29l21.56-3.8a12.5,12.5,0,0,0,10.33-12.2l.15-16.62,10.6,7.42c-.16.18-.32.34-.47.52a12.5,12.5,0,0,0-.66,14.62l12.64,19.28L472,342a12.5,12.5,0,0,0,13,19.87l21.08-5.53,12.8,19.23a12.5,12.5,0,0,0,22.9-6.41l.95-23,22.17-6.31a12.5,12.5,0,0,0,.94-23.74l-21.49-8,1-22.71a12.49,12.49,0,0,0-.21-2.88,12.28,12.28,0,0,0,4.62.06l26.87-4.74a12.5,12.5,0,0,0,8.07-5.14l2.7-3.86.44,2.49a12.5,12.5,0,0,0,14.48,10.14l40.34-7.11a12.5,12.5,0,0,0,8-5.06l11.13-15.65A12.5,12.5,0,0,0,663.89,244.23Z" fill="#b1181e"/><path d="M366.37,498.27a13.31,13.31,0,0,1-9.77-4.18,13.25,13.25,0,0,1-9.73,4.18h-2.12a13.5,13.5,0,0,1-11.64-6.68,13.11,13.11,0,0,1-4.35.74h-6.17a13.47,13.47,0,0,1-2.71-.27,24.43,24.43,0,0,1-6.62.91,23.37,23.37,0,0,1-10.11-2.27,13.36,13.36,0,0,1-6.42,1.64h-5a13.49,13.49,0,0,1-4.68-.83,13.57,13.57,0,0,1-4.69.83h-4.91A13.46,13.46,0,0,1,264,478.88V462.3a13.19,13.19,0,0,1,.22-11.69,12.9,12.9,0,0,1,4.73-5h-.72a27,27,0,0,1-14.36-4,23.11,23.11,0,0,1-10,3.79,13.55,13.55,0,0,1-12.09,7.42h-4.78A13.56,13.56,0,0,1,214.77,445a29.47,29.47,0,0,1-10.87.1,13.54,13.54,0,0,1-11.1,5.77h-2A13.31,13.31,0,0,1,181,446.7a13.24,13.24,0,0,1-9.73,4.18h-2.12a13.48,13.48,0,0,1-11-5.74,29.18,29.18,0,0,1-5,.42,27.54,27.54,0,0,1-11.9-2.61,13.52,13.52,0,0,1-7.07,2h-5.36a13.52,13.52,0,0,1-6.94-1.9,13.52,13.52,0,0,1-6.94,1.9h-5.45a13.46,13.46,0,0,1-13.45-13.45V407a13.19,13.19,0,0,1,.22-11.69,12.94,12.94,0,0,1,11.51-6.94h26.4a13.56,13.56,0,0,1,12.37,8,28.63,28.63,0,0,1,6.6-.76,27.47,27.47,0,0,1,12.42,2.86,13,13,0,0,1,7.31-2.23h16.8a13.45,13.45,0,0,1,7.24,2.1,27.45,27.45,0,0,1,12.14-2.73,27.87,27.87,0,0,1,10.47,2,13.06,13.06,0,0,1,5.71-1.3h6.17a13.55,13.55,0,0,1,2.71.27,24.44,24.44,0,0,1,6.62-.9,23.26,23.26,0,0,1,13.07,4,27,27,0,0,1,14.42-4,28,28,0,0,1,10.14,1.85,13.44,13.44,0,0,1,5.62-1.22h4a14,14,0,0,1,4.85.86,13.43,13.43,0,0,1,4.75-.86h4.91a13.43,13.43,0,0,1,4.75.86,14,14,0,0,1,4.85-.86h3.38a13.13,13.13,0,0,1,10.27,5,13,13,0,0,1,10.3-5h16.8a13.44,13.44,0,0,1,7.24,2.1,27.44,27.44,0,0,1,12.14-2.73A26.68,26.68,0,0,1,388.73,401a13,13,0,0,1,13-12.68h19.64a13.56,13.56,0,0,1,12.11,7.31q.94-.06,1.91-.06a27.52,27.52,0,0,1,12.26,2.79,13,13,0,0,1,7.2-2.15h17.84a13.48,13.48,0,0,1,4.52.77,13.11,13.11,0,0,1,4.45-.77h12.69a16.57,16.57,0,0,1,30.31,0h5.88a20.83,20.83,0,0,1,5.84.83,13.42,13.42,0,0,1,4.66-.83h6.13a15.1,15.1,0,0,1,6.45,1.36,14.32,14.32,0,0,1,6.21-1.36h2.57a13.26,13.26,0,0,1,3.63.51,13.13,13.13,0,0,1,3.62-.51h16.8a13.58,13.58,0,0,0,5.81,0h6.13a15.1,15.1,0,0,1,6.45,1.36,14.31,14.31,0,0,1,6.21-1.36h2.57a13.08,13.08,0,0,1,10.72,5.53,13.26,13.26,0,0,1,1.53,12.14L614.8,443.69a13.46,13.46,0,0,1-13,9h-2.52a13.43,13.43,0,0,1-7.3-2.15,13.58,13.58,0,0,1-2.38.21h-2a13.31,13.31,0,0,1-9.77-4.18A13.25,13.25,0,0,1,568,450.8h-2.12a13.41,13.41,0,0,1-6.11-1.47,13.59,13.59,0,0,1-9.25,3.4H548a13.26,13.26,0,0,1-10.89-5.61,12.91,12.91,0,0,1-1.47-2.78,22.17,22.17,0,0,1-4.71.5H519.65a13.43,13.43,0,0,1-3.75-.53,13.51,13.51,0,0,1-3.77.53h-5a13.39,13.39,0,0,1-3.82-.55,13.49,13.49,0,0,1-3.84.55H494.6a13.52,13.52,0,0,1-7.16-2,20.72,20.72,0,0,1-8,2.43l-.2,0c-.33,0-.75,0-1.08,0a13.51,13.51,0,0,1-3.83-.55,13.7,13.7,0,0,1-1.61.09H467.8a13.52,13.52,0,0,1-7.16-2,20.71,20.71,0,0,1-8,2.43l-.2,0c-.33,0-.75,0-1.08,0h-.12a13,13,0,0,1,4.3,18.91l-2.1,3,3.25,5.07.19.31a13,13,0,0,1-11.17,19.75h-6.17a14.45,14.45,0,0,1-6.35-1.38,14.29,14.29,0,0,1-6.22,1.38h-3.11a13.16,13.16,0,0,1-5.39-1.15,28,28,0,0,1-10,1.78A27.21,27.21,0,0,1,395,489.53a21.72,21.72,0,0,1-10.73,2.8h-4.69a13.54,13.54,0,0,1-11.22,5.95Zm12.16-77.86" fill="#b1181e"/><rect x="-9.25" y="-2.05" width="740" height="673.87" fill="none"/><path d="M400.6,169.69a26.74,26.74,0,0,1-9.55-1.73,13.41,13.41,0,0,1-5.49,1.17h-3.28a13.41,13.41,0,0,1-7-2,13.46,13.46,0,0,1-7,2h-3.4a13.31,13.31,0,0,1-9.91-4.42,13.36,13.36,0,0,1-9.94,4.42h-3.4a13.29,13.29,0,0,1-3.78-.55,13.45,13.45,0,0,1-3.8.55h-3.28a13.4,13.4,0,0,1-7-2,13.4,13.4,0,0,1-7,2H313.3A13.36,13.36,0,0,1,300,155.79V134.38a13,13,0,0,1,1.37-13,13.06,13.06,0,0,1-4.69-1.57,28.91,28.91,0,0,1-10.26,1.85,28,28,0,0,1-17.63-6.09,13.43,13.43,0,0,1-10.87,5.53h-3.36a13.36,13.36,0,0,1-13.34-13.34V86.37a13.09,13.09,0,0,1,.38-11.32A12.92,12.92,0,0,1,253,68.14h16.08a13.58,13.58,0,0,1,6.36,1.56,29,29,0,0,1,24.08,1,13,13,0,0,1,7.81-2.6H324.9a13.3,13.3,0,0,1,7.54,2.33A28.38,28.38,0,0,1,345,67.58,28.69,28.69,0,0,1,356.78,70a13,13,0,0,1,6.79-1.91h11.56a22,22,0,0,1,7.35,1.25,13,13,0,0,1,5.57-1.25h4.88a13.37,13.37,0,0,1,7,2,13.37,13.37,0,0,1,7-2h3.28a13.46,13.46,0,0,1,3.06.35,13.11,13.11,0,0,1,3-.35h4.88a13.37,13.37,0,0,1,7,2,13.52,13.52,0,0,1,7.06-2h3.54a13.33,13.33,0,0,1,6-6,12.43,12.43,0,0,1,1.45-.62l2.11-.74a13.1,13.1,0,0,1,4.43-.77,12.92,12.92,0,0,1,3.57.5A12.93,12.93,0,0,1,460,60a13.11,13.11,0,0,1,4.43.77l2.11.74a12.44,12.44,0,0,1,1.44.61,13.33,13.33,0,0,1,7,8.74,13.35,13.35,0,0,1,5.35,10.68v26.28a13.4,13.4,0,0,1-13.42,13.34h-3.28a13.41,13.41,0,0,1-7-2,13.46,13.46,0,0,1-7,2h-3.4a13.28,13.28,0,0,1-3.78-.55,13.45,13.45,0,0,1-3.8.55h-3.28a13.41,13.41,0,0,1-7-2,13.46,13.46,0,0,1-7,2h-3.4a13.34,13.34,0,0,1-2.45-.23,19,19,0,0,1,6.48,14.57,18.47,18.47,0,0,1-.73,5.11,19.93,19.93,0,0,1,1.8,8.25C423,160.73,413.36,169.69,400.6,169.69Z" fill="#b1181e"/></svg>