<svg id="Layer_36_copy" data-name="Layer 36 copy" xmlns="http://www.w3.org/2000/svg" viewBox="0 0 630.85 613.66"><title>lg-bg</title><g id="bg-lg"><path d="M343,1501.26c-7.94,0-16.05-.1-24.11-.29-8.09.19-16.22.29-24.18.29-10.68,0-21.57-.18-32.39-.53-10.83.35-21.73.53-32.4.53-383.93,0-725.29-214.57-890.86-560-35.87-74.06-64.33-162.42-80.18-248.92-46.7-116.62-71.38-244.06-71.38-368.63v-148c0-544.89,443.31-988.2,988.2-988.2H455.15c544.9,0,988.2,443.31,988.2,988.2v148c0,102.86-20.35,221.28-55.86,325-14.9,77.34-40.46,158.37-72,228.3C1170.66,1255.88,813.3,1500.63,405,1500.63h-3.88c-4,0-8,0-11.95-.07s-7.67.07-11.41.07C363,1501.16,350.7,1501.26,343,1501.26Z" fill="#00a3e2"/><path d="M343,1488.76c-7.94,0-16.05-.1-24.11-.3-8.09.2-16.22.3-24.18.3-10.69,0-21.58-.18-32.39-.54-10.82.36-21.72.54-32.4.54-379.07,0-716.12-211.85-879.59-552.9-35.59-73.48-63.77-161.16-79.38-247-46.42-115.48-71-241.71-71-365.14v-148c0-538,437.7-975.7,975.7-975.7h279.5c538,0,975.7,437.7,975.7,975.7v148c0,101.86-20.21,219.1-55.47,321.82-14.72,76.82-40.08,157.28-71.47,226.72-142.85,374.15-495.67,615.87-899,615.87H401c-4,0-8,0-11.95-.07s-7.78.07-11.63.07C362.83,1488.66,350.65,1488.76,343,1488.76Z" fill="#2371b9"/><path d="M343,1476.26c-7.95,0-16.06-.1-24.12-.3-8.11.2-16.24.3-24.17.3-10.69,0-21.58-.18-32.39-.54-10.82.36-21.71.54-32.4.54-374.22,0-706.94-209.13-868.32-545.8-35.31-72.92-63.2-159.92-78.58-245.08C-763.11,571-787.5,446-787.5,323.72v-148c0-531.11,432.09-963.2,963.2-963.2H455.15c531.11,0,963.2,432.09,963.2,963.2v148c0,100.85-20.07,216.91-55.09,318.6-14.54,76.29-39.7,156.19-70.9,225.13-140.91,369.48-489.2,608.18-887.41,608.18h-3.88c-4,0-8,0-11.95-.07s-7.92.07-11.85.07C362.69,1476.16,350.59,1476.26,343,1476.26Z" fill="#00a3e2"/><path d="M343,1463.76c-8,0-16.07-.1-24.11-.31-8.11.21-16.24.31-24.18.31-10.68,0-21.58-.18-32.39-.55-10.82.37-21.72.55-32.4.55-369.36,0-697.77-206.42-857-538.7-35-72.35-62.64-158.68-77.77-243.17-45.86-113.19-70.1-237-70.1-358.17v-148C-775-348.52-348.52-775,175.7-775H455.15c524.22,0,950.7,426.48,950.7,950.7v148c0,99.84-19.93,214.73-54.7,315.38-14.36,75.76-39.32,155.1-70.33,223.54-139,364.82-482.73,600.49-875.87,600.49h-3.88c-4,0-8,0-11.94-.07s-8,.07-11.94.07H377C362.55,1463.66,350.54,1463.76,343,1463.76Z" fill="#2371b9"/><path d="M343,1451.26c-8,0-16.09-.1-24.11-.31-8.08.21-16.22.31-24.18.31-10.69,0-21.58-.18-32.39-.56-10.82.38-21.71.56-32.4.56-364.51,0-688.6-203.7-845.78-531.61-34.76-71.78-62.08-157.41-77-241.24-45.58-112.06-69.67-234.67-69.67-354.69v-148c0-517.32,420.88-938.2,938.2-938.2H455.15c517.33,0,938.2,420.88,938.2,938.2v148c0,98.83-19.79,212.55-54.31,312.15-14.18,75.25-38.94,154-69.77,222C1132.27,1218,793,1450.67,405,1450.67h-3.88c-4,0-8.05,0-11.94-.08s-7.95.08-11.94.08h-.36C362.42,1451.16,350.49,1451.26,343,1451.26Z" fill="#00a3e2"/><path d="M343,1438.76c-8,0-16.1-.1-24.11-.31-8.08.21-16.21.31-24.18.31-10.69,0-21.58-.19-32.39-.57-10.82.38-21.71.57-32.4.57-359.66,0-679.42-201-834.51-524.51-34.48-71.21-61.52-156.17-76.16-239.33C-726.06,564-750,442.6-750,323.72v-148C-750-334.73-334.73-750,175.7-750H455.15c510.43,0,925.7,415.27,925.7,925.7v148c0,97.83-19.65,210.37-53.92,308.93-14,74.72-38.56,152.92-69.2,220.37C1122.65,1208.47,788,1438.13,405,1438.13h-3.88c-4.06,0-8.07,0-11.94-.08s-7.93.08-11.94.08h-.57C362.29,1438.66,350.44,1438.76,343,1438.76Z" fill="#2371b9"/><path d="M343,1426.26c-8,0-16.09-.1-24.11-.32-8.05.22-16.18.32-24.18.32-10.7,0-21.6-.19-32.39-.57-10.8.38-21.7.57-32.4.57-354.8,0-670.25-198.26-823.23-517.41-34.22-70.65-61-154.92-75.36-237.42-45-109.76-68.83-230-68.83-347.71v-148c0-503.54,409.66-913.2,913.2-913.2H455.15c503.54,0,913.2,409.66,913.2,913.2v148c0,96.82-19.51,208.19-53.54,305.71-13.82,74.19-38.18,151.83-68.62,218.78C1113.06,1199,782.9,1425.63,405,1425.63h-3.88c-4.05,0-8.06,0-11.94-.08s-7.94.08-11.94.08h-.79C362.15,1426.16,350.38,1426.26,343,1426.26Z" fill="#00a3e2"/><path d="M343,1413.76c-8,0-16.09-.11-24.11-.32-8.05.21-16.19.32-24.18.32-10.7,0-21.59-.19-32.39-.58-10.81.39-21.71.58-32.4.58-349.95,0-661.08-195.54-812-510.32C-616,833.36-642.44,749.77-656.59,668-701.35,559.33-725,440.33-725,323.72v-148C-725-320.95-320.95-725,175.7-725H455.15c496.65,0,900.7,404.05,900.7,900.7v148c0,95.82-19.37,206-53.15,302.49-13.65,73.66-37.8,150.74-68.06,217.19C1103.46,1189.52,777.83,1413.13,405,1413.13h-3.88c-4,0-8,0-11.95-.08s-7.9.08-11.93.08h-1C362,1413.65,350.34,1413.76,343,1413.76Z" fill="#2371b9"/><path d="M343,1401.26c-8,0-16.09-.11-24.11-.33-8.05.22-16.18.33-24.18.33-10.7,0-21.6-.2-32.39-.59-10.8.39-21.7.59-32.4.59-345.09,0-651.9-192.82-800.69-503.22-33.67-69.52-59.84-152.43-73.74-233.58-44.48-107.48-68-225.27-68-340.74v-148C-712.5-314-314-712.5,175.7-712.5H455.15c489.76,0,888.2,398.45,888.2,888.2v148c0,94.81-19.22,203.82-52.77,299.27-13.46,73.14-37.41,149.64-67.48,215.6-129.24,341.45-450.33,562-818.15,562h-3.88c-4,0-8.05,0-11.95-.08s-7.9.08-11.93.08H376C361.91,1401.15,350.29,1401.26,343,1401.26Z" fill="#00a3e2"/><path d="M343,1388.76c-8,0-16.09-.11-24.12-.33-8.05.22-16.18.33-24.17.33-10.7,0-21.6-.2-32.39-.6-10.8.4-21.7.6-32.4.6-340.24,0-642.73-190.1-789.42-496.12-33.39-69-59.27-151.19-72.92-231.67C-676.64,554.64-700,438.06-700,323.72v-148C-700-307.16-307.16-700,175.7-700H455.15c482.86,0,875.7,392.84,875.7,875.7v148c0,93.81-19.09,201.65-52.39,296-13.27,72.62-37,148.56-66.91,214-127.3,336.8-443.86,554.36-806.6,554.36h-3.88c-4,0-8,0-11.95-.08s-7.91.08-11.93.08h-1.45C361.79,1388.65,350.25,1388.76,343,1388.76Z" fill="#2371b9"/><path d="M343,1376.26c-8,0-16.08-.11-24.12-.34-8.05.23-16.18.34-24.17.34-10.71,0-21.6-.2-32.38-.61-10.81.41-21.7.61-32.41.61-335.38,0-633.55-187.38-778.15-489-33.12-68.39-58.71-149.94-72.1-229.75C-664.28,552.3-687.5,436.92-687.5,323.72v-148c0-476,387.23-863.2,863.2-863.2H455.15c476,0,863.2,387.23,863.2,863.2v148c0,92.8-18.95,199.46-52,292.82C1253.25,688.63,1229.71,764,1200,829c-125.36,332.1-437.39,546.67-795.06,546.67h-3.88c-4,0-8.06,0-11.95-.08s-7.89.08-11.93.08H375.5C361.67,1376.15,350.2,1376.26,343,1376.26Z" fill="#00a3e2"/><path d="M343,1363.76c-8,0-16.1-.11-24.12-.34-8,.23-16.17.34-24.17.34-10.71,0-21.6-.2-32.38-.62-10.8.42-21.7.62-32.41.62-330.53,0-624.38-184.66-766.87-481.93C-569.8,814-595.1,733.13-608.24,654-651.92,550-675,435.79-675,323.72v-148C-675-293.38-293.38-675,175.7-675H455.15c469.08,0,850.7,381.62,850.7,850.7v148c0,91.8-18.81,197.29-51.63,289.6-12.9,71.57-36.23,146.38-65.75,210.83-123.4,327.43-430.91,539-783.52,539h-3.88c-4,0-8.06,0-11.95-.08s-7.89.08-11.93.08h-1.9C361.55,1363.65,350.15,1363.76,343,1363.76Z" fill="#2371b9"/><path d="M343,1351.26c-8,0-16.09-.11-24.12-.35-8.05.24-16.18.35-24.17.35-10.71,0-21.61-.21-32.38-.63-10.8.42-21.7.63-32.41.63-325.67,0-615.21-181.94-755.6-474.83C-558.26,809.16-583.27,729-596.15,650.5c-43.41-102.89-66.35-215.85-66.35-326.78v-148c0-462.18,376-838.2,838.2-838.2H455.15c462.19,0,838.2,376,838.2,838.2v148c0,90.8-18.67,195.11-51.25,286.37-12.72,71-35.84,145.3-65.18,209.24-121.45,322.77-424.42,531.3-772,531.3H401c-4,0-8,0-12-.08s-7.91.08-11.93.08H375C361.42,1351.15,350.11,1351.26,343,1351.26Z" fill="#00a3e2"/><path d="M343,1338.76c-8,0-16.09-.12-24.12-.35-8.05.23-16.18.35-24.17.35-10.66,0-21.49-.21-32.2-.63h-.36c-10.73.42-21.57.63-32.23.63-320.82,0-606-179.22-744.33-467.74-32.31-66.7-57-146.22-69.64-224-43.15-101.75-66-213.49-66-323.29v-148C-650-279.59-279.59-650,175.7-650H455.15c455.29,0,825.7,370.41,825.7,825.7v148c0,89.8-18.53,192.93-50.87,283.15-12.53,70.52-35.45,144.2-64.6,207.65C1045.87,1132.63,747.44,1338.13,405,1338.13h-3.88c-4,0-8,0-11.95-.08s-7.95.08-11.93.08h-2.37C361.3,1338.65,350.06,1338.76,343,1338.76Z" fill="#2371b9"/><path d="M343,1326.26c-8,0-16.08-.12-24.12-.36-8.05.24-16.18.36-24.17.36-10.57,0-21.32-.21-32-.63h-.84c-10.66.42-21.42.63-32,.63-316,0-596.86-176.5-733.06-460.64-32-66.15-56.46-145-68.82-222.1-42.88-100.6-65.54-211.14-65.54-319.8v-148c0-448.4,364.8-813.2,813.2-813.2h279.5c448.4,0,813.2,364.8,813.2,813.2v148c0,88.79-18.4,190.76-50.49,279.92-12.34,70-35.06,143.12-64,206.07-117.6,313.44-411.5,515.92-748.86,515.92h-3.88c-4,0-8,0-11.95-.09s-7.95.09-11.93.09h-2.6C361.16,1326.15,350,1326.26,343,1326.26Z" fill="#00a3e2"/><path d="M343,1313.76c-8,0-16.08-.12-24.12-.36-8.06.24-16.19.36-24.17.36-10.49,0-21.16-.21-31.71-.63h-1.34c-10.58.42-21.25.63-31.74.63-311.11,0-587.69-173.78-721.79-453.54-31.76-65.59-55.89-143.74-68-220.19C-602.47,540.59-625,431.24-625,323.72v-148C-625-265.81-265.81-625,175.7-625H455.15c441.51,0,800.7,359.19,800.7,800.7v148c0,87.79-18.26,188.57-50.12,276.7-12.14,69.47-34.65,142-63.44,204.47-115.63,308.76-405,508.24-737.34,508.24h-3.88c-4,0-8,0-11.95-.09s-8,.09-11.93.09h-2.84C361,1313.65,350,1313.76,343,1313.76Z" fill="#2371b9"/><path d="M343,1301.26c-8,0-16.08-.12-24.12-.37-8.06.25-16.19.37-24.17.37-10.4,0-21-.21-31.46-.63h-1.84c-10.5.42-21.09.63-31.49.63-306.26,0-578.51-171.06-710.51-446.45-31.5-65-55.33-142.5-67.16-218.28-42.36-98.28-64.75-206.41-64.75-312.81v-148c0-434.61,353.59-788.2,788.2-788.2H455.15c434.62,0,788.2,353.59,788.2,788.2v148c0,86.79-18.12,186.4-49.74,273.47-12,68.95-34.26,140.94-62.87,202.89C1017.07,1104.17,732.23,1300.63,405,1300.63h-3.88c-4,0-8,0-11.95-.09s-8,.09-11.93.09h-3.08C360.89,1301.15,349.91,1301.26,343,1301.26Z" fill="#00a3e2"/><path d="M343,1288.76c-8,0-16.07-.12-24.12-.38-8.07.26-16.2.38-24.17.38-10.32,0-20.82-.21-31.21-.63h-2.34c-10.42.42-20.92.63-31.24.63-301.4,0-569.34-168.35-699.24-439.35-31.22-64.47-54.76-141.26-66.32-216.37A784,784,0,0,1-600,323.72v-148C-600-252-252-600,175.7-600H455.15c427.72,0,775.7,348,775.7,775.7v148c0,85.79-18,184.22-49.37,270.24-11.76,68.43-33.86,139.85-62.28,201.3-111.73,299.44-392,492.87-714.25,492.87h-3.88c-3.92,0-7.94,0-11.95-.09s-8,.09-11.93.09h-3.32C360.75,1288.65,349.85,1288.76,343,1288.76Z" fill="#2371b9"/><path d="M343,1276.26c-7.95,0-16.07-.13-24.12-.38-8.07.25-16.2.38-24.17.38-10.23,0-20.65-.21-31-.63H260.9c-10.33.42-20.75.63-31,.63-296.55,0-560.17-165.63-688-432.25-30.9-63.91-54.14-140-65.43-214.47a771.05,771.05,0,0,1-64-305.82v-148c0-420.83,342.37-763.2,763.2-763.2H455.15c420.83,0,763.2,342.37,763.2,763.2v148c0,84.79-17.85,182-49,267-11.56,67.9-33.45,138.76-61.7,199.7C997.88,1085.19,722.1,1275.63,405,1275.63h-3.88c-3.92,0-7.94,0-11.95-.09s-8,.09-11.93.09h-3.57C360.62,1276.15,349.8,1276.26,343,1276.26Z" fill="#00a3e2"/><path d="M343,1263.76c-7.94,0-16.05-.13-24.12-.39-8.08.26-16.21.39-24.17.39-10.15,0-20.47-.21-30.7-.63h-3.36c-10.25.42-20.58.63-30.73.63-291.69,0-551-162.91-676.7-425.16-30.68-63.35-53.62-138.78-64.64-212.55A758.54,758.54,0,0,1-575,323.72v-148C-575-238.24-238.24-575,175.7-575H455.15c413.94,0,750.7,336.76,750.7,750.7v148c0,83.79-17.72,179.87-48.63,263.79-11.36,67.39-33,137.67-61.11,198.12C988.29,1075.71,717,1263.13,405,1263.13h-3.88c-3.94,0-8,0-11.95-.09s-8,.09-11.93.09h-3.82C360.48,1263.65,349.75,1263.76,343,1263.76Z" fill="#2371b9"/><path d="M343,1251.26c-7.94,0-16.05-.13-24.12-.4-8.08.27-16.21.4-24.17.4-10.06,0-20.3-.21-30.44-.63h-3.88c-10.16.42-20.41.63-30.47.63-286.84,0-541.82-160.19-665.43-418.06-30.41-62.8-53-137.55-63.79-210.65a745.66,745.66,0,0,1-63.2-298.83v-148c0-407,331.16-738.2,738.2-738.2H455.15c407.05,0,738.2,331.16,738.2,738.2v148c0,82.8-17.58,177.69-48.27,260.56-11.16,66.86-32.63,136.59-60.52,196.53C978.69,1066.24,712,1250.63,405,1250.63h-3.88c-3.91,0-7.93,0-11.95-.09s-8,.09-11.93.09h-4.07C360.34,1251.15,349.7,1251.26,343,1251.26Z" fill="#00a3e2"/><path d="M343,1238.76c-7.93,0-16-.13-24.12-.4-8.09.27-16.22.4-24.17.4-10,0-20.13-.21-30.19-.63h-4.38c-10.08.42-20.24.63-30.22.63-282,0-532.64-157.47-654.15-411-30.15-62.25-52.48-136.32-62.94-208.74A732.87,732.87,0,0,1-550,323.72v-148C-550-224.45-224.45-550,175.7-550H455.15c400.15,0,725.7,325.55,725.7,725.7v148c0,81.8-17.45,175.52-47.9,257.33-11,66.34-32.22,135.5-59.93,194.94-103.93,280.8-366.1,462.16-668,462.16h-3.88c-3.91,0-7.93,0-11.95-.1s-8,.1-11.93.1h-4.32C360.2,1238.65,349.65,1238.76,343,1238.76Z" fill="#2371b9"/><path d="M343,1226.26c-7.94,0-16.05-.13-24.12-.41-8.08.28-16.21.41-24.17.41-9.88,0-19.95-.21-29.93-.63h-4.9c-10,.42-20.07.63-30,.63-277.13,0-523.47-154.75-642.88-403.87-29.88-61.68-51.91-135.08-62.09-206.83A720.24,720.24,0,0,1-537.5,323.72v-148c0-393.26,319.94-713.2,713.2-713.2H455.15c393.26,0,713.2,319.94,713.2,713.2v148c0,80.8-17.32,173.34-47.54,254.11-10.75,65.81-31.8,134.4-59.34,193.35-102,276.08-359.63,454.45-656.52,454.45h-3.88c-3.93,0-7.95,0-11.95-.1s-8,.1-11.93.1h-4.57C360.06,1226.15,349.59,1226.26,343,1226.26Z" fill="#00a3e2"/><path d="M343,1213.76c-7.94,0-16.05-.14-24.11-.42-8.09.28-16.22.42-24.18.42-9.8,0-19.77-.21-29.66-.63h-5.44c-9.91.42-19.89.63-29.69.63-272.28,0-514.3-152-631.61-396.77C-431.3,755.86-453,683.14-462.92,612.06A707.2,707.2,0,0,1-525,323.72v-148C-525-210.67-210.67-525,175.7-525H455.15c386.37,0,700.7,314.33,700.7,700.7v148c0,79.81-17.18,171.16-47.18,250.88-10.54,65.29-31.38,133.31-58.75,191.76-100,271.43-353.14,446.77-645,446.77H401c-3.92,0-7.94,0-12-.1s-8,.1-11.93.1h-4.83C359.91,1213.65,349.53,1213.76,343,1213.76Z" fill="#2371b9"/><path d="M343,1201.26c-7.95,0-16.06-.14-24.11-.42-8.08.28-16.21.42-24.18.42-9.7,0-19.59-.21-29.4-.63h-6c-9.82.42-19.71.63-29.42.63-267.42,0-505.12-149.31-620.34-389.67C-419.79,751-441.2,679-450.81,608.59A694.5,694.5,0,0,1-512.5,323.72v-148c0-379.47,308.73-688.2,688.2-688.2H455.15c379.48,0,688.2,308.73,688.2,688.2v148c0,78.81-17,169-46.82,247.65-10.33,64.76-31,132.22-58.15,190.16h0c-98.1,266.72-346.73,439.06-633.42,439.06h-3.88c-3.91,0-7.93,0-11.95-.1s-8,.1-11.93.1h-5.1C359.76,1201.15,349.47,1201.26,343,1201.26Z" fill="#00a3e2"/><path d="M343,1188.76c-7.94,0-16.05-.14-24.11-.43-8.09.29-16.22.43-24.18.43-9.62,0-19.41-.21-29.13-.63h-6.51c-9.73.42-19.53.63-29.15.63-262.57,0-495.95-146.59-609.07-382.58-29.07-60-50.17-131.39-59.49-201.12A681.77,681.77,0,0,1-500,323.72v-148C-500-196.88-196.88-500,175.7-500H455.15c372.58,0,675.7,303.12,675.7,675.7v148c0,77.82-16.93,166.82-46.46,244.42-10.12,64.22-30.52,131.09-57.53,188.52l-.21.55C930.4,1019,686.37,1188.13,405,1188.13h-3.88c-3.92,0-7.94,0-11.95-.1s-8,.1-11.93.1h-5.35C359.61,1188.65,349.42,1188.76,343,1188.76Z" fill="#2371b9"/><path d="M343,1176.26c-7.94,0-16.05-.14-24.11-.44-8.09.3-16.22.44-24.18.44-9.53,0-19.23-.21-28.86-.63H258.8c-9.64.42-19.36.63-28.88.63-257.71,0-486.78-143.87-597.8-375.48-28.8-59.48-49.6-130.17-58.61-199.22a668.9,668.9,0,0,1-61-277.84v-148C-487.5-190-190-487.5,175.7-487.5H455.15c365.69,0,663.2,297.51,663.2,663.2v148c0,76.82-16.8,164.65-46.11,241.19-9.9,63.67-30.08,130-56.9,186.87l-.4,1.07c-94.42,256.84-333.85,422.78-610,422.78h-3.88c-3.9,0-7.92,0-11.95-.11-4,.08-8,.11-11.93.11h-5.62C359.46,1176.15,349.36,1176.26,343,1176.26Z" fill="#00a3e2"/><path d="M343,1163.76c-7.94,0-16.05-.15-24.11-.45-8.09.3-16.22.45-24.18.45-9.43,0-19-.21-28.59-.63h-7.59c-9.56.42-19.18.63-28.61.63-252.86,0-477.6-141.15-586.52-368.38-28.54-58.93-49-128.94-57.74-197.32A656.11,656.11,0,0,1-475,323.72v-148C-475-183.1-183.1-475,175.7-475H455.15c358.8,0,650.7,291.9,650.7,650.7v148c0,75.83-16.67,162.48-45.76,238-9.67,63.13-29.63,128.84-56.27,185.24l-.59,1.57C910.66,1000.34,675.81,1163.13,405,1163.13h-3.88c-3.89,0-7.91,0-11.95-.11-4,.08-8,.11-11.93.11H371.3C359.31,1163.65,349.3,1163.76,343,1163.76Z" fill="#2371b9"/><path d="M343,1151.26c-7.94,0-16.05-.15-24.11-.46-8.09.31-16.22.46-24.18.46-9.34,0-18.87-.21-28.31-.63h-8.13c-9.48.42-19,.63-28.35.63-248,0-468.43-138.43-575.25-361.29-28.27-58.37-48.44-127.71-56.86-195.42A643.33,643.33,0,0,1-462.5,323.72v-148c0-351.9,286.3-638.2,638.2-638.2H455.15c351.91,0,638.2,286.3,638.2,638.2v148c0,74.84-16.54,160.31-45.41,234.72C1038.49,621,1018.76,686.14,992.3,742l-.77,2c-90.78,247-321,406.56-586.58,406.56h-3.88c-3.9,0-7.92,0-11.95-.11-4,.08-8,.11-11.93.11H371C359.16,1151.15,349.24,1151.26,343,1151.26Z" fill="#00a3e2"/><path d="M343,1138.76c-7.93,0-16-.15-24.11-.47-8.09.32-16.22.47-24.18.47-9.27,0-18.71-.21-28-.63H258c-9.4.42-18.84.63-28.08.63-243.15,0-459.25-135.71-564-354.19-28-57.8-47.86-126.5-56-193.52a630.68,630.68,0,0,1-60-267.33v-148c0-345,280.69-625.7,625.7-625.7H455.15c345,0,625.7,280.69,625.7,625.7v148c0,73.85-16.41,158.13-45.06,231.49-9.23,62-28.73,126.56-55,181.92l-1,2.58c-88.94,242-314.58,398.42-574.87,398.42H401c-3.93,0-8,0-12-.11s-8,.11-11.93.11h-6.44C359,1138.65,349.18,1138.76,343,1138.76Z" fill="#2371b9"/><path d="M343,1126.26c-7.95,0-16.06-.16-24.11-.48-8.07.32-16.2.48-24.18.48-9.19,0-18.54-.21-27.8-.63h-9.16c-9.3.42-18.66.63-27.83.63-238.29,0-450.08-133-552.71-347.09-27.58-56.95-47.09-124.66-54.95-190.69-.11-.45-.21-.91-.32-1.37A617.81,617.81,0,0,1-437.5,323.72v-148c0-338.12,275.08-613.2,613.2-613.2H455.15c338.12,0,613.2,275.08,613.2,613.2v148c0,72.86-16.29,156-44.72,228.25-9,61.49-28.27,125.43-54.36,180.27l-1.17,3.12C881,972.44,660,1125.63,405,1125.63h-3.88c-3.91,0-7.94,0-11.95-.12-4,.08-8,.12-11.93.12h-6.71C358.84,1126.15,349.12,1126.26,343,1126.26Z" fill="#00a3e2"/><path d="M343,1113.76c-7.95,0-16.06-.16-24.11-.49-8.06.33-16.2.49-24.18.49-9.1,0-18.36-.21-27.54-.63h-9.68c-9.22.42-18.49.63-27.57.63-233.44,0-440.91-130.28-541.44-340-27.1-56-46.24-122.52-53.89-187.44-.26-1.1-.51-2.22-.77-3.34A605.22,605.22,0,0,1-425,323.72v-148C-425-155.53-155.53-425,175.7-425H455.15c331.23,0,600.7,269.47,600.7,600.7v148c0,71.88-16.17,153.8-44.39,225-8.75,60.93-27.79,124.28-53.7,178.6l-1.38,3.7C871.13,963.1,654.67,1113.13,405,1113.13h-3.88c-3.91,0-7.93,0-11.95-.12-4,.08-8,.12-11.93.12h-7C358.68,1113.65,349.06,1113.76,343,1113.76Z" fill="#2371b9"/><path d="M343,1101.26c-8,0-16.07-.16-24.11-.5-8.05.34-16.18.5-24.18.5-9,0-18.19-.21-27.29-.63H257.24c-9.13.42-18.32.63-27.32.63-228.59,0-431.73-127.56-530.16-332.9-26.64-55-45.4-120.4-52.84-184.19-.4-1.74-.82-3.54-1.22-5.33a592.29,592.29,0,0,1-58.2-255.12v-148c0-324.33,263.87-588.2,588.2-588.2H455.15c324.34,0,588.2,263.87,588.2,588.2v148c0,70.89-16,151.64-44,221.78-8.51,60.39-27.33,123.14-53,176.94l-1.57,4.16c-83.44,227.18-295.31,374-539.73,374h-3.88c-3.91,0-7.93,0-11.95-.12-4,.08-8,.12-11.93.12H370C358.52,1101.15,349,1101.26,343,1101.26Z" fill="#00a3e2"/><path d="M343,1088.76c-8,0-16.06-.17-24.1-.51-8.07.34-16.2.51-24.19.51-8.93,0-18-.21-27-.64H257c-9.05.42-18.15.63-27.06.63C6.19,1088.76-192.64,963.92-289,763c-26.17-54-44.55-118.28-51.77-181-.56-2.37-1.13-4.85-1.68-7.31a579.64,579.64,0,0,1-57.58-251v-148C-400-141.74-141.74-400,175.7-400H455.15c317.44,0,575.7,258.26,575.7,575.7v148c0,69.91-15.92,149.47-43.72,218.55-8.27,59.82-26.85,122-52.39,175.26L933,722.2c-81.63,222.26-288.91,365.93-528,365.93h-3.88c-3.9,0-7.92,0-11.95-.12-4,.08-8,.12-11.93.12h-7.55C358.36,1088.65,348.94,1088.76,343,1088.76Z" fill="#2371b9"/><path d="M343,1076.26c-7.95,0-16.06-.17-24.1-.52-8.07.35-16.2.52-24.19.52-8.84,0-17.85-.21-26.77-.64H256.73c-9,.43-18,.64-26.81.64C11,1076.26-183.47,954.14-277.7,757.55c-25.7-53.06-43.7-116.15-50.71-177.7-.71-3-1.43-6.16-2.12-9.29a566.9,566.9,0,0,1-57-246.84v-148c0-310.55,252.65-563.2,563.2-563.2H455.15c310.55,0,563.2,252.65,563.2,563.2v148c0,68.93-15.8,147.3-43.39,215.31-8,59.26-26.36,120.82-51.73,173.58l-2,5.19C841.46,935.14,638.77,1075.63,405,1075.63h-3.88c-3.9,0-7.92,0-11.95-.13-4,.09-8,.13-11.93.13h-7.81C358.2,1076.15,348.88,1076.26,343,1076.26Z" fill="#00a3e2"/><path d="M343,1063.76c-7.94,0-16.05-.18-24.1-.53-8.08.35-16.21.53-24.19.53-8.76,0-17.68-.21-26.52-.64H256.47c-8.87.43-17.8.64-26.55.64-214,0-404.21-119.4-496.35-311.61-25.22-52.09-42.85-114-49.64-174.46-.87-3.63-1.75-7.49-2.58-11.27A554.24,554.24,0,0,1-375,323.72v-148C-375-128-128-375,175.7-375H455.15c303.66,0,550.7,247,550.7,550.7v148c0,67.94-15.69,145.14-43.07,212.07-7.77,58.71-25.86,119.66-51,171.9l-2.15,5.71c-78,212.42-276.11,349.73-504.63,349.73h-3.88c-3.9,0-7.92,0-11.95-.13-4,.09-8,.13-11.93.13h-8.07C358.06,1063.65,348.82,1063.76,343,1063.76Z" fill="#2371b9"/><path d="M343,1051.26c-7.95,0-16.06-.18-24.1-.54-8.07.36-16.2.54-24.19.54-8.68,0-17.51-.21-26.26-.64H256.21c-8.79.43-17.64.64-26.29.64-209.17,0-395-116.68-485.08-304.51-24.75-51.12-42-111.9-48.57-171.21-1-4.3-2.07-8.84-3-13.27A541.6,541.6,0,0,1-362.5,323.72v-148c0-296.76,241.44-538.2,538.2-538.2H455.15c296.77,0,538.2,241.44,538.2,538.2v148c0,67-15.57,143-42.75,208.83-7.51,58.14-25.36,118.5-50.37,170.21L897.88,709C821.67,916.5,628.17,1050.63,405,1050.63h-3.88c-3.9,0-7.92,0-11.95-.13-4,.09-8,.13-11.93.13H368.9C357.91,1051.15,348.77,1051.26,343,1051.26Z" fill="#00a3e2"/><path d="M343,1038.76c-7.95,0-16.05-.18-24.1-.56-8.07.38-16.21.56-24.19.56-8.58,0-17.33-.21-26-.64H256c-8.71.43-17.46.64-26,.64-204.31,0-385.87-114-473.8-297.42-24.29-50.14-41.16-109.77-47.52-168-1.18-4.92-2.37-10.15-3.46-15.26A528.82,528.82,0,0,1-350,323.72v-148C-350-114.17-114.17-350,175.7-350H455.15c289.87,0,525.7,235.83,525.7,525.7v148c0,66-15.45,140.81-42.44,205.59-7.24,57.57-24.85,117.32-49.68,168.52l-2.55,6.76c-74.4,202.6-263.31,333.56-481.18,333.56h-3.88c-3.89,0-7.91,0-11.95-.13-4,.09-8.05.13-11.93.13h-8.6C357.76,1038.65,348.71,1038.76,343,1038.76Z" fill="#2371b9"/><path d="M343,1026.26c-7.95,0-16.06-.19-24.1-.57-8.06.38-16.2.57-24.19.57-8.49,0-17.15-.21-25.73-.65H255.69c-8.62.44-17.29.65-25.77.65-199.46,0-376.69-111.24-462.53-290.32-23.82-49.17-40.31-107.65-46.45-164.72-1.35-5.56-2.69-11.48-3.9-17.26A516,516,0,0,1-337.5,323.72v-148c0-283,230.22-513.2,513.2-513.2H455.15c283,0,513.2,230.22,513.2,513.2v148c0,65-15.34,138.65-42.14,202.35-7,57-24.32,116.15-49,166.81l-2.75,7.31C801.88,897.85,617.57,1025.63,405,1025.63h-3.88c-3.91,0-7.93,0-11.95-.14-4,.1-8,.14-11.93.14h-8.87C357.61,1026.15,348.65,1026.26,343,1026.26Z" fill="#00a3e2"/><path d="M343,1013.76c-8,0-16.06-.19-24.1-.58-8.06.39-16.19.58-24.19.58-8.37,0-16.91-.21-25.39-.64H255.37c-8.52.43-17.08.64-25.45.64-194.6,0-367.52-108.52-451.26-283.22-23.34-48.2-39.45-105.53-45.38-161.48-1.52-6.22-3-12.82-4.34-19.25A503.44,503.44,0,0,1-325,323.72v-148C-325-100.39-100.39-325,175.7-325H455.15c276.09,0,500.7,224.61,500.7,500.7v148c0,64-15.23,136.49-41.84,199.1-6.68,56.43-23.79,115-48.27,165.11l-3,7.86C792,888.53,612.27,1013.13,405,1013.13h-3.88c-3.92,0-7.94,0-11.95-.14-4,.09-8,.14-11.93.14H368.1C357.45,1013.65,348.59,1013.76,343,1013.76Z" fill="#2371b9"/><path d="M343,1001.26c-8,0-16.06-.2-24.09-.6-8.06.4-16.2.6-24.2.6-8.24,0-16.66-.21-25-.64H255c-8.39.43-16.82.64-25.08.64-189.75,0-358.34-105.8-440-276.13-22.87-47.23-38.6-103.4-44.3-158.23-1.7-6.86-3.34-14.15-4.79-21.25A490.82,490.82,0,0,1-312.5,323.72v-148c0-269.19,219-488.2,488.2-488.2H455.15c269.2,0,488.2,219,488.2,488.2v148c0,63.06-15.13,134.33-41.54,195.86-6.4,55.85-23.26,113.78-47.56,163.4l-3.16,8.41C782.1,879.21,607,1000.63,405,1000.63h-3.88c-3.91,0-7.93,0-11.95-.15-4,.1-8,.15-11.93.15h-9.41C357.3,1001.15,348.53,1001.26,343,1001.26Z" fill="#00a3e2"/><path d="M343,988.76c-8,0-16.06-.2-24.09-.61-8.06.41-16.2.61-24.2.61s-16.42-.21-24.64-.64H254.6c-8.26.43-16.57.64-24.71.64-184.89,0-349.17-103.08-428.71-269-22.41-46.26-37.76-101.28-43.24-155-1.87-7.5-3.66-15.49-5.21-23.26A478,478,0,0,1-300,323.72v-148C-300-86.6-86.6-300,175.7-300H455.15c262.3,0,475.7,213.4,475.7,475.7v148c0,62.09-15,132.17-41.26,192.61-6.1,55.28-22.7,112.59-46.83,161.68l-3.37,9C772.21,869.89,601.67,988.13,405,988.13h-3.88c-3.93,0-7.95,0-11.95-.15-4,.1-8,.15-11.93.15h-9.72C357.14,988.65,348.47,988.76,343,988.76Z" fill="#2371b9"/><path d="M343,976.26c-7.94,0-16-.21-24-.63h-.1c-8,.42-16.17.63-24.15.63s-16.18-.21-24.27-.64H254.26c-8.13.43-16.32.64-24.34.64-180,0-340-100.36-417.44-261.93-21.94-45.3-36.91-99.16-42.16-151.74-2-8.14-4-16.82-5.65-25.27a465.4,465.4,0,0,1-52.17-213.6v-148c0-255.41,207.79-463.2,463.2-463.2H455.15c255.41,0,463.2,207.79,463.2,463.2v148c0,61.12-14.92,130-41,189.37-5.8,54.69-22.13,111.38-46.09,159.95l-3.59,9.54c-65.38,178-231.32,293-422.74,293h-3.88c-3.93,0-7.95,0-11.95-.16-4,.11-8,.16-11.93.16h-9.92C357,976.15,348.42,976.26,343,976.26Z" fill="#00a3e2"/><path d="M343,963.76c-7.83,0-15.81-.21-23.71-.63h-.76c-7.94.42-15.95.63-23.82.63s-15.93-.21-23.9-.63H253.89c-8,.42-16.07.63-24,.63-175.19,0-330.82-97.64-406.17-254.84-21.47-44.32-36.05-97-41.09-148.49-2.23-8.78-4.31-18.15-6.06-27.28A452.5,452.5,0,0,1-275,323.72v-148C-275-72.82-72.82-275,175.7-275H455.15c248.52,0,450.7,202.18,450.7,450.7v148c0,60.16-14.82,127.87-40.71,186.12C859.65,563.92,843.58,620,819.8,668L816,678.18c-63.59,173.11-224.92,285-411,285h-3.88c-3.93,0-7.95,0-11.95-.16-4,.11-8,.16-11.93.16H367C356.83,963.65,348.35,963.76,343,963.76Z" fill="#2371b9"/><path d="M343,951.26c-7.72,0-15.58-.21-23.38-.63H318.2c-7.83.42-15.73.63-23.49.63s-15.67-.21-23.52-.63H253.51c-7.89.42-15.82.63-23.59.63-170.33,0-321.65-94.93-394.9-247.74-21-43.36-35.2-94.92-40-145.25-2.41-9.43-4.64-19.49-6.48-29.29a439.83,439.83,0,0,1-51-205.26v-148c0-241.62,196.58-438.2,438.2-438.2H455.15c241.63,0,438.2,196.58,438.2,438.2v148c0,59.2-14.72,125.72-40.44,182.86-5.18,53.52-21,109-44.59,156.48l-4.05,10.76C742.54,841.94,585.78,950.63,405,950.63h-3.88c-3.91,0-7.94,0-11.95-.17-4,.12-8,.17-11.93.17H366.7C356.68,951.15,348.29,951.26,343,951.26Z" fill="#00a3e2"/><path d="M343,938.76c-7.61,0-15.36-.21-23-.63h-2.1c-7.71.42-15.5.63-23.15.63s-15.41-.21-23.14-.63H253.17c-7.77.42-15.57.63-23.21.63-165.48,0-312.48-92.21-383.63-240.64-20.53-42.39-34.34-92.8-38.93-142-2.6-10.07-5-20.83-6.89-31.3A427.09,427.09,0,0,1-250,323.72v-148C-250-59-59-250,175.7-250H455.15c234.73,0,425.7,191,425.7,425.7v148c0,58.24-14.63,123.57-40.19,179.61-4.85,52.92-20.37,107.76-43.81,154.73l-4.28,11.36C732.64,832.62,580.48,938.13,405,938.13h-3.88c-3.91,0-7.93,0-11.95-.17-4,.12-8,.17-11.93.17H366.45C356.53,938.65,348.24,938.76,343,938.76Z" fill="#2371b9"/><path d="M343,926.26c-7.49,0-15.13-.21-22.7-.63h-2.78c-7.6.42-15.27.63-22.81.63s-15.17-.21-22.76-.63H252.71c-7.63.42-15.31.63-22.83.63-160.62,0-303.3-89.49-372.35-233.55-20-41.42-33.46-90.71-37.81-138.71-2.81-10.71-5.32-22.17-7.3-33.32a414.27,414.27,0,0,1-49.92-197v-148c0-227.84,185.36-413.2,413.2-413.2H455.15c227.84,0,413.2,185.36,413.2,413.2v148c0,57.28-14.54,121.42-40,176.35-4.51,52.33-19.75,106.54-43,153l-4.51,12C722.75,823.3,575.18,925.63,405,925.63h-3.88c-3.91,0-7.93-.06-11.95-.17-4,.11-8,.17-11.93.17H366.18C356.38,926.15,348.18,926.26,343,926.26Z" fill="#00a3e2"/><path d="M343,913.76c-7.38,0-14.9-.21-22.35-.63h-3.48c-7.48.42-15,.63-22.46.63s-14.92-.21-22.39-.63H252.38c-7.51.42-15.07.63-22.46.63C74.15,913.76-64.21,827-131.16,687.31c-19.6-40.46-32.65-88.56-36.76-135.52-3-11.36-5.66-23.51-7.71-35.35A401.68,401.68,0,0,1-225,323.72v-148C-225-45.25-45.25-225,175.7-225H455.15c221,0,400.7,179.75,400.7,400.7v148c0,56.33-14.46,119.28-39.73,173.09A417.54,417.54,0,0,1,773.91,648l-4.74,12.59C712.86,814,569.88,913.13,405,913.13h-3.88c-3.91,0-7.94-.06-11.95-.18-4,.12-8,.18-11.93.18H365.92C356.23,913.65,348.12,913.76,343,913.76Z" fill="#2371b9"/><path d="M343,901.26c-7.26,0-14.66-.21-22-.63h-4.19c-7.35.42-14.79.63-22.1.63s-14.67-.21-22-.63H252c-7.39.42-14.82.63-22.09.63C79,901.26-55,817.21-119.89,681.91c-19.13-39.5-31.79-86.45-35.67-132.28-3.22-12-6-24.86-8.1-37.37A388.84,388.84,0,0,1-212.5,323.72v-148c0-214,174.15-388.2,388.2-388.2H455.15c214.06,0,388.2,174.15,388.2,388.2v148c0,55.39-14.38,117.14-39.51,169.83C800.05,544.68,785.4,597.62,762.45,643l-5,13.21C703,804.66,564.57,900.63,405,900.63h-3.88c-3.92,0-7.94-.06-11.95-.19-4,.13-8,.19-11.93.19H365.65C356.08,901.15,348.07,901.26,343,901.26Z" fill="#00a3e2"/><path d="M343,888.76c-7.15,0-14.42-.21-21.63-.63h-4.92c-7.23.42-14.55.63-21.74.63s-14.42-.21-21.66-.63H251.61c-7.28.42-14.58.63-21.73.63-146.06,0-275.78-81.33-338.54-212.26-18.66-38.53-30.93-84.32-34.58-129a388.84,388.84,0,0,1-8.48-39.39A376.28,376.28,0,0,1-200,323.72v-148C-200-31.46-31.46-200,175.7-200H455.15c207.16,0,375.7,168.54,375.7,375.7v148c0,54.45-14.31,115-39.31,166.57A390.83,390.83,0,0,1,751,638l-5.21,13.85C693.07,795.34,559.27,888.13,405,888.13h-3.88c-3.91,0-7.93-.06-12-.19-4,.13-8,.19-11.92.19H365.39C355.92,888.64,348,888.76,343,888.76Z" fill="#2371b9"/><path d="M343,876.26c-7,0-14.18-.21-21.27-.63h-5.64c-7.11.42-14.3.63-21.38.63s-14.18-.21-21.29-.63H251.29c-7.16.42-14.34.63-21.37.63-141.2,0-266.61-78.61-327.27-205.16-18.19-37.57-30.07-82.21-33.48-125.8a375,375,0,0,1-8.86-41.43A363.55,363.55,0,0,1-187.5,323.72v-148c0-200.27,162.93-363.2,363.2-363.2H455.15c200.27,0,363.2,162.93,363.2,363.2v148c0,53.51-14.24,112.87-39.13,163.3A377,377,0,0,1,739.53,632.9l-5.45,14.51C683.18,786,554,875.63,405,875.63h-3.88c-3.92,0-7.94-.06-12-.2-4,.14-8,.2-11.92.2h-5.5c-2.17,0-4.38,0-6.58-.06C355.77,876.14,348,876.26,343,876.26Z" fill="#00a3e2"/><path d="M343,863.76c-6.91,0-13.94-.21-20.89-.63h-6.39c-7,.42-14.05.63-21,.63s-13.94-.21-20.92-.63H250.94c-7,.42-14.1.63-21,.63-136.35,0-257.43-75.89-316-198.06-17.73-36.61-29.23-80.1-32.39-122.57a361.82,361.82,0,0,1-9.22-43.46A350.74,350.74,0,0,1-175,323.72v-148C-175-17.68-17.68-175,175.7-175H455.15c193.38,0,350.7,157.32,350.7,350.7v148c0,52.58-14.18,110.75-39,160A363.48,363.48,0,0,1,728,627.79L722.38,643C673.28,776.7,548.67,863.13,405,863.13h-3.88c-3.91,0-7.93-.07-12-.21-4,.14-8,.21-11.92.21h-5.5c-2.25,0-4.55,0-6.84-.07C355.63,863.64,347.9,863.76,343,863.76Z" fill="#2371b9"/><path d="M343,851.26c-6.79,0-13.69-.21-20.53-.63h-7.13c-6.85.42-13.79.63-20.63.63s-13.69-.21-20.55-.63h-23.6c-6.92.42-13.86.63-20.64.63-131.49,0-248.26-73.17-304.72-191-17.27-35.65-28.37-78-31.29-119.32a348,348,0,0,1-9.57-45.5A338.14,338.14,0,0,1-162.5,323.72v-148c0-186.48,151.72-338.2,338.2-338.2H455.15c186.49,0,338.2,151.72,338.2,338.2v148c0,51.66-14.12,108.62-38.82,156.75a349.82,349.82,0,0,1-37.89,142.29l-6,15.85c-47.29,128.76-167.31,212-305.73,212H401c-3.91,0-7.93-.07-12-.22-4,.15-8,.22-11.92.22H371.7c-2.33,0-4.72,0-7.1-.07C355.48,851.14,347.84,851.26,343,851.26Z" fill="#00a3e2"/><path d="M343,838.76c-6.67,0-13.45-.21-20.17-.63H315c-6.73.42-13.54.63-20.25.63s-13.44-.21-20.18-.63H250.23c-6.79.42-13.61.63-20.27.63-126.64,0-239.09-70.45-293.45-183.87C-80.33,620.2-91,579-93.71,538.8a332,332,0,0,1-9.91-47.54A325.38,325.38,0,0,1-150,323.72v-148C-150-3.89-3.89-150,175.7-150H455.15c179.59,0,325.7,146.11,325.7,325.7v148c0,50.75-14.08,106.5-38.7,153.47a336.17,336.17,0,0,1-36.95,140.5L699,634.21C653.5,758.05,538.07,838.13,405,838.13h-3.88c-3.91,0-7.93-.07-12-.22-4,.15-8,.22-11.92.22h-5.5c-2.41,0-4.88,0-7.37-.08C355.33,838.64,347.78,838.76,343,838.76Z" fill="#2371b9"/><path d="M343,826.26c-6.55,0-13.22-.21-19.82-.63h-8.6c-6.6.42-13.28.63-19.87.63s-13.19-.21-19.79-.63H249.81c-6.66.42-13.35.63-19.89.63C108.14,826.26,0,758.53-52.26,649.49-68.6,615.75-78.9,575.71-81.32,536.63A317.93,317.93,0,0,1-91.56,487,312.75,312.75,0,0,1-137.5,323.72v-148C-137.5,3,3-137.5,175.7-137.5H455.15c172.7,0,313.2,140.5,313.2,313.2v148c0,49.84-14,104.39-38.61,150.19a322.46,322.46,0,0,1-36,138.65l-6.49,17.25C643.6,748.73,532.77,825.63,405,825.63h-3.88c-3.93,0-7.95-.08-12-.23-4,.15-8,.23-11.92.23h-5.5c-2.51,0-5.07,0-7.63-.09C355.18,826.14,347.73,826.26,343,826.26Z" fill="#00a3e2"/><path d="M343,813.76c-6.44,0-13-.21-19.47-.64h-9.32c-6.47.42-13,.63-19.5.63s-12.93-.21-19.4-.63H249.42c-6.53.42-13.08.63-19.5.63C113,813.76,9.18,748.75-41,644.08c-15.87-32.78-25.78-71.66-27.94-109.62a305,305,0,0,1-10.55-51.64A299.94,299.94,0,0,1-125,323.72v-148C-125,9.89,9.89-125,175.7-125H455.15C621-125,755.85,9.89,755.85,175.7v148c0,48.94-14,102.28-38.54,146.89a308.84,308.84,0,0,1-35,136.83l-6.76,18C633.71,739.41,527.47,813.13,405,813.13h-3.88c-3.93,0-7.95-.08-12-.25-4,.17-8,.25-11.92.25h-5.5c-2.61,0-5.26,0-7.89-.1C355,813.63,347.67,813.76,343,813.76Z" fill="#2371b9"/><path d="M343,801.26c-6.33,0-12.76-.21-19.12-.64h-10c-6.35.42-12.79.63-19.14.63s-12.67-.21-19-.63H249c-6.39.42-12.81.63-19.1.63C117.84,801.26,18.36,739-29.71,638.68c-15.42-31.83-24.93-69.56-26.82-106.39a290,290,0,0,1-10.83-53.7A287.31,287.31,0,0,1-112.5,323.72v-148c0-158.91,129.29-288.2,288.2-288.2H455.15c158.92,0,288.2,129.29,288.2,288.2v148c0,48-14,100.18-38.51,143.59a295.63,295.63,0,0,1-33.92,135l-7,18.7C623.82,730.09,522.17,800.63,405,800.63h-3.88c-3.93,0-7.95-.08-12-.26-4,.18-8,.26-11.92.26h-5.5c-2.7,0-5.43,0-8.15-.12C354.88,801.13,347.62,801.26,343,801.26Z" fill="#00a3e2"/><path d="M343,788.76c-6.21,0-12.52-.21-18.76-.65H313.48c-6.23.43-12.54.64-18.77.64s-12.39-.21-18.58-.63H248.61c-6.24.42-12.53.63-18.69.63-107.22,0-202.39-59.57-248.36-155.48-15-30.88-24.06-67.46-25.68-103.17a275.85,275.85,0,0,1-11.1-55.76A274.61,274.61,0,0,1-100,323.72v-148C-100,23.68,23.68-100,175.7-100H455.15c152,0,275.7,123.68,275.7,275.7v148c0,47.18-14,98.09-38.52,140.29v2.44a282.58,282.58,0,0,1-32.84,130.7l-7.32,19.45C613.92,720.77,516.87,788.13,405,788.13h-3.88c-3.93,0-7.95-.09-12-.27-4,.18-8,.27-11.92.27h-5.5c-2.78,0-5.61,0-8.41-.13C354.74,788.63,347.56,788.76,343,788.76Z" fill="#2371b9"/><path d="M343,776.26c-6.08,0-12.28-.22-18.41-.65H313.11c-6.11.43-12.3.64-18.4.64s-12.11-.21-18.16-.63H248.19c-6.1.42-12.24.63-18.27.63C127.55,776.25,36.7,719.4-7.17,627.87c-14.5-29.93-23.19-65.37-24.53-100A261.34,261.34,0,0,1-43,470.11,262,262,0,0,1-87.5,323.72v-148C-87.5,30.57,30.57-87.5,175.7-87.5H455.15c145.13,0,263.2,118.07,263.2,263.2v148c0,46.32-14,96-38.58,137,.05,1.93.07,3.86.07,5.76A269.72,269.72,0,0,1,648.09,592l-7.61,20.23C604,711.45,511.56,775.63,405,775.63h-3.88c-3.92,0-7.94-.09-12-.28-4,.19-8,.28-11.92.28h-5.5c-2.86,0-5.77,0-8.67-.15C354.59,776.13,347.51,776.26,343,776.26Z" fill="#00a3e2"/><path d="M343,763.76c-6,0-12-.22-18.06-.66H312.6c-5.94.43-12,.64-17.89.64s-11.83-.21-17.72-.63H247.76c-5.95.42-11.95.63-17.84.63-97.51,0-184-54.14-225.82-141.29-14-29-22.32-63.27-23.37-96.72a247.93,247.93,0,0,1-11.55-59.89A249.57,249.57,0,0,1-75,323.72v-148C-75,37.46,37.46-75,175.7-75H455.15c138.24,0,250.7,112.46,250.7,250.7v148c0,45.47-14.06,93.94-38.69,133.64.12,3.06.18,6.11.18,9.09a256.77,256.77,0,0,1-30.65,120.33l-7.91,21C594.14,702.13,506.26,763.13,405,763.13h-3.88c-3.93,0-7.95-.1-12-.3-4,.2-8,.3-11.92.3h-5.5c-2.93,0-5.93,0-8.93-.17C354.45,763.62,347.45,763.76,343,763.76Z" fill="#2371b9"/><path d="M343,751.26c-5.86,0-11.82-.22-17.71-.67H312.08c-5.76.42-11.61.63-17.37.63s-11.53-.21-17.28-.63H247.32c-5.8.42-11.65.63-17.4.63C137.26,751.22,55.05,699.8,15.38,617c-13.59-28-21.45-61.18-22.2-93.5a233.93,233.93,0,0,1-11.73-62c-.49-.69-1-1.38-1.45-2.06A237.08,237.08,0,0,1-62.5,323.72v-148C-62.5,44.36,44.36-62.5,175.7-62.5H455.15c131.35,0,238.2,106.86,238.2,238.2v148c0,44.64-14.12,91.87-38.85,130.28.22,4.21.34,8.38.34,12.45A243.92,243.92,0,0,1,625.3,581.57l-8.22,21.83C584.25,692.8,501,750.63,405,750.63h-3.88c-3.93,0-7.95-.1-12-.31-4,.21-8,.31-11.92.31h-5.5c-3,0-6.1-.06-9.19-.18C354.3,751.12,347.4,751.26,343,751.26Z" fill="#00a3e2"/><path d="M343,738.76c-5.74,0-11.58-.22-17.36-.68H311.53c-5.6.42-11.27.63-16.86.63s-11.23-.21-16.82-.63h-31c-5.64.42-11.33.63-16.94.63-87.8,0-165.69-48.7-203.27-127.09-13.13-27.11-20.57-59.1-21-90.29a220.29,220.29,0,0,1-11.83-64c-1.2-1.64-2.38-3.28-3.52-4.92A224.74,224.74,0,0,1-50,323.72v-148C-50,51.25,51.25-50,175.7-50H455.15c124.45,0,225.7,101.25,225.7,225.7v148c0,43.83-14.2,89.81-39.09,126.91.38,5.36.58,10.67.58,15.82a231.07,231.07,0,0,1-28.43,109.88L605.38,599c-31,84.49-109.72,139.14-200.43,139.14h-3.88c-3.93,0-7.95-.11-12-.33-4,.22-8,.33-11.92.33H371.7c-3.1,0-6.27-.07-9.45-.21C354.16,738.62,347.34,738.76,343,738.76Z" fill="#2371b9"/><path d="M343,726.26c-5.62,0-11.34-.23-17-.69-1.7,0-3.4.06-5.06.06h-9.88c-5.42.42-10.92.63-16.35.63s-10.91-.21-16.35-.63H246.42c-5.47.42-11,.63-16.47.63-82.95,0-156.52-46-192-120-12.68-26.17-19.69-57-19.8-87.07A206.36,206.36,0,0,1,6.18,453q-2.92-3.84-5.65-7.76a212.27,212.27,0,0,1-38-121.55v-148c0-117.56,95.64-213.2,213.2-213.2H455.15c117.56,0,213.2,95.64,213.2,213.2v148c0,43-14.31,87.76-39.41,123.49.6,6.54.9,13,.9,19.24A218.25,218.25,0,0,1,602.54,571l-8.85,23.52c-29.23,79.57-103.33,131-188.74,131h-3.88c-3.94,0-8-.12-12-.35-4,.23-8,.35-11.92.35H371.7c-3.18,0-6.44-.08-9.7-.23C354,726.11,347.29,726.26,343,726.26Z" fill="#00a3e2"/><path d="M343,713.76c-5.51,0-11.11-.23-16.67-.7-1.82.05-3.63.07-5.4.07H310.51c-5.25.42-10.58.63-15.84.63s-10.59-.21-15.86-.63H245.87c-5.31.42-10.69.63-16,.63-78.09,0-147.35-43.26-180.73-112.9A193.6,193.6,0,0,1,30.62,517a192.76,192.76,0,0,1-11.95-68.27c-2.75-3.45-5.38-7-7.87-10.58A199.8,199.8,0,0,1-25,323.72v-148C-25,65,65-25,175.7-25H455.15c110.67,0,200.7,90,200.7,200.7v148c0,42.27-14.46,85.71-39.83,120a200.53,200.53,0,0,1-24.85,122L582,590.19c-27.42,74.65-96.93,122.94-177,122.94h-3.88c-3.94,0-8-.12-12-.38-4,.26-8,.38-11.92.38h-5.5c-3.28,0-6.62-.09-10-.26C353.87,713.61,347.24,713.76,343,713.76Z" fill="#2371b9"/><path d="M343,701.26c-5.39,0-10.88-.24-16.32-.72-1.93.06-3.87.09-5.75.09H310c-5.08.42-10.23.63-15.33.63s-10.26-.21-15.37-.63H245.38c-5.15.42-10.36.63-15.5.63-73.24,0-138.17-40.54-169.46-105.8a179.32,179.32,0,0,1-17.3-80.67,179.09,179.09,0,0,1-11.9-70.4c-3.59-4.31-7-8.79-10.19-13.38A187.38,187.38,0,0,1-12.5,323.72v-148C-12.5,72,71.93-12.48,175.7-12.48H455.15c103.78,0,188.2,84.43,188.2,188.2v148c0,41.54-14.65,83.68-40.37,116.54a188.32,188.32,0,0,1-23.16,120.2l-9.53,25.33C544.68,655.52,479.76,700.63,405,700.63h-3.88c-3.94,0-8-.13-12-.4-4,.27-8,.4-11.92.4h-5.5c-3.36,0-6.79-.1-10.22-.29C353.73,701.1,347.19,701.26,343,701.26Z" fill="#00a3e2"/><path d="M343,688.76c-5.29,0-10.65-.25-16-.74-2,.08-4.1.11-6.1.11H309.46c-4.91.42-9.89.63-14.82.63s-9.95-.21-14.9-.63H245q-7.5.63-15,.63c-68.38,0-129-37.82-158.18-98.71a166.21,166.21,0,0,1-16-77.47A167.84,167.84,0,0,1,44,440a179,179,0,0,1-12.64-16.15A174.86,174.86,0,0,1,0,323.72v-148C0,78.82,78.82,0,175.7,0H455.15C552,0,630.85,78.82,630.85,175.7v148a178.19,178.19,0,0,1-41.06,113,176.21,176.21,0,0,1-21.32,118.42l-9.88,26.28C534.78,646.2,474.46,688.13,405,688.13h-3.88c-3.95,0-8-.14-12-.43-4,.29-8,.43-11.91.43H371.7c-3.45,0-7-.11-10.47-.33A179.08,179.08,0,0,1,343,688.76Z" fill="#2371b9"/><path d="M343,676.26c-5.18,0-10.43-.25-15.62-.76-2.16.09-4.33.13-6.45.13H309c-4.73.42-9.53.63-14.28.63s-9.63-.21-14.43-.64h-35.8c-4.84.43-9.73.64-14.56.64-63.53,0-119.83-35.1-146.91-91.61a153.3,153.3,0,0,1-14.67-74.28,153.63,153.63,0,0,1-11.46-74.73,164.73,164.73,0,0,1-15.27-18.88,162.48,162.48,0,0,1-29.11-93v-148c0-90,73.21-163.2,163.2-163.2H455.15c90,0,163.2,73.21,163.2,163.2v148a164.56,164.56,0,0,1-42,109.34,164,164,0,0,1-19.26,116.67L546.89,577c-22,59.9-77.73,98.65-141.94,98.65h-3.88c-3.95,0-8-.15-12-.47-4,.32-8,.47-11.91.47H371.7c-3.54,0-7.14-.12-10.72-.38A168.68,168.68,0,0,1,343,676.26Z" fill="#00a3e2"/><path d="M343,663.76a147.24,147.24,0,0,1-15.28-.79c-2.27.11-4.55.16-6.79.16H308.39c-4.54.42-9.15.63-13.72.63s-9.33-.22-14-.65h-7.62c-1.37,0-2.77,0-4.19-.06s-2.81.06-4.19.06h-5c-1.37,0-2.77,0-4.18-.06s-2.82.06-4.19.06h-7.45c-4.68.44-9.41.65-14.09.65-58.67,0-110.65-32.38-135.64-84.51A140.48,140.48,0,0,1,81,508.14,140.28,140.28,0,0,1,69.82,432.6l.18-1.41a152.45,152.45,0,0,1-18.13-21.56A150,150,0,0,1,25,323.72v-148C25,92.6,92.6,25,175.7,25H455.15c83.1,0,150.7,67.6,150.7,150.7v148a151,151,0,0,1-43.1,105.61,151.87,151.87,0,0,1-16.92,115l-10.64,28.28c-20.19,55-71.33,90.55-130.24,90.55h-3.88q-6,0-12-.51c-4,.34-8,.51-11.91.51H371.7c-3.62,0-7.3-.14-11-.43A153.87,153.87,0,0,1,343,663.76Z" fill="#2371b9"/><path d="M343,651.26a135.41,135.41,0,0,1-14.93-.83c-2.38.14-4.78.2-7.14.2H307.81c-4.35.42-8.77.63-13.14.63s-9-.22-13.5-.66h-8.08c-1.37,0-2.78,0-4.19-.06s-2.81.06-4.19.06h-5c-1.37,0-2.78,0-4.18-.06s-2.82.06-4.19.06h-7.91c-4.52.44-9.1.66-13.63.66-53.82,0-101.48-29.66-124.37-77.42A127.43,127.43,0,0,1,93.6,506.36c-.09-.36-.17-.72-.25-1.09a127.22,127.22,0,0,1-11.26-71l.35-2.74c.29-2.08.4-2.75.5-3.42.08-.51.16-1,.25-1.53a139.13,139.13,0,0,1-21-24.08A137.49,137.49,0,0,1,37.5,323.72v-148c0-76.2,62-138.2,138.2-138.2H455.15c76.21,0,138.2,62,138.2,138.2v148A137.41,137.41,0,0,1,548.73,425.5a139.53,139.53,0,0,1-14.2,113.33c-.73,2-11,29.35-11,29.35C505.15,618.23,458.6,650.63,405,650.63h-3.88q-6,0-12-.56c-4,.37-7.95.56-11.9.56H371.7c-3.71,0-7.47-.16-11.2-.49A142.16,142.16,0,0,1,343,651.26Z" fill="#00a3e2"/><path d="M343,638.76a122.6,122.6,0,0,1-14.59-.87c-2.49.16-5,.24-7.48.24H307.17a124.76,124.76,0,0,1-25.53,0H273.1c-1.38,0-2.79,0-4.19-.07s-2.8.07-4.19.07h-5c-1.38,0-2.79,0-4.18-.07s-2.81.07-4.19.07H243a126,126,0,0,1-13.17.68c-49,0-92.3-26.94-113.1-70.32a114.62,114.62,0,0,1-10.43-62.93c-.38-1.45-.72-2.92-1-4.38A114.54,114.54,0,0,1,94.6,435.9l.36-2.78c.25-1.83.35-2.45.45-3.06.42-2.75,1-5.51,1.59-8.26a126,126,0,0,1-47-98.08v-148A125.84,125.84,0,0,1,175.7,50H455.15a125.84,125.84,0,0,1,125.7,125.7v148a125.46,125.46,0,0,1-46.66,97.8,127.14,127.14,0,0,1-11,111.81h0c-.22.62-.22.62-10.5,27.92l-.93,2.48c-16.58,45.13-58.53,74.35-106.84,74.35H401a117.32,117.32,0,0,1-12-.62,115.38,115.38,0,0,1-11.9.62H371.7c-3.79,0-7.63-.19-11.44-.57A127.77,127.77,0,0,1,343,638.76Z" fill="#2371b9"/><path d="M343,626.26a109.41,109.41,0,0,1-14.25-.93c-2.61.2-5.23.3-7.82.3H306.55a112.28,112.28,0,0,1-11.88.63,110.26,110.26,0,0,1-12.58-.71c-1.34.06-2.68.08-4,.08h-5c-1.38,0-2.79,0-4.18-.08s-2.81.08-4.2.08h-5c-1.38,0-2.79,0-4.18-.08s-2.81.08-4.19.08h-5c-1.26,0-2.54,0-3.82-.07a115,115,0,0,1-12.72.7C185.69,626.26,146.67,602,128,563a101.85,101.85,0,0,1-9-58.37c-.71-2.54-1.33-5.11-1.85-7.69A101.64,101.64,0,0,1,107,437.55l.37-2.81c.21-1.59.3-2.16.39-2.71a102.24,102.24,0,0,1,3.56-15.15A113.38,113.38,0,0,1,62.5,323.72v-148A113.32,113.32,0,0,1,175.7,62.5H455.15a113.33,113.33,0,0,1,113.2,113.2v148a112.84,112.84,0,0,1-49.5,93.62,114.62,114.62,0,0,1-6.92,110.49l-.45,1.27c-.21.58-.64,1.71-11.39,30.27C485.32,599.59,448,625.63,405,625.63h-3.88a102.36,102.36,0,0,1-12-.7,100.62,100.62,0,0,1-11.89.7H371.7A99.37,99.37,0,0,1,360,625,115.18,115.18,0,0,1,343,626.26Z" fill="#00a3e2"/><path d="M343,613.76a96.76,96.76,0,0,1-13.92-1c-2.72.25-5.45.37-8.15.37H305.87a99.49,99.49,0,0,1-23.33-.11c-1.49.08-3,.11-4.45.11h-5c-1.38,0-2.78,0-4.18-.09s-2.81.09-4.2.09h-5c-1.38,0-2.78,0-4.18-.09s-2.81.09-4.19.09h-5c-1.41,0-2.84,0-4.27-.1a102.68,102.68,0,0,1-12.27.73c-39.26,0-74-21.5-90.55-56.13a89,89,0,0,1-7.48-53.81,90.5,90.5,0,0,1-2.7-11,88.79,88.79,0,0,1-9.81-53.61l.37-2.86c.19-1.35.27-1.86.35-2.37a87.47,87.47,0,0,1,6.53-22.28,100.8,100.8,0,0,1-51.63-88v-148A100.8,100.8,0,0,1,175.7,75H455.15a100.81,100.81,0,0,1,100.7,100.7v148a100.5,100.5,0,0,1-53.7,89.08,102,102,0,0,1-1.56,109.54c-.28.84-.57,1.68-.86,2.49-.18.5-.82,2.19-11.34,30.14A88,88,0,0,1,405,613.13h-3.88a90.93,90.93,0,0,1-12-.8,89.17,89.17,0,0,1-11.89.8H371.7a89.12,89.12,0,0,1-11.88-.79A103,103,0,0,1,343,613.76Z" fill="#2371b9"/><path d="M343,601.26a84.74,84.74,0,0,1-13.59-1.1,75.18,75.18,0,0,1-8.48.47H305.17a87.42,87.42,0,0,1-22.16-.15c-1.64.1-3.28.15-4.9.15h-5c-1.38,0-2.79,0-4.18-.11-1.41.08-2.81.11-4.2.11h-5c-1.38,0-2.78,0-4.18-.11-1.4.08-2.81.11-4.19.11h-5c-1.56,0-3.14,0-4.71-.14a91.68,91.68,0,0,1-11.83.77c-34.4,0-64.78-18.79-79.28-49a76.43,76.43,0,0,1-6-48.31v-1.6a76.76,76.76,0,0,1-3.4-13.69,75.91,75.91,0,0,1-9.39-47.77l.38-2.89c.15-1.12.22-1.57.29-2a76.11,76.11,0,0,1,11.48-30,88.24,88.24,0,0,1-56.4-82.3v-148a88.3,88.3,0,0,1,88.2-88.2H455.15a88.3,88.3,0,0,1,88.2,88.2v148a88.35,88.35,0,0,1-60.71,83.82,88,88,0,0,1,22.2,58.91,89.21,89.21,0,0,1-15.62,50.39c-.38,1.26-.8,2.51-1.24,3.73-.15.41-1.31,3.5-11.31,30a75.66,75.66,0,0,1-71.72,50h-3.88a77.75,77.75,0,0,1-12-.93,76.21,76.21,0,0,1-11.88.93H371.7a76.29,76.29,0,0,1-12.07-1A89.36,89.36,0,0,1,343,601.26Z" fill="#00a3e2"/><path d="M343,588.76a72.12,72.12,0,0,1-13.28-1.23,64.58,64.58,0,0,1-8.79.6h-5c-1,0-1.92,0-2.89-.06s-1.92.06-2.87.06h-5.8a74.93,74.93,0,0,1-20.95-.22c-1.77.15-3.56.22-5.33.22h-5c-1.38,0-2.79,0-4.18-.13-1.4.09-2.81.13-4.2.13h-5c-1.38,0-2.79,0-4.18-.13-1.4.09-2.81.13-4.19.13h-5c-1.7,0-3.43-.07-5.14-.21a77.58,77.58,0,0,1-11.4.84c-29.55,0-55.61-16.07-68-41.93A63.69,63.69,0,0,1,157,505c-.06-1.31-.09-2.62-.08-3.92v-1a63.12,63.12,0,0,1-3.87-15.72A63.05,63.05,0,0,1,144,442.48l.38-2.93c.12-.88.18-1.26.24-1.65a63.29,63.29,0,0,1,22-39A75.81,75.81,0,0,1,100,323.72v-148A75.78,75.78,0,0,1,175.7,100H455.15a75.79,75.79,0,0,1,75.7,75.7v148a75.79,75.79,0,0,1-75.7,75.71H451.9c24.33,12.34,40.44,37.83,40.44,67A76.28,76.28,0,0,1,477.8,511.3q-.69,2.52-1.57,5c-.12.33-2,5.36-11.27,30a63.26,63.26,0,0,1-60,41.86h-3.88a64.42,64.42,0,0,1-12-1.12,63,63,0,0,1-11.87,1.12H371.7A63.79,63.79,0,0,1,359.45,587,76.44,76.44,0,0,1,343,588.76Z" fill="#2371b9"/><path d="M455.15,112.5H175.7a63.27,63.27,0,0,0-63.2,63.2v148a63.28,63.28,0,0,0,63.2,63.21H189a49.72,49.72,0,0,0,6.75,11.15,50.74,50.74,0,0,0-38.65,41.82c0,.32-.1.64-.19,1.3l-.39,3a50.74,50.74,0,0,0,8.84,36,51.44,51.44,0,0,0,4.29,17.76c-.06,1.09-.11,2.18-.12,3.28,0,1.66.05,3.32.17,5a51,51,0,0,0,3.45,35.25c10.31,21.49,32,34.84,56.74,34.84a65.34,65.34,0,0,0,11-.93,51.46,51.46,0,0,0,5.55.3h5a34.62,34.62,0,0,0,4.19-.17c1.39.12,2.79.17,4.18.17h5a34.46,34.46,0,0,0,4.19-.17c1.4.12,2.8.17,4.19.17h5a50.24,50.24,0,0,0,5.75-.32,62.17,62.17,0,0,0,19.68.32h6.65c1,0,1.92,0,2.87-.08s1.93.08,2.89.08h5a51.29,51.29,0,0,0,9.09-.81,58.66,58.66,0,0,0,13,1.44,64.57,64.57,0,0,0,16.31-2.15,51.2,51.2,0,0,0,12.39,1.52h5.49a50.86,50.86,0,0,0,11.85-1.4,52.13,52.13,0,0,0,12,1.4H405A50.87,50.87,0,0,0,453.29,542c7.64-20.33,11.14-29.62,11.23-29.88a50.42,50.42,0,0,0,1.82-6.23,63.29,63.29,0,0,0,13.55-39.37c0-31.52-21.84-56.87-51.29-61.62A50.23,50.23,0,0,0,441.88,387H455.2a63.28,63.28,0,0,0,63.2-63.21v-148A63.26,63.26,0,0,0,455.15,112.5Z" fill="#00a3e2"/><path d="M234.85,404.44a37.58,37.58,0,0,1-36.74-30H175.7A50.78,50.78,0,0,1,125,323.72v-148A50.78,50.78,0,0,1,175.7,125H455.15a50.75,50.75,0,0,1,50.7,50.7v148a50.76,50.76,0,0,1-50.7,50.71h-22.4a37.58,37.58,0,0,1-36.75,30Z" fill="#2371b9"/><path d="M234.85,391.94a25,25,0,0,1-25-25,26.07,26.07,0,0,1,.51-5H175.7a38.25,38.25,0,0,1-38.2-38.21v-148a38.25,38.25,0,0,1,38.2-38.2H455.15a38.25,38.25,0,0,1,38.2,38.2v148a38.25,38.25,0,0,1-38.2,38.21H420.48A25,25,0,0,1,401,391.43a24.71,24.71,0,0,1-5,.51Z" fill="#00a3e2"/><path d="M343,563.76A46.07,46.07,0,0,1,330.27,562a38.64,38.64,0,0,1-9.34,1.14h-5A27.53,27.53,0,0,1,313,563a27.43,27.43,0,0,0-2.87.1h-7.46a49.73,49.73,0,0,1-18.48-.47,38.2,38.2,0,0,1-6.13.49h-5a39.07,39.07,0,0,1-4.19-.22,39.07,39.07,0,0,1-4.19.22h-5a38.88,38.88,0,0,1-4.18-.22,39.07,39.07,0,0,1-4.19.22h-5a39,39,0,0,1-5.91-.45,52,52,0,0,1-10.63,1.08c-19.84,0-37.26-10.63-45.47-27.74a38.8,38.8,0,0,1-2.06-28.67,51.16,51.16,0,0,1-.33-6.06,49,49,0,0,1,.4-5.68,38.69,38.69,0,0,1-4.66-18.35V475.8a38.19,38.19,0,0,1-8.86-29.95l.39-3c.07-.45.1-.71.14-1a38.43,38.43,0,0,1,38.18-32.64H230.4a38.42,38.42,0,0,1,23.9,8.23l1.64.35a38.38,38.38,0,0,1,7.25-.69H281a38.66,38.66,0,0,1,6.87.62,53.41,53.41,0,0,1,11.55-1.25,52.5,52.5,0,0,1,10.75,1.09,37.17,37.17,0,0,1,5.87-.46h1.59a41.51,41.51,0,0,1,54.39.57c.56.13,1.12.26,1.67.41a54.1,54.1,0,0,1,23.82-.54,38.08,38.08,0,0,1,5.44-.4h7.46a48.7,48.7,0,0,1,8-.66c27.39,0,48.85,21.94,48.85,49.94a50.83,50.83,0,0,1-12.73,33.85,38.07,38.07,0,0,1-1.89,7.49l-11.21,29.79A38.46,38.46,0,0,1,405,563.13h-3.88A39.88,39.88,0,0,1,389,561.27a38.59,38.59,0,0,1-11.83,1.86H371.7a38.91,38.91,0,0,1-12.47-2.06A51.47,51.47,0,0,1,343,563.76Z" fill="#2371b9"/><path d="M343,551.26a33.37,33.37,0,0,1-12.56-2.42,25.81,25.81,0,0,1-9.51,1.79h-5a25.32,25.32,0,0,1-2.89-.16,25,25,0,0,1-2.87.16H304a17.91,17.91,0,0,1-2.07-.08,37,37,0,0,1-17.4-.72,26.28,26.28,0,0,1-6.43.8h-5a26.79,26.79,0,0,1-4.19-.33,26.79,26.79,0,0,1-4.19.33h-5a26.57,26.57,0,0,1-4.18-.33,26.79,26.79,0,0,1-4.19.33h-5a26.25,26.25,0,0,1-6.18-.74,39,39,0,0,1-10.36,1.37c-15,0-28.09-7.91-34.19-20.64a26.38,26.38,0,0,1-.49-22,35.46,35.46,0,0,1-.68-7.27,33.05,33.05,0,0,1,1.13-8.28,25.87,25.87,0,0,1-5.39-15.84v-6.67a25.15,25.15,0,0,1-9-23.12l.4-3a3.16,3.16,0,0,1,.09-.62,26,26,0,0,1,25.83-22.1H230.4a26.1,26.1,0,0,1,18.39,7.52,38.86,38.86,0,0,1,7,1.45,25.71,25.71,0,0,1,7.39-1.08H281a25.91,25.91,0,0,1,7,1,41.14,41.14,0,0,1,21.88-.23,25.75,25.75,0,0,1,6.12-.74h6.65a29,29,0,0,1,40.92-2.7,28.6,28.6,0,0,1,2.42,2.38,35.62,35.62,0,0,1,7.55,1.86,41.56,41.56,0,0,1,23.64-.85,26.29,26.29,0,0,1,5.73-.65h6.17q1,0,2.07.09a36.85,36.85,0,0,1,7.26-.72c20.38,0,36.35,16.45,36.35,37.44a37.74,37.74,0,0,1-12.33,28.3,25.77,25.77,0,0,1-1.54,8.78l-11.18,29.72A25.78,25.78,0,0,1,405,550.63h-3.88A26.56,26.56,0,0,1,389,547.79a25.93,25.93,0,0,1-11.81,2.84H371.7a26,26,0,0,1-12.5-3.18q-.82.45-1.68.84A37,37,0,0,1,343,551.26Z" fill="#00a3e2"/></g></svg>