<svg id="Layer_36_copy" data-name="Layer 36 copy" xmlns="http://www.w3.org/2000/svg" xmlns:xlink="http://www.w3.org/1999/xlink" viewBox="0 0 630.85 613.66"><defs><radialGradient id="Безымянный_градиент" cx="-774.54" cy="563.89" r="1.5" gradientTransform="translate(24990.14 -17753.98) scale(31.93)" gradientUnits="userSpaceOnUse"><stop offset="0" stop-color="#bd0738"/><stop offset="0.5" stop-color="#bd0738"/><stop offset="0.76" stop-color="#bb0737"/><stop offset="0.86" stop-color="#b40834"/><stop offset="0.94" stop-color="#a7092e"/><stop offset="1" stop-color="#990b28"/></radialGradient><linearGradient id="Безымянный_градиент_2" x1="239.38" y1="404.17" x2="263.59" y2="337.65" gradientTransform="matrix(1, 0, 0, -1, 0, 616)" gradientUnits="userSpaceOnUse"><stop offset="0" stop-color="#f08998"/><stop offset="0.11" stop-color="#e67086"/><stop offset="0.33" stop-color="#d44364"/><stop offset="0.53" stop-color="#c8224c"/><stop offset="0.69" stop-color="#c00e3d"/><stop offset="0.8" stop-color="#bd0738"/><stop offset="1" stop-color="#bd0738"/></linearGradient><linearGradient id="Безымянный_градиент_3" x1="227.64" y1="387.82" x2="283.18" y2="332.28" gradientTransform="matrix(1, 0, 0, -1, 0, 616)" gradientUnits="userSpaceOnUse"><stop offset="0" stop-color="#cc3c58"/><stop offset="0.06" stop-color="#c23450"/><stop offset="0.23" stop-color="#ae2341"/><stop offset="0.41" stop-color="#9f1736"/><stop offset="0.64" stop-color="#971030"/><stop offset="1" stop-color="#940e2e"/></linearGradient><linearGradient id="Безымянный_градиент_4" x1="259.53" y1="366.11" x2="260.55" y2="366.11" gradientTransform="matrix(1, 0, 0, -1, 0, 616)" gradientUnits="userSpaceOnUse"><stop offset="0" stop-color="#c2c6c9"/><stop offset="0.1" stop-color="#b1b5b8"/><stop offset="0.53" stop-color="#6d7174"/><stop offset="0.84" stop-color="#43474a"/><stop offset="1" stop-color="#33373a"/></linearGradient><linearGradient id="Безымянный_градиент_5" x1="268.66" y1="345.91" x2="269.56" y2="345.91" gradientTransform="matrix(1, 0, 0, -1, 0, 616)" gradientUnits="userSpaceOnUse"><stop offset="0" stop-color="#bec3c8"/><stop offset="0.11" stop-color="#acb1b6"/><stop offset="0.53" stop-color="#6b6f72"/><stop offset="0.84" stop-color="#424648"/><stop offset="1" stop-color="#323638"/></linearGradient><linearGradient id="Безымянный_градиент_6" x1="-724.9" y1="516.8" x2="-723.85" y2="516.8" gradientTransform="translate(10299.06 1920.47) rotate(45) scale(11.46)" gradientUnits="userSpaceOnUse"><stop offset="0" stop-color="#bac3c9"/><stop offset="1" stop-color="#26292b"/></linearGradient><linearGradient id="Безымянный_градиент_7" x1="-790.45" y1="553.54" x2="-789.41" y2="553.54" gradientTransform="translate(71596.72 12811.59) rotate(45) scale(75.09)" gradientUnits="userSpaceOnUse"><stop offset="0" stop-color="#c2c6c9"/><stop offset="1" stop-color="#404548"/></linearGradient><linearGradient id="Безымянный_градиент_8" x1="-816.76" y1="556.17" x2="-815.72" y2="556.17" gradientTransform="translate(-54760.17 37743.07) rotate(180) scale(67.41)" gradientUnits="userSpaceOnUse"><stop offset="0" stop-color="#c2c6c9"/><stop offset="1" stop-color="#4c5155"/></linearGradient><linearGradient id="Безымянный_градиент_9" x1="259.58" y1="400.83" x2="260.47" y2="400.83" xlink:href="#Безымянный_градиент_5"/><radialGradient id="Безымянный_градиент_10" cx="528.91" cy="703.47" r="84.26" gradientTransform="matrix(0.7, 0, 0, -0.7, -126.05, 727.56)" gradientUnits="userSpaceOnUse"><stop offset="0" stop-color="#fff"/><stop offset="0.35" stop-color="#fff"/><stop offset="0.53" stop-color="#fbfbfc"/><stop offset="0.72" stop-color="#eef1f2"/><stop offset="0.91" stop-color="#dadfe3"/><stop offset="1" stop-color="#cdd4d9"/></radialGradient><radialGradient id="Безымянный_градиент_11" cx="526.84" cy="704.05" r="12.3" gradientTransform="matrix(0.7, 0, 0, -0.7, -126.05, 727.56)" gradientUnits="userSpaceOnUse"><stop offset="0" stop-color="#fff"/><stop offset="0.35" stop-color="#fff"/><stop offset="0.57" stop-color="#fbfbfc"/><stop offset="0.79" stop-color="#eef1f2"/><stop offset="1" stop-color="#dce1e4"/></radialGradient></defs><title>lg-content</title><g id="desc-lg"><path d="M343,538.76a19.83,19.83,0,0,1-12.73-4.38,13.44,13.44,0,0,1-9.34,3.75h-5a13.41,13.41,0,0,1-2.9-.31,13.12,13.12,0,0,1-2.86.31H304a13.69,13.69,0,0,1-2.71-.27,24.23,24.23,0,0,1-6.61.9,23.31,23.31,0,0,1-10.12-2.27,13.37,13.37,0,0,1-6.46,1.64h-5a13.54,13.54,0,0,1-4.19-.66,13.54,13.54,0,0,1-4.19.66h-5a13.48,13.48,0,0,1-4.18-.66,13.54,13.54,0,0,1-4.19.66h-5a13.49,13.49,0,0,1-6.16-1.49,25.54,25.54,0,0,1-10.38,2.12c-10.14,0-18.91-5.19-22.92-13.55a14,14,0,0,1,.25-12.71l1.38-2.52a21.88,21.88,0,0,1-1.57-8.5A19.79,19.79,0,0,1,211,489.67a13.52,13.52,0,0,1-8.21-12.41V463.41a13,13,0,0,1-9.08-14.29l.4-3.08v-.29a13.55,13.55,0,0,1,13.48-11.54H230.4a13.58,13.58,0,0,1,12.1,7.3h1.59a26.81,26.81,0,0,1,12,2.74,13,13,0,0,1,7.12-2.11H281a13.41,13.41,0,0,1,6.85,1.87,27.2,27.2,0,0,1,11.57-2.5,26.9,26.9,0,0,1,10.59,2.1,13,13,0,0,1,6-1.47H329.4a16.57,16.57,0,0,1,30.05-.57c.63-.05,1.24-.07,1.82-.07a22.39,22.39,0,0,1,12.1,3.42,27.16,27.16,0,0,1,13.45-3.42,28,28,0,0,1,10.46,2,13,13,0,0,1,5.71-1.31h6.17a13,13,0,0,1,2.71.28,24.26,24.26,0,0,1,6.62-.91c13.37,0,23.85,10.95,23.85,24.94,0,10.13-5.48,18.67-13.57,22.62a13.29,13.29,0,0,1,.45,10.19L418.05,529a13.37,13.37,0,0,1-13.1,9.18h-3.88a13.37,13.37,0,0,1-12.05-7,13.5,13.5,0,0,1-11.83,7H371.7a13.5,13.5,0,0,1-12.49-8.39,13.23,13.23,0,0,1-6.92,7.2A25.27,25.27,0,0,1,343,538.76Z" fill="#2371b9"/><path d="M221.79,478.25H216.3a1,1,0,0,1-1-1v-25.5a1,1,0,0,0-1-1h-3.24a12.68,12.68,0,0,0-4,.68c-.63.22-1.09,0-1-.63l.41-3.11a1.1,1.1,0,0,1,1.13-1h22.8a1.09,1.09,0,0,1,1.12,1l.41,3.11c.09.63-.36.85-1,.63a12.68,12.68,0,0,0-4-.68h-3.24a1,1,0,0,0-.95,1v25.5A1,1,0,0,1,221.79,478.25Zm9.15-11.8c0-7.3,5.31-12.48,13.15-12.48,7.66,0,13,5.18,13,12.48v.13a1.55,1.55,0,0,1-1.44,1.44H238.82c-.4,0-.63.23-.54.72a7.31,7.31,0,0,0,7.16,6.45,8.71,8.71,0,0,0,7.21-3.61.67.67,0,0,1,.95-.13l.05,0,1.76,1.35a1,1,0,0,1,.14,1.18c-2.62,3.28-6.18,4.86-11,4.86-7.89,0-13.61-5.13-13.61-12.43Zm7.93-2.12H249c.41,0,.59-.23.5-.86-.45-3.33-2.84-5.81-5.59-5.81s-5.09,2.48-5.54,5.9c-.09.59.14.77.5.77ZM281,454.6H263.19c-.49,0-.67.49-.27,1.08a5.65,5.65,0,0,1,1,3.74v4.23a27.33,27.33,0,0,1-.95,8.2c-.54,1.44-1.71,3.16-3.6,2.84a.69.69,0,0,0-.88.39.67.67,0,0,0,0,.42l.5,2.66a.61.61,0,0,0,.66.56l.1,0a7.94,7.94,0,0,0,6.76-5.05A25.67,25.67,0,0,0,268,464.1v-4.82a1,1,0,0,1,1-1h5.09a1,1,0,0,1,1,1v18a1,1,0,0,0,1,1h5a1,1,0,0,0,1-1V455.54A1,1,0,0,0,281,454.6Zm31.4,11.85v.13A1.55,1.55,0,0,1,311,468H294.2c-.41,0-.63.23-.54.72a7.31,7.31,0,0,0,7.16,6.45,8.71,8.71,0,0,0,7.21-3.61.67.67,0,0,1,1-.13l0,0,1.76,1.35a1,1,0,0,1,.13,1.18c-2.61,3.28-6.17,4.86-11,4.86-7.84,0-13.56-5.13-13.56-12.43S291.62,454,299.46,454c7.66,0,13,5.15,13,12.45Zm-7.57-3c-.45-3.33-2.84-5.81-5.59-5.81s-5.09,2.48-5.54,5.9c-.09.59.13.77.49.77h10.14c.45,0,.67-.21.54-.84Zm10.94-7.79c-.4-.59-.22-1.08.27-1.08H328.7c4.05,0,7.16,2.79,7.16,5.9a5.75,5.75,0,0,1-2.52,4.6c-.41.27-.32.45,0,.67a6.76,6.76,0,0,1,3.83,5.9c0,3.43-3.47,6.58-8.11,6.58H317.8a1,1,0,0,1-.95-1V459.42a5.61,5.61,0,0,0-1-3.74Zm7.93,7.12a1,1,0,0,0,.95,1h2.12A2.64,2.64,0,0,0,329,461a2.51,2.51,0,0,0-2.26-2.74h-2.06a.92.92,0,0,0-.95.89v.05Zm0,10.81a1,1,0,0,0,.95,1h2.43c1.71,0,2.93-1.67,2.93-3.47s-1.22-3.65-2.93-3.65h-2.43a.93.93,0,0,0-.95.91v5.21Zm23.43-19H340.5c-.49,0-.67.49-.27,1.08a5.65,5.65,0,0,1,1,3.74V477.3a1,1,0,0,0,.94.95h5a1,1,0,0,0,1-.95V455.59a1,1,0,0,0-1-1Zm-2.61-9.87a4,4,0,1,0,4.05,4,4,4,0,0,0-4.05-4Zm26.26,26.81c0-2.53-1.49-4.46-4-5.77-.36-.18-.41-.4,0-.67a6.11,6.11,0,0,0,2.61-5c0-3.19-3.2-6.12-8.2-6.12-2.61,0-5.63,1-7.07,2.52A1.12,1.12,0,0,0,354,458l1,2a.76.76,0,0,0,1,.27.87.87,0,0,0,.27-.27,4.05,4.05,0,0,1,3.38-2.3,2.64,2.64,0,0,1,2.88,2.39,2.44,2.44,0,0,1,0,.54c0,2-1.17,3.2-2.75,3.2h-.72a1,1,0,0,0-1,.94v1.9c0,.67.54.85,1.17.85H360c2.53,0,3.56,1.58,3.56,3.61,0,2.48-1.26,4.1-3.87,4.1a5.84,5.84,0,0,1-4.37-2.21c-.27-.36-.68-.86-1.26-.54l-1.58.85c-.76.41-.68.86-.54,1.13,1.49,2.43,4.46,4.46,9.73,4.46s9.18-3.26,9.18-7.36Zm2.66-5.09c0-7.17,5.41-12.48,13.34-12.48s13.38,5.31,13.38,12.48-5.37,12.43-13.38,12.43-13.3-5.26-13.3-12.42Zm7.12,0c0,5,2.7,8.74,6.22,8.74s6.26-3.74,6.26-8.74-2.66-8.79-6.26-8.79-6.18,3.71-6.18,8.8Zm49.24,0c0,6.84-4.6,12.48-11.35,12.48a10.73,10.73,0,0,1-6.94-2.35c-.63-.49-.95,0-.95.18v8.38a1,1,0,0,1-1,1h-4.78a1,1,0,0,1-1-1V459.46a5.69,5.69,0,0,0-1-3.73c-.41-.59-.23-1.09.27-1.09h6.17a1,1,0,0,1,1,1v.68c0,.81.5.77,1,.32a10.9,10.9,0,0,1,7.3-2.62c6.72,0,11.32,5.58,11.32,12.43Zm-7.07,0c0-5-2.71-8.11-6.18-8.11-2.2,0-4.14,1.39-5.49,3.56a3.71,3.71,0,0,0-.5,1.84v5.45a3.64,3.64,0,0,0,.5,1.85,6.5,6.5,0,0,0,5.49,3.56c3.51,0,6.22-3,6.22-8.14Zm-190.59,39c-3.34-1.71-6-2.93-6-5.05,0-1.8,1.3-2.88,3.55-2.88a6.91,6.91,0,0,1,5.59,3.06c.41.59,1.17.68,1.49,0l1.57-2.62a1.26,1.26,0,0,0-.09-1.48c-1.93-1.85-4.77-3-8.69-3-5.45,0-10,3.15-10.05,8.11,0,5.81,4.37,8.47,9,10.72,3.15,1.58,5.85,3,5.85,5.9,0,2.43-1.71,4.06-4.82,4.06-4,0-7.29-3.34-8.1-6.94a.74.74,0,0,0-.85-.61.73.73,0,0,0-.51.34l-1.89,3.47a1.54,1.54,0,0,0,0,1.26c1.71,3.6,5.94,6.49,11.66,6.49,6.81,0,10.91-4.19,10.91-9.51.07-6.08-4.66-9.33-8.58-11.35Zm39.06-4.06c-2.66,0-4.37.77-6.67,2.53-.45.4-.68.31-.95-.05a6.54,6.54,0,0,0-5.45-2.48,7.24,7.24,0,0,0-5.58,2.3c-.41.36-.64.32-.64-.36V503a1,1,0,0,0-1-1H244.7c-.5,0-.68.5-.27,1.08a5.7,5.7,0,0,1,1,3.74v17.89a1,1,0,0,0,1,.94h4.95a1,1,0,0,0,1-.94V511.58c0-3.2,2-5.68,3.6-5.68,1.85,0,2.84,1.17,2.84,4.42v14.37a1,1,0,0,0,.94.94h5a1,1,0,0,0,.95-.94V511.53c0-3.24,2-5.72,3.65-5.72,1.85,0,2.84,1.17,2.84,4.42v14.46a1,1,0,0,0,.94.94h5a1,1,0,0,0,1-.94V509.24c0-5.46-3.31-7.89-7.9-7.89Zm39.24,23.2c.4.59.22,1.08-.27,1.08H304a1,1,0,0,1-1-1V524c0-.81-.49-.77-1-.32a11,11,0,0,1-7.3,2.62c-6.76,0-11.35-5.59-11.35-12.44s4.59-12.48,11.35-12.48a10.78,10.78,0,0,1,6.94,2.35c.63.49.94,0,.94-.18V503a1,1,0,0,1,1-.95h4.91a1,1,0,0,1,.95.95v17.88a5.65,5.65,0,0,0,1,3.71Zm-7.89-13.47a3.7,3.7,0,0,0-.49-1.84,6.51,6.51,0,0,0-5.5-3.56c-3.47,0-6.17,3.06-6.17,8.15s2.7,8.11,6.17,8.11c2.21,0,4.15-1.4,5.5-3.56a3.74,3.74,0,0,0,.49-1.85Zm27.89-9.37a8.1,8.1,0,0,0-2.39-.36,7.92,7.92,0,0,0-5.9,2.48c-.41.36-.72.27-.72-.23V503a1,1,0,0,0-1-1h-6.22c-.5,0-.68.5-.27,1.08a5.7,5.7,0,0,1,1,3.74v17.89a1,1,0,0,0,1,.94h5a1,1,0,0,0,1-.94v-13c0-3.15,1.3-5.14,3.47-5.14a3.54,3.54,0,0,1,2.56,1.17.78.78,0,0,0,1.4-.36l1.71-4.64c.21-.58-.08-.9-.6-1.08Zm16.31.27H344a.87.87,0,0,1-.9-.84v-3.53a1,1,0,0,0-1-1h-4.91a1,1,0,0,0-.95,1v3.47a.92.92,0,0,1-.94.9h-1.59a1,1,0,0,0-1,.95v1.76a.92.92,0,0,0,.92.94h1.61a.94.94,0,0,1,1,.88v13.82c0,3.65,2.71,5.95,6.76,5.95a13,13,0,0,0,4.06-.68c.49-.23.58-.36.49-.9l-.31-1.94c-.05-.36-.23-.63-.77-.45a3.58,3.58,0,0,1-1.44.27c-1.13,0-1.89-.81-1.89-2.21V506.62a.89.89,0,0,1,.79-1h2.86a.92.92,0,0,0,.94-.9v-1.8a1,1,0,0,0-.94-.92Zm39-7.88h-22.7a1.08,1.08,0,0,0-1.13.95l-.4,3.1c-.09.63.36.86,1,.63a13,13,0,0,1,4-.67h3.25a1,1,0,0,1,1,1v25.5a1,1,0,0,0,1,1h5.49a1,1,0,0,0,1-1v-25.5a1,1,0,0,1,.94-1h3.25a13,13,0,0,1,4,.67c.63.23,1.08,0,1-.63l-.4-3.1a1.08,1.08,0,0,0-1.16-1h-.09Zm31,0h-3.37c-.82,0-1,.27-1.31,1l-7.57,20.5c-.13.45-.58.36-.68,0l-7.38-20.5c-.32-.81-.5-1-1.31-1H388c-.63,0-.9.54-.27,1.13A9.05,9.05,0,0,1,390,499l9.78,25.77c.31.81.49.94,1.3.94h4c.85,0,1.08-.13,1.35-.94L417.47,495c.18-.5-.05-.9-.68-.9Z" fill="#fff"/><path d="M427.4,496.53a.22.22,0,0,0,0-.42l-1.29-.45c-1-.33.54-2.91,1.29-2.19l1,.9a.23.23,0,0,0,.32-.06.26.26,0,0,0,0-.15l-.24-1.32c-.12-.54.54-.78,1.23-.78s1.41.27,1.29.75l-.24,1.35a.2.2,0,0,0,.17.23.18.18,0,0,0,.16-.05l1-.9c.84-.78,2.25,1.92,1.29,2.22l-1.29.45c-.21.06-.15.33,0,.39l1.29.45c1.05.33-.51,2.88-1.26,2.22l-1.05-.9a.19.19,0,0,0-.33.18l.24,1.35c.12.54-.54.78-1.23.78s-1.47-.27-1.32-.78l.3-1.35c.06-.18-.21-.33-.36-.18l-1.05.87c-.81.78-2.24-1.86-1.29-2.16Z" fill="#fff"/><path d="M438.56,496.53a.22.22,0,0,0,0-.42l-1.29-.45c-1-.33.54-2.91,1.29-2.19l1,.9a.23.23,0,0,0,.32-.06.26.26,0,0,0,0-.15l-.24-1.32c-.12-.54.54-.78,1.23-.78s1.41.27,1.29.75l-.24,1.35a.2.2,0,0,0,.17.23.18.18,0,0,0,.16-.05l1-.9c.84-.78,2.25,1.92,1.29,2.22l-1.29.45c-.21.06-.15.33,0,.39l1.29.45c1.05.33-.51,2.88-1.26,2.22l-1.05-.9a.19.19,0,0,0-.33.18l.24,1.35c.12.54-.54.78-1.23.78s-1.47-.27-1.32-.78l.3-1.35c.06-.18-.21-.33-.36-.18l-1.05.87c-.81.78-2.25-1.86-1.29-2.16Z" fill="#fff"/></g><g id="icon-lg"><rect x="-2874.24" y="-1336.4" width="5094.33" height="2865.56" fill="none"/><rect x="-1287.07" y="-443.62" width="1920" height="1080" fill="none"/><g id="icon-lg-2"><path d="M234.85,379.44a12.49,12.49,0,0,1-4.73-24.06l14.54-5.95h-69A25.72,25.72,0,0,1,150,323.72v-148A25.74,25.74,0,0,1,175.7,150H455.15a25.73,25.73,0,0,1,25.7,25.7v148a25.73,25.73,0,0,1-25.7,25.71H386.2l14.53,5.95A12.49,12.49,0,0,1,396,379.44Z" fill="#2371b9"/><path d="M455.15,162.5H175.7a13.24,13.24,0,0,0-13.2,13.2v148a13.25,13.25,0,0,0,13.2,13.21H308.2l-73.35,30H396l-73.35-30h132.5a13.25,13.25,0,0,0,13.2-13.21v-148A13.24,13.24,0,0,0,455.15,162.5Z" fill="#fff"/><polygon points="338.3 221.86 324.59 221.86 324.59 281.2 366.7 281.2 366.7 269.64 338.3 269.64 338.3 221.86" fill="#6f6f6e"/><path d="M396.86,258.58H408V269a31.92,31.92,0,0,1-9.89,1.57c-12.34,0-16.45-6.27-16.45-19,0-12.14,3.91-19.29,16.25-19.29,6.86,0,10.77,2.15,14,6.27l8.53-7.84c-5.2-7.44-14.31-9.69-22.82-9.69-19.19,0-29.28,10.48-29.28,30.45s9.1,30.65,29.18,30.65c9.2,0,18.21-2.35,23.11-5.78V247.52H396.86Z" fill="#6f6f6e"/><path d="M258.15,205.89a45.9,45.9,0,1,0,45.93,46.25v-.72A45.91,45.91,0,0,0,258.15,205.89Z" fill="url(#Безымянный_градиент)"/><path d="M227.1,220.71c-15.34,15.34-16.89,38.72-3.42,52.19s36.82,11.92,52.16-3.43,16.91-38.74,3.45-52.21a32,32,0,0,0-22.94-9.17,41.85,41.85,0,0,0-29.25,12.62" fill="url(#Безымянный_градиент_2)"/><path d="M255.79,272.35l1.14-.65V232.93l-.28-.45.28-.09h.2l3.43-1.18.62,1.06a.43.43,0,0,1,.08.29v35.31h8.34l.67,1.05c.06.07.1.16.1.43v3.55a.29.29,0,0,1-.25.3H257.31a1.2,1.2,0,0,1-.64-.19Zm41.41-22.68H268.81v4.55l.71.94h0a.34.34,0,0,0,.24.09h23.76a34.57,34.57,0,1,1-59.11-26.73c6.55-6.47,14.8-9.88,24.67-10.1h2.08c.13,0,.24,0,.24-.3V214.4a.74.74,0,0,0-.1-.41l-.83-1.05-1.89.27-1,.32c-21.56,0-37.72,18-37.72,39.48a39.12,39.12,0,0,0,78.23-.24v-2.24Zm-53.11-18a6.13,6.13,0,1,0,6.17,6.13,6.12,6.12,0,0,0-6.17-6.13Z" fill="url(#Безымянный_градиент_3)"/><polygon points="256.73 271.46 255.79 272.35 269.56 272.35 268.66 271.43 256.73 271.46" fill="#6b7277"/><polygon points="268.66 268.69 269.56 267.82 260.55 267.82 259.48 268.69 268.66 268.69" fill="#96a2a9"/><polygon points="260.55 231.16 255.79 231.16 256.69 232.01 259.53 232.01 260.55 231.16" fill="#98a1a8"/><polygon points="259.56 268.62 260.55 267.82 260.55 231.16 259.53 232.01 259.56 268.62" fill="url(#Безымянный_градиент_4)"/><polygon points="268.66 268.69 268.66 271.43 269.56 272.35 269.56 267.82 268.66 268.69" fill="url(#Безымянный_градиент_5)"/><polygon points="255.79 231.16 255.79 272.35 256.73 271.46 256.69 232.01 255.79 231.16" fill="#c2c6c9"/><path d="M238.4,237.13a5.11,5.11,0,1,0,5.13-5.09h0a5.09,5.09,0,0,0-5.11,5.07Z" fill="none"/><path d="M237.52,237.13a6,6,0,1,0,6-6A6,6,0,0,0,237.52,237.13Zm11.09,0a5.11,5.11,0,1,1-5.13-5.09h0a5.09,5.09,0,0,1,5.1,5.08Z" fill="url(#Безымянный_градиент_6)"/><polygon points="293.32 253.18 269.53 253.16 268.65 254.09 292.41 254.09 292.88 253.59 293.32 253.18" fill="#555c5e"/><polygon points="269.53 250.47 296.14 250.43 297.04 249.52 268.65 249.53 269.53 250.47" fill="#9ea5aa"/><path d="M297,251.77v-2.25l-.9.91v1.34a38,38,0,1,1-38-38h1.45l.89-.86H258.1A38.91,38.91,0,1,0,297,251.83Z" fill="url(#Безымянный_градиент_7)"/><path d="M259.58,216.57h-1.94A35.24,35.24,0,0,0,257.7,287h.91a35.34,35.34,0,0,0,34.7-32.85v-1l-.45.41-.47.5a34.35,34.35,0,1,1-34.26-36.65h2.32Z" fill="url(#Безымянный_градиент_8)"/><polygon points="269.53 250.47 268.65 249.53 268.65 254.09 269.53 253.16 269.53 250.47" fill="#c2c6c9"/><polygon points="259.58 216.57 260.47 217.46 260.47 212.88 259.58 213.74 259.58 216.57" fill="url(#Безымянный_градиент_9)"/><path d="M256.3,231.64v40.23h12.79v-3.59H260V231.64Zm1.34-18.29a38.43,38.43,0,1,0,38.89,38.42V250H269.12v3.56h23.76v.53A34.83,34.83,0,1,1,258.13,217H260v-3.59h-1.43Z" fill="url(#Безымянный_градиент_10)"/><path d="M238,237.13a5.51,5.51,0,1,0,5.52-5.51,5.51,5.51,0,0,0-5.52,5.51h0" fill="url(#Безымянный_градиент_11)"/><path d="M244.48,232.61a5.47,5.47,0,0,1,3.34,1.17,5.43,5.43,0,0,0-4.33-2.16,5.51,5.51,0,0,0-5.52,5.5h0a5.44,5.44,0,0,0,2.14,4.3,5.45,5.45,0,0,1-1.15-3.31,5.53,5.53,0,0,1,5.52-5.51" fill="#fff"/><path d="M260,213.37h-1.85A38.43,38.43,0,0,0,231,278.93c.23.24.48.45.71.68a38.17,38.17,0,0,1-10.61-26.49c0-21.14,15-38.69,38.89-39.75" fill="#fff"/><path d="M260,268.28s2.64.77,9.12.77v-.77Z" fill="#fff"/><path d="M260,232.78v-1.14h-3.7v40.23s1.14-6.12,1.14-39.09Z" fill="#fff"/><path d="M296.53,250H269.12v3.56h1V251c23.89,0,26.42-1,26.42-1" fill="#fff"/><path d="M292.89,253.59v.53a34.82,34.82,0,0,1-68.27,7A35.29,35.29,0,0,0,258.72,287a34.89,34.89,0,0,0,34.62-33.43Z" fill="#fff"/></g></g><g id="title-lg"><path d="M334.24,115.77A13.36,13.36,0,0,1,323.3,110a13.31,13.31,0,0,1-10.93,5.77h-1.56a13.29,13.29,0,0,1-11.2-6,30.08,30.08,0,0,1-5.6.52,29.07,29.07,0,0,1-6.38-.7,13.28,13.28,0,0,1-11.31,6.22h-1.56a13.31,13.31,0,0,1-11.14-6.07H244.56A13.36,13.36,0,0,1,231.22,96.4V74.94a13.11,13.11,0,0,1,.36-11.34A12.91,12.91,0,0,1,243,56.7h5a13.47,13.47,0,0,1,4.62.82,13.47,13.47,0,0,1,4.62-.82h3.36a13.41,13.41,0,0,1,4.65.83,13.3,13.3,0,0,1,4.63-.83h3.44a13.29,13.29,0,0,1,7.77,2.51,29,29,0,0,1,26.48.26,13,13,0,0,1,8-2.77h17.12a13.46,13.46,0,0,1,3.62.5,13.11,13.11,0,0,1,3.58-.5h4.88a13.42,13.42,0,0,1,7,2,13.42,13.42,0,0,1,7-2h3.28a13.4,13.4,0,0,1,6.38,1.61,21.56,21.56,0,0,1,8.24-1.61h9.48a13.42,13.42,0,0,1,13.41,13.38V96.36a13.36,13.36,0,0,1-13.34,13.34h-3.36a13.41,13.41,0,0,1-5.58-1.21,14.09,14.09,0,0,1-5.65,1.21h-4.16a13.4,13.4,0,0,1-2.68-.28,14,14,0,0,1-2.74.28h-3.28a13.42,13.42,0,0,1-7-2,13.12,13.12,0,0,1-4.63,1.77,13.29,13.29,0,0,1-11.36,6.29Z" fill="#2371b9"/><path d="M277.6,94.88l-.4,7.51a.92.92,0,0,1-.88.88h-1.56c-.48,0-.76-.4-.88-.88l-1.2-4.27a1.27,1.27,0,0,0-1.08-.92h-27a.87.87,0,0,1-.84-.84V73.48a5,5,0,0,0-.92-3.32c-.36-.52-.2-1,.24-1H248a.9.9,0,0,1,.88.88V93a.83.83,0,0,0,.78.88h5.86a.85.85,0,0,0,.84-.86V70a.9.9,0,0,1,.88-.88h3.36a.9.9,0,0,1,.88.88V93a.86.86,0,0,0,.84.88h5.8a.87.87,0,0,0,.92-.82V70a.85.85,0,0,1,.82-.88h3.46a.88.88,0,0,1,.84.88V93a.85.85,0,0,0,.75.95h1.89a.8.8,0,0,1,.8.8Zm31.61-11.64c0,8.2-6.36,14.51-15.2,14.51s-15.07-6.31-15.07-14.51,6.36-14.6,15.07-14.6,15.2,6.36,15.2,14.6Zm-5.6,0c0-6.36-4-11.36-9.6-11.36s-9.47,5-9.47,11.36,4,11.36,9.47,11.36,9.6-5,9.6-11.4Zm33.47,11.68-.4,7.51a.92.92,0,0,1-.88.88h-1.56c-.48,0-.76-.4-.88-.88l-1.2-4.27a1.27,1.27,0,0,0-1.08-.92H315.52a1.24,1.24,0,0,0-1.07.92l-1.2,4.27c-.12.48-.4.88-.88.88h-1.56a.92.92,0,0,1-.88-.88l-.4-7.51a.77.77,0,0,1,.65-.87h1.67c.8,0,1-.12,1.19-.8a50.47,50.47,0,0,0,3.21-16.84V73.48a5.11,5.11,0,0,0-.92-3.32c-.37-.52-.2-1,.23-1h17.12a.9.9,0,0,1,.88.88V93a.86.86,0,0,0,.84.88h1.8a.87.87,0,0,1,.89.83s0,.09,0,.13Zm-8.64-21.56a.9.9,0,0,0-.88-.92h-6.88a.9.9,0,0,0-.88.92h0v2.36a57,57,0,0,1-2.88,17.52.58.58,0,0,0,.34.76.57.57,0,0,0,.26,0h10a.86.86,0,0,0,.88-.84v0Zm33.67-4.12h-3.28a.9.9,0,0,0-.92.88h0V80.44a.88.88,0,0,1-.84.88H346.52a.82.82,0,0,1-.84-.82V70.08a.9.9,0,0,0-.92-.88h-4.88c-.44,0-.6.44-.24,1a5,5,0,0,1,.92,3.32V96.36a.87.87,0,0,0,.84.84h3.36a.9.9,0,0,0,.92-.84v-11a.83.83,0,0,1,.78-.88h10.61a.88.88,0,0,1,.84.88v11a.9.9,0,0,0,.92.84h3.28a.9.9,0,0,0,.92-.84V70.08a.9.9,0,0,0-.92-.88h0Zm25,.88V96.36a.87.87,0,0,1-.84.84h-3.36a.9.9,0,0,1-.92-.84v-8.8a.81.81,0,0,0-.72-.88H379a1.22,1.22,0,0,0-1.28.8L373,96.36a1.79,1.79,0,0,1-1.36.84h-4.16c-.48,0-.64-.41-.4-.84l5.64-9.68c.32-.44,0-.92-.4-1.16a8.48,8.48,0,0,1-4.8-7.4,9.09,9.09,0,0,1,9.16-8.92h9.48a.89.89,0,0,1,.92.86v.06ZM382,73.36a.88.88,0,0,0-.77-1h-3.18c-3,0-5.12,2.52-5.12,5.6a5.19,5.19,0,0,0,4.89,5.47h3.35c.52,0,.83-.44.83-1Z" fill="#fde619"/></g></svg>