<svg id="Layer_35_copy_2" data-name="Layer 35 copy 2" xmlns="http://www.w3.org/2000/svg" viewBox="0 0 476.95 679.45"><title>megogo-bg</title><g id="bg-megogo"><path d="M99.88,1572c-296.33,0-592.94-146.21-774.07-381.56a1020.12,1020.12,0,0,1-76.52-111.85C-861.2,918.27-927.16,709.12-927.16,519V483c0-100.74,18.31-211.32,51.57-311.53a1027.55,1027.55,0,0,1,78.25-312.11A1031.27,1031.27,0,0,1-575.77-468.06a1031.35,1031.35,0,0,1,328-220.81A1026.61,1026.61,0,0,1,154.3-770.25c16.54,0,34.62.49,52.31,1.4,17.68-.91,35.76-1.4,52.31-1.4A1034.83,1034.83,0,0,1,928.41-524.09a1057.59,1057.59,0,0,1,77.42,73.18C1219.33-269,1352,16.28,1352,293.9v17.89c12,62.68,18.61,129.83,18.61,189.22A995.27,995.27,0,0,1,1224.3,1020.8c-52,102-125.35,200-206.64,276-184.26,172.37-425.1,267.3-678.15,267.3H294.05c-4.37,0-8.7,0-12.89-.09s-8.53.09-13,.09H227.77a998.58,998.58,0,0,1-122.93,7.9Z" fill="#00aa4f"/><path d="M99.88,1559.47c-292.58,0-585.39-144.35-764.21-376.75a1008.55,1008.55,0,0,1-75.84-110.89C-849.43,913.5-914.66,706.86-914.66,519V483c0-99.95,18.24-209.62,51.39-309a1015.12,1015.12,0,0,1,77.43-309.76,1024.7,1024.7,0,0,1,543-541.6,1014.06,1014.06,0,0,1,397.2-80.39c16.54,0,34.61.49,52.31,1.41,17.69-.92,35.76-1.41,52.31-1.41A1022.28,1022.28,0,0,1,920.31-514.56a1040.6,1040.6,0,0,1,76.93,72.75c211.1,179.54,342.21,461.38,342.21,735.71V313c12,62.29,18.61,129,18.61,188a982.69,982.69,0,0,1-144.72,513.68c-51.36,100.86-123.89,197.78-204.27,273C827.13,1457.87,589.33,1551.6,339.46,1551.6H294.05c-4.34,0-8.67,0-12.89-.09s-8.56.09-13,.09H227a985.4,985.4,0,0,1-122.12,7.9Z" fill="#008453"/><path d="M99.88,1547c-288.81,0-577.88-142.55-754.35-372a991.84,991.84,0,0,1-75.16-110c-108-156.29-172.53-360.4-172.53-546V483c0-99.16,18.18-207.91,51.22-306.42a1002.13,1002.13,0,0,1,76.6-307.42A1006.44,1006.44,0,0,1-558.12-450.37,1006.51,1006.51,0,0,1-238-665.85a1001.7,1001.7,0,0,1,392.33-79.4c16.54,0,34.61.5,52.31,1.43,17.69-.93,35.76-1.43,52.31-1.43A1009.8,1009.8,0,0,1,912.22-505a1032,1032,0,0,1,76.43,72.34C1197.34-255.48,1327,22.87,1327,293.9v20.27c12,61.87,18.61,128.17,18.61,186.84a970.11,970.11,0,0,1-143.14,507.57c-50.73,99.75-122.41,195.61-201.89,270-179.61,168-414.38,260.55-661.07,260.55H294.05c-4.35,0-8.69,0-12.89-.09s-8.55.09-13,.09h-42A973.84,973.84,0,0,1,104.84,1547Z" fill="#00aa4f"/><path d="M99.88,1534.47c-285.06,0-570.33-140.68-744.5-367.12a982,982,0,0,1-74.47-109C-825.9,903.93-889.66,702.33-889.66,519V483c0-98.37,18.12-206.21,51-303.86a990.25,990.25,0,0,1,75.78-305.09A1000,1000,0,0,1-233.15-654.34a989.19,989.19,0,0,1,387.46-78.41c16.53,0,34.61.5,52.31,1.45,17.7-1,35.77-1.45,52.31-1.45A997.26,997.26,0,0,1,904.12-495.52a1017.47,1017.47,0,0,1,75.94,71.92c206.27,174.9,334.39,449.77,334.39,717.5v21.48c12,61.46,18.61,127.33,18.61,185.63a957.58,957.58,0,0,1-141.56,501.45c-50.1,98.67-120.94,193.45-199.51,267C814.7,1435.3,583,1526.64,339.46,1526.64H294.05c-4.33,0-8.67,0-12.89-.09s-8.57.09-13,.09H225.28a958.6,958.6,0,0,1-120.44,7.89Z" fill="#008453"/><path d="M99.88,1522c-281.3,0-562.79-138.83-734.63-362.3a968.7,968.7,0,0,1-73.79-108C-814.13,899.15-877.16,700.07-877.16,519V483c0-97.57,18.06-204.52,50.87-301.3a977.16,977.16,0,0,1,75-302.75A981.25,981.25,0,0,1-540.46-432.67,981.56,981.56,0,0,1-228.28-642.83a977,977,0,0,1,382.59-77.42c16.54,0,34.61.51,52.31,1.47,17.69-1,35.76-1.47,52.31-1.47A984.81,984.81,0,0,1,896-486a1006.77,1006.77,0,0,1,75.44,71.5C1175.33-241.91,1302,29.46,1302,293.9v22.69c12,61,18.61,126.49,18.61,184.42a945.09,945.09,0,0,1-140,495.34c-49.48,97.56-119.47,191.28-197.14,263.93-175,163.67-403.67,253.81-644,253.81H294.05c-4.36,0-8.69,0-12.89-.09s-8.6.09-13,.09H224.43A947.07,947.07,0,0,1,104.84,1522Z" fill="#00aa4f"/><path d="M99.88,1509.47c-277.55,0-555.26-137-724.78-357.49A955.36,955.36,0,0,1-698,1044.9C-802.37,894.37-864.66,697.81-864.66,519V483c0-96.79,18-202.82,50.7-298.74a965,965,0,0,1,74.13-300.41A974.77,974.77,0,0,1-223.41-631.31a964.47,964.47,0,0,1,377.72-76.44c16.54,0,34.61.52,52.31,1.48,17.69-1,35.76-1.48,52.31-1.48a972.25,972.25,0,0,1,629,231.28,993.12,993.12,0,0,1,75,71.08C1164.39-235.12,1289.5,32.76,1289.5,293.9v23.91c12,60.63,18.61,125.64,18.61,183.2a932.59,932.59,0,0,1-138.39,489.23c-48.84,96.46-118,189.1-194.76,260.91-172.64,161.5-398.31,250.44-635.45,250.44H294.05c-4.36,0-8.7,0-12.9-.09s-8.59.09-13,.09H256.88c-3.26,0-6.58,0-9.89-.06s-6.63.06-9.88.06H223.62a934.32,934.32,0,0,1-118.78,7.88Z" fill="#008453"/><path d="M99.88,1497c-273.79,0-547.73-135.14-714.92-352.68a942.69,942.69,0,0,1-72.42-106.13C-790.59,889.59-852.16,695.54-852.16,519V483c0-96,17.94-201.11,50.54-296.18a952.21,952.21,0,0,1,73.29-298.08A962.47,962.47,0,0,1-218.54-619.8a952,952,0,0,1,372.85-75.45c16.54,0,34.61.52,52.31,1.5,17.69-1,35.76-1.5,52.31-1.5a959.66,959.66,0,0,1,620.9,228.31,980.08,980.08,0,0,1,74.46,70.66C1153.33-228.33,1277,36.06,1277,293.9V319c12,60.21,18.61,124.78,18.61,182A919.93,919.93,0,0,1,1158.8,984.12c-48.21,95.37-116.52,186.93-192.38,257.89-170.31,159.33-393,247.07-626.91,247.07H294.05c-4.34,0-8.68,0-12.9-.09s-8.61.09-13,.09H256.88c-3.26,0-6.58,0-9.89-.06s-6.63.06-9.88.06H222.79A921.3,921.3,0,0,1,104.84,1497Z" fill="#00aa4f"/><path d="M99.88,1484.47c-270,0-540.19-133.3-705.06-347.86a929.29,929.29,0,0,1-71.74-105.19C-778.83,884.81-839.66,693.28-839.66,519V483c0-95.21,17.88-199.41,50.38-293.61a939.6,939.6,0,0,1,72.45-295.75A949.95,949.95,0,0,1-213.7-608.29a939.52,939.52,0,0,1,368-74.46c16.54,0,34.61.53,52.31,1.52,17.7-1,35.77-1.52,52.31-1.52A947.27,947.27,0,0,1,871.74-457.42a970.23,970.23,0,0,1,74,70.25c196.62,165.63,318.74,426.53,318.74,681.07v26.38c12,59.78,18.61,123.92,18.61,180.73a907.42,907.42,0,0,1-135.22,477c-47.59,94.26-115.06,184.76-190,254.87-168,157.15-387.6,243.7-618.37,243.7H294.05c-4.29,0-8.63,0-12.9-.09s-8.66.09-13,.09H256.88c-3.26,0-6.58,0-9.89-.06s-6.63.06-9.88.06H222a908.57,908.57,0,0,1-117.13,7.88Z" fill="#008453"/><path d="M99.88,1472c-266.27,0-532.65-131.44-695.2-343a916.58,916.58,0,0,1-71.06-104.23C-767.07,880-827.16,691-827.16,519V483c0-94.41,17.82-197.7,50.21-291a927.26,927.26,0,0,1,71.62-293.41A931.82,931.82,0,0,1-505.15-397.27,931.88,931.88,0,0,1-208.8-596.78a927.06,927.06,0,0,1,363.11-73.47c16.54,0,34.61.54,52.31,1.54,17.7-1,35.77-1.54,52.31-1.54A934.69,934.69,0,0,1,863.64-447.89a955.77,955.77,0,0,1,73.48,69.83C1131.34-214.74,1252,42.66,1252,293.9v27.62c12,59.37,18.61,123.06,18.61,179.49A895,895,0,0,1,1137,971.91c-47,93.16-113.58,182.59-187.63,251.85-165.66,155-382.24,240.33-609.83,240.33H294.05c-4.3,0-8.64,0-12.89-.1s-8.66.1-13,.1H256.88c-3.26,0-6.58,0-9.89-.06s-6.63.06-9.88.06h-16A896,896,0,0,1,104.84,1472Z" fill="#00aa4f"/><path d="M99.88,1459.47c-262.51,0-525.12-129.61-685.35-338.24A904.65,904.65,0,0,1-655.84,1018C-755.3,875.29-814.66,688.8-814.66,519V483c0-93.62,17.77-196,50.06-288.48A914.88,914.88,0,0,1-693.83-96.54a925,925,0,0,1,489.9-488.72,914.74,914.74,0,0,1,358.24-72.49c16.54,0,34.61.54,52.31,1.56,17.7-1,35.77-1.56,52.31-1.56A922.23,922.23,0,0,1,855.55-438.37a943.93,943.93,0,0,1,73,69.42c191.8,161,310.92,414.91,310.92,662.85v28.88c12,58.93,18.61,122.18,18.61,178.23A882.4,882.4,0,0,1,1126,965.8c-46.33,92.06-112.1,180.41-185.24,248.83-163.35,152.81-376.89,237-601.3,237H294.05c-4.28,0-8.62,0-12.89-.1s-8.68.1-13,.1H256.88c-3.26,0-6.58,0-9.89-.06s-6.63.06-9.88.06H220.32a883.29,883.29,0,0,1-115.48,7.88Z" fill="#008453"/><path d="M99.88,1447c-258.75,0-517.57-127.76-675.49-333.43a890.37,890.37,0,0,1-69.68-102.32C-743.53,870.45-802.16,686.49-802.16,519V483c0-92.84,17.71-194.3,49.9-285.91A902.42,902.42,0,0,1-682.33-91.64,912.52,912.52,0,0,1-199.06-573.75a902.38,902.38,0,0,1,353.37-71.5c16.54,0,34.61.55,52.31,1.58,17.69-1,35.77-1.58,52.31-1.58A909.65,909.65,0,0,1,847.45-428.84a928,928,0,0,1,72.49,69c189.4,158.68,307,409.1,307,653.74V324c12,58.5,18.61,121.3,18.61,177a869.92,869.92,0,0,1-130.48,458.68c-45.7,91-110.62,178.24-182.86,245.81-161,150.63-371.54,233.59-592.76,233.59h-45.4c-4.27,0-8.61,0-12.89-.1s-8.69.1-13,.1H256.88c-3.26,0-6.58,0-9.89-.06s-6.63.06-9.88.06H219.49A870.64,870.64,0,0,1,104.84,1447Z" fill="#00aa4f"/><path d="M99.88,1434.47c-255,0-510-125.91-665.64-328.62a877,877,0,0,1-69-101.37c-97-138.81-154.91-320.26-154.91-485.49V483c0-92,17.66-192.6,49.75-283.34a890.08,890.08,0,0,1,69.09-286.4,894.18,894.18,0,0,1,192.17-284,894.43,894.43,0,0,1,284.47-191.5,889.84,889.84,0,0,1,348.5-70.51c16.54,0,34.61.56,52.31,1.6,17.69-1,35.76-1.6,52.31-1.6A897.22,897.22,0,0,1,839.36-419.32a918,918,0,0,1,72,68.59c187,156.36,303.1,403.29,303.1,644.63v31.42c12,58.07,18.61,120.41,18.61,175.69a857.25,857.25,0,0,1-128.9,452.57c-45.07,89.86-109.15,176.07-180.48,242.8C765,1344.83,557.5,1426.59,339.46,1426.59H294.05c-4.26,0-8.59,0-12.89-.1s-8.71.1-13,.1H256.88c-3.26,0-6.58,0-9.89-.06s-6.63.06-9.88.06H218.65a858,858,0,0,1-113.81,7.88Z" fill="#008453"/><path d="M99.88,1422c-251.23,0-502.5-124.07-655.79-323.81a865.72,865.72,0,0,1-68.3-100.42C-720,860.88-777.16,682-777.16,519V483c0-91.26,17.6-190.9,49.6-280.77a877.57,877.57,0,0,1,68.23-284.1,887.67,887.67,0,0,1,470-468.86,877.33,877.33,0,0,1,343.63-69.52c16.54,0,34.61.57,52.31,1.63,17.69-1.06,35.76-1.63,52.31-1.63A884.65,884.65,0,0,1,831.26-409.8a902.76,902.76,0,0,1,71.5,68.19C1087.33-187.57,1202,55.86,1202,293.9v32.7c12,57.63,18.61,119.51,18.61,174.41a844.7,844.7,0,0,1-127.32,446.46c-44.44,88.76-107.67,173.9-178.1,239.78-156.38,146.28-360.82,226.84-575.68,226.84H294.05c-4.28,0-8.61,0-12.88-.1s-8.69.1-13,.1H256.88c-3.25,0-6.58,0-9.89-.06s-6.63.06-9.88.06H217.8a845.86,845.86,0,0,1-113,7.88Z" fill="#00aa4f"/><path d="M99.88,1409.47c-247.46,0-495-122.23-645.93-319A852.48,852.48,0,0,1-613.67,991c-94.55-134.91-151-311.32-151-472V483c0-90.47,17.56-189.2,49.45-278.19A865.22,865.22,0,0,1-647.83-76.95,875,875,0,0,1-184.45-539.21a864.8,864.8,0,0,1,338.76-68.54c16.55,0,34.61.57,52.31,1.65,17.69-1.08,35.76-1.65,52.31-1.65A872.21,872.21,0,0,1,823.17-400.27a890.9,890.9,0,0,1,71,67.77c182.15,151.72,295.28,391.66,295.28,626.4v34c12,57.19,18.61,118.61,18.61,173.12a832.25,832.25,0,0,1-125.74,440.35c-43.81,87.66-106.2,171.73-175.72,236.76C752.55,1322.24,551.14,1401.6,339.46,1401.6H294.05c-4.32,0-8.65,0-12.88-.1s-8.65.1-13,.1H256.88c-3.25,0-6.58,0-9.89-.06s-6.63.06-9.88.06H216.94a832.52,832.52,0,0,1-112.1,7.88Z" fill="#008453"/><path d="M99.88,1397c-243.7,0-487.41-120.38-636.07-314.18a838.91,838.91,0,0,1-66.94-98.52c-93.33-132.95-149-306.84-149-465.28V483c0-89.69,17.5-187.49,49.31-275.62A852.69,852.69,0,0,1-636.33-72,862.5,862.5,0,0,1-179.58-527.7a852.43,852.43,0,0,1,333.89-67.55c16.54,0,34.61.58,52.31,1.67,17.69-1.09,35.76-1.67,52.31-1.67a859.64,859.64,0,0,1,556.14,204.5,878,878,0,0,1,70.52,67.37C1065.33-174,1177,62.46,1177,293.9v35.29c12,56.74,18.61,117.71,18.61,171.82A819.7,819.7,0,0,1,1071.4,935.25c-43.18,86.56-104.72,169.55-173.34,233.74-151.73,141.93-350.11,220.1-558.6,220.1H294.05c-4.31,0-8.64,0-12.88-.1s-8.66.1-13,.1H256.88c-3.25,0-6.58,0-9.89-.06s-6.63.06-9.88.06h-21A819.94,819.94,0,0,1,104.84,1397Z" fill="#00aa4f"/><path d="M99.88,1384.47c-239.93,0-479.87-118.53-626.21-309.36a826.73,826.73,0,0,1-66.26-97.58c-92.1-131-147.07-302.37-147.07-458.54V483c0-88.9,17.45-185.79,49.17-273A840,840,0,0,1-624.83-67.15a850,850,0,0,1,450.12-449,840.15,840.15,0,0,1,329-66.56c16.54,0,34.61.59,52.31,1.7,17.69-1.11,35.76-1.7,52.31-1.7A847.13,847.13,0,0,1,807-381.22a861.54,861.54,0,0,1,70,67c177.33,147.08,287.45,380,287.45,608.17v36.6c12,56.3,18.61,116.79,18.61,170.51a807.29,807.29,0,0,1-122.58,428.13c-42.55,85.46-103.24,167.38-171,230.72-149.4,139.76-344.75,216.73-550.06,216.73H294.05c-4.33,0-8.66,0-12.88-.11s-8.64.11-13,.11H256.88c-3.25,0-6.58,0-9.89-.07s-6.63.07-9.88.07H215.25a806.07,806.07,0,0,1-110.41,7.89Z" fill="#008453"/><path d="M99.88,1372c-236.16,0-472.32-116.68-616.34-304.55A810.49,810.49,0,0,1-582,970.79c-90.88-129-145.12-297.89-145.12-451.8V483c0-88.11,17.41-184.09,49-270.46a827.24,827.24,0,0,1,64.8-274.83A837.45,837.45,0,0,1-169.84-504.68a827.74,827.74,0,0,1,324.15-65.57c16.54,0,34.61.6,52.31,1.72,17.69-1.12,35.76-1.72,52.31-1.72a834.66,834.66,0,0,1,540,198.55,855,855,0,0,1,69.53,66.55C1043.32-160.4,1152,69.06,1152,293.9v37.93c12,55.83,18.61,115.86,18.61,169.18a794.66,794.66,0,0,1-121,422c-41.92,84.36-101.77,165.21-168.58,227.71C734,1288.3,541.64,1364.07,339.51,1364.07H294.05c-4.3,0-8.63,0-12.87-.11s-8.67.11-13,.11h-11.3c-3.25,0-6.58,0-9.89-.07s-6.63.07-9.88.07h-22.7A794,794,0,0,1,104.84,1372Z" fill="#00aa4f"/><path d="M99.88,1359.47c-232.4,0-464.78-114.86-606.49-299.73a799.51,799.51,0,0,1-64.89-95.69c-89.66-127-143.16-293.41-143.16-445V483c0-87.33,17.36-182.38,48.91-267.88A814.63,814.63,0,0,1-601.82-57.36,824.93,824.93,0,0,1-165-493.16a815.21,815.21,0,0,1,319.28-64.59c16.55,0,34.62.61,52.31,1.75,17.68-1.14,35.75-1.75,52.31-1.75A822.07,822.07,0,0,1,790.78-362.18,844.37,844.37,0,0,1,859.83-296c172.5,142.42,279.62,368.38,279.62,589.93v39.26c12,55.38,18.61,114.93,18.61,167.85A782.11,782.11,0,0,1,1038.64,917c-41.29,83.26-100.29,163-166.2,224.69-144.75,135.41-334,210-533,210H294.05c-4.3,0-8.63,0-12.87-.11s-8.68.11-13,.11h-11.3c-3.22,0-6.55,0-9.89-.07s-6.66.07-9.88.07H213.52a782.59,782.59,0,0,1-108.68,7.89Z" fill="#008453"/><path d="M99.88,1347c-228.64,0-457.24-113-596.63-294.92A787.22,787.22,0,0,1-561,957.31C-649.38,832.19-702.16,668.38-702.16,519V483c0-86.54,17.31-180.67,48.78-265.29a802.37,802.37,0,0,1,63.06-270.2A812.47,812.47,0,0,1-160.1-481.65a802.7,802.7,0,0,1,314.41-63.6c16.55,0,34.62.62,52.31,1.77,17.68-1.15,35.75-1.77,52.31-1.77a809.6,809.6,0,0,1,523.76,192.6,826.22,826.22,0,0,1,68.55,65.74C1021.32-146.82,1127,75.65,1127,293.9v40.61c12,54.91,18.61,114,18.61,166.5a769.57,769.57,0,0,1-117.85,409.8C987.11,993,929,1071.67,864,1132.48c-142.43,133.23-328.68,206.61-524.44,206.61H294.05c-4.32,0-8.65,0-12.88-.11s-8.65.11-13,.11H256.88c-3.24,0-6.57,0-9.89-.07s-6.64.07-9.88.07H212.58A766.21,766.21,0,0,1,104.84,1347Z" fill="#00aa4f"/><path d="M99.88,1334.47c-224.87,0-449.7-111.16-586.77-290.1a775.38,775.38,0,0,1-63.53-93.8C-637.61,827.41-689.66,666.12-689.66,519V483c0-85.75,17.27-179,48.65-262.7A790,790,0,0,1-578.82-47.56,800,800,0,0,1-155.23-470.14a790.34,790.34,0,0,1,309.54-62.61c16.56,0,34.63.63,52.31,1.8,17.68-1.17,35.75-1.8,52.31-1.8A797.09,797.09,0,0,1,774.59-343.13a816.91,816.91,0,0,1,68.06,65.34C1010.32-140,1114.45,79,1114.45,293.9v42c12,54.45,18.61,113.05,18.61,165.15A757.17,757.17,0,0,1,1016.79,904.7c-40,81-97.33,158.69-161.43,218.65-140.1,131.06-323.32,203.24-515.9,203.24H294.05c-4.29,0-8.62,0-12.87-.11s-8.69.11-13,.11h-11.3c-3.25,0-6.57,0-9.89-.07s-6.64.07-9.88.07H211.65a756.05,756.05,0,0,1-106.81,7.88Z" fill="#008453"/><path d="M99.88,1322c-221.11,0-442.16-109.31-576.91-285.29a758.77,758.77,0,0,1-62.84-92.86c-86-121.2-137.29-280-137.29-424.83V483c0-85,17.23-177.27,48.53-260.11A777.54,777.54,0,0,1-567.32-42.67a787.58,787.58,0,0,1,417-416,778,778,0,0,1,304.67-61.62c16.56,0,34.63.63,52.31,1.83,17.67-1.2,35.74-1.83,52.31-1.83A784.58,784.58,0,0,1,766.5-333.6a799.7,799.7,0,0,1,67.56,64.94C999.33-133.23,1102,82.24,1102,293.9v43.33c12,54,18.61,112.09,18.61,163.78a744.67,744.67,0,0,1-114.69,397.58c-39.39,79.95-95.85,156.51-159,215.63-137.79,128.89-318,199.87-507.37,199.87h-45.5c-4.29,0-8.62,0-12.88-.12-4.31.08-8.68.12-13,.12H256.88c-3.23,0-6.55,0-9.89-.07s-6.66.07-9.88.07H210.73A743.09,743.09,0,0,1,104.84,1322Z" fill="#00aa4f"/><path d="M99.88,1309.47c-217.36,0-434.63-107.47-567-280.47a748,748,0,0,1-62.16-91.92C-614.08,817.84-664.66,661.59-664.66,519V483c0-84.19,17.19-175.56,48.42-257.52A765.14,765.14,0,0,1-555.82-37.77,775.06,775.06,0,0,1-145.5-447.11a765.31,765.31,0,0,1,299.81-60.64c16.56,0,34.63.64,52.31,1.86,17.67-1.22,35.74-1.86,52.31-1.86A772,772,0,0,1,758.4-324.08a790.66,790.66,0,0,1,67.08,64.54c162.84,133.11,264,345.08,264,553.44v44.71c12,53.51,18.61,111.13,18.61,162.4A732.14,732.14,0,0,1,994.94,892.48c-38.74,78.85-94.36,154.34-156.65,212.61-135.46,126.72-312.61,196.5-498.83,196.5H294.05c-4.31,0-8.64,0-12.87-.12-4.3.08-8.67.12-13,.12h-11.3c-3.25,0-6.57,0-9.88-.07s-6.65.07-9.89.07h-27.3a729.28,729.28,0,0,1-105,7.88Z" fill="#008453"/><path d="M99.88,1297c-213.6,0-427.08-105.62-557.19-275.66a734.22,734.22,0,0,1-61.48-91c-83.52-117.28-133.37-271-133.37-411.34V483c0-83.41,17.15-173.86,48.31-254.92a752.69,752.69,0,0,1,59.53-261A762.54,762.54,0,0,1-140.63-435.6a753.13,753.13,0,0,1,294.94-59.65c16.56,0,34.63.65,52.31,1.89,17.67-1.24,35.74-1.89,52.31-1.89a759.49,759.49,0,0,1,491.38,180.7,776.88,776.88,0,0,1,66.58,64.14C977.32-119.64,1077,88.84,1077,293.9V340c12,53,18.61,110.15,18.61,161A719.5,719.5,0,0,1,984,886.37c-38.1,77.75-92.86,152.16-154.25,209.63-133.14,124.54-307.26,193.13-490.29,193.13H294.05c-4.29,0-8.62,0-12.87-.12-4.32.08-8.69.12-13,.12h-11.3c-3.25,0-6.58,0-9.88-.07s-6.65.07-9.89.07H208.89a717,717,0,0,1-104,7.88Z" fill="#00aa4f"/><path d="M99.88,1284.47c-209.84,0-419.55-103.77-547.34-270.85a723.18,723.18,0,0,1-60.79-90C-590.54,808.27-639.66,657.07-639.66,519V483c0-82.63,17.11-172.15,48.21-252.32A740.21,740.21,0,0,1-532.82-28,750.08,750.08,0,0,1-135.76-424.09a740.62,740.62,0,0,1,290.07-58.66c16.57,0,34.63.67,52.31,1.92,17.67-1.25,35.74-1.92,52.31-1.92A747,747,0,0,1,742.21-305a762,762,0,0,1,66.09,63.75c158,128.43,256.15,333.41,256.15,535.18v47.5c12,52.55,18.61,109.17,18.61,159.61a706.87,706.87,0,0,1-110,379.24c-37.48,76.66-91.4,150-151.88,206.59-130.81,122.36-301.9,189.75-481.75,189.75H294.05c-4.29,0-8.62,0-12.86-.12-4.32.08-8.69.12-13,.12H256.88c-3.24,0-6.57,0-9.88-.07s-6.66.07-9.89.07H208a704.71,704.71,0,0,1-103.11,7.88Z" fill="#008453"/><path d="M99.88,1272c-206.07,0-412-101.93-537.49-266a709.72,709.72,0,0,1-60.09-89.08c-81.07-113.35-129.46-262-129.46-397.85V483c0-81.85,17.07-170.44,48.11-249.72A727.76,727.76,0,0,1-521.32-23.08a737.51,737.51,0,0,1,390.43-389.5,728.26,728.26,0,0,1,285.2-57.67c16.57,0,34.64.68,52.31,1.95,17.66-1.27,35.73-1.95,52.31-1.95A734.46,734.46,0,0,1,734.11-295.5a751.72,751.72,0,0,1,65.61,63.35C955.32-106.06,1052,95.42,1052,293.9v48.91c12,52.07,18.61,108.19,18.61,158.2a694.44,694.44,0,0,1-108.4,373.13c-36.89,75.56-90,147.86-149.54,203.57-128.49,120.19-296.54,186.38-473.21,186.38H294.05c-4.26,0-8.59,0-12.86-.12-4.3.08-8.68.12-13,.12H256.88c-3.21,0-6.53,0-9.88-.07s-6.69.07-9.89.07H207A691.91,691.91,0,0,1,104.84,1272Z" fill="#00aa4f"/><path d="M99.88,1259.47c-202.31,0-404.47-100.09-527.63-261.24a696.17,696.17,0,0,1-59.41-88.13C-567,798.71-614.66,652.56-614.66,519V483c0-81.07,17-168.73,48-247.12A715.36,715.36,0,0,1-509.82-18.18,725,725,0,0,1-126-401.06a715.55,715.55,0,0,1,280.33-56.69c16.57,0,34.64.69,52.31,2,17.66-1.29,35.73-2,52.31-2A722,722,0,0,1,726-286a739.05,739.05,0,0,1,65.11,63C944.32-99.27,1039.45,98.71,1039.45,293.9v50.34c12,51.58,18.61,107.19,18.61,156.77A681.81,681.81,0,0,1,951.24,868c-36.21,74.46-88.43,145.65-147.11,200.55-126.16,118-291.18,183-464.67,183H294.05c-4.24,0-8.57,0-12.86-.13-4.33.09-8.7.13-13,.13H256.88c-3.22,0-6.54,0-9.88-.08s-6.68.08-9.89.08H206.06a679.3,679.3,0,0,1-101.22,7.88Z" fill="#008453"/><path d="M99.88,1247c-198.54,0-396.93-98.25-517.77-256.42a684.62,684.62,0,0,1-58.72-87.2C-555.24,793.93-602.16,650.3-602.16,519V483c0-80.29,17-167,47.93-244.51A702.87,702.87,0,0,1-498.31-13.29,712.52,712.52,0,0,1-121.15-389.55a703.22,703.22,0,0,1,275.46-55.7c16.58,0,34.64.7,52.31,2,17.66-1.32,35.73-2,52.31-2a709.52,709.52,0,0,1,459,168.79,727.34,727.34,0,0,1,64.63,62.58C933.32-92.48,1027,102,1027,293.9v51.78c12,51.08,18.61,106.18,18.61,155.33a669.34,669.34,0,0,1-105.3,360.91c-35.57,73.35-86.94,143.48-144.72,197.53-123.84,115.84-285.83,179.64-456.13,179.64H294.05c-4.24,0-8.57,0-12.86-.13-4.32.09-8.7.13-13,.13H256.88c-3.2,0-6.53,0-9.88-.08s-6.69.08-9.89.08h-32A665.19,665.19,0,0,1,104.84,1247Z" fill="#00aa4f"/><path d="M99.88,1234.47c-194.79,0-389.4-96.41-507.92-251.61a670,670,0,0,1-58-86.26C-543.47,789.15-589.66,648.05-589.66,519V483c0-79.51,17-165.31,47.85-241.89a690.46,690.46,0,0,1,55-249.53A700,700,0,0,1-116.28-378a691,691,0,0,1,270.59-54.71c16.58,0,34.65.71,52.31,2,17.65-1.34,35.72-2,52.31-2a697,697,0,0,1,450.9,165.82A713,713,0,0,1,774-204.75c148.36,119.07,240.49,310,240.49,498.65v53.24c12,50.58,18.61,105.16,18.61,153.87a656.81,656.81,0,0,1-103.68,354.8c-34.93,72.25-85.45,141.3-142.33,194.51C665.54,1164,506.58,1226.59,339.46,1226.59H294.05c-4.24,0-8.56,0-12.86-.13-4.33.09-8.7.13-13,.13H256.88c-3.16,0-6.49,0-9.88-.08s-6.73.08-9.89.08H204.17a652.58,652.58,0,0,1-99.3,7.88Z" fill="#008453"/><path d="M99.88,1222c-191,0-381.87-94.57-498.06-246.8a658,658,0,0,1-57.35-85.31C-531.7,784.37-577.16,645.79-577.16,519V483c0-78.73,16.95-163.61,47.78-239.28A677.75,677.75,0,0,1-475.31-3.49a687.51,687.51,0,0,1,363.9-363,678.49,678.49,0,0,1,265.72-53.72c16.58,0,34.65.72,52.31,2.09,17.65-1.37,35.72-2.09,52.31-2.09a684.45,684.45,0,0,1,442.8,162.84,702,702,0,0,1,63.65,61.8C911.32-78.89,1002,108.58,1002,293.9v54.71c12,50.07,18.61,104.13,18.61,152.4A644.26,644.26,0,0,1,918.45,849.7c-34.29,71.15-84,139.13-139.94,191.49-119.19,111.5-275.11,172.9-439,172.9H294.05c-4.23,0-8.56,0-12.86-.13-4.33.09-8.7.13-13,.13H256.88c-3.17,0-6.5,0-9.88-.08s-6.72.08-9.89.08H203.17a638.91,638.91,0,0,1-98.35,7.89Z" fill="#00aa4f"/><path d="M99.88,1209.47c-187.28,0-374.33-92.71-488.2-242A645.89,645.89,0,0,1-445,883.11C-519.93,779.59-564.66,643.53-564.66,519V483c0-77.95,16.93-161.9,47.71-236.66a665.31,665.31,0,0,1,53.14-245A675,675,0,0,1-106.54-355a666,666,0,0,1,260.85-52.74c16.59,0,34.65.74,52.31,2.13,17.65-1.39,35.71-2.13,52.31-2.13A672,672,0,0,1,693.64-247.88a686.89,686.89,0,0,1,63.15,61.41C900.32-72.09,989.45,111.87,989.45,293.9v56.19c12,49.56,18.61,103.1,18.61,150.92A631.72,631.72,0,0,1,907.52,843.59c-33.65,70-82.48,137-137.55,188.47-116.86,109.32-269.75,169.53-430.51,169.53H294.05c-4.23,0-8.55,0-12.86-.14-4.33.09-8.71.14-13,.14H256.88c-3.19,0-6.51,0-9.88-.08s-6.7.08-9.89.08H202.25a628.08,628.08,0,0,1-97.41,7.89Z" fill="#008453"/><path d="M99.88,1197c-183.51,0-366.79-90.87-478.34-237.17a632.23,632.23,0,0,1-56-83.45c-73.7-101.57-117.7-235.11-117.7-357.38V483c0-77.17,16.91-160.19,47.65-234A653,653,0,0,1-452.31,6.3,662.48,662.48,0,0,1-101.67-343.5a653.51,653.51,0,0,1,256-51.75c16.59,0,34.66.75,52.31,2.17,17.65-1.42,35.71-2.17,52.31-2.17A659.42,659.42,0,0,1,685.54-238.36a674.59,674.59,0,0,1,62.67,61C889.33-65.29,977,115.16,977,293.9v57.69c12,49.05,18.61,102.05,18.61,149.42a619.18,619.18,0,0,1-99,336.47c-33,68.94-81,134.78-135.15,185.46-114.54,107.14-264.4,166.15-422,166.15H294.05c-4.22,0-8.55,0-12.86-.14-4.33.09-8.71.14-13,.14H256.88c-3.17,0-6.49,0-9.88-.08s-6.73.08-9.89.08h-35.8a615.38,615.38,0,0,1-96.42,7.89Z" fill="#00aa4f"/><path d="M99.88,1184.47c-179.75,0-359.25-89-468.48-232.35a619.25,619.25,0,0,1-55.29-82.52C-496.39,770-539.66,639-539.66,519V483c0-76.4,16.89-158.48,47.6-231.4A640.7,640.7,0,0,1-440.81,11.2,650,650,0,0,1-96.8-332a641.09,641.09,0,0,1,251.11-50.76c16.59,0,34.66.77,52.31,2.21,17.65-1.44,35.71-2.21,52.31-2.21A646.87,646.87,0,0,1,677.45-228.83a660.41,660.41,0,0,1,62.17,60.65C878.33-58.48,964.45,118.46,964.45,293.9v59.21c12,48.52,18.61,101,18.61,147.9a606.65,606.65,0,0,1-97.41,330.35C853.29,899.21,806.16,964,752.89,1013.81c-112.21,105-259,162.78-413.43,162.78H294.05c-4.22,0-8.54,0-12.85-.14-4.35.09-8.72.14-13,.14H256.88c-3.17,0-6.49,0-9.88-.08s-6.72.08-9.89.08H200.2a600.86,600.86,0,0,1-95.36,7.89Z" fill="#008453"/><path d="M99.88,1172c-176,0-351.7-87.18-458.62-227.54a604.83,604.83,0,0,1-54.6-81.58C-484.63,765.24-527.16,636.76-527.16,519V483c0-75.63,16.88-156.77,47.56-228.76A628.37,628.37,0,0,1-429.31,16.1,637.51,637.51,0,0,1-91.93-320.48a628.76,628.76,0,0,1,246.24-49.77c16.6,0,34.67.78,52.31,2.25,17.64-1.47,35.7-2.25,52.31-2.25A634.4,634.4,0,0,1,669.35-219.31,650,650,0,0,1,731-159C867.33-51.68,952,121.76,952,293.9v60.74c12,48,18.61,99.91,18.61,146.37a594.18,594.18,0,0,1-95.84,324.24C843,892,796.72,955.69,744.35,1004.68c-109.89,102.8-253.68,159.41-404.89,159.41H294.05c-4.21,0-8.53,0-12.86-.15-4.34.1-8.72.15-13,.15H256.88c-3.19,0-6.52,0-9.88-.09s-6.7.09-9.89.09h-37.9a589.07,589.07,0,0,1-94.32,7.88Z" fill="#00aa4f"/><path d="M99.88,1159.47c-172.22,0-344.17-85.34-448.77-222.73a593.77,593.77,0,0,1-53.91-80.65C-472.86,760.46-514.66,634.51-514.66,519V483c0-74.86,16.86-155,47.53-226.12A616,616,0,0,1-417.81,21,625,625,0,0,1-87.06-309a616.19,616.19,0,0,1,241.37-48.79c16.6,0,34.67.8,52.31,2.3,17.64-1.5,35.7-2.3,52.31-2.3a621.86,621.86,0,0,1,402.32,148,636.27,636.27,0,0,1,61.2,59.91c133.88,105,217,274.93,217,443.78v62.29c12,47.46,18.61,98.82,18.61,144.82a581.61,581.61,0,0,1-94.28,318.13c-31.08,65.64-76.5,128.27-128,176.41-107.56,100.62-248.32,156-396.35,156H294.05c-4.2,0-8.53,0-12.85-.15-4.36.1-8.73.15-13,.15H256.88c-3.18,0-6.5,0-9.88-.09s-6.71.09-9.89.09h-39a576,576,0,0,1-93.27,7.88Z" fill="#008453"/><path d="M99.88,1147c-168.47,0-336.63-83.5-438.91-217.92a580.23,580.23,0,0,1-53.22-79.71C-461.09,755.68-502.16,632.25-502.16,519V483c0-74.08,16.86-153.34,47.5-223.47A603.63,603.63,0,0,1-406.31,25.89,612.58,612.58,0,0,1-82.19-297.45a603.65,603.65,0,0,1,236.5-47.8c16.61,0,34.67.81,52.31,2.34,17.63-1.53,35.7-2.34,52.31-2.34a609.35,609.35,0,0,1,394.23,145,623.84,623.84,0,0,1,60.71,59.54C845.33-38.07,927,128.35,927,293.9v63.85c12,46.92,18.61,97.73,18.61,143.26a569.1,569.1,0,0,1-92.72,312c-30.43,64.54-75,126.09-125.57,173.39-105.24,98.45-243,152.67-387.81,152.67H294.05c-4.2,0-8.52,0-12.85-.15-4.36.1-8.74.15-13,.15H256.88c-3.18,0-6.5,0-9.88-.09s-6.72.09-9.89.09h-40a563.38,563.38,0,0,1-92.23,7.88Z" fill="#00aa4f"/><path d="M99.88,1134.47c-164.71,0-329.09-81.65-429-213.1a566.43,566.43,0,0,1-52.53-78.79c-67.62-91.69-108-212.59-108-323.59V483c0-73.31,16.85-151.62,47.49-220.82.82-328.21,268.08-595,596.48-595,16.61,0,34.67.83,52.31,2.39,17.63-1.56,35.69-2.39,52.31-2.39a596.89,596.89,0,0,1,386.13,142,610.5,610.5,0,0,1,60.22,59.17C834.34-31.26,914.45,131.64,914.45,293.9v65.43c12,46.38,18.61,96.63,18.61,141.68a556.72,556.72,0,0,1-91.15,305.91c-29.8,63.44-73.51,123.92-123.18,170.37-102.91,96.28-237.61,149.3-379.27,149.3H294.05c-4.22,0-8.54,0-12.86-.16-4.33.11-8.7.16-13,.16H256.88c-3.19,0-6.52,0-9.88-.09s-6.7.09-9.89.09H196a550.65,550.65,0,0,1-91.18,7.88Z" fill="#008453"/><path d="M99.88,1122c-160.94,0-321.55-79.8-419.19-208.29a552.77,552.77,0,0,1-51.85-77.86c-66.39-89.71-106-208.08-106-316.83V483c0-72.55,16.85-149.9,47.49-218.15V263.7c0-322,262-584,584-584,16.62,0,34.68.85,52.31,2.44,17.63-1.59,35.69-2.44,52.31-2.44a584.39,584.39,0,0,1,378,139,597.55,597.55,0,0,1,59.75,58.9C823.34-24.45,902,135,902,293.9v67c12,45.83,18.61,95.51,18.61,140.08A544.08,544.08,0,0,1,831,800.8c-29.15,62.35-72,121.75-120.78,167.37-100.59,94.1-232.25,145.92-370.73,145.92H294.05c-4.23,0-8.55,0-12.85-.16-4.33.11-8.7.16-13,.16H256.88c-3.17,0-6.49,0-9.88-.09s-6.72.09-9.89.09H195a538,538,0,0,1-90.12,7.88Z" fill="#00aa4f"/><path d="M99.88,1109.47c-157.18,0-314-78-409.33-203.48a540.62,540.62,0,0,1-51.16-76.93c-65.17-87.73-104-203.58-104-310.07V483c0-71.78,16.85-148.19,47.51-215.49V263.7c0-315.11,256.36-571.48,571.48-571.48,16.62,0,34.68.86,52.31,2.49,17.62-1.63,35.68-2.49,52.31-2.49A571.82,571.82,0,0,1,628.87-171.69a587,587,0,0,1,59.25,58.45C812.34-17.64,889.45,138.24,889.45,293.9v68.65c12,45.27,18.61,94.37,18.61,138.46a531.54,531.54,0,0,1-88,293.68C791.56,855.93,749.56,914.27,701.7,959c-98.27,91.92-226.9,142.55-362.2,142.55H294.05c-4.23,0-8.55,0-12.85-.16-4.33.11-8.7.16-13,.16H256.88c-3.16,0-6.49,0-9.88-.1s-6.73.1-9.89.1H193.93a524.78,524.78,0,0,1-89,7.88Z" fill="#008453"/><path d="M99.88,1097c-153.42,0-306.48-76.12-399.47-198.66a527.75,527.75,0,0,1-50.47-76C-414,736.54-452.16,623.23-452.16,519V483c0-71,16.86-146.48,47.54-212.83,0-2.22-.05-4.38-.05-6.47,0-308.22,250.76-559,559-559,16.63,0,34.69.88,52.31,2.55,17.62-1.67,35.68-2.55,52.31-2.55A559.35,559.35,0,0,1,620.78-162.16a572.29,572.29,0,0,1,58.75,58.09C801.34-10.82,877,141.54,877,293.9v70.29c12,44.7,18.61,93.22,18.61,136.82a519,519,0,0,1-86.48,287.57c-27.85,60.13-69,117.4-116,161.33-96,89.75-221.55,139.18-353.66,139.18H294.05c-4.21,0-8.53-.06-12.85-.17-4.35.11-8.72.17-13,.17H256.88c-3.18,0-6.51,0-9.88-.1s-6.71.1-9.89.1H192.8a512.08,512.08,0,0,1-88,7.88Z" fill="#00aa4f"/><path d="M99.88,1084.47c-149.66,0-298.94-74.27-389.61-193.85a514.58,514.58,0,0,1-49.78-75.08C-402.23,731.76-439.66,621-439.66,519V483c0-70.26,16.88-144.77,47.58-210.16-.06-3.17-.09-6.23-.09-9.14,0-301.33,245.15-546.48,546.48-546.48,16.63,0,34.69.9,52.31,2.6,17.61-1.7,35.67-2.6,52.31-2.6A546.83,546.83,0,0,1,612.68-152.64,559.72,559.72,0,0,1,671-94.9C790.34-4,864.45,144.84,864.45,293.9v72c12,44.13,18.61,92.06,18.61,135.16a506.51,506.51,0,0,1-84.92,281.45c-27.2,59-67.5,115.23-113.56,158.32-93.62,87.58-216.19,135.81-345.12,135.81H294.05c-4.21,0-8.53-.06-12.85-.17-4.34.11-8.72.17-13,.17H256.88c-3.2,0-6.52,0-9.88-.1s-6.69.1-9.89.1H191.78a499.38,499.38,0,0,1-86.89,7.89Z" fill="#008453"/><path d="M99.88,1072c-145.9,0-291.4-72.43-379.76-189A502.41,502.41,0,0,1-329,808.77c-61.5-81.79-98.2-190-98.2-289.78V483c0-69.51,16.9-143.06,47.65-207.49-.11-4.09-.16-8.12-.16-11.81,0-294.43,239.54-534,534-534,16.64,0,34.7.92,52.31,2.66,17.61-1.74,35.66-2.66,52.31-2.66A534.28,534.28,0,0,1,604.59-143.11a546.29,546.29,0,0,1,57.77,57.39C779.34,2.81,852,148.14,852,293.9v73.63c12,43.55,18.61,90.88,18.61,133.48a494,494,0,0,1-83.37,275.34c-26.55,57.94-66,113.06-111.15,155.3-91.3,85.41-210.83,132.44-336.58,132.44H294.05c-4.23,0-8.55-.06-12.85-.18-4.32.12-8.7.18-13,.18H256.88c-3.21,0-6.54,0-9.88-.1s-6.68.1-9.89.1H190.69a486,486,0,0,1-85.8,7.9Z" fill="#00aa4f"/><path d="M99.88,1059.47c-142.14,0-283.86-70.58-369.9-184.22A489.27,489.27,0,0,1-318.41,802c-60.28-79.8-96.25-185.52-96.25-283V483c0-68.76,16.93-141.36,47.73-204.8-.16-5-.24-10-.24-14.5,0-287.54,233.93-521.48,521.48-521.48,16.64,0,34.7.94,52.31,2.73,17.6-1.79,35.66-2.73,52.31-2.73A521.82,521.82,0,0,1,596.49-133.59a533.89,533.89,0,0,1,57.29,57.05c114.56,86.16,185.67,228,185.67,370.44v75.34c12,43,18.61,89.68,18.61,131.77a481.53,481.53,0,0,1-81.82,269.23c-25.89,56.83-64.48,110.88-108.74,152.28-89,83.23-205.47,129.07-328,129.07H294.05c-4.22,0-8.54-.06-12.85-.18-4.33.12-8.7.18-13,.18H256.88c-3.23,0-6.55,0-9.88-.11s-6.66.11-9.89.11H189.5a473.69,473.69,0,0,1-84.61,7.89Z" fill="#008453"/><path d="M99.88,1047c-138.38,0-276.32-68.74-360-179.41a475.77,475.77,0,0,1-47.69-72.33c-59.07-77.81-94.31-181-94.31-276.24V483c0-68,17-139.65,47.83-202.11-.23-5.92-.34-11.8-.34-17.19,0-280.65,228.33-509,509-509a519.37,519.37,0,0,1,52.31,2.79A519.37,519.37,0,0,1,259-245.3,509.29,509.29,0,0,1,588.4-124.07a520.79,520.79,0,0,1,56.79,56.72C757.34,16.44,827,154.73,827,293.9V371c12,42.36,18.61,88.47,18.61,130.05a469,469,0,0,1-80.27,263.11c-25.24,55.73-63,108.71-106.33,149.28-86.65,81-200.12,125.69-319.5,125.69H294.05c-4.22,0-8.54-.06-12.85-.19-4.32.13-8.7.19-13,.19H256.88c-3.24,0-6.57,0-9.88-.11s-6.65.11-9.89.11H188.32a461.51,461.51,0,0,1-83.43,7.88Z" fill="#00aa4f"/><path d="M99.88,1034.47c-134.62,0-268.79-66.9-350.18-174.59a462.64,462.64,0,0,1-47-71.42C-355.15,712.64-389.66,612-389.66,519V483c0-67.27,17-137.94,47.94-199.4-.29-6.85-.45-13.67-.45-19.9,0-273.76,222.72-496.48,496.48-496.48a505.16,505.16,0,0,1,52.31,2.86,505.16,505.16,0,0,1,52.31-2.86A496.74,496.74,0,0,1,580.3-114.54a509,509,0,0,1,56.31,56.38C746.34,23.26,814.45,158,814.45,293.9v78.81c12,41.75,18.61,87.24,18.61,128.3a456.36,456.36,0,0,1-78.73,257c-24.58,54.63-61.45,106.53-103.91,146.26-84.33,78.88-194.76,122.32-311,122.32h-26c-2.3,0-4.63,0-6.94-.06s-4.64.06-6.94.06h-5.45c-4.24,0-8.56-.06-12.85-.19-4.3.13-8.68.19-13,.19H256.88c-3.26,0-6.58,0-9.88-.11s-6.63.11-9.89.11h-50a448.8,448.8,0,0,1-82.26,7.88Z" fill="#008453"/><path d="M99.88,1022C-31,1022-161.36,956.92-240.44,852.19a449.65,449.65,0,0,1-46.3-70.51c-56.64-73.83-90.42-171.94-90.42-262.69V483c0-66.52,17.06-136.23,48.09-196.69-.4-7.76-.6-15.52-.6-22.61,0-266.86,217.11-484,484-484a494.06,494.06,0,0,1,52.31,2.93A494.06,494.06,0,0,1,259-220.3,484.35,484.35,0,0,1,572.21-105,495.84,495.84,0,0,1,628-49C735.35,30.09,802,161.31,802,293.9v80.58c12,41.14,18.61,86,18.61,126.53a443.88,443.88,0,0,1-77.18,250.88c-23.92,53.53-59.94,104.37-101.5,143.25-82,76.71-189.4,119-302.42,119H313.38c-2.3,0-4.63,0-6.94-.06s-4.64.06-6.94.06h-5.45c-4.25,0-8.57-.07-12.85-.2-4.32.13-8.69.2-13,.2H256.88c-3.27,0-6.6,0-9.88-.12-3.29.08-6.62.12-9.89.12H186a436,436,0,0,1-81.07,7.88Z" fill="#00aa4f"/><path d="M99.88,1009.47c-127.1,0-253.71-63.2-330.46-165a438.06,438.06,0,0,1-45.61-69.6c-55.41-71.8-88.47-167.38-88.47-255.87V483c0-65.79,17.12-134.52,48.25-194-.5-8.69-.76-17.39-.76-25.34,0-260,211.5-471.48,471.48-471.48a476.2,476.2,0,0,1,52.31,3,476.2,476.2,0,0,1,52.31-3A471.75,471.75,0,0,1,564.11-95.49a484.53,484.53,0,0,1,55.33,55.73c104.9,76.67,170,204.37,170,333.66v82.38c12,40.52,18.61,84.74,18.61,124.73a431.4,431.4,0,0,1-75.64,244.77C709.16,798.2,674,848,633.34,886c-79.68,74.53-184,115.58-293.88,115.58H313.38c-2.3,0-4.63,0-6.94-.06s-4.64.06-6.94.06h-5.45c-4.24,0-8.56-.07-12.85-.2-4.33.13-8.71.2-13,.2H256.88c-3.28,0-6.6,0-9.88-.12-3.29.08-6.61.12-9.89.12H184.77a422.51,422.51,0,0,1-79.88,7.88Z" fill="#008453"/><path d="M99.88,997c-123.34,0-246.17-61.35-320.6-160.15a425,425,0,0,1-44.91-68.69c-54.2-69.84-86.53-162.89-86.53-249.14V483c0-65,17.18-132.8,48.44-191.21-.62-9.63-.95-19.27-.95-28.09,0-253.08,205.9-459,459-459a466.48,466.48,0,0,1,52.31,3.09A466.48,466.48,0,0,1,259-195.3,459.18,459.18,0,0,1,556-86a471.34,471.34,0,0,1,54.84,55.42C713.34,43.74,777,167.9,777,293.9v84.21C789,418,795.56,461.56,795.56,501a418.9,418.9,0,0,1-74.11,238.65c-22.59,51.32-56.88,100-96.65,137.22-77.35,72.36-178.69,112.21-285.34,112.21H313.38c-2.3,0-4.63,0-6.94-.06s-4.64.06-6.94.06h-5.45c-4.25,0-8.57-.07-12.84-.21-4.33.14-8.71.21-13,.21H256.88c-3.27,0-6.6,0-9.88-.12-3.3.08-6.62.12-9.89.12h-53.6A409.92,409.92,0,0,1,104.84,997Z" fill="#00aa4f"/><path d="M99.88,984.47c-119.58,0-238.63-59.51-310.74-155.34a411,411,0,0,1-44.21-67.79C-308.06,693.5-339.66,603-339.66,519V483c0-64.32,17.26-131.08,48.66-188.45-.77-10.56-1.17-21.15-1.17-30.85,0-246.19,200.29-446.48,446.48-446.48a455,455,0,0,1,52.31,3.17,455,455,0,0,1,52.31-3.17,446.74,446.74,0,0,1,289,106.31,458.53,458.53,0,0,1,54.35,55.11C702.34,50.56,764.45,171.19,764.45,293.9V380c12,39.24,18.61,82.15,18.61,121.05a406.41,406.41,0,0,1-72.57,232.53c-21.93,50.23-55.36,97.85-94.23,134.21-75,70.19-173.33,108.84-276.8,108.84H313.38c-2.3,0-4.63,0-6.94-.06s-4.64.06-6.94.06h-5.45c-4.25,0-8.56-.07-12.84-.21-4.33.14-8.71.21-13,.21H256.88c-3.28,0-6.61,0-9.88-.13-3.29.09-6.61.13-9.89.13H182.3a396.68,396.68,0,0,1-77.46,7.89Z" fill="#008453"/><path d="M99.88,972C-15.94,972-131.21,914.3-201,821.45a397.23,397.23,0,0,1-43.5-66.89c-51.78-65.84-82.66-153.81-82.66-235.57V483c0-63.59,17.35-129.36,48.91-185.68-.93-11.49-1.42-23-1.42-33.62,0-239.29,194.68-434,434-434a443.7,443.7,0,0,1,52.29,3.3,441.86,441.86,0,0,1,52.31-3.26A434.19,434.19,0,0,1,539.82-66.92,445.57,445.57,0,0,1,593.68-12.1C691.35,57.4,752,174.48,752,293.9v88c12,38.58,18.61,80.82,18.61,119.16a393.86,393.86,0,0,1-71,226.41c-21.26,49.13-53.83,95.68-91.8,131.21-72.7,68-168,105.46-268.26,105.46H313.38c-2.27,0-4.6,0-6.94-.07s-4.68.07-6.94.07h-5.45c-4.23,0-8.55-.07-12.84-.22-4.34.15-8.72.22-13,.22H256.88c-3.28,0-6.6,0-9.88-.13-3.29.09-6.61.13-9.89.13h-56a384.57,384.57,0,0,1-76.26,7.9Z" fill="#00aa4f"/><path d="M99.88,959.47c-112.07,0-223.56-55.83-291-145.71a385.51,385.51,0,0,1-42.8-66C-284.5,683.94-314.66,598.51-314.66,519V483c0-62.86,17.44-127.64,49.2-182.88-1.12-12.42-1.71-24.93-1.71-36.42,0-232.4,189.07-421.48,421.48-421.48a427.47,427.47,0,0,1,52.31,3.36,427.47,427.47,0,0,1,52.31-3.36A421.65,421.65,0,0,1,531.73-57.39,432.85,432.85,0,0,1,585.09-2.87C680.35,64.24,739.45,177.78,739.45,293.9v89.86c12,37.92,18.61,79.48,18.61,117.25a381.39,381.39,0,0,1-69.52,220.3c-20.58,48-52.28,93.5-89.36,128.19C528.8,915.33,436.57,951.59,339.46,951.59H313.38c-2.25,0-4.59,0-6.94-.07s-4.69.07-6.94.07h-5.45c-4.23,0-8.55-.08-12.84-.23-4.34.15-8.71.23-13,.23H256.88c-3.29,0-6.61-.05-9.88-.14-3.28.09-6.6.14-9.89.14H180a371.3,371.3,0,0,1-75.06,7.92Z" fill="#008453"/><path d="M99.88,947c-108.31,0-216-54-281.16-140.9A371.37,371.37,0,0,1-223.37,741c-49.36-61.82-78.79-144.69-78.79-222V483c0-62.14,17.56-125.91,49.52-180.06-1.33-13.36-2-26.84-2-39.24,0-225.51,183.47-409,409-409a416,416,0,0,1,52.31,3.46A416,416,0,0,1,259-145.3a409.11,409.11,0,0,1,264.7,97.38,420.29,420.29,0,0,1,52.83,54.3C669.34,71.08,727,181.07,727,293.9v91.81c12,37.24,18.61,78.1,18.61,115.3a368.87,368.87,0,0,1-68,214.18c-19.91,46.92-50.74,91.33-86.92,125.18-68,63.66-157.26,98.72-251.18,98.72H313.38c-2.26,0-4.59,0-6.94-.07s-4.68.07-6.94.07h-5.45c-4.24,0-8.55-.08-12.84-.24-4.33.16-8.71.24-13,.24H256.88c-3.27,0-6.6-.05-9.88-.14-3.29.09-6.62.14-9.89.14H185.26c-2.1,0-4.29,0-6.52-.06a358.59,358.59,0,0,1-73.9,8Z" fill="#00aa4f"/><path d="M99.88,934.47c-104.55,0-208.48-52.13-271.3-136.09a358.61,358.61,0,0,1-41.38-64.21C-260.95,674.37-289.66,594-289.66,519V483c0-61.43,17.69-124.18,49.89-177.22a391.75,391.75,0,0,1-2.4-42.08c0-218.62,177.86-396.48,396.48-396.48a403.1,403.1,0,0,1,52.31,3.56,403.1,403.1,0,0,1,52.31-3.56,396.7,396.7,0,0,1,256.61,94.4,407.53,407.53,0,0,1,52.38,54c90.42,62.3,146.53,168.74,146.53,278.28v93.8c12,36.54,18.61,76.7,18.61,113.31a356.42,356.42,0,0,1-66.48,208.06c-19.23,45.82-49.19,89.16-84.48,122.17-65.73,61.49-151.9,95.35-242.64,95.35H313.38c-2.28,0-4.61,0-6.94-.07s-4.66.07-6.94.07h-5.45c-4.24,0-8.56-.08-12.83-.25-4.33.17-8.71.25-13,.25H256.88c-3.27,0-6.6-.05-9.88-.15-3.29.1-6.62.15-9.89.15H185.26c-2.13,0-4.35,0-6.6-.07h-1.35a345.78,345.78,0,0,1-72.42,7.92Z" fill="#008453"/><path d="M99.88,922C-.91,922-101.07,871.67-161.56,790.7a345.69,345.69,0,0,1-40.67-63.33C-249.17,669.58-277.16,591.8-277.16,519V483c0-60.72,17.83-122.44,50.3-174.35a381.46,381.46,0,0,1-2.81-44.95c0-211.72,172.25-384,384-384a389.48,389.48,0,0,1,52.31,3.68A389.48,389.48,0,0,1,259-120.3,384.15,384.15,0,0,1,507.44-28.82,393.24,393.24,0,0,1,559.32,24.9C647.35,84.78,702,187.66,702,293.9v95.81C714,425.56,720.56,465,720.56,501a344,344,0,0,1-65,201.94c-18.55,44.72-47.64,87-82,119.16-63.4,59.31-146.54,92-234.1,92H313.38c-2.3,0-4.63,0-6.94-.07s-4.64.07-6.94.07h-5.45c-4.24,0-8.56-.09-12.83-.26-4.33.17-8.71.26-13,.26H256.88c-3.27,0-6.59-.05-9.88-.15-3.3.1-6.62.15-9.89.15H185.26c-2.13,0-4.35,0-6.6-.07l-2.79.05a333.1,333.1,0,0,1-71,7.9Z" fill="#00aa4f"/><path d="M99.88,909.47C2.84,909.47-93.53,861-151.7,783a333,333,0,0,1-40-62.45c-45.74-55.76-73-131-73-201.57V483c0-60,18-120.71,50.77-171.44a370.13,370.13,0,0,1-3.28-47.86c0-204.83,166.64-371.48,371.48-371.48a376.87,376.87,0,0,1,52.31,3.8,376.87,376.87,0,0,1,52.31-3.8A371.67,371.67,0,0,1,499.35-19.3a382.11,382.11,0,0,1,51.38,53.48C636.35,91.64,689.45,191,689.45,293.9v97.87c12,35.13,18.61,73.83,18.61,109.24a331.33,331.33,0,0,1-63.47,195.81C626.73,740.44,598.52,781.65,565,813c-61.08,57.14-141.18,88.61-225.56,88.61H313.38c-2.28,0-4.61,0-6.94-.08s-4.66.08-6.94.08h-5.45c-4.23,0-8.54-.09-12.83-.27-4.33.18-8.72.27-13,.27H256.88c-3.27,0-6.59-.05-9.88-.16-3.3.11-6.62.16-9.89.16H185.26c-2.13,0-4.35,0-6.6-.07l-4.24.06a319.57,319.57,0,0,1-69.53,7.89Z" fill="#008453"/><path d="M99.88,897C6.6,897-86,850.37-141.85,775.32a319.7,319.7,0,0,1-39.22-61.58C-225.61,660-252.16,587.33-252.16,519V483a306,306,0,0,1,51.3-168.51,358.26,358.26,0,0,1-3.81-50.79c0-197.94,161-359,359-359a366.32,366.32,0,0,1,52.31,3.93A366.32,366.32,0,0,1,259-95.3,359.14,359.14,0,0,1,491.25-9.77a368.8,368.8,0,0,1,50.89,53.25C625.34,98.5,677,194.25,677,293.9v100c12,34.39,18.61,72.35,18.61,107.14a318.9,318.9,0,0,1-62,189.69c-17.16,42.52-44.5,82.65-77.11,113.16-58.75,55-135.83,85.23-217,85.23H313.38c-2.29,0-4.63,0-6.94-.08s-4.65.08-6.94.08h-5.45c-4.23,0-8.54-.09-12.82-.28-4.34.19-8.73.28-13,.28H256.88c-3.25,0-6.58,0-9.88-.16-3.32.11-6.64.16-9.89.16H185.26c-2.14,0-4.35,0-6.6-.08-1.91,0-3.81.07-5.68.08A307,307,0,0,1,104.84,897Z" fill="#00aa4f"/><path d="M99.88,884.47c-89.53,0-178.34-44.76-231.87-116.84a307.39,307.39,0,0,1-38.5-60.71c-43.34-51.7-69.17-121.82-69.17-187.93V483a292.84,292.84,0,0,1,51.89-165.54,347,347,0,0,1-4.4-53.76c0-191,155.43-346.48,346.48-346.48a353.73,353.73,0,0,1,52.31,4.07,353.73,353.73,0,0,1,52.31-4.07A346.63,346.63,0,0,1,483.16-.25a355.85,355.85,0,0,1,50.38,53c80.8,52.58,130.91,144.75,130.91,241.11V396c12,33.64,18.61,70.84,18.61,105a306.38,306.38,0,0,1-60.49,183.56c-16.46,41.43-42.91,80.49-74.63,110.16-56.43,52.79-130.47,81.86-208.48,81.86H313.38c-2.3,0-4.63,0-6.94-.08s-4.64.08-6.94.08h-5.45c-4.22,0-8.53-.1-12.82-.29-4.34.19-8.73.29-13,.29H256.88c-3.25,0-6.58-.06-9.88-.17-3.31.11-6.64.17-9.89.17H185.26c-2.14,0-4.36,0-6.6-.08s-4.5.08-6.69.08h-.44a294.39,294.39,0,0,1-66.64,7.88Z" fill="#008453"/><path d="M99.88,872c-85.77,0-170.81-42.91-222-112a294,294,0,0,1-37.76-59.85C-202,650.43-227.16,582.87-227.16,519V483a279.56,279.56,0,0,1,52.57-162.52,335.67,335.67,0,0,1-5.08-56.78c0-184.15,149.82-334,334-334A341.74,341.74,0,0,1,206.62-66a341.9,341.9,0,0,1,52.31-4.21A334.13,334.13,0,0,1,475.06,9.28a343.58,343.58,0,0,1,49.88,52.83c78.4,50.14,127,138.73,127,231.79V398.2c12,32.87,18.61,69.29,18.61,102.81a294,294,0,0,1-59,177.43c-15.75,40.33-41.32,78.33-72.15,107.16-54.1,50.61-125.11,78.49-199.94,78.49H313.38c-2.3,0-4.63,0-6.94-.09s-4.65.09-6.94.09h-5.45c-4.23,0-8.54-.1-12.81-.3-4.36.2-8.75.3-13.05.3H256.88c-3.27,0-6.59-.06-9.88-.18-3.3.12-6.62.18-9.89.18H185.26c-2.14,0-4.35,0-6.59-.08s-4.51.08-6.7.08h-2A281.65,281.65,0,0,1,104.84,872Z" fill="#00aa4f"/><path d="M99.88,859.47c-82,0-163.27-41.07-212.14-107.22a281.34,281.34,0,0,1-37-59c-41-47.6-65.36-112.6-65.36-174.26V483a266.44,266.44,0,0,1,53.33-159.46,324,324,0,0,1-5.84-59.84C-167.17,86.47-23-57.75,154.31-57.75a327.37,327.37,0,0,1,52.31,4.38,327.37,327.37,0,0,1,52.31-4.38A321.62,321.62,0,0,1,467,18.8a331,331,0,0,1,49.37,52.66c76,47.68,123.11,132.68,123.11,222.44V400.44c12,32.09,18.61,67.7,18.61,100.57A281.62,281.62,0,0,1,600.9,671.82c-.13.16-.25.33-.38.5-15,39.22-39.72,76.15-69.66,104.15-51.78,48.44-119.75,75.12-191.4,75.12H313.38c-2.31,0-4.64,0-6.94-.09s-4.63.09-6.94.09h-5.45c-4.22,0-8.53-.11-12.81-.31-4.36.2-8.75.31-13.05.31H256.88c-3.25,0-6.58-.06-9.88-.19-3.31.13-6.64.19-9.89.19H185.26c-2.13,0-4.34,0-6.59-.09s-4.52.09-6.7.09H168.5a268.38,268.38,0,0,1-63.66,7.88Z" fill="#008453"/><path d="M99.88,847C21.62,847-55.85,807.77-102.4,744.6a268.21,268.21,0,0,1-36.29-58.17c-39.78-45.55-63.47-108-63.47-167.41V483A253.14,253.14,0,0,1-148,326.7a312.43,312.43,0,0,1-6.71-63c0-170.37,138.61-309,309-309a315.2,315.2,0,0,1,52.31,4.55,315.2,315.2,0,0,1,52.31-4.55,309.06,309.06,0,0,1,200,73.63,317.34,317.34,0,0,1,48.86,52.5C581.33,126,627,207.44,627,293.9V402.73C639,434,645.56,468.81,645.56,501a269.25,269.25,0,0,1-54.65,163.3c-.47.62-.94,1.25-1.43,1.88-14.31,38.13-38.11,74-67.15,101.16-49.46,46.27-114.41,71.75-182.87,71.75H313.38c-2.3,0-4.63,0-6.94-.1s-4.64.1-6.94.1h-5.45c-4.23,0-8.53-.11-12.8-.33-4.36.22-8.75.33-13.06.33H256.88c-3.27,0-6.59-.07-9.88-.2-3.3.13-6.62.2-9.89.2H185.26c-2.14,0-4.35,0-6.59-.09s-4.54.09-6.7.09h-5A255.78,255.78,0,0,1,104.84,847Z" fill="#00aa4f"/><path d="M99.88,834.47c-74.5,0-148.2-37.38-192.42-97.59a255.49,255.49,0,0,1-35.54-57.34c-38.59-43.48-61.58-103.33-61.58-160.55V483a240.28,240.28,0,0,1,55.2-153.15,300.62,300.62,0,0,1-7.71-66.15c0-163.48,133-296.48,296.48-296.48A303.9,303.9,0,0,1,206.62-28a302.87,302.87,0,0,1,52.31-4.74,296.64,296.64,0,0,1,191.85,70.6,304.72,304.72,0,0,1,48.34,52.38A238.65,238.65,0,0,1,614.45,293.9V405c12,30.47,18.62,64.45,18.62,96a256.81,256.81,0,0,1-52.13,155.76c-.81,1.08-1.65,2.17-2.51,3.27-13.58,37-36.48,71.83-64.63,98.17-47.14,44.1-109,68.38-174.33,68.38H313.38c-2.3,0-4.63,0-6.94-.1s-4.64.1-6.94.1h-5.45c-4.22,0-8.52-.12-12.8-.35-4.37.23-8.76.35-13.06.35H256.88c-3.27,0-6.59-.07-9.88-.21-3.3.14-6.62.21-9.89.21h-5c-1.54,0-3.11,0-4.68-.05s-3.15.05-4.69.05H185.26c-2.13,0-4.35,0-6.59-.09s-4.54.09-6.7.09h-6.54a243,243,0,0,1-60.54,7.88Z" fill="#008453"/><path d="M99.88,822c-70.75,0-140.67-35.54-182.56-92.78a241.21,241.21,0,0,1-34.77-56.52c-37.42-41.43-59.71-98.7-59.71-153.7V483a227.83,227.83,0,0,1,54.62-147.91l1.72-2a288.18,288.18,0,0,1-8.85-69.42c0-156.58,127.39-284,284-284a290.51,290.51,0,0,1,52.31,4.94A290.51,290.51,0,0,1,259-20.33a284.07,284.07,0,0,1,183.73,67.7A291.51,291.51,0,0,1,490.5,99.65l1.85,1.1A226,226,0,0,1,602,293.9V402.36c0,1.64,0,3.31-.06,5,12,29.65,18.67,62.8,18.67,93.67A244.48,244.48,0,0,1,571,649.25c-1.17,1.55-2.37,3.11-3.6,4.65-12.83,35.94-34.83,69.67-62.1,95.19-44.82,41.91-103.69,65-165.79,65H313.38c-2.3,0-4.64,0-6.94-.11s-4.64.11-6.94.11h-5.45c-4.22,0-8.52-.12-12.79-.37-4.37.25-8.76.37-13.07.37H256.88c-3.27,0-6.59-.07-9.88-.22-3.3.15-6.62.22-9.89.22h-5c-1.54,0-3.11,0-4.68-.05s-3.15.05-4.69.05H185.26c-2.14,0-4.35,0-6.59-.1s-4.53.1-6.7.1H163.8a229.79,229.79,0,0,1-59,7.91Z" fill="#00aa4f"/><path d="M99.88,809.47c-67,0-133.13-33.7-172.69-88a228.67,228.67,0,0,1-34-55.72c-36.26-39.3-57.85-94-57.85-146.79V483A215.21,215.21,0,0,1-113,343.25q2.91-3.4,6-6.74a276.37,276.37,0,0,1-10.16-72.78C-117.17,114,4.61-7.75,154.31-7.75a278.33,278.33,0,0,1,52.31,5.17,277.51,277.51,0,0,1,52.31-5.17A271.51,271.51,0,0,1,434.58,56.9a278.33,278.33,0,0,1,47.3,52.21c1.37.78,2.74,1.57,4.07,2.37A213.53,213.53,0,0,1,589.45,293.9V402.36c0,2.41,0,4.85-.13,7.29,12.1,28.82,18.74,61.14,18.74,91.36A232,232,0,0,1,561,641.72c-1.51,2-3.09,4-4.7,6-12.11,34.88-33.2,67.55-59.59,92.28-42.49,39.74-98.33,61.63-157.25,61.63H313.38c-2.29,0-4.63,0-6.94-.11s-4.65.11-6.94.11h-5.45c-4.22,0-8.52-.13-12.78-.39-4.37.26-8.76.39-13.08.39H256.88c-3.26,0-6.59-.08-9.88-.23-3.3.15-6.63.23-9.89.23h-5c-1.54,0-3.11,0-4.68,0s-3.15,0-4.69,0H185.26c-2.14,0-4.36,0-6.58-.1s-4.53.1-6.71.1h-9.84a217.5,217.5,0,0,1-57.24,7.88Z" fill="#008453"/><path d="M99.88,797c-63.25,0-125.6-31.85-162.83-83.16a215.73,215.73,0,0,1-33.21-54.93c-35.11-37.2-56-89.3-56-139.89V483a202.81,202.81,0,0,1,48.62-131.66c3.32-3.87,6.85-7.68,10.56-11.39a264.26,264.26,0,0,1-11.69-76.25c0-142.8,116.18-259,259-259a264.16,264.16,0,0,1,52.31,5.42A264.16,264.16,0,0,1,259,4.7,259.09,259.09,0,0,1,426.49,66.42a265.5,265.5,0,0,1,46.75,52.18c2.13,1.17,4.24,2.38,6.29,3.61A201,201,0,0,1,577,293.9V402.36c0,3.17-.08,6.39-.23,9.6,12.16,28,18.84,59.48,18.84,89.05A219.64,219.64,0,0,1,551,634.2c-1.87,2.47-3.82,4.95-5.83,7.39-11.31,33.76-31.48,65.37-57,89.24-40.17,37.57-93,58.26-148.71,58.26H327.34c-1.41,0-2.85,0-4.3-.05s-2.88.05-4.3.05h-5.36c-2.3,0-4.64,0-6.94-.12-2.31.08-4.64.12-6.94.12h-5.45c-4.22,0-8.52-.14-12.77-.41-4.37.27-8.77.41-13.09.41H256.88c-3.26,0-6.59-.08-9.88-.24-3.3.16-6.63.24-9.89.24h-5c-1.54,0-3.11,0-4.68-.05s-3.15.05-4.69.05H185.26c-2.15,0-4.36,0-6.58-.11s-4.52.11-6.71.11H160.35A204.77,204.77,0,0,1,104.84,797Z" fill="#00aa4f"/><path d="M99.88,784.47c-59.5,0-118.06-30-153-78.35A202.58,202.58,0,0,1-85.49,652c-34-35.07-54.17-84.57-54.17-133V483a189.28,189.28,0,0,1,61-139.44A255.22,255.22,0,0,1-92.13,263.7c0-135.91,110.57-246.48,246.48-246.48a252,252,0,0,1,52.31,5.69A252,252,0,0,1,259,17.22,246.47,246.47,0,0,1,418.39,76a252.4,252.4,0,0,1,46.2,52.19c2.9,1.54,5.76,3.14,8.53,4.8a188.38,188.38,0,0,1,91.33,161V402.36c0,3.94-.13,7.93-.38,11.91a215,215,0,0,1,19,86.74A207.21,207.21,0,0,1,541,626.68c-2.21,2.94-4.55,5.87-7,8.75a206.18,206.18,0,0,1-54.4,86.27c-37.84,35.4-87.62,54.89-140.17,54.89H327.34c-1.41,0-2.85,0-4.3-.05s-2.88.05-4.3.05h-5.36c-2.29,0-4.62,0-6.94-.13-2.32.09-4.65.13-6.94.13h-5.45c-4.22,0-8.51-.15-12.76-.44-4.37.29-8.77.44-13.1.44H256.88c-3.27,0-6.59-.09-9.89-.26-3.29.17-6.61.26-9.88.26h-5c-1.54,0-3.11,0-4.68-.06s-3.15.06-4.69.06H185.26c-2.14,0-4.35,0-6.58-.12-2.27.08-4.53.12-6.71.12h-13.3a191.65,191.65,0,0,1-53.78,7.89Z" fill="#008453"/><path d="M99.88,772c-55.75,0-110.53-28.16-143.1-73.54A189.47,189.47,0,0,1-74.79,645c-32.84-32.92-52.37-79.81-52.37-126V483A177.75,177.75,0,0,1-84.54,367.62a180.48,180.48,0,0,1,20.46-20.27,241.82,241.82,0,0,1-15.59-83.62c0-129,105-234,234-234a239.2,239.2,0,0,1,52.31,6,239.2,239.2,0,0,1,52.31-6A234,234,0,0,1,410.3,85.47a239.3,239.3,0,0,1,45.63,52.26c3.67,1.86,7.29,3.85,10.78,5.94A175.87,175.87,0,0,1,552,293.9V402.36c0,4.72-.19,9.48-.58,14.23A201.49,201.49,0,0,1,570.56,501,194.74,194.74,0,0,1,531,619.15c-2.57,3.42-5.31,6.81-8.15,10.1a193.32,193.32,0,0,1-51.78,83.32c-35.52,33.22-82.26,51.52-131.63,51.52h-12.1c-1.41,0-2.85,0-4.3-.05s-2.88.05-4.3.05h-5.36c-2.28,0-4.62-.05-6.94-.14-2.33.09-4.66.14-6.94.14h-5.45c-4.22,0-8.5-.16-12.75-.47-4.36.31-8.77.47-13.11.47H256.88c-3.27,0-6.59-.09-9.89-.28-3.29.19-6.61.28-9.88.28h-5c-1.54,0-3.11,0-4.68-.06s-3.15.06-4.69.06H185.26c-2.15,0-4.36,0-6.57-.12-2.27.08-4.53.12-6.72.12h-15.1a178.7,178.7,0,0,1-52,7.92Z" fill="#00aa4f"/><path d="M99.88,759.47c-52,0-103-26.32-133.23-68.73A176.59,176.59,0,0,1-64.07,638c-31.73-30.75-50.59-75-50.59-119V483A165.2,165.2,0,0,1-75,375.74,168.64,168.64,0,0,1-50,352v-3a228.92,228.92,0,0,1-17.17-85.27c0-122.12,99.35-221.48,221.48-221.48a226.53,226.53,0,0,1,52.31,6.33,226.53,226.53,0,0,1,52.31-6.33A221.42,221.42,0,0,1,402.2,95a226.43,226.43,0,0,1,45.05,52.39c4.46,2.14,8.83,4.49,13.05,7a163.29,163.29,0,0,1,79.15,139.5V402.36a163.28,163.28,0,0,1-.84,16.54A188.28,188.28,0,0,1,558.06,501a182.37,182.37,0,0,1-37,110.62c-2.94,3.9-6.09,7.74-9.37,11.44A177.69,177.69,0,0,1,339.48,751.58H327.34c-1.41,0-2.85,0-4.3-.06s-2.89.06-4.3.06h-5.36c-2.29,0-4.62-.05-6.94-.15-2.32.1-4.65.15-6.94.15h-5.45c-4.21,0-8.49-.17-12.73-.5-4.37.33-8.79.5-13.13.5H256.88c-3.26,0-6.58-.1-9.89-.3-3.3.2-6.62.3-9.88.3h-5c-1.53,0-3.11,0-4.68-.07s-3.16.07-4.69.07H185.26c-2.15,0-4.36,0-6.57-.13-2.26.09-4.52.13-6.72.13H154.86a166,166,0,0,1-50,7.89Z" fill="#008453"/><path d="M99.88,747c-48.25,0-95.46-24.5-123.36-63.94A163.66,163.66,0,0,1-53.31,631c-30.65-28.55-48.85-70.16-48.85-112V483a152.66,152.66,0,0,1,36.63-99.16,155.65,155.65,0,0,1,28-25.53V346.49A215.82,215.82,0,0,1-54.7,263.73c0-115.23,93.75-209,209-209a213.65,213.65,0,0,1,52.31,6.71,213.17,213.17,0,0,1,52.31-6.71A209,209,0,0,1,394.1,104.5a213.28,213.28,0,0,1,44.43,52.6A150,150,0,0,1,527,293.9V402.36a152.56,152.56,0,0,1-1.18,18.86A175.09,175.09,0,0,1,545.56,501a170,170,0,0,1-34.5,103.09c-3.31,4.39-6.88,8.67-10.63,12.76A167.11,167.11,0,0,1,454,694.31c-30.87,28.88-71.55,44.78-114.55,44.78H327.34c-1.41,0-2.86,0-4.3-.06s-2.89.06-4.3.06h-5.36c-2.29,0-4.62-.05-6.94-.16-2.32.11-4.65.16-6.94.16h-5.45c-4.21,0-8.48-.18-12.72-.54-4.37.36-8.79.54-13.14.54H256.88c-3.26,0-6.59-.11-9.89-.33-3.29.22-6.62.33-9.88.33h-5c-1.53,0-3.1,0-4.68-.07s-3.17.07-4.69.07h-4.91c-1.28,0-2.57,0-3.83-.05s-2.56.05-3.83.05H185.26c-2.16,0-4.36-.05-6.56-.14-2.26.09-4.52.14-6.73.14H161c-1.27,0-2.56,0-3.83-.05s-2.56.05-3.83.05h-.49a153,153,0,0,1-48,7.88Z" fill="#00aa4f"/><path d="M99.88,734.47c-44.5,0-87.92-22.63-113.48-59.1a150.62,150.62,0,0,1-28.9-51.43A141.92,141.92,0,0,1-89.66,519V483A140.16,140.16,0,0,1-56,392a142.18,142.18,0,0,1,31-27V343.89a202.51,202.51,0,0,1-17.17-80.16C-42.17,155.39,46,67.25,154.31,67.25a200.09,200.09,0,0,1,52.31,7.15,200.09,200.09,0,0,1,52.31-7.15A196.45,196.45,0,0,1,386,114.05a199.94,199.94,0,0,1,43.81,53,137.49,137.49,0,0,1,84.64,126.9V402.36a139.1,139.1,0,0,1-1.63,21.18A161.75,161.75,0,0,1,533.06,501a158.57,158.57,0,0,1-43.93,109.63,154,154,0,0,1-43.66,74.55c-28.54,26.7-66.19,41.4-106,41.4H327.34c-1.41,0-2.85,0-4.3-.07s-2.89.07-4.3.07h-5.36c-2.3,0-4.63-.06-6.94-.17-2.31.11-4.64.17-6.94.17h-5.45c-4.2,0-8.47-.2-12.7-.59-4.38.39-8.8.59-13.16.59H256.88c-3.27,0-6.59-.12-9.89-.35-3.29.23-6.61.35-9.88.35h-5c-1.54,0-3.11,0-4.68-.08s-3.16.08-4.69.08h-4.91c-1.28,0-2.57,0-3.83-.05s-2.56.05-3.83.05H185.26c-2.16,0-4.36-.05-6.55-.16-2.26.11-4.53.16-6.74.16H161c-1.27,0-2.56,0-3.83-.05s-2.55.05-3.83.05h-2.57a140.14,140.14,0,0,1-45.9,7.88Z" fill="#008453"/><path d="M99.88,722c-40.76,0-80.39-20.78-103.61-54.29a137.66,137.66,0,0,1-27.9-50.87A128.64,128.64,0,0,1-77.16,519V483a127.65,127.65,0,0,1,30.63-82.92,129.18,129.18,0,0,1,34-28.1v-30.8A189.27,189.27,0,0,1-29.7,263.7c0-101.44,82.53-184,184-184a187.17,187.17,0,0,1,52.31,7.64,187.17,187.17,0,0,1,52.31-7.64,183.94,183.94,0,0,1,119,43.82,187.16,187.16,0,0,1,43.13,53.35,125.12,125.12,0,0,1,80.9,117V402.36a125.21,125.21,0,0,1-2.22,23.5A148.34,148.34,0,0,1,520.56,501a145.15,145.15,0,0,1-29.47,88,147,147,0,0,1-13.32,15.33A140.23,140.23,0,0,1,339.46,714H327.34c-1.42,0-2.86,0-4.3-.07s-2.88.07-4.3.07h-5.36c-2.3,0-4.63-.06-6.94-.19-2.31.13-4.64.19-6.94.19h-5.45c-4.2,0-8.46-.22-12.68-.64-4.38.42-8.81.64-13.18.64H256.88c-3.27,0-6.59-.13-9.89-.39-3.29.26-6.61.39-9.88.39h-5c-1.53,0-3.1,0-4.68-.09s-3.16.09-4.69.09h-4.91c-1.28,0-2.57,0-3.83-.06s-2.55.06-3.83.06h-5c-1.17,0-2.35,0-3.52,0s-2.34,0-3.51,0h-3.78c-1.13,0-2.28,0-3.42,0s-2.29,0-3.43,0h-2.25c-2.16,0-4.36-.06-6.54-.17-2.26.11-4.53.17-6.75.17H161c-1.27,0-2.56,0-3.83-.06s-2.55.06-3.83.06h-4.75a127.37,127.37,0,0,1-43.75,8Z" fill="#00aa4f"/><path d="M99.88,709.47A114.87,114.87,0,0,1,6.15,660a125,125,0,0,1-26.83-50.38,115.4,115.4,0,0,1-44-90.62V483A115.19,115.19,0,0,1-37,408.23,115.81,115.81,0,0,1,0,379.52v-41.1a176,176,0,0,1-17.17-74.69c0-94.55,76.92-171.48,171.48-171.48a174.27,174.27,0,0,1,52.31,8.21,174,174,0,0,1,52.31-8.21,171.48,171.48,0,0,1,110.89,40.84,173.87,173.87,0,0,1,42.42,54A112.59,112.59,0,0,1,489.45,293.9V402.36a112.25,112.25,0,0,1-3,25.82A135.07,135.07,0,0,1,508.06,501a132.69,132.69,0,0,1-26.95,80.52,134.38,134.38,0,0,1-14.79,16.57,128,128,0,0,1-37.93,68.83c-23.89,22.35-55.47,34.66-88.93,34.66H327.34c-1.41,0-2.86,0-4.3-.08s-2.89.08-4.3.08h-5.36c-2.3,0-4.63-.07-6.94-.21-2.31.14-4.64.21-6.94.21h-5.45a113.71,113.71,0,0,1-12.65-.71,124.1,124.1,0,0,1-13.21.71H256.88c-3.27,0-6.59-.15-9.89-.43-3.29.28-6.61.43-9.88.43h-5c-1.53,0-3.1,0-4.68-.1s-3.16.1-4.69.1h-4.91c-1.27,0-2.56,0-3.83-.07s-2.56.07-3.83.07h-5c-1.17,0-2.35,0-3.52-.05s-2.34.05-3.51.05h-3.78c-1.13,0-2.28,0-3.42-.05s-2.29.05-3.43.05h-2.25c-2.16,0-4.35-.06-6.53-.19-2.26.13-4.53.19-6.76.19H161c-1.26,0-2.55,0-3.83-.07s-2.57.07-3.83.07h-7a114.51,114.51,0,0,1-41.47,7.9Z" fill="#008453"/><path d="M99.88,697A102,102,0,0,1,16,652.3a112,112,0,0,1-25.64-50A102.2,102.2,0,0,1-52.16,519V483A102.86,102.86,0,0,1,12.5,387.64V335.53a163.05,163.05,0,0,1-17.17-71.8c0-87.66,71.32-159,159-159a161.43,161.43,0,0,1,52.31,8.88A161.17,161.17,0,0,1,259,104.73,158.88,158.88,0,0,1,361.74,142.6a160.69,160.69,0,0,1,41.65,54.82A100,100,0,0,1,477,293.9V402.36a99.27,99.27,0,0,1-4,28.14,121.34,121.34,0,0,1-18.26,161.24,114.91,114.91,0,0,1-34.89,66A117.1,117.1,0,0,1,339.46,689H327.34c-1.42,0-2.86,0-4.3-.09s-2.88.09-4.3.09h-5.36c-2.3,0-4.63-.08-6.94-.24-2.31.16-4.64.24-6.94.24h-5.45a100.51,100.51,0,0,1-12.62-.8,110.45,110.45,0,0,1-13.24.8H256.88c-3.27,0-6.59-.16-9.89-.49-3.29.33-6.61.49-9.88.49h-5c-1.54,0-3.11,0-4.68-.11s-3.15.11-4.69.11h-4.91c-1.27,0-2.56,0-3.83-.07s-2.57.07-3.83.07h-5c-1.16,0-2.34,0-3.52-.06s-2.34.06-3.51.06h-3.78c-1.13,0-2.28,0-3.42-.06s-2.29.06-3.43.06h-2.25c-2.16,0-4.35-.07-6.52-.21-2.26.14-4.53.21-6.77.21H161c-1.26,0-2.54,0-3.83-.07s-2.57.07-3.83.07H148.4c-1.44,0-2.89,0-4.34-.09a101.85,101.85,0,0,1-39.22,8Z" fill="#00aa4f"/><path d="M99.88,684.47a89.24,89.24,0,0,1-73.94-39.86,100.36,100.36,0,0,1-24.3-49.78A90.09,90.09,0,0,1-39.66,519V483A90.34,90.34,0,0,1,25,396.52v-64A149.66,149.66,0,0,1,7.83,263.73c0-80.77,65.71-146.48,146.48-146.48a148,148,0,0,1,52.31,9.68,146.36,146.36,0,0,1,187.79,81.22,87,87,0,0,1,27.42,10.63,87.94,87.94,0,0,1,42.62,75.12V402.36A86.45,86.45,0,0,1,459,432.8a108.77,108.77,0,0,1-16,152.54,102.08,102.08,0,0,1-31.69,63.33,104.61,104.61,0,0,1-71.85,27.92H327.34c-1.42,0-2.86,0-4.3-.1s-2.88.1-4.3.1h-5.36c-2.3,0-4.63-.09-6.94-.27-2.31.18-4.64.27-6.94.27h-5.45a88.29,88.29,0,0,1-12.58-.9,98.32,98.32,0,0,1-13.28.9H256.88A90.63,90.63,0,0,1,247,676a90.59,90.59,0,0,1-9.88.55h-5c-1.54,0-3.11,0-4.68-.12-1.57.08-3.15.12-4.69.12h-4.91c-1.27,0-2.56,0-3.83-.08s-2.56.08-3.83.08h-5c-1.16,0-2.34,0-3.52-.07s-2.35.07-3.51.07h-3.78c-1.13,0-2.28,0-3.42-.07s-2.3.07-3.43.07h-2.25c-2.15,0-4.33-.08-6.5-.24-2.27.16-4.55.24-6.79.24H161c-1.27,0-2.55,0-3.83-.08s-2.56.08-3.83.08H148.4c-1.91,0-3.84-.06-5.77-.19l-1.3.15a89,89,0,0,1-36.49,7.92Z" fill="#008453"/><path d="M99.88,672a76.37,76.37,0,0,1-64-35,88,88,0,0,1-22.71-49.79A77.48,77.48,0,0,1-27.16,519V483a77.82,77.82,0,0,1,64.81-76.6h0c-.1-1.88-.15-3.67-.15-5.45V329.33a136.56,136.56,0,0,1-17.17-65.6c0-73.87,60.1-134,134-134a134.88,134.88,0,0,1,52.31,10.65,134.23,134.23,0,0,1,175.82,71.55c1,2.45,2,4.94,2.88,7.45A75,75,0,0,1,452,293.9V402.36a74.49,74.49,0,0,1-7.54,32.72,96.26,96.26,0,0,1-4.22,136.07A97.9,97.9,0,0,1,431,578.8c-2.8,48.26-42,85.29-91.56,85.29h-12.1c-1.42,0-2.87,0-4.3-.12-1.43.08-2.87.12-4.3.12h-5.36c-2.3,0-4.63-.11-6.94-.32-2.31.21-4.64.32-6.94.32h-5.45a76.17,76.17,0,0,1-12.53-1,86.23,86.23,0,0,1-13.33,1H256.88a76,76,0,0,1-9.89-.65,76,76,0,0,1-9.88.65h-5c-1.55,0-3.12-.05-4.68-.14-1.57.09-3.14.14-4.69.14h-4.91c-1.27,0-2.55,0-3.83-.1s-2.57.1-3.83.1h-5c-1.16,0-2.34,0-3.52-.08s-2.35.08-3.51.08h-3.78c-1.13,0-2.28,0-3.42-.08s-2.3.08-3.43.08h-2.25c-2.15,0-4.32-.09-6.48-.28-2.27.19-4.56.28-6.81.28H161c-1.26,0-2.55,0-3.83-.1s-2.56.1-3.83.1H148.4c-2,0-4.07-.08-6.1-.25-1.08.15-2.15.27-3.21.37l-1.09.09a76.08,76.08,0,0,1-33.16,7.7Z" fill="#00aa4f"/><path d="M99.88,659.47a63.53,63.53,0,0,1-54.09-30.24A75,75,0,0,1,25.1,579a65,65,0,0,1-39.76-60V483a65.28,65.28,0,0,1,65.2-65.2h1.11c-.44-2.26-.8-4.55-1.06-6.85v-.34c-.15-1.31-.26-2.54-.34-3.84,0-.38-.06-.73-.08-1.08-.09-1.66-.13-3.23-.13-4.78V326a123.38,123.38,0,0,1-17.17-62.27A121.46,121.46,0,0,1,206.62,154.1,121.7,121.7,0,0,1,376,231.4h1a62.48,62.48,0,0,1,62.5,62.46v108.5a62.63,62.63,0,0,1-10.73,35A84.34,84.34,0,0,1,458.06,501a83.23,83.23,0,0,1-16.88,50.43,84.68,84.68,0,0,1-22.51,20.64v1.2c0,43.91-34.8,78.31-79.22,78.31H327.34c-1.43,0-2.87-.05-4.3-.15-1.43.1-2.87.15-4.3.15h-5.36a64.27,64.27,0,0,1-6.94-.38,64.27,64.27,0,0,1-6.94.38h-5.45a63.59,63.59,0,0,1-12.46-1.24,73.42,73.42,0,0,1-13.4,1.24H256.88a63,63,0,0,1-9.89-.78,62.88,62.88,0,0,1-9.88.78h-5c-1.55,0-3.12-.06-4.69-.17-1.56.11-3.13.17-4.68.17h-4.91c-1.27,0-2.55,0-3.83-.12-1.29.08-2.57.12-3.83.12h-5c-1.16,0-2.34,0-3.52-.1s-2.35.1-3.51.1h-3.78c-1.13,0-2.28,0-3.42-.09s-2.3.09-3.43.09h-2.25a63.18,63.18,0,0,1-6.45-.33c-2.27.22-4.57.33-6.84.33H161c-1.27,0-2.56,0-3.83-.12-1.27.08-2.56.12-3.83.12H148.4a62.79,62.79,0,0,1-6.43-.33c-1.34.21-2.7.38-4.06.5l-1.12.1c-.72,0-1.43.1-2.14.13a63.66,63.66,0,0,1-29.81,7.48Z" fill="#008453"/><path d="M99.88,647a50.73,50.73,0,0,1-44.13-25.44,62.21,62.21,0,0,1-18.17-44.24A67.64,67.64,0,0,1,38,570.2,52.78,52.78,0,0,1-2.16,519V483a52.76,52.76,0,0,1,52.7-52.7h8.22a53.2,53.2,0,0,1,9.75.91l.37-.06A74.7,74.7,0,0,1,63,409.55v-.36c-.12-1.07-.21-2.15-.29-3.3a4.57,4.57,0,0,0-.05-.84c-.08-1.45-.12-2.79-.12-4.11V322.46A109,109,0,0,1,206.66,168.13,109,109,0,0,1,259,154.75c53.54,0,98.44,39.14,107.36,90.3A50,50,0,0,1,427,293.9V402.36a50.29,50.29,0,0,1-16.55,37.15,71.34,71.34,0,0,1,25.31,97.65,71.67,71.67,0,0,1-30.05,27.9,66.46,66.46,0,0,1,.52,8.22c0,36.9-29.31,65.81-66.72,65.81H327.34c-1.43,0-2.87-.06-4.3-.18-1.43.12-2.87.18-4.3.18h-5.36a52,52,0,0,1-6.94-.47,52,52,0,0,1-6.94.47h-5.45a50.56,50.56,0,0,1-12.37-1.53,59.44,59.44,0,0,1-13.49,1.53H256.88a51.36,51.36,0,0,1-9.89-1,51.18,51.18,0,0,1-9.88,1h-5c-1.56,0-3.13-.07-4.69-.21-1.56.14-3.13.21-4.68.21h-4.91c-1.27,0-2.56-.05-3.83-.14-1.28.09-2.57.14-3.83.14h-5a34.5,34.5,0,0,1-3.52-.12q-1.76.12-3.51.12h-3.78a32.67,32.67,0,0,1-3.42-.12c-1.15.08-2.29.12-3.43.12h-2.25a50.68,50.68,0,0,1-6.4-.4,58.83,58.83,0,0,1-6.89.4H161c-1.27,0-2.55-.05-3.83-.14-1.27.09-2.56.14-3.83.14H148.4a50.49,50.49,0,0,1-6.73-.45c-1.63.3-3.29.52-4.94.68l-.92.08c-1.3.1-2.62.14-3.86.14h-.69A51.32,51.32,0,0,1,104.84,647Z" fill="#00aa4f"/><path d="M99.88,634.47a38.34,38.34,0,0,1-34.1-20.65,49.21,49.21,0,0,1-15.7-36.53,51.31,51.31,0,0,1,3.24-18.1H50.54A40.25,40.25,0,0,1,10.34,519V483a40.25,40.25,0,0,1,40.2-40.2h8.22a40.05,40.05,0,0,1,9.75,1.2,40.14,40.14,0,0,1,9.76-1.21h8.22a39.83,39.83,0,0,1,5,.31l-.7-.79c-.28-.32-.56-.64-.83-1A62.05,62.05,0,0,1,75.47,408v-.24c-.1-.92-.18-1.84-.25-2.84v-.64c-.07-1.19-.1-2.3-.1-3.4V318.69a96.49,96.49,0,0,1,131.62-136A96.48,96.48,0,0,1,355.4,262.91l3.79-2a37.49,37.49,0,0,1,55.26,33V402.36a37.5,37.5,0,0,1-55.26,33l-18.11-9.74A62.8,62.8,0,0,1,331.59,441q-1.62,2-3.38,3.81a60.19,60.19,0,0,1,14.16,6.52,58.93,58.93,0,1,1,48.89,106,53.6,53.6,0,0,1,2.42,15.9c0,29.89-23.82,53.31-54.22,53.31H327.34a38.42,38.42,0,0,1-4.29-.24,38.78,38.78,0,0,1-4.31.24h-5.36a38.45,38.45,0,0,1-6.94-.63,38.45,38.45,0,0,1-6.94.63h-5.45a38.43,38.43,0,0,1-12.21-2,46.79,46.79,0,0,1-13.65,2H256.88a37.51,37.51,0,0,1-9.89-1.3,37.44,37.44,0,0,1-9.88,1.3h-5a40.85,40.85,0,0,1-4.69-.28,40.68,40.68,0,0,1-4.68.28h-4.91a38,38,0,0,1-3.84-.19,37.44,37.44,0,0,1-3.82.19h-5c-1.17,0-2.35,0-3.52-.16-1.17.11-2.34.16-3.51.16h-3.78q-1.71,0-3.42-.15c-1.14.1-2.29.15-3.43.15h-2.25a38.34,38.34,0,0,1-6.33-.52,46.92,46.92,0,0,1-7,.52H161a37.63,37.63,0,0,1-3.83-.19,37.63,37.63,0,0,1-3.83.19H148.4a38.22,38.22,0,0,1-7-.64,48.27,48.27,0,0,1-5.84.93l-.71.06c-.95.07-2,.1-2.9.1a38.14,38.14,0,0,1-4.14-.22,38.67,38.67,0,0,1-23,7.65Z" fill="#008453"/><path d="M420.56,501a46.46,46.46,0,0,0-78.14-33.92,47.08,47.08,0,0,0-32-12.48c-5.77,0-18.74.18-30.52.36,17.22-1.76,32.26-10,42-21.93a49.8,49.8,0,0,0,11-23.65c.07-.4.13-.81.19-1.22s.09-.6.13-.9L365,424.37a25,25,0,0,0,36.84-22V293.9a25,25,0,0,0-36.84-22l-25,13.46A84,84,0,0,0,206.62,198,84,84,0,0,0,87.5,314.63v86.31c0,.91,0,1.82.08,2.72v.46a20,20,0,0,0,.2,2.32v.2a49.86,49.86,0,0,0,11.64,26.69c.29.35.6.7.91,1.05l.13.15c11.13,12.66,28.36,20.8,47.69,20.8H116.82a27.55,27.55,0,0,0-15.17,4.55,27.52,27.52,0,0,0-15.16-4.55H78.27a27.6,27.6,0,0,0-9.76,1.78,27.54,27.54,0,0,0-9.75-1.78H50.54A27.73,27.73,0,0,0,22.84,483v36a27.74,27.74,0,0,0,27.7,27.7h8.22a27.77,27.77,0,0,0,9.75-1.78,28.33,28.33,0,0,0,6.41,1.57,26,26,0,0,0-1.47,4.22,37.81,37.81,0,0,0,.47,53.48c.67.66,1.36,1.29,2.08,1.9A25.87,25.87,0,0,0,99.88,622h5a26.19,26.19,0,0,0,18.61-7.88h3.62a26.61,26.61,0,0,0,4.88.45,19.48,19.48,0,0,0,2-.07h.47a33.66,33.66,0,0,0,6.81-1.35,25.81,25.81,0,0,0,7.2,1h4.91a25.88,25.88,0,0,0,3.83-.28,25.88,25.88,0,0,0,3.83.28h11a34.51,34.51,0,0,0,7.1-.74,26.33,26.33,0,0,0,6.19.74h2.25a26.23,26.23,0,0,0,3.43-.23,26.08,26.08,0,0,0,3.42.23h3.78a25.77,25.77,0,0,0,3.51-.24,25.91,25.91,0,0,0,3.52.24h5a25.65,25.65,0,0,0,3.82-.28,25.91,25.91,0,0,0,3.84.28h4.91a26.39,26.39,0,0,0,4.69-.42,26.19,26.19,0,0,0,4.68.42h5a25.8,25.8,0,0,0,9.88-2,25.81,25.81,0,0,0,9.89,2h11.31a34.42,34.42,0,0,0,13.93-2.91,26,26,0,0,0,11.93,2.91h5.45a26.21,26.21,0,0,0,6.94-.94,26.21,26.21,0,0,0,6.94.94h5.36a25.94,25.94,0,0,0,4.31-.36,25.7,25.7,0,0,0,4.29.36h12.12c23.39,0,41.72-17.93,41.72-40.81a40.13,40.13,0,0,0-9.32-25.93c.76,0,1.53.06,2.3.06A46.46,46.46,0,0,0,420.56,501Z" fill="#00aa4f"/></g></svg>