<svg id="Layer_35_copy_2" data-name="Layer 35 copy 2" xmlns="http://www.w3.org/2000/svg" viewBox="0 0 476.95 679.45"><title>megogo</title><g id="desc-megogo"><path d="M99.88,609.47a13.46,13.46,0,0,1-13.25-11.18c-7.11-4.12-11.55-11.77-11.55-21,0-8.57,3.84-15.79,10.1-20.1a13.19,13.19,0,0,1,1.47-6.28A13,13,0,0,1,98.17,544h6.67a13.45,13.45,0,0,1,8.49,3,16.56,16.56,0,0,1,25.85,6h14.13a13.72,13.72,0,0,1,3,.33,13.34,13.34,0,0,1,2.95-.33h6.66a13.41,13.41,0,0,1,8.89,3.34,13,13,0,0,1,8.73-3.34h8a13.55,13.55,0,0,1,6.21,1.5A13.59,13.59,0,0,1,204,553h6.22a13.72,13.72,0,0,1,3,.33,13.72,13.72,0,0,1,3-.33h6.63a13.52,13.52,0,0,1,4.71.84,13.46,13.46,0,0,1,4.7-.84h5a13.42,13.42,0,0,1,9.1,3.56,13,13,0,0,1,9-3.56H268a20.42,20.42,0,0,1,11.64,3.58,13,13,0,0,1,12.91-11.47h7.16A13.58,13.58,0,0,1,306.6,547a13.58,13.58,0,0,1,6.94-1.91h5.36a13.54,13.54,0,0,1,3.47.45,13.22,13.22,0,0,1,3.42-.45h13.83c16.38,0,29.22,12.4,29.22,28.23S356,601.65,339.62,601.65H327.34a13.52,13.52,0,0,1-4.28-.7,13.76,13.76,0,0,1-4.32.7h-5.36a13.57,13.57,0,0,1-6.94-1.9,13.57,13.57,0,0,1-6.94,1.9h-5.45A13.43,13.43,0,0,1,283,595.78a21.35,21.35,0,0,1-14.8,5.81H256.88a13.39,13.39,0,0,1-9.88-4.34,13.41,13.41,0,0,1-9.89,4.34h-5a13.13,13.13,0,0,1-4.68-.84,13.41,13.41,0,0,1-4.69.84h-4.91A13.43,13.43,0,0,1,214,601a13,13,0,0,1-3.82.56h-5a13.51,13.51,0,0,1-3.52-.47,13.38,13.38,0,0,1-3.51.47h-3.78a13.22,13.22,0,0,1-3.42-.45,13.24,13.24,0,0,1-3.43.45h-2.25a13.3,13.3,0,0,1-5.82-1.33,21.62,21.62,0,0,1-7.47,1.33H161a13.37,13.37,0,0,1-3.82-.55,13.51,13.51,0,0,1-3.84.55H148.4a13.58,13.58,0,0,1-7.16-2,20.67,20.67,0,0,1-8,2.43H132a13.5,13.5,0,0,1-3.79-.53c-.5,0-1,.08-1.52.08h-5a13.24,13.24,0,0,1-4.28-.7,13.51,13.51,0,0,1-12.57,8.58Z" fill="#008453"/><path d="M374.16,534.91a33.94,33.94,0,0,1-31.8-22.17c-4.15,13.31-16.07,22.17-31.34,22.17-14.29,0-26.3-8.07-31.64-19.9a33.89,33.89,0,0,1-61.67.14c-4.78,12-16.15,19.76-30.48,19.76a34.51,34.51,0,0,1-28.74-14.74,15.2,15.2,0,0,1-15.15,14H116.82A15.21,15.21,0,0,1,101.65,520a15.21,15.21,0,0,1-15.16,14.13H78.27a15.2,15.2,0,0,1-9.76-3.55,15.17,15.17,0,0,1-9.75,3.55H50.54A15.21,15.21,0,0,1,35.34,519V483a15.21,15.21,0,0,1,15.2-15.2h8.22a15.17,15.17,0,0,1,9.75,3.55,15.22,15.22,0,0,1,9.76-3.55h8.22A15.2,15.2,0,0,1,101.65,482a15.21,15.21,0,0,1,15.17-14.13h26.52A15.21,15.21,0,0,1,158.5,482a34.07,34.07,0,0,1,28.16-14.89c11.7,0,22.66,5.88,28.59,15.34a15.1,15.1,0,0,1,2.07,5.29,33.89,33.89,0,0,1,62.1-.64,34.11,34.11,0,0,1,31-20c11.7,0,22.65,5.88,28.59,15.34a15.18,15.18,0,0,1,2.33,8.05c.12.19.25.38.37.58a33.9,33.9,0,1,1,32.41,43.83Z" fill="#008453"/><path d="M106.64,565.48q-.81-.06-.81-.81v-7.21a1,1,0,0,0-1-1H98.17c-.5,0-.68.5-.27,1.08a5.7,5.7,0,0,1,1,3.74v3.38a.7.7,0,0,1-.6.8h-.16c-6.71.59-10.59,5.45-10.59,11.81S91.43,588.49,98.14,589a.72.72,0,0,1,.77.65.86.86,0,0,1,0,.16V596a1,1,0,0,0,.95.94h5a1,1,0,0,0,1-.94v-6.17q0-.75.81-.81c6.67-.59,10.54-5.41,10.54-11.76S113.31,566.07,106.64,565.48Zm-7.71,19.24c0,.59-.31.81-.63.72-2.2-.77-3.74-3.78-3.74-8.2s1.54-7.39,3.74-8.11c.32,0,.63.14.63.72Zm7.53.68c-.32.09-.63-.14-.63-.73V569.85c0-.58.31-.76.63-.72,2.21.72,3.74,3.7,3.74,8.11s-1.53,7.39-3.74,8.16Zm21.17-19v21.71a1,1,0,0,1-1,1h-5a1,1,0,0,1-.94-1V570.26a5.65,5.65,0,0,0-1-3.74c-.4-.59-.22-1.08.27-1.08h6.67a1,1,0,0,1,1,1Zm.45-6.85a4.06,4.06,0,1,1-4.12-4H124a4,4,0,0,1,4.05,4v0Zm26.22,6.8v21.76a1,1,0,0,1-1,1h-4.9a1,1,0,0,1-1-1v-18a1,1,0,0,0-.94-1h-5.09a1,1,0,0,0-1,1v4.82a25.45,25.45,0,0,1-1.49,9.55,7.9,7.9,0,0,1-6.75,5,.63.63,0,0,1-.76-.47s0,0,0-.07l-.49-2.66a.68.68,0,0,1,.9-.81c1.89.32,3.06-1.4,3.6-2.84a27,27,0,0,0,1-8.2V570.2a5.65,5.65,0,0,0-1-3.74c-.41-.59-.23-1.08.27-1.08h17.84a1,1,0,0,1,.82,1Zm17.62,6.85h-4.06a1,1,0,0,1-.94-1.06v-5.79a1,1,0,0,0-1-.94h-6.66c-.5,0-.68.49-.27,1.08a5.7,5.7,0,0,1,1,3.74v17.88a1,1,0,0,0,.95,1h10.95c4.64,0,8.51-3.51,8.51-7.88a8.31,8.31,0,0,0-8.48-8Zm-2.17,12.21h-1.93a1,1,0,0,1-.9-1v-6.54a1,1,0,0,1,.9-1h1.93c2.12,0,3.47,1.71,3.47,4.15s-1.35,4.42-3.47,4.42Zm41.32-19.1v21.85a.85.85,0,0,1-.8.9h-5.1a.93.93,0,0,1-1-.84V576.61c.05-.45-.54-.49-.67-.09l-4.15,11.67a1.4,1.4,0,0,1-1.26.9h-3.78a1.4,1.4,0,0,1-1.22-.9L189,576.52a.32.32,0,0,0-.39-.24.31.31,0,0,0-.24.38v11.53a.9.9,0,0,1-.9.9h-2.25a.85.85,0,0,1-.9-.8v-18a5.65,5.65,0,0,0-1-3.74c-.4-.59-.22-1.08.27-1.08h8a1.35,1.35,0,0,1,1.21.9l4.69,13.56a.29.29,0,1,0,.58,0l4.73-13.56a1.4,1.4,0,0,1,1.22-.9h6.22a.86.86,0,0,1,.83.9Zm27,0v21.76a1,1,0,0,1-.94,1h-5a1,1,0,0,1-1-1V575.8c0-.36-.32-.45-.5-.13l-6.8,12.61c-.27.49-.59.81-1.08.81h-4.91a1,1,0,0,1-1-1V570.26a5.65,5.65,0,0,0-1-3.74c-.4-.59-.22-1.08.27-1.08h6.63a1,1,0,0,1,1,.94v12.35c0,.36.32.45.5.13l6.8-12.61c.27-.5.59-.81,1.08-.81h5a1,1,0,0,1,.93.94Zm34.42,10.23c-.36-.22-.45-.4,0-.67a5.75,5.75,0,0,0,2.52-4.6c0-3.11-3.11-5.9-7.16-5.9H255.17c-.49,0-.67.49-.27,1.08a5.65,5.65,0,0,1,1,3.74v17.88a1,1,0,0,0,.94,1h11.31c4.64,0,8.11-3.15,8.11-6.58a6.78,6.78,0,0,0-3.79-5.88ZM262.83,570a.92.92,0,0,1,.9-.94h1.85a2.52,2.52,0,0,1,2.53,2.51,1.93,1.93,0,0,1,0,.24,2.64,2.64,0,0,1-2.21,2.79h-2.11a1,1,0,0,1-.95-1Zm3.38,15.41h-2.43a1,1,0,0,1-.95-1v-5.18a.93.93,0,0,1,.91-1h2.47c1.71,0,2.93,1.81,2.93,3.65s-1.22,3.51-2.93,3.51Zm53.56-26.89v29.59a1,1,0,0,1-1,1h-5.36a1,1,0,0,1-1-1V576a1,1,0,0,0-1-1h-9.91a.92.92,0,0,0-.94.92v12.24a1,1,0,0,1-1,1h-5.45a1,1,0,0,1-1-1V562.38a5.7,5.7,0,0,0-1-3.74c-.41-.59-.23-1.09.27-1.09h7.16a1,1,0,0,1,1,1V570a1,1,0,0,0,.88,1h10a1,1,0,0,0,.95-1V558.55a1,1,0,0,1,1-1h5.36a1,1,0,0,1,1,1Zm19.69-1H325.63c-.49,0-.67.5-.27,1.09a5.59,5.59,0,0,1,1,3.74v25.76a1,1,0,0,0,.94,1h12.12c9.55,0,16.72-7.07,16.72-15.81s-7.14-15.75-16.68-15.75Zm-1.12,27.53h-3.56a.93.93,0,0,1-.95-.93V562.6a1,1,0,0,1,.95-1h3.56c5.76,0,9.91,4.6,9.91,11.76s-4.15,11.72-9.91,11.72Z" fill="#fff"/><path d="M78.27,483h8.22v36H78.27V498.08L69,513.34h-.93l-9.29-15.26V519H50.54V483h8.22l9.75,16Zm38.55,36h26.52v-7.91H125v-6.37h18.31V496.9H125v-6h18.31V483H116.82Zm70.1-12.84h9.6c-1.28,3.44-4.41,5.54-9.19,5.54-7,0-11.3-4.47-11.3-10.58,0-6.32,4.52-10.78,10.58-10.78,4.06,0,7.29,1.84,8.78,4.21l7-4a18.38,18.38,0,0,0-15.72-8.22,18.65,18.65,0,0,0-18.85,18.45v.3c0,10.32,8.12,18.65,19.42,18.65,10,0,17.76-6.73,17.76-17.73v-3H187ZM267.21,501a18.55,18.55,0,1,1,0-.3ZM259,501a10.48,10.48,0,1,0-10.48,10.68A10.22,10.22,0,0,0,259,501.73C259,501.49,259,501.24,259,501Zm51.73,5.14h9.6c-1.28,3.44-4.42,5.54-9.19,5.54-7,0-11.3-4.47-11.3-10.58,0-6.32,4.52-10.78,10.58-10.78,4.06,0,7.29,1.84,8.78,4.21l7-4a18.42,18.42,0,0,0-15.72-8.22,18.65,18.65,0,0,0-18.85,18.45v.3c0,10.32,8.11,18.65,19.41,18.65,10.07,0,17.72-6.68,17.72-17.67v-3h-18ZM392.86,501a18.54,18.54,0,1,1,0-.32Zm-8.22,0a10.48,10.48,0,1,0-10.48,10.68,10.22,10.22,0,0,0,10.49-9.95c0-.24,0-.49,0-.73Z" fill="#fff"/><g id="Layer_1_copy_16" data-name="Layer 1 copy 16"><rect x="-1675.47" y="-1272.95" width="5094.33" height="2865.56" fill="none"/><rect x="-88.31" y="-380.17" width="1920" height="1080" fill="none"/><path d="M364,560a.22.22,0,0,0,0-.42l-1.29-.45c-1-.33.54-2.91,1.29-2.19l1,.9a.23.23,0,0,0,.32-.06.26.26,0,0,0,0-.15l-.24-1.32c-.12-.54.54-.78,1.23-.78s1.41.27,1.29.75l-.24,1.35a.2.2,0,0,0,.17.23.18.18,0,0,0,.16-.05l1-.9c.84-.78,2.25,1.92,1.29,2.22l-1.29.45c-.21.06-.15.33,0,.39l1.29.45c1,.33-.51,2.88-1.26,2.22l-1-.9a.19.19,0,0,0-.33.18l.24,1.35c.12.54-.54.78-1.23.78s-1.47-.27-1.32-.78l.3-1.35c.06-.18-.21-.33-.36-.18l-1,.87c-.81.78-2.25-1.86-1.29-2.16Z" fill="#fff"/></g></g><g id="icon-megogo"><path d="M137.46,438.4A37.51,37.51,0,0,1,100,400.94V310.21A71.49,71.49,0,0,1,206.62,215a71.48,71.48,0,0,1,113.65,85.42,38.64,38.64,0,0,1,.7,4.15h9.75L371,282.89a12.5,12.5,0,0,1,18.42,11V402.36a12.5,12.5,0,0,1-18.42,11l-40.31-21.68h-9.53v9.25a37.5,37.5,0,0,1-37.46,37.46Z" fill="#008453"/><path d="M333.87,317.07H308.69v-8.38a24.65,24.65,0,0,0-2.16-10.15,59,59,0,1,0-99.91-62,59,59,0,1,0-93.92,69,25.66,25.66,0,0,0-.2,3.16V401a25,25,0,0,0,25,25H283.73a25,25,0,0,0,25-25V379.19h25.18L377,402.36V293.9Z" fill="#fff"/></g><g id="title-megogo"><path d="M368.62,179.23a13.36,13.36,0,0,1-10.94-5.78,13.28,13.28,0,0,1-10.93,5.78h-1.56a13.29,13.29,0,0,1-11.2-6,29.42,29.42,0,0,1-15.5-1.2,13.1,13.1,0,0,1-5.41,1.17H308.8a15.37,15.37,0,0,1-7.24-1.79,13.41,13.41,0,0,1-6.72,1.79h-3.36a13.31,13.31,0,0,1-9.45-3.94,13.41,13.41,0,0,1-9.51,3.94h-3.28a13.42,13.42,0,0,1-7-2,13.42,13.42,0,0,1-7,2H251.8a13.28,13.28,0,0,1-3.07-.36,13.3,13.3,0,0,1-3.08.36h-15.6a13.7,13.7,0,0,1-2.39-.21,13.25,13.25,0,0,1-2.35.21h-4.16a15.24,15.24,0,0,1-6.41-1.38,13.43,13.43,0,0,1-6,1.38h-3.28a13.45,13.45,0,0,1-5.94-1.38,15.29,15.29,0,0,1-6.42,1.38H189a13,13,0,0,1-5.53-1.23,29.37,29.37,0,0,1-20,.06,13.1,13.1,0,0,1-5.41,1.17h-4.28a15.37,15.37,0,0,1-7.24-1.79,13.41,13.41,0,0,1-6.72,1.79h-3.36a13.25,13.25,0,0,1-8.1-2.75,13.25,13.25,0,0,1-8.1,2.75H116.5a13.85,13.85,0,0,1-9.42-3.73,13.79,13.79,0,0,1-9.42,3.73h-2a13.43,13.43,0,0,1-4.31-.71,25.26,25.26,0,0,1-8,1.27c-8.63,0-16.35-3.94-20.66-10.53a13.06,13.06,0,0,1,3.23-17.84l-.33-.5-1-1.52a13.59,13.59,0,0,1,.61-15.71l.12-.15a22.58,22.58,0,0,1,17.54-7.87,23.8,23.8,0,0,1,13,3.64,13,13,0,0,1,8.44-3.07h5.28a14,14,0,0,1,13,9,12,12,0,0,1,.86-2.06,12.93,12.93,0,0,1,11.51-7h4.84a13.26,13.26,0,0,1,6.73,1.8,14.78,14.78,0,0,1,7.19-1.8h2.48a13,13,0,0,1,6.22,1.58A29,29,0,0,1,184,121.6a13,13,0,0,1,6-1.44h3.08a15.11,15.11,0,0,1,6.45,1.4,13.29,13.29,0,0,1,6-1.4h3.28a13.29,13.29,0,0,1,6,1.4,15.26,15.26,0,0,1,6.45-1.4h2.24a13.28,13.28,0,0,1,2.52.24,13.57,13.57,0,0,1,2.54-.24h16.52a13.83,13.83,0,0,1,2.65.25,13.12,13.12,0,0,1,2.58-.25h4.88a13.32,13.32,0,0,1,7,2,13.32,13.32,0,0,1,7-2h3.28a13.38,13.38,0,0,1,8.82,3.29,13,13,0,0,1,8.66-3.29h4.84a13.26,13.26,0,0,1,6.73,1.8,14.78,14.78,0,0,1,7.19-1.8h2.48a13,13,0,0,1,6.22,1.58,29,29,0,0,1,24.45,1.19,13,13,0,0,1,8-2.77H367a13.39,13.39,0,0,1,13.38,13.38v15.73h0a13.3,13.3,0,0,1,3.49,9.78l-.4,7.45v.38a13.34,13.34,0,0,1-13.34,12.34Z" fill="#008453"/><path d="M93.21,152.85c0,4.64-3.76,8.36-9.88,8.36-4.36,0-8.2-1.8-10.2-4.88a.64.64,0,0,1,.08-.9.54.54,0,0,1,.16-.1l1.4-.92a.73.73,0,0,1,1,.15l.06.09a8.71,8.71,0,0,0,6.6,3.32,5,5,0,0,0,5.21-4.78,5.61,5.61,0,0,0,0-.58c0-3-1.76-5.08-5.2-5.08h-1.6a.9.9,0,0,1-.92-.88h0v-1.4a.91.91,0,0,1,.9-.92h1.62a4.45,4.45,0,0,0,4.29-4.59c0-.05,0-.11,0-.17,0-2.56-1.76-4.31-4.6-4.31a4.94,4.94,0,0,0-4.6,2.71.77.77,0,0,1-1,.49.76.76,0,0,1-.39-.29l-1-1.6a1.08,1.08,0,0,1-.08-1.31,10.16,10.16,0,0,1,7.8-3.21c5.76,0,9.24,3,9.24,7.4a7.51,7.51,0,0,1-3.28,5.8c-.28.2-.28.48,0,.64A7.93,7.93,0,0,1,93.21,152.85Zm27.66,7a.61.61,0,0,1-.33.8.65.65,0,0,1-.31,0h-3.76a1.43,1.43,0,0,1-1.2-.84l-2.27-6.4a.9.9,0,0,0-1-.6h-9.76c-.56,0-.92.16-1.08.6l-2.32,6.36a1.35,1.35,0,0,1-1.2.84h-2c-.56,0-.84-.4-.68-.84l8.72-22.88a6,6,0,0,0,.44-2,2.77,2.77,0,0,0-.28-1.27.62.62,0,0,1,.11-.87.61.61,0,0,1,.41-.13h5.28a1.39,1.39,0,0,1,1.28.88Zm-9.56-11L107.47,138a.34.34,0,0,0-.32-.28.38.38,0,0,0-.36.28l-3.92,10.84c-.2.56,0,.88.52.88h7.36c.56-.08.76-.4.56-1Zm36-2.8c-.4-.48-.48-.68-.12-1.12l9.16-11.31c.4-.49.28-.88-.2-.88h-2.48a2.19,2.19,0,0,0-1.88.88l-8.52,10.63a1,1,0,0,1-.8.4h-1.2c-.4,0-.6-.24-.6-.68V133.54a.89.89,0,0,0-.9-.88H135c-.44,0-.64.43-.28,1a5,5,0,0,1,.92,3.31v22.88a.87.87,0,0,0,.84.84h3.36a.9.9,0,0,0,.92-.84V148.49a.65.65,0,0,1,.58-.72h.82a1,1,0,0,1,.72.4l9,11.64a2.43,2.43,0,0,0,2,.84H158c.48,0,.68-.4.32-.84Zm41.19.72c0,8.2-6.35,14.52-15.19,14.52s-15.08-6.32-15.08-14.52,6.36-14.6,15.08-14.6,15.23,6.24,15.23,14.52Zm-5.59,0c0-6.36-4-11.35-9.6-11.35s-9.48,5-9.48,11.35,4,11.36,9.48,11.36S183,153,183,146.65Zm32.92-.68a.94.94,0,0,1-.2-1.12l8-11.31c.4-.49.28-.88-.2-.88h-2.24a2,2,0,0,0-1.88.88l-7.44,10.63a1,1,0,0,1-.8.4h-.8c-.4,0-.6-.24-.6-.68V133.54a.89.89,0,0,0-.9-.88h-3.3a.89.89,0,0,0-.92.86v10.37c0,.44-.2.68-.6.68h-.8a1,1,0,0,1-.8-.4L195,133.54a2,2,0,0,0-1.88-.88H190c-.6,0-.72.68,0,1a8.83,8.83,0,0,1,2.8,2.87l5.84,8.28a.94.94,0,0,1-.2,1.12l-9.76,13.84c-.36.44-.16.84.32.84h4.16a2,2,0,0,0,1.84-.84l7.88-11.64a.84.84,0,0,1,.72-.4h.4a.64.64,0,0,1,.64.66v11.38a.9.9,0,0,0,.92.84h3.28a.9.9,0,0,0,.92-.84V148.49a.65.65,0,0,1,.58-.72h.42a.84.84,0,0,1,.72.4l7.88,11.64a2,2,0,0,0,1.84.84h4.16c.48,0,.68-.4.32-.84Zm29.78,11.48H235.17a.82.82,0,0,1-.84-.82V149a.85.85,0,0,1,.82-.88h8a.88.88,0,0,0,.84-.88v-1.48a.87.87,0,0,0-.84-.84h-8a.85.85,0,0,1-.84-.86v-7.18a.88.88,0,0,1,.84-.88H242a11.36,11.36,0,0,1,3.52.6c.55.2,1,0,.88-.56l-.36-2.39a1,1,0,0,0-1-.84H228.53c-.44,0-.6.43-.24,1a5,5,0,0,1,.92,3.31V160a.87.87,0,0,0,.84.84h15.6a.88.88,0,0,0,.88-.84v-1.48a.9.9,0,0,0-.73-1h-.15Zm26.87-24.79H269.2a.89.89,0,0,0-.92.86V144a.88.88,0,0,1-.84.88H256.92a.82.82,0,0,1-.84-.82V133.54a.89.89,0,0,0-.9-.88h-4.9c-.44,0-.6.43-.24,1A5,5,0,0,1,251,137v22.88a.87.87,0,0,0,.84.84h3.36a.9.9,0,0,0,.92-.84v-11a.83.83,0,0,1,.78-.88h10.62a.88.88,0,0,1,.84.88v11a.9.9,0,0,0,.92.84h3.28a.9.9,0,0,0,.92-.84V133.54a.89.89,0,0,0-.9-.88h0ZM302.4,146c-.4-.48-.48-.68-.12-1.12l9.16-11.31c.4-.49.28-.88-.2-.88h-2.48a2.19,2.19,0,0,0-1.88.88l-8.52,10.63a1,1,0,0,1-.8.4h-1.2c-.4,0-.6-.24-.6-.68V133.54a.89.89,0,0,0-.9-.88H290c-.44,0-.64.43-.28,1a5,5,0,0,1,.92,3.31v22.88a.87.87,0,0,0,.84.84h3.36a.9.9,0,0,0,.92-.84V148.49a.65.65,0,0,1,.58-.72h.82a1,1,0,0,1,.72.4l9,11.64a2.43,2.43,0,0,0,2,.84h4.28c.48,0,.68-.4.32-.84Zm41.19.72c0,8.2-6.35,14.52-15.19,14.52s-15.08-6.32-15.08-14.52,6.36-14.6,15.08-14.6,15.19,6.29,15.19,14.57Zm-5.59,0c0-6.36-4-11.35-9.6-11.35s-9.48,5-9.48,11.35,4,11.36,9.48,11.36S338,153,338,146.65Zm33.46,11.68-.4,7.52a.92.92,0,0,1-.88.88h-1.56c-.48,0-.76-.4-.88-.88l-1.2-4.28a1.27,1.27,0,0,0-1.08-.92H349.91a1.27,1.27,0,0,0-1.08.92l-1.2,4.28c-.12.48-.4.88-.88.88h-1.56a.92.92,0,0,1-.88-.88l-.4-7.52a.77.77,0,0,1,.65-.87h1.67c.8,0,1-.12,1.2-.8a50.5,50.5,0,0,0,3.2-16.84V137a5,5,0,0,0-.92-3.31c-.36-.53-.2-1,.24-1h17.11a.87.87,0,0,1,.88.88h0v23a.86.86,0,0,0,.84.88h1.8a.86.86,0,0,1,.88.84v.11Zm-8.64-21.56a.9.9,0,0,0-.88-.92h-6.88a.9.9,0,0,0-.88.92h0v2.36a57,57,0,0,1-2.87,17.52.58.58,0,0,0,.34.76.57.57,0,0,0,.26,0h10a.86.86,0,0,0,.88-.84v0Z" fill="#fde619"/></g><rect x="-88.31" y="25.97" width="590" height="673.87" fill="none"/></svg>