<svg xmlns="http://www.w3.org/2000/svg" viewBox="0 0 701.01 233.47"><path fill="none" d="M-628-93.8h1920v406.13H-628z"/><path fill="none" d="M-2215.16-986.58h5094.33v2865.56h-5094.33z"/><path fill="none" d="M-628-93.8h1920v1080H-628z"/><g fill="#ED1D24"><path d="M14.33 10.56l85.89.17-.19 95.89-26.58-.05.14-72.6-32.73-.07-.14 72.6-26.58-.05.19-95.89zm99.24 21.98l26.03.05-.02 9.86c5.08-6.15 11.39-11.48 22.49-11.46 17.67.03 32.85 14.72 32.8 38.69-.05 24.11-15.28 38.74-32.82 38.7-11.23-.02-17.8-5.1-22.58-10.73l-.06 30.96-26.03-.05.19-96.02zm55.68 36.96c.02-9.73-6.68-16.73-15.17-16.74-8.36-.02-15.08 6.96-15.1 16.96-.02 9.86 6.68 16.86 15.04 16.88 8.48.01 15.21-6.83 15.23-17.1zm35.24-36.78l25.21.05-.07 37.12 24.73-37.08 23.97.05-.15 74.11-25.21-.05.07-37.12-24.73 37.08-23.97-.05.15-74.11zm79.61 65.91l10.31-16.14c6.02 4.67 16.56 7.43 22.18 7.44 7.53.01 10.55-2.03 10.56-5.87.01-2.74-1.77-6.17-10.26-6.18l-9.32-.02.03-16.3 9.18.02c6.99.01 8.64-3.55 8.64-6.28 0-2.47-2.87-5.07-8.89-5.09-6.71-.01-15.35 3.26-20.01 7.36L286.14 43.3c7.82-7.24 19.2-12.02 33.72-11.99 20.41.04 31.22 8.69 31.19 20.2-.02 8.77-4.82 13.83-11.81 16.83 7.94 2.76 13.82 7.97 13.8 17.29-.03 13.29-10.87 23.4-36.21 23.35-14.94-.04-22.75-2.66-32.73-10.35zm100.62-30.89l22.36.04c4.74.01 8.08 1.2 10.3 3.43 1.53 1.47 2.43 3.49 2.43 6.13-.01 4.39-2.52 6.96-5.87 8.42 4.59 1.54 7.17 4.12 7.16 9.35-.01 6.48-5.31 10.37-14.3 10.35l-22.15-.04.07-37.68zm17.31 15.01c3.06.01 4.74-1.31 4.74-3.33 0-1.88-1.6-3.21-4.52-3.21l-4.67-.01-.01 6.55h4.46zm.95 14.14c3.13.01 4.88-1.38 4.88-3.54 0-1.88-1.6-3.49-5.01-3.49l-5.29-.01-.01 7.03 5.43.01zm41.35-29.03l13.23.03-.03 14 10.27-13.98 14.97.03-12.91 15.44 13.19 22.24-14.56-.03-7.15-12.06-3.84 4.59-.01 7.45-13.23-.03.07-37.68z"/><path d="M481.86 86.81c.02-10.73 8.81-19.69 20.93-19.67 12.05.02 20.74 8.89 20.72 19.75-.02 10.73-8.81 19.69-20.93 19.67-12.05-.02-20.74-8.89-20.72-19.75zm28.77.05c.01-4.6-3.33-8.5-7.99-8.51-4.81-.01-7.88 3.82-7.89 8.48-.01 4.6 3.33 8.5 7.99 8.51 4.81.02 7.88-3.81 7.89-8.48z"/><path d="M535.56 83.5L522.7 68.01l14.97.03 10.21 14.02.03-14 13.23.03-.03 14 10.27-13.98 14.97.03-12.98 15.44 13.26 22.24-14.56-.03-7.64-12.9-3.35 4.03-.02 8.85-13.23-.03.02-8.85-3.41-4.05-7.62 12.87-14.56-.03 13.3-22.18zm53.35-15.36l13.23.03-.03 13.37 10.87.02.03-13.37 13.23.03-.07 37.68-13.23-.03.03-13.65-10.87-.02-.03 13.65-13.23-.03.07-37.68zm43.68-13.07l13.79.03-.02 9.75-13.79-.03.02-9.75zm.25 13.16l13.23.03-.07 37.67-13.23-.03.07-37.67zm19.48.04l12.82.03-.04 18.87 12.57-18.85 12.19.02-.07 37.68-12.82-.03.04-18.87-12.57 18.85-12.19-.02.07-37.68zm7.62-13.43l6.9-1.24c.83 2.44 2.15 4.04 4.59 4.05 2.44 0 3.76-1.59 4.6-4.03l6.89 1.27c-.99 6.61-5.24 10.37-11.51 10.35-6.27-.01-10.51-3.78-11.47-10.4zm-547.08 90.2l71.22.14-.14 72.97-25.63-.05.1-52.33-19.96-.04-.1 52.33-25.63-.06.14-72.96zm79.6 51.94c.03-15.11 11.51-22.91 28.64-22.87 6.74.01 13.35 1.38 17.53 2.87v-1.21c.01-7.55-4.7-11.88-14.54-11.9-7.69-.02-13.63 1.46-20.11 4.01l-5.22-18.08c8.23-3.36 17.01-5.63 29.55-5.61 13.08.03 21.98 3.15 27.77 8.96 5.52 5.41 7.8 12.96 7.78 23.21l-.08 41.95-25.36-.05.01-7.55c-5 5.52-11.89 9.15-21.46 9.13-13.9-.04-24.54-8.02-24.51-22.86zm46.4-5.16l.01-3.37c-2.56-1.08-6.2-1.9-9.98-1.91-7.42-.01-11.74 3.62-11.75 9.28-.01 4.99 3.76 7.97 9.02 7.98 7.42.01 12.69-4.7 12.7-11.98zm77.17 3.11c-4.45 2.01-12.96 3.21-18.08 3.2-14.84-.03-25.88-8.82-25.85-24.46l.06-28.32 25.76.05-.04 20.64c-.01 7.28 2 11.2 7.67 11.21 4.05.01 7.69-.66 10.53-2.81l.06-29 25.63.05-.14 72.97-25.63-.05.03-23.48zm93.46 23.66l-55.44-.11.14-72.97 25.63.05-.1 52.33 19.96.04.1-52.33 25.63.05-.1 52.33 8.5.02-2.5 35.47-21.85-.04.03-14.84zm30.93-98.41l26.71.05-.04 18.88-26.71-.05.04-18.88zm.49 25.5l25.63.05-.14 72.97-25.63-.05.14-72.97zm38.45-9.91l.02-11.46 29.13.06-.02 11.46-7.93 52.18-13.49-.03-7.71-52.21zm1.09 60.03l26.71.05-.04 22.93-26.71-.05.04-22.93z"/></g><path fill="#ED1D24" d="M523.13 126.97c.24-.06.24-.45 0-.51l-1.05-.27c-1.23-.33.72-3.54 1.56-2.58l.66.75c.15.15.51-.03.45-.24l-.3-.99c-.18-.63.6-.93 1.44-.93.87 0 1.77.33 1.59.9l-.3.99c-.06.24.27.39.39.24l.72-.78c.93-1.02 2.7 2.4 1.53 2.67l-1.02.24c-.27.06-.18.42 0 .45l1.02.24c1.29.3-.66 3.54-1.5 2.67l-.75-.78c-.18-.18-.45-.03-.39.21l.3 1.05c.18.63-.66.9-1.5.9-.9 0-1.83-.3-1.59-.9l.39-1.02c.09-.24-.24-.42-.45-.24l-.72.75c-.96.99-2.73-2.31-1.56-2.58l1.08-.24z"/></svg>