<svg xmlns="http://www.w3.org/2000/svg" xmlns:xlink="http://www.w3.org/1999/xlink" viewBox="0 0 2071.19 1131.89"><defs><linearGradient id="a" x1="914.57" y1="806.79" x2="914.57" y2="-670.62" gradientTransform="matrix(-1, 0, 0, 1, 1954.84, 0)" gradientUnits="userSpaceOnUse"><stop offset="0" stop-color="#fff"/><stop offset="0.25" stop-color="#00a3e2"/><stop offset="0.5" stop-color="#2371b9"/><stop offset="0.58" stop-color="#1a558b"/><stop offset="0.68" stop-color="#113759"/><stop offset="0.78" stop-color="#0a1f33"/><stop offset="0.87" stop-color="#040e17"/><stop offset="0.94" stop-color="#010406"/><stop offset="1"/></linearGradient><linearGradient id="b" x1="1039.77" y1="971.55" x2="1039.77" y2="-146.78" gradientTransform="matrix(1, 0, 0, 1, 0, 0)" xlink:href="#a"/><linearGradient id="c" x1="948.53" y1="516.78" x2="948.53" y2="321.19" gradientUnits="userSpaceOnUse"><stop offset="0" stop-color="#fff"/><stop offset="1"/></linearGradient><linearGradient id="d" x1="1060.38" y1="516.78" x2="1060.38" y2="321.19" xlink:href="#c"/><linearGradient id="e" x1="1166.43" y1="516.78" x2="1166.43" y2="321.2" xlink:href="#c"/><linearGradient id="f" x1="1259.61" y1="516.78" x2="1259.61" y2="321.2" xlink:href="#c"/><linearGradient id="g" x1="1357.36" y1="516.78" x2="1357.36" y2="321.19" xlink:href="#c"/><linearGradient id="h" x1="1485.79" y1="516.78" x2="1485.79" y2="321.19" xlink:href="#c"/><linearGradient id="i" x1="1614.95" y1="516.78" x2="1614.95" y2="321.19" xlink:href="#c"/><linearGradient id="j" x1="1726.79" y1="516.78" x2="1726.79" y2="321.19" xlink:href="#c"/><linearGradient id="k" x1="1838.64" y1="516.78" x2="1838.64" y2="321.19" xlink:href="#c"/><linearGradient id="l" x1="948.53" y1="195.53" x2="948.53" y2="557.59" gradientUnits="userSpaceOnUse"><stop offset="0" stop-color="#fff"/><stop offset="0.05" stop-color="#fffffc"/><stop offset="0.1" stop-color="#fffef1"/><stop offset="0.14" stop-color="#fffce0"/><stop offset="0.18" stop-color="#fff9c8"/><stop offset="0.22" stop-color="#fef6a8"/><stop offset="0.25" stop-color="#fef181"/><stop offset="0.29" stop-color="#feec53"/><stop offset="0.33" stop-color="#fde720"/><stop offset="0.33" stop-color="#fde619"/><stop offset="1" stop-color="#fcc403"/></linearGradient><linearGradient id="m" x1="1060.38" y1="195.53" x2="1060.38" y2="557.59" xlink:href="#l"/><linearGradient id="n" x1="1166.43" y1="195.53" x2="1166.43" y2="557.59" xlink:href="#l"/><linearGradient id="o" x1="1259.61" y1="195.53" x2="1259.61" y2="557.59" xlink:href="#l"/><linearGradient id="p" x1="1357.36" y1="195.53" x2="1357.36" y2="557.59" xlink:href="#l"/><linearGradient id="q" x1="1485.79" y1="195.53" x2="1485.79" y2="557.59" xlink:href="#l"/><linearGradient id="r" x1="1614.95" y1="195.53" x2="1614.95" y2="557.59" xlink:href="#l"/><linearGradient id="s" x1="1726.79" y1="195.53" x2="1726.79" y2="557.59" xlink:href="#l"/><linearGradient id="t" x1="1838.64" y1="195.53" x2="1838.64" y2="557.59" xlink:href="#l"/><linearGradient id="u" x1="1039.34" y1="1254.68" x2="1039.34" y2="-252.63" gradientUnits="userSpaceOnUse"><stop offset="0" stop-color="#fff"/><stop offset="0.36" stop-color="#33b5e8"/><stop offset="0.38" stop-color="#33b1e5"/><stop offset="0.5" stop-color="#3696d1"/><stop offset="0.6" stop-color="#3885c4"/><stop offset="0.68" stop-color="#397fc0"/><stop offset="1"/></linearGradient><linearGradient id="v" x1="1040.27" y1="-50.91" x2="1040.27" y2="1264.84" gradientUnits="userSpaceOnUse"><stop offset="0" stop-color="#fff"/><stop offset="0.25" stop-color="#00a3e2"/><stop offset="0.5" stop-color="#2371b9"/><stop offset="0.58" stop-color="#1a558b"/><stop offset="0.68" stop-color="#113759"/><stop offset="0.78" stop-color="#0a1f33"/><stop offset="0.87" stop-color="#040e17"/><stop offset="0.94" stop-color="#010406"/><stop offset="1"/></linearGradient></defs><title>bg</title><g style="isolation:isolate"><rect x="-1507.28" y="-1417.51" width="5093.24" height="4066.8" fill="none"/><rect x="79.34" y="50.89" width="1920" height="1080" fill="none"/><rect x="-1505.85" y="-726.33" width="5092.24" height="1572.48" fill="url(#a)"/><polygon points="29.18 300.61 29.7 299.03 27.68 300.5 26.66 299.76 25.64 299.03 26.41 301.4 25.4 302.14 24.38 302.88 26.89 302.88 27.68 305.26 28.45 302.88 30.96 302.88 28.93 301.4 29.18 300.61" fill="#fff"/><polygon points="1216.98 199.16 1217.76 196.79 1217.76 196.79 1217.76 196.79 1215.73 198.25 1213.69 196.79 1213.69 196.79 1213.69 196.79 1214.47 199.16 1213.45 199.9 1212.44 200.64 1212.44 200.64 1214.95 200.64 1215.73 203.02 1216.5 200.64 1219.02 200.64 1219.02 200.64 1218 199.9 1216.98 199.16" fill="#fff"/><polygon points="1946.16 238.37 1946.93 235.98 1946.93 235.98 1946.93 235.98 1945.91 236.72 1944.9 237.46 1942.87 235.98 1943.65 238.37 1942.38 239.28 1941.61 239.84 1941.61 239.84 1944.12 239.84 1944.9 242.22 1944.9 242.22 1944.9 242.22 1945.67 239.84 1948.19 239.84 1948.19 239.84 1947.68 239.47 1946.16 238.37" fill="#fff"/><polygon points="1771.81 156.21 1772.06 155.44 1772.06 155.44 1772.06 155.44 1770.04 156.91 1769.36 156.42 1768 155.44 1768.77 157.82 1766.74 159.29 1766.74 159.29 1769.25 159.29 1770.04 161.67 1770.04 161.67 1770.04 161.67 1770.81 159.29 1773.32 159.29 1771.29 157.82 1771.81 156.21" fill="#fff"/><polygon points="884.98 86.67 883.36 87.84 881.72 86.67 882.35 88.58 880.73 89.75 882.73 89.75 883.36 91.65 883.97 89.75 885.98 89.75 884.36 88.58 884.98 86.67" fill="#fff"/><polygon points="1466.66 130.51 1465.03 131.69 1464.29 132.23 1463.41 132.87 1460.15 130.51 1460.15 130.51 1460.15 130.51 1461.4 134.32 1458.15 136.68 1458.15 136.68 1462.17 136.68 1463 139.22 1463.06 139.4 1463.41 140.49 1463.41 140.49 1463.41 140.49 1464.03 138.58 1464.65 136.68 1468.67 136.68 1468.67 136.68 1465.41 134.32 1466.66 130.51" fill="#fff"/><polygon points="1592.27 37.02 1590.25 38.49 1589.23 37.76 1588.85 37.48 1588.21 37.02 1588.21 37.02 1588.21 37.02 1588.48 37.83 1588.99 39.39 1588.44 39.8 1587.97 40.13 1586.96 40.87 1589.47 40.87 1590.25 43.25 1590.25 43.25 1590.25 43.25 1591.02 40.87 1593.53 40.87 1593.53 40.87 1591.5 39.39 1592.27 37.02" fill="#fff"/><polygon points="798.92 126.1 797.4 127.2 795.88 126.1 796.46 127.88 794.94 128.99 796.82 128.99 797.4 130.78 797.99 128.99 799.87 128.99 798.34 127.88 798.92 126.1" fill="#fff"/><polygon points="1909.41 98.35 1910.65 94.53 1910.65 94.53 1910.65 94.53 1907.4 96.89 1904.15 94.53 1904.15 94.53 1904.15 94.53 1905.39 98.35 1902.14 100.7 1906.16 100.7 1906.78 102.61 1907.4 104.51 1907.4 104.51 1907.4 104.51 1908.64 100.7 1912.67 100.7 1912.67 100.7 1910.49 99.13 1909.41 98.35" fill="#fff"/><polygon points="317.22 113.27 315.24 114.7 313.25 113.27 314 115.6 312.02 117.03 314.47 117.03 315.24 119.36 315.99 117.03 318.45 117.03 316.46 115.6 317.22 113.27" fill="#fff"/><polygon points="604.59 25.2 603.35 21.39 602.11 25.2 598.08 25.2 599.17 25.98 601.34 27.55 600.72 29.45 600.1 31.36 603.35 29.01 606.6 31.36 605.36 27.55 608.61 25.2 604.59 25.2" fill="#fff"/><polygon points="267.56 254.48 265.93 255.66 264.3 254.48 264.93 256.39 263.31 257.56 265.31 257.56 265.93 259.47 266.55 257.56 268.56 257.56 266.93 256.39 267.56 254.48" fill="#fff"/><polygon points="1060.39 175.09 1060.39 175.09 1060.39 175.09 1057.14 177.44 1053.89 175.09 1053.89 175.09 1053.88 175.09 1055.13 178.9 1051.87 181.25 1051.87 181.25 1055.9 181.25 1056.06 181.75 1057.14 185.07 1057.14 185.07 1057.14 185.07 1058.38 181.25 1062.4 181.25 1062.4 181.25 1059.15 178.9 1060.39 175.09" fill="#fff"/><polygon points="1317.71 92.21 1317.71 92.21 1317.71 92.21 1315.68 93.68 1313.65 92.21 1313.65 92.21 1313.65 92.21 1314.42 94.59 1312.39 96.06 1312.39 96.06 1314.9 96.06 1315.68 98.44 1316.46 96.06 1318.97 96.06 1318.97 96.06 1316.93 94.59 1317.71 92.21" fill="#fff"/><polygon points="501.9 193.21 500.38 194.31 498.85 193.21 499.43 194.99 497.91 196.1 499.79 196.1 500.38 197.88 500.96 196.1 502.84 196.1 501.32 194.99 501.9 193.21" fill="#fff"/><polygon points="2056.6 205.3 2055.65 204.61 2056.74 201.27 2056.74 201.27 2056.74 201.27 2053.9 203.33 2051.05 201.27 2051.05 201.27 2051.05 201.27 2051.59 202.94 2052.13 204.61 2050.24 205.98 2049.9 206.23 2049.3 206.67 2049.3 206.67 2052.8 206.67 2053.9 210 2053.9 210 2053.9 210 2054.98 206.67 2058.51 206.67 2058.51 206.67 2056.78 205.42 2056.6 205.3" fill="#fff"/><polygon points="212 184.43 210.02 185.87 208.03 184.43 208.79 186.76 206.8 188.2 209.25 188.2 210.02 190.52 210.78 188.2 213.23 188.2 211.25 186.76 212 184.43" fill="#fff"/><polygon points="600.39 275.47 599.61 277.85 597.1 277.85 599.13 279.32 598.36 281.7 600.39 280.23 602.42 281.7 601.9 280.12 601.64 279.32 602.66 278.58 603.68 277.85 601.16 277.85 600.39 275.47" fill="#fff"/><path d="M2630.57,241.86c-76,21.74-463.26,168.1-807.18,20.08-327.16-140.82-529.93-112.91-737-20.08C923.12,315.07,746,392.4,447.68,307.09c-119.75-34.24-269.54,9.07-397.47,66.61C9.44,392.78-30.93,414.88-71.43,439.42-295,574.92-537.5,718.06-945.92,560.16c-166.59-64.4-383,19.42-559.93,128.47v494.24H3585.39V391.15C3032.5,121.83,2799.76,193.48,2630.57,241.86Z" fill="url(#b)"/><g opacity="0.68" style="mix-blend-mode:multiply"><path d="M995.09,534.89H960.22v-64.1H936.85v64.05H902V372h34.87v63.89h23.37V372.11h34.87Z" fill="url(#c)"/><path d="M1106.94,530.2l-23.31,23.31h-46.5l-23.31-23.31V413.77l23.31-23.3h46.5l23.31,23.3ZM1048.7,425.52v93.11h23.37V425.52Z" fill="url(#d)"/><path d="M1207.18,423h-46.64V551.31h-34.87V388.1h81.51Z" fill="url(#e)"/><path d="M1300.37,423h-46.64V551.31h-34.87V388.1h81.51Z" fill="url(#f)"/><path d="M1374.85,537.26l-17.49-45.5L1340,537.26h-35l35-86.21V374.4h34.87v76.65l34.92,86.21Z" fill="url(#g)"/><path d="M1527.65,532.51,1509,442.32l-14,90.19h-18.65l-14-90.19-18.65,90.19H1409l30.15-162.86h37.2l9.32,54,9.33-54h37.31l30.26,162.86Z" fill="url(#h)"/><path d="M1661.5,530.2l-23.3,23.31h-46.5l-23.31-23.31V413.77l23.31-23.3h46.5l23.3,23.3Zm-58.24-104.68v93.11h23.37V425.52Z" fill="url(#i)"/><path d="M1773.35,530.2l-23.3,23.31h-46.51l-23.31-23.31V413.77l23.31-23.3h46.51l23.3,23.3Zm-58.24-104.68v93.11h23.37V425.52Z" fill="url(#j)"/><path d="M1885.2,516.14l-23.31,23.31h-69.8V376.78h69.8l23.31,23ZM1827,411.46v93.11h23.38V411.46Z" fill="url(#k)"/></g><path d="M995.09,408.8H960.22V345H936.85v63.9H902V246.07h34.87v64h23.37V246h34.87Z" fill="url(#l)"/><path d="M1106.94,367.14l-23.31,23.31h-46.5l-23.31-23.31V250.71l23.31-23.31h46.5l23.31,23.31Zm-34.87-11.75V262.28H1048.7v93.11Z" fill="url(#m)"/><path d="M1207.18,392.82h-81.51V229.6h34.87V357.94h46.64Z" fill="url(#n)"/><path d="M1300.37,392.82h-81.51V229.6h34.87V357.94h46.64Z" fill="url(#o)"/><path d="M1409.77,243.65l-34.92,86.21v76.66H1340V329.86l-35-86.21h35l17.38,45.5,17.49-45.5Z" fill="url(#p)"/><path d="M1562.57,248.4l-30.26,162.86H1495l-9.33-54-9.32,54h-37.2L1409,248.4h34.7l18.65,90.19,14-90.19H1495l14,90.19,18.65-90.19Z" fill="url(#q)"/><path d="M1661.5,367.14l-23.3,23.31h-46.5l-23.31-23.31V250.71l23.31-23.31h46.5l23.3,23.31Zm-34.87-11.75V262.28h-23.37v93.11Z" fill="url(#r)"/><path d="M1773.35,367.14l-23.3,23.31h-46.51l-23.31-23.31V250.71l23.31-23.31h46.51l23.3,23.31Zm-34.87-11.75V262.28h-23.37v93.11Z" fill="url(#s)"/><path d="M1885.2,381.17l-23.31,23h-69.8V241.46h69.8l23.31,23.31Zm-34.87-11.72V276.33H1827v93.12Z" fill="url(#t)"/><polygon points="3483.62 689.22 3483.62 677.96 3463.5 673.83 3433.89 673.83 3433.89 664.36 3396.09 664.36 3396.09 677.96 3375.4 677.96 3375.4 583.84 3371.06 578.52 3356.15 578.52 3351.35 569.04 3343.16 569.04 3343.16 560.76 3336.9 560.76 3336.9 540.61 3332.57 537.66 3319.58 537.66 3314.29 529.37 3281.09 529.37 3281.09 537.06 3256.56 537.06 3256.56 564.9 3250.3 564.9 3250.3 574.95 3225.28 580.88 3225.28 714.67 3207.49 710.53 3195.83 710.53 3189.57 753.75 3176.59 753.75 3176.59 780.98 3169.26 780.98 3169.26 791.64 3152.9 791.64 3152.9 751.99 3150.02 748.43 3150.02 703.43 3146.65 703.43 3146.65 659.63 3139.92 659.63 3139.92 625.87 3135.1 625.87 3135.1 571.41 3064.86 571.41 3064.86 547.73 2961.9 547.73 2905.28 583.84 2905.28 721.18 2898.88 721.18 2898.88 732.25 2891.17 732.25 2891.17 958.02 2862.72 958.02 2862.72 868.15 2812.88 868.15 2779.19 826.7 2743.59 818.43 2743.59 692.78 2720.49 692.78 2720.49 612.27 2707.98 612.27 2707.98 579.11 2695.48 575.57 2695.48 527.01 2686.82 511.62 2680.08 469 2674.31 515.17 2669.5 527.01 2669.5 576.73 2662.76 593.32 2662.76 624.11 2658.91 617.01 2647.36 619.37 2647.36 692.78 2605.03 692.78 2593.47 707 2593.47 719.42 2583.37 719.42 2577.12 711.72 2533.81 734.23 2533.81 821.45 2530.94 821.45 2530.94 855.77 2507.36 855.77 2490.99 859.93 2475.29 859.93 2475.29 843.35 2432.95 843.35 2432.95 482.36 2407.94 461.04 2380.5 458.08 2380.5 438.54 2346.35 438.54 2346.83 422.56 2341.06 415.46 2322.77 415.46 2256.85 422.56 2248.68 433.21 2246.75 473.47 2174.59 483.55 2163.03 495.38 2152.45 497.16 2152.45 642.19 2141.38 635.1 2141.38 619.71 2125.51 616.73 2106.26 619.71 2106.26 639.25 2098.56 647.53 2098.56 719.76 2086.05 719.76 2082.2 739.88 2082.2 856.5 2076.43 880.21 2021.41 880.21 2021.41 612.01 2014.2 601.35 1998.8 601.35 1998.8 419.85 1993.02 408.01 1963.68 402.68 1893.91 414.52 1893.91 610.24 1891.03 615.57 1891.03 674.77 1889.1 677.14 1889.1 733.36 1883.34 733.36 1883.34 793.75 1872.74 793.75 1872.74 820.41 1812.34 820.41 1812.34 499.11 1743.38 499.11 1709.22 507.98 1709.22 836.98 1685.16 836.98 1685.16 851.78 1648.59 851.78 1648.59 825.14 1625.49 816.85 1628.82 816.85 1611.97 816.85 1611.18 816.85 1611.18 555.35 1568.36 541.73 1515.9 541.73 1481.74 551.23 1481.74 860.06 1438.28 860.06 1438.28 852.38 1428.66 852.38 1428.66 841.72 1425.29 835.79 1420 835.79 1420 812.12 1415.19 809.15 1405.33 809.15 1405.33 783.99 1397.87 774.82 1387.77 774.82 1387.77 680.69 1361.79 671.82 1343.98 671.82 1343.98 661.14 1337.86 633.47 1310.43 635.56 1310.43 733.9 1277.24 735.87 1277.24 489.19 1164.17 469.06 1124.13 480.9 1124.13 660.35 1100.66 660.35 1093.45 668.64 1093.45 707.12 1083.83 707.12 1083.83 698.24 1076.61 692.91 1058.98 692.91 1058.98 629.42 1049.61 629.42 1049.61 587.31 1042.64 578.71 1042.64 562.14 1036.37 562.14 1036.37 555.63 1010.88 510.03 1010.88 473.33 1003.18 479.85 1003.18 511.23 989.7 543.78 984.41 553.85 984.41 567.47 978.64 567.47 974.32 581.08 974.32 603.59 969.5 603.59 969.5 718.43 939.19 718.43 939.19 710.15 932.47 698.31 778.91 698.31 778.91 647.37 784.93 639.97 784.93 630.49 772.89 630.49 765.2 622.19 765.2 568.33 759.91 561.81 759.91 537.55 752.7 537.55 752.7 521.56 737.78 481.89 735.38 481.29 732.96 448.14 729.6 480.7 726.71 480.7 719 496.7 719 512.09 713.24 517.99 713.24 539.91 709.39 539.91 700.73 548.79 700.73 583.11 683.88 583.11 679.73 625.16 679.73 630.49 660.97 639.97 666.26 646.49 666.26 657.73 669.15 661.28 669.15 718.95 606.61 718.95 606.61 654.77 601.33 650.61 601.33 637.01 596.27 624.28 588.34 614.51 582.08 614.51 582.08 603.26 565.72 589.64 559.47 597.94 559.47 621.01 555.13 621.01 548.4 657.14 548.4 798.16 478.74 798.16 478.74 689.22 472.01 684.48 461.43 684.48 461.43 677.96 451.31 673.83 441.7 673.83 441.7 664.36 423.89 664.36 423.89 677.96 403.2 677.96 403.2 563.84 398.87 558.52 383.96 558.52 379.15 549.04 370.97 549.04 370.97 540.76 364.71 540.76 364.71 520.61 360.38 517.66 347.39 517.66 342.1 509.37 308.9 509.37 308.9 517.06 284.37 517.06 284.37 544.9 278.11 544.9 278.11 554.95 253.09 560.88 253.09 714.67 235.3 710.53 223.64 710.53 217.38 753.75 204.4 753.75 204.4 780.98 197.07 780.98 197.07 791.64 180.71 791.64 180.71 751.99 177.82 748.43 177.82 703.43 174.46 703.43 174.46 659.63 167.73 659.63 167.73 625.87 162.91 625.87 162.91 466.41 92.67 466.41 92.67 442.73 -10.3 442.73 -66.92 478.84 -66.92 721.18 -73.32 721.18 -73.32 732.25 -81.02 732.25 -81.02 958.02 -109.47 958.02 -109.47 868.15 -149.31 868.15 -183 826.7 -218.6 818.43 -218.6 692.78 -241.7 692.78 -241.7 612.27 -254.21 612.27 -254.21 579.11 -266.71 575.57 -266.71 527.01 -275.38 511.62 -282.11 469 -287.88 515.17 -292.69 527.01 -292.69 576.73 -299.44 593.32 -299.44 624.11 -303.28 617.01 -314.84 619.37 -314.84 692.78 -357.17 692.78 -368.72 707 -368.72 719.42 -378.82 719.42 -385.07 711.72 -428.38 734.23 -428.38 821.45 -431.26 821.45 -431.26 855.77 -454.84 855.77 -471.2 859.93 -486.9 859.93 -486.9 843.35 -529.24 843.35 -529.24 482.36 -554.25 461.04 -581.69 458.08 -581.69 438.54 -615.85 438.54 -615.37 422.56 -621.13 415.46 -639.42 415.46 -705.34 422.56 -713.51 433.21 -715.44 473.47 -787.61 483.55 -799.16 495.38 -809.74 497.16 -809.74 642.19 -820.81 635.1 -820.81 619.71 -836.68 616.73 -855.93 619.71 -855.93 639.25 -863.63 647.53 -863.63 719.76 -876.14 719.76 -879.99 739.88 -879.99 856.5 -885.76 880.21 -920.78 880.21 -920.78 612.01 -928 601.35 -943.39 601.35 -943.39 419.85 -949.17 408.01 -978.51 402.68 -1048.28 414.52 -1048.28 610.24 -1051.16 615.57 -1051.16 674.77 -1053.09 677.14 -1053.09 733.36 -1058.85 733.36 -1058.85 793.75 -1069.45 793.75 -1069.45 820.41 -1104.85 820.41 -1104.85 579.11 -1143.81 579.11 -1177.97 587.98 -1177.97 836.98 -1202.03 836.98 -1202.03 851.78 -1238.6 851.78 -1238.6 825.14 -1261.7 816.85 -1333.37 816.85 -1333.37 829.88 -1339.16 829.88 -1350.22 816.85 -1381.02 816.85 -1381.02 600.35 -1423.84 586.73 -1469.29 586.73 -1506.28 596.23 -1506.28 1299.2 -100.47 1299.2 -99.47 1299.2 2861.72 1299.2 2862.72 1299.2 3584.96 1299.2 3584.96 689.22 3483.62 689.22" fill="url(#u)"/><rect x="-1505.35" y="1131.44" width="5091.24" height="1419.77"/><polygon points="3481.44 634.5 3481.44 576.87 3474.23 570.26 3474.23 554.67 3456.22 552.3 3441.36 554.67 3431.01 572.62 3431.01 456.91 3421.1 455.48 3410.29 446.03 3342.75 438 3340.95 405.88 3271.6 391.72 3254.5 391.72 3249.1 397.38 3249.55 410.13 3217.58 410.13 3217.58 425.73 3191.91 428.08 3168.5 445.09 3168.5 733.95 3128.87 733.95 3128.87 747.17 3086.1 747.17 3070.79 743.86 3048.73 743.86 3048.73 716.48 3046.03 716.48 3046.03 672.95 3005.5 655 2990.19 651.23 2979.39 639.89 2939.77 639.89 2939.77 581.31 2928.95 579.43 2925.36 575.1 2925.36 560.53 2919.05 547.3 2919.05 507.63 2914.55 498.19 2909.15 461.34 2902.84 495.35 2894.73 507.63 2894.73 546.37 2883.03 549.19 2883.03 575.65 2871.32 575.65 2871.32 639.89 2849.7 639.89 2849.7 726.09 2816.39 732.69 2784.87 765.76 2738.22 765.76 2738.22 784.97 2713.54 784.97 2713.54 683.18 2706.33 683.18 2700.33 674.34 2701.38 559.78 2681.1 545.6 2658.16 545.6 2658.16 540.87 2647.35 537.58 2647.35 530.96 2588.81 530.96 2588.81 538.99 2582.5 538.99 2578.68 543.01 2568.09 543.01 2550.98 549.86 2485.25 549.86 2485.25 608.3 2477.11 608.3 2477.1 685.19 2468.59 685.19 2468.59 770.56 2453.28 770.56 2453.28 762.07 2437.07 762.07 2437.07 740.34 2424.92 740.34 2424.92 695.86 2398.8 695.86 2382.13 709.16 2382.13 537.42 2358.73 532.69 2352.87 524.66 2352.87 502.46 2329.91 496.31 2298.84 496.31 2281.73 502.94 2277.68 505.29 2277.68 521.35 2259.66 535.53 2245.71 535.53 2241.66 539.78 2241.66 614.87 2222.29 614.87 2222.29 604.01 2205.64 604.01 2170.97 623.85 2170.97 713.96 2125.13 713.96 2125.13 528.25 2108.93 521.64 2070.65 546.77 2070.65 706.72 2035.53 706.72 2035.53 593.79 2025.62 569.23 2025.62 564.99 1993.66 531.44 1977.89 531.44 1977.89 504.05 1969.79 496.97 1966.18 496.97 1966.18 479.49 1960.79 474.77 1960.79 462.49 1953.57 449.73 1950.88 449.73 1947.73 433.75 1945.47 450.2 1943.22 450.68 1929.26 482.32 1929.26 495.08 1922.51 495.08 1922.51 514.44 1917.55 519.64 1917.55 562.62 1910.36 569.23 1904.73 582.7 1904.73 673.24 1873.97 673.24 1867.68 682.68 1867.68 689.28 1844.31 689.28 1844.31 572.66 1839.8 572.66 1839.8 554.7 1835.76 543.84 1830.35 543.84 1830.35 532.98 1812.79 498.97 1812.79 473.94 1805.58 468.74 1805.58 498.02 1781.73 534.4 1781.73 552.82 1775.87 552.82 1769.34 559.68 1769.34 636.14 1760.56 630.95 1709.39 630.95 1693.63 642.28 1693.63 611.59 1686.89 604.97 1674.28 604.97 1674.28 468.82 1627.45 459.37 1520.29 475.43 1520.29 623.3 1468.72 623.7 1468.72 507.26 1439.9 501.6 1359.31 507.73 1359.31 516.25 1342.64 516.25 1318.33 523.33 1318.33 598.43 1301.9 605.74 1301.9 630.82 1218.45 633.18 1218.45 494.87 1186.49 487.3 1122.39 487.3 1072.32 498.17 1072.32 646.96 1055.66 646.96 1039.04 658.57 1039.04 679.83 999.82 679.83 999.82 553.08 945.34 536 918.87 536 918.87 714.8 904.47 714.8 904.47 645.35 887.34 643.45 887.34 551.37 884.65 547.12 884.65 371.36 843.13 365.23 809.36 361.92 781.9 366.18 776.49 375.61 776.49 540.03 762.09 540.03 755.32 548.53 755.32 702.5 651.92 702.5 646.51 683.6 646.51 650.55 642.92 634.5 631.21 634.5 631.21 576.87 624 570.26 624 554.67 605.99 552.3 591.13 554.67 580.78 572.62 580.78 456.91 570.87 455.48 560.06 446.03 492.52 438 490.72 405.88 421.38 391.72 404.27 391.72 398.87 397.38 399.32 410.13 367.35 410.13 367.35 425.73 341.68 428.08 318.27 445.09 318.27 748.95 278.64 748.95 278.64 762.17 235.88 762.17 220.56 758.86 198.5 758.86 198.5 731.48 195.8 731.48 195.8 687.95 155.27 670 139.97 666.23 129.16 654.89 89.55 654.89 89.55 596.31 78.73 594.43 75.13 590.1 75.13 575.53 68.83 562.3 68.83 522.63 64.32 513.19 58.92 476.34 52.62 510.35 44.5 522.63 44.5 561.37 32.8 564.19 32.8 590.65 21.09 590.65 21.09 654.89 -0.52 654.89 -0.52 726.09 -33.84 732.69 -65.36 765.76 -112 765.76 -112 784.97 -136.69 784.97 -136.69 698.18 -143.9 698.18 -149.9 689.34 -148.85 579.78 -169.13 565.6 -192.07 565.6 -192.07 560.87 -202.88 557.58 -202.88 550.96 -261.42 550.96 -261.42 558.99 -267.73 558.99 -271.55 563.01 -282.13 563.01 -299.25 569.86 -364.98 569.86 -364.98 613.3 -373.12 613.3 -373.13 675.19 -381.64 675.19 -381.64 760.56 -396.94 760.56 -396.94 752.07 -413.16 752.07 -413.16 730.34 -425.31 730.34 -425.31 685.86 -451.43 685.86 -468.1 699.16 -468.1 592.42 -491.5 587.69 -497.36 579.66 -497.36 557.46 -520.32 551.31 -551.38 551.31 -568.5 557.93 -572.55 560.29 -572.55 576.35 -590.57 590.53 -604.52 590.53 -608.57 594.78 -608.57 684.87 -627.94 684.87 -627.94 674.01 -644.59 674.01 -679.26 693.85 -679.26 708.96 -735.1 708.96 -735.1 528.25 -751.3 521.64 -789.58 546.77 -789.58 686.72 -824.7 686.72 -824.7 578.79 -834.61 554.23 -834.61 549.99 -866.56 516.44 -882.34 516.44 -882.34 489.05 -890.44 481.97 -894.04 481.97 -894.04 464.49 -899.44 459.77 -899.44 447.49 -906.65 434.73 -909.35 434.73 -912.5 408.75 -914.76 435.2 -917 435.68 -930.97 467.32 -930.97 480.08 -937.72 480.08 -937.72 499.44 -942.68 504.64 -942.68 547.62 -949.87 554.23 -955.5 567.7 -955.5 683.24 -986.25 683.24 -992.55 692.68 -992.55 699.28 -1020.92 699.28 -1020.92 572.66 -1025.42 572.66 -1025.42 554.7 -1029.47 543.84 -1034.88 543.84 -1034.88 532.98 -1052.44 498.97 -1052.44 473.94 -1059.64 468.74 -1059.64 498.02 -1083.5 534.4 -1083.5 552.82 -1089.36 552.82 -1095.89 559.68 -1095.89 676.14 -1104.67 670.95 -1135.84 670.95 -1151.6 682.28 -1151.6 651.59 -1158.34 644.97 -1170.95 644.97 -1170.95 448.82 -1217.78 439.37 -1324.94 455.43 -1324.94 653.3 -1351.51 663.7 -1351.51 522.26 -1380.33 516.6 -1460.92 522.73 -1460.92 531.25 -1477.58 531.25 -1505.35 538.33 -1505.35 1133.44 -112 1133.44 -111 1133.44 2738.22 1133.44 2739.22 1133.44 3585.89 1133.44 3585.89 650.55 3481.44 634.5" fill="url(#v)"/></g></svg>