<svg xmlns="http://www.w3.org/2000/svg" xmlns:xlink="http://www.w3.org/1999/xlink" viewBox="0 0 1156.25 1131.89"><defs><linearGradient id="a" x1="100.41" y1="806.79" x2="100.41" y2="-670.62" gradientTransform="matrix(-1, 0, 0, 1, 326.53, 0)" gradientUnits="userSpaceOnUse"><stop offset="0" stop-color="#fff"/><stop offset="0.25" stop-color="#00a3e2"/><stop offset="0.5" stop-color="#2371b9"/><stop offset="0.58" stop-color="#1a558b"/><stop offset="0.68" stop-color="#113759"/><stop offset="0.78" stop-color="#0a1f33"/><stop offset="0.87" stop-color="#040e17"/><stop offset="0.94" stop-color="#010406"/><stop offset="1"/></linearGradient><linearGradient id="b" x1="225.62" y1="971.55" x2="225.62" y2="-146.78" gradientTransform="matrix(1, 0, 0, 1, 0, 0)" xlink:href="#a"/><linearGradient id="c" x1="134.38" y1="516.78" x2="134.38" y2="321.19" gradientUnits="userSpaceOnUse"><stop offset="0" stop-color="#fff"/><stop offset="1"/></linearGradient><linearGradient id="d" x1="246.23" y1="516.78" x2="246.23" y2="321.19" xlink:href="#c"/><linearGradient id="e" x1="352.27" y1="516.78" x2="352.27" y2="321.2" xlink:href="#c"/><linearGradient id="f" x1="445.46" y1="516.78" x2="445.46" y2="321.2" xlink:href="#c"/><linearGradient id="g" x1="543.2" y1="516.78" x2="543.2" y2="321.19" xlink:href="#c"/><linearGradient id="h" x1="671.63" y1="516.78" x2="671.63" y2="321.19" xlink:href="#c"/><linearGradient id="i" x1="800.79" y1="516.78" x2="800.79" y2="321.19" xlink:href="#c"/><linearGradient id="j" x1="912.64" y1="516.78" x2="912.64" y2="321.19" xlink:href="#c"/><linearGradient id="k" x1="1024.49" y1="516.78" x2="1024.49" y2="321.19" xlink:href="#c"/><linearGradient id="l" x1="134.38" y1="195.53" x2="134.38" y2="557.59" gradientUnits="userSpaceOnUse"><stop offset="0" stop-color="#fff"/><stop offset="0.05" stop-color="#fffffc"/><stop offset="0.1" stop-color="#fffef1"/><stop offset="0.14" stop-color="#fffce0"/><stop offset="0.18" stop-color="#fff9c8"/><stop offset="0.22" stop-color="#fef6a8"/><stop offset="0.25" stop-color="#fef181"/><stop offset="0.29" stop-color="#feec53"/><stop offset="0.33" stop-color="#fde720"/><stop offset="0.33" stop-color="#fde619"/><stop offset="1" stop-color="#fcc403"/></linearGradient><linearGradient id="m" x1="246.23" y1="195.53" x2="246.23" y2="557.59" xlink:href="#l"/><linearGradient id="n" x1="352.27" y1="195.53" x2="352.27" y2="557.59" xlink:href="#l"/><linearGradient id="o" x1="445.46" y1="195.53" x2="445.46" y2="557.59" xlink:href="#l"/><linearGradient id="p" x1="543.2" y1="195.53" x2="543.2" y2="557.59" xlink:href="#l"/><linearGradient id="q" x1="671.63" y1="195.53" x2="671.63" y2="557.59" xlink:href="#l"/><linearGradient id="r" x1="800.79" y1="195.53" x2="800.79" y2="557.59" xlink:href="#l"/><linearGradient id="s" x1="912.64" y1="195.53" x2="912.64" y2="557.59" xlink:href="#l"/><linearGradient id="t" x1="1024.49" y1="195.53" x2="1024.49" y2="557.59" xlink:href="#l"/><linearGradient id="u" x1="225.19" y1="1254.68" x2="225.19" y2="-252.63" gradientUnits="userSpaceOnUse"><stop offset="0" stop-color="#fff"/><stop offset="0.36" stop-color="#33b5e8"/><stop offset="0.38" stop-color="#33b1e5"/><stop offset="0.5" stop-color="#3696d1"/><stop offset="0.6" stop-color="#3885c4"/><stop offset="0.68" stop-color="#397fc0"/><stop offset="1"/></linearGradient><linearGradient id="v" x1="226.12" y1="-50.91" x2="226.12" y2="1264.84" gradientUnits="userSpaceOnUse"><stop offset="0" stop-color="#fff"/><stop offset="0.25" stop-color="#00a3e2"/><stop offset="0.5" stop-color="#2371b9"/><stop offset="0.58" stop-color="#1a558b"/><stop offset="0.68" stop-color="#113759"/><stop offset="0.78" stop-color="#0a1f33"/><stop offset="0.87" stop-color="#040e17"/><stop offset="0.94" stop-color="#010406"/><stop offset="1"/></linearGradient></defs><title>bg-mobile</title><g style="isolation:isolate"><rect x="-2321.43" y="-1417.51" width="5093.24" height="4066.8" fill="none"/><rect x="-734.81" y="50.89" width="1920" height="1080" fill="none"/><rect x="-2320" y="-726.33" width="5092.24" height="1572.48" fill="url(#a)"/><polygon points="402.83 199.16 403.61 196.79 403.61 196.79 403.61 196.79 401.57 198.25 399.54 196.79 399.54 196.79 399.54 196.79 400.31 199.16 399.3 199.9 398.28 200.64 398.28 200.64 400.79 200.64 401.57 203.02 402.35 200.64 404.86 200.64 404.86 200.64 403.85 199.9 402.83 199.16" fill="#fff"/><polygon points="1132 238.37 1132.78 235.98 1132.78 235.98 1132.78 235.98 1131.76 236.72 1130.74 237.46 1128.71 235.98 1129.49 238.37 1128.23 239.28 1127.46 239.84 1127.46 239.84 1129.97 239.84 1130.74 242.22 1130.74 242.22 1130.74 242.22 1131.52 239.84 1134.04 239.84 1134.04 239.84 1133.53 239.47 1132 238.37" fill="#fff"/><polygon points="957.66 156.21 957.91 155.44 957.91 155.44 957.91 155.44 955.89 156.91 955.21 156.42 953.84 155.44 954.62 157.82 952.59 159.29 952.59 159.29 955.1 159.29 955.89 161.67 955.89 161.67 955.89 161.67 956.66 159.29 959.17 159.29 957.13 157.82 957.66 156.21" fill="#fff"/><polygon points="70.83 86.67 69.2 87.84 67.57 86.67 68.2 88.58 66.57 89.75 68.58 89.75 69.2 91.65 69.82 89.75 71.83 89.75 70.2 88.58 70.83 86.67" fill="#fff"/><polygon points="652.5 130.51 650.88 131.69 650.14 132.23 649.26 132.87 646 130.51 646 130.51 646 130.51 647.24 134.32 643.99 136.68 643.99 136.68 648.01 136.68 648.84 139.22 648.9 139.4 649.26 140.49 649.26 140.49 649.26 140.49 649.88 138.58 650.5 136.68 654.52 136.68 654.52 136.68 651.26 134.32 652.5 130.51" fill="#fff"/><polygon points="778.12 37.02 776.09 38.49 775.08 37.76 774.7 37.48 774.06 37.02 774.06 37.02 774.06 37.02 774.33 37.83 774.84 39.39 774.28 39.8 773.82 40.13 772.8 40.87 775.31 40.87 776.09 43.25 776.09 43.25 776.09 43.25 776.87 40.87 779.38 40.87 779.38 40.87 777.34 39.39 778.12 37.02" fill="#fff"/><polygon points="1095.25 98.35 1096.49 94.53 1096.49 94.53 1096.49 94.53 1093.25 96.89 1089.99 94.53 1089.99 94.53 1089.99 94.53 1091.23 98.35 1087.98 100.7 1092 100.7 1092.63 102.61 1093.25 104.51 1093.25 104.51 1093.25 104.51 1094.49 100.7 1098.51 100.7 1098.51 100.7 1096.34 99.13 1095.25 98.35" fill="#fff"/><polygon points="246.24 175.09 246.24 175.09 246.24 175.09 242.99 177.44 239.73 175.09 239.73 175.09 239.73 175.09 240.97 178.9 237.72 181.25 237.72 181.25 241.75 181.25 241.91 181.75 242.99 185.07 242.99 185.07 242.99 185.07 244.22 181.25 248.25 181.25 248.25 181.25 244.99 178.9 246.24 175.09" fill="#fff"/><polygon points="503.56 92.21 503.56 92.21 503.56 92.21 501.53 93.68 499.49 92.21 499.49 92.21 499.49 92.21 500.27 94.59 498.24 96.06 498.24 96.06 500.75 96.06 501.53 98.44 502.31 96.06 504.81 96.06 504.81 96.06 502.78 94.59 503.56 92.21" fill="#fff"/><path d="M1816.41,241.86c-76,21.74-463.25,168.1-807.18,20.08C682.08,121.12,479.31,149,272.25,241.86,109,315.07-68.17,392.4-366.48,307.09-486.22,272.85-636,316.16-763.94,373.7c-40.77,19.08-81.15,41.18-121.64,65.72-223.55,135.5-466.08,278.64-874.49,120.74-166.59-64.4-383,19.42-559.93,128.47v494.24H2771.23V391.15C2218.34,121.83,1985.61,193.48,1816.41,241.86Z" fill="url(#b)"/><g opacity="0.68" style="mix-blend-mode:multiply"><path d="M180.94,534.89H146.06v-64.1H122.69v64.05H87.82V372h34.87v63.89h23.37V372.11h34.88Z" fill="url(#c)"/><path d="M292.79,530.2l-23.31,23.31H223L199.67,530.2V413.77L223,390.47h46.5l23.31,23.3ZM234.54,425.52v93.11h23.37V425.52Z" fill="url(#d)"/><path d="M393,423H346.39V551.31H311.52V388.1H393Z" fill="url(#e)"/><path d="M486.21,423H439.57V551.31H404.7V388.1h81.51Z" fill="url(#f)"/><path d="M560.69,537.26l-17.49-45.5-17.38,45.5h-35l35-86.21V374.4h34.87v76.65l34.93,86.21Z" fill="url(#g)"/><path d="M713.49,532.51l-18.65-90.19-14,90.19H662.19l-14-90.19-18.66,90.19H594.85L625,369.65h37.19l9.33,54,9.33-54h37.31l30.26,162.86Z" fill="url(#h)"/><path d="M847.35,530.2l-23.3,23.31H777.54l-23.3-23.31V413.77l23.3-23.3h46.51l23.3,23.3ZM789.11,425.52v93.11h23.37V425.52Z" fill="url(#i)"/><path d="M959.2,530.2l-23.31,23.31h-46.5L866.08,530.2V413.77l23.31-23.3h46.5l23.31,23.3ZM901,425.52v93.11h23.37V425.52Z" fill="url(#j)"/><path d="M1071,516.14l-23.3,23.31h-69.8V376.78h69.8l23.3,23ZM1012.8,411.46v93.11h23.37V411.46Z" fill="url(#k)"/></g><path d="M180.94,408.8H146.06V345H122.69v63.9H87.82V246.07h34.87v64h23.37V246h34.88Z" fill="url(#l)"/><path d="M292.79,367.14l-23.31,23.31H223l-23.31-23.31V250.71L223,227.4h46.5l23.31,23.31Zm-34.88-11.75V262.28H234.54v93.11Z" fill="url(#m)"/><path d="M393,392.82H311.52V229.6h34.87V357.94H393Z" fill="url(#n)"/><path d="M486.21,392.82H404.7V229.6h34.87V357.94h46.64Z" fill="url(#o)"/><path d="M595.62,243.65l-34.93,86.21v76.66H525.82V329.86l-35-86.21h35l17.38,45.5,17.49-45.5Z" fill="url(#p)"/><path d="M748.42,248.4,718.16,411.26H680.85l-9.33-54-9.33,54H625L594.85,248.4h34.69l18.66,90.19,14-90.19h18.66l14,90.19,18.65-90.19Z" fill="url(#q)"/><path d="M847.35,367.14l-23.3,23.31H777.54l-23.3-23.31V250.71l23.3-23.31h46.51l23.3,23.31Zm-34.87-11.75V262.28H789.11v93.11Z" fill="url(#r)"/><path d="M959.2,367.14l-23.31,23.31h-46.5l-23.31-23.31V250.71l23.31-23.31h46.5l23.31,23.31Zm-34.88-11.75V262.28H901v93.11Z" fill="url(#s)"/><path d="M1071,381.17l-23.3,23h-69.8V241.46h69.8l23.3,23.31Zm-34.87-11.72V276.33H1012.8v93.12Z" fill="url(#t)"/><polygon points="2669.46 689.22 2669.46 677.96 2649.35 673.83 2619.74 673.83 2619.74 664.36 2581.93 664.36 2581.93 677.96 2561.24 677.96 2561.24 583.84 2556.91 578.52 2541.99 578.52 2537.19 569.04 2529.01 569.04 2529.01 560.76 2522.75 560.76 2522.75 540.61 2518.42 537.66 2505.43 537.66 2500.14 529.37 2466.94 529.37 2466.94 537.06 2442.4 537.06 2442.4 564.9 2436.14 564.9 2436.14 574.95 2411.13 580.88 2411.13 714.67 2393.33 710.53 2381.68 710.53 2375.41 753.75 2362.44 753.75 2362.44 780.98 2355.11 780.98 2355.11 791.64 2338.75 791.64 2338.75 751.99 2335.86 748.43 2335.86 703.43 2332.5 703.43 2332.5 659.63 2325.77 659.63 2325.77 625.87 2320.95 625.87 2320.95 571.41 2250.71 571.41 2250.71 547.73 2147.74 547.73 2091.12 583.84 2091.12 721.18 2084.72 721.18 2084.72 732.25 2077.02 732.25 2077.02 958.02 2048.57 958.02 2048.57 868.15 1998.72 868.15 1965.04 826.7 1929.44 818.43 1929.44 692.78 1906.34 692.78 1906.34 612.27 1893.83 612.27 1893.83 579.11 1881.33 575.57 1881.33 527.01 1872.66 511.62 1865.92 469 1860.16 515.17 1855.35 527.01 1855.35 576.73 1848.6 593.32 1848.6 624.11 1844.76 617.01 1833.2 619.37 1833.2 692.78 1790.87 692.78 1779.32 707 1779.32 719.42 1769.22 719.42 1762.97 711.72 1719.66 734.23 1719.66 821.45 1716.78 821.45 1716.78 855.77 1693.2 855.77 1676.84 859.93 1661.14 859.93 1661.14 843.35 1618.8 843.35 1618.8 482.36 1593.78 461.04 1566.35 458.08 1566.35 438.54 1532.19 438.54 1532.67 422.56 1526.9 415.46 1508.62 415.46 1442.7 422.56 1434.52 433.21 1432.6 473.47 1360.43 483.55 1348.88 495.38 1338.3 497.16 1338.3 642.19 1327.23 635.1 1327.23 619.71 1311.35 616.73 1292.11 619.71 1292.11 639.25 1284.4 647.53 1284.4 719.76 1271.9 719.76 1268.05 739.88 1268.05 856.5 1262.28 880.21 1207.26 880.21 1207.26 612.01 1200.04 601.35 1184.65 601.35 1184.65 419.85 1178.87 408.01 1149.53 402.68 1079.76 414.52 1079.76 610.24 1076.88 615.57 1076.88 674.77 1074.95 677.14 1074.95 733.36 1069.18 733.36 1069.18 793.75 1058.59 793.75 1058.59 820.41 998.19 820.41 998.19 499.11 929.23 499.11 895.07 507.98 895.07 836.98 871.01 836.98 871.01 851.78 834.44 851.78 834.44 825.14 811.34 816.85 814.66 816.85 797.82 816.85 797.02 816.85 797.02 555.35 754.2 541.73 701.75 541.73 667.59 551.23 667.59 860.06 624.13 860.06 624.13 852.38 614.51 852.38 614.51 841.72 611.14 835.79 605.84 835.79 605.84 812.12 601.03 809.15 591.17 809.15 591.17 783.99 583.71 774.82 573.62 774.82 573.62 680.69 547.63 671.82 529.82 671.82 529.82 661.14 523.71 633.47 496.28 635.56 496.28 733.9 463.08 735.87 463.08 489.19 350.01 469.06 309.97 480.9 309.97 660.35 286.5 660.35 279.3 668.64 279.3 707.12 269.67 707.12 269.67 698.24 262.45 692.91 244.83 692.91 244.83 629.42 235.46 629.42 235.46 587.31 228.48 578.71 228.48 562.14 222.22 562.14 222.22 555.63 196.73 510.03 196.73 473.33 189.03 479.85 189.03 511.23 175.55 543.78 170.26 553.85 170.26 567.47 164.49 567.47 160.16 581.08 160.16 603.59 155.35 603.59 155.35 718.43 125.03 718.43 125.03 710.15 118.31 698.31 -35.24 698.31 -35.24 647.37 -29.22 639.97 -29.22 630.49 -41.26 630.49 -48.95 622.19 -48.95 568.33 -54.24 561.81 -54.24 537.55 -61.45 537.55 -61.45 521.56 -76.37 481.89 -78.78 481.29 -81.2 448.14 -84.56 480.7 -87.44 480.7 -95.15 496.7 -95.15 512.09 -100.91 517.99 -100.91 539.91 -104.76 539.91 -113.42 548.79 -113.42 583.11 -130.27 583.11 -134.42 625.16 -134.42 630.49 -153.18 639.97 -147.89 646.49 -147.89 657.73 -145.01 661.28 -145.01 718.95 -207.54 718.95 -207.54 654.77 -212.82 650.61 -212.82 637.01 -217.88 624.28 -225.82 614.51 -232.07 614.51 -232.07 603.26 -248.43 589.64 -254.68 597.94 -254.68 621.01 -259.02 621.01 -265.76 657.14 -265.76 798.16 -335.42 798.16 -335.42 689.22 -342.15 684.48 -352.73 684.48 -352.73 677.96 -362.84 673.83 -372.45 673.83 -372.45 664.36 -390.26 664.36 -390.26 677.96 -410.95 677.96 -410.95 563.84 -415.28 558.52 -430.2 558.52 -435 549.04 -443.19 549.04 -443.19 540.76 -449.44 540.76 -449.44 520.61 -453.77 517.66 -466.76 517.66 -472.06 509.37 -505.25 509.37 -505.25 517.06 -529.79 517.06 -529.79 544.9 -536.05 544.9 -536.05 554.95 -561.06 560.88 -561.06 714.67 -578.86 710.53 -590.51 710.53 -596.78 753.75 -609.75 753.75 -609.75 780.98 -617.08 780.98 -617.08 791.64 -633.44 791.64 -633.44 751.99 -636.33 748.43 -636.33 703.43 -639.69 703.43 -639.69 659.63 -646.42 659.63 -646.42 625.87 -651.25 625.87 -651.25 466.41 -721.48 466.41 -721.48 442.73 -824.45 442.73 -881.07 478.84 -881.07 721.18 -887.47 721.18 -887.47 732.25 -895.17 732.25 -895.17 958.02 -923.62 958.02 -923.62 868.15 -963.47 868.15 -997.16 826.7 -1032.75 818.43 -1032.75 692.78 -1055.85 692.78 -1055.85 612.27 -1068.36 612.27 -1068.36 579.11 -1080.87 575.57 -1080.87 527.01 -1089.53 511.62 -1096.27 469 -1102.04 515.17 -1106.84 527.01 -1106.84 576.73 -1113.59 593.32 -1113.59 624.11 -1117.44 617.01 -1128.99 619.37 -1128.99 692.78 -1171.32 692.78 -1182.87 707 -1182.87 719.42 -1192.97 719.42 -1199.22 711.72 -1242.53 734.23 -1242.53 821.45 -1245.41 821.45 -1245.41 855.77 -1268.99 855.77 -1285.35 859.93 -1301.06 859.93 -1301.06 843.35 -1343.39 843.35 -1343.39 482.36 -1368.41 461.04 -1395.85 458.08 -1395.85 438.54 -1430 438.54 -1429.52 422.56 -1435.29 415.46 -1453.57 415.46 -1519.49 422.56 -1527.67 433.21 -1529.59 473.47 -1601.76 483.55 -1613.32 495.38 -1623.89 497.16 -1623.89 642.19 -1634.96 635.1 -1634.96 619.71 -1650.84 616.73 -1670.08 619.71 -1670.08 639.25 -1677.79 647.53 -1677.79 719.76 -1690.29 719.76 -1694.14 739.88 -1694.14 856.5 -1699.92 880.21 -1734.93 880.21 -1734.93 612.01 -1742.15 601.35 -1757.55 601.35 -1757.55 419.85 -1763.33 408.01 -1792.66 402.68 -1862.44 414.52 -1862.44 610.24 -1865.31 615.57 -1865.31 674.77 -1867.24 677.14 -1867.24 733.36 -1873.01 733.36 -1873.01 793.75 -1883.6 793.75 -1883.6 820.41 -1919.01 820.41 -1919.01 579.11 -1957.97 579.11 -1992.13 587.98 -1992.13 836.98 -2016.18 836.98 -2016.18 851.78 -2052.76 851.78 -2052.76 825.14 -2075.85 816.85 -2147.53 816.85 -2147.53 829.88 -2153.31 829.88 -2164.37 816.85 -2195.17 816.85 -2195.17 600.35 -2237.99 586.73 -2283.45 586.73 -2320.43 596.23 -2320.43 1299.2 -914.62 1299.2 -913.62 1299.2 2047.57 1299.2 2048.57 1299.2 2770.81 1299.2 2770.81 689.22 2669.46 689.22" fill="url(#u)"/><rect x="-2319.5" y="1131.44" width="5091.24" height="1419.77"/><polygon points="2667.28 634.5 2667.28 576.87 2660.07 570.26 2660.07 554.67 2642.06 552.3 2627.21 554.67 2616.85 572.62 2616.85 456.91 2606.95 455.48 2596.13 446.03 2528.6 438 2526.8 405.88 2457.45 391.72 2440.34 391.72 2434.94 397.38 2435.39 410.13 2403.43 410.13 2403.43 425.73 2377.75 428.08 2354.34 445.09 2354.34 733.95 2314.72 733.95 2314.72 747.17 2271.95 747.17 2256.64 743.86 2234.57 743.86 2234.57 716.48 2231.88 716.48 2231.88 672.95 2191.35 655 2176.04 651.23 2165.24 639.89 2125.62 639.89 2125.62 581.31 2114.8 579.43 2111.2 575.1 2111.2 560.53 2104.9 547.3 2104.9 507.63 2100.39 498.19 2094.99 461.34 2088.69 495.35 2080.58 507.63 2080.58 546.37 2068.88 549.19 2068.88 575.65 2057.17 575.65 2057.17 639.89 2035.55 639.89 2035.55 726.09 2002.24 732.69 1970.72 765.76 1924.07 765.76 1924.07 784.97 1899.38 784.97 1899.38 683.18 1892.18 683.18 1886.17 674.34 1887.22 559.78 1866.95 545.6 1844 545.6 1844 540.87 1833.19 537.58 1833.19 530.96 1774.66 530.96 1774.66 538.99 1768.35 538.99 1764.53 543.01 1753.94 543.01 1736.83 549.86 1671.1 549.86 1671.1 608.3 1662.95 608.3 1662.95 685.19 1654.43 685.19 1654.43 770.56 1639.13 770.56 1639.13 762.07 1622.92 762.07 1622.92 740.34 1610.76 740.34 1610.76 695.86 1584.64 695.86 1567.98 709.16 1567.98 537.42 1544.58 532.69 1538.71 524.66 1538.71 502.46 1515.76 496.31 1484.69 496.31 1467.58 502.94 1463.52 505.29 1463.52 521.35 1445.51 535.53 1431.55 535.53 1427.5 539.78 1427.5 614.87 1408.14 614.87 1408.14 604.01 1391.48 604.01 1356.82 623.85 1356.82 713.96 1310.98 713.96 1310.98 528.25 1294.77 521.64 1256.49 546.77 1256.49 706.72 1221.37 706.72 1221.37 593.79 1211.47 569.23 1211.47 564.99 1179.51 531.44 1163.74 531.44 1163.74 504.05 1155.63 496.97 1152.03 496.97 1152.03 479.49 1146.63 474.77 1146.63 462.49 1139.42 449.73 1136.73 449.73 1133.58 433.75 1131.32 450.2 1129.07 450.68 1115.11 482.32 1115.11 495.08 1108.36 495.08 1108.36 514.44 1103.4 519.64 1103.4 562.62 1096.2 569.23 1090.58 582.7 1090.58 673.24 1059.82 673.24 1053.52 682.68 1053.52 689.28 1030.15 689.28 1030.15 572.66 1025.65 572.66 1025.65 554.7 1021.61 543.84 1016.2 543.84 1016.2 532.98 998.63 498.97 998.63 473.94 991.43 468.74 991.43 498.02 967.58 534.4 967.58 552.82 961.72 552.82 955.19 559.68 955.19 636.14 946.4 630.95 895.24 630.95 879.48 642.28 879.48 611.59 872.73 604.97 860.12 604.97 860.12 468.82 813.29 459.37 706.13 475.43 706.13 623.3 654.57 623.7 654.57 507.26 625.75 501.6 545.15 507.73 545.15 516.25 528.49 516.25 504.17 523.33 504.17 598.43 487.74 605.74 487.74 630.82 404.3 633.18 404.3 494.87 372.34 487.3 308.24 487.3 258.17 498.17 258.17 646.96 241.5 646.96 224.89 658.57 224.89 679.83 185.67 679.83 185.67 553.08 131.18 536 104.72 536 104.72 714.8 90.31 714.8 90.31 645.35 73.19 643.45 73.19 551.37 70.5 547.12 70.5 371.36 28.98 365.23 -4.79 361.92 -32.25 366.18 -37.66 375.61 -37.66 540.03 -52.07 540.03 -58.83 548.53 -58.83 702.5 -162.23 702.5 -167.64 683.6 -167.64 650.55 -171.24 634.5 -182.94 634.5 -182.94 576.87 -190.15 570.26 -190.15 554.67 -208.16 552.3 -223.02 554.67 -233.38 572.62 -233.38 456.91 -243.28 455.48 -254.1 446.03 -321.63 438 -323.43 405.88 -392.78 391.72 -409.89 391.72 -415.29 397.38 -414.84 410.13 -446.8 410.13 -446.8 425.73 -472.48 428.08 -495.88 445.09 -495.88 748.95 -535.51 748.95 -535.51 762.17 -578.28 762.17 -593.59 758.86 -615.66 758.86 -615.66 731.48 -618.35 731.48 -618.35 687.95 -658.88 670 -674.19 666.23 -684.99 654.89 -724.61 654.89 -724.61 596.31 -735.43 594.43 -739.02 590.1 -739.02 575.53 -745.33 562.3 -745.33 522.63 -749.84 513.19 -755.23 476.34 -761.54 510.35 -769.65 522.63 -769.65 561.37 -781.35 564.19 -781.35 590.65 -793.06 590.65 -793.06 654.89 -814.68 654.89 -814.68 726.09 -847.99 732.69 -879.51 765.76 -926.16 765.76 -926.16 784.97 -950.85 784.97 -950.85 698.18 -958.05 698.18 -964.05 689.34 -963 579.78 -983.28 565.6 -1006.23 565.6 -1006.23 560.87 -1017.03 557.58 -1017.03 550.96 -1075.57 550.96 -1075.57 558.99 -1081.88 558.99 -1085.7 563.01 -1096.29 563.01 -1113.4 569.86 -1179.13 569.86 -1179.13 613.3 -1187.28 613.3 -1187.28 675.19 -1195.8 675.19 -1195.8 760.56 -1211.1 760.56 -1211.1 752.07 -1227.31 752.07 -1227.31 730.34 -1239.46 730.34 -1239.46 685.86 -1265.59 685.86 -1282.25 699.16 -1282.25 592.42 -1305.65 587.69 -1311.51 579.66 -1311.51 557.46 -1334.47 551.31 -1365.54 551.31 -1382.65 557.93 -1386.7 560.29 -1386.7 576.35 -1404.72 590.53 -1418.68 590.53 -1422.72 594.78 -1422.72 684.87 -1442.09 684.87 -1442.09 674.01 -1458.75 674.01 -1493.41 693.85 -1493.41 708.96 -1549.25 708.96 -1549.25 528.25 -1565.46 521.64 -1603.73 546.77 -1603.73 686.72 -1638.86 686.72 -1638.86 578.79 -1648.76 554.23 -1648.76 549.99 -1680.72 516.44 -1696.49 516.44 -1696.49 489.05 -1704.6 481.97 -1708.2 481.97 -1708.2 464.49 -1713.6 459.77 -1713.6 447.49 -1720.81 434.73 -1723.5 434.73 -1726.65 408.75 -1728.91 435.2 -1731.16 435.68 -1745.12 467.32 -1745.12 480.08 -1751.87 480.08 -1751.87 499.44 -1756.83 504.64 -1756.83 547.62 -1764.02 554.23 -1769.65 567.7 -1769.65 683.24 -1800.41 683.24 -1806.71 692.68 -1806.71 699.28 -1835.08 699.28 -1835.08 572.66 -1839.58 572.66 -1839.58 554.7 -1843.62 543.84 -1849.03 543.84 -1849.03 532.98 -1866.59 498.97 -1866.59 473.94 -1873.8 468.74 -1873.8 498.02 -1897.65 534.4 -1897.65 552.82 -1903.51 552.82 -1910.04 559.68 -1910.04 676.14 -1918.83 670.95 -1949.99 670.95 -1965.75 682.28 -1965.75 651.59 -1972.49 644.97 -1985.11 644.97 -1985.11 448.82 -2031.93 439.37 -2139.1 455.43 -2139.1 653.3 -2165.66 663.7 -2165.66 522.26 -2194.48 516.6 -2275.08 522.73 -2275.08 531.25 -2291.74 531.25 -2319.5 538.33 -2319.5 1133.44 -926.16 1133.44 -925.16 1133.44 1924.07 1133.44 1925.07 1133.44 2771.74 1133.44 2771.74 650.55 2667.28 634.5" fill="url(#v)"/></g></svg>