<svg xmlns="http://www.w3.org/2000/svg" xmlns:xlink="http://www.w3.org/1999/xlink" viewBox="0 0 5093.24 4066.8"><defs><linearGradient id="a" x1="53.93" y1="294.53" x2="53.93" y2="98.94" gradientUnits="userSpaceOnUse"><stop offset="0" stop-color="#fff"/><stop offset="1"/></linearGradient><linearGradient id="b" x1="165.78" y1="294.53" x2="165.78" y2="98.95" xlink:href="#a"/><linearGradient id="c" x1="271.82" y1="294.53" x2="271.82" y2="98.95" xlink:href="#a"/><linearGradient id="d" x1="365.01" y1="294.53" x2="365.01" y2="98.95" xlink:href="#a"/><linearGradient id="e" x1="462.75" y1="294.53" x2="462.75" y2="98.95" xlink:href="#a"/><linearGradient id="f" x1="591.18" y1="294.53" x2="591.18" y2="98.94" xlink:href="#a"/><linearGradient id="g" x1="720.34" y1="294.53" x2="720.34" y2="98.95" xlink:href="#a"/><linearGradient id="h" x1="832.19" y1="294.53" x2="832.19" y2="98.95" xlink:href="#a"/><linearGradient id="i" x1="944.04" y1="294.53" x2="944.04" y2="98.95" xlink:href="#a"/><linearGradient id="j" x1="53.93" y1="-26.72" x2="53.93" y2="335.35" gradientUnits="userSpaceOnUse"><stop offset="0" stop-color="#fff"/><stop offset="0.05" stop-color="#fffffc"/><stop offset="0.1" stop-color="#fffef1"/><stop offset="0.14" stop-color="#fffce0"/><stop offset="0.18" stop-color="#fff9c8"/><stop offset="0.22" stop-color="#fef6a8"/><stop offset="0.25" stop-color="#fef181"/><stop offset="0.29" stop-color="#feec53"/><stop offset="0.33" stop-color="#fde720"/><stop offset="0.33" stop-color="#fde619"/><stop offset="1" stop-color="#fcc403"/></linearGradient><linearGradient id="k" x1="165.78" y1="-26.72" x2="165.78" y2="335.35" xlink:href="#j"/><linearGradient id="l" x1="271.82" y1="-26.72" x2="271.82" y2="335.35" xlink:href="#j"/><linearGradient id="m" x1="365.01" y1="-26.72" x2="365.01" y2="335.35" xlink:href="#j"/><linearGradient id="n" x1="462.75" y1="-26.72" x2="462.75" y2="335.35" xlink:href="#j"/><linearGradient id="o" x1="591.18" y1="-26.72" x2="591.18" y2="335.35" xlink:href="#j"/><linearGradient id="p" x1="720.34" y1="-26.72" x2="720.34" y2="335.35" xlink:href="#j"/><linearGradient id="q" x1="832.19" y1="-26.72" x2="832.19" y2="335.35" xlink:href="#j"/><linearGradient id="r" x1="944.04" y1="-26.72" x2="944.04" y2="335.35" xlink:href="#j"/></defs><title>hollywood</title><g style="isolation:isolate"><rect width="5093.24" height="4066.8" fill="none"/><rect x="1586.62" y="1468.4" width="1920" height="1080" fill="none"/><g opacity="0.68" style="mix-blend-mode:multiply"><path d="M100.49,312.64H65.61V248.55H42.24v64H7.37V149.78H42.24v63.9H65.61V149.86h34.88Z" transform="translate(2401.45 1626.29)" fill="url(#a)"/><path d="M212.34,308,189,331.26h-46.5L119.22,308V191.53l23.3-23.31H189l23.31,23.31ZM154.09,203.27v93.11h23.37V203.27Z" transform="translate(2401.45 1626.29)" fill="url(#b)"/><path d="M312.58,200.72H265.94V329.06H231.07V165.85h81.51Z" transform="translate(2401.45 1626.29)" fill="url(#c)"/><path d="M405.76,200.72H359.12V329.06H324.25V165.85h81.51Z" transform="translate(2401.45 1626.29)" fill="url(#d)"/><path d="M480.24,315l-17.49-45.5L445.37,315h-35l35-86.2V152.15h34.87v76.66L515.17,315Z" transform="translate(2401.45 1626.29)" fill="url(#e)"/><path d="M633,310.26l-18.65-90.19-14,90.19H581.74l-14-90.19-18.66,90.19H514.4L544.55,147.4h37.2l9.32,54,9.33-54h37.31L668,310.26Z" transform="translate(2401.45 1626.29)" fill="url(#f)"/><path d="M766.9,308l-23.3,23.31h-46.5L673.78,308V191.53l23.31-23.31h46.5l23.3,23.31ZM708.66,203.27v93.11H732V203.27Z" transform="translate(2401.45 1626.29)" fill="url(#g)"/><path d="M878.75,308l-23.3,23.31H808.94L785.63,308V191.53l23.31-23.31h46.51l23.3,23.31ZM820.5,203.27v93.11h23.37V203.27Z" transform="translate(2401.45 1626.29)" fill="url(#h)"/><path d="M990.59,293.89,967.28,317.2h-69.8V154.53h69.8l23.31,23ZM932.35,189.21v93.12h23.37V189.21Z" transform="translate(2401.45 1626.29)" fill="url(#i)"/></g><path d="M100.49,186.56H65.61V122.74H42.24v63.9H7.37V23.82H42.24v64H65.61V23.78h34.88Z" transform="translate(2401.45 1626.29)" fill="url(#j)"/><path d="M212.34,144.89,189,168.2h-46.5l-23.3-23.31V28.46l23.3-23.31H189l23.31,23.31Zm-34.87-11.74V40H154.09v93.11Z" transform="translate(2401.45 1626.29)" fill="url(#k)"/><path d="M312.58,170.57H231.07V7.35h34.87V135.7h46.64Z" transform="translate(2401.45 1626.29)" fill="url(#l)"/><path d="M405.76,170.57H324.25V7.35h34.87V135.7h46.64Z" transform="translate(2401.45 1626.29)" fill="url(#m)"/><path d="M515.17,21.41l-34.92,86.21v76.66H445.37V107.61l-35-86.21h35L462.75,66.9l17.49-45.49Z" transform="translate(2401.45 1626.29)" fill="url(#n)"/><path d="M668,26.16,637.71,189H600.4l-9.33-54-9.32,54h-37.2L514.4,26.16h34.7l18.66,90.18,14-90.18H600.4l14,90.18L633,26.16Z" transform="translate(2401.45 1626.29)" fill="url(#o)"/><path d="M766.9,144.89,743.6,168.2h-46.5l-23.31-23.31V28.46L697.09,5.15h46.5l23.3,23.31ZM732,133.15V40H708.66v93.11Z" transform="translate(2401.45 1626.29)" fill="url(#p)"/><path d="M878.75,144.89l-23.3,23.31H808.94l-23.31-23.31V28.46L808.94,5.15h46.51l23.3,23.31Zm-34.87-11.74V40H820.5v93.11Z" transform="translate(2401.45 1626.29)" fill="url(#q)"/><path d="M990.59,158.92l-23.31,23h-69.8V19.21h69.8l23.31,23.31ZM955.72,147.2V54.09H932.35V147.2Z" transform="translate(2401.45 1626.29)" fill="url(#r)"/></g></svg>