<svg xmlns="http://www.w3.org/2000/svg" xmlns:xlink="http://www.w3.org/1999/xlink" viewBox="0 0 2078.82 1080"><defs><linearGradient id="a" x1="1046.46" y1="-94.12" x2="1046.46" y2="1221.63" gradientUnits="userSpaceOnUse"><stop offset="0" stop-color="#fff"/><stop offset="0.25" stop-color="#00a3e2"/><stop offset="0.5" stop-color="#2371b9"/><stop offset="0.58" stop-color="#1a558b"/><stop offset="0.68" stop-color="#113759"/><stop offset="0.78" stop-color="#0a1f33"/><stop offset="0.87" stop-color="#040e17"/><stop offset="0.94" stop-color="#010406"/><stop offset="1"/></linearGradient></defs><title>houses-dark</title><rect x="-1500.16" y="-1469.4" width="5093.24" height="4066.8" fill="none"/><rect x="86.46" y="-1" width="1920" height="1080" fill="none"/><polygon points="3487.63 591.29 3487.63 533.66 3480.42 527.05 3480.42 511.46 3462.41 509.09 3447.56 511.46 3437.2 529.41 3437.2 413.7 3427.29 412.27 3416.48 402.82 3348.95 394.79 3347.14 362.67 3277.8 348.51 3260.69 348.51 3255.29 354.17 3255.74 366.93 3223.78 366.93 3223.78 382.52 3198.1 384.88 3174.69 401.88 3174.69 690.74 3135.07 690.74 3135.07 703.96 3092.3 703.96 3076.99 700.65 3054.92 700.65 3054.92 673.27 3052.22 673.27 3052.22 629.74 3011.69 611.79 2996.39 608.02 2985.58 596.68 2945.97 596.68 2945.97 538.1 2935.15 536.22 2931.55 531.89 2931.55 517.32 2925.25 504.09 2925.25 464.42 2920.74 454.98 2915.34 418.13 2909.04 452.14 2900.93 464.42 2900.93 503.15 2889.22 505.98 2889.22 532.44 2877.51 532.44 2877.51 596.68 2855.9 596.68 2855.9 682.88 2822.59 689.48 2791.06 722.55 2744.42 722.55 2744.42 741.76 2719.73 741.76 2719.73 639.97 2712.52 639.97 2706.52 631.13 2707.57 516.57 2687.3 502.39 2664.35 502.39 2664.35 497.66 2653.54 494.37 2653.54 487.75 2595 487.75 2595 495.77 2588.7 495.77 2584.87 499.8 2574.29 499.8 2557.18 506.65 2491.44 506.65 2491.44 565.09 2483.3 565.09 2483.3 641.98 2474.78 641.98 2474.78 727.35 2459.48 727.35 2459.48 718.86 2443.26 718.86 2443.26 697.13 2431.11 697.13 2431.11 652.65 2404.99 652.65 2388.32 665.95 2388.32 494.21 2364.92 489.48 2359.06 481.45 2359.06 459.25 2336.11 453.1 2305.04 453.1 2287.92 459.73 2283.87 462.08 2283.87 478.14 2265.86 492.32 2251.9 492.32 2247.85 496.57 2247.85 571.66 2228.48 571.66 2228.48 560.8 2211.83 560.8 2177.16 580.64 2177.16 670.75 2131.32 670.75 2131.32 485.04 2115.12 478.43 2076.84 503.56 2076.84 663.51 2041.72 663.51 2041.72 550.59 2031.81 526.02 2031.81 521.78 1999.86 488.23 1984.09 488.23 1984.09 460.84 1975.98 453.76 1972.38 453.76 1972.38 436.28 1966.98 431.56 1966.98 419.28 1959.77 406.52 1957.07 406.52 1953.92 390.54 1951.66 406.99 1949.42 407.47 1935.45 439.12 1935.45 451.87 1928.7 451.87 1928.7 471.23 1923.74 476.43 1923.74 519.41 1916.55 526.02 1910.92 539.49 1910.92 630.03 1880.17 630.03 1873.87 639.47 1873.87 646.07 1850.5 646.07 1850.5 529.45 1846 529.45 1846 511.49 1841.95 500.63 1836.55 500.63 1836.55 489.77 1818.98 455.76 1818.98 430.73 1811.78 425.53 1811.78 454.81 1787.92 491.19 1787.92 509.61 1782.06 509.61 1775.53 516.47 1775.53 592.93 1766.75 587.74 1715.58 587.74 1699.82 599.07 1699.82 568.38 1693.08 561.76 1680.47 561.76 1680.47 425.61 1633.64 416.16 1526.48 432.22 1526.48 580.09 1474.91 580.49 1474.91 464.05 1446.09 458.39 1365.5 464.52 1365.5 473.04 1348.84 473.04 1324.52 480.12 1324.52 555.22 1308.09 562.53 1308.09 587.61 1224.65 589.97 1224.65 451.66 1192.68 444.09 1128.59 444.09 1078.52 454.96 1078.52 603.75 1061.85 603.75 1045.23 615.36 1045.23 636.62 1006.01 636.62 1006.01 509.87 951.53 492.79 925.07 492.79 925.07 671.59 910.66 671.59 910.66 602.14 893.54 600.24 893.54 508.15 890.85 503.91 890.85 328.15 849.32 322.02 815.56 318.71 788.1 322.97 782.68 332.4 782.68 496.82 768.28 496.82 761.51 505.32 761.51 659.29 658.12 659.29 652.71 640.38 652.71 607.34 649.11 591.29 637.4 591.29 637.4 533.66 630.19 527.05 630.19 511.46 612.18 509.09 597.33 511.46 586.97 529.41 586.97 413.7 577.06 412.27 566.25 402.82 498.72 394.79 496.92 362.67 427.57 348.51 410.46 348.51 405.06 354.17 405.51 366.93 373.55 366.93 373.55 382.52 347.87 384.88 324.46 401.88 324.46 705.74 284.84 705.74 284.84 718.96 242.07 718.96 226.76 715.65 204.69 715.65 204.69 688.27 202 688.27 202 644.74 161.47 626.79 146.16 623.02 135.35 611.68 95.74 611.68 95.74 553.1 84.92 551.22 81.32 546.89 81.32 532.32 75.02 519.09 75.02 479.42 70.51 469.98 65.11 433.13 58.81 467.14 50.7 479.42 50.7 518.15 39 520.98 39 547.44 27.28 547.44 27.28 611.68 5.67 611.68 5.67 682.88 -27.64 689.48 -59.17 722.55 -105.81 722.55 -105.81 741.76 -130.5 741.76 -130.5 654.97 -137.71 654.97 -143.71 646.13 -142.66 536.57 -162.93 522.39 -185.88 522.39 -185.88 517.66 -196.69 514.37 -196.69 507.75 -255.22 507.75 -255.22 515.77 -261.53 515.77 -265.36 519.8 -275.94 519.8 -293.05 526.65 -358.79 526.65 -358.79 570.09 -366.93 570.09 -366.93 631.98 -375.45 631.98 -375.45 717.35 -390.75 717.35 -390.75 708.86 -406.96 708.86 -406.96 687.13 -419.12 687.13 -419.12 642.65 -445.24 642.65 -461.9 655.95 -461.9 549.21 -485.31 544.48 -491.17 536.45 -491.17 514.25 -514.12 508.1 -545.19 508.1 -562.31 514.73 -566.36 517.08 -566.36 533.14 -584.37 547.32 -598.33 547.32 -602.38 551.57 -602.38 641.66 -621.75 641.66 -621.75 630.8 -638.4 630.8 -673.07 650.64 -673.07 665.75 -728.9 665.75 -728.9 485.04 -745.11 478.43 -783.39 503.56 -783.39 643.51 -818.51 643.51 -818.51 535.59 -828.42 511.02 -828.42 506.78 -860.37 473.23 -876.14 473.23 -876.14 445.84 -884.25 438.76 -887.85 438.76 -887.85 421.28 -893.25 416.56 -893.25 404.28 -900.46 391.52 -903.16 391.52 -906.3 365.54 -908.56 391.99 -910.81 392.47 -924.77 424.12 -924.77 436.87 -931.52 436.87 -931.52 456.23 -936.48 461.43 -936.48 504.41 -943.68 511.02 -949.31 524.49 -949.31 640.03 -980.06 640.03 -986.36 649.47 -986.36 656.07 -1014.73 656.07 -1014.73 529.45 -1019.23 529.45 -1019.23 511.49 -1023.28 500.63 -1028.68 500.63 -1028.68 489.77 -1046.25 455.76 -1046.25 430.73 -1053.45 425.53 -1053.45 454.81 -1077.31 491.19 -1077.31 509.61 -1083.16 509.61 -1089.7 516.47 -1089.7 632.93 -1098.48 627.74 -1129.64 627.74 -1145.41 639.07 -1145.41 608.38 -1152.15 601.76 -1164.76 601.76 -1164.76 405.61 -1211.59 396.16 -1318.75 412.22 -1318.75 610.09 -1345.32 620.49 -1345.32 479.05 -1374.13 473.39 -1454.73 479.52 -1454.73 488.04 -1471.39 488.04 -1499.16 495.12 -1499.16 1090.23 -105.81 1090.23 -104.81 1090.23 2744.42 1090.23 2745.42 1090.23 3592.08 1090.23 3592.08 607.34 3487.63 591.29" fill="url(#a)"/></svg>