<svg preserveAspectRatio="none" xmlns="http://www.w3.org/2000/svg" xmlns:xlink="http://www.w3.org/1999/xlink" viewBox="0 0 1999.56 1170.32"><defs><linearGradient id="a" x1="915.21" y1="831.76" x2="915.21" y2="-645.66" gradientTransform="matrix(-1, 0, 0, 1, 1955.27, 0)" gradientUnits="userSpaceOnUse"><stop offset="0" stop-color="#fff"/><stop offset="0.25" stop-color="#00a3e2"/><stop offset="0.5" stop-color="#2371b9"/><stop offset="0.58" stop-color="#1a558b"/><stop offset="0.68" stop-color="#113759"/><stop offset="0.78" stop-color="#0a1f33"/><stop offset="0.87" stop-color="#040e17"/><stop offset="0.94" stop-color="#010406"/><stop offset="1"/></linearGradient><linearGradient id="b" x1="1039.56" y1="996.52" x2="1039.56" y2="-121.81" gradientTransform="matrix(1, 0, 0, 1, 0, 0)" xlink:href="#a"/><linearGradient id="c" x1="948.32" y1="541.75" x2="948.32" y2="346.15" gradientUnits="userSpaceOnUse"><stop offset="0" stop-color="#fff"/><stop offset="1"/></linearGradient><linearGradient id="d" x1="1060.17" y1="541.75" x2="1060.17" y2="346.16" xlink:href="#c"/><linearGradient id="e" x1="1166.21" y1="541.75" x2="1166.21" y2="346.16" xlink:href="#c"/><linearGradient id="f" x1="1259.4" y1="541.75" x2="1259.4" y2="346.16" xlink:href="#c"/><linearGradient id="g" x1="1357.14" y1="541.74" x2="1357.14" y2="346.16" xlink:href="#c"/><linearGradient id="h" x1="1485.57" y1="541.74" x2="1485.57" y2="346.15" xlink:href="#c"/><linearGradient id="i" x1="1614.73" y1="541.75" x2="1614.73" y2="346.16" xlink:href="#c"/><linearGradient id="j" x1="1726.58" y1="541.75" x2="1726.58" y2="346.16" xlink:href="#c"/><linearGradient id="k" x1="1838.43" y1="541.74" x2="1838.43" y2="346.16" xlink:href="#c"/><linearGradient id="l" x1="948.32" y1="220.49" x2="948.32" y2="582.56" gradientUnits="userSpaceOnUse"><stop offset="0" stop-color="#fff"/><stop offset="0.05" stop-color="#fffffc"/><stop offset="0.1" stop-color="#fffef1"/><stop offset="0.14" stop-color="#fffce0"/><stop offset="0.18" stop-color="#fff9c8"/><stop offset="0.22" stop-color="#fef6a8"/><stop offset="0.25" stop-color="#fef181"/><stop offset="0.29" stop-color="#feec53"/><stop offset="0.33" stop-color="#fde720"/><stop offset="0.33" stop-color="#fde619"/><stop offset="1" stop-color="#fcc403"/></linearGradient><linearGradient id="m" x1="1060.17" y1="220.49" x2="1060.17" y2="582.56" xlink:href="#l"/><linearGradient id="n" x1="1166.21" y1="220.49" x2="1166.21" y2="582.56" xlink:href="#l"/><linearGradient id="o" x1="1259.4" y1="220.49" x2="1259.4" y2="582.56" xlink:href="#l"/><linearGradient id="p" x1="1357.14" y1="220.49" x2="1357.14" y2="582.56" xlink:href="#l"/><linearGradient id="q" x1="1485.57" y1="220.49" x2="1485.57" y2="582.56" xlink:href="#l"/><linearGradient id="r" x1="1614.73" y1="220.49" x2="1614.73" y2="582.56" xlink:href="#l"/><linearGradient id="s" x1="1726.58" y1="220.49" x2="1726.58" y2="582.56" xlink:href="#l"/><linearGradient id="t" x1="1838.43" y1="220.49" x2="1838.43" y2="582.56" xlink:href="#l"/></defs><title>top-01</title><g style="isolation:isolate"><rect x="-1507.06" y="-1379.07" width="5093.24" height="4066.8" fill="none"/><rect x="79.56" y="89.32" width="1920" height="1080" fill="none"/><rect x="-1506.06" y="-701.36" width="5092.24" height="1572.48" fill="url(#a)"/><polygon points="28.97 325.58 29.49 324 27.46 325.46 26.44 324.73 25.42 324 26.2 326.37 25.18 327.11 24.17 327.85 26.67 327.85 27.46 330.23 28.23 327.85 30.75 327.85 28.71 326.37 28.97 325.58" fill="#fff"/><polygon points="1216.77 224.13 1217.55 221.75 1217.55 221.75 1217.55 221.75 1215.52 223.22 1213.48 221.75 1213.48 221.75 1213.48 221.75 1214.25 224.13 1213.24 224.87 1212.22 225.6 1212.22 225.6 1214.73 225.6 1215.52 227.98 1216.29 225.6 1218.8 225.6 1218.8 225.6 1217.79 224.87 1216.77 224.13" fill="#fff"/><polygon points="1945.94 263.33 1946.72 260.95 1946.72 260.95 1946.72 260.95 1945.7 261.69 1944.68 262.42 1942.65 260.95 1943.43 263.33 1942.17 264.25 1941.4 264.81 1941.4 264.81 1943.91 264.81 1944.68 267.19 1944.68 267.19 1944.68 267.19 1945.46 264.81 1947.97 264.81 1947.97 264.81 1947.47 264.44 1945.94 263.33" fill="#fff"/><polygon points="1771.6 181.18 1771.85 180.41 1771.85 180.41 1771.85 180.41 1769.83 181.87 1769.15 181.38 1767.79 180.41 1768.56 182.78 1766.53 184.26 1766.53 184.26 1769.04 184.26 1769.83 186.64 1769.83 186.64 1769.83 186.64 1770.6 184.26 1773.11 184.26 1771.08 182.78 1771.6 181.18" fill="#fff"/><polygon points="884.76 111.63 883.14 112.81 881.51 111.63 882.14 113.54 880.51 114.71 882.52 114.71 883.14 116.62 883.76 114.71 885.77 114.71 884.14 113.54 884.76 111.63" fill="#fff"/><polygon points="1466.44 155.47 1464.82 156.65 1464.08 157.19 1463.2 157.83 1459.94 155.47 1459.94 155.47 1459.94 155.47 1461.18 159.28 1457.93 161.64 1457.93 161.64 1461.95 161.64 1462.78 164.18 1462.84 164.36 1463.2 165.45 1463.2 165.45 1463.2 165.45 1463.82 163.55 1464.44 161.64 1468.46 161.64 1468.46 161.64 1465.2 159.28 1466.44 155.47" fill="#fff"/><polygon points="1592.06 61.99 1590.04 63.45 1589.02 62.72 1588.64 62.45 1588 61.99 1588 61.99 1588 61.99 1588.27 62.8 1588.78 64.36 1588.22 64.76 1587.76 65.1 1586.74 65.84 1589.25 65.84 1590.04 68.22 1590.04 68.22 1590.04 68.22 1590.81 65.84 1593.32 65.84 1593.32 65.84 1591.28 64.36 1592.06 61.99" fill="#fff"/><polygon points="798.71 151.07 797.19 152.17 795.66 151.07 796.24 152.85 794.72 153.96 796.6 153.96 797.19 155.74 797.77 153.96 799.65 153.96 798.13 152.85 798.71 151.07" fill="#fff"/><polygon points="1909.19 123.31 1910.44 119.5 1910.44 119.5 1910.44 119.5 1907.19 121.86 1903.93 119.5 1903.93 119.5 1903.93 119.5 1905.17 123.31 1901.92 125.67 1905.94 125.67 1906.57 127.57 1907.19 129.47 1907.19 129.47 1907.19 129.47 1908.43 125.67 1912.45 125.67 1912.45 125.67 1910.28 124.1 1909.19 123.31" fill="#fff"/><polygon points="317.01 138.24 315.02 139.67 313.03 138.24 313.79 140.56 311.81 142 314.26 142 315.02 144.32 315.78 142 318.24 142 316.25 140.56 317.01 138.24" fill="#fff"/><polygon points="919.79 -3.12 919.01 -0.74 916.5 -0.74 918.54 0.74 917.76 3.12 919.79 1.65 921.82 3.12 921.31 1.53 921.05 0.74 922.06 0 923.08 -0.74 920.57 -0.74 919.79 -3.12" fill="#fff"/><polygon points="604.38 50.16 603.13 46.35 601.89 50.16 597.87 50.16 598.96 50.95 601.13 52.51 600.51 54.42 599.89 56.33 603.13 53.97 606.39 56.33 605.15 52.51 608.4 50.16 604.38 50.16" fill="#fff"/><polygon points="267.34 279.45 265.72 280.62 264.08 279.45 264.71 281.36 263.09 282.53 265.09 282.53 265.72 284.44 266.34 282.53 268.35 282.53 266.72 281.36 267.34 279.45" fill="#fff"/><polygon points="142.94 5.8 142.19 3.48 141.42 5.8 138.97 5.8 140.96 7.25 140.2 9.57 142.19 8.13 144.17 9.57 143.42 7.25 145.4 5.8 142.94 5.8" fill="#fff"/><polygon points="1060.18 200.06 1060.18 200.06 1060.18 200.06 1056.93 202.41 1053.67 200.06 1053.67 200.06 1053.67 200.06 1054.91 203.87 1051.66 206.22 1051.66 206.22 1055.69 206.22 1055.85 206.72 1056.93 210.03 1056.93 210.03 1056.93 210.03 1058.16 206.22 1062.19 206.22 1062.19 206.22 1058.93 203.87 1060.18 200.06" fill="#fff"/><polygon points="1317.5 117.18 1317.5 117.18 1317.5 117.18 1315.47 118.64 1313.43 117.18 1313.43 117.18 1313.43 117.18 1314.21 119.56 1312.18 121.03 1312.18 121.03 1314.69 121.03 1315.47 123.41 1316.25 121.03 1318.76 121.03 1318.76 121.03 1316.72 119.56 1317.5 117.18" fill="#fff"/><polygon points="501.69 218.18 500.16 219.28 498.64 218.18 499.22 219.96 497.69 221.06 499.58 221.06 500.16 222.85 500.75 221.06 502.63 221.06 501.1 219.96 501.69 218.18" fill="#fff"/><polygon points="211.79 209.4 209.8 210.84 207.81 209.4 208.58 211.72 206.59 213.17 209.04 213.17 209.8 215.49 210.56 213.17 213.02 213.17 211.03 211.72 211.79 209.4" fill="#fff"/><polygon points="600.17 300.43 599.39 302.81 596.89 302.81 598.92 304.29 598.15 306.67 600.17 305.2 602.21 306.67 601.69 305.08 601.43 304.29 602.45 303.55 603.46 302.81 600.95 302.81 600.17 300.43" fill="#fff"/><path d="M2630.35,266.83c-76,21.73-463.25,168.1-807.17,20.07-327.16-140.81-529.93-112.9-737-20.07C922.9,340,745.77,417.37,447.46,332.06,327.72,297.82,177.92,341.13,50,398.67,9.23,417.75-31.15,439.84-71.64,464.39-295.19,599.88-537.72,743-946.13,585.13c-166.59-64.41-383,19.41-559.93,128.47v494.23H3585.18V416.12C3032.28,146.79,2799.55,218.45,2630.35,266.83Z" fill="url(#b)"/><g opacity="0.68" style="mix-blend-mode:multiply"><path d="M994.88,559.85H960V495.76H936.63v64H901.76V397h34.87v63.9H960V397.08h34.88Z" fill="url(#c)"/><path d="M1106.73,555.16l-23.31,23.31h-46.5l-23.31-23.31V438.74l23.31-23.31h46.5l23.31,23.31Zm-58.25-104.67V543.6h23.37V450.49Z" fill="url(#d)"/><path d="M1207,447.93h-46.64V576.28h-34.87V413.06H1207Z" fill="url(#e)"/><path d="M1300.15,447.93h-46.64V576.28h-34.87V413.06h81.51Z" fill="url(#f)"/><path d="M1374.63,562.22l-17.49-45.49-17.37,45.49h-35l35-86.2V399.36h34.86V476l34.93,86.2Z" fill="url(#g)"/><path d="M1527.43,557.47l-18.65-90.18-14,90.18h-18.66l-14-90.18-18.66,90.18h-34.69l30.15-162.86h37.19l9.33,54,9.33-54h37.31l30.26,162.86Z" fill="url(#h)"/><path d="M1661.29,555.16,1638,578.47h-46.51l-23.3-23.31V438.74l23.3-23.31H1638l23.3,23.31Zm-58.24-104.67V543.6h23.37V450.49Z" fill="url(#i)"/><path d="M1773.14,555.16l-23.31,23.31h-46.5L1680,555.16V438.74l23.31-23.31h46.5l23.31,23.31Zm-58.25-104.67V543.6h23.37V450.49Z" fill="url(#j)"/><path d="M1885,541.1l-23.3,23.31h-69.8V401.74h69.8l23.3,23Zm-58.24-104.67v93.11h23.37V436.43Z" fill="url(#k)"/></g><path d="M994.88,433.77H960V370H936.63v63.9H901.76V271h34.87v64.05H960V271h34.88Z" fill="url(#l)"/><path d="M1106.73,392.1l-23.31,23.31h-46.5l-23.31-23.31V275.68l23.31-23.31h46.5l23.31,23.31Zm-34.88-11.74V287.24h-23.37v93.12Z" fill="url(#m)"/><path d="M1207,417.78h-81.51V254.56h34.87V382.91H1207Z" fill="url(#n)"/><path d="M1300.15,417.78h-81.51V254.56h34.87V382.91h46.64Z" fill="url(#o)"/><path d="M1409.56,268.62l-34.93,86.21v76.65h-34.86V354.83l-35-86.21h35l17.37,45.49,17.49-45.49Z" fill="url(#p)"/><path d="M1562.36,273.37,1532.1,436.22h-37.31l-9.33-54-9.33,54h-37.19l-30.15-162.85h34.69l18.66,90.18,14-90.18h18.66l14,90.18,18.65-90.18Z" fill="url(#q)"/><path d="M1661.29,392.1,1638,415.41h-46.51l-23.3-23.31V275.68l23.3-23.31H1638l23.3,23.31Zm-34.87-11.74V287.24h-23.37v93.12Z" fill="url(#r)"/><path d="M1773.14,392.1l-23.31,23.31h-46.5L1680,392.1V275.68l23.31-23.31h46.5l23.31,23.31Zm-34.88-11.74V287.24h-23.37v93.12Z" fill="url(#s)"/><path d="M1885,406.14l-23.3,23h-69.8V266.43h69.8l23.3,23.31Zm-34.87-11.73V301.3h-23.37v93.11Z" fill="url(#t)"/></g></svg>