<svg xmlns="http://www.w3.org/2000/svg" xmlns:xlink="http://www.w3.org/1999/xlink" viewBox="0 0 1202.37 1108.07"><defs><linearGradient id="a" x1="118.02" y1="769.5" x2="118.02" y2="-707.91" gradientTransform="matrix(-1, 0, 0, 1, 360.89, 0)" gradientUnits="userSpaceOnUse"><stop offset="0" stop-color="#fff"/><stop offset="0.25" stop-color="#00a3e2"/><stop offset="0.5" stop-color="#2371b9"/><stop offset="0.58" stop-color="#1a558b"/><stop offset="0.68" stop-color="#113759"/><stop offset="0.78" stop-color="#0a1f33"/><stop offset="0.87" stop-color="#040e17"/><stop offset="0.94" stop-color="#010406"/><stop offset="1"/></linearGradient><linearGradient id="b" x1="242.37" y1="934.26" x2="242.37" y2="-184.07" gradientTransform="matrix(1, 0, 0, 1, 0, 0)" xlink:href="#a"/><clipPath id="c"><path d="M2788,353.86C2235.1,84.54,2002.36,156.19,1833.17,204.57c-76,21.73-463.26,168.1-807.18,20.07C698.83,83.83,496.06,111.74,289,204.57,125.72,277.77-51.42,355.11-349.72,269.8c-215-61.48-526.91,127.08-635.11,199.07v676.71H2788Z" fill="none"/></clipPath><radialGradient id="d" cx="-1595.79" cy="565.68" r="467.8" gradientTransform="matrix(0, -0.46, 1.73, -0.01, -339.9, -492.11)" gradientUnits="userSpaceOnUse"><stop offset="0.11" stop-color="#0073e2"/><stop offset="0.15" stop-color="#0068cd"/><stop offset="0.28" stop-color="#004990"/><stop offset="0.41" stop-color="#002f5c"/><stop offset="0.52" stop-color="#001b34"/><stop offset="0.63" stop-color="#000c18"/><stop offset="0.72" stop-color="#000306"/><stop offset="0.79"/></radialGradient><linearGradient id="e" x1="151.13" y1="479.49" x2="151.13" y2="283.9" gradientUnits="userSpaceOnUse"><stop offset="0" stop-color="#fff"/><stop offset="1"/></linearGradient><linearGradient id="f" x1="262.98" y1="479.49" x2="262.98" y2="283.9" xlink:href="#e"/><linearGradient id="g" x1="369.03" y1="479.49" x2="369.03" y2="283.91" xlink:href="#e"/><linearGradient id="h" x1="462.21" y1="479.49" x2="462.21" y2="283.91" xlink:href="#e"/><linearGradient id="i" x1="559.95" y1="479.49" x2="559.95" y2="283.9" xlink:href="#e"/><linearGradient id="j" x1="688.39" y1="479.49" x2="688.39" y2="283.9" xlink:href="#e"/><linearGradient id="k" x1="817.55" y1="479.49" x2="817.55" y2="283.9" xlink:href="#e"/><linearGradient id="l" x1="929.39" y1="479.49" x2="929.39" y2="283.9" xlink:href="#e"/><linearGradient id="m" x1="1041.24" y1="479.49" x2="1041.24" y2="283.9" xlink:href="#e"/><linearGradient id="n" x1="151.13" y1="158.24" x2="151.13" y2="520.3" gradientUnits="userSpaceOnUse"><stop offset="0" stop-color="#fff"/><stop offset="0.05" stop-color="#fffffc"/><stop offset="0.1" stop-color="#fffef1"/><stop offset="0.14" stop-color="#fffce0"/><stop offset="0.18" stop-color="#fff9c8"/><stop offset="0.22" stop-color="#fef6a8"/><stop offset="0.25" stop-color="#fef181"/><stop offset="0.29" stop-color="#feec53"/><stop offset="0.33" stop-color="#fde720"/><stop offset="0.33" stop-color="#fde619"/><stop offset="1" stop-color="#fcc403"/></linearGradient><linearGradient id="o" x1="262.98" y1="158.24" x2="262.98" y2="520.3" xlink:href="#n"/><linearGradient id="p" x1="369.03" y1="158.24" x2="369.03" y2="520.3" xlink:href="#n"/><linearGradient id="q" x1="462.21" y1="158.24" x2="462.21" y2="520.3" xlink:href="#n"/><linearGradient id="r" x1="559.95" y1="158.24" x2="559.95" y2="520.3" xlink:href="#n"/><linearGradient id="s" x1="688.39" y1="158.24" x2="688.39" y2="520.3" xlink:href="#n"/><linearGradient id="t" x1="817.55" y1="158.24" x2="817.55" y2="520.3" xlink:href="#n"/><linearGradient id="u" x1="929.39" y1="158.24" x2="929.39" y2="520.3" xlink:href="#n"/><linearGradient id="v" x1="1041.24" y1="158.24" x2="1041.24" y2="520.3" xlink:href="#n"/></defs><title>top-mobile</title><g style="isolation:isolate"><rect x="-2304.25" y="-1441.33" width="5093.24" height="4066.8" fill="none"/><rect x="-717.63" y="27.07" width="1920" height="1080" fill="none"/><rect x="-2303.25" y="-763.62" width="5092.24" height="1572.48" fill="url(#a)"/><polygon points="419.58 161.88 420.36 159.5 420.36 159.5 420.36 159.5 418.33 160.96 416.29 159.5 416.29 159.5 416.29 159.5 417.06 161.88 416.05 162.61 415.04 163.34 415.04 163.34 417.55 163.34 418.33 165.73 419.1 163.34 421.61 163.34 421.61 163.34 420.6 162.61 419.58 161.88" fill="#fff"/><polygon points="1148.76 201.07 1149.53 198.69 1149.53 198.69 1149.53 198.69 1148.51 199.43 1147.5 200.17 1145.46 198.69 1146.25 201.07 1144.98 201.99 1144.21 202.55 1144.21 202.55 1146.72 202.55 1147.5 204.93 1147.5 204.93 1147.5 204.93 1148.27 202.55 1150.79 202.55 1150.79 202.55 1150.28 202.18 1148.76 201.07" fill="#fff"/><polygon points="974.41 118.92 974.66 118.15 974.66 118.15 974.66 118.15 972.64 119.62 971.96 119.13 970.6 118.15 971.37 120.53 969.34 122 969.34 122 971.85 122 972.64 124.38 972.64 124.38 972.64 124.38 973.41 122 975.92 122 973.89 120.53 974.41 118.92" fill="#fff"/><polygon points="87.58 49.38 85.95 50.55 84.32 49.38 84.95 51.28 83.33 52.45 85.33 52.45 85.95 54.36 86.57 52.45 88.58 52.45 86.95 51.28 87.58 49.38" fill="#fff"/><polygon points="669.26 93.22 667.63 94.4 666.89 94.94 666.01 95.57 662.75 93.22 662.75 93.22 662.75 93.22 664 97.03 660.75 99.39 660.75 99.39 664.77 99.39 665.6 101.92 665.65 102.11 666.01 103.19 666.01 103.19 666.01 103.19 666.63 101.29 667.25 99.39 671.27 99.39 671.27 99.39 668.01 97.03 669.26 93.22" fill="#fff"/><polygon points="794.87 -0.27 792.85 1.2 791.83 0.46 791.45 0.19 790.81 -0.27 790.81 -0.27 790.81 -0.27 791.08 0.54 791.59 2.1 791.04 2.5 790.57 2.84 789.56 3.58 792.07 3.58 792.85 5.96 792.85 5.96 792.85 5.96 793.62 3.58 796.13 3.58 796.13 3.58 794.1 2.1 794.87 -0.27" fill="#fff"/><polygon points="1.52 88.81 0 89.91 -1.52 88.81 -0.94 90.59 -2.46 91.7 -0.58 91.7 0 93.48 0.58 91.7 2.46 91.7 0.94 90.59 1.52 88.81" fill="#fff"/><polygon points="1112.01 61.06 1113.25 57.24 1113.25 57.24 1113.25 57.24 1110 59.6 1106.75 57.24 1106.75 57.24 1106.75 57.24 1107.98 61.06 1104.74 63.41 1108.76 63.41 1109.38 65.31 1110 67.22 1110 67.22 1110 67.22 1111.24 63.41 1115.27 63.41 1115.27 63.41 1113.09 61.84 1112.01 61.06" fill="#fff"/><polygon points="262.99 137.8 262.99 137.8 262.99 137.8 259.74 140.15 256.49 137.8 256.49 137.8 256.48 137.8 257.73 141.61 254.47 143.96 254.47 143.96 258.5 143.96 258.66 144.46 259.74 147.78 259.74 147.78 259.74 147.78 260.98 143.96 265 143.96 265 143.96 261.75 141.61 262.99 137.8" fill="#fff"/><polygon points="520.31 54.92 520.31 54.92 520.31 54.92 518.28 56.39 516.25 54.92 516.25 54.92 516.25 54.92 517.02 57.3 514.99 58.77 514.99 58.77 517.5 58.77 518.28 61.15 519.06 58.77 521.57 58.77 521.57 58.77 519.53 57.3 520.31 54.92" fill="#fff"/><path d="M1833.17,204.57c-76,21.73-463.26,168.1-807.18,20.07C698.83,83.83,496.06,111.74,289,204.57,125.72,277.77-51.42,355.11-349.72,269.8c-119.75-34.24-269.55,9.07-397.47,66.61-40.77,19.08-81.14,41.18-121.64,65.72-223.55,135.5-466.07,278.64-874.49,120.74-166.59-64.41-383,19.42-559.93,128.47v494.24H2788V353.86C2235.1,84.54,2002.36,156.19,1833.17,204.57Z" fill="url(#b)"/><g clip-path="url(#c)"><path d="M641.91,456.79c-446.4,2-808.72-93.1-809.27-212.46S193.54,26.54,639.94,24.51,1448.68,117.6,1449.23,237,1088.32,454.76,641.91,456.79Z" fill-rule="evenodd" opacity="0.65" fill="url(#d)" style="mix-blend-mode:screen"/></g><g opacity="0.68" style="mix-blend-mode:multiply"><path d="M197.69,497.59H162.82V433.5H139.45v64.05H104.58V334.74h34.87v63.89h23.37V334.82h34.87Z" fill="url(#e)"/><path d="M309.54,492.91l-23.31,23.31h-46.5l-23.31-23.31V376.48l23.31-23.3h46.5l23.31,23.3ZM251.3,388.23v93.11h23.37V388.23Z" fill="url(#f)"/><path d="M409.78,385.68H363.14V514H328.27V350.8h81.51Z" fill="url(#g)"/><path d="M503,385.68H456.33V514H421.46V350.8H503Z" fill="url(#h)"/><path d="M577.45,500,560,454.47,542.58,500h-35l35-86.21V337.11h34.87v76.65L612.37,500Z" fill="url(#i)"/><path d="M730.25,495.22,711.59,405l-14,90.19H679L665,405,646.3,495.22H611.6l30.15-162.86H679l9.32,54,9.33-54h37.31l30.26,162.86Z" fill="url(#j)"/><path d="M864.1,492.91l-23.3,23.31H794.3L771,492.91V376.48l23.31-23.3h46.5l23.3,23.3ZM805.86,388.23v93.11h23.37V388.23Z" fill="url(#k)"/><path d="M976,492.91l-23.3,23.31H906.14l-23.31-23.31V376.48l23.31-23.3h46.51l23.3,23.3ZM917.71,388.23v93.11h23.37V388.23Z" fill="url(#l)"/><path d="M1087.8,478.85l-23.31,23.31h-69.8V339.48h69.8l23.31,23Zm-58.25-104.68v93.11h23.37V374.17Z" fill="url(#m)"/></g><path d="M197.69,371.51H162.82V307.69H139.45v63.9H104.58V208.77h34.87v64h23.37V208.74h34.87Z" fill="url(#n)"/><path d="M309.54,329.85l-23.31,23.31h-46.5l-23.31-23.31V213.42l23.31-23.31h46.5l23.31,23.31ZM274.67,318.1V225H251.3V318.1Z" fill="url(#o)"/><path d="M409.78,355.53H328.27V192.31h34.87V320.65h46.64Z" fill="url(#p)"/><path d="M503,355.53H421.46V192.31h34.87V320.65H503Z" fill="url(#q)"/><path d="M612.37,206.36l-34.92,86.21v76.65H542.58V292.57l-35-86.21h35L560,251.86l17.5-45.5Z" fill="url(#r)"/><path d="M765.17,211.11,734.91,374H697.6l-9.33-54L679,374h-37.2L611.6,211.11h34.7L665,301.3l14-90.19H697.6l14,90.19,18.66-90.19Z" fill="url(#s)"/><path d="M864.1,329.85l-23.3,23.31H794.3L771,329.85V213.42l23.31-23.31h46.5l23.3,23.31ZM829.23,318.1V225H805.86V318.1Z" fill="url(#t)"/><path d="M976,329.85l-23.3,23.31H906.14l-23.31-23.31V213.42l23.31-23.31h46.51L976,213.42ZM941.08,318.1V225H917.71V318.1Z" fill="url(#u)"/><path d="M1087.8,343.88l-23.31,23h-69.8V204.17h69.8l23.31,23.31Zm-34.88-11.72V239h-23.37v93.12Z" fill="url(#v)"/></g></svg>