<?xml version="1.0" encoding="utf-8"?>
<!-- Generator: Adobe Illustrator 22.0.1, SVG Export Plug-In . SVG Version: 6.00 Build 0)  -->
<svg version="1.1" id="Layer_1" xmlns="http://www.w3.org/2000/svg" xmlns:xlink="http://www.w3.org/1999/xlink" x="0px" y="0px"
	 viewBox="0 0 1916 182" style="enable-background:new 0 0 1916 182;" xml:space="preserve">
<style type="text/css">
	.st0{fill:#009FE5;}
</style>
<title>Asset 1</title>
<g id="Layer_2_1_">
	<g id="Layer_1-2">
		<g id="reel_copy_8">
			<path class="st0" d="M-58.7,0.2v182h2106V0.2H-58.7z M-25.8,169.7c0,2.5-2.2,4.4-4.9,4.4H-45c-2.7,0-4.9-2-4.9-4.4v-9.1
				c0-2.5,2.2-4.4,4.9-4.4h14.4c2.7,0,4.9,2,4.9,4.4V169.7z M-25.8,21.7c0,2.5-2.2,4.4-4.9,4.4H-45c-2.7,0-4.9-2-4.9-4.5v-9.1
				c0-2.5,2.2-4.4,4.9-4.4h14.4c2.7,0,4.9,2,4.9,4.4V21.7z M11.9,169.7c0,2.5-2.2,4.4-4.9,4.4H-7.4c-2.7,0-4.9-2-4.9-4.4v-9.1
				c0-2.5,2.2-4.4,4.9-4.4H7c2.7,0,4.9,2,4.9,4.4L11.9,169.7z M11.9,21.7c0,2.5-2.2,4.4-4.9,4.4H-7.4c-2.7,0-4.9-2-4.9-4.5v-9.1
				c0-2.5,2.2-4.4,4.9-4.4H7c2.7,0,4.9,2,4.9,4.4L11.9,21.7z M49.5,169.7c0,2.4-2.2,4.4-4.9,4.4H30.2c-2.7,0-4.9-2-4.9-4.4v-9.1
				c0-2.5,2.2-4.4,4.9-4.4h14.4c2.7,0,4.9,2,4.9,4.4L49.5,169.7z M49.5,21.7c0,2.4-2.2,4.4-4.9,4.4H30.2c-2.7,0-4.9-2-4.9-4.5v-9.1
				c0-2.5,2.2-4.4,4.9-4.4h14.4c2.7,0,4.9,2,4.9,4.4L49.5,21.7z M87.1,169.7c0,2.5-2.2,4.4-4.9,4.4H67.8c-2.7,0-4.9-2-4.9-4.4v-9.1
				c0-2.5,2.2-4.4,4.9-4.4h14.4c2.7,0,4.9,2,4.9,4.4V169.7z M87.1,21.7c0,2.5-2.2,4.4-4.9,4.4H67.8c-2.7,0-4.9-2-4.9-4.5v-9.1
				c0-2.5,2.2-4.4,4.9-4.4h14.4c2.7,0,4.9,2,4.9,4.4V21.7z M124.7,169.7c0,2.5-2.2,4.4-4.9,4.4h-14.4c-2.7,0-4.9-2-4.9-4.4v-9.1
				c0-2.5,2.2-4.4,4.9-4.4h14.4c2.7,0,4.9,2,4.9,4.4V169.7z M124.7,21.7c0,2.5-2.2,4.4-4.9,4.4h-14.4c-2.7,0-4.9-2-4.9-4.5v-9.1
				c0-2.5,2.2-4.4,4.9-4.4h14.4c2.7,0,4.9,2,4.9,4.4L124.7,21.7z M162.3,169.7c0,2.5-2.2,4.4-4.9,4.4H143c-2.7,0-4.9-2-4.9-4.4v-9.1
				c0-2.5,2.2-4.4,4.9-4.4h14.4c2.7,0,4.9,2,4.9,4.4V169.7z M162.3,21.7c0,2.5-2.2,4.4-4.9,4.4H143c-2.7,0-4.9-2-4.9-4.5v-9.1
				c0-2.5,2.2-4.4,4.9-4.4h14.4c2.7,0,4.9,2,4.9,4.4V21.7z M199.9,169.7c0,2.5-2.2,4.4-4.9,4.4h-14.4c-2.7,0-4.9-2-4.9-4.4v-9.1
				c0-2.5,2.2-4.4,4.9-4.4H195c2.7,0,4.9,2,4.9,4.4V169.7z M199.9,21.7c0,2.5-2.2,4.4-4.9,4.4h-14.4c-2.7,0-4.9-2-4.9-4.5v-9.1
				c0-2.5,2.2-4.4,4.9-4.4H195c2.7,0,4.9,2,4.9,4.4V21.7z M237.5,169.7c0,2.5-2.2,4.4-4.9,4.4h-14.4c-2.7,0-4.9-2-4.9-4.4v-9.1
				c0-2.5,2.2-4.4,4.9-4.4h14.4c2.7,0,4.9,2,4.9,4.4L237.5,169.7z M237.5,21.7c0,2.5-2.2,4.4-4.9,4.4h-14.4c-2.7,0-4.9-2-4.9-4.5
				v-9.1c0-2.5,2.2-4.4,4.9-4.4h14.4c2.7,0,4.9,2,4.9,4.4L237.5,21.7z M275.1,169.7c0,2.5-2.2,4.4-4.9,4.4h-14.4
				c-2.7,0-4.9-2-4.9-4.4v-9.1c0-2.5,2.2-4.4,4.9-4.4h14.4c2.7,0,4.9,2,4.9,4.4L275.1,169.7z M275.1,21.7c0,2.5-2.2,4.4-4.9,4.4
				h-14.4c-2.7,0-4.9-2-4.9-4.5v-9.1c0-2.5,2.2-4.4,4.9-4.4h14.4c2.7,0,4.9,2,4.9,4.4L275.1,21.7z M312.7,169.7
				c0,2.5-2.2,4.4-4.9,4.4h-14.4c-2.7,0-4.9-2-4.9-4.4v-9.1c0-2.5,2.2-4.4,4.9-4.4h14.4c2.7,0,4.9,2,4.9,4.4V169.7z M312.7,21.7
				c0,2.5-2.2,4.4-4.9,4.4h-14.4c-2.7,0-4.8-2-4.8-4.5v-9.1c0-2.4,2.2-4.4,4.8-4.4h14.4c2.7,0,4.9,2,4.9,4.4c0,0,0,0,0,0l0,0
				L312.7,21.7z M350.4,169.7c0,2.5-2.2,4.4-4.9,4.4h-14.4c-2.7,0-4.9-2-4.9-4.4v-9.1c0-2.5,2.2-4.4,4.9-4.4h14.4
				c2.7,0,4.9,2,4.9,4.4V169.7z M350.4,21.7c0,2.5-2.2,4.4-4.9,4.4h-14.4c-2.7,0-4.9-2-4.9-4.5v-9.1c0-2.5,2.2-4.4,4.9-4.4h14.4
				c2.7,0,4.9,2,4.9,4.4L350.4,21.7z M388,169.7c0,2.4-2.2,4.4-4.8,4.4h-14.4c-2.7,0-4.9-2-4.9-4.4v-9.1c0-2.5,2.2-4.4,4.9-4.4h14.4
				c2.7,0,4.9,2,4.9,4.4L388,169.7z M388,21.7c0,2.4-2.2,4.4-4.8,4.4h-14.4c-2.7,0-4.9-2-4.9-4.5v-9.1c0-2.4,2.2-4.4,4.8-4.4h14.5
				c2.7,0,4.9,2,4.9,4.4L388,21.7z M425.6,169.7c0,2.5-2.2,4.4-4.9,4.4h-14.4c-2.7,0-4.9-2-4.9-4.4v-9.1c0-2.5,2.2-4.4,4.9-4.4h14.4
				c2.7,0,4.9,2,4.9,4.4V169.7z M425.6,21.7c0,2.5-2.2,4.4-4.9,4.4h-14.4c-2.7,0-4.9-2-4.9-4.5v-9.1c0-2.5,2.2-4.4,4.9-4.4h14.4
				c2.7,0,4.9,2,4.9,4.4L425.6,21.7z M463.2,169.7c0,2.5-2.2,4.4-4.9,4.4h-14.4c-2.7,0-4.9-2-4.9-4.4v-9.1c0-2.5,2.2-4.4,4.9-4.4
				h14.4c2.7,0,4.9,2,4.9,4.4V169.7z M463.2,21.7c0,2.5-2.2,4.4-4.9,4.4h-14.4c-2.7,0-4.9-2-4.9-4.5v-9.1c0-2.5,2.2-4.4,4.9-4.4
				h14.4c2.7,0,4.9,2,4.9,4.4L463.2,21.7z M500.8,169.7c0,2.5-2.2,4.4-4.9,4.4h-14.4c-2.7,0-4.9-2-4.9-4.4v-9.1
				c0-2.5,2.2-4.4,4.9-4.4h14.4c2.7,0,4.9,2,4.9,4.4L500.8,169.7z M500.8,21.7c0,2.5-2.2,4.4-4.9,4.4h-14.4c-2.7,0-4.9-2-4.9-4.5
				v-9.1c0-2.5,2.2-4.4,4.9-4.4h14.4c2.7,0,4.9,2,4.9,4.4L500.8,21.7z M538.4,169.7c0,2.5-2.2,4.4-4.9,4.4h-14.4
				c-2.7,0-4.9-2-4.9-4.4v-9.1c0-2.5,2.2-4.4,4.9-4.4h14.4c2.7,0,4.9,2,4.9,4.4V169.7z M538.4,21.7c0,2.5-2.2,4.4-4.9,4.4h-14.4
				c-2.7,0-4.9-2-4.9-4.5v-9.1c0-2.5,2.2-4.4,4.9-4.4h14.4c2.7,0,4.9,2,4.9,4.4L538.4,21.7z M576,169.7c0,2.5-2.2,4.5-4.9,4.5
				c0,0,0,0,0,0h-14.4c-2.7,0-4.9-2-4.9-4.4v-9.1c0-2.5,2.2-4.4,4.9-4.4h14.4c2.7,0,4.9,2,4.9,4.4L576,169.7z M576,21.7
				c0,2.5-2.2,4.5-4.9,4.5c0,0,0,0,0,0h-14.4c-2.7,0-4.9-2-4.9-4.5v-9.1c0-2.5,2.2-4.5,4.9-4.4h14.4c2.7,0,4.9,2,4.9,4.4L576,21.7z
				 M613.6,169.7c0,2.5-2.2,4.4-4.9,4.4h-14.4c-2.7,0-4.9-2-4.9-4.4v-9.1c0-2.5,2.2-4.4,4.9-4.4h14.4c2.7,0,4.9,2,4.9,4.4V169.7z
				 M613.6,21.7c0,2.5-2.2,4.4-4.9,4.4h-14.4c-2.7,0-4.9-2-4.9-4.5v-9.1c0-2.5,2.2-4.4,4.9-4.4h14.4c2.7,0,4.9,2,4.9,4.4V21.7z
				 M651.3,169.7c0,2.5-2.2,4.4-4.9,4.4H632c-2.7,0-4.9-2-4.9-4.4v-9.1c0-2.5,2.2-4.4,4.9-4.4h14.4c2.7,0,4.9,2,4.9,4.4V169.7z
				 M651.3,21.7c0,2.5-2.2,4.4-4.9,4.4H632c-2.7,0-4.9-2-4.9-4.5v-9.1c0-2.5,2.2-4.4,4.9-4.4h14.4c2.7,0,4.9,2,4.9,4.4L651.3,21.7z
				 M688.9,169.7c0,2.5-2.2,4.4-4.9,4.4h-14.4c-2.7,0-4.9-2-4.9-4.4v-9.1c0-2.5,2.2-4.4,4.9-4.4H684c2.7,0,4.9,2,4.9,4.4
				L688.9,169.7z M688.9,21.7c0,2.5-2.2,4.4-4.9,4.4h-14.4c-2.7,0-4.9-2-4.9-4.5v-9.1c0-2.5,2.2-4.4,4.9-4.4H684
				c2.7,0,4.9,2,4.9,4.4L688.9,21.7z M726.5,169.7c0,2.5-2.2,4.4-4.9,4.4h-14.4c-2.7,0-4.9-2-4.9-4.4v-9.1c0-2.5,2.2-4.4,4.9-4.4
				h14.4c2.7,0,4.9,2,4.9,4.4V169.7z M726.5,21.7c0,2.5-2.2,4.4-4.9,4.4h-14.4c-2.7,0-4.9-2-4.9-4.5v-9.1c0-2.5,2.2-4.4,4.9-4.4
				h14.4c2.7,0,4.9,2,4.9,4.4L726.5,21.7z M764.1,169.7c0,2.5-2.2,4.4-4.9,4.4h-14.4c-2.7,0-4.9-2-4.9-4.4v-9.1
				c0-2.5,2.2-4.4,4.9-4.4h14.4c2.7,0,4.9,2,4.9,4.4L764.1,169.7z M764.1,21.7c0,2.5-2.2,4.4-4.9,4.4h-14.4c-2.7,0-4.9-2-4.9-4.5
				v-9.1c0-2.5,2.2-4.4,4.9-4.4h14.4c2.7,0,4.9,2,4.9,4.4L764.1,21.7z M801.7,169.7c0,2.5-2.2,4.4-4.9,4.4h-14.4
				c-2.7,0-4.9-2-4.9-4.4v-9.1c0-2.5,2.2-4.4,4.9-4.4h14.4c2.7,0,4.9,2,4.9,4.4V169.7z M801.7,21.7c0,2.5-2.2,4.4-4.9,4.4h-14.4
				c-2.7,0-4.9-2-4.9-4.5v-9.1c0-2.5,2.2-4.4,4.9-4.4h14.4c2.7,0,4.9,2,4.9,4.4L801.7,21.7z M839.3,169.7c0,2.5-2.2,4.4-4.9,4.4H820
				c-2.7,0-4.9-2-4.9-4.4v-9.1c0-2.5,2.2-4.4,4.9-4.4h14.4c2.7,0,4.9,2,4.9,4.4V169.7z M839.3,21.7c0,2.5-2.2,4.4-4.9,4.4H820
				c-2.7,0-4.9-2-4.9-4.4c0,0,0,0,0,0l0,0v-9.1c0-2.5,2.2-4.5,4.9-4.4h14.4c2.7,0,4.9,2,4.9,4.4L839.3,21.7z M876.9,169.7
				c0,2.5-2.2,4.4-4.9,4.4h-14.4c-2.7,0-4.9-2-4.9-4.4v-9.1c0-2.5,2.2-4.4,4.9-4.4H872c2.7,0,4.9,2,4.9,4.4V169.7z M876.9,21.7
				c0,2.5-2.2,4.4-4.9,4.4h-14.4c-2.7,0-4.9-2-4.9-4.5v-9.1c0-2.5,2.2-4.4,4.9-4.4H872c2.7,0,4.9,2,4.9,4.4L876.9,21.7z
				 M914.5,169.7c0,2.5-2.2,4.4-4.9,4.4h-14.4c-2.7,0-4.9-2-4.9-4.4v-9.1c0-2.5,2.2-4.4,4.9-4.4h14.4c2.7,0,4.9,2,4.9,4.4
				L914.5,169.7z M914.5,21.7c0,2.5-2.2,4.4-4.9,4.4h-14.4c-2.7,0-4.9-2-4.9-4.5v-9.1c0-2.5,2.2-4.4,4.9-4.4h14.4
				c2.7,0,4.9,2,4.9,4.4L914.5,21.7z M952.1,169.7c0,2.5-2.2,4.4-4.9,4.4h-14.4c-2.7,0-4.9-2-4.9-4.4v-9.1c0-2.5,2.2-4.4,4.9-4.4
				h14.4c2.7,0,4.9,2,4.9,4.4V169.7z M952.1,21.7c0,2.5-2.2,4.4-4.9,4.4h-14.4c-2.7,0-4.9-2-4.9-4.5v-9.1c0-2.5,2.2-4.4,4.9-4.4
				h14.4c2.7,0,4.9,2,4.9,4.4L952.1,21.7z M989.8,169.7c0,2.5-2.2,4.4-4.9,4.4h-14.4c-2.7,0-4.9-2-4.9-4.4v-9.1
				c0-2.5,2.2-4.4,4.9-4.4h14.4c2.7,0,4.9,2,4.9,4.4V169.7z M989.8,21.7c0,2.5-2.2,4.4-4.9,4.4h-14.4c-2.7,0-4.9-2-4.9-4.5v-9.1
				c0-2.5,2.2-4.4,4.9-4.4h14.4c2.7,0,4.9,2,4.9,4.4L989.8,21.7z M1027.4,169.7c0,2.5-2.2,4.4-4.9,4.4h-14.4c-2.7,0-4.9-2-4.9-4.4
				v-9.1c0-2.5,2.2-4.4,4.9-4.4h14.4c2.7,0,4.9,2,4.9,4.4V169.7z M1027.4,21.7c0,2.5-2.2,4.4-4.9,4.4h-14.4c-2.7,0-4.9-2-4.9-4.5
				v-9.1c0-2.5,2.2-4.4,4.9-4.4h14.4c2.7,0,4.9,2,4.9,4.4L1027.4,21.7z M1065,169.7c0,2.5-2.2,4.4-4.9,4.4h-14.4
				c-2.7,0-4.9-2-4.9-4.4v-9.1c0-2.5,2.2-4.4,4.9-4.4h14.4c2.7,0,4.9,2,4.9,4.4V169.7z M1065,21.7c0,2.5-2.2,4.4-4.9,4.5h-14.4
				c-2.7,0-4.9-2-4.9-4.5v-9.1c0-2.5,2.2-4.4,4.9-4.5h14.4c2.7,0,4.9,2,4.9,4.4L1065,21.7z M1102.6,169.7c0,2.5-2.2,4.4-4.9,4.4
				h-14.4c-2.7,0-4.9-2-4.9-4.4v-9.1c0-2.5,2.2-4.4,4.9-4.4h14.4c2.7,0,4.9,2,4.9,4.4L1102.6,169.7z M1102.6,21.7
				c0,2.5-2.2,4.4-4.9,4.4h-14.4c-2.7,0-4.9-2-4.9-4.5v-9.1c0-2.5,2.2-4.4,4.9-4.4h14.4c2.7,0,4.9,2,4.9,4.4L1102.6,21.7z
				 M1140.2,169.7c0,2.5-2.2,4.4-4.9,4.4h-14.4c-2.7,0-4.9-2-4.9-4.4v-9.1c0-2.5,2.2-4.4,4.9-4.4h14.4c2.7,0,4.9,2,4.9,4.4V169.7z
				 M1140.2,21.7c0,2.5-2.2,4.4-4.9,4.5h-14.4c-2.7,0-4.9-2-4.9-4.5v-9.1c0-2.5,2.2-4.4,4.9-4.5h14.4c2.7,0,4.9,2,4.9,4.4
				L1140.2,21.7z M1177.8,169.7c0,2.5-2.2,4.4-4.9,4.4h-14.4c-2.7,0-4.9-2-4.9-4.4v-9.1c0-2.5,2.2-4.4,4.9-4.4h14.4
				c2.7,0,4.9,2,4.9,4.4V169.7z M1177.8,21.7c0,2.5-2.2,4.4-4.9,4.5h-14.4c-2.7,0-4.9-2-4.9-4.5v-9.1c0-2.5,2.2-4.4,4.9-4.5h14.4
				c2.7,0,4.9,2,4.9,4.4L1177.8,21.7z M1215.4,169.7c0,2.5-2.2,4.4-4.9,4.4h-14.4c-2.7,0-4.9-2-4.9-4.4v-9.1c0-2.5,2.2-4.4,4.9-4.4
				h14.4c2.7,0,4.9,2,4.9,4.4V169.7z M1215.4,21.7c0,2.5-2.2,4.4-4.9,4.5h-14.4c-2.7,0-4.9-2-4.9-4.5v-9.1c0-2.5,2.2-4.4,4.9-4.5
				h14.4c2.7,0,4.9,2,4.9,4.4L1215.4,21.7z M1253,169.7c0,2.4-2.2,4.4-4.9,4.4h-14.4c-2.7,0-4.9-2-4.9-4.4v-9.1
				c0-2.5,2.2-4.4,4.9-4.4h14.4c2.7,0,4.9,2,4.9,4.4L1253,169.7z M1253,21.7c0,2.4-2.2,4.4-4.9,4.4h-14.4c-2.7,0-4.9-2-4.9-4.5v-9.1
				c0-2.4,2.2-4.4,4.9-4.4h14.4c2.7,0,4.9,2,4.9,4.4L1253,21.7z M1290.6,169.7c0,2.5-2.2,4.4-4.9,4.4h-14.4c-2.7,0-4.9-2-4.9-4.4
				v-9.1c0-2.5,2.2-4.4,4.9-4.4h14.4c2.7,0,4.9,2,4.9,4.4V169.7z M1290.6,21.7c0,2.5-2.2,4.4-4.9,4.5h-14.4c-2.7,0-4.9-2-4.9-4.5
				v-9.1c0-2.5,2.2-4.4,4.9-4.5h14.4c2.7,0,4.9,2,4.9,4.4L1290.6,21.7z M1328.3,169.7c0,2.5-2.2,4.4-4.9,4.4H1309
				c-2.7,0-4.9-2-4.9-4.4v-9.1c0-2.5,2.2-4.4,4.9-4.4h14.4c2.7,0,4.9,2,4.9,4.4V169.7z M1328.3,21.7c0,2.5-2.2,4.4-4.9,4.4H1309
				c-2.7,0-4.9-2-4.9-4.5v-9.1c0-2.5,2.2-4.4,4.9-4.4h14.4c2.7,0,4.9,2,4.9,4.4L1328.3,21.7z M1365.9,169.7c0,2.5-2.2,4.4-4.9,4.4
				h-14.4c-2.7,0-4.9-2-4.9-4.4v-9.1c0-2.5,2.2-4.4,4.9-4.4h14.4c2.7,0,4.9,2,4.9,4.4V169.7z M1365.9,21.7c0,2.5-2.2,4.4-4.9,4.5
				h-14.4c-2.7,0-4.9-2-4.9-4.5v-9.1c0-2.5,2.2-4.4,4.9-4.5h14.4c2.7,0,4.9,2,4.9,4.4L1365.9,21.7z M1403.5,169.7
				c0,2.5-2.2,4.4-4.9,4.4h-14.4c-2.7,0-4.9-2-4.9-4.4v-9.1c0-2.5,2.2-4.4,4.9-4.4h14.4c2.7,0,4.9,2,4.9,4.4V169.7z M1403.5,21.7
				c0,2.5-2.2,4.4-4.9,4.5h-14.4c-2.7,0-4.9-2-4.9-4.5v-9.1c0-2.5,2.2-4.4,4.9-4.5h14.4c2.7,0,4.9,2,4.9,4.4L1403.5,21.7z
				 M1441.1,169.7c0,2.5-2.2,4.4-4.9,4.4h-14.4c-2.7,0-4.9-2-4.9-4.4v-9.1c0-2.5,2.2-4.4,4.9-4.4h14.4c2.7,0,4.9,2,4.9,4.4
				L1441.1,169.7z M1441.1,21.7c0,2.5-2.2,4.4-4.9,4.5h-14.4c-2.7,0-4.9-2-4.9-4.5v-9.1c0-2.5,2.2-4.4,4.9-4.5h14.4
				c2.7,0,4.9,2,4.9,4.4L1441.1,21.7z M1478.7,169.7c0,2.5-2.2,4.4-4.9,4.4h-14.4c-2.7,0-4.9-2-4.9-4.4v-9.1c0-2.5,2.2-4.4,4.9-4.4
				h14.4c2.7,0,4.9,2,4.9,4.4V169.7z M1478.7,21.7c0,2.5-2.2,4.4-4.9,4.5h-14.4c-2.7,0-4.9-2-4.9-4.5v-9.1c0-2.5,2.2-4.4,4.9-4.5
				h14.4c2.7,0,4.9,2,4.9,4.4L1478.7,21.7z M1516.3,169.7c0,2.5-2.2,4.4-4.9,4.4H1497c-2.7,0-4.9-2-4.9-4.4v-9.1
				c0-2.5,2.2-4.4,4.9-4.4h14.4c2.7,0,4.9,2,4.9,4.4V169.7z M1516.3,21.7c0,2.5-2.2,4.4-4.9,4.4H1497c-2.7,0-4.9-2-4.9-4.5v-9.1
				c0-2.5,2.2-4.4,4.9-4.4h14.4c2.7,0,4.9,2,4.9,4.4L1516.3,21.7z M1553.9,169.7c0,2.5-2.2,4.4-4.9,4.4h-14.4c-2.7,0-4.9-2-4.9-4.4
				v-9.1c0-2.5,2.2-4.4,4.9-4.4h14.4c2.7,0,4.9,2,4.9,4.4V169.7z M1553.9,21.7c0,2.5-2.2,4.4-4.9,4.5h-14.4c-2.7,0-4.9-2-4.9-4.5
				v-9.1c0-2.5,2.2-4.4,4.9-4.5h14.4c2.7,0,4.9,2,4.9,4.4L1553.9,21.7z M1591.5,169.7c0,2.5-2.2,4.4-4.9,4.4h-14.4
				c-2.7,0-4.9-2-4.9-4.4v-9.1c0-2.5,2.2-4.4,4.9-4.4h14.4c2.7,0,4.9,2,4.9,4.4V169.7z M1591.5,21.7c0,2.5-2.2,4.4-4.9,4.5h-14.4
				c-2.7,0-4.9-2-4.9-4.5v-9.1c0-2.5,2.2-4.4,4.9-4.5h14.4c2.7,0,4.9,2,4.9,4.4L1591.5,21.7z M1629.1,169.7c0,2.5-2.2,4.4-4.9,4.4
				h-14.4c-2.7,0-4.9-2-4.9-4.4v-9.1c0-2.5,2.2-4.4,4.9-4.4h14.4c2.7,0,4.9,2,4.9,4.4V169.7z M1629.1,21.7c0,2.5-2.2,4.4-4.9,4.5
				h-14.4c-2.7,0-4.9-2-4.9-4.5v-9.1c0-2.5,2.2-4.5,4.9-4.5c0,0,0,0,0,0h14.4c2.7,0,4.9,2,4.9,4.4L1629.1,21.7z M1666.8,169.7
				c0,2.5-2.2,4.4-4.9,4.4h-14.4c-2.7,0-4.9-2-4.9-4.4v-9.1c0-2.5,2.2-4.4,4.9-4.4h14.4c2.7,0,4.9,2,4.9,4.4V169.7z M1666.8,21.7
				c0,2.5-2.2,4.4-4.9,4.5h-14.4c-2.7,0-4.9-2-4.9-4.5v-9.1c0-2.5,2.2-4.5,4.9-4.5c0,0,0,0,0,0h14.4c2.7,0,4.9,2,4.9,4.4
				L1666.8,21.7z M1704.4,169.7c0,2.5-2.2,4.4-4.9,4.4h-14.4c-2.7,0-4.9-2-4.9-4.4v-9.1c0-2.5,2.2-4.4,4.9-4.4h14.4
				c2.7,0,4.9,2,4.9,4.4V169.7z M1704.4,21.7c0,2.5-2.2,4.4-4.9,4.5h-14.4c-2.7,0-4.9-2-4.9-4.5v-9.1c0-2.5,2.2-4.5,4.9-4.5
				c0,0,0,0,0,0h14.4c2.7,0,4.9,2,4.9,4.4L1704.4,21.7z M1742,169.7c0,2.5-2.2,4.4-4.9,4.4h-14.4c-2.7,0-4.9-2-4.9-4.4v-9.1
				c0-2.5,2.2-4.4,4.9-4.4h14.4c2.7,0,4.9,2,4.9,4.4V169.7z M1742,21.7c0,2.5-2.2,4.4-4.9,4.4h-14.4c-2.7,0-4.9-2-4.9-4.5v-9.1
				c0-2.5,2.2-4.4,4.9-4.4h14.4c2.7,0,4.9,2,4.9,4.4L1742,21.7z M1779.6,169.7c0,2.5-2.2,4.5-4.9,4.4h-14.4c-2.7,0-4.9-2-4.9-4.4
				v-9.1c0-2.5,2.2-4.4,4.9-4.4h14.4c2.7,0,4.9,2,4.9,4.4L1779.6,169.7z M1779.6,21.7c0,2.5-2.2,4.5-4.9,4.4h-14.4
				c-2.7,0-4.9-2-4.9-4.5v-9.1c0-2.5,2.2-4.5,4.9-4.4h14.4c2.7,0,4.9,2,4.9,4.4L1779.6,21.7z M1817.2,169.7c0,2.5-2.2,4.4-4.9,4.4
				h-14.4c-2.7,0-4.9-2-4.9-4.4v-9.1c0-2.5,2.2-4.4,4.9-4.4h14.4c2.7,0,4.9,2,4.9,4.4V169.7z M1817.2,21.7c0,2.5-2.2,4.4-4.9,4.5
				h-14.4c-2.7,0-4.9-2-4.9-4.5v-9.1c0-2.5,2.2-4.5,4.9-4.5c0,0,0,0,0,0h14.4c2.7,0,4.9,2,4.9,4.4L1817.2,21.7z M1854.8,169.7
				c0,2.5-2.2,4.4-4.9,4.4h-14.4c-2.7,0-4.9-2-4.9-4.4v-9.1c0-2.5,2.2-4.4,4.9-4.4h14.4c2.7,0,4.9,2,4.9,4.4V169.7z M1854.8,21.7
				c0,2.5-2.2,4.4-4.9,4.5h-14.4c-2.7,0-4.9-2-4.9-4.5v-9.1c0-2.5,2.2-4.5,4.9-4.5c0,0,0,0,0,0h14.4c2.7,0,4.9,2,4.9,4.4
				L1854.8,21.7z M1892.4,169.7c0,2.5-2.2,4.4-4.9,4.4h-14.4c-2.7,0-4.9-2-4.9-4.4v-9.1c0-2.5,2.2-4.4,4.9-4.4h14.4
				c2.7,0,4.9,2,4.9,4.4V169.7z M1892.4,21.7c0,2.5-2.2,4.4-4.9,4.5h-14.4c-2.7,0-4.9-2-4.9-4.5v-9.1c0-2.5,2.2-4.5,4.9-4.5
				c0,0,0,0,0,0h14.4c2.7,0,4.9,2,4.9,4.4L1892.4,21.7z M1930,169.7c0,2.5-2.2,4.4-4.9,4.4h-14.4c-2.7,0-4.9-2-4.9-4.4v-9.1
				c0-2.5,2.2-4.4,4.9-4.4h14.4c2.7,0,4.9,2,4.9,4.4V169.7z M1930,21.7c0,2.5-2.2,4.4-4.9,4.4h-14.4c-2.7,0-4.9-2-4.9-4.5v-9.1
				c0-2.5,2.2-4.4,4.9-4.4h14.4c2.7,0,4.9,2,4.9,4.4L1930,21.7z M1967.6,169.7c0,2.5-2.2,4.4-4.9,4.4h-14.4c-2.7,0-4.9-2-4.9-4.4
				v-9.1c0-2.5,2.2-4.4,4.9-4.4h14.4c2.7,0,4.9,2,4.9,4.4L1967.6,169.7z M1967.6,21.7c0,2.5-2.2,4.4-4.9,4.5h-14.4
				c-2.7,0-4.9-2-4.9-4.5v-9.1c0-2.5,2.2-4.4,4.9-4.5h14.4c2.7,0,4.9,2,4.9,4.4L1967.6,21.7z M2005.3,169.7c0,2.5-2.2,4.4-4.9,4.4
				H1986c-2.7,0-4.9-2-4.9-4.4v-9.1c0-2.5,2.2-4.4,4.9-4.4h14.4c2.7,0,4.9,2,4.9,4.4V169.7z M2005.3,21.7c0,2.5-2.2,4.4-4.9,4.5
				H1986c-2.7,0-4.9-2-4.9-4.5v-9.1c0-2.5,2.2-4.5,4.9-4.5c0,0,0,0,0,0h14.4c2.7,0,4.9,2,4.9,4.4L2005.3,21.7z M2042.9,169.7
				c0,2.5-2.2,4.4-4.9,4.4h-14.4c-2.7,0-4.9-2-4.9-4.4v-9.1c0-2.5,2.2-4.4,4.9-4.4h14.4c2.7,0,4.9,2,4.9,4.4V169.7z M2042.9,21.7
				c0,2.5-2.2,4.4-4.9,4.5h-14.4c-2.7,0-4.9-2-4.9-4.5v-9.1c0-2.5,2.2-4.5,4.9-4.5c0,0,0,0,0,0h14.4c2.7,0,4.9,2,4.9,4.4
				L2042.9,21.7z"/>
		</g>
	</g>
</g>
</svg>
