<svg id="Layer_1" data-name="Layer 1" xmlns="http://www.w3.org/2000/svg" viewBox="0 0 93.56 93.56"><title>icon-wheel</title><path id="Wheel_L_copy" data-name="Wheel L copy" d="M46.79,0A46.78,46.78,0,1,0,93.56,46.79h0A46.78,46.78,0,0,0,46.79,0ZM69.62,19.18a2.84,2.84,0,0,1,3.87,1l9.65,16.71a2.84,2.84,0,0,1-1,3.87A12.48,12.48,0,0,1,69.62,19.18ZM24,74.37a2.82,2.82,0,0,1-3.87-1h0l-9.64-16.7a2.84,2.84,0,0,1,1-3.88A12.48,12.48,0,0,1,24,74.37Zm4.56-38.14a12.49,12.49,0,0,1-17,4.57,2.83,2.83,0,0,1-1-3.87h0l9.64-16.71a2.85,2.85,0,0,1,3.88-1A12.49,12.49,0,0,1,28.52,36.23Zm27.91,47H37.14a2.83,2.83,0,0,1-2.84-2.83,12.49,12.49,0,0,1,25,0A2.83,2.83,0,0,1,56.43,83.18Zm1.35-34L44.55,58.84a3.07,3.07,0,0,1-1.78.57,3,3,0,0,1-3-3V37.16a3,3,0,0,1,4.8-2.44l13.23,9.62a3,3,0,0,1,.68,4.2A3.13,3.13,0,0,1,57.78,49.22Zm-11-23.53A12.5,12.5,0,0,1,34.3,13.21a2.84,2.84,0,0,1,2.84-2.84H56.43a2.84,2.84,0,0,1,2.84,2.84h0A12.5,12.5,0,0,1,46.79,25.69ZM83.14,56.63l-9.65,16.7a2.83,2.83,0,0,1-3.85,1h0A12.48,12.48,0,0,1,82.1,52.75a2.85,2.85,0,0,1,1,3.88Z" fill="#fff" fill-rule="evenodd"/><path id="playSvg" data-name="Wheel L copy 2" d="M57.78,49.22,44.55,58.84a3.07,3.07,0,0,1-1.78.57,3,3,0,0,1-3-3V37.16a3,3,0,0,1,4.8-2.44l13.23,9.62a3,3,0,0,1,.68,4.2A3.13,3.13,0,0,1,57.78,49.22Z" fill="#e20a17" fill-rule="evenodd"/></svg>