<?xml version="1.0" encoding="utf-8"?>
<!-- Generator: Adobe Illustrator 22.0.1, SVG Export Plug-In . SVG Version: 6.00 Build 0)  -->
<svg version="1.1" id="lamp_on" xmlns="http://www.w3.org/2000/svg" xmlns:xlink="http://www.w3.org/1999/xlink" x="0px" y="0px"
	 viewBox="0 0 132 238" enable-background="new 0 0 132 238" xml:space="preserve">
<g>
	<path fill="#FDE619" d="M66,238c-36.4,0-66-28.3-66-63c0-1.2,0-2.5,0.1-3.7c-0.7-10.5,2.1-21.1,7.9-29.8c0-0.5,0-1,0-1.5
		c0-6.4,0.9-13.4,2.6-19.8c1.5-5.9,3.8-11.3,6.7-16.1V48c0-26.5,21.5-48,48-48h1.5c26.5,0,48,21.5,48,48v56
		c2.9,4.8,5.2,10.2,6.7,16.1c1.7,6.4,2.6,13.4,2.6,19.8c0,0.5,0,1,0,1.5c5.8,8.7,8.6,19.3,7.9,29.8c0.1,1.2,0.1,2.5,0.1,3.7
		C132,209.7,102.4,238,66,238z"/>
	<path fill="#FCC403" d="M66,226c-29.8,0-54-22.9-54-51c0-1.2,0-2.5,0.1-3.8c-0.8-9.4,2.1-18.9,8.1-26.2c-0.2-1.7-0.3-3.4-0.3-5.1
		c0-5.4,0.8-11.4,2.2-16.8c1.5-5.9,3.9-11.2,7.1-15.6V48c0-19.9,16.1-36,36-36h1.5c19.9,0,36,16.1,36,36v59.6
		c3.2,4.4,5.5,9.6,7.1,15.6c1.4,5.4,2.2,11.4,2.2,16.8c0,1.8-0.1,3.5-0.2,5.1c6,7.2,8.9,16.7,8.1,26.2c0.1,1.3,0.1,2.5,0.1,3.8
		C120,203.1,95.8,226,66,226z"/>
	<path fill="#FDE619" d="M66,214c-23.2,0-42-17.5-42-39c0-1.3,0.1-2.6,0.2-3.9c-1-7.4,1.6-15,7.1-20.3c0.4-0.6,0.9-3.1,1.2-4.6
		c0,0,0-0.1,0-0.1c-0.3-1.9-0.5-4-0.5-6.1c0-4.4,0.7-9.4,1.8-13.8c1.5-5.9,4-10.7,7.5-14.3V48c0-13.2,10.8-24,24-24h1.5
		c13.2,0,24,10.8,24,24v63.8c3.4,3.7,5.9,8.5,7.5,14.3c1.1,4.4,1.8,9.4,1.8,13.8c0,2.2-0.2,4.2-0.5,6.1c0,0,0,0,0,0.1
		c0.3,1.5,0.8,4,1.3,4.7c5.4,5.2,8,12.8,7,20.3c0.1,1.3,0.2,2.6,0.2,3.9C108,196.5,89.2,214,66,214z"/>
	<path fill="#FCC403" d="M66,202c-16.5,0-30-12.1-30-27c0-1.4,0.1-2.8,0.4-4.1c-1-4.1,0.2-8.5,3.3-11.5c3.1-3,3.9-7.2,4.6-11
		c0.2-0.8,0.3-1.7,0.5-2.5c-0.5-1.7-0.8-3.7-0.8-6c0-3.3,0.5-7.4,1.4-10.8c1.6-6.1,4.3-9.5,7.1-11.2c0.2-0.4,0.5-0.8,0.7-1.2V48
		c0-6.6,5.4-12,12-12h1.5c6.6,0,12,5.4,12,12v68.7c0.2,0.4,0.5,0.8,0.7,1.2c2.8,1.8,5.6,5.1,7.1,11.2c0.9,3.4,1.4,7.4,1.4,10.8
		c0,2.3-0.2,4.3-0.7,6.1c0.2,0.8,0.3,1.6,0.5,2.4c0.7,3.7,1.5,8,4.6,11c3.1,3,4.3,7.4,3.3,11.5c0.2,1.4,0.4,2.7,0.4,4.1
		C96,189.9,82.5,202,66,202z"/>
	<path fill="#FDE619" d="M84,168c-9.3-9.1-7.2-22-10-22h-1v-2c0.7,0,1.3,0,1.7,0c2.9,0,0.6-16-2-16c-0.5,0-1.5,0-2.7,0
		c-0.2-1.7-0.7-5-1.6-5c-0.4,0-0.9,0-1.5,0V48h-1.5v75c-0.6,0-1.2,0-1.5,0c-1,0-1.4,3.3-1.6,5c-1.2,0-2.2,0-2.7,0
		c-2.6,0-4.9,16-2,16c0.4,0,0.9,0,1.7,0v2h-1c-2.8,0-0.7,12.9-10,22h2.1c-1.3,2.1-2.1,4.5-2.1,7c0,8.3,8.1,15,18,15
		c9.9,0,18-6.7,18-15c0-2.5-0.8-4.9-2.1-7H84z"/>
</g>
<defs>
	<filter id="Adobe_OpacityMaskFilter" filterUnits="userSpaceOnUse" x="8" y="117" width="116" height="116">
		<feColorMatrix  type="matrix" values="1 0 0 0 0  0 1 0 0 0  0 0 1 0 0  0 0 0 1 0"/>
	</filter>
</defs>
<mask maskUnits="userSpaceOnUse" x="8" y="117" width="116" height="116" id="SVGID_1_">
	<g filter="url(#Adobe_OpacityMaskFilter)">
		
			<radialGradient id="SVGID_2_" cx="58.4056" cy="169.5173" r="55.4898" gradientTransform="matrix(1.051 0 0 1.051 4.6149 -3.1647)" gradientUnits="userSpaceOnUse">
			<stop  offset="0.5" style="stop-color:#FFFFFF"/>
			<stop  offset="0.8" style="stop-color:#8C8C8C"/>
			<stop  offset="1" style="stop-color:#000000"/>
		</radialGradient>
		<circle fill="url(#SVGID_2_)" cx="66" cy="175" r="58"/>
	</g>
</mask>
<circle mask="url(#SVGID_1_)" fill="#FFFFFF" cx="66" cy="175" r="58"/>
<g>
	
		<radialGradient id="SVGID_3_" cx="65.9998" cy="174.9999" r="16.568" gradientTransform="matrix(1 0 0 0.8 0 35)" gradientUnits="userSpaceOnUse">
		<stop  offset="0.7" style="stop-color:#FDE619"/>
		<stop  offset="1" style="stop-color:#FCC403"/>
	</radialGradient>
	<ellipse fill="url(#SVGID_3_)" cx="66" cy="175" rx="18" ry="15"/>
	<line fill="none" stroke="#B1181E" stroke-width="1.4835" stroke-miterlimit="10" x1="66" y1="48" x2="66" y2="124"/>
	<g>
		<linearGradient id="SVGID_4_" gradientUnits="userSpaceOnUse" x1="61.9998" y1="125.9999" x2="69.9998" y2="125.9999">
			<stop  offset="0" style="stop-color:#B1181E"/>
			<stop  offset="0.4" style="stop-color:#ED1D24"/>
			<stop  offset="1" style="stop-color:#B1181E"/>
		</linearGradient>
		<path fill="url(#SVGID_4_)" d="M68.3,123c-0.5,0-1.4,0-2.3,0c-0.9,0-1.8,0-2.3,0c-1.3,0-1.7,6-1.7,6h4h4C70,129,69.6,123,68.3,123
			z"/>
		<linearGradient id="SVGID_5_" gradientUnits="userSpaceOnUse" x1="58.9998" y1="143.9999" x2="72.9998" y2="143.9999">
			<stop  offset="0" style="stop-color:#ED1D24"/>
			<stop  offset="0.4" style="stop-color:#FDE619"/>
			<stop  offset="1" style="stop-color:#ED1D24"/>
		</linearGradient>
		<polygon fill="url(#SVGID_5_)" points="66,141 59,141 59,147 66,147 73,147 73,141 		"/>
		<linearGradient id="SVGID_6_" gradientUnits="userSpaceOnUse" x1="47.9998" y1="156.9999" x2="83.9998" y2="156.9999">
			<stop  offset="0" style="stop-color:#B1181E"/>
			<stop  offset="0.4" style="stop-color:#ED1D24"/>
			<stop  offset="1" style="stop-color:#B1181E"/>
		</linearGradient>
		<path fill="url(#SVGID_6_)" d="M74,146h-8h-8c-2.8,0-0.7,12.9-10,22h18h18C74.7,158.9,76.8,146,74,146z"/>
		<linearGradient id="SVGID_7_" gradientUnits="userSpaceOnUse" x1="55.9998" y1="135.9999" x2="75.9998" y2="135.9999">
			<stop  offset="0" style="stop-color:#B1181E"/>
			<stop  offset="0.4" style="stop-color:#ED1D24"/>
			<stop  offset="1" style="stop-color:#B1181E"/>
		</linearGradient>
		<path fill="url(#SVGID_7_)" d="M72.6,128c-1,0-3.6,0-6.6,0c-3,0-5.7,0-6.6,0c-2.6,0-4.9,16-2,16c1.2,0,4.8,0,8.7,0s7.5,0,8.7,0
			C77.6,144,75.2,128,72.6,128z"/>
	</g>
</g>
</svg>
