<?xml version="1.0" encoding="utf-8"?>
<!-- Generator: Adobe Illustrator 22.0.1, SVG Export Plug-In . SVG Version: 6.00 Build 0)  -->
<svg version="1.1" id="Layer_1" xmlns="http://www.w3.org/2000/svg" xmlns:xlink="http://www.w3.org/1999/xlink" x="0px" y="0px"
	 viewBox="0 0 1920 182" style="enable-background:new 0 0 1920 182;" xml:space="preserve">
<style type="text/css">
	.st0{fill:#009FE5;}
</style>
<g id="reel_copy_8">
	<path class="st0" d="M-1919,0v182H1V0H-1919z M-1889,169.6c0,2.5-2,4.4-4.4,4.4h-13.1c-2.5,0-4.4-2-4.4-4.4v-9.1
		c0-2.5,2-4.4,4.4-4.4h13.1c2.5,0,4.4,2,4.4,4.4V169.6z M-1889,21.6c0,2.5-2,4.4-4.4,4.4h-13.1c-2.5,0-4.4-2-4.4-4.5v-9.1
		c0-2.5,2-4.4,4.4-4.4h13.1c2.5,0,4.4,2,4.4,4.4V21.6z M-1854.8,169.6c0,2.5-2,4.4-4.4,4.4h-13.1c-2.5,0-4.4-2-4.5-4.4v-9.1
		c0-2.5,2-4.4,4.5-4.4h13.1c2.5,0,4.4,2,4.4,4.4V169.6z M-1854.8,21.6c0,2.5-2,4.4-4.4,4.4h-13.1c-2.5,0-4.4-2-4.5-4.5v-9.1
		c0-2.5,2-4.4,4.5-4.4h13.1c2.5,0,4.4,2,4.4,4.4V21.6z M-1820.6,169.6c0,2.4-2,4.4-4.4,4.4h-13.1c-2.5,0-4.4-2-4.5-4.4v-9.1
		c0-2.5,2-4.4,4.5-4.4h13.1c2.5,0,4.4,2,4.4,4.4L-1820.6,169.6z M-1820.6,21.6c0,2.4-2,4.4-4.4,4.4h-13.1c-2.5,0-4.4-2-4.5-4.5v-9.1
		c0-2.5,2-4.4,4.5-4.4h13.1c2.5,0,4.4,2,4.4,4.4L-1820.6,21.6z M-1786.3,169.6c0,2.5-2,4.4-4.5,4.4h-13.1c-2.5,0-4.4-2-4.4-4.4v-9.1
		c0-2.5,2-4.4,4.4-4.4h13.1c2.5,0,4.4,2,4.5,4.4V169.6z M-1786.3,21.6c0,2.5-2,4.4-4.5,4.4h-13.1c-2.5,0-4.4-2-4.4-4.5v-9.1
		c0-2.5,2-4.4,4.4-4.4h13.1c2.5,0,4.4,2,4.5,4.4V21.6z M-1752.1,169.6c0,2.5-2,4.4-4.4,4.4h-13.1c-2.5,0-4.4-2-4.4-4.4v-9.1
		c0-2.5,2-4.4,4.4-4.4h13.1c2.5,0,4.4,2,4.4,4.4V169.6z M-1752.1,21.6c0,2.5-2,4.4-4.4,4.4h-13.1c-2.5,0-4.4-2-4.4-4.5v-9.1
		c0-2.5,2-4.4,4.5-4.4h13.1c2.5,0,4.4,2,4.4,4.4V21.6z M-1717.9,169.6c0,2.5-2,4.4-4.4,4.4h-13.1c-2.5,0-4.4-2-4.5-4.4v-9.1
		c0-2.5,2-4.4,4.5-4.4h13.1c2.5,0,4.4,2,4.4,4.4V169.6z M-1717.9,21.6c0,2.5-2,4.4-4.4,4.4h-13.1c-2.5,0-4.4-2-4.5-4.5v-9.1
		c0-2.5,2-4.4,4.5-4.4h13.1c2.5,0,4.4,2,4.4,4.4V21.6z M-1683.7,169.6c0,2.5-2,4.4-4.5,4.4h-13.1c-2.5,0-4.4-2-4.4-4.4v-9.1
		c0-2.5,2-4.4,4.4-4.4h13.1c2.5,0,4.4,2,4.5,4.4V169.6z M-1683.7,21.6c0,2.5-2,4.4-4.5,4.4h-13.1c-2.5,0-4.4-2-4.4-4.5v-9.1
		c0-2.5,2-4.4,4.4-4.4h13.1c2.5,0,4.4,2,4.5,4.4V21.6z M-1649.5,169.6c0,2.5-2,4.4-4.5,4.4h-13.1c-2.5,0-4.4-2-4.4-4.4v-9.1
		c0-2.5,2-4.4,4.4-4.4h13.1c2.5,0,4.4,2,4.5,4.4L-1649.5,169.6z M-1649.5,21.6c0,2.5-2,4.4-4.5,4.4h-13.1c-2.5,0-4.4-2-4.4-4.5v-9.1
		c0-2.5,2-4.4,4.4-4.4h13.1c2.5,0,4.4,2,4.5,4.4L-1649.5,21.6z M-1615.3,169.6c0,2.5-2,4.4-4.4,4.4h-13.1c-2.5,0-4.4-2-4.4-4.4v-9.1
		c0-2.5,2-4.4,4.4-4.4h13.1c2.5,0,4.4,2,4.4,4.4V169.6z M-1615.3,21.6c0,2.5-2,4.4-4.4,4.4h-13.1c-2.5,0-4.4-2-4.4-4.5v-9.1
		c0-2.5,2-4.4,4.4-4.4h13.1c2.5,0,4.4,2,4.4,4.4V21.6z M-1581,169.6c0,2.5-2,4.4-4.4,4.4h-13.1c-2.5,0-4.4-2-4.4-4.4v-9.1
		c0-2.5,2-4.4,4.4-4.4h13.1c2.5,0,4.4,2,4.4,4.4V169.6z M-1581,21.6c0,2.5-2,4.4-4.4,4.4h-13.1c-2.4,0-4.4-2-4.4-4.5v-9.1
		c0-2.4,2-4.4,4.4-4.4h13.1c2.5,0,4.5,2,4.5,4.4c0,0,0,0,0,0L-1581,21.6z M-1546.8,169.6c0,2.5-2,4.4-4.4,4.4h-13.1
		c-2.5,0-4.4-2-4.5-4.4v-9.1c0-2.5,2-4.4,4.5-4.4h13.1c2.5,0,4.4,2,4.4,4.4V169.6z M-1546.8,21.6c0,2.5-2,4.4-4.4,4.4h-13.1
		c-2.5,0-4.4-2-4.5-4.5v-9.1c0-2.5,2-4.4,4.5-4.4h13.1c2.5,0,4.4,2,4.5,4.4L-1546.8,21.6z M-1512.6,169.6c0,2.4-2,4.4-4.4,4.4h-13.1
		c-2.5,0-4.4-2-4.5-4.4v-9.1c0-2.5,2-4.4,4.5-4.4h13.1c2.5,0,4.4,2,4.4,4.4L-1512.6,169.6z M-1512.6,21.6c0,2.4-2,4.4-4.4,4.4h-13.1
		c-2.5,0-4.4-2-4.5-4.5v-9.1c0-2.4,2-4.4,4.4-4.4h13.2c2.5,0,4.4,2,4.4,4.4L-1512.6,21.6z M-1478.4,169.6c0,2.5-2,4.4-4.5,4.4h-13.1
		c-2.5,0-4.4-2-4.4-4.4v-9.1c0-2.5,2-4.4,4.4-4.4h13.1c2.5,0,4.4,2,4.5,4.4V169.6z M-1478.4,21.6c0,2.5-2,4.4-4.4,4.4h-13.1
		c-2.5,0-4.4-2-4.5-4.5v-9.1c0-2.5,2-4.4,4.5-4.4h13.1c2.5,0,4.4,2,4.4,4.4V21.6z M-1444.2,169.6c0,2.5-2,4.4-4.4,4.4h-13.1
		c-2.5,0-4.4-2-4.5-4.4v-9.1c0-2.5,2-4.4,4.5-4.4h13.1c2.5,0,4.4,2,4.4,4.4V169.6z M-1444.2,21.6c0,2.5-2,4.4-4.4,4.4h-13.1
		c-2.5,0-4.4-2-4.5-4.5v-9.1c0-2.5,2-4.4,4.5-4.4h13.1c2.5,0,4.4,2,4.5,4.4L-1444.2,21.6z M-1409.9,169.6c0,2.5-2,4.4-4.5,4.4h-13.1
		c-2.5,0-4.4-2-4.4-4.4v-9.1c0-2.5,2-4.4,4.4-4.4h13.1c2.5,0,4.4,2,4.5,4.4V169.6z M-1409.9,21.6c0,2.5-2,4.4-4.5,4.4h-13.1
		c-2.5,0-4.4-2-4.4-4.5v-9.1c0-2.5,2-4.4,4.4-4.4h13.1c2.5,0,4.4,2,4.5,4.4V21.6z M-1375.7,169.6c0,2.5-2,4.4-4.4,4.4h-13.1
		c-2.5,0-4.4-2-4.4-4.4v-9.1c0-2.5,2-4.4,4.4-4.4h13.1c2.5,0,4.4,2,4.4,4.4V169.6z M-1375.7,21.6c0,2.5-2,4.4-4.4,4.4h-13.1
		c-2.5,0-4.4-2-4.4-4.5v-9.1c0-2.5,2-4.4,4.4-4.4h13.1c2.5,0,4.4,2,4.5,4.4V21.6z M-1341.5,169.6c0,2.5-2,4.5-4.5,4.5c0,0,0,0,0,0
		h-13.1c-2.5,0-4.4-2-4.5-4.4v-9.1c0-2.5,2-4.4,4.5-4.4h13.1c2.5,0,4.4,2,4.4,4.4L-1341.5,169.6z M-1341.5,21.6c0,2.5-2,4.5-4.5,4.5
		c0,0,0,0,0,0h-13.1c-2.5,0-4.4-2-4.5-4.5v-9.1c0-2.5,2-4.5,4.5-4.5c0,0,0,0,0,0h13.1c2.5,0,4.4,2,4.4,4.4L-1341.5,21.6z
		 M-1307.3,169.6c0,2.5-2,4.4-4.4,4.4h-13.1c-2.5,0-4.4-2-4.4-4.4v-9.1c0-2.5,2-4.4,4.4-4.4h13.1c2.5,0,4.4,2,4.4,4.4V169.6z
		 M-1307.3,21.6c0,2.5-2,4.4-4.4,4.4h-13.1c-2.5,0-4.4-2-4.5-4.5v-9.1c0-2.5,2-4.4,4.4-4.4h13.1c2.5,0,4.4,2,4.4,4.4V21.6z
		 M-1273.1,169.6c0,2.5-2,4.4-4.4,4.4h-13.1c-2.5,0-4.4-2-4.4-4.4v-9.1c0-2.5,2-4.4,4.4-4.4h13.1c2.5,0,4.4,2,4.4,4.4V169.6z
		 M-1273.1,21.6c0,2.5-2,4.4-4.4,4.4h-13.1c-2.5,0-4.4-2-4.5-4.5v-9.1c0-2.5,2-4.4,4.5-4.4h13.1c2.5,0,4.4,2,4.4,4.4V21.6z
		 M-1238.9,169.6c0,2.5-2,4.4-4.4,4.4h-13.1c-2.5,0-4.4-2-4.5-4.4v-9.1c0-2.5,2-4.4,4.5-4.4h13.1c2.5,0,4.4,2,4.4,4.4V169.6z
		 M-1238.9,21.6c0,2.5-2,4.4-4.4,4.4h-13.1c-2.5,0-4.4-2-4.5-4.5v-9.1c0-2.5,2-4.4,4.5-4.4h13.1c2.5,0,4.4,2,4.4,4.4V21.6z
		 M-1204.6,169.6c0,2.5-2,4.4-4.4,4.4h-13.1c-2.5,0-4.4-2-4.5-4.4v-9.1c0-2.5,2-4.4,4.5-4.4h13.1c2.5,0,4.4,2,4.4,4.4V169.6z
		 M-1204.6,21.6c0,2.5-2,4.4-4.4,4.4h-13.1c-2.5,0-4.4-2-4.5-4.5v-9.1c0-2.5,2-4.4,4.5-4.4h13.1c2.5,0,4.4,2,4.5,4.4L-1204.6,21.6z
		 M-1170.4,169.6c0,2.5-2,4.4-4.5,4.4h-13.1c-2.5,0-4.4-2-4.4-4.4v-9.1c0-2.5,2-4.4,4.4-4.4h13.1c2.5,0,4.4,2,4.5,4.4L-1170.4,169.6
		z M-1170.4,21.6c0,2.5-2,4.4-4.4,4.4h-13.1c-2.5,0-4.4-2-4.4-4.5v-9.1c0-2.5,2-4.4,4.4-4.4h13.1c2.5,0,4.4,2,4.5,4.4L-1170.4,21.6z
		 M-1136.2,169.6c0,2.5-2,4.4-4.5,4.4h-13.1c-2.5,0-4.4-2-4.5-4.4v-9.1c0-2.5,2-4.4,4.5-4.4h13.1c2.5,0,4.4,2,4.5,4.4V169.6z
		 M-1136.2,21.6c0,2.5-2,4.4-4.4,4.4h-13.1c-2.5,0-4.4-2-4.4-4.5v-9.1c0-2.5,2-4.4,4.4-4.4h13.1c2.5,0,4.4,2,4.5,4.4L-1136.2,21.6z
		 M-1102,169.6c0,2.5-2,4.4-4.5,4.4h-13.1c-2.5,0-4.4-2-4.5-4.4v-9.1c0-2.5,2-4.4,4.5-4.4h13.1c2.5,0,4.4,2,4.5,4.4V169.6z
		 M-1102,21.6c0,2.5-2,4.4-4.4,4.4h-13.1c-2.5,0-4.5-2-4.5-4.4c0,0,0,0,0,0v-9.1c0-2.5,2-4.5,4.5-4.4h13.1c2.4,0,4.4,2,4.4,4.4
		L-1102,21.6z M-1067.8,169.6c0,2.5-2,4.4-4.5,4.4h-13.1c-2.5,0-4.4-2-4.5-4.4v-9.1c0-2.5,2-4.4,4.5-4.4h13.1c2.5,0,4.4,2,4.5,4.4
		V169.6z M-1067.8,21.6c0,2.5-2,4.4-4.4,4.4h-13.1c-2.5,0-4.4-2-4.4-4.5v-9.1c0-2.5,2-4.4,4.4-4.4h13.1c2.5,0,4.4,2,4.4,4.4
		L-1067.8,21.6z M-1033.6,169.6c0,2.5-2,4.4-4.4,4.4h-13.1c-2.5,0-4.4-2-4.5-4.4v-9.1c0-2.5,2-4.4,4.5-4.4h13.1c2.5,0,4.4,2,4.4,4.4
		V169.6z M-1033.6,21.6c0,2.5-2,4.4-4.4,4.4h-13.1c-2.5,0-4.4-2-4.5-4.5v-9.1c0-2.5,2-4.4,4.5-4.4h13.1c2.5,0,4.4,2,4.4,4.4V21.6z
		 M-999.3,169.6c0,2.5-2,4.4-4.5,4.4h-13.1c-2.5,0-4.4-2-4.5-4.4v-9.1c0-2.5,2-4.4,4.5-4.4h13.1c2.5,0,4.4,2,4.5,4.4V169.6z
		 M-999.3,21.6c0,2.5-2,4.4-4.4,4.4h-13.1c-2.5,0-4.4-2-4.5-4.5v-9.1c0-2.5,2-4.4,4.5-4.4h13.1c2.5,0,4.4,2,4.5,4.4L-999.3,21.6z
		 M-965.1,169.6c0,2.5-2,4.4-4.5,4.4h-13.1c-2.5,0-4.4-2-4.5-4.4v-9.1c0-2.5,2-4.4,4.5-4.4h13.1c2.5,0,4.4,2,4.5,4.4V169.6z
		 M-965.1,21.6c0,2.5-2,4.4-4.4,4.4h-13.1c-2.5,0-4.4-2-4.5-4.5v-9.1c0-2.5,2-4.4,4.5-4.4h13.1c2.5,0,4.4,2,4.5,4.4L-965.1,21.6z
		 M-930.9,169.6c0,2.5-2,4.4-4.5,4.4h-13.1c-2.5,0-4.4-2-4.5-4.4v-9.1c0-2.5,2-4.4,4.5-4.4h13.1c2.5,0,4.4,2,4.5,4.4V169.6z
		 M-930.9,21.6c0,2.5-2,4.4-4.4,4.4h-13.1c-2.5,0-4.4-2-4.5-4.5v-9.1c0-2.5,2-4.4,4.5-4.4h13.1c2.5,0,4.4,2,4.5,4.4L-930.9,21.6z
		 M-896.7,169.6c0,2.5-2,4.4-4.5,4.4h-13.1c-2.5,0-4.4-2-4.5-4.4v-9.1c0-2.5,2-4.4,4.5-4.4h13.1c2.5,0,4.4,2,4.5,4.4V169.6z
		 M-896.7,21.6c0,2.5-2,4.4-4.5,4.5h-13.1c-2.5,0-4.4-2-4.5-4.5v-9.1c0-2.5,2-4.4,4.5-4.5h13.1c2.5,0,4.4,2,4.5,4.4L-896.7,21.6z
		 M-862.5,169.6c0,2.5-2,4.4-4.4,4.4H-880c-2.5,0-4.4-2-4.4-4.4v-9.1c0-2.5,2-4.4,4.4-4.4h13.1c2.5,0,4.4,2,4.4,4.4L-862.5,169.6z
		 M-862.5,21.6c0,2.5-2,4.4-4.4,4.4H-880c-2.5,0-4.4-2-4.4-4.5v-9.1c0-2.5,2-4.4,4.4-4.4h13.1c2.5,0,4.4,2,4.4,4.4L-862.5,21.6z
		 M-828.2,169.6c0,2.5-2,4.4-4.4,4.4h-13.1c-2.5,0-4.4-2-4.4-4.4v-9.1c0-2.5,2-4.4,4.4-4.4h13.1c2.5,0,4.4,2,4.4,4.4V169.6z
		 M-828.2,21.6c0,2.5-2,4.4-4.4,4.5h-13.1c-2.5,0-4.4-2-4.4-4.5v-9.1c0-2.5,2-4.4,4.5-4.5h13.1c2.5,0,4.4,2,4.4,4.4L-828.2,21.6z
		 M-794,169.6c0,2.5-2,4.4-4.4,4.4h-13.1c-2.5,0-4.4-2-4.4-4.4v-9.1c0-2.5,2-4.4,4.4-4.4h13.1c2.5,0,4.4,2,4.4,4.4V169.6z
		 M-794,21.6c0,2.5-2,4.4-4.4,4.5h-13.1c-2.5,0-4.4-2-4.4-4.5v-9.1c0-2.5,2-4.4,4.5-4.5h13.1c2.5,0,4.4,2,4.4,4.4L-794,21.6z
		 M-759.8,169.6c0,2.5-2,4.4-4.4,4.4h-13.1c-2.5,0-4.4-2-4.4-4.4v-9.1c0-2.5,2-4.4,4.4-4.4h13.1c2.5,0,4.4,2,4.4,4.4V169.6z
		 M-759.8,21.6c0,2.5-2,4.4-4.4,4.5h-13.1c-2.5,0-4.4-2-4.4-4.5v-9.1c0-2.5,2-4.4,4.5-4.5h13.1c2.5,0,4.4,2,4.4,4.4L-759.8,21.6z
		 M-725.6,169.6c0,2.4-2,4.4-4.4,4.4h-13.1c-2.5,0-4.4-2-4.4-4.4v-9.1c0-2.5,2-4.4,4.4-4.4h13.1c2.5,0,4.4,2,4.4,4.4L-725.6,169.6z
		 M-725.6,21.6c0,2.4-2,4.4-4.4,4.4h-13.1c-2.5,0-4.4-2-4.4-4.5v-9.1c0-2.4,2-4.4,4.4-4.4h13.1c2.5,0,4.4,2,4.4,4.4L-725.6,21.6z
		 M-691.4,169.6c0,2.5-2,4.4-4.4,4.4h-13.1c-2.5,0-4.4-2-4.4-4.4v-9.1c0-2.5,2-4.4,4.4-4.4h13.1c2.5,0,4.4,2,4.4,4.4V169.6z
		 M-691.4,21.6c0,2.5-2,4.4-4.4,4.5h-13.1c-2.5,0-4.4-2-4.4-4.5v-9.1c0-2.5,2-4.4,4.5-4.5h13.1c2.5,0,4.4,2,4.4,4.4L-691.4,21.6z
		 M-657.2,169.6c0,2.5-2,4.4-4.4,4.4h-13.1c-2.5,0-4.4-2-4.4-4.4v-9.1c0-2.5,2-4.4,4.4-4.4h13.1c2.5,0,4.4,2,4.4,4.4V169.6z
		 M-657.2,21.6c0,2.5-2,4.4-4.4,4.4h-13.1c-2.5,0-4.4-2-4.4-4.5v-9.1c0-2.5,2-4.4,4.4-4.4h13.1c2.5,0,4.4,2,4.4,4.4L-657.2,21.6z
		 M-622.9,169.6c0,2.5-2,4.4-4.4,4.4h-13.1c-2.5,0-4.4-2-4.4-4.4v-9.1c0-2.5,2-4.4,4.4-4.4h13.1c2.5,0,4.4,2,4.4,4.4V169.6z
		 M-622.9,21.6c0,2.5-2,4.4-4.4,4.5h-13.1c-2.5,0-4.4-2-4.4-4.5v-9.1c0-2.5,2-4.4,4.5-4.5h13.1c2.5,0,4.4,2,4.4,4.4L-622.9,21.6z
		 M-588.7,169.6c0,2.5-2,4.4-4.4,4.4h-13.1c-2.5,0-4.4-2-4.4-4.4v-9.1c0-2.5,2-4.4,4.4-4.4h13.1c2.5,0,4.4,2,4.4,4.4V169.6z
		 M-588.7,21.6c0,2.5-2,4.4-4.4,4.5h-13.1c-2.5,0-4.4-2-4.4-4.5v-9.1c0-2.5,2-4.4,4.5-4.5h13.1c2.5,0,4.4,2,4.4,4.4L-588.7,21.6z
		 M-554.5,169.6c0,2.5-2,4.4-4.4,4.4H-572c-2.5,0-4.4-2-4.4-4.4v-9.1c0-2.5,2-4.4,4.4-4.4h13.1c2.5,0,4.4,2,4.4,4.4L-554.5,169.6z
		 M-554.5,21.6c0,2.5-2,4.4-4.4,4.5H-572c-2.5,0-4.4-2-4.4-4.5v-9.1c0-2.5,2-4.4,4.4-4.5h13.1c2.5,0,4.4,2,4.4,4.4L-554.5,21.6z
		 M-520.3,169.6c0,2.5-2,4.4-4.4,4.4h-13.1c-2.5,0-4.4-2-4.4-4.4v-9.1c0-2.5,2-4.4,4.4-4.4h13.1c2.5,0,4.4,2,4.4,4.4V169.6z
		 M-520.3,21.6c0,2.5-2,4.4-4.4,4.5h-13.1c-2.5,0-4.4-2-4.4-4.5v-9.1c0-2.5,2-4.4,4.5-4.5h13.1c2.5,0,4.4,2,4.4,4.4L-520.3,21.6z
		 M-486.1,169.6c0,2.5-2,4.4-4.4,4.4h-13.1c-2.5,0-4.4-2-4.4-4.4v-9.1c0-2.5,2-4.4,4.4-4.4h13.1c2.5,0,4.4,2,4.4,4.4V169.6z
		 M-486.1,21.6c0,2.5-2,4.4-4.4,4.4h-13.1c-2.5,0-4.4-2-4.4-4.5v-9.1c0-2.5,2-4.4,4.4-4.4h13.1c2.5,0,4.4,2,4.4,4.4L-486.1,21.6z
		 M-451.8,169.6c0,2.5-2,4.4-4.4,4.4h-13.1c-2.5,0-4.4-2-4.4-4.4v-9.1c0-2.5,2-4.4,4.4-4.4h13.1c2.5,0,4.4,2,4.4,4.4V169.6z
		 M-451.8,21.6c0,2.5-2,4.4-4.4,4.5h-13.1c-2.5,0-4.4-2-4.4-4.5v-9.1c0-2.5,2-4.4,4.5-4.5h13.1c2.5,0,4.4,2,4.4,4.4L-451.8,21.6z
		 M-417.6,169.6c0,2.5-2,4.4-4.4,4.4h-13.1c-2.5,0-4.4-2-4.4-4.4v-9.1c0-2.5,2-4.4,4.4-4.4h13.1c2.5,0,4.4,2,4.4,4.4V169.6z
		 M-417.6,21.6c0,2.5-2,4.4-4.4,4.5h-13.1c-2.5,0-4.4-2-4.4-4.5v-9.1c0-2.5,2-4.4,4.5-4.5h13.1c2.5,0,4.4,2,4.4,4.4L-417.6,21.6z
		 M-383.4,169.6c0,2.5-2,4.4-4.4,4.4H-401c-2.5,0-4.4-2-4.4-4.4v-9.1c0-2.5,2-4.4,4.4-4.4h13.1c2.5,0,4.4,2,4.4,4.4V169.6z
		 M-383.4,21.6c0,2.5-2,4.4-4.4,4.5H-401c-2.5,0-4.4-2-4.4-4.5v-9.1c0-2.5,2-4.4,4.5-4.5h13.1c2.5,0,4.4,2,4.4,4.4L-383.4,21.6z
		 M-349.2,169.6c0,2.5-2,4.4-4.4,4.4h-13.1c-2.5,0-4.4-2-4.4-4.4v-9.1c0-2.5,2-4.4,4.4-4.4h13.1c2.5,0,4.4,2,4.4,4.4V169.6z
		 M-349.2,21.6c0,2.5-2,4.4-4.4,4.5h-13.1c-2.5,0-4.4-2-4.4-4.5v-9.1c0-2.5,2-4.4,4.5-4.5h13.1c2.5,0,4.4,2,4.4,4.4L-349.2,21.6z
		 M-315,169.6c0,2.5-2,4.4-4.4,4.4h-13.1c-2.5,0-4.4-2-4.4-4.4v-9.1c0-2.5,2-4.4,4.4-4.4h13.1c2.5,0,4.4,2,4.4,4.4V169.6z
		 M-315,21.6c0,2.5-2,4.4-4.4,4.5h-13.1c-2.5,0-4.4-2-4.4-4.5v-9.1c0-2.5,2-4.4,4.5-4.5h13.1c2.5,0,4.4,2,4.4,4.4L-315,21.6z
		 M-280.8,169.6c0,2.5-2,4.4-4.4,4.4h-13.1c-2.5,0-4.4-2-4.4-4.4v-9.1c0-2.5,2-4.4,4.4-4.4h13.1c2.5,0,4.4,2,4.4,4.4V169.6z
		 M-280.8,21.6c0,2.5-2,4.4-4.4,4.4h-13.1c-2.5,0-4.4-2-4.4-4.5v-9.1c0-2.5,2-4.4,4.4-4.4h13.1c2.5,0,4.4,2,4.4,4.4L-280.8,21.6z
		 M-246.5,169.6c0,2.5-2,4.5-4.5,4.4h-13.1c-2.5,0-4.4-2-4.4-4.4v-9.1c0-2.5,2-4.4,4.4-4.4h13.1c2.5,0,4.4,2,4.4,4.4L-246.5,169.6z
		 M-246.5,21.6c0,2.5-2,4.5-4.5,4.4h-13.1c-2.5,0-4.4-2-4.4-4.5v-9.1c0-2.5,2-4.5,4.5-4.4h13.1c2.5,0,4.4,2,4.4,4.4L-246.5,21.6z
		 M-212.3,169.6c0,2.5-2,4.4-4.4,4.4h-13.1c-2.5,0-4.4-2-4.4-4.4v-9.1c0-2.5,2-4.4,4.4-4.4h13.1c2.5,0,4.4,2,4.4,4.4V169.6z
		 M-212.3,21.6c0,2.5-2,4.4-4.4,4.5h-13.1c-2.5,0-4.4-2-4.4-4.5v-9.1c0-2.5,2-4.4,4.5-4.5h13.1c2.5,0,4.4,2,4.4,4.4L-212.3,21.6z
		 M-178.1,169.6c0,2.5-2,4.4-4.4,4.4h-13.1c-2.5,0-4.4-2-4.4-4.4v-9.1c0-2.5,2-4.4,4.4-4.4h13.1c2.5,0,4.4,2,4.4,4.4V169.6z
		 M-178.1,21.6c0,2.5-2,4.4-4.4,4.5h-13.1c-2.5,0-4.4-2-4.4-4.5v-9.1c0-2.5,2-4.4,4.5-4.5h13.1c2.5,0,4.4,2,4.4,4.4L-178.1,21.6z
		 M-143.9,169.6c0,2.5-2,4.4-4.4,4.4h-13.1c-2.5,0-4.4-2-4.4-4.4v-9.1c0-2.5,2-4.4,4.4-4.4h13.1c2.5,0,4.4,2,4.4,4.4V169.6z
		 M-143.9,21.6c0,2.5-2,4.4-4.4,4.5h-13.1c-2.5,0-4.4-2-4.4-4.5v-9.1c0-2.5,2-4.4,4.5-4.5h13.1c2.5,0,4.4,2,4.4,4.4L-143.9,21.6z
		 M-109.7,169.6c0,2.5-2,4.4-4.4,4.4h-13.1c-2.5,0-4.4-2-4.4-4.4v-9.1c0-2.5,2-4.4,4.4-4.4h13.1c2.5,0,4.4,2,4.4,4.4V169.6z
		 M-109.7,21.6c0,2.5-2,4.4-4.4,4.4h-13.1c-2.5,0-4.4-2-4.4-4.5v-9.1c0-2.5,2-4.4,4.4-4.4h13.1c2.5,0,4.4,2,4.4,4.4L-109.7,21.6z
		 M-75.4,169.6c0,2.5-2,4.4-4.4,4.4H-93c-2.5,0-4.4-2-4.4-4.4v-9.1c0-2.5,2-4.4,4.4-4.4h13.1c2.5,0,4.4,2,4.4,4.4L-75.4,169.6z
		 M-75.4,21.6c0,2.5-2,4.4-4.4,4.5H-93c-2.5,0-4.4-2-4.4-4.5v-9.1c0-2.5,2-4.4,4.4-4.5h13.1c2.5,0,4.4,2,4.4,4.4L-75.4,21.6z
		 M-41.2,169.6c0,2.5-2,4.4-4.4,4.4h-13.1c-2.5,0-4.4-2-4.4-4.4v-9.1c0-2.5,2-4.4,4.4-4.4h13.1c2.5,0,4.4,2,4.4,4.4V169.6z
		 M-41.2,21.6c0,2.5-2,4.4-4.4,4.5h-13.1c-2.5,0-4.4-2-4.4-4.5v-9.1c0-2.5,2-4.4,4.5-4.5h13.1c2.5,0,4.4,2,4.4,4.4L-41.2,21.6z
		 M-7,169.6c0,2.5-2,4.4-4.4,4.4h-13.1c-2.5,0-4.4-2-4.4-4.4v-9.1c0-2.5,2-4.4,4.4-4.4h13.1c2.5,0,4.4,2,4.4,4.4V169.6z M-7,21.6
		C-7,24-9,26-11.5,26h-13.1c-2.5,0-4.4-2-4.4-4.5v-9.1C-29,10-27,8-24.6,8h13.1C-9,8-7,10-7,12.4L-7,21.6z"/>
</g>
<text transform="matrix(1 0 0 1 -354 508)" style="font-family:'MyriadPro-Regular'; font-size:12px; letter-spacing:33;">	</text>
<g id="reel_copy_8_1_">
	<path class="st0" d="M-4.3,182h1920V0H-4.3 M25.7,169.6c0,2.5-2,4.4-4.5,4.4H8.1c-2.5,0-4.4-2-4.4-4.4v-9.1c0-2.5,2-4.4,4.4-4.4
		h13.1c2.5,0,4.4,2,4.5,4.4V169.6z M25.7,21.6c0,2.5-2,4.4-4.5,4.4H8.1c-2.5,0-4.4-2-4.4-4.5v-9.1C3.7,10,5.7,8,8.1,8h13.1
		c2.5,0,4.4,2,4.5,4.4V21.6z M59.9,169.6c0,2.5-2,4.4-4.5,4.4H42.3c-2.5,0-4.4-2-4.5-4.4v-9.1c0-2.5,2-4.4,4.5-4.4h13.1
		c2.5,0,4.4,2,4.4,4.4L59.9,169.6z M59.9,21.6c0,2.5-2,4.4-4.5,4.4H42.3c-2.5,0-4.4-2-4.5-4.5v-9.1c0-2.5,2-4.4,4.5-4.4h13.1
		c2.5,0,4.4,2,4.4,4.4L59.9,21.6z M94.1,169.6c0,2.4-2,4.4-4.4,4.4H76.6c-2.5,0-4.4-2-4.4-4.4v-9.1c0-2.5,2-4.4,4.4-4.4h13.1
		c2.5,0,4.4,2,4.4,4.4L94.1,169.6z M94.1,21.6c0,2.4-2,4.4-4.4,4.4H76.6c-2.5,0-4.4-2-4.4-4.5v-9.1c0-2.5,2-4.4,4.4-4.4h13.1
		c2.5,0,4.4,2,4.4,4.4L94.1,21.6z M128.3,169.6c0,2.5-2,4.4-4.5,4.4h-13.1c-2.5,0-4.4-2-4.4-4.4v-9.1c0-2.5,2-4.4,4.4-4.4h13.1
		c2.5,0,4.4,2,4.5,4.4V169.6z M128.3,21.6c0,2.5-2,4.4-4.5,4.4h-13.1c-2.5,0-4.4-2-4.4-4.5v-9.1c0-2.5,2-4.4,4.4-4.4h13.1
		c2.5,0,4.4,2,4.5,4.4V21.6z M162.5,169.6c0,2.5-2,4.4-4.4,4.4H145c-2.5,0-4.4-2-4.4-4.4v-9.1c0-2.5,2-4.4,4.4-4.4h13.1
		c2.5,0,4.4,2,4.4,4.4V169.6z M162.5,21.6c0,2.5-2,4.4-4.4,4.4H145c-2.5,0-4.4-2-4.4-4.5v-9.1c0-2.5,2-4.4,4.5-4.4h13.1
		c2.5,0,4.4,2,4.4,4.4L162.5,21.6z M196.8,169.6c0,2.5-2,4.4-4.4,4.4h-13.1c-2.5,0-4.4-2-4.4-4.4v-9.1c0-2.5,2-4.4,4.4-4.4h13.1
		c2.5,0,4.4,2,4.4,4.4V169.6z M196.8,21.6c0,2.5-2,4.4-4.4,4.4h-13.1c-2.5,0-4.4-2-4.4-4.5v-9.1c0-2.5,2-4.4,4.4-4.4h13.1
		c2.5,0,4.4,2,4.4,4.4V21.6z M231,169.6c0,2.5-2,4.4-4.4,4.4h-13.1c-2.5,0-4.4-2-4.4-4.4v-9.1c0-2.5,2-4.4,4.4-4.4h13.1
		c2.5,0,4.4,2,4.4,4.4V169.6z M231,21.6c0,2.5-2,4.4-4.4,4.4h-13.1c-2.5,0-4.4-2-4.4-4.5v-9.1c0-2.5,2-4.4,4.4-4.4h13.1
		c2.5,0,4.4,2,4.4,4.4V21.6z M265.2,169.6c0,2.5-2,4.4-4.5,4.4h-13.1c-2.5,0-4.4-2-4.4-4.4v-9.1c0-2.5,2-4.4,4.4-4.4h13.1
		c2.5,0,4.4,2,4.5,4.4L265.2,169.6z M265.2,21.6c0,2.5-2,4.4-4.5,4.4h-13.1c-2.5,0-4.4-2-4.4-4.5v-9.1c0-2.5,2-4.4,4.4-4.4h13.1
		c2.5,0,4.4,2,4.5,4.4L265.2,21.6z M299.4,169.6c0,2.5-2,4.4-4.5,4.4h-13.1c-2.5,0-4.4-2-4.5-4.4v-9.1c0-2.5,2-4.4,4.5-4.4H295
		c2.5,0,4.4,2,4.5,4.4L299.4,169.6z M299.4,21.6c0,2.5-2,4.4-4.5,4.4h-13.1c-2.5,0-4.4-2-4.5-4.5v-9.1c0-2.5,2-4.4,4.5-4.4H295
		c2.5,0,4.4,2,4.5,4.4L299.4,21.6z M333.6,169.6c0,2.5-2,4.4-4.5,4.4h-13.1c-2.5,0-4.4-2-4.5-4.4v-9.1c0-2.5,2-4.4,4.5-4.4h13.1
		c2.5,0,4.4,2,4.5,4.4V169.6z M333.6,21.6c0,2.5-2,4.4-4.4,4.4h-13.1c-2.4,0-4.4-2-4.4-4.5v-9.1c0-2.4,2-4.4,4.4-4.4h13.1
		c2.5,0,4.5,2,4.5,4.4c0,0,0,0,0,0L333.6,21.6z M367.8,169.6c0,2.5-2,4.4-4.5,4.4h-13.1c-2.5,0-4.4-2-4.5-4.4v-9.1
		c0-2.5,2-4.4,4.5-4.4h13.1c2.5,0,4.4,2,4.5,4.4V169.6z M367.8,21.6c0,2.5-2,4.4-4.4,4.4h-13.1c-2.5,0-4.4-2-4.5-4.5v-9.1
		c0-2.5,2-4.4,4.5-4.4h13.1c2.5,0,4.4,2,4.5,4.4L367.8,21.6z M402.1,169.6c0,2.4-2,4.4-4.4,4.4h-13.1c-2.5,0-4.4-2-4.5-4.4v-9.1
		c0-2.5,2-4.4,4.5-4.4h13.1c2.5,0,4.4,2,4.5,4.4L402.1,169.6z M402.1,21.6c0,2.4-2,4.4-4.4,4.4h-13.1c-2.5,0-4.4-2-4.5-4.5v-9.1
		c0-2.4,2-4.4,4.4-4.4h13.1c2.5,0,4.4,2,4.5,4.4L402.1,21.6z M436.3,169.6c0,2.5-2,4.4-4.5,4.4h-13.1c-2.5,0-4.4-2-4.5-4.4v-9.1
		c0-2.5,2-4.4,4.5-4.4h13.1c2.5,0,4.4,2,4.5,4.4V169.6z M436.3,21.6c0,2.5-2,4.4-4.4,4.4h-13.1c-2.5,0-4.4-2-4.5-4.5v-9.1
		c0-2.5,2-4.4,4.5-4.4h13.1c2.5,0,4.4,2,4.5,4.4L436.3,21.6z M470.5,169.6c0,2.5-2,4.4-4.5,4.4H453c-2.5,0-4.4-2-4.5-4.4v-9.1
		c0-2.5,2-4.4,4.5-4.4h13.1c2.5,0,4.4,2,4.5,4.4V169.6z M470.5,21.6c0,2.5-2,4.4-4.4,4.4H453c-2.5,0-4.4-2-4.5-4.5v-9.1
		c0-2.5,2-4.4,4.5-4.4h13.1c2.5,0,4.4,2,4.5,4.4L470.5,21.6z M504.7,169.6c0,2.5-2,4.4-4.4,4.4h-13.1c-2.5,0-4.4-2-4.5-4.4v-9.1
		c0-2.5,2-4.4,4.5-4.4h13.1c2.5,0,4.4,2,4.5,4.4L504.7,169.6z M504.7,21.6c0,2.5-2,4.4-4.4,4.4h-13.1c-2.5,0-4.4-2-4.5-4.5v-9.1
		c0-2.5,2-4.4,4.5-4.4h13.1c2.5,0,4.4,2,4.5,4.4L504.7,21.6z M538.9,169.6c0,2.5-2,4.4-4.5,4.4h-13.1c-2.5,0-4.4-2-4.5-4.4v-9.1
		c0-2.5,2-4.4,4.5-4.4h13.1c2.5,0,4.4,2,4.5,4.4V169.6z M538.9,21.6c0,2.5-2,4.4-4.5,4.4h-13.1c-2.5,0-4.4-2-4.5-4.5v-9.1
		c0-2.5,2-4.4,4.4-4.4h13.1c2.5,0,4.4,2,4.5,4.4L538.9,21.6z M573.2,169.6c0,2.5-2,4.5-4.5,4.5c0,0,0,0,0,0h-13.1
		c-2.5,0-4.4-2-4.5-4.4v-9.1c0-2.5,2-4.4,4.5-4.4h13.1c2.5,0,4.4,2,4.5,4.4L573.2,169.6z M573.2,21.6c0,2.5-2,4.5-4.5,4.5
		c0,0,0,0,0,0h-13.1c-2.5,0-4.4-2-4.5-4.5v-9.1c0-2.5,2-4.5,4.5-4.5c0,0,0,0,0,0h13.1c2.5,0,4.4,2,4.5,4.4L573.2,21.6z M607.4,169.6
		c0,2.5-2,4.4-4.5,4.4h-13.1c-2.5,0-4.4-2-4.5-4.4v-9.1c0-2.5,2-4.4,4.5-4.4h13.1c2.5,0,4.4,2,4.5,4.4V169.6z M607.4,21.6
		c0,2.5-2,4.4-4.4,4.4h-13.1c-2.5,0-4.4-2-4.5-4.5v-9.1c0-2.5,2-4.4,4.4-4.4h13.1c2.5,0,4.4,2,4.5,4.4V21.6z M641.6,169.6
		c0,2.5-2,4.4-4.5,4.4H624c-2.5,0-4.4-2-4.5-4.4v-9.1c0-2.5,2-4.4,4.5-4.4h13.1c2.5,0,4.4,2,4.5,4.4V169.6z M641.6,21.6
		c0,2.5-2,4.4-4.4,4.4H624c-2.5,0-4.4-2-4.5-4.5v-9.1c0-2.5,2-4.4,4.5-4.4h13.1c2.5,0,4.4,2,4.5,4.4L641.6,21.6z M675.8,169.6
		c0,2.5-2,4.4-4.4,4.4h-13.1c-2.5,0-4.4-2-4.5-4.4v-9.1c0-2.5,2-4.4,4.5-4.4h13.1c2.5,0,4.4,2,4.5,4.4L675.8,169.6z M675.8,21.6
		c0,2.5-2,4.4-4.4,4.4h-13.1c-2.5,0-4.4-2-4.5-4.5v-9.1c0-2.5,2-4.4,4.5-4.4h13.1c2.5,0,4.4,2,4.5,4.4L675.8,21.6z M710,169.6
		c0,2.5-2,4.4-4.5,4.4h-13.1c-2.5,0-4.4-2-4.5-4.4v-9.1c0-2.5,2-4.4,4.5-4.4h13.1c2.5,0,4.4,2,4.5,4.4V169.6z M710,21.6
		c0,2.5-2,4.4-4.4,4.4h-13.1c-2.5,0-4.4-2-4.5-4.5v-9.1c0-2.5,2-4.4,4.5-4.4h13.1c2.5,0,4.4,2,4.5,4.4L710,21.6z M744.2,169.6
		c0,2.5-2,4.4-4.5,4.4h-13.1c-2.5,0-4.4-2-4.5-4.4v-9.1c0-2.5,2-4.4,4.5-4.4h13.1c2.5,0,4.4,2,4.5,4.4L744.2,169.6z M744.2,21.6
		c0,2.5-2,4.4-4.4,4.4h-13.1c-2.5,0-4.4-2-4.5-4.5v-9.1c0-2.5,2-4.4,4.5-4.4h13.1c2.5,0,4.4,2,4.5,4.4L744.2,21.6z M778.5,169.6
		c0,2.5-2,4.4-4.5,4.4h-13.1c-2.5,0-4.4-2-4.5-4.4v-9.1c0-2.5,2-4.4,4.5-4.4H774c2.5,0,4.4,2,4.5,4.4V169.6z M778.5,21.6
		c0,2.5-2,4.4-4.4,4.4h-13.1c-2.5,0-4.4-2-4.5-4.5v-9.1c0-2.5,2-4.4,4.5-4.4H774c2.5,0,4.4,2,4.5,4.4L778.5,21.6z M812.7,169.6
		c0,2.5-2,4.4-4.5,4.4h-13.1c-2.5,0-4.4-2-4.5-4.4v-9.1c0-2.5,2-4.4,4.5-4.4h13.1c2.5,0,4.4,2,4.5,4.4V169.6z M812.7,21.6
		c0,2.5-2,4.4-4.4,4.4h-13.1c-2.5,0-4.5-2-4.5-4.4c0,0,0,0,0,0v-9.1c0-2.5,2-4.5,4.5-4.4h13.1c2.4,0,4.4,2,4.4,4.4L812.7,21.6z
		 M846.9,169.6c0,2.5-2,4.4-4.5,4.4h-13.1c-2.5,0-4.4-2-4.5-4.4v-9.1c0-2.5,2-4.4,4.5-4.4h13.1c2.5,0,4.4,2,4.5,4.4V169.6z
		 M846.9,21.6c0,2.5-2,4.4-4.4,4.4h-13.1c-2.5,0-4.4-2-4.5-4.5v-9.1c0-2.5,2-4.4,4.5-4.4h13.1c2.5,0,4.4,2,4.5,4.4L846.9,21.6z
		 M881.1,169.6c0,2.5-2,4.4-4.4,4.4h-13.1c-2.5,0-4.4-2-4.5-4.4v-9.1c0-2.5,2-4.4,4.5-4.4h13.1c2.5,0,4.4,2,4.5,4.4L881.1,169.6z
		 M881.1,21.6c0,2.5-2,4.4-4.4,4.4h-13.1c-2.5,0-4.4-2-4.5-4.5v-9.1c0-2.5,2-4.4,4.5-4.4h13.1c2.5,0,4.4,2,4.5,4.4L881.1,21.6z
		 M915.3,169.6c0,2.5-2,4.4-4.5,4.4h-13.1c-2.5,0-4.4-2-4.5-4.4v-9.1c0-2.5,2-4.4,4.5-4.4h13.1c2.5,0,4.4,2,4.5,4.4V169.6z
		 M915.3,21.6c0,2.5-2,4.4-4.4,4.4h-13.1c-2.5,0-4.4-2-4.5-4.5v-9.1c0-2.5,2-4.4,4.5-4.4h13.1c2.5,0,4.4,2,4.5,4.4L915.3,21.6z
		 M949.6,169.6c0,2.5-2,4.4-4.5,4.4H932c-2.5,0-4.4-2-4.5-4.4v-9.1c0-2.5,2-4.4,4.5-4.4h13.1c2.5,0,4.4,2,4.5,4.4V169.6z
		 M949.6,21.6c0,2.5-2,4.4-4.4,4.4H932c-2.5,0-4.4-2-4.5-4.5v-9.1c0-2.5,2-4.4,4.5-4.4h13.1c2.5,0,4.4,2,4.5,4.4L949.6,21.6z
		 M983.8,169.6c0,2.5-2,4.4-4.5,4.4h-13.1c-2.5,0-4.4-2-4.5-4.4v-9.1c0-2.5,2-4.4,4.5-4.4h13.1c2.5,0,4.4,2,4.5,4.4V169.6z
		 M983.8,21.6c0,2.5-2,4.4-4.4,4.4h-13.1c-2.5,0-4.4-2-4.5-4.5v-9.1c0-2.5,2-4.4,4.5-4.4h13.1c2.5,0,4.4,2,4.5,4.4L983.8,21.6z
		 M1018,169.6c0,2.5-2,4.4-4.5,4.4h-13.1c-2.5,0-4.4-2-4.5-4.4v-9.1c0-2.5,2-4.4,4.5-4.4h13.1c2.5,0,4.4,2,4.5,4.4V169.6z
		 M1018,21.6c0,2.5-2,4.4-4.5,4.5h-13.1c-2.5,0-4.4-2-4.5-4.5v-9.1c0-2.5,2-4.4,4.5-4.5h13.1c2.5,0,4.4,2,4.5,4.4L1018,21.6z
		 M1052.2,169.6c0,2.5-2,4.4-4.4,4.4h-13.1c-2.5,0-4.4-2-4.4-4.4v-9.1c0-2.5,2-4.4,4.4-4.4h13.1c2.5,0,4.4,2,4.4,4.4L1052.2,169.6z
		 M1052.2,21.6c0,2.5-2,4.4-4.4,4.4h-13.1c-2.5,0-4.4-2-4.4-4.5v-9.1c0-2.5,2-4.4,4.4-4.4h13.1c2.5,0,4.4,2,4.4,4.4L1052.2,21.6z
		 M1086.4,169.6c0,2.5-2,4.4-4.4,4.4h-13.1c-2.5,0-4.4-2-4.4-4.4v-9.1c0-2.5,2-4.4,4.4-4.4h13.1c2.5,0,4.4,2,4.4,4.4V169.6z
		 M1086.4,21.6c0,2.5-2,4.4-4.4,4.5h-13.1c-2.5,0-4.4-2-4.4-4.5v-9.1c0-2.5,2-4.4,4.5-4.5h13.1c2.5,0,4.4,2,4.4,4.4L1086.4,21.6z
		 M1120.6,169.6c0,2.5-2,4.4-4.4,4.4h-13.1c-2.5,0-4.4-2-4.4-4.4v-9.1c0-2.5,2-4.4,4.4-4.4h13.1c2.5,0,4.4,2,4.4,4.4V169.6z
		 M1120.6,21.6c0,2.5-2,4.4-4.4,4.5h-13.1c-2.5,0-4.4-2-4.4-4.5v-9.1c0-2.5,2-4.4,4.5-4.5h13.1c2.5,0,4.4,2,4.4,4.4L1120.6,21.6z
		 M1154.9,169.6c0,2.5-2,4.4-4.4,4.4h-13.1c-2.5,0-4.4-2-4.4-4.4v-9.1c0-2.5,2-4.4,4.4-4.4h13.1c2.5,0,4.4,2,4.4,4.4V169.6z
		 M1154.9,21.6c0,2.5-2,4.4-4.4,4.5h-13.1c-2.5,0-4.4-2-4.4-4.5v-9.1c0-2.5,2-4.4,4.5-4.5h13.1c2.5,0,4.4,2,4.4,4.4L1154.9,21.6z
		 M1189.1,169.6c0,2.4-2,4.4-4.4,4.4h-13.1c-2.5,0-4.4-2-4.4-4.4v-9.1c0-2.5,2-4.4,4.4-4.4h13.1c2.5,0,4.4,2,4.4,4.4L1189.1,169.6z
		 M1189.1,21.6c0,2.4-2,4.4-4.4,4.4h-13.1c-2.5,0-4.4-2-4.4-4.5v-9.1c0-2.4,2-4.4,4.4-4.4h13.1c2.5,0,4.4,2,4.4,4.4L1189.1,21.6z
		 M1223.3,169.6c0,2.5-2,4.4-4.4,4.4h-13.1c-2.5,0-4.4-2-4.4-4.4v-9.1c0-2.5,2-4.4,4.4-4.4h13.1c2.5,0,4.4,2,4.4,4.4V169.6z
		 M1223.3,21.6c0,2.5-2,4.4-4.4,4.5h-13.1c-2.5,0-4.4-2-4.4-4.5v-9.1c0-2.5,2-4.4,4.5-4.5h13.1c2.5,0,4.4,2,4.4,4.4L1223.3,21.6z
		 M1257.5,169.6c0,2.5-2,4.4-4.4,4.4H1240c-2.5,0-4.4-2-4.4-4.4v-9.1c0-2.5,2-4.4,4.4-4.4h13.1c2.5,0,4.4,2,4.4,4.4V169.6z
		 M1257.5,21.6c0,2.5-2,4.4-4.4,4.4H1240c-2.5,0-4.4-2-4.4-4.5v-9.1c0-2.5,2-4.4,4.4-4.4h13.1c2.5,0,4.4,2,4.4,4.4L1257.5,21.6z
		 M1291.7,169.6c0,2.5-2,4.4-4.4,4.4h-13.1c-2.5,0-4.4-2-4.4-4.4v-9.1c0-2.5,2-4.4,4.4-4.4h13.1c2.5,0,4.4,2,4.4,4.4V169.6z
		 M1291.7,21.6c0,2.5-2,4.4-4.4,4.5h-13.1c-2.5,0-4.4-2-4.4-4.5v-9.1c0-2.5,2-4.4,4.5-4.5h13.1c2.5,0,4.4,2,4.4,4.4L1291.7,21.6z
		 M1326,169.6c0,2.5-2,4.4-4.4,4.4h-13.1c-2.5,0-4.4-2-4.4-4.4v-9.1c0-2.5,2-4.4,4.4-4.4h13.1c2.5,0,4.4,2,4.4,4.4V169.6z
		 M1326,21.6c0,2.5-2,4.4-4.4,4.5h-13.1c-2.5,0-4.4-2-4.4-4.5v-9.1c0-2.5,2-4.4,4.5-4.5h13.1c2.5,0,4.4,2,4.4,4.4L1326,21.6z
		 M1360.2,169.6c0,2.5-2,4.4-4.4,4.4h-13.1c-2.5,0-4.4-2-4.4-4.4v-9.1c0-2.5,2-4.4,4.4-4.4h13.1c2.5,0,4.4,2,4.4,4.4L1360.2,169.6z
		 M1360.2,21.6c0,2.5-2,4.4-4.4,4.5h-13.1c-2.5,0-4.4-2-4.4-4.5v-9.1c0-2.5,2-4.4,4.4-4.5h13.1c2.5,0,4.4,2,4.4,4.4L1360.2,21.6z
		 M1394.4,169.6c0,2.5-2,4.4-4.4,4.4h-13.1c-2.5,0-4.4-2-4.4-4.4v-9.1c0-2.5,2-4.4,4.4-4.4h13.1c2.5,0,4.4,2,4.4,4.4V169.6z
		 M1394.4,21.6c0,2.5-2,4.4-4.4,4.5h-13.1c-2.5,0-4.4-2-4.4-4.5v-9.1c0-2.5,2-4.4,4.5-4.5h13.1c2.5,0,4.4,2,4.4,4.4L1394.4,21.6z
		 M1428.6,169.6c0,2.5-2,4.4-4.4,4.4h-13.1c-2.5,0-4.4-2-4.4-4.4v-9.1c0-2.5,2-4.4,4.4-4.4h13.1c2.5,0,4.4,2,4.4,4.4V169.6z
		 M1428.6,21.6c0,2.5-2,4.4-4.4,4.4h-13.1c-2.5,0-4.4-2-4.4-4.5v-9.1c0-2.5,2-4.4,4.4-4.4h13.1c2.5,0,4.4,2,4.4,4.4L1428.6,21.6z
		 M1462.8,169.6c0,2.5-2,4.4-4.4,4.4h-13.1c-2.5,0-4.4-2-4.4-4.4v-9.1c0-2.5,2-4.4,4.4-4.4h13.1c2.5,0,4.4,2,4.4,4.4V169.6z
		 M1462.8,21.6c0,2.5-2,4.4-4.4,4.5h-13.1c-2.5,0-4.4-2-4.4-4.5v-9.1c0-2.5,2-4.4,4.5-4.5h13.1c2.5,0,4.4,2,4.4,4.4L1462.8,21.6z
		 M1497,169.6c0,2.5-2,4.4-4.4,4.4h-13.1c-2.5,0-4.4-2-4.4-4.4v-9.1c0-2.5,2-4.4,4.4-4.4h13.1c2.5,0,4.4,2,4.4,4.4V169.6z
		 M1497,21.6c0,2.5-2,4.4-4.4,4.5h-13.1c-2.5,0-4.4-2-4.4-4.5v-9.1c0-2.5,2-4.4,4.5-4.5h13.1c2.5,0,4.4,2,4.4,4.4L1497,21.6z
		 M1531.3,169.6c0,2.5-2,4.4-4.4,4.4h-13.1c-2.5,0-4.4-2-4.4-4.4v-9.1c0-2.5,2-4.4,4.4-4.4h13.1c2.5,0,4.4,2,4.4,4.4V169.6z
		 M1531.3,21.6c0,2.5-2,4.4-4.4,4.5h-13.1c-2.5,0-4.4-2-4.4-4.5v-9.1c0-2.5,2-4.4,4.5-4.5h13.1c2.5,0,4.4,2,4.4,4.4L1531.3,21.6z
		 M1565.5,169.6c0,2.5-2,4.4-4.4,4.4h-13.1c-2.5,0-4.4-2-4.4-4.4v-9.1c0-2.5,2-4.4,4.4-4.4h13.1c2.5,0,4.4,2,4.4,4.4V169.6z
		 M1565.5,21.6c0,2.5-2,4.4-4.4,4.5h-13.1c-2.5,0-4.4-2-4.4-4.5v-9.1c0-2.5,2-4.4,4.5-4.5h13.1c2.5,0,4.4,2,4.4,4.4L1565.5,21.6z
		 M1599.7,169.6c0,2.5-2,4.4-4.4,4.4h-13.1c-2.5,0-4.4-2-4.4-4.4v-9.1c0-2.5,2-4.4,4.4-4.4h13.1c2.5,0,4.4,2,4.4,4.4V169.6z
		 M1599.7,21.6c0,2.5-2,4.4-4.4,4.5h-13.1c-2.5,0-4.4-2-4.4-4.5v-9.1c0-2.5,2-4.4,4.5-4.5h13.1c2.5,0,4.4,2,4.4,4.4L1599.7,21.6z
		 M1633.9,169.6c0,2.5-2,4.4-4.4,4.4h-13.1c-2.5,0-4.4-2-4.4-4.4v-9.1c0-2.5,2-4.4,4.4-4.4h13.1c2.5,0,4.4,2,4.4,4.4V169.6z
		 M1633.9,21.6c0,2.5-2,4.4-4.4,4.4h-13.1c-2.5,0-4.4-2-4.4-4.5v-9.1c0-2.5,2-4.4,4.4-4.4h13.1c2.5,0,4.4,2,4.4,4.4L1633.9,21.6z
		 M1668.1,169.6c0,2.5-2,4.5-4.5,4.4h-13.1c-2.5,0-4.4-2-4.4-4.4v-9.1c0-2.5,2-4.4,4.4-4.4h13.1c2.5,0,4.4,2,4.4,4.4L1668.1,169.6z
		 M1668.1,21.6c0,2.5-2,4.5-4.5,4.4h-13.1c-2.5,0-4.4-2-4.4-4.5v-9.1c0-2.5,2-4.5,4.5-4.4h13.1c2.5,0,4.4,2,4.4,4.4L1668.1,21.6z
		 M1702.4,169.6c0,2.5-2,4.4-4.4,4.4h-13.1c-2.5,0-4.4-2-4.4-4.4v-9.1c0-2.5,2-4.4,4.4-4.4h13.1c2.5,0,4.4,2,4.4,4.4V169.6z
		 M1702.4,21.6c0,2.5-2,4.4-4.4,4.5h-13.1c-2.5,0-4.4-2-4.4-4.5v-9.1c0-2.5,2-4.4,4.5-4.5h13.1c2.5,0,4.4,2,4.4,4.4L1702.4,21.6z
		 M1736.6,169.6c0,2.5-2,4.4-4.4,4.4H1719c-2.5,0-4.4-2-4.4-4.4v-9.1c0-2.5,2-4.4,4.4-4.4h13.1c2.5,0,4.4,2,4.4,4.4V169.6z
		 M1736.6,21.6c0,2.5-2,4.4-4.4,4.5H1719c-2.5,0-4.4-2-4.4-4.5v-9.1c0-2.5,2-4.4,4.5-4.5h13.1c2.5,0,4.4,2,4.4,4.4L1736.6,21.6z
		 M1770.8,169.6c0,2.5-2,4.4-4.4,4.4h-13.1c-2.5,0-4.4-2-4.4-4.4v-9.1c0-2.5,2-4.4,4.4-4.4h13.1c2.5,0,4.4,2,4.4,4.4V169.6z
		 M1770.8,21.6c0,2.5-2,4.4-4.4,4.5h-13.1c-2.5,0-4.4-2-4.4-4.5v-9.1c0-2.5,2-4.4,4.5-4.5h13.1c2.5,0,4.4,2,4.4,4.4L1770.8,21.6z
		 M1805,169.6c0,2.5-2,4.4-4.4,4.4h-13.1c-2.5,0-4.4-2-4.4-4.4v-9.1c0-2.5,2-4.4,4.4-4.4h13.1c2.5,0,4.4,2,4.4,4.4V169.6z
		 M1805,21.6c0,2.5-2,4.4-4.4,4.4h-13.1c-2.5,0-4.4-2-4.4-4.5v-9.1c0-2.5,2-4.4,4.4-4.4h13.1c2.5,0,4.4,2,4.4,4.4L1805,21.6z
		 M1839.2,169.6c0,2.5-2,4.4-4.4,4.4h-13.1c-2.5,0-4.4-2-4.4-4.4v-9.1c0-2.5,2-4.4,4.4-4.4h13.1c2.5,0,4.4,2,4.4,4.4L1839.2,169.6z
		 M1839.2,21.6c0,2.5-2,4.4-4.4,4.5h-13.1c-2.5,0-4.4-2-4.4-4.5v-9.1c0-2.5,2-4.4,4.4-4.5h13.1c2.5,0,4.4,2,4.4,4.4L1839.2,21.6z
		 M1873.4,169.6c0,2.5-2,4.4-4.4,4.4h-13.1c-2.5,0-4.4-2-4.4-4.4v-9.1c0-2.5,2-4.4,4.4-4.4h13.1c2.5,0,4.4,2,4.4,4.4V169.6z
		 M1873.4,21.6c0,2.5-2,4.4-4.4,4.5h-13.1c-2.5,0-4.4-2-4.4-4.5v-9.1c0-2.5,2-4.4,4.5-4.5h13.1c2.5,0,4.4,2,4.4,4.4L1873.4,21.6z
		 M1907.7,169.6c0,2.5-2,4.4-4.4,4.4h-13.1c-2.5,0-4.4-2-4.4-4.4v-9.1c0-2.5,2-4.4,4.4-4.4h13.1c2.5,0,4.4,2,4.4,4.4V169.6z
		 M1907.7,21.6c0,2.5-2,4.4-4.4,4.5h-13.1c-2.5,0-4.4-2-4.4-4.5v-9.1c0-2.5,2-4.4,4.5-4.5h13.1c2.5,0,4.4,2,4.4,4.4L1907.7,21.6z"/>
</g>
</svg>
