<?xml version="1.0" encoding="utf-8"?>
<!-- Generator: Adobe Illustrator 22.0.1, SVG Export Plug-In . SVG Version: 6.00 Build 0)  -->
<svg version="1.1" id="Layer_1" xmlns="http://www.w3.org/2000/svg" xmlns:xlink="http://www.w3.org/1999/xlink" x="0px" y="0px"
	 viewBox="0 0 1916 182" style="enable-background:new 0 0 1916 182;" xml:space="preserve">
<style type="text/css">
	.st0{fill:#009FE5;}
</style>
<title>Asset 1</title>
<path class="st0" d="M1916,174.1h-5.3c-2.7,0-4.9-2-4.9-4.4v-9.1c0-2.5,2.2-4.4,4.9-4.4h5.3V26.1h-5.3c-2.7,0-4.9-2-4.9-4.5v-9.1
	c0-2.5,2.2-4.4,4.9-4.4h5.3V0.2H-0.2v7.9H7c2.7,0,4.9,2,4.9,4.4v9.2c0,2.5-2.2,4.4-4.9,4.4h-7.2v130.1H7c2.7,0,4.9,2,4.9,4.4v9.1
	c0,2.5-2.2,4.4-4.9,4.4h-7.2v8.1H1916V174.1z M49.5,169.7c0,2.4-2.2,4.4-4.9,4.4H30.2c-2.7,0-4.9-2-4.9-4.4v-9.1
	c0-2.5,2.2-4.4,4.9-4.4h14.4c2.7,0,4.9,2,4.9,4.4V169.7z M49.5,21.7c0,2.4-2.2,4.4-4.9,4.4H30.2c-2.7,0-4.9-2-4.9-4.5v-9.1
	c0-2.5,2.2-4.4,4.9-4.4h14.4c2.7,0,4.9,2,4.9,4.4V21.7z M87.1,169.7c0,2.5-2.2,4.4-4.9,4.4H67.8c-2.7,0-4.9-2-4.9-4.4v-9.1
	c0-2.5,2.2-4.4,4.9-4.4h14.4c2.7,0,4.9,2,4.9,4.4C87.1,160.6,87.1,169.7,87.1,169.7z M87.1,21.7c0,2.5-2.2,4.4-4.9,4.4H67.8
	c-2.7,0-4.9-2-4.9-4.5v-9.1c0-2.5,2.2-4.4,4.9-4.4h14.4c2.7,0,4.9,2,4.9,4.4C87.1,12.5,87.1,21.7,87.1,21.7z M124.7,169.7
	c0,2.5-2.2,4.4-4.9,4.4h-14.4c-2.7,0-4.9-2-4.9-4.4v-9.1c0-2.5,2.2-4.4,4.9-4.4h14.4c2.7,0,4.9,2,4.9,4.4V169.7z M124.7,21.7
	c0,2.5-2.2,4.4-4.9,4.4h-14.4c-2.7,0-4.9-2-4.9-4.5v-9.1c0-2.5,2.2-4.4,4.9-4.4h14.4c2.7,0,4.9,2,4.9,4.4V21.7z M162.3,169.7
	c0,2.5-2.2,4.4-4.9,4.4H143c-2.7,0-4.9-2-4.9-4.4v-9.1c0-2.5,2.2-4.4,4.9-4.4h14.4c2.7,0,4.9,2,4.9,4.4V169.7z M162.3,21.7
	c0,2.5-2.2,4.4-4.9,4.4H143c-2.7,0-4.9-2-4.9-4.5v-9.1c0-2.5,2.2-4.4,4.9-4.4h14.4c2.7,0,4.9,2,4.9,4.4V21.7z M199.9,169.7
	c0,2.5-2.2,4.4-4.9,4.4h-14.4c-2.7,0-4.9-2-4.9-4.4v-9.1c0-2.5,2.2-4.4,4.9-4.4H195c2.7,0,4.9,2,4.9,4.4V169.7z M199.9,21.7
	c0,2.5-2.2,4.4-4.9,4.4h-14.4c-2.7,0-4.9-2-4.9-4.5v-9.1c0-2.5,2.2-4.4,4.9-4.4H195c2.7,0,4.9,2,4.9,4.4V21.7z M237.5,169.7
	c0,2.5-2.2,4.4-4.9,4.4h-14.4c-2.7,0-4.9-2-4.9-4.4v-9.1c0-2.5,2.2-4.4,4.9-4.4h14.4c2.7,0,4.9,2,4.9,4.4V169.7z M237.5,21.7
	c0,2.5-2.2,4.4-4.9,4.4h-14.4c-2.7,0-4.9-2-4.9-4.5v-9.1c0-2.5,2.2-4.4,4.9-4.4h14.4c2.7,0,4.9,2,4.9,4.4V21.7z M275.1,169.7
	c0,2.5-2.2,4.4-4.9,4.4h-14.4c-2.7,0-4.9-2-4.9-4.4v-9.1c0-2.5,2.2-4.4,4.9-4.4h14.4c2.7,0,4.9,2,4.9,4.4V169.7z M275.1,21.7
	c0,2.5-2.2,4.4-4.9,4.4h-14.4c-2.7,0-4.9-2-4.9-4.5v-9.1c0-2.5,2.2-4.4,4.9-4.4h14.4c2.7,0,4.9,2,4.9,4.4V21.7z M312.7,169.7
	c0,2.5-2.2,4.4-4.9,4.4h-14.4c-2.7,0-4.9-2-4.9-4.4v-9.1c0-2.5,2.2-4.4,4.9-4.4h14.4c2.7,0,4.9,2,4.9,4.4V169.7z M312.7,21.7
	c0,2.5-2.2,4.4-4.9,4.4h-14.4c-2.7,0-4.8-2-4.8-4.5v-9.1c0-2.4,2.2-4.4,4.8-4.4h14.4c2.7,0,4.9,2,4.9,4.4V21.7z M350.4,169.7
	c0,2.5-2.2,4.4-4.9,4.4h-14.4c-2.7,0-4.9-2-4.9-4.4v-9.1c0-2.5,2.2-4.4,4.9-4.4h14.4c2.7,0,4.9,2,4.9,4.4V169.7z M350.4,21.7
	c0,2.5-2.2,4.4-4.9,4.4h-14.4c-2.7,0-4.9-2-4.9-4.5v-9.1c0-2.5,2.2-4.4,4.9-4.4h14.4c2.7,0,4.9,2,4.9,4.4V21.7z M388,169.7
	c0,2.4-2.2,4.4-4.8,4.4h-14.4c-2.7,0-4.9-2-4.9-4.4v-9.1c0-2.5,2.2-4.4,4.9-4.4h14.4c2.7,0,4.9,2,4.9,4.4L388,169.7z M388,21.7
	c0,2.4-2.2,4.4-4.8,4.4h-14.4c-2.7,0-4.9-2-4.9-4.5v-9.1c0-2.4,2.2-4.4,4.8-4.4h14.5c2.7,0,4.9,2,4.9,4.4L388,21.7z M425.6,169.7
	c0,2.5-2.2,4.4-4.9,4.4h-14.4c-2.7,0-4.9-2-4.9-4.4v-9.1c0-2.5,2.2-4.4,4.9-4.4h14.4c2.7,0,4.9,2,4.9,4.4V169.7z M425.6,21.7
	c0,2.5-2.2,4.4-4.9,4.4h-14.4c-2.7,0-4.9-2-4.9-4.5v-9.1c0-2.5,2.2-4.4,4.9-4.4h14.4c2.7,0,4.9,2,4.9,4.4V21.7z M463.2,169.7
	c0,2.5-2.2,4.4-4.9,4.4h-14.4c-2.7,0-4.9-2-4.9-4.4v-9.1c0-2.5,2.2-4.4,4.9-4.4h14.4c2.7,0,4.9,2,4.9,4.4V169.7z M463.2,21.7
	c0,2.5-2.2,4.4-4.9,4.4h-14.4c-2.7,0-4.9-2-4.9-4.5v-9.1c0-2.5,2.2-4.4,4.9-4.4h14.4c2.7,0,4.9,2,4.9,4.4V21.7z M500.8,169.7
	c0,2.5-2.2,4.4-4.9,4.4h-14.4c-2.7,0-4.9-2-4.9-4.4v-9.1c0-2.5,2.2-4.4,4.9-4.4h14.4c2.7,0,4.9,2,4.9,4.4V169.7z M500.8,21.7
	c0,2.5-2.2,4.4-4.9,4.4h-14.4c-2.7,0-4.9-2-4.9-4.5v-9.1c0-2.5,2.2-4.4,4.9-4.4h14.4c2.7,0,4.9,2,4.9,4.4V21.7z M538.4,169.7
	c0,2.5-2.2,4.4-4.9,4.4h-14.4c-2.7,0-4.9-2-4.9-4.4v-9.1c0-2.5,2.2-4.4,4.9-4.4h14.4c2.7,0,4.9,2,4.9,4.4V169.7z M538.4,21.7
	c0,2.5-2.2,4.4-4.9,4.4h-14.4c-2.7,0-4.9-2-4.9-4.5v-9.1c0-2.5,2.2-4.4,4.9-4.4h14.4c2.7,0,4.9,2,4.9,4.4V21.7z M576,169.7
	c0,2.5-2.2,4.5-4.9,4.5h-14.4c-2.7,0-4.9-2-4.9-4.4v-9.1c0-2.5,2.2-4.4,4.9-4.4h14.4c2.7,0,4.9,2,4.9,4.4V169.7z M576,21.7
	c0,2.5-2.2,4.5-4.9,4.5h-14.4c-2.7,0-4.9-2-4.9-4.5v-9.1c0-2.5,2.2-4.5,4.9-4.4h14.4c2.7,0,4.9,2,4.9,4.4V21.7z M613.6,169.7
	c0,2.5-2.2,4.4-4.9,4.4h-14.4c-2.7,0-4.9-2-4.9-4.4v-9.1c0-2.5,2.2-4.4,4.9-4.4h14.4c2.7,0,4.9,2,4.9,4.4V169.7z M613.6,21.7
	c0,2.5-2.2,4.4-4.9,4.4h-14.4c-2.7,0-4.9-2-4.9-4.5v-9.1c0-2.5,2.2-4.4,4.9-4.4h14.4c2.7,0,4.9,2,4.9,4.4V21.7z M651.3,169.7
	L651.3,169.7c0,2.5-2.2,4.4-4.9,4.4H632c-2.7,0-4.9-2-4.9-4.4v-9.1c0-2.5,2.2-4.4,4.9-4.4h14.4c2.7,0,4.9,2,4.9,4.4V169.7z
	 M651.3,21.7c0,2.5-2.2,4.4-4.9,4.4H632c-2.7,0-4.9-2-4.9-4.5v-9.1c0-2.5,2.2-4.4,4.9-4.4h14.4c2.7,0,4.9,2,4.9,4.4L651.3,21.7z
	 M688.9,169.7c0,2.5-2.2,4.4-4.9,4.4h-14.4c-2.7,0-4.9-2-4.9-4.4v-9.1c0-2.5,2.2-4.4,4.9-4.4H684c2.7,0,4.9,2,4.9,4.4V169.7z
	 M688.9,21.7c0,2.5-2.2,4.4-4.9,4.4h-14.4c-2.7,0-4.9-2-4.9-4.5v-9.1c0-2.5,2.2-4.4,4.9-4.4H684c2.7,0,4.9,2,4.9,4.4V21.7z
	 M726.5,169.7c0,2.5-2.2,4.4-4.9,4.4h-14.4c-2.7,0-4.9-2-4.9-4.4v-9.1c0-2.5,2.2-4.4,4.9-4.4h14.4c2.7,0,4.9,2,4.9,4.4V169.7z
	 M726.5,21.7c0,2.5-2.2,4.4-4.9,4.4h-14.4c-2.7,0-4.9-2-4.9-4.5v-9.1c0-2.5,2.2-4.4,4.9-4.4h14.4c2.7,0,4.9,2,4.9,4.4V21.7z
	 M764.1,169.7c0,2.5-2.2,4.4-4.9,4.4h-14.4c-2.7,0-4.9-2-4.9-4.4v-9.1c0-2.5,2.2-4.4,4.9-4.4h14.4c2.7,0,4.9,2,4.9,4.4V169.7z
	 M764.1,21.7c0,2.5-2.2,4.4-4.9,4.4h-14.4c-2.7,0-4.9-2-4.9-4.5v-9.1c0-2.5,2.2-4.4,4.9-4.4h14.4c2.7,0,4.9,2,4.9,4.4V21.7z
	 M801.7,169.7c0,2.5-2.2,4.4-4.9,4.4h-14.4c-2.7,0-4.9-2-4.9-4.4v-9.1c0-2.5,2.2-4.4,4.9-4.4h14.4c2.7,0,4.9,2,4.9,4.4V169.7z
	 M801.7,21.7c0,2.5-2.2,4.4-4.9,4.4h-14.4c-2.7,0-4.9-2-4.9-4.5v-9.1c0-2.5,2.2-4.4,4.9-4.4h14.4c2.7,0,4.9,2,4.9,4.4V21.7z
	 M839.3,169.7L839.3,169.7c0,2.5-2.2,4.4-4.9,4.4H820c-2.7,0-4.9-2-4.9-4.4v-9.1c0-2.5,2.2-4.4,4.9-4.4h14.4c2.7,0,4.9,2,4.9,4.4
	V169.7z M839.3,21.7c0,2.5-2.2,4.4-4.9,4.4H820c-2.7,0-4.9-2-4.9-4.4v-9.1c0-2.5,2.2-4.5,4.9-4.4h14.4c2.7,0,4.9,2,4.9,4.4
	L839.3,21.7z M876.9,169.7c0,2.5-2.2,4.4-4.9,4.4h-14.4c-2.7,0-4.9-2-4.9-4.4v-9.1c0-2.5,2.2-4.4,4.9-4.4H872c2.7,0,4.9,2,4.9,4.4
	V169.7z M876.9,21.7c0,2.5-2.2,4.4-4.9,4.4h-14.4c-2.7,0-4.9-2-4.9-4.5v-9.1c0-2.5,2.2-4.4,4.9-4.4H872c2.7,0,4.9,2,4.9,4.4V21.7z
	 M914.5,169.7c0,2.5-2.2,4.4-4.9,4.4h-14.4c-2.7,0-4.9-2-4.9-4.4v-9.1c0-2.5,2.2-4.4,4.9-4.4h14.4c2.7,0,4.9,2,4.9,4.4V169.7z
	 M914.5,21.7c0,2.5-2.2,4.4-4.9,4.4h-14.4c-2.7,0-4.9-2-4.9-4.5v-9.1c0-2.5,2.2-4.4,4.9-4.4h14.4c2.7,0,4.9,2,4.9,4.4V21.7z
	 M952.1,169.7c0,2.5-2.2,4.4-4.9,4.4h-14.4c-2.7,0-4.9-2-4.9-4.4v-9.1c0-2.5,2.2-4.4,4.9-4.4h14.4c2.7,0,4.9,2,4.9,4.4V169.7z
	 M952.1,21.7c0,2.5-2.2,4.4-4.9,4.4h-14.4c-2.7,0-4.9-2-4.9-4.5v-9.1c0-2.5,2.2-4.4,4.9-4.4h14.4c2.7,0,4.9,2,4.9,4.4V21.7z
	 M989.8,169.7c0,2.5-2.2,4.4-4.9,4.4h-14.4c-2.7,0-4.9-2-4.9-4.4v-9.1c0-2.5,2.2-4.4,4.9-4.4h14.4c2.7,0,4.9,2,4.9,4.4V169.7z
	 M989.8,21.7c0,2.5-2.2,4.4-4.9,4.4h-14.4c-2.7,0-4.9-2-4.9-4.5v-9.1c0-2.5,2.2-4.4,4.9-4.4h14.4c2.7,0,4.9,2,4.9,4.4V21.7z
	 M1027.4,169.7c0,2.5-2.2,4.4-4.9,4.4h-14.4c-2.7,0-4.9-2-4.9-4.4v-9.1c0-2.5,2.2-4.4,4.9-4.4h14.4c2.7,0,4.9,2,4.9,4.4V169.7z
	 M1027.4,21.7c0,2.5-2.2,4.4-4.9,4.4h-14.4c-2.7,0-4.9-2-4.9-4.5v-9.1c0-2.5,2.2-4.4,4.9-4.4h14.4c2.7,0,4.9,2,4.9,4.4V21.7z
	 M1065,169.7c0,2.5-2.2,4.4-4.9,4.4h-14.4c-2.7,0-4.9-2-4.9-4.4v-9.1c0-2.5,2.2-4.4,4.9-4.4h14.4c2.7,0,4.9,2,4.9,4.4V169.7z
	 M1065,21.7c0,2.5-2.2,4.4-4.9,4.5h-14.4c-2.7,0-4.9-2-4.9-4.5v-9.1c0-2.5,2.2-4.4,4.9-4.5h14.4c2.7,0,4.9,2,4.9,4.4V21.7z
	 M1102.6,169.7c0,2.5-2.2,4.4-4.9,4.4h-14.4c-2.7,0-4.9-2-4.9-4.4v-9.1c0-2.5,2.2-4.4,4.9-4.4h14.4c2.7,0,4.9,2,4.9,4.4V169.7z
	 M1102.6,21.7c0,2.5-2.2,4.4-4.9,4.4h-14.4c-2.7,0-4.9-2-4.9-4.5v-9.1c0-2.5,2.2-4.4,4.9-4.4h14.4c2.7,0,4.9,2,4.9,4.4V21.7z
	 M1140.2,169.7c0,2.5-2.2,4.4-4.9,4.4h-14.4c-2.7,0-4.9-2-4.9-4.4v-9.1c0-2.5,2.2-4.4,4.9-4.4h14.4c2.7,0,4.9,2,4.9,4.4V169.7z
	 M1140.2,21.7c0,2.5-2.2,4.4-4.9,4.5h-14.4c-2.7,0-4.9-2-4.9-4.5v-9.1c0-2.5,2.2-4.4,4.9-4.5h14.4c2.7,0,4.9,2,4.9,4.4V21.7z
	 M1177.8,169.7c0,2.5-2.2,4.4-4.9,4.4h-14.4c-2.7,0-4.9-2-4.9-4.4v-9.1c0-2.5,2.2-4.4,4.9-4.4h14.4c2.7,0,4.9,2,4.9,4.4V169.7z
	 M1177.8,21.7c0,2.5-2.2,4.4-4.9,4.5h-14.4c-2.7,0-4.9-2-4.9-4.5v-9.1c0-2.5,2.2-4.4,4.9-4.5h14.4c2.7,0,4.9,2,4.9,4.4V21.7z
	 M1215.4,169.7c0,2.5-2.2,4.4-4.9,4.4h-14.4c-2.7,0-4.9-2-4.9-4.4v-9.1c0-2.5,2.2-4.4,4.9-4.4h14.4c2.7,0,4.9,2,4.9,4.4V169.7z
	 M1215.4,21.7c0,2.5-2.2,4.4-4.9,4.5h-14.4c-2.7,0-4.9-2-4.9-4.5v-9.1c0-2.5,2.2-4.4,4.9-4.5h14.4c2.7,0,4.9,2,4.9,4.4V21.7z
	 M1253,169.7c0,2.4-2.2,4.4-4.9,4.4h-14.4c-2.7,0-4.9-2-4.9-4.4v-9.1c0-2.5,2.2-4.4,4.9-4.4h14.4c2.7,0,4.9,2,4.9,4.4V169.7z
	 M1253,21.7c0,2.4-2.2,4.4-4.9,4.4h-14.4c-2.7,0-4.9-2-4.9-4.5v-9.1c0-2.4,2.2-4.4,4.9-4.4h14.4c2.7,0,4.9,2,4.9,4.4V21.7z
	 M1290.6,169.7c0,2.5-2.2,4.4-4.9,4.4h-14.4c-2.7,0-4.9-2-4.9-4.4v-9.1c0-2.5,2.2-4.4,4.9-4.4h14.4c2.7,0,4.9,2,4.9,4.4V169.7z
	 M1290.6,21.7c0,2.5-2.2,4.4-4.9,4.5h-14.4c-2.7,0-4.9-2-4.9-4.5v-9.1c0-2.5,2.2-4.4,4.9-4.5h14.4c2.7,0,4.9,2,4.9,4.4V21.7z
	 M1328.3,169.7c0,2.5-2.2,4.4-4.9,4.4H1309c-2.7,0-4.9-2-4.9-4.4v-9.1c0-2.5,2.2-4.4,4.9-4.4h14.4c2.7,0,4.9,2,4.9,4.4V169.7z
	 M1328.3,21.7c0,2.5-2.2,4.4-4.9,4.4H1309c-2.7,0-4.9-2-4.9-4.5v-9.1c0-2.5,2.2-4.4,4.9-4.4h14.4c2.7,0,4.9,2,4.9,4.4V21.7z
	 M1365.9,169.7c0,2.5-2.2,4.4-4.9,4.4h-14.4c-2.7,0-4.9-2-4.9-4.4v-9.1c0-2.5,2.2-4.4,4.9-4.4h14.4c2.7,0,4.9,2,4.9,4.4V169.7z
	 M1365.9,21.7c0,2.5-2.2,4.4-4.9,4.5h-14.4c-2.7,0-4.9-2-4.9-4.5v-9.1c0-2.5,2.2-4.4,4.9-4.5h14.4c2.7,0,4.9,2,4.9,4.4V21.7z
	 M1403.5,169.7c0,2.5-2.2,4.4-4.9,4.4h-14.4c-2.7,0-4.9-2-4.9-4.4v-9.1c0-2.5,2.2-4.4,4.9-4.4h14.4c2.7,0,4.9,2,4.9,4.4V169.7z
	 M1403.5,21.7c0,2.5-2.2,4.4-4.9,4.5h-14.4c-2.7,0-4.9-2-4.9-4.5v-9.1c0-2.5,2.2-4.4,4.9-4.5h14.4c2.7,0,4.9,2,4.9,4.4V21.7z
	 M1441.1,169.7c0,2.5-2.2,4.4-4.9,4.4h-14.4c-2.7,0-4.9-2-4.9-4.4v-9.1c0-2.5,2.2-4.4,4.9-4.4h14.4c2.7,0,4.9,2,4.9,4.4V169.7z
	 M1441.1,21.7c0,2.5-2.2,4.4-4.9,4.5h-14.4c-2.7,0-4.9-2-4.9-4.5v-9.1c0-2.5,2.2-4.4,4.9-4.5h14.4c2.7,0,4.9,2,4.9,4.4V21.7z
	 M1478.7,169.7c0,2.5-2.2,4.4-4.9,4.4h-14.4c-2.7,0-4.9-2-4.9-4.4v-9.1c0-2.5,2.2-4.4,4.9-4.4h14.4c2.7,0,4.9,2,4.9,4.4V169.7z
	 M1478.7,21.7c0,2.5-2.2,4.4-4.9,4.5h-14.4c-2.7,0-4.9-2-4.9-4.5v-9.1c0-2.5,2.2-4.4,4.9-4.5h14.4c2.7,0,4.9,2,4.9,4.4V21.7z
	 M1516.3,169.7c0,2.5-2.2,4.4-4.9,4.4H1497c-2.7,0-4.9-2-4.9-4.4v-9.1c0-2.5,2.2-4.4,4.9-4.4h14.4c2.7,0,4.9,2,4.9,4.4V169.7z
	 M1516.3,21.7c0,2.5-2.2,4.4-4.9,4.4H1497c-2.7,0-4.9-2-4.9-4.5v-9.1c0-2.5,2.2-4.4,4.9-4.4h14.4c2.7,0,4.9,2,4.9,4.4V21.7z
	 M1553.9,169.7c0,2.5-2.2,4.4-4.9,4.4h-14.4c-2.7,0-4.9-2-4.9-4.4v-9.1c0-2.5,2.2-4.4,4.9-4.4h14.4c2.7,0,4.9,2,4.9,4.4V169.7z
	 M1553.9,21.7c0,2.5-2.2,4.4-4.9,4.5h-14.4c-2.7,0-4.9-2-4.9-4.5v-9.1c0-2.5,2.2-4.4,4.9-4.5h14.4c2.7,0,4.9,2,4.9,4.4V21.7z
	 M1591.5,169.7c0,2.5-2.2,4.4-4.9,4.4h-14.4c-2.7,0-4.9-2-4.9-4.4v-9.1c0-2.5,2.2-4.4,4.9-4.4h14.4c2.7,0,4.9,2,4.9,4.4V169.7z
	 M1591.5,21.7c0,2.5-2.2,4.4-4.9,4.5h-14.4c-2.7,0-4.9-2-4.9-4.5v-9.1c0-2.5,2.2-4.4,4.9-4.5h14.4c2.7,0,4.9,2,4.9,4.4V21.7z
	 M1629.1,169.7c0,2.5-2.2,4.4-4.9,4.4h-14.4c-2.7,0-4.9-2-4.9-4.4v-9.1c0-2.5,2.2-4.4,4.9-4.4h14.4c2.7,0,4.9,2,4.9,4.4V169.7z
	 M1629.1,21.7c0,2.5-2.2,4.4-4.9,4.5h-14.4c-2.7,0-4.9-2-4.9-4.5v-9.1c0-2.5,2.2-4.5,4.9-4.5h14.4c2.7,0,4.9,2,4.9,4.4V21.7z
	 M1666.8,169.7c0,2.5-2.2,4.4-4.9,4.4h-14.4c-2.7,0-4.9-2-4.9-4.4v-9.1c0-2.5,2.2-4.4,4.9-4.4h14.4c2.7,0,4.9,2,4.9,4.4V169.7z
	 M1666.8,21.7c0,2.5-2.2,4.4-4.9,4.5h-14.4c-2.7,0-4.9-2-4.9-4.5v-9.1c0-2.5,2.2-4.5,4.9-4.5h14.4c2.7,0,4.9,2,4.9,4.4V21.7z
	 M1704.4,169.7c0,2.5-2.2,4.4-4.9,4.4h-14.4c-2.7,0-4.9-2-4.9-4.4v-9.1c0-2.5,2.2-4.4,4.9-4.4h14.4c2.7,0,4.9,2,4.9,4.4V169.7z
	 M1704.4,21.7c0,2.5-2.2,4.4-4.9,4.5h-14.4c-2.7,0-4.9-2-4.9-4.5v-9.1c0-2.5,2.2-4.5,4.9-4.5h14.4c2.7,0,4.9,2,4.9,4.4V21.7z
	 M1742,169.7c0,2.5-2.2,4.4-4.9,4.4h-14.4c-2.7,0-4.9-2-4.9-4.4v-9.1c0-2.5,2.2-4.4,4.9-4.4h14.4c2.7,0,4.9,2,4.9,4.4V169.7z
	 M1742,21.7c0,2.5-2.2,4.4-4.9,4.4h-14.4c-2.7,0-4.9-2-4.9-4.5v-9.1c0-2.5,2.2-4.4,4.9-4.4h14.4c2.7,0,4.9,2,4.9,4.4V21.7z
	 M1779.6,169.7c0,2.5-2.2,4.5-4.9,4.4h-14.4c-2.7,0-4.9-2-4.9-4.4v-9.1c0-2.5,2.2-4.4,4.9-4.4h14.4c2.7,0,4.9,2,4.9,4.4V169.7z
	 M1779.6,21.7c0,2.5-2.2,4.5-4.9,4.4h-14.4c-2.7,0-4.9-2-4.9-4.5v-9.1c0-2.5,2.2-4.5,4.9-4.4h14.4c2.7,0,4.9,2,4.9,4.4V21.7z
	 M1817.2,169.7c0,2.5-2.2,4.4-4.9,4.4h-14.4c-2.7,0-4.9-2-4.9-4.4v-9.1c0-2.5,2.2-4.4,4.9-4.4h14.4c2.7,0,4.9,2,4.9,4.4V169.7z
	 M1817.2,21.7c0,2.5-2.2,4.4-4.9,4.5h-14.4c-2.7,0-4.9-2-4.9-4.5v-9.1c0-2.5,2.2-4.5,4.9-4.5h14.4c2.7,0,4.9,2,4.9,4.4V21.7z
	 M1854.8,169.7c0,2.5-2.2,4.4-4.9,4.4h-14.4c-2.7,0-4.9-2-4.9-4.4v-9.1c0-2.5,2.2-4.4,4.9-4.4h14.4c2.7,0,4.9,2,4.9,4.4V169.7z
	 M1854.8,21.7c0,2.5-2.2,4.4-4.9,4.5h-14.4c-2.7,0-4.9-2-4.9-4.5v-9.1c0-2.5,2.2-4.5,4.9-4.5h14.4c2.7,0,4.9,2,4.9,4.4V21.7z
	 M1892.4,169.7c0,2.5-2.2,4.4-4.9,4.4h-14.4c-2.7,0-4.9-2-4.9-4.4v-9.1c0-2.5,2.2-4.4,4.9-4.4h14.4c2.7,0,4.9,2,4.9,4.4V169.7z
	 M1892.4,21.7c0,2.5-2.2,4.4-4.9,4.5h-14.4c-2.7,0-4.9-2-4.9-4.5v-9.1c0-2.5,2.2-4.5,4.9-4.5h14.4c2.7,0,4.9,2,4.9,4.4V21.7z"/>
</svg>
