<?xml version="1.0" encoding="utf-8"?>
<!-- Generator: Adobe Illustrator 22.0.1, SVG Export Plug-In . SVG Version: 6.00 Build 0)  -->
<svg version="1.1" id="Слой_1" xmlns="http://www.w3.org/2000/svg" xmlns:xlink="http://www.w3.org/1999/xlink" x="0px" y="0px"
	 viewBox="0 0 297.8 90.2" style="enable-background:new 0 0 297.8 90.2;" xml:space="preserve" width="297.83" height="90.17">
<style type="text/css">
	.st0{fill:#FDE619;}
	.st1{fill:#ED1D24;}
	.st2{fill:none;stroke:#FDE619;stroke-width:5;stroke-linecap:round;stroke-linejoin:round;}
	.st3{fill:#FFFFFF;}
</style>
<g>
	<g>
		<path class="st0" d="M81.3,49.5h-8.8V34.8c0-2.4-1.9-4.3-4.3-4.3H4.3c-2.4,0-4.3,1.9-4.3,4.3v51.1c0,2.4,1.9,4.3,4.3,4.3h63.9
			c2.4,0,4.3-1.9,4.3-4.3V71.2h8.8l15.1,8.1v-38L81.3,49.5z"/>
		<path class="st1" d="M49.4,63.9L34.9,74.4C34.4,74.8,33.7,75,33,75c-0.5,0-1-0.1-1.5-0.4c-1.1-0.6-1.8-1.7-1.8-2.9v-21
			c0-1.8,1.5-3.3,3.3-3.3c0.7,0,1.4,0.2,1.9,0.6l14.5,10.5c0.9,0.6,1.4,1.6,1.4,2.7C50.8,62.2,50.3,63.2,49.4,63.9z"/>
		<path class="st2" d="M10.5,6.9c-8.2,10.9,5.9,25.3,25.7,20.8C36.2,6,18.8-3.9,10.5,6.9z M61.9,6.9c8.2,10.9-5.9,25.3-25.7,20.8
			C36.2,6,53.7-3.9,61.9,6.9z"/>
		<path class="st3" d="M152,51.1C152,51,151.9,51,152,51.1c-1.4,0-2.3,1.1-2.3,2.3c0,1.3,1.1,2.2,2.3,2.2c1.2,0,2.2-1.1,2.2-2.3
			C154.2,52.1,153.2,51.1,152,51.1z"/>
		<path class="st3" d="M172.1,39.1l3.8-7c0.1-0.2,0.3-0.1,0.3,0.1V39c0,0.3,0.3,0.5,0.5,0.5h2.8c0.3,0,0.5-0.2,0.5-0.5V26.9
			c0-0.3-0.2-0.5-0.5-0.5l-2.8,0c-0.3,0-0.5,0.2-0.6,0.5l-3.8,7.1c-0.1,0.2-0.3,0.1-0.3-0.1v-6.9c0-0.3-0.3-0.5-0.6-0.5h-3.7
			c-0.3,0-0.4,0.3-0.2,0.6c0.4,0.6,0.6,1.3,0.6,2.1v10c0,0.3,0.2,0.5,0.5,0.5h2.8C171.8,39.5,172,39.3,172.1,39.1z"/>
		<path class="st3" d="M168.5,56.6h-2.8c-0.3,0-0.5,0.2-0.5,0.5v4.3c0,0,0,0,0,0c0,0.3-0.3,0.6-0.6,0.6h-3c0,0,0,0-0.1,0
			c-0.3,0-0.5-0.3-0.5-0.6v-4.3c0-0.3-0.3-0.5-0.6-0.5l-3.7,0c-0.3,0-0.4,0.3-0.2,0.6c0.4,0.6,0.6,1.3,0.6,2.1v10
			c0,0.3,0.2,0.5,0.5,0.5h2.8c0.3,0,0.6-0.2,0.6-0.5v-4.6c0,0,0,0,0-0.1c0-0.3,0.2-0.5,0.5-0.5h3c0,0,0,0,0,0c0.3,0,0.6,0.3,0.5,0.6
			v4.6c0,0.3,0.3,0.5,0.5,0.5h2.8c0.3,0,0.5-0.2,0.5-0.5V57.1C169.1,56.8,168.8,56.6,168.5,56.6z"/>
		<path class="st3" d="M165.8,33c0-3.9-2.6-7-6.4-7c-1.5,0-3,0.5-4.1,1.5c-0.3,0.3-0.6,0.3-0.6-0.2v-0.4c0-0.3-0.2-0.6-0.5-0.6h-3.5
			c-0.3,0-0.4,0.3-0.2,0.6c0.4,0.6,0.6,1.3,0.6,2.1v14.4c0,0.3,0.3,0.6,0.6,0.6h2.7c0.3,0,0.6-0.2,0.6-0.6l0-4.6
			c0-0.1,0.2-0.4,0.5-0.1c1.1,0.9,2.5,1.3,3.9,1.3C163.2,40,165.8,36.9,165.8,33z M155.3,35.5c-0.2-0.3-0.3-0.6-0.3-1v-3
			c0-0.4,0.1-0.7,0.3-1.1c0.6-1.2,1.8-1.9,3.1-2c1.9,0,3.4,1.7,3.4,4.5c0,2.8-1.5,4.6-3.4,4.6C157,37.4,155.9,36.7,155.3,35.5z"/>
		<path class="st3" d="M143.2,62.4c-0.2-0.2-0.2-0.4,0-0.6l3.9-4.6c0.3-0.3,0.2-0.6-0.2-0.6h-2c-0.3,0-0.5,0.1-0.8,0.5l-3.7,4.3
			c-0.1,0.2-0.3,0.3-0.5,0.3c-0.2,0-0.3-0.1-0.3-0.3v-4.2c0-0.3-0.2-0.6-0.6-0.6h-3.7c-0.3,0-0.4,0.3-0.1,0.6
			c0.4,0.6,0.6,1.3,0.6,2.1v10c0,0.3,0.2,0.5,0.5,0.5h2.8c0.3,0,0.5-0.2,0.5-0.5v-4.8c0-0.3,0.1-0.4,0.2-0.4c0.2,0,0.4,0.1,0.5,0.3
			l3.4,4.9c0.3,0.4,0.7,0.6,1.2,0.5h3c0.1,0,0.2,0,0.2-0.1c0.1-0.1,0.1-0.3,0-0.4L143.2,62.4z"/>
		<path class="st3" d="M153.4,56.6h-3.7c-0.3,0-0.4,0.3-0.1,0.6c0.4,0.6,0.6,1.3,0.6,2.1v10c0,0.3,0.2,0.5,0.5,0.5h2.8
			c0.3,0,0.5-0.2,0.6-0.5V57.1C154,56.8,153.7,56.6,153.4,56.6z"/>
		<path class="st3" d="M251.3,29.1v14.4c0,0.3,0.3,0.6,0.6,0.6h2.7c0.3,0,0.6-0.2,0.6-0.6v-4.6c0-0.1,0.2-0.4,0.5-0.1
			c1.1,0.9,2.5,1.3,3.9,1.3c3.8,0,6.4-3.1,6.4-7s-2.6-7-6.4-7c-1.5,0-3,0.5-4.1,1.5c-0.3,0.3-0.6,0.3-0.6-0.2v-0.4
			c0-0.3-0.2-0.5-0.5-0.5h-3.5c-0.3,0-0.4,0.3-0.2,0.6C251.1,27.6,251.3,28.3,251.3,29.1z M255.1,31.5c0-0.4,0.1-0.7,0.3-1.1
			c0.6-1.2,1.8-1.9,3.1-2c1.9,0,3.5,1.7,3.5,4.5c0,2.8-1.5,4.6-3.5,4.6c-1.3-0.1-2.5-0.8-3.1-2c-0.2-0.3-0.3-0.6-0.3-1V31.5z"/>
		<path class="st3" d="M215.2,29v10c0,0.3,0.2,0.5,0.5,0.5h2.8c0.3,0,0.5-0.2,0.6-0.5l3.8-7c0.1-0.2,0.3-0.1,0.3,0.1V39
			c0,0.3,0.3,0.5,0.5,0.5h2.8c0.3,0,0.5-0.2,0.5-0.5V26.9c0-0.3-0.2-0.5-0.5-0.5l-2.8,0c-0.3,0-0.5,0.2-0.6,0.5l-3.8,7.1
			c-0.1,0.2-0.3,0.1-0.3-0.1v-6.9c0-0.3-0.3-0.5-0.6-0.5h-3.7c-0.3,0-0.4,0.3-0.2,0.6C215.1,27.5,215.3,28.3,215.2,29z"/>
		<path class="st3" d="M126,21.6c-5.7,0-9.9,4-9.9,9.2c0,5.2,4.1,9.2,9.9,9.2s9.9-4,9.9-9.2C135.9,25.6,131.7,21.6,126,21.6z
			 M126,37.7c-3.1,0-5.4-3-5.4-6.9c0-3.9,2.2-6.9,5.4-6.9c3.2,0,5.5,3,5.5,6.9C131.4,34.6,129.1,37.7,126,37.7z"/>
		<path class="st3" d="M219.4,24.9c2.4,0.9,5-0.4,5.8-2.7c0.1-0.3-0.1-0.5-0.3-0.6l-1.6-0.6c0,0,0,0,0,0c-0.2-0.1-0.4,0.1-0.5,0.3
			c-0.3,1.1-1,2.2-1.9,2.2s-1.6-1.1-1.9-2.2c0,0,0,0,0,0c-0.1-0.2-0.3-0.3-0.5-0.2l-1.6,0.6c-0.3,0.1-0.4,0.4-0.3,0.6
			C217.2,23.4,218.2,24.4,219.4,24.9z"/>
		<path class="st3" d="M148.4,26.3l-10.4,0c-0.3,0-0.5,0.2-0.5,0.5l-0.2,1.6c0,0.3,0.2,0.4,0.6,0.3c0.7-0.3,1.4-0.4,2.1-0.3h0.8
			c0,0,0,0,0,0c0.3,0,0.6,0.3,0.5,0.6v10c0,0.3,0.2,0.5,0.5,0.5h2.8c0.3,0,0.5-0.2,0.5-0.5V29c0,0,0,0,0,0c0-0.3,0.3-0.6,0.6-0.6
			h0.8c0.7,0,1.4,0.1,2.1,0.3c0.4,0.1,0.6,0,0.6-0.3l-0.2-1.6C148.9,26.6,148.7,26.3,148.4,26.3z"/>
		<path class="st3" d="M297.8,23c0-1.2-1-2.3-2.3-2.2c0,0,0,0,0,0c-1.3,0-2.3,1-2.2,2.3s1,2.3,2.3,2.2
			C296.8,25.3,297.8,24.3,297.8,23L297.8,23C297.8,23,297.8,23,297.8,23z"/>
		<path class="st3" d="M253.6,62.8c-0.2-0.1-0.2-0.2,0-0.4c0.9-0.6,1.5-1.7,1.5-2.8c0-1.8-1.8-3.4-4.6-3.4c-1.5,0-2.9,0.5-4,1.4
			c-0.2,0.2-0.3,0.6-0.1,0.8l0.6,1.1c0,0.1,0.1,0.1,0.2,0.2c0.2,0.1,0.5,0,0.6-0.2c0.4-0.7,1.1-1.2,1.9-1.2c0.1,0,0.2,0,0.3,0
			c0.8,0.1,1.4,0.8,1.3,1.6c0,0.1,0,0.1,0,0.2c0,0.9-0.7,1.6-1.6,1.6h-0.4c-0.3,0-0.5,0.2-0.6,0.5v1c0,0.4,0.3,0.5,0.7,0.5h0.4
			c0.1,0,0.2,0,0.4,0c1,0.1,1.7,1,1.6,2c0,0.2,0,0.3,0,0.5c-0.1,1.1-1.1,1.9-2.2,1.8c-1,0-1.9-0.5-2.5-1.2c-0.1-0.2-0.4-0.5-0.7-0.3
			l-0.9,0.5c-0.4,0.2-0.4,0.5-0.3,0.6c0.8,1.4,2.6,2.5,5.4,2.5c2.9,0,5.1-1.8,5.1-4.1C255.8,64.6,254.9,63.3,253.6,62.8z"/>
		<path class="st3" d="M269.6,56.6l-2.8,0c-0.3,0-0.5,0.2-0.6,0.5l-3.8,7.1c-0.1,0.2-0.3,0.1-0.3-0.1v-6.9c0-0.3-0.3-0.5-0.6-0.5
			h-3.7c-0.3,0-0.4,0.3-0.1,0.6c0.4,0.6,0.6,1.3,0.6,2.1v10c0,0.3,0.2,0.5,0.5,0.5h2.8c0.3,0,0.5-0.2,0.6-0.5l3.8-7
			c0.1-0.2,0.3-0.1,0.3,0.1v6.9c0,0.3,0.3,0.5,0.5,0.5h2.8c0.3,0,0.5-0.2,0.5-0.5V57.1C270.1,56.8,269.9,56.6,269.6,56.6z"/>
		<path class="st3" d="M179.1,56.2c-4.5,0-7.5,3-7.5,7s3,7,7.5,7s7.5-3,7.5-7S183.5,56.2,179.1,56.2z M179.1,68.1
			c-2,0-3.5-2-3.5-4.9c0-2.8,1.5-4.9,3.5-4.9s3.5,2.1,3.5,4.9h0C182.6,66,181,68.1,179.1,68.1z"/>
		<path class="st3" d="M275.9,65.7C275.9,65.7,275.9,65.7,275.9,65.7c-1.3,0-2.3,1-2.3,2.3c0,1.3,1,2.3,2.3,2.2c1.3,0,2.3-1,2.2-2.3
			c0,0,0,0,0,0C278.1,66.7,277.1,65.7,275.9,65.7z"/>
		<path class="st3" d="M278.3,26.3h-1.4c-0.5,0-0.6,0.1-0.7,0.5l-2.5,6.8c0,0.1-0.1,0.2-0.2,0.2c-0.1,0-0.2-0.1-0.2-0.2l-2.5-6.8
			c-0.1-0.4-0.5-0.5-1-0.5h-3.4c-0.4,0-0.5,0.3-0.2,0.6c0.6,0.6,1.1,1.3,1.4,2.1l3.8,9.8c0.2,0.3,0.2,0.7,0,1l-1.4,3.6
			c-0.1,0.3,0,0.5,0.4,0.5h1.4c0.5,0,0.6-0.1,0.7-0.5l6.2-16.6C278.7,26.5,278.6,26.3,278.3,26.3z"/>
		<path class="st3" d="M297,26.3h-3.7c-0.3,0-0.4,0.3-0.2,0.6c0.4,0.6,0.6,1.3,0.6,2.1l0,10c0,0.3,0.2,0.5,0.5,0.5h2.8
			c0.3,0,0.5-0.2,0.6-0.5V26.9C297.6,26.6,297.3,26.3,297,26.3z"/>
		<path class="st3" d="M291,26.3l-10.4,0c-0.3,0-0.5,0.2-0.5,0.5l-0.2,1.6c-0.1,0.3,0.2,0.4,0.6,0.3c0.7-0.3,1.4-0.4,2.1-0.3h0.8
			c0,0,0,0,0,0c0.3,0,0.6,0.3,0.5,0.6v10c0,0.3,0.2,0.5,0.5,0.5h2.8c0.3,0,0.5-0.2,0.6-0.5V29c0,0,0,0,0,0c0-0.3,0.2-0.6,0.6-0.6
			h0.8c0.7,0,1.4,0.1,2.1,0.3c0.3,0.1,0.6,0,0.6-0.3l-0.2-1.6C291.5,26.6,291.3,26.3,291,26.3z"/>
		<path class="st3" d="M274.3,63.6c0.1,0.5,0.5,0.8,1,0.7h1.1c0,0,0,0,0,0c0.5,0.1,0.9-0.3,1-0.8l0.7-10.6c0-0.4-0.4-0.8-1-0.8h-2.5
			c-0.5,0-0.9,0.3-0.9,0.8L274.3,63.6C274.3,63.5,274.3,63.6,274.3,63.6z"/>
		<path class="st3" d="M210.4,56.6l-11.7,0c-0.3,0-0.4,0.3-0.1,0.6c0.4,0.6,0.6,1.3,0.6,2.1v10c0,0.3,0.2,0.5,0.5,0.5h2.8
			c0.3,0,0.6-0.2,0.6-0.5V59.2c0,0,0-0.1,0-0.1c0-0.3,0.3-0.5,0.5-0.5h3c0,0,0,0,0,0c0.3,0,0.6,0.3,0.5,0.6v10.1
			c0,0.3,0.3,0.5,0.5,0.5h2.8c0.3,0,0.5-0.2,0.5-0.5V57.1C210.9,56.8,210.7,56.6,210.4,56.6z"/>
		<path class="st3" d="M197.9,26.3h-3.5c-0.3,0-0.6,0.2-0.7,0.5l-2.6,7.6c0,0.2-0.2,0.2-0.2,0.2c-0.1,0-0.2-0.1-0.2-0.2l-2.6-7.6
			c-0.1-0.3-0.4-0.5-0.7-0.5H183c-0.3,0-0.4,0.3-0.2,0.6c0.4,0.6,0.6,1.3,0.6,2.1l0,10.1c0,0,0,0,0,0.1c0,0.3,0.2,0.5,0.5,0.5h1.2
			c0.3,0,0.5-0.2,0.5-0.5v-6.5c0-0.3,0.3-0.3,0.4-0.1l2.3,6.5c0.1,0.3,0.4,0.5,0.7,0.5h2.2c0.3,0,0.6-0.2,0.7-0.5l2.3-6.5
			c0.1-0.2,0.4-0.2,0.4,0v6.5c0,0.3,0.2,0.5,0.5,0.5h2.8c0,0,0,0,0.1,0c0.3,0,0.5-0.2,0.4-0.5V26.8c0,0,0,0,0,0
			C198.4,26.5,198.2,26.3,197.9,26.3z"/>
		<path class="st3" d="M212.5,26.3h-1.4c-0.5,0-0.6,0.1-0.7,0.5l-2.5,6.8c0,0.1-0.1,0.2-0.2,0.2c-0.1,0-0.2-0.1-0.2-0.2l-2.5-6.8
			c-0.1-0.4-0.5-0.5-1-0.5h-3.5c-0.4,0-0.5,0.3-0.2,0.6c0.6,0.6,1.1,1.3,1.4,2.1l3.8,9.9c0.2,0.3,0.2,0.7,0,1l-1.4,3.6
			c-0.1,0.3,0,0.5,0.4,0.5h1.4c0.5,0,0.6-0.1,0.7-0.5l6.2-16.7C212.9,26.5,212.8,26.3,212.5,26.3z"/>
		<path class="st3" d="M246.2,39.5h3c0.1,0,0.2,0,0.2-0.1c0.1-0.1,0.1-0.3,0-0.4l-5.1-6.9c-0.2-0.2-0.2-0.4,0-0.6l3.9-4.6
			c0.3-0.3,0.2-0.6-0.2-0.6h-1.9c-0.3,0-0.5,0.1-0.9,0.5l-3.7,4.3c-0.1,0.2-0.3,0.3-0.5,0.3c-0.2,0-0.3-0.1-0.3-0.3v-4.2
			c0-0.3-0.3-0.6-0.6-0.6h-3.7c-0.3,0-0.4,0.3-0.1,0.6c0.4,0.6,0.6,1.3,0.6,2.1v10c0,0.3,0.2,0.5,0.5,0.5h2.8c0.3,0,0.5-0.2,0.6-0.5
			l0-4.8c0-0.3,0.1-0.3,0.2-0.3c0.2,0,0.4,0.1,0.5,0.3L245,39C245.3,39.4,245.7,39.6,246.2,39.5z"/>
		<path class="st3" d="M222.5,56.3c-1.5,0-3,0.5-4.1,1.5c-0.3,0.3-0.6,0.3-0.6-0.2v-0.4c0-0.3-0.3-0.6-0.6-0.5h-3.5
			c-0.3,0-0.4,0.3-0.1,0.6c0.4,0.6,0.6,1.3,0.6,2.1v14.4c0,0,0,0,0,0c0,0.3,0.3,0.6,0.6,0.5h2.7c0,0,0,0,0,0c0.3,0,0.6-0.2,0.6-0.6
			V69c0-0.1,0.2-0.4,0.5-0.1c1.1,0.9,2.5,1.3,3.9,1.3c3.8,0,6.3-3.1,6.3-7S226.3,56.3,222.5,56.3z M221.5,67.7
			c-1.3-0.1-2.5-0.8-3.1-2c-0.2-0.3-0.3-0.6-0.3-1v-3c0-0.4,0.1-0.8,0.3-1.1c0.6-1.2,1.8-1.9,3.1-2c1.9,0,3.5,1.7,3.5,4.5
			S223.4,67.7,221.5,67.7z"/>
		<path class="st3" d="M242.7,56.6l-2.8,0c-0.3,0-0.5,0.2-0.6,0.5l-3.8,7.1c-0.1,0.2-0.3,0.1-0.3-0.1v-6.9c0-0.3-0.3-0.5-0.6-0.5
			h-3.7c-0.3,0-0.4,0.3-0.2,0.6c0.4,0.6,0.6,1.3,0.6,2.1v10c0,0.3,0.2,0.5,0.5,0.5h2.8c0.3,0,0.5-0.2,0.6-0.5l3.8-7
			c0.1-0.2,0.3-0.1,0.3,0.1v6.9c0,0.3,0.3,0.5,0.5,0.5h2.8c0.3,0,0.5-0.2,0.5-0.5V57.1C243.2,56.8,242.9,56.6,242.7,56.6z"/>
	</g>
</g>
</svg>
