<svg xmlns="http://www.w3.org/2000/svg" width="383.93" height="87.48" viewBox="0 0 383.93 87.48">
  <title>Asset 2</title>
  <g id="Layer_2" data-name="Layer 2">
    <g id="prizes_copy_5" data-name="prizes copy 5">
      <g>
        <g>
          <g>
            <path d="M65.51,71.33H17.22a13.42,13.42,0,0,0-8.77,3.93l-7.4,8.29c-1.92,2.16-1.13,3.93,1.76,3.93h125.4c2.89,0,3.69-1.77,1.76-3.93l-7.39-8.29a13.47,13.47,0,0,0-8.77-3.93H65.51" style="fill: #fde619"/>
            <g>
              <path d="M65.51,65.31H16.23A4.29,4.29,0,0,1,12,61V4.28A4.29,4.29,0,0,1,16.23,0h98.56a4.28,4.28,0,0,1,4.28,4.28V61a4.28,4.28,0,0,1-4.28,4.28H65.51" style="fill: #fde619"/>
              <path d="M65.51,5.26a2.16,2.16,0,1,1-2.16,2.16A2.16,2.16,0,0,1,65.51,5.26Z" style="fill: #ed1d24"/>
            </g>
          </g>
          <g>
            <path d="M36.25,32.92l-2.09.57-.55-2.4,3.45-1.15h1.81V43.41H36.25Z" style="fill: #ed1d24"/>
            <path d="M41.55,41.08l4-3.65c1.5-1.38,2.08-2.1,2.08-3.21A1.56,1.56,0,0,0,46,32.48c-.93,0-1.57.58-2.46,1.8L41.7,32.62c1.19-1.8,2.34-2.77,4.49-2.77A3.9,3.9,0,0,1,50.33,34c0,2.24-1,3.34-3.16,5.18l-2,1.68h5.24v2.54h-8.9Z" style="fill: #ed1d24"/>
            <path d="M52.48,41.33,54.3,39.4A3.57,3.57,0,0,0,57.21,41a1.58,1.58,0,0,0,1.7-1.66c0-1.09-.88-1.7-2.36-1.7h-1.1L55,35.77l2.87-3.21H53.18V30h8.14v2.21l-3,3.23a3.56,3.56,0,0,1,3.24,3.78,4.12,4.12,0,0,1-4.34,4.38A5.63,5.63,0,0,1,52.48,41.33Z" style="fill: #ed1d24"/>
            <path d="M69.79,40.53H63.91l-.43-2.09,6.6-8.5h2.24v8.2h1.62v2.39H72.32v2.88H69.79Zm0-2.39V34l-3.2,4.17Z" style="fill: #ed1d24"/>
            <path d="M75.62,41.63l1.6-2.12A4,4,0,0,0,80.09,41a1.78,1.78,0,0,0,2-1.89c0-1.14-.87-1.81-2.13-1.81a4.84,4.84,0,0,0-2,.49l-1.53-1.12L76.77,30h7.4v2.58H79l-.14,2.31a5.24,5.24,0,0,1,1.59-.23C82.82,34.7,84.7,36,84.7,39a4.31,4.31,0,0,1-4.57,4.62A5.9,5.9,0,0,1,75.62,41.63Z" style="fill: #ed1d24"/>
            <path d="M88.46,42.21c-.88-1-1.43-2.41-1.43-5.1,0-4.13,1.68-7.3,5.28-7.3a5.21,5.21,0,0,1,3.76,1.47l-1.39,2.27a3.51,3.51,0,0,0-2.46-1.07c-1.49,0-2.25,1.34-2.42,3.1a3.89,3.89,0,0,1,2.49-.86A4,4,0,0,1,96.52,39a4.45,4.45,0,0,1-4.59,4.62A4.34,4.34,0,0,1,88.46,42.21Zm5.43-3.1a1.91,1.91,0,0,0-2.1-2,1.88,1.88,0,0,0-2.06,2,1.94,1.94,0,0,0,2.1,2A1.9,1.9,0,0,0,93.89,39.11Z" style="fill: #ed1d24"/>
          </g>
        </g>
        <g>
          <path d="M181.9,6.9a3.16,3.16,0,0,0-.58-2.09c-.23-.33-.13-.6.15-.6H189c3.18,0,6.08,2.49,6.08,5.59s-2.9,5.55-6.08,5.55h-2.42a.54.54,0,0,0-.53.53v5.44a.55.55,0,0,1-.55.53h-3.1a.55.55,0,0,1-.53-.53Zm6.2,6.18c1.56,0,2.67-1.49,2.67-3.3s-1.11-3.33-2.67-3.33h-1.49a.52.52,0,0,0-.53.53v5.57a.52.52,0,0,0,.53.53Z" style="fill: #fff"/>
          <path d="M196.24,15.25c0-4.09,3-7,7.36-7s7.26,2.9,7.26,7v.07a.86.86,0,0,1-.8.81h-9.41c-.22,0-.35.13-.3.4a4.1,4.1,0,0,0,4,3.61,4.86,4.86,0,0,0,4-2,.38.38,0,0,1,.56-.05l1,.76a.52.52,0,0,1,.08.65,7.34,7.34,0,0,1-6.18,2.72C199.44,22.2,196.24,19.33,196.24,15.25Zm4.16-1.62c-.05.33.08.43.28.43h5.67c.23,0,.33-.12.28-.48a3.46,3.46,0,0,0-3.13-3.25C201.91,10.33,200.65,11.72,200.4,13.63Z" style="fill: #fff"/>
          <path d="M220.75,20.14a5.3,5.3,0,0,0,4.09-1.87.58.58,0,0,1,.78-.1l.81.63a.56.56,0,0,1,.1.78,7.88,7.88,0,0,1-6.31,2.62c-4.53,0-7.58-3.12-7.58-6.95s2.87-7,7.56-7a7.49,7.49,0,0,1,6.38,3,.63.63,0,0,1-.13.78l-1,1.19a.44.44,0,0,1-.78-.13,4.48,4.48,0,0,0-4.06-2.8,4.08,4.08,0,0,0-3.86,3.38c-.05.28,0,.45.3.45h5.8a.45.45,0,0,1,.43.46v1a.44.44,0,0,1-.43.45h-5.72c-.25,0-.45.1-.38.5A4.19,4.19,0,0,0,220.75,20.14Z" style="fill: #fff"/>
          <path d="M228.12,15.25c0-3.83,2.87-7,7.56-7a7.49,7.49,0,0,1,6.38,3,.63.63,0,0,1-.13.78l-1,1.19a.44.44,0,0,1-.78-.13,4.48,4.48,0,0,0-4.06-2.8c-2,0-4,1.77-4,4.77s1.82,5,4.13,5a5.3,5.3,0,0,0,4.09-1.87.58.58,0,0,1,.78-.1l.81.63a.56.56,0,0,1,.1.78,7.88,7.88,0,0,1-6.31,2.62C231.17,22.2,228.12,19.08,228.12,15.25Z" style="fill: #fff"/>
          <path d="M254.68,8.62c.3,0,.48.22.53.53l.2,1.56c.05.33-.23.43-.58.3a5.59,5.59,0,0,0-2.09-.35H252a.57.57,0,0,0-.56.58V21.32a.55.55,0,0,1-.55.53H248.1a.55.55,0,0,1-.53-.53V11.24a.56.56,0,0,0-.56-.58h-.75a5.61,5.61,0,0,0-2.1.35c-.35.13-.63,0-.58-.3l.21-1.56c.05-.31.22-.53.53-.53Z" style="fill: #fff"/>
          <path d="M261.26,25.71a.56.56,0,0,1-.58.55H258a.56.56,0,0,1-.58-.55V11.34a3.21,3.21,0,0,0-.58-2.09c-.23-.33-.13-.61.15-.61h3.45a.57.57,0,0,1,.56.56v.38c0,.45.27.42.58.17a6.08,6.08,0,0,1,4.08-1.46c3.78,0,6.35,3.13,6.35,7s-2.57,7-6.35,7a6,6,0,0,1-3.88-1.31c-.35-.28-.53,0-.53.1Zm0-12v3.06a2.09,2.09,0,0,0,.28,1,3.66,3.66,0,0,0,3.07,2c1.94,0,3.46-1.71,3.46-4.56s-1.52-4.54-3.46-4.54a3.73,3.73,0,0,0-3.07,2A2.09,2.09,0,0,0,261.26,13.73Z" style="fill: #fff"/>
          <path d="M273.75,11.31a5,5,0,0,0-1.38-2.09c-.3-.3-.18-.6.2-.6H276c.5,0,.85.1,1,.5l2.49,6.81a.21.21,0,0,0,.18.17c.1,0,.15-.07.17-.17l2.5-6.81c.13-.4.28-.5.73-.5h1.44c.3,0,.38.22.28.5l-6.18,16.64c-.15.4-.25.5-.73.5h-1.41c-.36,0-.48-.22-.38-.5l1.41-3.61a1,1,0,0,0,0-1Z" style="fill: #fff"/>
          <path d="M298.54,8.62a.55.55,0,0,1,.53.53V21.32a.55.55,0,0,1-.53.53h-2.79a.55.55,0,0,1-.56-.53V14.41c0-.2-.18-.25-.28-.07l-3.8,7.06a.7.7,0,0,1-.61.45h-2.74a.55.55,0,0,1-.53-.53v-10a3.21,3.21,0,0,0-.58-2.09c-.23-.33-.13-.6.15-.6h3.7a.56.56,0,0,1,.58.53v6.9c0,.21.18.26.28.08l3.81-7.06c.15-.28.32-.45.6-.45Zm-9.8-4.16a.5.5,0,0,1,.3-.63l1.59-.56a.37.37,0,0,1,.5.26c.33,1.05,1,2.16,1.89,2.16s1.57-1.11,1.89-2.16a.38.38,0,0,1,.51-.26l1.59.56a.51.51,0,0,1,.3.63,4.56,4.56,0,0,1-8.57,0Z" style="fill: #fff"/>
          <path d="M312.93,21.32a.55.55,0,0,1-.55.53H309.6a.55.55,0,0,1-.53-.53v-10a3.16,3.16,0,0,0-.58-2.09c-.22-.33-.12-.6.16-.6h3.73a.55.55,0,0,1,.55.55v4.19c0,.22.08.32.25.32a.65.65,0,0,0,.51-.3l3.65-4.26c.36-.4.58-.5.86-.5h1.94c.33,0,.4.3.15.6l-3.93,4.64a.44.44,0,0,0,0,.61l5.07,6.85a.31.31,0,0,1-.23.53h-3a1.28,1.28,0,0,1-1.15-.5l-3.43-4.89a.52.52,0,0,0-.48-.28c-.13,0-.23.1-.23.35Z" style="fill: #fff"/>
          <path d="M336.76,15.25c0,4-3,7-7.48,7s-7.47-2.95-7.47-6.95,3-7,7.47-7S336.76,11.24,336.76,15.25Zm-4,0c0-2.85-1.49-4.92-3.5-4.92s-3.48,2.07-3.48,4.92,1.51,4.89,3.48,4.89S332.78,18,332.78,15.25Z" style="fill: #fff"/>
          <path d="M340.75,11.31a3.21,3.21,0,0,0-.58-2.09c-.23-.33-.13-.6.15-.6h9.4a.55.55,0,0,1,.55.53v10.1a.57.57,0,0,0,.56.56h.88a.55.55,0,0,1,.58.53L352,24.62a.56.56,0,0,1-.58.56h-1.14c-.32,0-.5-.25-.58-.56l-.5-2.19a.67.67,0,0,0-.6-.58h-7.57a.66.66,0,0,0-.6.58L340,24.62c-.07.31-.22.56-.55.56h-1.19a.56.56,0,0,1-.55-.56l-.25-4.28a.54.54,0,0,1,.55-.53h.86c.48,0,.63-.08.76-.53a23.61,23.61,0,0,0,1.16-6.73Zm5.09,8.5a.56.56,0,0,0,.58-.56v-8a.55.55,0,0,0-.58-.58h-2.27a.55.55,0,0,0-.53.58v1.31A22.94,22.94,0,0,1,342,19.28c-.1.35,0,.53.4.53Z" style="fill: #fff"/>
          <path d="M153.06,38.86a.54.54,0,0,1,.55.53v4.33a.51.51,0,0,0,.51.58H157a.55.55,0,0,0,.53-.58V39.39a.54.54,0,0,1,.52-.53h2.66a.54.54,0,0,1,.5.53V51.56a.54.54,0,0,1-.5.53H158a.54.54,0,0,1-.52-.53V46.92a.56.56,0,0,0-.53-.58h-2.87a.51.51,0,0,0-.51.58v4.64a.54.54,0,0,1-.55.53h-2.61a.54.54,0,0,1-.5-.53v-10a3.31,3.31,0,0,0-.55-2.09c-.21-.33-.12-.6.14-.6Z" style="fill: #fff"/>
          <path d="M177.5,49.39a3.26,3.26,0,0,0,.55,2.1c.21.32.12.6-.14.6h-3.29a.54.54,0,0,1-.52-.55v-.38c0-.46-.27-.43-.55-.18a5.61,5.61,0,0,1-3.88,1.46c-3.59,0-6-3.12-6-6.95s2.44-7,6-7a5.53,5.53,0,0,1,3.69,1.32c.33.27.5,0,.5-.11v-.32a.54.54,0,0,1,.53-.53H177a.54.54,0,0,1,.51.53ZM173.86,47V44a2.2,2.2,0,0,0-.26-1,3.47,3.47,0,0,0-2.93-2c-1.84,0-3.28,1.72-3.28,4.57S168.83,50,170.67,50a3.54,3.54,0,0,0,2.93-2A2.2,2.2,0,0,0,173.86,47Z" style="fill: #fff"/>
          <path d="M186.21,45.49a6.81,6.81,0,0,1,7.18-7,7,7,0,0,1,6.06,3,.65.65,0,0,1-.12.78l-.93,1.19a.42.42,0,0,1-.75-.13,4.24,4.24,0,0,0-3.85-2.8c-1.94,0-3.81,1.77-3.81,4.77s1.73,5,3.93,5a4.93,4.93,0,0,0,3.88-1.87.53.53,0,0,1,.74-.1l.77.63a.58.58,0,0,1,.09.78,7.28,7.28,0,0,1-6,2.62A6.89,6.89,0,0,1,186.21,45.49Z" style="fill: #fff"/>
          <path d="M214.82,49.39a3.32,3.32,0,0,0,.55,2.1c.22.32.12.6-.14.6H212a.54.54,0,0,1-.53-.55v-.38c0-.46-.26-.43-.55-.18A5.61,5.61,0,0,1,207,52.44c-3.59,0-6-3.12-6-6.95s2.44-7,6-7a5.49,5.49,0,0,1,3.69,1.32c.34.27.5,0,.5-.11v-.32a.54.54,0,0,1,.53-.53h2.61a.54.54,0,0,1,.5.53ZM211.18,47V44a2.2,2.2,0,0,0-.26-1,3.46,3.46,0,0,0-2.92-2c-1.84,0-3.28,1.72-3.28,4.57S206.16,50,208,50a3.54,3.54,0,0,0,2.92-2A2.2,2.2,0,0,0,211.18,47Z" style="fill: #fff"/>
          <path d="M228.79,38.86a.54.54,0,0,1,.5.53V51.56a.54.54,0,0,1-.5.53h-2.66a.54.54,0,0,1-.53-.53v-6.9c0-.21-.16-.26-.26-.08l-3.61,7.06c-.15.27-.32.45-.58.45h-2.61a.54.54,0,0,1-.5-.53v-10a3.31,3.31,0,0,0-.55-2.09c-.22-.33-.12-.6.14-.6h3.52a.54.54,0,0,1,.55.53v6.9c0,.21.17.26.27.08l3.61-7.06c.14-.28.31-.45.58-.45Zm-9.31-4.16a.5.5,0,0,1,.28-.63l1.51-.56a.35.35,0,0,1,.48.26c.31,1,1,2.16,1.8,2.16s1.48-1.11,1.79-2.16a.35.35,0,0,1,.48-.26l1.51.56a.5.5,0,0,1,.28.63,4.25,4.25,0,0,1-8.13,0Z" style="fill: #fff"/>
          <path d="M241.54,38.86c.29,0,.46.22.51.53l.19,1.56c0,.33-.22.43-.55.3a5.06,5.06,0,0,0-2-.35H239a.55.55,0,0,0-.53.58V51.56a.53.53,0,0,1-.52.53h-2.64a.54.54,0,0,1-.5-.53V41.48a.55.55,0,0,0-.53-.58h-.71a5.06,5.06,0,0,0-2,.35c-.34.13-.6,0-.55-.3l.19-1.56c.05-.31.22-.53.5-.53Z" style="fill: #fff"/>
          <path d="M244.17,41.55a3.31,3.31,0,0,0-.55-2.09c-.22-.33-.12-.6.14-.6h3.54a.54.54,0,0,1,.53.55V51.56a.54.54,0,0,1-.53.53h-2.63a.54.54,0,0,1-.5-.53Zm3.9-6a2.16,2.16,0,1,1-2.16-2.24A2.19,2.19,0,0,1,248.07,35.58Z" style="fill: #fff"/>
          <path d="M270.4,49.39a3.25,3.25,0,0,0,.56,2.1c.21.32.11.6-.15.6h-3.28a.54.54,0,0,1-.52-.55v-.38c0-.46-.27-.43-.56-.18a5.61,5.61,0,0,1-3.87,1.46c-3.6,0-6-3.12-6-6.95s2.44-7,6-7a5.48,5.48,0,0,1,3.68,1.32c.34.27.51,0,.51-.11v-.32a.54.54,0,0,1,.52-.53h2.61a.53.53,0,0,1,.5.53ZM266.77,47V44a2.09,2.09,0,0,0-.27-1,3.46,3.46,0,0,0-2.92-2c-1.84,0-3.28,1.72-3.28,4.57S261.74,50,263.58,50a3.54,3.54,0,0,0,2.92-2A2.09,2.09,0,0,0,266.77,47Z" style="fill: #fff"/>
          <path d="M276.79,40.19a5.46,5.46,0,0,1,3.31-1.08c4,0,7,2.57,7,6.48s-2.82,6.85-7.13,6.85a6.67,6.67,0,0,1-7.06-6.85v-.73c0-5.75,2.63-9.68,8-9.68,1.08,0,1.75-.31,2-1,.22-.38.39-.43.77-.25l1.79.85c.34.16.48.36.32.74-.58,1.38-1.68,2.21-4.48,2.21-2.28,0-3.95.53-4.79,2.17C276.43,40.17,276.55,40.37,276.79,40.19Zm6.49,5.57c0-2.64-1.36-4.61-3.35-4.61s-3.28,2-3.28,4.61,1.44,4.62,3.28,4.62S283.28,48.41,283.28,45.76Z" style="fill: #fff"/>
          <path d="M302.93,45.49a7.1,7.1,0,0,1-14.19,0,7.1,7.1,0,0,1,14.19,0Zm-3.78,0c0-2.85-1.41-4.92-3.33-4.92s-3.3,2.07-3.3,4.92,1.44,4.89,3.3,4.89S299.15,48.29,299.15,45.49Z" style="fill: #fff"/>
          <path d="M311.67,41.55a3.31,3.31,0,0,0-.55-2.09c-.21-.33-.12-.6.14-.6H318a3.6,3.6,0,0,1,3.8,3.3,3.23,3.23,0,0,1-1.34,2.57c-.21.15-.16.25,0,.38a3.79,3.79,0,0,1,2,3.3,4.05,4.05,0,0,1-4.31,3.68h-6a.54.54,0,0,1-.5-.53Zm3.66,1.9a.53.53,0,0,0,.51.55H317a1.45,1.45,0,0,0,1.18-1.56,1.39,1.39,0,0,0-1.35-1.54h-1a.51.51,0,0,0-.51.53Zm0,6a.53.53,0,0,0,.51.56h1.29a1.79,1.79,0,0,0,1.56-1.94c0-1-.65-2-1.56-2h-1.29a.5.5,0,0,0-.51.53Z" style="fill: #fff"/>
          <path d="M331.57,46.17a.38.38,0,0,1,.71.15,4.74,4.74,0,0,0,4.31,3.88c1.65,0,2.56-.91,2.56-2.27,0-1.64-1.43-2.42-3.11-3.3-2.44-1.26-4.79-2.75-4.76-6,0-2.77,2.44-4.54,5.34-4.54a6.27,6.27,0,0,1,4.62,1.69.73.73,0,0,1,0,.83l-.83,1.47c-.17.35-.58.3-.79,0a3.68,3.68,0,0,0-3-1.71c-1.2,0-1.89.6-1.89,1.61,0,1.18,1.41,1.87,3.18,2.82,2.08,1.14,4.6,2.95,4.6,6.36,0,3-2.18,5.31-5.8,5.31a6.59,6.59,0,0,1-6.2-3.63.9.9,0,0,1,0-.7Z" style="fill: #fff"/>
          <path d="M349.34,34.45a.84.84,0,0,1,.7.55l3.26,10.41a.17.17,0,0,0,.14.15c.07,0,.12-.05.14-.15L356.79,35a.78.78,0,0,1,.69-.55h3.62a.55.55,0,0,1,.55.55V51.56a.54.54,0,0,1-.55.53h-2.92a.54.54,0,0,1-.5-.53v-9.4a.18.18,0,1,0-.36,0l-3,9.45a.8.8,0,0,1-.7.53h-1.7a.84.84,0,0,1-.69-.53l-3-9.45a.18.18,0,1,0-.36,0v9.4a.54.54,0,0,1-.55.53h-1.49a.54.54,0,0,1-.5-.53V37.14a3.31,3.31,0,0,0-.55-2.09c-.22-.33-.1-.6.17-.6Z" style="fill: #fff"/>
          <path d="M365.43,46.17a.38.38,0,0,1,.71.15,4.74,4.74,0,0,0,4.31,3.88c1.65,0,2.56-.91,2.56-2.27,0-1.64-1.43-2.42-3.11-3.3-2.44-1.26-4.79-2.75-4.76-6,0-2.77,2.44-4.54,5.34-4.54a6.27,6.27,0,0,1,4.62,1.69.75.75,0,0,1,0,.83l-.84,1.47c-.17.35-.58.3-.79,0a3.68,3.68,0,0,0-3-1.71c-1.2,0-1.89.6-1.89,1.61,0,1.18,1.41,1.87,3.18,2.82,2.08,1.14,4.6,2.95,4.6,6.36,0,3-2.18,5.31-5.8,5.31a6.59,6.59,0,0,1-6.2-3.63.9.9,0,0,1,0-.7Z" style="fill: #fff"/>
          <path d="M379.66,55.17c-.41.25-.86-.15-.58-.66a3.36,3.36,0,0,0,.46-1.74,2.58,2.58,0,0,0-.29-1.26,2.25,2.25,0,0,1-.41-1.31,2.16,2.16,0,1,1,4.31,0C383.15,52.24,381,54.46,379.66,55.17Z" style="fill: #fff"/>
          <path d="M148.33,67.38a5,5,0,0,0-1.17-2.06c-.33-.33-.19-.63.15-.63h3.78c.43,0,.52.1.69.55l3.93,11.47c0,.2.29.25.36,0l4-11.47c.14-.4.26-.55.69-.55h1.8a.35.35,0,0,1,.36.5L157,81.8c-.14.46-.26.53-.72.53h-2.06c-.43,0-.52-.07-.69-.53Z" style="fill: #fff"/>
          <path d="M165,71.79a3.31,3.31,0,0,0-.55-2.09c-.22-.33-.12-.6.14-.6h3.55a.54.54,0,0,1,.52.55V81.8a.54.54,0,0,1-.52.53h-2.64a.54.54,0,0,1-.5-.53Zm3.9-6a2.16,2.16,0,1,1-2.15-2.24A2.19,2.19,0,0,1,168.85,65.82Z" style="fill: #fff"/>
          <path d="M172,82.33a.54.54,0,0,1-.5-.53V66.88a3.31,3.31,0,0,0-.55-2.09c-.22-.33-.12-.61.14-.61h3.52a.55.55,0,0,1,.55.56V70c0,.13.17.38.5.11a5.53,5.53,0,0,1,3.69-1.32c3.59,0,6,3.16,6,7s-2.45,7-6,7a5.73,5.73,0,0,1-3.88-1.46c-.28-.25-.43-.17-.55.18l-.12.38a.71.71,0,0,1-.62.55Zm6.35-2.07c1.84,0,3.28-1.73,3.28-4.53s-1.44-4.57-3.28-4.57a3.44,3.44,0,0,0-2.92,2,2.09,2.09,0,0,0-.27,1v3a2.09,2.09,0,0,0,.27,1A3.52,3.52,0,0,0,178.39,80.26Z" style="fill: #fff"/>
          <path d="M187,75.73a6.94,6.94,0,1,1,13.88,0v.07a.84.84,0,0,1-.76.81h-8.93c-.22,0-.34.13-.29.4a4,4,0,0,0,3.81,3.61,4.57,4.57,0,0,0,3.83-2,.34.34,0,0,1,.52,0l.94.76A.55.55,0,0,1,200,80,7.36,7.36,0,0,1,187,75.73Zm3.95-1.62c0,.33.07.43.26.43h5.39c.21,0,.31-.12.26-.48-.24-1.86-1.51-3.25-3-3.25S191.16,72.2,190.92,74.11Z" style="fill: #fff"/>
          <path d="M206.64,74.57V81.8a.54.54,0,0,1-.53.53h-2.63a.54.54,0,0,1-.51-.53v-10a3.25,3.25,0,0,0-.55-2.09c-.21-.33-.12-.6.15-.6h3.3a.54.54,0,0,1,.53.55V70c0,.27.17.32.38.12a4.13,4.13,0,0,1,3.14-1.39,4.3,4.3,0,0,1,1.27.21c.26.1.43.27.31.6l-.91,2.6a.41.41,0,0,1-.74.2,1.86,1.86,0,0,0-1.37-.66C207.33,71.69,206.64,72.8,206.64,74.57Z" style="fill: #fff"/>
          <path d="M233,79.63a3.32,3.32,0,0,0,.55,2.1c.22.32.12.6-.14.6h-3.28a.54.54,0,0,1-.53-.55V81.4c0-.45-.26-.43-.55-.18a5.61,5.61,0,0,1-3.88,1.46c-3.59,0-6-3.12-6-7s2.44-7,6-7a5.49,5.49,0,0,1,3.69,1.32c.33.27.5,0,.5-.11v-.32a.54.54,0,0,1,.53-.53h2.61a.54.54,0,0,1,.5.53Zm-3.64-2.39v-3a2.2,2.2,0,0,0-.26-1,3.47,3.47,0,0,0-2.92-2c-1.85,0-3.28,1.72-3.28,4.57s1.43,4.53,3.28,4.53a3.54,3.54,0,0,0,2.92-2A2.2,2.2,0,0,0,229.38,77.24Z" style="fill: #fff"/>
          <path d="M239.41,70.43a5.41,5.41,0,0,1,3.3-1.08c4,0,7,2.57,7,6.48s-2.83,6.85-7.14,6.85a6.67,6.67,0,0,1-7.06-6.85V75.1c0-5.75,2.64-9.68,8-9.68,1.08,0,1.75-.3,2-1,.21-.38.38-.43.76-.25l1.8.85c.33.16.48.36.31.74-.57,1.38-1.68,2.21-4.48,2.21-2.27,0-4,.53-4.78,2.17C239.05,70.41,239.17,70.61,239.41,70.43ZM245.9,76c0-2.64-1.37-4.61-3.36-4.61-1.84,0-3.28,2-3.28,4.61s1.44,4.62,3.28,4.62S245.9,78.65,245.9,76Z" style="fill: #fff"/>
          <path d="M265.55,75.73a7.1,7.1,0,1,1-7.11-7A6.73,6.73,0,0,1,265.55,75.73Zm-3.78,0c0-2.85-1.42-4.92-3.33-4.92s-3.31,2.07-3.31,4.92,1.44,4.89,3.31,4.89S261.77,78.53,261.77,75.73Z" style="fill: #fff"/>
          <path d="M275.7,66.93a6.57,6.57,0,0,0-2.11.38c-.33.12-.57,0-.53-.36l.22-1.73a.59.59,0,0,1,.6-.53H286a.59.59,0,0,1,.6.53l.21,1.73c.05.36-.19.48-.52.36a6.57,6.57,0,0,0-2.11-.38h-1.72a.55.55,0,0,0-.51.58V81.78a.54.54,0,0,1-.52.55h-2.92a.54.54,0,0,1-.53-.55V67.51a.55.55,0,0,0-.53-.58Z" style="fill: #fff"/>
          <path d="M286,75.73a6.94,6.94,0,1,1,13.88,0v.07a.84.84,0,0,1-.76.81H290.2c-.22,0-.34.13-.29.4a4,4,0,0,0,3.81,3.61,4.57,4.57,0,0,0,3.83-2,.35.35,0,0,1,.53,0l.93.76a.55.55,0,0,1,.07.65,6.81,6.81,0,0,1-5.86,2.72C289.05,82.68,286,79.81,286,75.73ZM290,74.11c0,.33.07.43.26.43h5.39c.21,0,.31-.12.26-.48-.24-1.86-1.51-3.25-3-3.25S290.2,72.2,290,74.11Z" style="fill: #fff"/>
          <path d="M305.16,64.08a.55.55,0,0,1,.53.56V81.8a.54.54,0,0,1-.53.53h-2.63a.54.54,0,0,1-.5-.53v-15a3.27,3.27,0,0,0-.55-2.09c-.22-.33-.12-.61.14-.61Z" style="fill: #fff"/>
          <path d="M307.9,75.73a6.94,6.94,0,1,1,13.88,0v.07a.85.85,0,0,1-.76.81h-8.93c-.22,0-.34.13-.29.4a4,4,0,0,0,3.81,3.61,4.57,4.57,0,0,0,3.83-2,.34.34,0,0,1,.52,0l.94.76A.55.55,0,0,1,321,80a7.36,7.36,0,0,1-13.07-4.23Zm4-1.62c-.05.33.07.43.26.43h5.39c.21,0,.31-.12.26-.48-.24-1.86-1.51-3.25-3-3.25S312.09,72.2,311.85,74.11Z" style="fill: #fff"/>
          <path d="M337.17,80.49c0,4.34-2.46,6.61-7,6.61a7.75,7.75,0,0,1-5.87-2.1,1.07,1.07,0,0,1-.26-.93l.6-1.51c.14-.35.45-.43.69,0a5.51,5.51,0,0,0,4.6,2.45,3.35,3.35,0,0,0,3.61-3.45c0-.46-.26-.43-.52-.18a5.37,5.37,0,0,1-3.81,1.28c-3.49,0-5.89-3.12-5.89-7s2.44-7,6-7A5.49,5.49,0,0,1,333,70.06c.34.27.5,0,.5-.11v-.32a.54.54,0,0,1,.53-.53h2.61a.54.54,0,0,1,.5.53Zm-3.64-3.25v-3a2.2,2.2,0,0,0-.26-1,3.46,3.46,0,0,0-2.92-2c-1.84,0-3.28,1.72-3.28,4.57s1.44,4.53,3.28,4.53a3.54,3.54,0,0,0,2.92-2A2.2,2.2,0,0,0,333.53,77.24Z" style="fill: #fff"/>
          <path d="M343.8,74.57V81.8a.54.54,0,0,1-.53.53h-2.63a.54.54,0,0,1-.5-.53v-10a3.31,3.31,0,0,0-.55-2.09c-.22-.33-.12-.6.14-.6H343a.54.54,0,0,1,.53.55V70c0,.27.17.32.38.12a4.13,4.13,0,0,1,3.14-1.39,4.3,4.3,0,0,1,1.27.21c.26.1.43.27.31.6l-.91,2.6a.41.41,0,0,1-.74.2,1.86,1.86,0,0,0-1.37-.66C344.49,71.69,343.8,72.8,343.8,74.57Z" style="fill: #fff"/>
          <path d="M363.05,79.63a3.26,3.26,0,0,0,.55,2.1c.21.32.12.6-.15.6h-3.28a.54.54,0,0,1-.52-.55V81.4c0-.45-.27-.43-.56-.18a5.61,5.61,0,0,1-3.87,1.46c-3.59,0-6-3.12-6-7s2.45-7,6-7a5.48,5.48,0,0,1,3.68,1.32c.34.27.51,0,.51-.11v-.32a.54.54,0,0,1,.52-.53h2.61a.54.54,0,0,1,.51.53Zm-3.64-2.39v-3a2.09,2.09,0,0,0-.27-1,3.44,3.44,0,0,0-2.92-2c-1.84,0-3.28,1.72-3.28,4.57s1.44,4.53,3.28,4.53a3.53,3.53,0,0,0,2.92-2A2.09,2.09,0,0,0,359.41,77.24Z" style="fill: #fff"/>
          <path d="M380.77,82.33a.54.54,0,0,1-.5-.53V73.71c0-1.81-.53-2.47-1.51-2.47s-1.94,1.39-1.94,3.2V81.8a.51.51,0,0,1-.5.53h-2.66a.54.54,0,0,1-.5-.53v-8c0-1.81-.53-2.47-1.51-2.47s-1.91,1.39-1.91,3.18V81.8a.53.53,0,0,1-.53.53h-2.63a.54.54,0,0,1-.51-.53v-10a3.25,3.25,0,0,0-.55-2.09c-.21-.33-.12-.6.15-.6H369a.54.54,0,0,1,.53.55v.18c0,.38.12.4.33.2a3.78,3.78,0,0,1,3-1.29,3.43,3.43,0,0,1,2.9,1.39c.14.2.26.25.5,0a5.08,5.08,0,0,1,3.54-1.42c2.45,0,4.19,1.37,4.19,4.42V81.8a.54.54,0,0,1-.52.53Z" style="fill: #fff"/>
        </g>
      </g>
    </g>
  </g>
</svg>
