<svg xmlns="http://www.w3.org/2000/svg" width="228.2" height="98.92" viewBox="0 0 228.2 98.92">
  <title>Asset 4</title>
  <g id="Layer_2" data-name="Layer 2">
    <g id="prizes_copy_4" data-name="prizes copy 4">
      <g>
        <g>
          <path d="M37.25,98.45H30.54V86.16H26V98.47H19.32V67.11H26V79.44h4.5V67.1h6.71Z" style="fill: #fde619"/>
          <path d="M58.8,90.43l-4.49,4.49h-9l-4.49-4.49V68l4.49-4.49h9L58.8,68Zm-6.72-2.27V70.23h-4.5V88.16Z" style="fill: #fde619"/>
          <path d="M78.1,95.37H62.4V63.94h6.72V88.66h9Z" style="fill: #fde619"/>
          <path d="M96.05,95.37H80.35V63.94h6.72V88.66h9Z" style="fill: #fde619"/>
          <path d="M117.12,66.64l-6.73,16.61V98h-6.71V83.25L96.93,66.64h6.75L107,75.41l3.37-8.77Z" style="fill: #fde619"/>
          <path d="M146.55,67.56l-5.83,31.36h-7.19l-1.79-10.4-1.8,10.4h-7.16L117,67.56h6.68l3.6,17.37,2.69-17.37h3.59l2.7,17.37,3.59-17.37Z" style="fill: #fde619"/>
          <path d="M165.6,90.43l-4.49,4.49h-9l-4.49-4.49V68l4.49-4.49h9L165.6,68Zm-6.71-2.27V70.23h-4.5V88.16Z" style="fill: #fde619"/>
          <path d="M187.14,90.43l-4.48,4.49h-9l-4.49-4.49V68l4.49-4.49h9L187.14,68Zm-6.71-2.27V70.23h-4.5V88.16Z" style="fill: #fde619"/>
          <path d="M208.69,93.13l-4.49,4.42H190.75V66.22H204.2l4.49,4.49ZM202,90.87V72.94h-4.5V90.87Z" style="fill: #fde619"/>
        </g>
        <g>
          <path d="M54.23,3.66a3.17,3.17,0,0,0-.58-2.09c-.23-.33-.13-.61.15-.61h7.63C64.76,1,67,3,67,5.57A4.09,4.09,0,0,1,65.06,9c-.17.12-.2.3,0,.4a4.78,4.78,0,0,1,2.82,4.16c0,2.77-2.42,5.07-6,5.07H54.75a.55.55,0,0,1-.52-.53Zm4.61-.46a.44.44,0,0,0-.41.46V7.82a.44.44,0,0,0,.33.43h1.77c1.41,0,2.19-1.09,2.19-2.58A2.2,2.2,0,0,0,60.43,3.2Zm0,7.29a.42.42,0,0,0-.41.43v5a.42.42,0,0,0,.33.43H60.6a2.64,2.64,0,0,0,2.85-2.9c0-1.71-1-3-2.6-3Z" style="fill: #fff"/>
          <path d="M81.71,5.37a.55.55,0,0,1,.53.53V18.08a.56.56,0,0,1-.53.53h-2.8a.57.57,0,0,1-.56-.53V11.17c0-.2-.17-.25-.27-.08l-3.81,7.06c-.15.28-.33.46-.6.46H70.92a.55.55,0,0,1-.53-.53v-10A3.11,3.11,0,0,0,69.81,6c-.23-.33-.13-.61.15-.61h3.71a.56.56,0,0,1,.57.53v6.91c0,.2.18.25.28.07l3.81-7c.15-.28.33-.46.6-.46Z" style="fill: #fff"/>
          <path d="M94,5.37c.31,0,.48.23.53.53l.23,1.56c0,.33-.23.43-.58.31a5.32,5.32,0,0,0-2.09-.36H90a.56.56,0,0,0-.56.58V18.08a.56.56,0,0,1-.55.53H86.09a.55.55,0,0,1-.53-.53v-10A3.11,3.11,0,0,0,85,6c-.23-.33-.13-.61.15-.61Z" style="fill: #fff"/>
          <path d="M100.7,22.46a.57.57,0,0,1-.58.56H97.44a.57.57,0,0,1-.58-.56V8.09A3.22,3.22,0,0,0,96.29,6c-.23-.33-.13-.6.15-.6h3.45a.55.55,0,0,1,.55.55v.38c0,.45.28.43.58.18A6.13,6.13,0,0,1,105.11,5c3.78,0,6.35,3.13,6.35,7s-2.57,7-6.35,7a6,6,0,0,1-3.88-1.31c-.36-.27-.53,0-.53.1Zm0-12v3a2.09,2.09,0,0,0,.27,1,3.64,3.64,0,0,0,3.08,2c1.94,0,3.45-1.71,3.45-4.56S106,7.46,104.05,7.46a3.75,3.75,0,0,0-3.08,2A2.09,2.09,0,0,0,100.7,10.49Z" style="fill: #fff"/>
          <path d="M127.78,15.91a3.16,3.16,0,0,0,.58,2.09c.23.33.12.61-.15.61h-3.46a.56.56,0,0,1-.55-.56v-.38c0-.45-.28-.43-.58-.17A6.13,6.13,0,0,1,119.54,19c-3.78,0-6.36-3.13-6.36-7s2.58-7,6.36-7a6,6,0,0,1,3.88,1.31c.35.28.53,0,.53-.1V5.9a.55.55,0,0,1,.55-.53h2.75a.55.55,0,0,1,.53.53ZM124,13.51v-3a2.09,2.09,0,0,0-.28-1,3.64,3.64,0,0,0-3.07-2c-1.95,0-3.46,1.71-3.46,4.56s1.51,4.54,3.46,4.54a3.74,3.74,0,0,0,3.07-2A2.1,2.1,0,0,0,124,13.51Z" style="fill: #fff"/>
          <path d="M131.13,8.07A3.11,3.11,0,0,0,130.55,6c-.23-.33-.12-.61.15-.61h7.06c2.27,0,4,1.57,4,3.3a3.24,3.24,0,0,1-1.41,2.58c-.23.15-.18.25,0,.37a3.82,3.82,0,0,1,2.15,3.31c0,1.91-1.95,3.68-4.54,3.68h-6.33a.55.55,0,0,1-.53-.53ZM135,10a.53.53,0,0,0,.53.55h1.18A1.47,1.47,0,0,0,137.94,9a1.41,1.41,0,0,0-1.41-1.54h-1a.52.52,0,0,0-.53.53ZM135,16a.54.54,0,0,0,.53.55h1.36a1.81,1.81,0,0,0,1.64-1.94,1.9,1.9,0,0,0-1.64-2h-1.36a.52.52,0,0,0-.53.53Z" style="fill: #fff"/>
          <path d="M158.71,15.91a3.21,3.21,0,0,0,.58,2.09c.23.33.13.61-.15.61h-3.45a.56.56,0,0,1-.55-.56v-.38c0-.45-.28-.43-.58-.17A6.18,6.18,0,0,1,150.47,19c-3.78,0-6.35-3.13-6.35-7s2.57-7,6.35-7a6,6,0,0,1,3.88,1.31c.36.28.53,0,.53-.1V5.9a.56.56,0,0,1,.56-.53h2.75a.55.55,0,0,1,.52.53Zm-3.83-2.4v-3a2.09,2.09,0,0,0-.27-1,3.65,3.65,0,0,0-3.08-2c-1.94,0-3.45,1.71-3.45,4.56s1.51,4.54,3.45,4.54a3.74,3.74,0,0,0,3.08-2A2.1,2.1,0,0,0,154.88,13.51Z" style="fill: #fff"/>
          <path d="M173.41,5.37a.55.55,0,0,1,.53.53V18.08a.55.55,0,0,1-.53.53h-2.8a.56.56,0,0,1-.55-.53V11.17c0-.2-.18-.25-.28-.08L166,18.15c-.15.28-.33.46-.6.46h-2.75a.55.55,0,0,1-.53-.53v-10A3.11,3.11,0,0,0,161.51,6c-.23-.33-.13-.61.15-.61h3.71a.57.57,0,0,1,.58.53v6.91c0,.2.17.25.27.07l3.81-7c.15-.28.33-.46.6-.46ZM163.6,1.21a.52.52,0,0,1,.3-.63L165.49,0a.37.37,0,0,1,.51.25c.32,1.06,1,2.17,1.89,2.17s1.56-1.11,1.89-2.17a.36.36,0,0,1,.5-.25l1.59.55a.5.5,0,0,1,.3.63,4.6,4.6,0,0,1-4.28,3A4.62,4.62,0,0,1,163.6,1.21Z" style="fill: #fff"/>
          <path d="M11.42,35.61a.54.54,0,0,1,.5.53V48.32a.54.54,0,0,1-.5.53H8.76a.55.55,0,0,1-.53-.53V38.23a.55.55,0,0,0-.52-.58H4.84a.51.51,0,0,0-.51.58V48.32a.55.55,0,0,1-.55.53H1.17a.54.54,0,0,1-.5-.53v-10a3.29,3.29,0,0,0-.55-2.09c-.22-.33-.12-.61.14-.61Z" style="fill: #fff"/>
          <path d="M28.52,42.24a6.74,6.74,0,0,1-7.11,7,6.75,6.75,0,0,1-7.09-7,6.77,6.77,0,0,1,7.09-7A6.76,6.76,0,0,1,28.52,42.24Zm-3.78,0c0-2.85-1.42-4.91-3.33-4.91s-3.3,2.06-3.3,4.91,1.43,4.89,3.3,4.89S24.74,45,24.74,42.24Z" style="fill: #fff"/>
          <path d="M32.31,38.31a3.23,3.23,0,0,0-.55-2.09c-.21-.33-.12-.61.15-.61h8.93a.54.54,0,0,1,.52.53V46.25a.54.54,0,0,0,.53.55h.84a.53.53,0,0,1,.55.53L43,51.62a.55.55,0,0,1-.55.55H41.41c-.31,0-.48-.25-.55-.55l-.48-2.19a.64.64,0,0,0-.57-.58H32.62a.65.65,0,0,0-.57.58l-.48,2.19c-.07.3-.21.55-.53.55H29.92a.54.54,0,0,1-.53-.55l-.24-4.29a.53.53,0,0,1,.53-.53h.81c.46,0,.6-.07.72-.53a24.52,24.52,0,0,0,1.1-6.73Zm4.84,8.49a.55.55,0,0,0,.55-.55v-8a.53.53,0,0,0-.55-.58H35a.54.54,0,0,0-.5.58v1.31a24.1,24.1,0,0,1-1,6.73c-.1.36,0,.53.38.53Z" style="fill: #fff"/>
          <path d="M58.4,42.24a6.74,6.74,0,0,1-7.11,7,6.75,6.75,0,0,1-7.09-7,6.77,6.77,0,0,1,7.09-7A6.76,6.76,0,0,1,58.4,42.24Zm-3.78,0c0-2.85-1.41-4.91-3.33-4.91S48,39.39,48,42.24s1.43,4.89,3.3,4.89S54.62,45,54.62,42.24Z" style="fill: #fff"/>
          <path d="M64.31,52.7a.55.55,0,0,1-.55.56H61.23a.55.55,0,0,1-.56-.56V38.33a3.25,3.25,0,0,0-.55-2.09c-.21-.33-.12-.6.15-.6h3.28a.54.54,0,0,1,.52.55v.38c0,.45.27.43.55.18a5.66,5.66,0,0,1,3.88-1.47c3.59,0,6,3.13,6,7s-2.45,7-6,7a5.48,5.48,0,0,1-3.68-1.31c-.34-.27-.51,0-.51.1Zm0-12v3.05a2.09,2.09,0,0,0,.27,1,3.43,3.43,0,0,0,2.92,2c1.84,0,3.28-1.71,3.28-4.56S69.34,37.7,67.5,37.7a3.53,3.53,0,0,0-2.92,2A2.09,2.09,0,0,0,64.31,40.73Z" style="fill: #fff"/>
          <path d="M90.39,42.24a7.1,7.1,0,0,1-14.19,0,7.1,7.1,0,0,1,14.19,0Zm-3.78,0c0-2.85-1.41-4.91-3.33-4.91S80,39.39,80,42.24s1.44,4.89,3.3,4.89S86.61,45,86.61,42.24Z" style="fill: #fff"/>
          <path d="M93.85,35.61c.27,0,.48.1.82.51l3,4.26a.62.62,0,0,0,.48.3c.16,0,.24-.1.24-.33V36.17a.55.55,0,0,1,.52-.56h2.61a.55.55,0,0,1,.53.56v4.18c0,.23.07.33.24.33a.64.64,0,0,0,.48-.3l3-4.26c.33-.41.55-.51.81-.51h1.8c.31,0,.38.3.14.61l-3.4,4.63a.46.46,0,0,0,0,.61l4.53,6.86a.31.31,0,0,1-.22.53h-2.82a1.21,1.21,0,0,1-1.11-.51l-2.82-4.89a.51.51,0,0,0-.46-.28c-.12,0-.21.1-.21.36v4.79a.55.55,0,0,1-.53.53H99a.55.55,0,0,1-.52-.53V43.53c0-.26-.1-.36-.22-.36a.49.49,0,0,0-.45.28l-2.83,4.89a1.19,1.19,0,0,1-1.1.51H91a.31.31,0,0,1-.21-.53l4.52-6.86a.45.45,0,0,0,0-.61l-1.86-2.54a11,11,0,0,0-1.82-2.09c-.41-.31-.29-.61.09-.61Z" style="fill: #fff"/>
          <path d="M121,35.61a.54.54,0,0,1,.55.53v4.34c0,.35.19.58.5.58h2.88a.55.55,0,0,0,.52-.58V36.14a.54.54,0,0,1,.53-.53h2.66a.54.54,0,0,1,.5.53V48.32a.54.54,0,0,1-.5.53H126a.55.55,0,0,1-.53-.53V43.68a.55.55,0,0,0-.52-.58h-2.88c-.31,0-.5.23-.5.58v4.64a.55.55,0,0,1-.55.53h-2.61a.54.54,0,0,1-.5-.53v-10a3.29,3.29,0,0,0-.55-2.09c-.22-.33-.12-.61.14-.61Z" style="fill: #fff"/>
          <path d="M145.43,46.15a3.31,3.31,0,0,0,.55,2.09c.22.33.12.61-.14.61h-3.28a.55.55,0,0,1-.53-.56v-.38c0-.45-.26-.43-.55-.17a5.65,5.65,0,0,1-3.87,1.46c-3.6,0-6-3.13-6-7s2.44-7,6-7a5.53,5.53,0,0,1,3.68,1.31c.34.28.51,0,.51-.1v-.33a.53.53,0,0,1,.52-.53h2.61a.54.54,0,0,1,.5.53Zm-3.63-2.4v-3a2.09,2.09,0,0,0-.27-1,3.46,3.46,0,0,0-2.92-2c-1.84,0-3.28,1.71-3.28,4.56s1.44,4.54,3.28,4.54a3.54,3.54,0,0,0,2.92-2A2.1,2.1,0,0,0,141.8,43.75Z" style="fill: #fff"/>
          <path d="M156.73,38.31a3.29,3.29,0,0,0-.55-2.09c-.21-.33-.12-.61.14-.61h8.94a.54.54,0,0,1,.52.53V46.25a.54.54,0,0,0,.53.55h.84a.53.53,0,0,1,.55.53l-.24,4.29a.55.55,0,0,1-.55.55h-1.08c-.31,0-.48-.25-.55-.55l-.48-2.19a.64.64,0,0,0-.57-.58H157a.65.65,0,0,0-.57.58L156,51.62c-.07.3-.22.55-.53.55h-1.12a.54.54,0,0,1-.53-.55l-.24-4.29a.53.53,0,0,1,.53-.53h.81c.46,0,.6-.07.72-.53a24.52,24.52,0,0,0,1.1-6.73Zm4.84,8.49a.55.55,0,0,0,.55-.55v-8a.53.53,0,0,0-.55-.58h-2.16a.54.54,0,0,0-.5.58v1.31a23.72,23.72,0,0,1-1,6.73c-.09.36,0,.53.39.53Z" style="fill: #fff"/>
          <path d="M169.58,38.31a3.21,3.21,0,0,0-.56-2.09c-.21-.33-.11-.61.15-.61h6.7a3.61,3.61,0,0,1,3.81,3.3,3.28,3.28,0,0,1-1.34,2.58c-.22.15-.17.25,0,.37a3.83,3.83,0,0,1,2,3.31c0,1.91-1.85,3.68-4.31,3.68h-6a.54.54,0,0,1-.5-.53Zm3.66,1.89a.52.52,0,0,0,.5.55h1.13A1.45,1.45,0,0,0,176,39.19a1.38,1.38,0,0,0-1.34-1.54h-1a.5.5,0,0,0-.5.53Zm0,6a.52.52,0,0,0,.5.55H175a1.79,1.79,0,0,0,1.56-1.94c0-1-.65-2-1.56-2h-1.29a.5.5,0,0,0-.5.53Z" style="fill: #fff"/>
          <path d="M196.07,42.24a7.1,7.1,0,0,1-14.2,0,7.1,7.1,0,0,1,14.2,0Zm-3.79,0c0-2.85-1.41-4.91-3.32-4.91s-3.31,2.06-3.31,4.91,1.44,4.89,3.31,4.89S192.28,45,192.28,42.24Z" style="fill: #fff"/>
          <path d="M200.76,35.61a.76.76,0,0,1,.84.48l1.77,3c.17.28.34.3.53,0l2-3a1,1,0,0,1,.84-.48h1.65a.29.29,0,0,1,.24.48l-3.45,5.14a.58.58,0,0,0,0,.76l3.9,6.4c.15.25,0,.46-.23.46h-3.29c-.45,0-.57-.05-.83-.48l-2.16-3.53c-.17-.28-.31-.28-.5,0l-2.35,3.53a.93.93,0,0,1-.83.48h-1.66a.28.28,0,0,1-.24-.46l3.79-5.64a.58.58,0,0,0,0-.76l-2.21-3.68a7.53,7.53,0,0,0-1.74-2.09c-.39-.31-.27-.61.12-.61Z" style="fill: #fff"/>
          <path d="M217.38,38.31a3.29,3.29,0,0,0-.55-2.09c-.22-.33-.12-.61.14-.61h6.7a3.61,3.61,0,0,1,3.81,3.3,3.28,3.28,0,0,1-1.34,2.58c-.22.15-.17.25,0,.37a3.83,3.83,0,0,1,2,3.31c0,1.91-1.85,3.68-4.31,3.68h-6a.54.54,0,0,1-.5-.53ZM221,40.2a.52.52,0,0,0,.5.55h1.13a1.45,1.45,0,0,0,1.17-1.56,1.38,1.38,0,0,0-1.34-1.54h-1a.5.5,0,0,0-.5.53Zm0,6a.52.52,0,0,0,.5.55h1.3a1.79,1.79,0,0,0,1.55-1.94c0-1-.65-2-1.55-2h-1.3a.5.5,0,0,0-.5.53Z" style="fill: #fff"/>
        </g>
      </g>
    </g>
  </g>
</svg>
