<svg xmlns="http://www.w3.org/2000/svg" width="171.84" height="92.09" viewBox="0 0 171.84 92.09">
  <title>Asset 4</title>
  <g id="Layer_2" data-name="Layer 2">
    <g id="prizes_copy_5" data-name="prizes copy 5">
      <g>
        <g>
          <path d="M61.73,3.38V.15C48.17-.58,45.2,1.56,30.86,1.56S13.56-.58,0,.15V3.38A1.45,1.45,0,0,0,1.05,4.77,1.46,1.46,0,0,0,.53,5.89V6.8h0A23.7,23.7,0,0,0,3.35,16.9a9.34,9.34,0,0,1,1.3,5.58C4.25,27,3.57,35.84,3.57,46S4.25,65.11,4.65,69.6a9.37,9.37,0,0,1-1.3,5.59A23.7,23.7,0,0,0,.53,85.28h0v.91a1.44,1.44,0,0,0,.52,1.12A1.46,1.46,0,0,0,0,88.7v3.24c13.56.72,16.52-1.41,30.86-1.41s17.31,2.13,30.87,1.41V88.7a1.46,1.46,0,0,0-1-1.39,1.44,1.44,0,0,0,.52-1.12v-.91h0a23.7,23.7,0,0,0-2.82-10.09,9.37,9.37,0,0,1-1.3-5.59c.39-4.49,1.07-13.35,1.07-23.56S57.47,27,57.08,22.48a9.34,9.34,0,0,1,1.3-5.58A23.7,23.7,0,0,0,61.2,6.8h0V5.89a1.46,1.46,0,0,0-.52-1.12A1.45,1.45,0,0,0,61.73,3.38Z" style="fill: #fde619"/>
          <path d="M54.45,4.85C50.52,5.26,46.66,6,42.73,6.48a90.42,90.42,0,0,1-11.87.76A88.94,88.94,0,0,1,19,6.48C15.06,6,11.21,5.26,7.27,4.85a90,90,0,0,1,11.85.3c3.92.26,7.82.4,11.74.38s7.83-.11,11.75-.37A88.18,88.18,0,0,1,54.45,4.85Z" style="fill: #fcc403"/>
          <path d="M54.45,87.23a86.56,86.56,0,0,1-11.84-.3q-5.88-.39-11.75-.38c-3.92,0-7.82.12-11.74.38a86.66,86.66,0,0,1-11.85.3c3.94-.41,7.79-1.12,11.72-1.63a92.4,92.4,0,0,1,11.87-.76,90.42,90.42,0,0,1,11.87.77C46.66,86.11,50.52,86.83,54.45,87.23Z" style="fill: #fcc403"/>
          <path d="M7.39,32.23,8.23,23A14.46,14.46,0,0,0,4.9,12.43l-.67-.8A14.43,14.43,0,0,1,1.12,5.11l-.07-.34A1.46,1.46,0,0,0,.53,5.89V6.8h0A23.7,23.7,0,0,0,3.35,16.9a9.34,9.34,0,0,1,1.3,5.58C4.25,27,3.57,35.84,3.57,46S4.25,65.11,4.65,69.6a9.37,9.37,0,0,1-1.3,5.59A23.7,23.7,0,0,0,.53,85.28h0v.91a1.44,1.44,0,0,0,.52,1.12A14.51,14.51,0,0,1,5.7,81l5.06-4a14.45,14.45,0,0,0,3.11-19.47A39,39,0,0,1,7.39,32.23Z" style="fill: #fcc403"/>
          <path d="M61.2,85.28h0a23.7,23.7,0,0,0-2.82-10.09,9.37,9.37,0,0,1-1.3-5.59c.39-4.49,1.07-13.35,1.07-23.56S57.47,27,57.08,22.48a9.34,9.34,0,0,1,1.3-5.58A23.7,23.7,0,0,0,61.2,6.8h0V5.89a1.46,1.46,0,0,0-.52-1.12L60,8.48a8.24,8.24,0,0,1-2.92,4.88,8.23,8.23,0,0,0-3,7l.85,11.78A21.38,21.38,0,0,1,52.8,42.92l-4.74,9.87A17.32,17.32,0,0,0,51.91,73l2.17,2a21.27,21.27,0,0,1,6.43,11.5l.17.82a1.44,1.44,0,0,0,.52-1.12Z" style="fill: #fcc403"/>
          <path d="M.33,4.84V4.75h0S.33,4.81.33,4.84Z" style="fill: #fdd300"/>
          <path d="M49.67,34.89a16.15,16.15,0,0,0-2.79-6.36l0,0a6.86,6.86,0,0,0-1.58-1.15,9.71,9.71,0,0,0-3.64-1.09,15.92,15.92,0,0,0-23.53,2.44c-1.67.51-3.15,1.28-3.6,2.12A17.62,17.62,0,0,0,12.79,40a25.07,25.07,0,0,0,1.85,8.63v0h0c.15.35.31.68.48,1v0c0,.07,1.23,1.89,4.89,2.64a20.43,20.43,0,0,0,4,.41c.22.11.44.23.67.32a16,16,0,0,0,20.08-6.64,10.63,10.63,0,0,0,3.86-1.18c1.21-.68,1.66-1.44,1.68-1.91A31.37,31.37,0,0,0,49.67,34.89Z" style="fill: #fff;stroke: #fff;stroke-linejoin: round"/>
          <g>
            <g>
              <path d="M46.66,28.7a8.71,8.71,0,0,0-5.85-2.21,8,8,0,0,0-7.19,3.68c-.76-.17-1.57-.37-2.42-.59a31.37,31.37,0,0,0-9.95-1.17c-2.7.16-5.86,1.4-6.49,2.56a17.12,17.12,0,0,0-1.69,9,25.07,25.07,0,0,0,1.83,8.54h0c.15.34.31.68.48,1,0,0,1.13,1.78,4.71,2.52A23.54,23.54,0,0,0,29.3,52l-8.45-6.1a21.17,21.17,0,0,1,4.27-.75,41.87,41.87,0,0,1,9.38.54,46.66,46.66,0,0,0,8.91.65c4.84-.29,6.62-2.14,6.66-3C50.36,37.42,49.1,31.79,46.66,28.7Z" style="fill: #fff"/>
              <path d="M24.29,52.77A21.3,21.3,0,0,1,20,52.35c-3.66-.75-4.84-2.57-4.89-2.64v0c-.17-.32-.33-.65-.48-1h0v0A25.07,25.07,0,0,1,12.79,40a17.62,17.62,0,0,1,1.72-9.2c.74-1.36,4.16-2.55,6.72-2.71a31.87,31.87,0,0,1,10,1.19l2.22.54a8.35,8.35,0,0,1,7.32-3.65,9.66,9.66,0,0,1,4.47,1.16,6.86,6.86,0,0,1,1.58,1.15l0,0a16.15,16.15,0,0,1,2.79,6.36,31.37,31.37,0,0,1,.69,8.46c0,.47-.47,1.23-1.68,1.91a11.78,11.78,0,0,1-5.25,1.32,46,46,0,0,1-9-.65l-.18,0a41.85,41.85,0,0,0-9.14-.5,20.44,20.44,0,0,0-3.63.58L30,52.09l-.61.15a21,21,0,0,1-2.88.43C25.87,52.72,25.12,52.77,24.29,52.77Zm-8.66-3.36c.08.12,1.23,1.7,4.51,2.38a23.5,23.5,0,0,0,8.46,0l-8.4-6.07.57-.16a21.49,21.49,0,0,1,4.33-.75,41.44,41.44,0,0,1,9.26.51l.18,0A47.26,47.26,0,0,0,43.4,46a11.52,11.52,0,0,0,5-1.24c1.07-.62,1.38-1.22,1.39-1.45.29-5.93-1-11.45-3.35-14.42a6.65,6.65,0,0,0-1.46-1,9,9,0,0,0-4.18-1.08h-.13a7.74,7.74,0,0,0-6.8,3.55l-.11.17-.2,0c-.72-.16-1.52-.36-2.44-.59a31.19,31.19,0,0,0-9.85-1.16,13.5,13.5,0,0,0-3.94.88A4.77,4.77,0,0,0,15,31.11,17,17,0,0,0,13.36,40a24.62,24.62,0,0,0,1.79,8.42v0C15.31,48.77,15.47,49.1,15.63,49.41Z" style="fill: #fff"/>
            </g>
            <g>
              <path d="M46.66,28.7a8.71,8.71,0,0,0-5.85-2.21,8,8,0,0,0-7.74,4.71l14.71,1Z" style="fill: #ed1d24"/>
              <path d="M15.38,49.55s1.13,1.78,4.71,2.52A23.54,23.54,0,0,0,29.3,52l-8.93-6.45-5,0-.55,2.24,0,.84Z" style="fill: #ed1d24"/>
              <g>
                <circle cx="30.99" cy="38.28" r="15.84" transform="translate(-16.21 52.36) rotate(-67.61)" style="fill: #fde619"/>
                <path d="M31,54.35a16.09,16.09,0,0,1-11.36-4.71,16.09,16.09,0,0,1-3.44-5.11,16.13,16.13,0,0,1,0-12.5,16.07,16.07,0,0,1,8.55-8.55A16.09,16.09,0,0,1,45.8,32a16,16,0,0,1-3.45,17.61A16,16,0,0,1,31,54.35Zm0-31.69A15.62,15.62,0,1,0,46.62,38.28,15.64,15.64,0,0,0,31,22.66Z" style="fill: #fff"/>
              </g>
              <path d="M41.3,30.66c-3.34.18-6.15-.32-10.44-1.51,0,0,8.38,14.67,10.33,15l8.22-.82c.42-5.91-.82-11.5-3.2-14.64C46,29.35,45.36,30.44,41.3,30.66Z" style="fill: #fde619"/>
              <path d="M15.8,31.14a17.09,17.09,0,0,0-1.89,9c.13,3.69.57,7.48,2.17,9.52.44-2.38,5.71-4,9.75-4.14a41.76,41.76,0,0,1,9.36.76Z" style="fill: #fde619"/>
              <path d="M41.92,31c-3.34.26-6.41-.31-10.72-1.41a31.37,31.37,0,0,0-9.95-1.17c-2.7.16-5.86,1.4-6.49,2.56a17.12,17.12,0,0,0-1.69,9,23.47,23.47,0,0,0,2.31,9.54c.38-2.39,5.7-4.17,9.74-4.44a41.87,41.87,0,0,1,9.38.54,46.66,46.66,0,0,0,8.91.65c4.84-.29,6.62-2.14,6.66-3,.29-5.91-1-11.54-3.41-14.63C46.64,29.43,46,30.68,41.92,31Z" style="fill: #ed1d24"/>
              <g>
                <g>
                  <path d="M41.91,30.53h1.77a6.7,6.7,0,0,1-.52,1,2.47,2.47,0,0,1-2,.82,1.28,1.28,0,0,0,.45-.74C41.7,31.37,41.91,30.53,41.91,30.53Z" style="fill: #e20613"/>
                  <path d="M41,32.45l.1-.09a1.39,1.39,0,0,0,.44-.73c.08-.27.28-1.1.28-1.11v0h1.88l0,.07a6.63,6.63,0,0,1-.53,1.05,2.44,2.44,0,0,1-2,.84Zm.9-1.87c0,.16-.2.84-.27,1.08a1.49,1.49,0,0,1-.37.68,2.27,2.27,0,0,0,1.82-.8,5.83,5.83,0,0,0,.49-1Z" style="fill: #e20613"/>
                </g>
                <path d="M21.27,43.14c-.37,0-1.37,0-1.83,0l3-13.08H18.87a5.56,5.56,0,0,1-.23,2.44c-.31,1.45-2.85,12.56-2.85,12.56a25.28,25.28,0,0,1,3.9-.26c2.33,0,6.29.67,7.82.67s2.5-.09,3-1.27A12.32,12.32,0,0,0,31,43a8.92,8.92,0,0,1-3.3.38C25.59,43.39,22.92,43.14,21.27,43.14ZM38.08,32.89s-.89,3.92-1,4.57c-.37,1.54-1.1,3-2,3-.65,0-.56-.91-.39-1.74.11-.56,1.33-5.79,1.33-5.79H33.24s-1.14,4.79-1.3,5.55a1.18,1.18,0,0,0,0,.2c-.43.77-1.18,1.81-1.77,1.81-.44,0-.47-.63-.32-1.36.12-.57,1.4-6.15,1.41-6.2H28.75l-.13.59A1.77,1.77,0,0,0,27,32.65c-3.17,0-5.16,3.72-5.16,6.4,0,2.22,1.21,3,2.47,3s2.34-1.23,2.78-1.71A1.78,1.78,0,0,0,29,42.07a3.92,3.92,0,0,0,2.88-1.67,1.83,1.83,0,0,0,1.92,1.67,3.54,3.54,0,0,0,2.36-1c0,.11-.15.65-.31,1.31-1.85,1-4.7,2.6-4.7,4.91a2.29,2.29,0,0,0,2.57,2.3c1.19,0,3.36-.4,4.25-4.2.2-.86,2.84-12.46,2.84-12.46ZM28,35.22c-.43,2.45-1.31,5.09-2.69,5.09-.46,0-.71-.35-.71-1.4s1.06-5,2.58-5C27.91,33.88,28.1,34.6,28,35.22Zm7.11,10.22c-.3,1.28-.68,2.77-1.48,2.77-.49,0-.77-.41-.77-.93,0-1.61,1.48-2.81,2.66-3.6C35.33,44.52,35.16,45.27,35.11,45.44Zm9.46-11.65c.6,0,1.1.55,1.79.55a1.6,1.6,0,0,0,1.4-1.19,6,6,0,0,0-2.42-.48c-2.86,0-4.18,1.61-4.18,2.88s.7,1.75,1.6,2.52,1.72,1.16,1.72,2c0,.27-.26.79-1.09.79s-1.41-.74-2.28-.74a1.58,1.58,0,0,0-1.4,1.06,4.37,4.37,0,0,0,2.92.84c2.93,0,4.07-1.75,4.07-3s-1-1.92-1.93-2.75c-.13-.11-1.39-.94-1.39-1.61A1.06,1.06,0,0,1,44.57,33.79Z" style="fill: #ed1d24"/>
              </g>
              <g>
                <path d="M48.07,40.94a.49.49,0,0,1-.51.46.5.5,0,0,1-.52-.46.49.49,0,0,1,.52-.46A.48.48,0,0,1,48.07,40.94Zm-.94,0a.43.43,0,1,0,.43-.38A.41.41,0,0,0,47.13,40.93Zm.23-.25h.2c.07,0,.21,0,.21.13a.12.12,0,0,1-.11.13c.08,0,.08.05.09.12a1.3,1.3,0,0,0,0,.13h-.12s0-.15,0-.16,0,0-.06,0h-.1v.2h-.12Zm.11.22h.09c.08,0,.09,0,.09-.07s0-.07-.08-.07h-.1Z" style="fill: #fff"/>
                <g>
                  <g>
                    <path d="M41.63,30.34h1.78a6.7,6.7,0,0,1-.52,1,2.49,2.49,0,0,1-2,.83,1.39,1.39,0,0,0,.45-.75C41.43,31.18,41.63,30.34,41.63,30.34Z" style="fill: #fff"/>
                    <path d="M40.37,32.43l.4-.37a1.28,1.28,0,0,0,.4-.65l.28-1.11,0-.15h2.21l-.1.27A6.76,6.76,0,0,1,43,31.49a2.57,2.57,0,0,1-2.06.9Zm1.41-1.89-.24,1a1.9,1.9,0,0,1-.2.47,1.92,1.92,0,0,0,1.39-.71,4.63,4.63,0,0,0,.39-.73Z" style="fill: #da0812"/>
                  </g>
                  <g>
                    <path d="M20.85,42.82c-.36,0-1.37,0-1.83,0l3-13.08H18.45a5.56,5.56,0,0,1-.23,2.44c-.3,1.45-2.84,12.56-2.84,12.56a25,25,0,0,1,3.89-.26c2.34,0,6.3.67,7.82.67s2.5-.09,3-1.27a10.21,10.21,0,0,0,.45-1.22,8.92,8.92,0,0,1-3.3.38C25.17,43.07,22.5,42.82,20.85,42.82ZM37.66,32.57s-.88,3.92-1,4.57c-.38,1.54-1.11,3-2,3-.65,0-.55-.91-.39-1.74.11-.56,1.33-5.79,1.33-5.79H32.82s-1.14,4.79-1.3,5.55c0,.07,0,.13,0,.2-.43.78-1.18,1.81-1.77,1.81-.43,0-.47-.63-.32-1.36.12-.57,1.4-6.15,1.41-6.2H28.33l-.12.59a1.8,1.8,0,0,0-1.62-.83c-3.18,0-5.17,3.72-5.17,6.4,0,2.22,1.21,3,2.47,3s2.35-1.23,2.79-1.71a1.76,1.76,0,0,0,1.87,1.71,3.88,3.88,0,0,0,2.88-1.67,1.83,1.83,0,0,0,1.92,1.67,3.51,3.51,0,0,0,2.36-1c0,.11-.15.65-.3,1.31-1.86,1-4.71,2.6-4.71,4.91a2.3,2.3,0,0,0,2.58,2.31c1.18,0,3.35-.41,4.24-4.21.2-.86,2.84-12.46,2.84-12.46ZM27.58,34.9C27.15,37.35,26.27,40,24.89,40c-.45,0-.7-.35-.7-1.4s1-5,2.58-5C27.5,33.56,27.69,34.29,27.58,34.9ZM34.7,45.12c-.31,1.28-.69,2.77-1.49,2.77-.49,0-.77-.41-.77-.93,0-1.61,1.48-2.81,2.66-3.6Zm9.52-11.65c.61,0,1.11.55,1.8.55a1.61,1.61,0,0,0,1.4-1.19A6.08,6.08,0,0,0,45,32.35c-2.86,0-4.17,1.61-4.17,2.88s.7,1.75,1.6,2.52,1.71,1.16,1.71,2c0,.27-.25.79-1.08.79s-1.41-.74-2.28-.74a1.58,1.58,0,0,0-1.41,1.06,4.37,4.37,0,0,0,2.92.84c2.94,0,4.08-1.75,4.08-3s-1-1.92-1.93-2.75c-.13-.11-1.39-.94-1.39-1.61A1.06,1.06,0,0,1,44.22,33.47Z" style="fill: #fff"/>
                    <path d="M33.28,49.32a2.4,2.4,0,0,1-2.66-2.39c0-2.23,2.51-3.82,4.72-5,.11-.49.19-.83.24-1a3.41,3.41,0,0,1-2.23.9,1.87,1.87,0,0,1-2-1.57,3.8,3.8,0,0,1-2.84,1.57,1.83,1.83,0,0,1-1.93-1.61,4,4,0,0,1-2.73,1.61,2.4,2.4,0,0,1-1.77-.7,3.35,3.35,0,0,1-.78-2.4c0-2.71,2-6.48,5.25-6.48a2,2,0,0,1,1.58.69l.09-.45h2.65l0,.1s-1.28,5.61-1.41,6.2a1.68,1.68,0,0,0,0,1.17.25.25,0,0,0,.2.09c.53,0,1.24-.94,1.69-1.76a1.62,1.62,0,0,0,0-.19c.16-.75,1.29-5.5,1.31-5.55v-.06h2.86l0,.1s-1.22,5.23-1.33,5.79-.21,1.24,0,1.52a.34.34,0,0,0,.29.12c.93,0,1.63-1.5,2-2.89.16-.65,1-4.54,1-4.58l0-.06h2.86l0,.1c0,.11-2.64,11.6-2.84,12.46a5.85,5.85,0,0,1-2.05,3.57A3.71,3.71,0,0,1,33.28,49.32Zm2.58-8.84-.07.25c0,.12-.18.76-.3,1.31v0h0c-2.17,1.13-4.66,2.69-4.66,4.84a2.24,2.24,0,0,0,2.5,2.22c2.12,0,3.52-1.39,4.16-4.14.19-.81,2.56-11.23,2.82-12.36H37.73c-.12.51-.89,3.91-1,4.51a7,7,0,0,1-.83,2.08,1.62,1.62,0,0,1-1.3.94.52.52,0,0,1-.42-.18c-.27-.33-.18-1,0-1.65s1.14-5,1.31-5.7H32.89c-.14.56-1.14,4.79-1.29,5.48,0,.07,0,.13,0,.2v0h0c-.17.31-1.07,1.85-1.84,1.85a.39.39,0,0,1-.32-.15,1.74,1.74,0,0,1-.07-1.31c.11-.53,1.21-5.34,1.38-6.1H28.39l-.15.77-.11-.23a1.71,1.71,0,0,0-1.54-.78,4.59,4.59,0,0,0-3.71,2.16,7.6,7.6,0,0,0-1.38,4.16c0,1.84.89,2.94,2.39,2.94a3.81,3.81,0,0,0,2.62-1.57l.11-.11.11-.13,0,.17a1.68,1.68,0,0,0,1.79,1.64A3.71,3.71,0,0,0,31.37,40l.11-.13,0,.17a1.74,1.74,0,0,0,1.84,1.6,3.41,3.41,0,0,0,2.26-1ZM33.21,48a.9.9,0,0,1-.85-1c0-1.68,1.54-2.9,2.7-3.67l.16-.11-.12.54c-.15.68-.29,1.27-.33,1.42h0C34.47,46.4,34.09,48,33.21,48ZM35,43.54c-1.1.76-2.46,1.9-2.46,3.42,0,.42.21.85.69.85.75,0,1.13-1.56,1.41-2.71,0-.14.17-.73.32-1.41Zm-7.89,1.72c-.68,0-1.83-.13-3.15-.28a44.45,44.45,0,0,0-4.67-.39,25.17,25.17,0,0,0-3.88.26l-.12,0,0-.13c0-.11,2.54-11.13,2.84-12.56a5.42,5.42,0,0,0,.23-2.4l0-.1h3.78l-3,13.07c.49,0,1.36,0,1.7,0h0c.78,0,1.79,0,2.85.11,1.21.07,2.45.14,3.55.14a9.19,9.19,0,0,0,3.27-.37l.16-.07-.05.17a10.49,10.49,0,0,1-.46,1.22C29.65,45.17,28.52,45.26,27.09,45.26Zm-7.82-.83a44.58,44.58,0,0,1,4.69.39c1.26.14,2.46.28,3.13.28,1.41,0,2.45-.09,2.94-1.22a8.54,8.54,0,0,0,.39-1.05,10.13,10.13,0,0,1-3.17.32c-1.1,0-2.35-.07-3.56-.13s-2.06-.12-2.84-.12h0c-.37,0-1.35,0-1.8,0h-.11l3-13.09H18.55a6,6,0,0,1-.25,2.37c-.28,1.35-2.54,11.22-2.82,12.44A27.57,27.57,0,0,1,19.27,44.43Zm23-2.6a4.34,4.34,0,0,1-3-.86l0,0,0,0a1.66,1.66,0,0,1,1.48-1.11,2.78,2.78,0,0,1,1.24.39,2.34,2.34,0,0,0,1,.35c.82,0,1-.52,1-.71,0-.67-.5-1.06-1.14-1.56l-.54-.43-.31-.26a2.67,2.67,0,0,1-1.32-2.32,2.62,2.62,0,0,1,1-2,4.91,4.91,0,0,1,3.21-1,6.18,6.18,0,0,1,2.46.49l.07,0,0,.06A1.65,1.65,0,0,1,46,34.1a2.25,2.25,0,0,1-1-.3,1.87,1.87,0,0,0-.8-.25c-.8,0-1.1.53-1.1.86,0,.55,1,1.24,1.26,1.47l.1.08.2.17c.91.76,1.76,1.48,1.76,2.64a2.79,2.79,0,0,1-1,2A4.55,4.55,0,0,1,42.28,41.83Zm-2.82-.95a4.25,4.25,0,0,0,2.82.79c2.93,0,4-1.74,4-2.9s-.83-1.78-1.7-2.51l-.2-.18-.1-.07c-.57-.41-1.32-1-1.32-1.6a1.13,1.13,0,0,1,1.26-1,2.06,2.06,0,0,1,.87.27,2.15,2.15,0,0,0,.93.28,1.48,1.48,0,0,0,1.3-1.08A6.53,6.53,0,0,0,45,32.43c-3,0-4.09,1.71-4.09,2.8a2.53,2.53,0,0,0,1.27,2.2l.3.25a6.77,6.77,0,0,0,.54.43c.64.51,1.2,1,1.2,1.69,0,.34-.31.87-1.16.87a2.47,2.47,0,0,1-1.11-.36,2.61,2.61,0,0,0-1.17-.38A1.48,1.48,0,0,0,39.46,40.88Zm-14.57-.81c-.54,0-.78-.46-.78-1.48a9.71,9.71,0,0,1,.72-3c.4-1,1.06-2.13,1.94-2.13a.87.87,0,0,1,.67.29,1.45,1.45,0,0,1,.22,1.14h0C27.39,36.46,26.58,40.07,24.89,40.07Zm1.88-6.43c-1.44,0-2.5,3.79-2.5,5s.31,1.32.62,1.32c.6,0,1.14-.53,1.63-1.58a15.09,15.09,0,0,0,1-3.45,1.24,1.24,0,0,0-.19-1A.66.66,0,0,0,26.77,33.64Z" style="fill: #da0812"/>
                  </g>
                  <g>
                    <path d="M20.85,42.82c-.36,0-1.37,0-1.83,0l3-13.08H18.45a5.56,5.56,0,0,1-.23,2.44c-.3,1.45-2.84,12.56-2.84,12.56a25,25,0,0,1,3.89-.26c2.34,0,6.3.67,7.82.67s2.5-.09,3-1.27a10.21,10.21,0,0,0,.45-1.22,8.92,8.92,0,0,1-3.3.38C25.17,43.07,22.5,42.82,20.85,42.82ZM37.66,32.57s-.88,3.92-1,4.57c-.38,1.54-1.11,3-2,3-.65,0-.55-.91-.39-1.74.11-.56,1.33-5.79,1.33-5.79H32.82s-1.14,4.79-1.3,5.55c0,.07,0,.13,0,.2-.43.78-1.18,1.81-1.77,1.81-.43,0-.47-.63-.32-1.36.12-.57,1.4-6.15,1.41-6.2H28.33l-.12.59a1.8,1.8,0,0,0-1.62-.83c-3.18,0-5.17,3.72-5.17,6.4,0,2.22,1.21,3,2.47,3s2.35-1.23,2.79-1.71a1.76,1.76,0,0,0,1.87,1.71,3.88,3.88,0,0,0,2.88-1.67,1.83,1.83,0,0,0,1.92,1.67,3.51,3.51,0,0,0,2.36-1c0,.11-.15.65-.3,1.31-1.86,1-4.71,2.6-4.71,4.91a2.3,2.3,0,0,0,2.58,2.31c1.18,0,3.35-.41,4.24-4.21.2-.86,2.84-12.46,2.84-12.46ZM27.58,34.9C27.15,37.35,26.27,40,24.89,40c-.45,0-.7-.35-.7-1.4s1-5,2.58-5C27.5,33.56,27.69,34.29,27.58,34.9ZM34.7,45.12c-.31,1.28-.69,2.77-1.49,2.77-.49,0-.77-.41-.77-.93,0-1.61,1.48-2.81,2.66-3.6Zm9.52-11.65c.61,0,1.11.55,1.8.55a1.61,1.61,0,0,0,1.4-1.19A6.08,6.08,0,0,0,45,32.35c-2.86,0-4.17,1.61-4.17,2.88s.7,1.75,1.6,2.52,1.71,1.16,1.71,2c0,.27-.25.79-1.08.79s-1.41-.74-2.28-.74a1.58,1.58,0,0,0-1.41,1.06,4.37,4.37,0,0,0,2.92.84c2.94,0,4.08-1.75,4.08-3s-1-1.92-1.93-2.75c-.13-.11-1.39-.94-1.39-1.61A1.06,1.06,0,0,1,44.22,33.47Z" style="fill: #fff"/>
                    <path d="M33.28,49.43a3.1,3.1,0,0,1-1.92-.6,2.33,2.33,0,0,1-.85-1.9c0-2.27,2.51-3.88,4.73-5,.06-.27.12-.49.16-.67a3.47,3.47,0,0,1-2,.72,2,2,0,0,1-2-1.45,3.8,3.8,0,0,1-2.79,1.45,1.91,1.91,0,0,1-2-1.49,3.87,3.87,0,0,1-2.67,1.49,2.45,2.45,0,0,1-1.84-.74,3.39,3.39,0,0,1-.82-2.47c0-2.75,2-6.59,5.36-6.59a2.27,2.27,0,0,1,1.52.56l.06-.32h2.88l-.06.24s-1.28,5.57-1.41,6.19-.08,1,0,1.08a.12.12,0,0,0,.11,0c.38,0,1-.69,1.59-1.69l0-.17c.16-.75,1.3-5.51,1.31-5.55l0-.15h3.09l-.06.23c0,.06-1.23,5.23-1.33,5.79-.06.29-.23,1.16,0,1.43a.26.26,0,0,0,.21.08c.71,0,1.44-1.1,1.86-2.81.16-.65,1-4.53,1-4.57l0-.15H40.6l-.05.23c0,.12-2.65,11.61-2.85,12.47a6,6,0,0,1-2.08,3.63A3.87,3.87,0,0,1,33.28,49.43Zm2.78-9.27-.16.6-.31,1.3,0,.09-.07,0c-2.15,1.11-4.61,2.65-4.61,4.74A2.11,2.11,0,0,0,33.28,49c2.06,0,3.42-1.36,4-4,.19-.79,2.42-10.58,2.79-12.23h-2.3c-.17.72-.88,3.85-1,4.43-.18.73-.86,3.1-2.23,3.1a.64.64,0,0,1-.5-.22c-.3-.36-.21-1.08-.08-1.74.1-.5,1-4.53,1.28-5.57H33c-.2.81-1.13,4.73-1.27,5.4,0,.06,0,.12,0,.19v.06c-.25.45-1.12,1.91-1.94,1.91a.5.5,0,0,1-.41-.19,1.78,1.78,0,0,1-.09-1.4c.1-.5,1.1-4.89,1.35-6H28.48l-.21,1L28,33.23a1.63,1.63,0,0,0-1.44-.71A4.48,4.48,0,0,0,23,34.63a7.52,7.52,0,0,0-1.36,4.1c0,2.55,1.59,2.83,2.28,2.83A3.75,3.75,0,0,0,26.43,40l.1-.12.28-.3.05.4a1.6,1.6,0,0,0,1.69,1.55A3.65,3.65,0,0,0,31.29,40l.26-.32.07.41a1.65,1.65,0,0,0,1.73,1.51,3.32,3.32,0,0,0,2.19-1Zm-2.85,7.92a1,1,0,0,1-1-1.12c0-1.73,1.57-3,2.74-3.76l.4-.26-.18.81c-.16.68-.29,1.27-.33,1.42h0C34.57,46.47,34.18,48.08,33.21,48.08Zm1.6-4.28c-1,.73-2.18,1.79-2.18,3.16,0,.34.15.74.58.74.67,0,1-1.58,1.3-2.62C34.54,44.94,34.66,44.42,34.81,43.8Zm-7.72,1.57c-.69,0-1.83-.13-3.16-.28a44.5,44.5,0,0,0-4.66-.39,24.8,24.8,0,0,0-3.85.26l-.3.07.07-.3c0-.11,2.54-11.13,2.84-12.56a5.26,5.26,0,0,0,.23-2.36l0-.23h4.05l-3,13.06c.5,0,1.25,0,1.56,0h0c.78,0,1.79,0,2.86.11s2.45.14,3.54.14a9,9,0,0,0,3.23-.36l.37-.16-.12.39A11,11,0,0,1,30.28,44C29.72,45.27,28.56,45.37,27.09,45.37Zm-7.82-1.06a45,45,0,0,1,4.7.4c1.26.14,2.45.28,3.12.28,1.37,0,2.37-.08,2.83-1.15.15-.35.25-.6.33-.84a11.35,11.35,0,0,1-3,.27c-1.1,0-2.36-.08-3.56-.14S21.62,43,20.85,43h0c-.37,0-1.34,0-1.79,0l-.26,0,3-13.1H18.68a6.86,6.86,0,0,1-.27,2.28c-.28,1.3-2.38,10.54-2.78,12.28A29.8,29.8,0,0,1,19.27,44.31Zm23-2.37a4.41,4.41,0,0,1-3-.89l-.1-.09,0-.12a1.77,1.77,0,0,1,1.59-1.18,2.81,2.81,0,0,1,1.29.41,2.32,2.32,0,0,0,1,.33c.73,0,.89-.44.89-.6,0-.61-.46-1-1.1-1.47-.18-.14-.36-.28-.54-.44L42,37.64a2.78,2.78,0,0,1-1.36-2.41,2.74,2.74,0,0,1,1.08-2.07,5,5,0,0,1,3.28-1,6.34,6.34,0,0,1,2.52.51l.14.08,0,.15A1.8,1.8,0,0,1,46,34.21,2.39,2.39,0,0,1,45,33.9a1.88,1.88,0,0,0-.75-.24c-.72,0-1,.46-1,.75s.41.79,1.21,1.38l.11.09.2.17c.93.78,1.8,1.51,1.8,2.72a2.91,2.91,0,0,1-1,2.09A4.69,4.69,0,0,1,42.28,41.94Zm-2.69-1.09a4.29,4.29,0,0,0,2.69.71c2.85,0,3.89-1.67,3.89-2.79s-.77-1.68-1.66-2.43l-.2-.17-.09-.07c-.59-.43-1.37-1.07-1.37-1.69a1.24,1.24,0,0,1,1.37-1.13,2.1,2.1,0,0,1,.92.28,2,2,0,0,0,.88.27,1.31,1.31,0,0,0,1.15-.91A6.38,6.38,0,0,0,45,32.54c-2.9,0-4,1.65-4,2.69a2.41,2.41,0,0,0,1.23,2.11l.3.26.53.43c.68.52,1.25,1,1.25,1.77,0,.38-.34,1-1.27,1a2.64,2.64,0,0,1-1.16-.37A2.48,2.48,0,0,0,40.77,40,1.39,1.39,0,0,0,39.59,40.85Zm-14.7-.67c-.79,0-.89-.85-.89-1.59a9.69,9.69,0,0,1,.73-3c.41-1,1.1-2.2,2-2.2a.93.93,0,0,1,.75.33,1.55,1.55,0,0,1,.25,1.23h0a15.4,15.4,0,0,1-1,3.51C26.23,39.59,25.6,40.18,24.89,40.18Zm1.88-6.43c-1.32,0-2.39,3.65-2.39,4.84s.35,1.21.51,1.21c.69,0,1.21-.83,1.53-1.52a14.68,14.68,0,0,0,1-3.42,1.14,1.14,0,0,0-.16-.91A.57.57,0,0,0,26.77,33.75Z" style="fill: #da0812"/>
                  </g>
                </g>
              </g>
            </g>
            <path d="M20.85,42.82c-.36,0-1.37,0-1.83,0l3-13.08H18.45a5.56,5.56,0,0,1-.23,2.44c-.3,1.45-2.84,12.56-2.84,12.56a25,25,0,0,1,3.89-.26c2.34,0,6.3.67,7.82.67s2.5-.09,3-1.27a10.21,10.21,0,0,0,.45-1.22,8.92,8.92,0,0,1-3.3.38C25.17,43.07,22.5,42.82,20.85,42.82ZM37.66,32.57s-.88,3.92-1,4.57c-.38,1.54-1.11,3-2,3-.65,0-.55-.91-.39-1.74.11-.56,1.33-5.79,1.33-5.79H32.82s-1.14,4.79-1.3,5.55c0,.07,0,.13,0,.2-.43.78-1.18,1.81-1.77,1.81-.43,0-.47-.63-.32-1.36.12-.57,1.4-6.15,1.41-6.2H28.33l-.12.59a1.8,1.8,0,0,0-1.62-.83c-3.18,0-5.17,3.72-5.17,6.4,0,2.22,1.21,3,2.47,3s2.35-1.23,2.79-1.71a1.76,1.76,0,0,0,1.87,1.71,3.88,3.88,0,0,0,2.88-1.67,1.83,1.83,0,0,0,1.92,1.67,3.51,3.51,0,0,0,2.36-1c0,.11-.15.65-.3,1.31-1.86,1-4.71,2.6-4.71,4.91a2.3,2.3,0,0,0,2.58,2.31c1.18,0,3.35-.41,4.24-4.21.2-.86,2.84-12.46,2.84-12.46ZM27.58,34.9C27.15,37.35,26.27,40,24.89,40c-.45,0-.7-.35-.7-1.4s1-5,2.58-5C27.5,33.56,27.69,34.29,27.58,34.9ZM34.7,45.12c-.31,1.28-.69,2.77-1.49,2.77-.49,0-.77-.41-.77-.93,0-1.61,1.48-2.81,2.66-3.6Zm9.52-11.65c.61,0,1.11.55,1.8.55a1.61,1.61,0,0,0,1.4-1.19A6.08,6.08,0,0,0,45,32.35c-2.86,0-4.17,1.61-4.17,2.88s.7,1.75,1.6,2.52,1.71,1.16,1.71,2c0,.27-.25.79-1.08.79s-1.41-.74-2.28-.74a1.58,1.58,0,0,0-1.41,1.06,4.37,4.37,0,0,0,2.92.84c2.94,0,4.08-1.75,4.08-3s-1-1.92-1.93-2.75c-.13-.11-1.39-.94-1.39-1.61A1.06,1.06,0,0,1,44.22,33.47Z" style="fill: #fff"/>
            <path d="M41.63,30.34h1.78a6.7,6.7,0,0,1-.52,1,2.49,2.49,0,0,1-2,.83,1.39,1.39,0,0,0,.45-.75C41.43,31.18,41.63,30.34,41.63,30.34Z" style="fill: #fff"/>
          </g>
        </g>
        <g>
          <path d="M83.29,9.21a3.18,3.18,0,0,0-.57-2.09c-.23-.33-.11-.61.17-.61h4a.56.56,0,0,1,.58.55v6.46c0,.27.13.43.38.43h.38a.63.63,0,0,0,.5-.26l5.05-6.63a1.39,1.39,0,0,1,1.18-.55h2.14c.31,0,.38.25.13.55l-5.47,7c-.23.27-.18.43.07.73l6.76,8.8c.23.27.1.53-.2.53H94.92a1.55,1.55,0,0,1-1.24-.53l-5.39-7.21a.51.51,0,0,0-.43-.26h-.08c-.22,0-.33.18-.33.46v7a.57.57,0,0,1-.58.53H83.82a.56.56,0,0,1-.53-.53Z" style="fill: #fff"/>
          <path d="M99,13.62a4.88,4.88,0,0,0-1.39-2.09c-.3-.31-.17-.61.2-.61h3.43c.51,0,.86.1,1,.51l2.5,6.8a.21.21,0,0,0,.17.18c.1,0,.15-.08.18-.18l2.5-6.8c.12-.41.27-.51.73-.51h1.43c.31,0,.38.23.28.51l-6.18,16.63c-.15.41-.25.51-.73.51h-1.41c-.35,0-.48-.23-.38-.51l1.42-3.6a1,1,0,0,0,0-1Z" style="fill: #fff"/>
          <path d="M123.79,10.92a.55.55,0,0,1,.53.53V23.63a.55.55,0,0,1-.53.53H121a.56.56,0,0,1-.55-.53V13.54a.57.57,0,0,0-.56-.58h-3a.52.52,0,0,0-.53.58V23.63a.57.57,0,0,1-.58.53H113a.55.55,0,0,1-.53-.53v-10a3.11,3.11,0,0,0-.58-2.09c-.23-.33-.12-.61.15-.61Z" style="fill: #fff"/>
          <path d="M127.62,13.62a5,5,0,0,0-1.39-2.09c-.3-.31-.18-.61.2-.61h3.43c.5,0,.86.1,1,.51l2.49,6.8c0,.1.1.18.18.18s.15-.08.18-.18l2.49-6.8c.13-.41.28-.51.73-.51h1.44c.3,0,.38.23.28.51l-6.18,16.63c-.15.41-.25.51-.73.51h-1.41c-.35,0-.48-.23-.38-.51l1.41-3.6a1,1,0,0,0,0-1Z" style="fill: #fff"/>
          <path d="M152.41,10.92a.55.55,0,0,1,.53.53V23.63a.56.56,0,0,1-.53.53h-2.8a.57.57,0,0,1-.56-.53V16.72c0-.2-.17-.25-.27-.08L145,23.7c-.15.28-.33.46-.6.46h-2.75a.55.55,0,0,1-.53-.53v-10a3.11,3.11,0,0,0-.58-2.09c-.23-.33-.13-.61.15-.61h3.71a.57.57,0,0,1,.58.53v6.91c0,.2.17.25.27.07L149,11.37a.7.7,0,0,1,.6-.45ZM142.6,6.76a.52.52,0,0,1,.3-.63l1.59-.55a.37.37,0,0,1,.51.25c.32,1.06,1,2.17,1.89,2.17s1.56-1.11,1.89-2.17a.36.36,0,0,1,.5-.25l1.59.55a.5.5,0,0,1,.3.63,4.56,4.56,0,0,1-8.57,0Z" style="fill: #fff"/>
          <path d="M96.88,51.7a3.16,3.16,0,0,0,.58,2.09c.23.33.13.61-.15.61H93.86a.57.57,0,0,1-.56-.56v-.38c0-.45-.28-.43-.58-.17a6.13,6.13,0,0,1-4.08,1.46c-3.78,0-6.35-3.13-6.35-7s2.57-7,6.35-7a6,6,0,0,1,3.88,1.31c.35.28.53,0,.53-.1v-.33a.55.55,0,0,1,.55-.53h2.75a.55.55,0,0,1,.53.53Zm-3.83-2.4v-3a2.09,2.09,0,0,0-.28-1,3.64,3.64,0,0,0-3.07-2c-1.94,0-3.46,1.71-3.46,4.56s1.52,4.54,3.46,4.54a3.73,3.73,0,0,0,3.07-2A2.13,2.13,0,0,0,93.05,49.3Z" style="fill: #fff"/>
          <path d="M104.09,53.87a.56.56,0,0,1-.55.53h-2.78a.56.56,0,0,1-.53-.53v-10a3.11,3.11,0,0,0-.58-2.09c-.22-.33-.12-.61.16-.61h3.73a.56.56,0,0,1,.55.56V45.9c0,.23.08.33.25.33a.68.68,0,0,0,.51-.3l3.65-4.26c.35-.41.58-.51.86-.51h1.94c.33,0,.4.3.15.61l-3.93,4.63a.44.44,0,0,0,0,.61l5.07,6.86a.31.31,0,0,1-.23.53h-3a1.31,1.31,0,0,1-1.16-.51L104.8,49a.53.53,0,0,0-.48-.28c-.13,0-.23.1-.23.36Z" style="fill: #fff"/>
          <path d="M115,54.4a.55.55,0,0,1-.53-.53v-10a3.11,3.11,0,0,0-.58-2.09c-.23-.33-.13-.61.15-.61h3.71a.57.57,0,0,1,.58.53V51.77a.51.51,0,0,0,.53.58h3a.56.56,0,0,0,.55-.58V41.69a.56.56,0,0,1,.56-.53h2.8a.55.55,0,0,1,.53.53V51.8a.55.55,0,0,0,.55.55h.88a.55.55,0,0,1,.58.53l-.25,4.29a.56.56,0,0,1-.58.55h-1.13a.61.61,0,0,1-.58-.55L125.27,55a.65.65,0,0,0-.6-.58Z" style="fill: #fff"/>
          <path d="M130.31,43.86a3.11,3.11,0,0,0-.58-2.09c-.22-.33-.12-.61.16-.61h3.73a.56.56,0,0,1,.55.56V53.87a.56.56,0,0,1-.55.53h-2.78a.56.56,0,0,1-.53-.53Zm4.11-6a2.27,2.27,0,1,1-2.27-2.24A2.25,2.25,0,0,1,134.42,37.88Z" style="fill: #fff"/>
          <path d="M148.66,41.16a.55.55,0,0,1,.53.53V53.87a.55.55,0,0,1-.53.53h-2.79a.56.56,0,0,1-.56-.53V47c0-.2-.18-.25-.28-.08l-3.8,7.06c-.15.28-.33.46-.61.46h-2.75a.55.55,0,0,1-.52-.53v-10a3.17,3.17,0,0,0-.58-2.09c-.23-.33-.13-.61.15-.61h3.7a.56.56,0,0,1,.58.53V48.6c0,.2.18.25.28.07l3.81-7.05c.15-.28.32-.46.6-.46ZM138.86,37a.5.5,0,0,1,.3-.63l1.59-.55a.36.36,0,0,1,.5.25c.33,1.06,1,2.17,1.89,2.17s1.57-1.11,1.89-2.17a.37.37,0,0,1,.51-.25l1.59.55a.52.52,0,0,1,.3.63,4.56,4.56,0,0,1-8.57,0Z" style="fill: #fff"/>
          <path d="M155.83,41.16a.56.56,0,0,1,.58.53V46a.52.52,0,0,0,.53.58h3a.58.58,0,0,0,.56-.58V41.69a.55.55,0,0,1,.55-.53h2.8a.55.55,0,0,1,.53.53V53.87a.55.55,0,0,1-.53.53h-2.8a.56.56,0,0,1-.55-.53V49.23a.57.57,0,0,0-.56-.58h-3a.51.51,0,0,0-.53.58v4.64a.57.57,0,0,1-.58.53h-2.75a.55.55,0,0,1-.53-.53v-10a3.11,3.11,0,0,0-.58-2.09c-.23-.33-.12-.61.15-.61Z" style="fill: #fff"/>
          <path d="M167.73,43.86a3.11,3.11,0,0,0-.58-2.09c-.22-.33-.12-.61.16-.61H171a.56.56,0,0,1,.55.56V53.87a.56.56,0,0,1-.55.53h-2.78a.56.56,0,0,1-.53-.53Zm4.11-6a2.27,2.27,0,1,1-2.27-2.24A2.26,2.26,0,0,1,171.84,37.88Z" style="fill: #fff"/>
          <path d="M83.27,69.69a3.11,3.11,0,0,0-.58-2.09c-.23-.33-.13-.61.15-.61H86.9a.56.56,0,0,1,.58.55V81.86a.49.49,0,0,0,.53.53h6.43A.57.57,0,0,1,95,83v1.14a.57.57,0,0,1-.58.53H83.8a.55.55,0,0,1-.53-.53Z" style="fill: #fff"/>
          <path d="M110.33,81.94a3.16,3.16,0,0,0,.58,2.09c.23.33.12.61-.15.61H107.3a.56.56,0,0,1-.55-.56V83.7c0-.45-.28-.43-.58-.17A6.15,6.15,0,0,1,102.09,85c-3.79,0-6.36-3.13-6.36-7s2.57-7,6.36-7A6,6,0,0,1,106,72.36c.35.28.53,0,.53-.1v-.33a.55.55,0,0,1,.55-.53h2.75a.55.55,0,0,1,.53.53Zm-3.83-2.4V76.49a2.09,2.09,0,0,0-.28-1,3.64,3.64,0,0,0-3.08-2c-1.94,0-3.45,1.71-3.45,4.56s1.51,4.54,3.45,4.54a3.74,3.74,0,0,0,3.08-2A2.1,2.1,0,0,0,106.5,79.54Z" style="fill: #fff"/>
          <path d="M113.42,74.1A5,5,0,0,0,112,72c-.3-.31-.18-.61.2-.61h3.43c.5,0,.86.1,1,.51l2.49,6.8c0,.1.1.18.18.18s.15-.08.18-.18l2.49-6.8c.13-.41.28-.51.73-.51h1.44c.3,0,.38.23.28.51l-6.18,16.63c-.15.41-.25.51-.73.51h-1.41c-.35,0-.48-.23-.38-.51l1.41-3.6a1,1,0,0,0,0-1Z" style="fill: #fff"/>
          <path d="M128.89,72.71c0,.3-.28.46-.66.46h-1.16c-.42,0-.63-.16-.68-.46l-.65-5c0-.48.2-.73.73-.73h2.34c.53,0,.81.25.73.73Z" style="fill: #fff"/>
          <path d="M134.71,74.12c0,1,1.66,1.42,3.15,2.2,2.44,1.28,3.48,2.72,3.25,4.66-.28,2.32-2,4-5.14,4a6.69,6.69,0,0,1-5.14-2.32.9.9,0,0,1-.13-.86l.78-1.71a.42.42,0,0,1,.78.12c.46,1.29,1.82,2.7,3.25,2.7s2-.63,2-1.46c0-1.19-1.56-1.66-2.7-2.34-1.79-1.06-3.6-1.74-3.47-4.52.1-2.14,2-3.55,4.73-3.55a6.34,6.34,0,0,1,4.09,1.41.66.66,0,0,1,.1.83l-.66,1.51a.51.51,0,0,1-.83-.1,3.45,3.45,0,0,0-2.59-1.58C135.19,73.12,134.71,73.54,134.71,74.12Z" style="fill: #fff"/>
        </g>
      </g>
    </g>
  </g>
</svg>
