<svg id="Layer_35_copy_2" data-name="Layer 35 copy 2" xmlns="http://www.w3.org/2000/svg" viewBox="0 0 476.95 679.45"><title>megogo</title><g id="bg-megogo"><path d="M99.88,1572c-296.33,0-592.94-146.21-774.07-381.56a1020,1020,0,0,1-76.52-111.85C-861.2,918.27-927.16,709.12-927.16,519V483c0-100.74,18.31-211.32,51.57-311.53a1027.63,1027.63,0,0,1,78.25-312.11A1031.35,1031.35,0,0,1-575.77-468.06a1031.16,1031.16,0,0,1,328-220.81,1026.55,1026.55,0,0,1,402.07-81.38c16.54,0,34.62.49,52.31,1.4,17.68-.91,35.76-1.4,52.31-1.4A1034.82,1034.82,0,0,1,928.41-524.09a1057.65,1057.65,0,0,1,77.42,73.18C1219.33-269,1352,16.28,1352,293.9v17.89c12,62.68,18.61,129.83,18.61,189.22a995.24,995.24,0,0,1-146.31,519.79c-52,102-125.35,200-206.64,276-184.26,172.37-425.1,267.3-678.15,267.3H327.34l-4.3,0-4.3,0h-5.36c-2.3,0-4.61,0-6.94,0s-4.64,0-6.94,0h-5.45c-4.37,0-8.7,0-12.89-.09s-8.53.09-13,.09H256.88c-3.26,0-6.58,0-9.89,0s-6.63,0-9.88,0h-5l-4.34,0a998.57,998.57,0,0,1-122.93,7.9Z" fill="#00aa4f"/><path d="M99.88,1559.47c-292.58,0-585.39-144.35-764.21-376.75a1008.47,1008.47,0,0,1-75.84-110.89C-849.43,913.5-914.66,706.86-914.66,519V483c0-99.95,18.24-209.62,51.39-309a1015,1015,0,0,1,77.43-309.76,1018.84,1018.84,0,0,1,218.89-323.5A1018.71,1018.71,0,0,1-242.89-677.36a1014.18,1014.18,0,0,1,397.2-80.39c16.54,0,34.61.49,52.31,1.41,17.69-.92,35.76-1.41,52.31-1.41A1022.27,1022.27,0,0,1,920.31-514.56a1042.75,1042.75,0,0,1,76.93,72.75c211.1,179.54,342.21,461.38,342.21,735.71V313c12,62.29,18.61,129,18.61,188a982.66,982.66,0,0,1-144.72,513.68c-51.36,100.86-123.89,197.78-204.27,273-181.94,170.19-419.74,263.92-669.61,263.92H327.34l-4.3,0-4.3,0h-5.36c-2.3,0-4.61,0-6.94,0s-4.64,0-6.94,0h-5.45c-4.34,0-8.67,0-12.89-.09s-8.56.09-13,.09H256.88c-3.26,0-6.58,0-9.89,0s-6.63,0-9.88,0h-5l-4.65,0H227a985.41,985.41,0,0,1-122.12,7.9Z" fill="#008453"/><path d="M99.88,1547C-188.93,1547-478,1404.45-654.47,1175a993.07,993.07,0,0,1-75.16-110C-837.67,908.71-902.16,704.6-902.16,519V483c0-99.16,18.18-207.91,51.22-306.42a1002.19,1002.19,0,0,1,76.6-307.42A1006.52,1006.52,0,0,1-558.12-450.37,1006.52,1006.52,0,0,1-238-665.85a1001.82,1001.82,0,0,1,392.33-79.4c16.54,0,34.61.5,52.31,1.43,17.69-.93,35.76-1.43,52.31-1.43A1009.79,1009.79,0,0,1,912.22-505a1032.52,1032.52,0,0,1,76.43,72.34C1197.34-255.48,1327,22.87,1327,293.9v20.27c12,61.87,18.61,128.17,18.61,186.84a970.11,970.11,0,0,1-143.14,507.57c-50.73,99.75-122.41,195.61-201.89,270-179.61,168-414.38,260.55-661.07,260.55H327.34l-4.3,0-4.3,0h-5.36c-2.3,0-4.61,0-6.94,0s-4.64,0-6.94,0h-5.45c-4.35,0-8.69,0-12.89-.09s-8.55.09-13,.09H256.88c-3.26,0-6.58,0-9.89,0s-6.63,0-9.88,0h-5l-4.65,0h-1.34A974,974,0,0,1,104.84,1547Z" fill="#00aa4f"/><path d="M99.88,1534.47c-285.06,0-570.33-140.68-744.5-367.12a982.44,982.44,0,0,1-74.47-109C-825.9,903.93-889.66,702.33-889.66,519V483c0-98.37,18.12-206.21,51-303.86a990.25,990.25,0,0,1,75.78-305.09A1000,1000,0,0,1-233.15-654.34a989.31,989.31,0,0,1,387.46-78.41c16.53,0,34.61.5,52.31,1.45,17.7-1,35.77-1.45,52.31-1.45A997.25,997.25,0,0,1,904.12-495.52a1018.22,1018.22,0,0,1,75.94,71.92c206.27,174.9,334.39,449.77,334.39,717.5v21.48c12,61.46,18.61,127.33,18.61,185.63a957.55,957.55,0,0,1-141.56,501.45c-50.1,98.67-120.94,193.45-199.51,267-177.29,165.84-409,257.18-652.53,257.18H327.34l-4.3,0-4.3,0h-5.36c-2.3,0-4.61,0-6.94,0s-4.64,0-6.94,0h-5.45c-4.33,0-8.67,0-12.89-.09s-8.57.09-13,.09H256.88c-3.26,0-6.58,0-9.89,0s-6.63,0-9.88,0h-5l-4.66,0h-2.17a958.63,958.63,0,0,1-120.44,7.89Z" fill="#008453"/><path d="M99.88,1522c-281.3,0-562.79-138.83-734.63-362.3a968.38,968.38,0,0,1-73.79-108C-814.13,899.15-877.16,700.07-877.16,519V483c0-97.57,18.06-204.52,50.87-301.3a977.37,977.37,0,0,1,75-302.75A981.44,981.44,0,0,1-540.46-432.67,981.54,981.54,0,0,1-228.28-642.83a977,977,0,0,1,382.59-77.42c16.54,0,34.61.51,52.31,1.47,17.69-1,35.76-1.47,52.31-1.47A984.79,984.79,0,0,1,896-486a1005.64,1005.64,0,0,1,75.44,71.5C1175.33-241.91,1302,29.46,1302,293.9v22.69c12,61,18.61,126.49,18.61,184.42a945.06,945.06,0,0,1-140,495.34c-49.48,97.56-119.47,191.28-197.14,263.93-175,163.67-403.67,253.81-644,253.81H327.34l-4.3,0-4.3,0h-5.36c-2.3,0-4.61,0-6.94,0s-4.64,0-6.94,0h-5.45c-4.36,0-8.69,0-12.89-.09s-8.6.09-13,.09H256.88c-3.26,0-6.58,0-9.89,0s-6.63,0-9.88,0h-5l-4.68,0-3,0A947.38,947.38,0,0,1,104.84,1522Z" fill="#00aa4f"/><path d="M99.88,1509.47c-277.55,0-555.26-137-724.78-357.49A955.51,955.51,0,0,1-698,1044.9C-802.37,894.37-864.66,697.81-864.66,519V483c0-96.79,18-202.82,50.7-298.74a964.81,964.81,0,0,1,74.13-300.41,969.07,969.07,0,0,1,208.2-307.7A969,969,0,0,1-223.41-631.31a964.42,964.42,0,0,1,377.72-76.44c16.54,0,34.61.52,52.31,1.48,17.69-1,35.76-1.48,52.31-1.48a972.24,972.24,0,0,1,629,231.28,993.47,993.47,0,0,1,75,71.08c201.46,170.27,326.57,438.15,326.57,699.29v23.91c12,60.63,18.61,125.64,18.61,183.2a932.56,932.56,0,0,1-138.39,489.23c-48.84,96.46-118,189.1-194.76,260.91-172.64,161.5-398.31,250.44-635.45,250.44H327.34l-4.3,0-4.3,0h-5.36c-2.3,0-4.61,0-6.94,0s-4.64,0-6.94,0h-5.45c-4.36,0-8.7,0-12.9-.09s-8.59.09-13,.09H256.88c-3.26,0-6.58,0-9.89-.06s-6.63.06-9.88.06h-5l-4.68,0-3.81,0a934.36,934.36,0,0,1-118.78,7.88Z" fill="#008453"/><path d="M99.88,1497c-273.79,0-547.73-135.14-714.92-352.68a941.56,941.56,0,0,1-72.42-106.13C-790.59,889.59-852.16,695.54-852.16,519V483c0-96,17.94-201.11,50.54-296.18a952.41,952.41,0,0,1,73.29-298.08A962.52,962.52,0,0,1-218.54-619.8a952.05,952.05,0,0,1,372.85-75.45c16.54,0,34.61.52,52.31,1.5,17.69-1,35.76-1.5,52.31-1.5a959.66,959.66,0,0,1,620.9,228.31,979.49,979.49,0,0,1,74.46,70.66C1153.33-228.33,1277,36.06,1277,293.9V319c12,60.21,18.61,124.78,18.61,182a920,920,0,0,1-136.81,483.12c-48.21,95.37-116.52,186.93-192.38,257.89-170.31,159.33-393,247.07-626.91,247.07H327.34l-4.3,0-4.3,0h-5.36c-2.3,0-4.61,0-6.94,0s-4.64,0-6.94,0h-5.45c-4.34,0-8.68,0-12.9-.09s-8.61.09-13,.09H256.88c-3.26,0-6.58,0-9.89-.06s-6.63.06-9.88.06h-5l-4.69,0-4.63,0A921.2,921.2,0,0,1,104.84,1497Z" fill="#00aa4f"/><path d="M99.88,1484.47c-270,0-540.19-133.3-705.06-347.86a928.21,928.21,0,0,1-71.74-105.19C-778.83,884.81-839.66,693.28-839.66,519V483c0-95.21,17.88-199.41,50.38-293.61a939.72,939.72,0,0,1,72.45-295.75A944.19,944.19,0,0,1-514-406.12a944.15,944.15,0,0,1,300.3-202.17,939.51,939.51,0,0,1,368-74.46c16.54,0,34.61.53,52.31,1.52,17.7-1,35.77-1.52,52.31-1.52A947.25,947.25,0,0,1,871.74-457.42a969.4,969.4,0,0,1,74,70.25c196.62,165.63,318.74,426.53,318.74,681.07v26.38c12,59.78,18.61,123.92,18.61,180.73a907.49,907.49,0,0,1-135.22,477c-47.59,94.26-115.06,184.76-190,254.87-168,157.15-387.6,243.7-618.37,243.7H327.34l-4.3,0-4.3,0h-5.36c-2.3,0-4.61,0-6.94,0s-4.64,0-6.94,0h-5.45c-4.29,0-8.63,0-12.9-.09s-8.66.09-13,.09H256.88c-3.26,0-6.58,0-9.89-.06s-6.63.06-9.88.06h-5l-4.69,0-4.68,0H222a908.41,908.41,0,0,1-117.13,7.88Z" fill="#008453"/><path d="M99.88,1472c-266.27,0-532.65-131.44-695.2-343a916.43,916.43,0,0,1-71.06-104.23C-767.07,880-827.16,691-827.16,519V483c0-94.41,17.82-197.7,50.21-291a927.31,927.31,0,0,1,71.62-293.41A931.85,931.85,0,0,1-505.15-397.27,931.81,931.81,0,0,1-208.8-596.78a927.18,927.18,0,0,1,363.11-73.47c16.54,0,34.61.54,52.31,1.54,17.7-1,35.77-1.54,52.31-1.54A934.67,934.67,0,0,1,863.64-447.89a955.6,955.6,0,0,1,73.48,69.83C1131.34-214.74,1252,42.66,1252,293.9v27.62c12,59.37,18.61,123.06,18.61,179.49a894.9,894.9,0,0,1-133.64,470.9c-47,93.16-113.58,182.59-187.63,251.85-165.66,155-382.24,240.33-609.83,240.33H327.34l-4.3,0-4.3,0h-5.36c-2.3,0-4.61,0-6.94,0s-4.64,0-6.94,0h-5.45c-4.3,0-8.64,0-12.89-.1s-8.66.1-13,.1H256.88c-3.26,0-6.58,0-9.89-.06s-6.63.06-9.88.06h-5l-4.69,0-4.68,0h-1.59A895.82,895.82,0,0,1,104.84,1472Z" fill="#00aa4f"/><path d="M99.88,1459.47c-262.51,0-525.12-129.61-685.35-338.24A903.85,903.85,0,0,1-655.84,1018c-99.46-142.71-158.82-329.2-158.82-499V483c0-93.62,17.77-196,50.06-288.48A914.91,914.91,0,0,1-693.83-96.54a925,925,0,0,1,489.9-488.72,914.65,914.65,0,0,1,358.24-72.49c16.54,0,34.61.54,52.31,1.56,17.7-1,35.77-1.56,52.31-1.56A922.19,922.19,0,0,1,855.55-438.37a943.7,943.7,0,0,1,73,69.42c191.8,161,310.92,414.91,310.92,662.85v28.88c12,58.93,18.61,122.18,18.61,178.23A882.41,882.41,0,0,1,1126,965.8c-46.33,92.06-112.1,180.41-185.24,248.83-163.35,152.81-376.89,237-601.3,237H327.34l-4.3,0-4.3,0h-5.36c-2.3,0-4.62,0-6.94,0s-4.64,0-6.94,0h-5.45c-4.28,0-8.62,0-12.89-.1s-8.68.1-13,.1H256.88c-3.26,0-6.58,0-9.89-.06s-6.63.06-9.88.06h-5l-4.69,0-4.68,0h-2.42a882.93,882.93,0,0,1-115.48,7.88Z" fill="#008453"/><path d="M99.88,1447c-258.75,0-517.57-127.76-675.49-333.43a889.5,889.5,0,0,1-69.68-102.32C-743.53,870.45-802.16,686.49-802.16,519V483c0-92.84,17.71-194.3,49.9-285.91A902.58,902.58,0,0,1-682.33-91.64,912.53,912.53,0,0,1-199.06-573.75a902.29,902.29,0,0,1,353.37-71.5c16.54,0,34.61.55,52.31,1.58,17.69-1,35.77-1.58,52.31-1.58A909.66,909.66,0,0,1,847.45-428.84a928.34,928.34,0,0,1,72.49,69c189.4,158.68,307,409.1,307,653.74V324c12,58.5,18.61,121.3,18.61,177a869.86,869.86,0,0,1-130.48,458.68c-45.7,91-110.62,178.24-182.86,245.81-161,150.63-371.54,233.59-592.76,233.59H327.34l-4.3,0-4.3,0h-5.36c-2.3,0-4.62,0-6.94,0s-4.64,0-6.94,0h-5.45c-4.27,0-8.61,0-12.89-.1s-8.69.1-13,.1H256.88c-3.26,0-6.58,0-9.89-.06s-6.63.06-9.88.06h-5l-4.69,0-4.68,0h-3.25A870.49,870.49,0,0,1,104.84,1447Z" fill="#00aa4f"/><path d="M99.88,1434.47c-255,0-510-125.91-665.64-328.62a876.55,876.55,0,0,1-69-101.37c-97-138.81-154.91-320.26-154.91-485.49V483c0-92,17.66-192.6,49.75-283.34A890.1,890.1,0,0,1-670.83-86.74a894.32,894.32,0,0,1,192.17-284A894.42,894.42,0,0,1-194.19-562.24a889.92,889.92,0,0,1,348.5-70.51c16.54,0,34.61.56,52.31,1.6,17.69-1,35.76-1.6,52.31-1.6A897.18,897.18,0,0,1,839.36-419.32a918.47,918.47,0,0,1,72,68.59c187,156.36,303.1,403.29,303.1,644.63v31.42c12,58.07,18.61,120.41,18.61,175.69a857.28,857.28,0,0,1-128.9,452.57c-45.07,89.86-109.15,176.07-180.48,242.8C765,1344.83,557.5,1426.59,339.46,1426.59H327.34l-4.3,0-4.3,0h-5.36c-2.3,0-4.62,0-6.94,0s-4.64,0-6.94,0h-5.45c-4.26,0-8.59,0-12.89-.1s-8.71.1-13,.1H256.88c-3.26,0-6.58,0-9.89-.06s-6.63.06-9.88.06h-5l-4.69,0-4.68,0h-4.09a857.88,857.88,0,0,1-113.81,7.88Z" fill="#008453"/><path d="M99.88,1422c-251.23,0-502.5-124.07-655.79-323.81a865.81,865.81,0,0,1-68.3-100.42C-720,860.88-777.16,682-777.16,519V483c0-91.26,17.6-190.9,49.6-280.77a877.42,877.42,0,0,1,68.23-284.1,881.84,881.84,0,0,1,189.5-280A881.93,881.93,0,0,1-189.32-550.73a877.38,877.38,0,0,1,343.63-69.52c16.54,0,34.61.57,52.31,1.63,17.69-1.06,35.76-1.63,52.31-1.63A884.64,884.64,0,0,1,831.26-409.8a903.6,903.6,0,0,1,71.5,68.19C1087.33-187.57,1202,55.86,1202,293.9v32.7c12,57.63,18.61,119.51,18.61,174.41a844.7,844.7,0,0,1-127.32,446.46c-44.44,88.76-107.67,173.9-178.1,239.78-156.38,146.28-360.82,226.84-575.68,226.84H327.34l-4.3,0-4.3,0h-5.36c-2.3,0-4.62,0-6.94,0s-4.64,0-6.94,0h-5.45c-4.28,0-8.61,0-12.88-.1s-8.69.1-13,.1H256.88c-3.25,0-6.58,0-9.89-.06s-6.63.06-9.88.06h-5l-4.69,0-4.68,0H217.8a845.09,845.09,0,0,1-113,7.88Z" fill="#00aa4f"/><path d="M99.88,1409.47c-247.46,0-495-122.23-645.93-319A852.93,852.93,0,0,1-613.67,991c-94.55-134.91-151-311.32-151-472V483c0-90.47,17.56-189.2,49.45-278.19A865.18,865.18,0,0,1-647.83-76.95,875,875,0,0,1-184.45-539.21a864.85,864.85,0,0,1,338.76-68.54c16.55,0,34.61.57,52.31,1.65,17.69-1.08,35.76-1.65,52.31-1.65A872.17,872.17,0,0,1,823.17-400.27a890.19,890.19,0,0,1,71,67.77c182.15,151.72,295.28,391.66,295.28,626.4v34c12,57.19,18.61,118.61,18.61,173.12a832.22,832.22,0,0,1-125.74,440.35c-43.81,87.66-106.2,171.73-175.72,236.76-154.05,144.11-355.46,223.47-567.14,223.47H327.34l-4.3,0-4.3,0h-5.36c-2.3,0-4.62,0-6.94,0s-4.64,0-6.94,0h-5.45c-4.32,0-8.65,0-12.88-.1s-8.65.1-13,.1H256.88c-3.25,0-6.58,0-9.89-.06s-6.63.06-9.88.06h-5l-4.69,0-4.68,0h-5.8a832.14,832.14,0,0,1-112.1,7.88Z" fill="#008453"/><path d="M99.88,1397c-243.7,0-487.41-120.38-636.07-314.18a839.52,839.52,0,0,1-66.94-98.52c-93.33-132.95-149-306.84-149-465.28V483c0-89.69,17.5-187.49,49.31-275.62A852.61,852.61,0,0,1-636.33-72,862.53,862.53,0,0,1-179.58-527.7a852.52,852.52,0,0,1,333.89-67.55c16.54,0,34.61.58,52.31,1.67,17.69-1.09,35.76-1.67,52.31-1.67a859.65,859.65,0,0,1,556.14,204.5,879.18,879.18,0,0,1,70.52,67.37C1065.33-174,1177,62.46,1177,293.9v35.29c12,56.74,18.61,117.71,18.61,171.82A819.7,819.7,0,0,1,1071.4,935.25c-43.18,86.56-104.72,169.55-173.34,233.74-151.73,141.93-350.11,220.1-558.6,220.1H327.34l-4.3,0-4.3,0h-5.36c-2.3,0-4.62,0-6.94,0s-4.64,0-6.94,0h-5.45c-4.31,0-8.64,0-12.88-.1s-8.66.1-13,.1H256.88c-3.25,0-6.58,0-9.89-.06s-6.63.06-9.88.06h-5l-4.69,0-4.68,0h-6.65A819.67,819.67,0,0,1,104.84,1397Z" fill="#00aa4f"/><path d="M99.88,1384.47c-239.93,0-479.87-118.53-626.21-309.36a826.56,826.56,0,0,1-66.26-97.58c-92.1-131-147.07-302.37-147.07-458.54V483c0-88.9,17.45-185.79,49.17-273A840.11,840.11,0,0,1-624.83-67.15a850,850,0,0,1,450.12-449,840.16,840.16,0,0,1,329-66.56c16.54,0,34.61.59,52.31,1.7,17.69-1.11,35.76-1.7,52.31-1.7A847.07,847.07,0,0,1,807-381.22a862.72,862.72,0,0,1,70,67c177.33,147.08,287.45,380,287.45,608.17v36.6c12,56.3,18.61,116.79,18.61,170.51a807.25,807.25,0,0,1-122.58,428.13c-42.55,85.46-103.24,167.38-171,230.72-149.4,139.76-344.75,216.73-550.06,216.73H327.34l-4.3,0-4.3,0h-5.36c-2.3,0-4.62,0-6.94,0s-4.64,0-6.94,0h-5.45c-4.33,0-8.66,0-12.88-.11s-8.64.11-13,.11H256.88c-3.25,0-6.58,0-9.89-.07s-6.63.07-9.88.07h-5l-4.69,0-4.68,0h-7.49a805.66,805.66,0,0,1-110.41,7.89Z" fill="#008453"/><path d="M99.88,1372c-236.16,0-472.32-116.68-616.34-304.55A810.75,810.75,0,0,1-582,970.79c-90.88-129-145.12-297.89-145.12-451.8V483c0-88.11,17.41-184.09,49-270.46a827.36,827.36,0,0,1,64.8-274.83A837.47,837.47,0,0,1-169.84-504.68a827.79,827.79,0,0,1,324.15-65.57c16.54,0,34.61.6,52.31,1.72,17.69-1.12,35.76-1.72,52.31-1.72a834.62,834.62,0,0,1,540,198.55,855,855,0,0,1,69.53,66.55C1043.32-160.4,1152,69.06,1152,293.9v37.93c12,55.83,18.61,115.86,18.61,169.18a794.69,794.69,0,0,1-121,422c-41.92,84.36-101.77,165.21-168.58,227.71-147.08,137.58-339.39,213.35-541.52,213.35H327.34l-4.3,0-4.3,0h-5.36c-2.3,0-4.62,0-6.94,0s-4.64,0-6.94,0h-5.45c-4.3,0-8.63,0-12.87-.11s-8.67.11-13,.11H256.88c-3.25,0-6.58,0-9.89-.07s-6.63.07-9.88.07h-5l-4.69,0-4.68,0h-8.33A795,795,0,0,1,104.84,1372Z" fill="#00aa4f"/><path d="M99.88,1359.47c-232.4,0-464.78-114.86-606.49-299.73a799.85,799.85,0,0,1-64.89-95.69C-661.16,837-714.66,670.64-714.66,519V483c0-87.33,17.36-182.38,48.91-267.88A814.8,814.8,0,0,1-601.82-57.36,824.94,824.94,0,0,1-165-493.16a815.08,815.08,0,0,1,319.28-64.59c16.55,0,34.62.61,52.31,1.75,17.68-1.14,35.75-1.75,52.31-1.75A822.11,822.11,0,0,1,790.78-362.18,844.16,844.16,0,0,1,859.83-296c172.5,142.42,279.62,368.38,279.62,589.93v39.26c12,55.38,18.61,114.93,18.61,167.85a782.16,782.16,0,0,1-119.42,415.91c-41.29,83.26-100.29,163-166.2,224.69-144.75,135.41-334,210-533,210H327.34l-4.3,0-4.3,0h-5.36c-2.3,0-4.62,0-6.94,0s-4.64,0-6.94,0h-5.45c-4.3,0-8.63,0-12.87-.11s-8.68.11-13,.11H256.88c-3.22,0-6.55,0-9.89-.07s-6.66.07-9.88.07h-5l-4.69,0-4.68,0h-4.91l-3.83,0h-.48a782.12,782.12,0,0,1-108.68,7.89Z" fill="#008453"/><path d="M99.88,1347c-228.64,0-457.24-113-596.63-294.92A787.75,787.75,0,0,1-561,957.31C-649.38,832.19-702.16,668.38-702.16,519V483c0-86.54,17.31-180.67,48.78-265.29a802.26,802.26,0,0,1,63.06-270.2A812.48,812.48,0,0,1-160.1-481.65a802.72,802.72,0,0,1,314.41-63.6c16.55,0,34.62.62,52.31,1.77,17.68-1.15,35.75-1.77,52.31-1.77a809.58,809.58,0,0,1,523.76,192.6,826.62,826.62,0,0,1,68.55,65.74C1021.32-146.82,1127,75.65,1127,293.9v40.61c12,54.91,18.61,114,18.61,166.5a769.64,769.64,0,0,1-117.85,409.8c-40.65,82.16-98.8,160.86-163.81,221.67-142.43,133.23-328.68,206.61-524.44,206.61H327.34l-4.3,0-4.3,0h-5.36c-2.3,0-4.62,0-6.94,0s-4.64,0-6.94,0h-5.45c-4.32,0-8.65,0-12.88-.11s-8.65.11-13,.11H256.88c-3.24,0-6.57,0-9.89-.07s-6.64.07-9.88.07h-5l-4.69,0-4.68,0h-4.91l-3.82,0h-1.43A767,767,0,0,1,104.84,1347Z" fill="#00aa4f"/><path d="M99.88,1334.47c-224.87,0-449.7-111.16-586.77-290.1a775.43,775.43,0,0,1-63.53-93.8C-637.61,827.41-689.66,666.12-689.66,519V483c0-85.75,17.27-179,48.65-262.7A790.14,790.14,0,0,1-578.82-47.56,800,800,0,0,1-155.23-470.14a790.35,790.35,0,0,1,309.54-62.61c16.56,0,34.63.63,52.31,1.8,17.68-1.17,35.75-1.8,52.31-1.8A797.1,797.1,0,0,1,774.59-343.13a816,816,0,0,1,68.06,65.34C1010.32-140,1114.45,79,1114.45,293.9v42c12,54.45,18.61,113.05,18.61,165.15A757.17,757.17,0,0,1,1016.79,904.7c-40,81-97.33,158.69-161.43,218.65-140.1,131.06-323.32,203.24-515.9,203.24H327.34l-4.3,0-4.3,0h-5.36c-2.3,0-4.62,0-6.94,0s-4.64,0-6.94,0h-5.45c-4.29,0-8.62,0-12.87-.11s-8.69.11-13,.11H256.88c-3.25,0-6.57,0-9.89-.07s-6.64.07-9.88.07h-5l-4.69,0-4.68,0h-4.91l-3.83,0-2.35,0a755.42,755.42,0,0,1-106.81,7.88Z" fill="#008453"/><path d="M99.88,1322c-221.11,0-442.16-109.31-576.91-285.29a759.64,759.64,0,0,1-62.84-92.86c-86-121.2-137.29-280-137.29-424.83V483c0-85,17.23-177.27,48.53-260.11A777.62,777.62,0,0,1-567.32-42.67a787.57,787.57,0,0,1,417-416,778,778,0,0,1,304.67-61.62c16.56,0,34.63.63,52.31,1.83,17.67-1.2,35.74-1.83,52.31-1.83A784.57,784.57,0,0,1,766.5-333.6a800.55,800.55,0,0,1,67.56,64.94C999.33-133.23,1102,82.24,1102,293.9v43.33c12,54,18.61,112.09,18.61,163.78a744.62,744.62,0,0,1-114.69,397.58c-39.39,79.95-95.85,156.51-159,215.63-137.79,128.89-318,199.87-507.37,199.87H327.34l-4.3,0-4.3,0h-5.36c-2.3,0-4.62,0-6.94,0s-4.64,0-6.94,0h-5.45c-4.29,0-8.62,0-12.88-.12-4.31.08-8.68.12-13,.12H256.88c-3.23,0-6.55,0-9.89-.07s-6.66.07-9.88.07h-5l-4.69,0-4.68,0h-4.91l-3.83,0-3.27,0A742.57,742.57,0,0,1,104.84,1322Z" fill="#00aa4f"/><path d="M99.88,1309.47c-217.36,0-434.63-107.47-567-280.47a748.22,748.22,0,0,1-62.16-91.92C-614.08,817.84-664.66,661.59-664.66,519V483c0-84.19,17.19-175.56,48.42-257.52A765.11,765.11,0,0,1-555.82-37.77,775.06,775.06,0,0,1-145.5-447.11a765.4,765.4,0,0,1,299.81-60.64c16.56,0,34.63.64,52.31,1.86,17.67-1.22,35.74-1.86,52.31-1.86A772,772,0,0,1,758.4-324.08a791.72,791.72,0,0,1,67.08,64.54c162.84,133.11,264,345.08,264,553.44v44.71c12,53.51,18.61,111.13,18.61,162.4A732.09,732.09,0,0,1,994.94,892.48c-38.74,78.85-94.36,154.34-156.65,212.61-135.46,126.72-312.61,196.5-498.83,196.5H327.34l-4.3,0-4.3,0h-5.36c-2.3,0-4.62,0-6.94,0s-4.64,0-6.94,0h-5.45c-4.31,0-8.64,0-12.87-.12-4.3.08-8.67.12-13,.12H256.88c-3.25,0-6.57,0-9.88-.07s-6.65.07-9.89.07h-5l-4.69,0-4.68,0h-4.91l-3.83,0-3.83,0h-.36a729.62,729.62,0,0,1-105,7.88Z" fill="#008453"/><path d="M99.88,1297c-213.6,0-427.08-105.62-557.19-275.66a734.58,734.58,0,0,1-61.48-91c-83.52-117.28-133.37-271-133.37-411.34V483c0-83.41,17.15-173.86,48.31-254.92a752.69,752.69,0,0,1,59.53-261A762.51,762.51,0,0,1-140.63-435.6a753,753,0,0,1,294.94-59.65c16.56,0,34.63.65,52.31,1.89,17.67-1.24,35.74-1.89,52.31-1.89a759.5,759.5,0,0,1,491.38,180.7,776.65,776.65,0,0,1,66.58,64.14C977.32-119.64,1077,88.84,1077,293.9V340c12,53,18.61,110.15,18.61,161A719.55,719.55,0,0,1,984,886.37C945.9,964.12,891.14,1038.53,829.75,1096c-133.14,124.54-307.26,193.13-490.29,193.13H327.34l-4.3,0-4.3,0h-5.36c-2.3,0-4.62,0-6.94,0s-4.64,0-6.94,0h-5.45c-4.29,0-8.62,0-12.87-.12-4.32.08-8.69.12-13,.12H256.88c-3.25,0-6.58,0-9.88-.07s-6.65.07-9.89.07h-5l-4.69,0-4.68,0h-4.91l-3.83,0-3.83,0h-1.28a716.9,716.9,0,0,1-104,7.88Z" fill="#00aa4f"/><path d="M99.88,1284.47c-209.84,0-419.55-103.77-547.34-270.85a722.33,722.33,0,0,1-60.79-90C-590.54,808.27-639.66,657.07-639.66,519V483c0-82.63,17.11-172.15,48.21-252.32A740.32,740.32,0,0,1-532.82-28,750.07,750.07,0,0,1-135.76-424.09a740.67,740.67,0,0,1,290.07-58.66c16.57,0,34.63.67,52.31,1.92,17.67-1.25,35.74-1.92,52.31-1.92A747,747,0,0,1,742.21-305a763.6,763.6,0,0,1,66.09,63.75c158,128.43,256.15,333.41,256.15,535.18v47.5c12,52.55,18.61,109.17,18.61,159.61a706.92,706.92,0,0,1-110,379.24c-37.48,76.66-91.4,150-151.88,206.59-130.81,122.36-301.9,189.75-481.75,189.75H327.34l-4.3,0-4.3,0h-5.36c-2.3,0-4.62,0-6.94,0s-4.64,0-6.94,0h-5.45c-4.29,0-8.62,0-12.86-.12-4.32.08-8.69.12-13,.12H256.88c-3.24,0-6.57,0-9.88-.07s-6.66.07-9.89.07h-5l-4.69,0-4.68,0h-4.91l-3.83,0-3.83,0H208a704,704,0,0,1-103.11,7.88Z" fill="#008453"/><path d="M99.88,1272c-206.07,0-412-101.93-537.49-266.05a709.7,709.7,0,0,1-60.09-89.08c-81.07-113.35-129.46-262-129.46-397.85V483c0-81.85,17.07-170.44,48.11-249.72A727.67,727.67,0,0,1-521.32-23.08a737.51,737.51,0,0,1,390.43-389.5,728.31,728.31,0,0,1,285.2-57.67c16.57,0,34.64.68,52.31,1.95,17.66-1.27,35.73-1.95,52.31-1.95A734.46,734.46,0,0,1,734.11-295.5a750.56,750.56,0,0,1,65.61,63.35C955.32-106.06,1052,95.42,1052,293.9v48.91c12,52.07,18.61,108.19,18.61,158.2a694.4,694.4,0,0,1-108.4,373.13C925.32,949.7,872.25,1022,812.67,1077.71c-128.49,120.19-296.54,186.38-473.21,186.38H327.34l-4.3,0-4.3,0h-5.36c-2.3,0-4.62,0-6.94,0s-4.64,0-6.94,0h-5.45c-4.26,0-8.59,0-12.86-.12-4.3.08-8.68.12-13,.12H256.88c-3.21,0-6.53,0-9.88-.07s-6.69.07-9.89.07h-5l-4.69,0-4.68,0h-4.91l-3.83,0-3.83,0H207A691.36,691.36,0,0,1,104.84,1272Z" fill="#00aa4f"/><path d="M99.88,1259.47c-202.31,0-404.47-100.09-527.63-261.24a695.84,695.84,0,0,1-59.41-88.13C-567,798.71-614.66,652.56-614.66,519V483c0-81.07,17-168.73,48-247.12A715.37,715.37,0,0,1-509.82-18.18,725,725,0,0,1-126-401.06a715.59,715.59,0,0,1,280.33-56.69c16.57,0,34.64.69,52.31,2,17.66-1.29,35.73-2,52.31-2A722,722,0,0,1,726-286a737.72,737.72,0,0,1,65.11,63C944.32-99.27,1039.45,98.71,1039.45,293.9v50.34c12,51.58,18.61,107.19,18.61,156.77A681.87,681.87,0,0,1,951.24,868c-36.21,74.46-88.43,145.65-147.11,200.55-126.16,118-291.18,183-464.67,183H327.34l-4.3,0-4.3,0h-5.36c-2.3,0-4.62,0-6.94,0s-4.64,0-6.94,0h-5.45c-4.24,0-8.57,0-12.86-.13-4.33.09-8.7.13-13,.13H256.88c-3.22,0-6.54,0-9.88-.08s-6.68.08-9.89.08h-5l-4.69,0-4.68,0h-4.91l-3.83,0-3.83,0h-4.11a678.58,678.58,0,0,1-101.22,7.88Z" fill="#008453"/><path d="M99.88,1247c-198.54,0-396.93-98.25-517.77-256.42a683.31,683.31,0,0,1-58.72-87.2C-555.24,793.93-602.16,650.3-602.16,519V483c0-80.29,17-167,47.93-244.51A702.81,702.81,0,0,1-498.31-13.29,712.48,712.48,0,0,1-121.15-389.55a703.27,703.27,0,0,1,275.46-55.7c16.58,0,34.64.7,52.31,2,17.66-1.32,35.73-2,52.31-2a709.48,709.48,0,0,1,459,168.79,726.68,726.68,0,0,1,64.63,62.58C933.32-92.48,1027,102,1027,293.9v51.78c12,51.08,18.61,106.18,18.61,155.33A669.36,669.36,0,0,1,940.31,861.92c-35.57,73.35-86.94,143.48-144.72,197.53-123.84,115.84-285.83,179.64-456.13,179.64H327.34l-4.3,0-4.3,0h-5.36c-2.3,0-4.62,0-6.94,0s-4.64,0-6.94,0h-5.45c-4.24,0-8.57,0-12.86-.13-4.32.09-8.7.13-13,.13H256.88c-3.2,0-6.53,0-9.88-.08s-6.69.08-9.89.08h-5l-4.69,0-4.68,0h-4.91l-3.83,0-3.83,0H205.1A665.69,665.69,0,0,1,104.84,1247Z" fill="#00aa4f"/><path d="M99.88,1234.47c-194.79,0-389.4-96.41-507.92-251.61a670.74,670.74,0,0,1-58-86.26C-543.47,789.15-589.66,648.05-589.66,519V483c0-79.51,17-165.31,47.85-241.89a690.54,690.54,0,0,1,55-249.53A700,700,0,0,1-116.28-378a690.9,690.9,0,0,1,270.59-54.71c16.58,0,34.65.71,52.31,2.05,17.65-1.34,35.72-2.05,52.31-2.05a697,697,0,0,1,450.9,165.82A712.62,712.62,0,0,1,774-204.75c148.36,119.07,240.49,310,240.49,498.65v53.24c12,50.58,18.61,105.16,18.61,153.87a656.77,656.77,0,0,1-103.68,354.8c-34.93,72.25-85.45,141.3-142.33,194.51C665.54,1164,506.58,1226.59,339.46,1226.59H327.34l-4.3,0-4.3,0h-5.36c-2.3,0-4.62,0-6.94,0s-4.64,0-6.94,0h-5.45c-4.24,0-8.56,0-12.86-.13-4.33.09-8.7.13-13,.13H256.88c-3.16,0-6.49,0-9.88-.08s-6.73.08-9.89.08h-5l-4.69,0-4.68,0h-4.91l-3.83,0-3.83,0h-6a653,653,0,0,1-99.3,7.88Z" fill="#008453"/><path d="M99.88,1222c-191,0-381.87-94.57-498.06-246.8a658.19,658.19,0,0,1-57.35-85.31C-531.7,784.37-577.16,645.79-577.16,519V483c0-78.73,16.95-163.61,47.78-239.28A677.69,677.69,0,0,1-475.31-3.49a687.54,687.54,0,0,1,363.9-363,678.54,678.54,0,0,1,265.72-53.72c16.58,0,34.65.72,52.31,2.09,17.65-1.37,35.72-2.09,52.31-2.09a684.43,684.43,0,0,1,442.8,162.84,701.87,701.87,0,0,1,63.65,61.8C911.32-78.89,1002,108.58,1002,293.9v54.71c12,50.07,18.61,104.13,18.61,152.4A644.27,644.27,0,0,1,918.45,849.7c-34.29,71.15-84,139.13-139.94,191.49-119.19,111.5-275.11,172.9-439,172.9H327.34l-4.3,0-4.3,0h-5.36c-2.3,0-4.62,0-6.94,0s-4.64,0-6.94,0h-5.45c-4.23,0-8.56,0-12.86-.13-4.33.09-8.7.13-13,.13H256.88c-3.17,0-6.5,0-9.88-.08s-6.72.08-9.89.08h-5l-4.69,0-4.68,0h-4.91l-3.83,0-3.83,0h-7a639.28,639.28,0,0,1-98.35,7.89Z" fill="#00aa4f"/><path d="M99.88,1209.47c-187.28,0-374.33-92.71-488.2-242A645.55,645.55,0,0,1-445,883.11C-519.93,779.59-564.66,643.53-564.66,519V483c0-77.95,16.93-161.9,47.71-236.66a665.47,665.47,0,0,1,53.14-245A674.95,674.95,0,0,1-106.54-355a666,666,0,0,1,260.85-52.74c16.59,0,34.65.74,52.31,2.13,17.65-1.39,35.71-2.13,52.31-2.13A672,672,0,0,1,693.64-247.88a687,687,0,0,1,63.15,61.41C900.32-72.09,989.45,111.87,989.45,293.9v56.19c12,49.56,18.61,103.1,18.61,150.92A631.72,631.72,0,0,1,907.52,843.59c-33.65,70-82.48,137-137.55,188.47-116.86,109.32-269.75,169.53-430.51,169.53H327.34l-4.3,0-4.3,0h-5.36c-2.3,0-4.62,0-6.94,0s-4.64,0-6.94,0h-5.45c-4.23,0-8.55,0-12.86-.14-4.33.09-8.71.14-13,.14H256.88c-3.19,0-6.51,0-9.88-.08s-6.7.08-9.89.08h-5l-4.69,0-4.68,0h-4.91l-3.83,0-3.83,0h-7.92a628.27,628.27,0,0,1-97.41,7.89Z" fill="#008453"/><path d="M99.88,1197c-183.51,0-366.79-90.87-478.34-237.17a631.74,631.74,0,0,1-56-83.45C-508.16,774.81-552.16,641.27-552.16,519V483c0-77.17,16.91-160.19,47.65-234A653.1,653.1,0,0,1-452.31,6.3,662.48,662.48,0,0,1-101.67-343.5a653.46,653.46,0,0,1,256-51.75c16.59,0,34.66.75,52.31,2.17,17.65-1.42,35.71-2.17,52.31-2.17A659.42,659.42,0,0,1,685.54-238.36a675.23,675.23,0,0,1,62.67,61C889.33-65.29,977,115.16,977,293.9v57.69c12,49.05,18.61,102.05,18.61,149.42a619.24,619.24,0,0,1-99,336.47c-33,68.94-81,134.78-135.15,185.46-114.54,107.14-264.4,166.15-422,166.15H327.34l-4.3,0-4.3,0h-5.36c-2.3,0-4.62,0-6.94,0s-4.64,0-6.94,0h-5.45c-4.22,0-8.55,0-12.86-.14-4.33.09-8.71.14-13,.14H256.88c-3.17,0-6.49,0-9.88-.08s-6.73.08-9.89.08h-5l-4.69,0-4.68,0h-4.91l-3.83,0-3.83,0h-5l-3.52,0h-.34a615.5,615.5,0,0,1-96.42,7.89Z" fill="#00aa4f"/><path d="M99.88,1184.47c-179.75,0-359.25-89-468.48-232.35a618.33,618.33,0,0,1-55.29-82.52C-496.39,770-539.66,639-539.66,519V483c0-76.4,16.89-158.48,47.6-231.4A640.65,640.65,0,0,1-440.81,11.2,650,650,0,0,1-96.8-332a641.14,641.14,0,0,1,251.11-50.76c16.59,0,34.66.77,52.31,2.21,17.65-1.44,35.71-2.21,52.31-2.21A646.89,646.89,0,0,1,677.45-228.83a661,661,0,0,1,62.17,60.65C878.33-58.48,964.45,118.46,964.45,293.9v59.21c12,48.52,18.61,101,18.61,147.9a606.64,606.64,0,0,1-97.41,330.35C853.29,899.21,806.16,964,752.89,1013.81c-112.21,105-259,162.78-413.43,162.78H327.34l-4.3,0-4.3,0h-5.36c-2.3,0-4.62,0-6.94,0s-4.64,0-6.94,0h-5.45c-4.22,0-8.54,0-12.85-.14-4.35.09-8.72.14-13,.14H256.88c-3.17,0-6.49,0-9.88-.08s-6.72.08-9.89.08h-5l-4.69,0-4.68,0h-4.91l-3.83,0-3.83,0h-5l-3.51,0H200.2a600.91,600.91,0,0,1-95.36,7.89Z" fill="#008453"/><path d="M99.88,1172c-176,0-351.7-87.18-458.62-227.54a604.94,604.94,0,0,1-54.6-81.58C-484.63,765.24-527.16,636.76-527.16,519V483c0-75.63,16.88-156.77,47.56-228.76A628.32,628.32,0,0,1-429.31,16.1,637.55,637.55,0,0,1-91.93-320.48a628.77,628.77,0,0,1,246.24-49.77c16.6,0,34.67.78,52.31,2.25,17.64-1.47,35.7-2.25,52.31-2.25A634.41,634.41,0,0,1,669.35-219.31,649.67,649.67,0,0,1,731-159C867.33-51.68,952,121.76,952,293.9v60.74c12,48,18.61,99.91,18.61,146.37a594.17,594.17,0,0,1-95.84,324.24C843,892,796.72,955.69,744.35,1004.68c-109.89,102.8-253.68,159.41-404.89,159.41H327.34l-4.3,0-4.3,0h-5.36c-2.3,0-4.62,0-6.94,0s-4.64,0-6.94,0h-5.45c-4.21,0-8.53,0-12.86-.15-4.34.1-8.72.15-13,.15H256.88c-3.19,0-6.52,0-9.88-.09s-6.7.09-9.89.09h-5l-4.69,0-4.68,0h-4.91l-3.83,0-3.83,0h-5l-3.51,0-2.45,0a589.14,589.14,0,0,1-94.32,7.88Z" fill="#00aa4f"/><path d="M99.88,1159.47c-172.22,0-344.17-85.34-448.77-222.73a593,593,0,0,1-53.91-80.65C-472.86,760.46-514.66,634.51-514.66,519V483c0-74.86,16.86-155,47.53-226.12A615.86,615.86,0,0,1-417.81,21,625,625,0,0,1-87.06-309a616.24,616.24,0,0,1,241.37-48.79c16.6,0,34.67.8,52.31,2.3,17.64-1.5,35.7-2.3,52.31-2.3a621.88,621.88,0,0,1,402.32,148,636.1,636.1,0,0,1,61.2,59.91c133.88,105,217,274.93,217,443.78v62.29c12,47.46,18.61,98.82,18.61,144.82a581.63,581.63,0,0,1-94.28,318.13c-31.08,65.64-76.5,128.27-128,176.41-107.56,100.62-248.32,156-396.35,156H327.34l-4.3,0-4.3,0h-5.36c-2.3,0-4.62,0-6.94,0s-4.64,0-6.94,0h-5.45c-4.2,0-8.53,0-12.85-.15-4.36.1-8.73.15-13,.15H256.88c-3.18,0-6.5,0-9.88-.09s-6.71.09-9.89.09h-5l-4.69,0-4.68,0h-4.91l-3.83,0-3.83,0h-5l-3.51,0-3.5,0a576,576,0,0,1-93.27,7.88Z" fill="#008453"/><path d="M99.88,1147c-168.47,0-336.63-83.5-438.91-217.92a579.83,579.83,0,0,1-53.22-79.71C-461.09,755.68-502.16,632.25-502.16,519V483c0-74.08,16.86-153.34,47.5-223.47A603.68,603.68,0,0,1-406.31,25.89,612.58,612.58,0,0,1-82.19-297.45a603.7,603.7,0,0,1,236.5-47.8c16.61,0,34.67.81,52.31,2.34,17.63-1.53,35.7-2.34,52.31-2.34a609.37,609.37,0,0,1,394.23,145,623.9,623.9,0,0,1,60.71,59.54C845.33-38.07,927,128.35,927,293.9v63.85c12,46.92,18.61,97.73,18.61,143.26a569.1,569.1,0,0,1-92.72,312c-30.43,64.54-75,126.09-125.57,173.39-105.24,98.45-243,152.67-387.81,152.67H327.34l-4.3,0-4.3,0h-5.36c-2.3,0-4.62,0-6.94,0s-4.64,0-6.94,0h-5.45c-4.2,0-8.52,0-12.85-.15-4.36.1-8.74.15-13,.15H256.88c-3.18,0-6.5,0-9.88-.09s-6.72.09-9.89.09h-5l-4.69,0-4.68,0h-4.91l-3.83,0-3.83,0h-5l-3.51,0-3.52,0h-1a563.23,563.23,0,0,1-92.23,7.88Z" fill="#00aa4f"/><path d="M99.88,1134.47c-164.71,0-329.09-81.65-429-213.1a566.4,566.4,0,0,1-52.53-78.79c-67.62-91.69-108-212.59-108-323.59V483c0-73.31,16.85-151.62,47.49-220.82.82-328.21,268.08-595,596.48-595,16.61,0,34.67.83,52.31,2.39,17.63-1.56,35.69-2.39,52.31-2.39a596.89,596.89,0,0,1,386.13,142,610.8,610.8,0,0,1,60.22,59.17C834.34-31.26,914.45,131.64,914.45,293.9v65.43c12,46.38,18.61,96.63,18.61,141.68a556.68,556.68,0,0,1-91.15,305.91c-29.8,63.44-73.51,123.92-123.18,170.37-102.91,96.28-237.61,149.3-379.27,149.3H327.34l-4.3,0-4.3,0h-5.36c-2.3,0-4.62,0-6.94,0s-4.64,0-6.94,0h-5.45c-4.22,0-8.54,0-12.86-.16-4.33.11-8.7.16-13,.16H256.88c-3.19,0-6.52,0-9.88-.09s-6.7.09-9.89.09h-5l-4.69,0-4.68,0h-4.91l-3.83,0-3.83,0h-5l-3.51,0-3.52,0H196a550.44,550.44,0,0,1-91.18,7.88Z" fill="#008453"/><path d="M99.88,1122c-160.94,0-321.55-79.8-419.19-208.29a553.37,553.37,0,0,1-51.85-77.86c-66.39-89.71-106-208.08-106-316.83V483c0-72.55,16.85-149.9,47.49-218.15v-1.15c0-322,262-584,584-584,16.62,0,34.68.85,52.31,2.44,17.63-1.59,35.69-2.44,52.31-2.44a584.34,584.34,0,0,1,378,139A598,598,0,0,1,696.7-122.4C823.34-24.45,902,135,902,293.9v67c12,45.83,18.61,95.51,18.61,140.08A544.08,544.08,0,0,1,831,800.8c-29.15,62.35-72,121.75-120.78,167.37-100.59,94.1-232.25,145.92-370.73,145.92H327.34l-4.3,0-4.3,0h-5.36c-2.3,0-4.62,0-6.94,0s-4.64,0-6.94,0h-5.45c-4.23,0-8.55,0-12.85-.16-4.33.11-8.7.16-13,.16H256.88c-3.17,0-6.49,0-9.88-.09s-6.72.09-9.89.09h-5l-4.69,0-4.68,0h-4.91l-3.83,0-3.83,0h-5l-3.51,0-3.52,0H195a537.77,537.77,0,0,1-90.12,7.88Z" fill="#00aa4f"/><path d="M99.88,1109.47c-157.18,0-314-78-409.33-203.48a540.41,540.41,0,0,1-51.16-76.93c-65.17-87.73-104-203.58-104-310.07V483c0-71.78,16.85-148.19,47.51-215.49,0-1.29,0-2.57,0-3.81,0-315.11,256.36-571.48,571.48-571.48,16.62,0,34.68.86,52.31,2.49,17.62-1.63,35.68-2.49,52.31-2.49A571.8,571.8,0,0,1,628.87-171.69a586.61,586.61,0,0,1,59.25,58.45C812.34-17.64,889.45,138.24,889.45,293.9v68.65c12,45.27,18.61,94.37,18.61,138.46a531.53,531.53,0,0,1-88,293.68c-28.5,61.24-70.5,119.58-118.36,164.35-98.27,91.92-226.9,142.55-362.2,142.55H327.34l-4.3,0-4.3,0h-5.36c-2.3,0-4.62,0-6.94,0s-4.64,0-6.94,0h-5.45c-4.23,0-8.55,0-12.85-.16-4.33.11-8.7.16-13,.16H256.88c-3.16,0-6.49,0-9.88-.1s-6.73.1-9.89.1h-5l-4.69,0-4.68,0h-4.91l-3.83,0-3.83,0h-5l-3.51,0-3.52,0h-4.21a524.93,524.93,0,0,1-89,7.88Z" fill="#008453"/><path d="M99.88,1097c-153.42,0-306.48-76.12-399.47-198.66a527.42,527.42,0,0,1-50.47-76C-414,736.54-452.16,623.23-452.16,519V483c0-71,16.86-146.48,47.54-212.83,0-2.22-.05-4.38-.05-6.47,0-308.22,250.76-559,559-559,16.63,0,34.69.88,52.31,2.55,17.62-1.67,35.68-2.55,52.31-2.55A559.35,559.35,0,0,1,620.78-162.16a573.18,573.18,0,0,1,58.75,58.09C801.34-10.82,877,141.54,877,293.9v70.29c12,44.7,18.61,93.22,18.61,136.82a519,519,0,0,1-86.48,287.57c-27.85,60.13-69,117.4-116,161.33-96,89.75-221.55,139.18-353.66,139.18H327.34l-4.3,0-4.3,0h-5.36c-2.3,0-4.62,0-6.94,0s-4.64,0-6.94,0h-5.45c-4.21,0-8.53-.06-12.85-.17-4.35.11-8.72.17-13,.17H256.88c-3.18,0-6.51,0-9.88-.1s-6.71.1-9.89.1h-5l-4.69,0-4.68,0h-4.91l-3.83,0-3.83,0h-5l-3.51,0-3.52,0H192.8a512.34,512.34,0,0,1-88,7.88Z" fill="#00aa4f"/><path d="M99.88,1084.47c-149.66,0-298.94-74.27-389.61-193.85a514.48,514.48,0,0,1-49.78-75.08C-402.23,731.76-439.66,621-439.66,519V483c0-70.26,16.88-144.77,47.58-210.16-.06-3.17-.09-6.23-.09-9.14,0-301.33,245.15-546.48,546.48-546.48,16.63,0,34.69.9,52.31,2.6,17.61-1.7,35.67-2.6,52.31-2.6A546.81,546.81,0,0,1,612.68-152.64,560.31,560.31,0,0,1,671-94.9C790.34-4,864.45,144.84,864.45,293.9v72c12,44.13,18.61,92.06,18.61,135.16a506.5,506.5,0,0,1-84.92,281.45c-27.2,59-67.5,115.23-113.56,158.32-93.62,87.58-216.19,135.81-345.12,135.81H327.34l-4.3,0-4.3,0h-5.36c-2.3,0-4.62,0-6.94,0s-4.64,0-6.94,0h-5.45c-4.21,0-8.53-.06-12.85-.17-4.34.11-8.72.17-13,.17H256.88c-3.2,0-6.52,0-9.88-.1s-6.69.1-9.89.1h-5l-4.69,0-4.68,0h-4.91l-3.83,0-3.83,0h-5l-3.51,0-3.52,0h-6.36a499,499,0,0,1-86.89,7.89Z" fill="#008453"/><path d="M99.88,1072c-145.9,0-291.4-72.43-379.76-189A502.63,502.63,0,0,1-329,808.77c-61.5-81.79-98.2-190-98.2-289.78V483c0-69.51,16.9-143.06,47.65-207.49-.11-4.09-.16-8.12-.16-11.81,0-294.43,239.54-534,534-534,16.64,0,34.7.92,52.31,2.66,17.61-1.74,35.66-2.66,52.31-2.66A534.28,534.28,0,0,1,604.59-143.11a546.6,546.6,0,0,1,57.77,57.39C779.34,2.81,852,148.14,852,293.9v73.63c12,43.55,18.61,90.88,18.61,133.48a494,494,0,0,1-83.37,275.34c-26.55,57.94-66,113.06-111.15,155.3-91.3,85.41-210.83,132.44-336.58,132.44H327.34l-4.3,0-4.3,0h-5.36c-2.3,0-4.62,0-6.94,0s-4.64,0-6.94,0h-5.45c-4.23,0-8.55-.06-12.85-.18-4.32.12-8.7.18-13,.18H256.88c-3.21,0-6.54,0-9.88-.1s-6.68.1-9.89.1h-5l-4.69,0-4.68,0h-4.91l-3.83,0-3.83,0h-5l-3.51,0-3.52,0h-3.78l-3.43,0h-.24a486.62,486.62,0,0,1-85.8,7.9Z" fill="#00aa4f"/><path d="M99.88,1059.47c-142.14,0-283.86-70.58-369.9-184.22A489.56,489.56,0,0,1-318.41,802c-60.28-79.8-96.25-185.52-96.25-283V483c0-68.76,16.93-141.36,47.73-204.8-.16-5-.24-10-.24-14.5,0-287.54,233.93-521.48,521.48-521.48,16.64,0,34.7.94,52.31,2.73,17.6-1.79,35.66-2.73,52.31-2.73A521.8,521.8,0,0,1,596.49-133.59a534.4,534.4,0,0,1,57.29,57.05c114.56,86.16,185.67,228,185.67,370.44v75.34c12,43,18.61,89.68,18.61,131.77a481.47,481.47,0,0,1-81.82,269.23c-25.89,56.83-64.48,110.88-108.74,152.28-89,83.23-205.47,129.07-328,129.07H327.34l-4.3,0-4.3,0h-5.36c-2.3,0-4.62,0-6.94,0s-4.64,0-6.94,0h-5.45c-4.22,0-8.54-.06-12.85-.18-4.33.12-8.7.18-13,.18H256.88c-3.23,0-6.55,0-9.88-.11s-6.66.11-9.89.11h-5l-4.69,0-4.68,0h-4.91l-3.83,0-3.83,0h-5l-3.51,0-3.52,0h-3.78l-3.42,0h-1.44a473.11,473.11,0,0,1-84.61,7.89Z" fill="#008453"/><path d="M99.88,1047c-138.38,0-276.32-68.74-360-179.41a475.6,475.6,0,0,1-47.69-72.33c-59.07-77.81-94.31-181-94.31-276.24V483c0-68,17-139.65,47.83-202.11-.23-5.92-.34-11.8-.34-17.19,0-280.65,228.33-509,509-509a517.93,517.93,0,0,1,52.31,2.79,517.62,517.62,0,0,1,52.31-2.79A509.32,509.32,0,0,1,588.4-124.07a521.52,521.52,0,0,1,56.79,56.72C757.34,16.44,827,154.73,827,293.9V371c12,42.36,18.61,88.47,18.61,130.05a469,469,0,0,1-80.27,263.11c-25.24,55.73-63,108.71-106.33,149.28-86.65,81.05-200.12,125.69-319.5,125.69H327.34l-4.3,0-4.3,0h-5.36c-2.3,0-4.62,0-6.94,0s-4.64,0-6.94,0h-5.45c-4.22,0-8.54-.06-12.85-.19-4.32.13-8.7.19-13,.19H256.88c-3.24,0-6.57,0-9.88-.11s-6.65.11-9.89.11h-5l-4.69,0-4.68,0h-4.91l-3.83,0-3.83,0h-5l-3.51,0-3.52,0h-3.78l-3.42,0-2.62,0a460.89,460.89,0,0,1-83.43,7.88Z" fill="#00aa4f"/><path d="M99.88,1034.47c-134.62,0-268.79-66.9-350.18-174.59a463,463,0,0,1-47-71.42C-355.15,712.64-389.66,612-389.66,519V483c0-67.27,17-137.94,47.94-199.4-.29-6.85-.45-13.67-.45-19.9,0-273.76,222.72-496.48,496.48-496.48a503.87,503.87,0,0,1,52.31,2.86,503.73,503.73,0,0,1,52.31-2.86A496.74,496.74,0,0,1,580.3-114.54a509,509,0,0,1,56.31,56.38C746.34,23.26,814.45,158,814.45,293.9v78.81c12,41.75,18.61,87.24,18.61,128.3a456.41,456.41,0,0,1-78.73,257c-24.58,54.63-61.45,106.53-103.91,146.26-84.33,78.88-194.76,122.32-311,122.32H327.34l-4.3,0-4.3,0h-5.36c-2.3,0-4.63,0-6.94-.06s-4.64.06-6.94.06h-5.45c-4.24,0-8.56-.06-12.85-.19-4.3.13-8.68.19-13,.19H256.88c-3.26,0-6.58,0-9.88-.11s-6.63.11-9.89.11h-5l-4.69,0-4.68,0h-4.91l-3.83,0-3.83,0h-5l-3.51,0-3.52,0h-3.78l-3.42,0-3.43,0h-.36a448.14,448.14,0,0,1-82.26,7.88Z" fill="#008453"/><path d="M99.88,1022C-31,1022-161.36,956.92-240.44,852.19a449.37,449.37,0,0,1-46.3-70.51c-56.64-73.83-90.42-171.94-90.42-262.69V483c0-66.52,17.06-136.23,48.09-196.69-.4-7.76-.6-15.52-.6-22.61,0-266.86,217.11-484,484-484a493.34,493.34,0,0,1,52.31,2.93,493.19,493.19,0,0,1,52.31-2.93A484.31,484.31,0,0,1,572.21-105,496,496,0,0,1,628-49C735.35,30.09,802,161.31,802,293.9v80.58c12,41.14,18.61,86,18.61,126.53a443.85,443.85,0,0,1-77.18,250.88c-23.92,53.53-59.94,104.37-101.5,143.25-82,76.71-189.4,119-302.42,119H327.34l-4.3,0-4.3,0h-5.36c-2.3,0-4.63,0-6.94-.06s-4.64.06-6.94.06h-5.45c-4.25,0-8.57-.07-12.85-.2-4.32.13-8.69.2-13,.2H256.88c-3.27,0-6.6,0-9.88-.12-3.29.08-6.62.12-9.89.12h-5l-4.69,0-4.68,0h-4.91l-3.83,0-3.83,0h-5l-3.51,0-3.52,0h-3.78l-3.42,0-3.43,0h-1.55a435.29,435.29,0,0,1-81.07,7.88Z" fill="#00aa4f"/><path d="M99.88,1009.47c-127.1,0-253.71-63.2-330.46-165a438.06,438.06,0,0,1-45.61-69.6C-331.6,703.07-364.66,607.49-364.66,519V483c0-65.79,17.12-134.52,48.25-194-.5-8.69-.76-17.39-.76-25.34,0-260,211.5-471.48,471.48-471.48a478.26,478.26,0,0,1,52.31,3,478,478,0,0,1,52.31-3A471.73,471.73,0,0,1,564.11-95.49a484.15,484.15,0,0,1,55.33,55.73c104.9,76.67,170,204.37,170,333.66v82.38c12,40.52,18.61,84.74,18.61,124.73a431.4,431.4,0,0,1-75.64,244.77C709.16,798.2,674,848,633.34,886c-79.68,74.53-184,115.58-293.88,115.58H327.34l-4.3,0-4.3,0h-5.36c-2.3,0-4.63,0-6.94-.06s-4.64.06-6.94.06h-5.45c-4.24,0-8.56-.07-12.85-.2-4.33.13-8.71.2-13,.2H256.88c-3.28,0-6.6,0-9.88-.12-3.29.08-6.61.12-9.89.12h-5l-4.69,0-4.68,0h-4.91l-3.83,0-3.83,0h-5l-3.51,0-3.52,0h-3.78l-3.42,0-3.43,0h-2.74a422.62,422.62,0,0,1-79.88,7.88Z" fill="#008453"/><path d="M99.88,997c-123.34,0-246.17-61.35-320.6-160.15a424.84,424.84,0,0,1-44.91-68.69c-54.2-69.84-86.53-162.89-86.53-249.14V483c0-65,17.18-132.8,48.44-191.21-.62-9.63-.95-19.27-.95-28.09,0-253.08,205.9-459,459-459a466.31,466.31,0,0,1,52.31,3.09,466.17,466.17,0,0,1,52.31-3.09A459.19,459.19,0,0,1,556-86a471.17,471.17,0,0,1,54.84,55.42C713.34,43.74,777,167.9,777,293.9v84.21C789,418,795.56,461.56,795.56,501a418.87,418.87,0,0,1-74.11,238.65c-22.59,51.32-56.88,100-96.65,137.22-77.35,72.36-178.69,112.21-285.34,112.21H327.34l-4.3,0-4.3,0h-5.36c-2.3,0-4.63,0-6.94-.06s-4.64.06-6.94.06h-5.45c-4.25,0-8.57-.07-12.84-.21-4.33.14-8.71.21-13,.21H256.88c-3.27,0-6.6,0-9.88-.12-3.3.08-6.62.12-9.89.12h-5l-4.69,0-4.68,0h-4.91l-3.83,0-3.83,0h-5l-3.51,0-3.52,0h-3.78l-3.42,0-3.43,0h-4A409.86,409.86,0,0,1,104.84,997Z" fill="#00aa4f"/><path d="M99.88,984.47c-119.58,0-238.63-59.51-310.74-155.34a411.3,411.3,0,0,1-44.21-67.79C-308.06,693.5-339.66,603-339.66,519V483c0-64.32,17.26-131.08,48.66-188.45-.77-10.56-1.17-21.15-1.17-30.85,0-246.19,200.29-446.48,446.48-446.48a455.06,455.06,0,0,1,52.31,3.17,454.79,454.79,0,0,1,52.31-3.17,446.72,446.72,0,0,1,289,106.31,458.56,458.56,0,0,1,54.35,55.11C702.34,50.56,764.45,171.19,764.45,293.9V380c12,39.24,18.61,82.15,18.61,121.05a406.4,406.4,0,0,1-72.57,232.53c-21.93,50.23-55.36,97.85-94.23,134.21-75,70.19-173.33,108.84-276.8,108.84H327.34l-4.3,0-4.3,0h-5.36c-2.3,0-4.63,0-6.94-.06s-4.64.06-6.94.06h-5.45c-4.25,0-8.56-.07-12.84-.21-4.33.14-8.71.21-13,.21H256.88c-3.28,0-6.61,0-9.88-.13-3.29.09-6.61.13-9.89.13h-5l-4.69,0-4.68,0h-4.91l-3.83,0-3.83,0h-5l-3.51,0-3.52,0h-3.78l-3.42,0-3.43,0H182.3a396.54,396.54,0,0,1-77.46,7.89Z" fill="#008453"/><path d="M99.88,972C-15.94,972-131.21,914.3-201,821.45a397.79,397.79,0,0,1-43.5-66.89c-51.78-65.84-82.66-153.81-82.66-235.57V483c0-63.59,17.35-129.36,48.91-185.68-.93-11.49-1.42-23-1.42-33.62,0-239.29,194.68-434,434-434A442.14,442.14,0,0,1,206.62-167a441.88,441.88,0,0,1,52.31-3.26A434.2,434.2,0,0,1,539.82-66.92,445.07,445.07,0,0,1,593.68-12.1C691.35,57.4,752,174.48,752,293.9v88c12,38.58,18.61,80.82,18.61,119.16a393.86,393.86,0,0,1-71,226.41c-21.26,49.13-53.83,95.68-91.8,131.21-72.7,68-168,105.46-268.26,105.46H327.34l-4.3,0-4.3,0h-5.36c-2.27,0-4.6,0-6.94-.07s-4.68.07-6.94.07h-5.45c-4.23,0-8.55-.07-12.84-.22-4.34.15-8.72.22-13,.22H256.88c-3.28,0-6.6,0-9.88-.13-3.29.09-6.61.13-9.89.13h-5l-4.69,0-4.68,0h-4.91l-3.83,0-3.83,0h-5l-3.51,0-3.52,0h-3.78l-3.42,0-3.43,0h-2.25l-4.11,0a384.4,384.4,0,0,1-76.26,7.9Z" fill="#00aa4f"/><path d="M99.88,959.47c-112.07,0-223.56-55.83-291-145.71a385.22,385.22,0,0,1-42.8-66C-284.5,683.94-314.66,598.51-314.66,519V483c0-62.86,17.44-127.64,49.2-182.88-1.12-12.42-1.71-24.93-1.71-36.42,0-232.4,189.07-421.48,421.48-421.48a428,428,0,0,1,52.31,3.36,427.72,427.72,0,0,1,52.31-3.36A421.67,421.67,0,0,1,531.73-57.39,432.56,432.56,0,0,1,585.09-2.87C680.35,64.24,739.45,177.78,739.45,293.9v89.86c12,37.92,18.61,79.48,18.61,117.25a381.34,381.34,0,0,1-69.52,220.3c-20.58,48-52.28,93.5-89.36,128.19C528.8,915.33,436.57,951.59,339.46,951.59H327.34l-4.3,0-4.3,0h-5.36c-2.25,0-4.59,0-6.94-.07s-4.69.07-6.94.07h-5.45c-4.23,0-8.55-.08-12.84-.23-4.34.15-8.71.23-13,.23H256.88c-3.29,0-6.61-.05-9.88-.14-3.28.09-6.6.14-9.89.14h-5l-4.69,0-4.68,0h-4.91l-3.83,0-3.83,0h-5l-3.51,0-3.52,0h-3.78l-3.42,0-3.43,0h-2.25c-1.72,0-3.5,0-5.31,0a371,371,0,0,1-75.06,7.92Z" fill="#008453"/><path d="M99.88,947c-108.31,0-216-54-281.16-140.9A372,372,0,0,1-223.37,741c-49.36-61.82-78.79-144.69-78.79-222V483c0-62.14,17.56-125.91,49.52-180.06-1.33-13.36-2-26.84-2-39.24,0-225.51,183.47-409,409-409a416.56,416.56,0,0,1,52.31,3.46,416.32,416.32,0,0,1,52.31-3.46,409.17,409.17,0,0,1,264.7,97.38A420.18,420.18,0,0,1,576.51,6.38C669.34,71.08,727,181.07,727,293.9v91.81c12,37.24,18.61,78.1,18.61,115.3a368.89,368.89,0,0,1-68,214.18c-19.91,46.92-50.74,91.33-86.92,125.18-68,63.66-157.26,98.72-251.18,98.72H327.34l-4.3,0-4.3,0h-5.36c-2.26,0-4.59,0-6.94-.07s-4.68.07-6.94.07h-5.45c-4.24,0-8.55-.08-12.84-.24-4.33.16-8.71.24-13,.24H256.88c-3.27,0-6.6-.05-9.88-.14-3.29.09-6.62.14-9.89.14h-5l-4.69,0-4.68,0h-4.91l-3.83,0-3.83,0h-5l-3.51,0-3.52,0h-3.78l-3.42,0-3.43,0h-2.25c-2.1,0-4.29,0-6.52-.06A358.4,358.4,0,0,1,104.84,947Z" fill="#00aa4f"/><path d="M99.88,934.47c-104.55,0-208.48-52.13-271.3-136.09a358.7,358.7,0,0,1-41.38-64.21C-260.95,674.37-289.66,594-289.66,519V483c0-61.43,17.69-124.18,49.89-177.22a391.87,391.87,0,0,1-2.4-42.08c0-218.62,177.86-396.48,396.48-396.48a404,404,0,0,1,52.31,3.56,403.73,403.73,0,0,1,52.31-3.56,396.69,396.69,0,0,1,256.61,94.4,407.52,407.52,0,0,1,52.38,54C658.34,77.92,714.45,184.36,714.45,293.9v93.8c12,36.54,18.61,76.7,18.61,113.31a356.39,356.39,0,0,1-66.48,208.06c-19.23,45.82-49.19,89.16-84.48,122.17-65.73,61.49-151.9,95.35-242.64,95.35H327.34l-4.3,0-4.3,0h-5.36c-2.28,0-4.61,0-6.94-.07s-4.66.07-6.94.07h-5.45c-4.24,0-8.56-.08-12.83-.25-4.33.17-8.71.25-13,.25H256.88c-3.27,0-6.6-.05-9.88-.15-3.29.1-6.62.15-9.89.15h-5l-4.69,0-4.68,0h-4.91l-3.83,0-3.83,0h-5l-3.51,0-3.52,0h-3.78l-3.42,0-3.43,0h-2.25c-2.13,0-4.35,0-6.6-.07l-1.35,0a346,346,0,0,1-72.42,7.92Z" fill="#008453"/><path d="M99.88,922C-.91,922-101.07,871.67-161.56,790.7a346,346,0,0,1-40.67-63.33C-249.17,669.58-277.16,591.8-277.16,519V483c0-60.72,17.83-122.44,50.3-174.35a381.33,381.33,0,0,1-2.81-44.95c0-211.72,172.25-384,384-384a390.31,390.31,0,0,1,52.31,3.68,390.31,390.31,0,0,1,52.31-3.68A384.13,384.13,0,0,1,507.44-28.82,394,394,0,0,1,559.32,24.9C647.35,84.78,702,187.66,702,293.9v95.81C714,425.56,720.56,465,720.56,501a344,344,0,0,1-65,201.94c-18.55,44.72-47.64,87-82,119.16-63.4,59.31-146.54,92-234.1,92H327.34l-4.3,0-4.3,0h-5.36c-2.3,0-4.63,0-6.94-.07s-4.64.07-6.94.07h-5.45c-4.24,0-8.56-.09-12.83-.26-4.33.17-8.71.26-13,.26H256.88c-3.27,0-6.59-.05-9.88-.15-3.3.1-6.62.15-9.89.15h-5l-4.69,0-4.68,0h-4.91l-3.83,0-3.83,0h-5l-3.51,0-3.52,0h-3.78l-3.42,0-3.43,0h-2.25c-2.13,0-4.35,0-6.6-.07l-2.79.05a333,333,0,0,1-71,7.9Z" fill="#00aa4f"/><path d="M99.88,909.47C2.84,909.47-93.53,861-151.7,783a332.92,332.92,0,0,1-40-62.45c-45.74-55.76-73-131-73-201.57V483c0-60,18-120.71,50.77-171.44a369.8,369.8,0,0,1-3.28-47.86c0-204.83,166.64-371.48,371.48-371.48a377.75,377.75,0,0,1,52.31,3.8,377.64,377.64,0,0,1,52.31-3.8A371.7,371.7,0,0,1,499.35-19.3a381.9,381.9,0,0,1,51.38,53.48C636.35,91.64,689.45,191,689.45,293.9v97.87c12,35.13,18.61,73.83,18.61,109.24a331.38,331.38,0,0,1-63.47,195.81C626.73,740.44,598.52,781.65,565,813c-61.08,57.14-141.18,88.61-225.56,88.61H327.34l-4.3,0-4.3,0h-5.36c-2.28,0-4.61,0-6.94-.08s-4.66.08-6.94.08h-5.45c-4.23,0-8.54-.09-12.83-.27-4.33.18-8.72.27-13,.27H256.88c-3.27,0-6.59-.05-9.88-.16-3.3.11-6.62.16-9.89.16h-5c-1.55,0-3.11,0-4.69,0s-3.14,0-4.68,0h-4.91l-3.83,0-3.83,0h-5l-3.51,0-3.52,0h-3.78l-3.42,0-3.43,0h-2.25c-2.13,0-4.35,0-6.6-.07l-4.24.06a319.52,319.52,0,0,1-69.53,7.89Z" fill="#008453"/><path d="M99.88,897C6.6,897-86,850.37-141.85,775.32a319.76,319.76,0,0,1-39.22-61.58C-225.61,660-252.16,587.33-252.16,519V483a306,306,0,0,1,51.3-168.51,357.82,357.82,0,0,1-3.81-50.79c0-197.94,161-359,359-359a365.91,365.91,0,0,1,52.31,3.93,365.81,365.81,0,0,1,52.31-3.93A359.12,359.12,0,0,1,491.25-9.77a368.78,368.78,0,0,1,50.89,53.25C625.34,98.5,677,194.25,677,293.9v100c12,34.39,18.61,72.35,18.61,107.14a318.92,318.92,0,0,1-62,189.69c-17.16,42.52-44.5,82.65-77.11,113.16-58.75,55-135.83,85.23-217,85.23H327.34l-4.3,0-4.3,0h-5.36c-2.29,0-4.63,0-6.94-.08s-4.65.08-6.94.08h-5.45c-4.23,0-8.54-.09-12.82-.28-4.34.19-8.73.28-13,.28H256.88c-3.25,0-6.58-.05-9.88-.16-3.32.11-6.64.16-9.89.16h-5c-1.55,0-3.11,0-4.69,0s-3.14,0-4.68,0h-4.91c-1.28,0-2.56,0-3.83,0l-3.83,0h-5l-3.51,0-3.52,0h-3.78l-3.42,0-3.43,0h-2.25c-2.14,0-4.35,0-6.6-.08-1.91,0-3.81.07-5.68.08A307.16,307.16,0,0,1,104.84,897Z" fill="#00aa4f"/><path d="M99.88,884.47c-89.53,0-178.34-44.76-231.87-116.84a307.35,307.35,0,0,1-38.5-60.71c-43.34-51.7-69.17-121.82-69.17-187.93V483a292.79,292.79,0,0,1,51.89-165.54,347.78,347.78,0,0,1-4.4-53.76c0-191,155.43-346.48,346.48-346.48a353.57,353.57,0,0,1,52.31,4.07,353.37,353.37,0,0,1,52.31-4.07A346.63,346.63,0,0,1,483.16-.25a356.21,356.21,0,0,1,50.38,53c80.8,52.58,130.91,144.75,130.91,241.11V396c12,33.64,18.61,70.84,18.61,105a306.42,306.42,0,0,1-60.49,183.56c-16.46,41.43-42.91,80.49-74.63,110.16-56.43,52.79-130.47,81.86-208.48,81.86H327.34l-4.3,0-4.3,0h-5.36c-2.3,0-4.63,0-6.94-.08s-4.64.08-6.94.08h-5.45c-4.22,0-8.53-.1-12.82-.29-4.34.19-8.73.29-13,.29H256.88c-3.25,0-6.58-.06-9.88-.17-3.31.11-6.64.17-9.89.17h-5c-1.55,0-3.11,0-4.69,0s-3.14,0-4.68,0h-4.91c-1.28,0-2.56,0-3.83,0l-3.83,0h-5l-3.51,0-3.52,0h-3.78l-3.42,0-3.43,0h-2.25c-2.14,0-4.36,0-6.6-.08s-4.5.08-6.69.08h-.44a294.2,294.2,0,0,1-66.64,7.88Z" fill="#008453"/><path d="M99.88,872c-85.77,0-170.81-42.91-222-112a293.7,293.7,0,0,1-37.76-59.85C-202,650.43-227.16,582.87-227.16,519V483a279.53,279.53,0,0,1,52.57-162.52,335.49,335.49,0,0,1-5.08-56.78c0-184.15,149.82-334,334-334A341.85,341.85,0,0,1,206.62-66a341.65,341.65,0,0,1,52.31-4.21A334.11,334.11,0,0,1,475.06,9.28a343.3,343.3,0,0,1,49.88,52.83c78.4,50.14,127,138.73,127,231.79V398.2c12,32.87,18.61,69.29,18.61,102.81a294,294,0,0,1-59,177.43c-15.75,40.33-41.32,78.33-72.15,107.16-54.1,50.61-125.11,78.49-199.94,78.49H327.34l-4.3,0-4.3,0h-5.36c-2.3,0-4.63,0-6.94-.09s-4.65.09-6.94.09h-5.45c-4.23,0-8.54-.1-12.81-.3-4.36.2-8.75.3-13.05.3H256.88c-3.27,0-6.59-.06-9.88-.18-3.3.12-6.62.18-9.89.18h-5c-1.55,0-3.11,0-4.69,0s-3.14,0-4.68,0h-4.91c-1.28,0-2.56,0-3.83,0l-3.83,0h-5l-3.51,0-3.52,0h-3.78l-3.42,0-3.43,0h-2.25c-2.14,0-4.35,0-6.59-.08s-4.51.08-6.7.08H170A281.41,281.41,0,0,1,104.84,872Z" fill="#00aa4f"/><path d="M99.88,859.47c-82,0-163.27-41.07-212.14-107.22a281.14,281.14,0,0,1-37-59c-40.95-47.6-65.36-112.6-65.36-174.26V483a266.4,266.4,0,0,1,53.33-159.46,323.9,323.9,0,0,1-5.84-59.84C-167.17,86.47-23-57.75,154.31-57.75a327.46,327.46,0,0,1,52.31,4.38,327.26,327.26,0,0,1,52.31-4.38A321.62,321.62,0,0,1,467,18.8a330.79,330.79,0,0,1,49.37,52.66c76,47.68,123.11,132.68,123.11,222.44V400.44c12,32.09,18.61,67.7,18.61,100.57A281.66,281.66,0,0,1,600.9,671.82c-.13.16-.25.33-.38.5-15,39.22-39.72,76.15-69.66,104.15-51.78,48.44-119.75,75.12-191.4,75.12H327.34c-1.42,0-2.85,0-4.3,0s-2.88,0-4.3,0h-5.36c-2.31,0-4.64,0-6.94-.09s-4.63.09-6.94.09h-5.45c-4.22,0-8.53-.11-12.81-.31-4.36.2-8.75.31-13.05.31H256.88c-3.25,0-6.58-.06-9.88-.19-3.31.13-6.64.19-9.89.19h-5c-1.55,0-3.11,0-4.69,0s-3.14,0-4.68,0h-4.91c-1.28,0-2.56,0-3.83,0l-3.83,0h-5l-3.51,0-3.52,0h-3.78l-3.42,0-3.43,0h-2.25c-2.13,0-4.34,0-6.59-.09s-4.52.09-6.7.09H168.5a268.53,268.53,0,0,1-63.66,7.88Z" fill="#008453"/><path d="M99.88,847c-78.26,0-155.73-39.23-202.28-102.4a268,268,0,0,1-36.29-58.17c-39.78-45.55-63.47-108-63.47-167.41V483A253.15,253.15,0,0,1-148,326.7a312.3,312.3,0,0,1-6.71-63c0-170.37,138.61-309,309-309a315.3,315.3,0,0,1,52.31,4.55,315.11,315.11,0,0,1,52.31-4.55A309.06,309.06,0,0,1,458.87,28.33a317.27,317.27,0,0,1,48.86,52.5C581.33,126,627,207.44,627,293.9V402.73C639,434,645.56,468.81,645.56,501A269.24,269.24,0,0,1,590.91,664.3c-.47.62-.94,1.25-1.43,1.88-14.31,38.13-38.11,74-67.15,101.16-49.46,46.27-114.41,71.75-182.87,71.75H327.34c-1.42,0-2.85,0-4.3,0s-2.88,0-4.3,0h-5.36c-2.3,0-4.63,0-6.94-.1s-4.64.1-6.94.1h-5.45c-4.23,0-8.53-.11-12.8-.33-4.36.22-8.75.33-13.06.33H256.88c-3.27,0-6.59-.07-9.88-.2-3.3.13-6.62.2-9.89.2h-5c-1.54,0-3.11,0-4.69,0s-3.14,0-4.68,0h-4.91c-1.28,0-2.56,0-3.83,0l-3.83,0h-5l-3.51,0-3.52,0h-3.78l-3.42,0-3.43,0h-2.25c-2.14,0-4.35,0-6.59-.09s-4.54.09-6.7.09h-5A255.77,255.77,0,0,1,104.84,847Z" fill="#00aa4f"/><path d="M99.88,834.47c-74.5,0-148.2-37.38-192.42-97.59a255.11,255.11,0,0,1-35.54-57.34c-38.59-43.48-61.58-103.33-61.58-160.55V483a240.27,240.27,0,0,1,55.2-153.15,300.37,300.37,0,0,1-7.71-66.15c0-163.48,133-296.48,296.48-296.48A303,303,0,0,1,206.62-28a302.81,302.81,0,0,1,52.31-4.74,296.63,296.63,0,0,1,191.85,70.6,304.74,304.74,0,0,1,48.34,52.38A238.66,238.66,0,0,1,614.45,293.9V402.36c0,.89,0,1.78,0,2.67,12,30.47,18.62,64.45,18.62,96a256.81,256.81,0,0,1-52.13,155.76c-.81,1.08-1.65,2.17-2.51,3.27-13.58,37-36.48,71.83-64.63,98.17-47.14,44.1-109,68.38-174.33,68.38H327.34c-1.42,0-2.85,0-4.3,0s-2.88,0-4.3,0h-5.36c-2.3,0-4.63,0-6.94-.1s-4.64.1-6.94.1h-5.45c-4.22,0-8.52-.12-12.8-.35-4.37.23-8.76.35-13.06.35H256.88c-3.27,0-6.59-.07-9.88-.21-3.3.14-6.62.21-9.89.21h-5c-1.54,0-3.11,0-4.68-.05s-3.15.05-4.69.05h-4.91c-1.28,0-2.56,0-3.83,0l-3.83,0h-5q-1.76,0-3.51,0l-3.52,0h-3.78l-3.42,0-3.43,0h-2.25c-2.13,0-4.35,0-6.59-.09s-4.54.09-6.7.09h-6.54a243,243,0,0,1-60.54,7.88Z" fill="#008453"/><path d="M99.88,822c-70.75,0-140.67-35.54-182.56-92.78a241.54,241.54,0,0,1-34.77-56.52C-154.87,631.27-177.16,574-177.16,519V483a227.81,227.81,0,0,1,54.62-147.91l1.72-2a288.29,288.29,0,0,1-8.85-69.42c0-156.58,127.39-284,284-284a290.64,290.64,0,0,1,52.31,4.94,290.47,290.47,0,0,1,52.31-4.94A284.08,284.08,0,0,1,442.68,47.37,291.53,291.53,0,0,1,490.5,99.65l1.85,1.1A226.06,226.06,0,0,1,602,293.9V402.36c0,1.64,0,3.31-.06,5,12.05,29.65,18.67,62.8,18.67,93.67A244.45,244.45,0,0,1,571,649.25c-1.17,1.55-2.37,3.11-3.6,4.65-12.83,35.94-34.83,69.67-62.1,95.19-44.82,41.91-103.69,65-165.79,65H327.34c-1.42,0-2.85,0-4.3,0s-2.88,0-4.3,0h-5.36c-2.3,0-4.64,0-6.94-.11s-4.64.11-6.94.11h-5.45c-4.22,0-8.52-.12-12.79-.37-4.37.25-8.76.37-13.07.37H256.88c-3.27,0-6.59-.07-9.88-.22-3.3.15-6.62.22-9.89.22h-5c-1.54,0-3.11,0-4.68-.05s-3.15.05-4.69.05h-4.91c-1.28,0-2.56,0-3.83,0l-3.83,0h-5q-1.76,0-3.51,0l-3.52,0h-3.78q-1.71,0-3.42,0l-3.43,0h-2.25c-2.14,0-4.35,0-6.59-.1s-4.53.1-6.7.1h-8.17A230.11,230.11,0,0,1,104.84,822Z" fill="#00aa4f"/><path d="M99.88,809.47c-67,0-133.13-33.7-172.69-88a228.61,228.61,0,0,1-34-55.72c-36.26-39.3-57.85-94-57.85-146.79V483A215.25,215.25,0,0,1-113,343.25q2.91-3.4,6-6.74a276.33,276.33,0,0,1-10.16-72.78C-117.17,114,4.61-7.75,154.31-7.75a277.65,277.65,0,0,1,52.31,5.17,277.49,277.49,0,0,1,52.31-5.17A271.5,271.5,0,0,1,434.58,56.9a278.37,278.37,0,0,1,47.3,52.21c1.37.78,2.74,1.57,4.07,2.37A213.53,213.53,0,0,1,589.45,293.9V402.36c0,2.41,0,4.85-.13,7.29,12.1,28.82,18.74,61.14,18.74,91.36A232,232,0,0,1,561,641.72c-1.51,2-3.09,4-4.7,6C544.19,682.6,523.1,715.27,496.71,740c-42.49,39.74-98.33,61.63-157.25,61.63H327.34c-1.41,0-2.85,0-4.3,0s-2.88,0-4.3,0h-5.36c-2.29,0-4.63,0-6.94-.11s-4.65.11-6.94.11h-5.45c-4.22,0-8.52-.13-12.78-.39-4.37.26-8.76.39-13.08.39H256.88c-3.26,0-6.59-.08-9.88-.23-3.3.15-6.63.23-9.89.23h-5c-1.54,0-3.11,0-4.68-.05s-3.15.05-4.69.05h-4.91c-1.28,0-2.56,0-3.83,0l-3.83,0h-5q-1.76,0-3.51,0l-3.52,0h-3.78q-1.71,0-3.42,0l-3.43,0h-2.25c-2.14,0-4.36,0-6.58-.1s-4.53.1-6.71.1h-9.84a217.39,217.39,0,0,1-57.24,7.88Z" fill="#008453"/><path d="M99.88,797c-63.25,0-125.6-31.85-162.83-83.16a215.67,215.67,0,0,1-33.21-54.93c-35.11-37.2-56-89.3-56-139.89V483a202.78,202.78,0,0,1,48.62-131.66c3.32-3.87,6.85-7.68,10.56-11.39a264.24,264.24,0,0,1-11.69-76.25c0-142.8,116.18-259,259-259a264.33,264.33,0,0,1,52.31,5.42,264.17,264.17,0,0,1,52.31-5.42A259.09,259.09,0,0,1,426.49,66.42a265.86,265.86,0,0,1,46.75,52.18c2.13,1.17,4.24,2.38,6.29,3.61A201,201,0,0,1,577,293.9V402.36c0,3.17-.08,6.39-.23,9.6,12.16,28,18.84,59.48,18.84,89.05A219.6,219.6,0,0,1,551,634.2c-1.87,2.47-3.82,4.95-5.83,7.39-11.31,33.76-31.48,65.37-57,89.24-40.17,37.57-93,58.26-148.71,58.26H327.34c-1.41,0-2.85,0-4.3-.05s-2.88.05-4.3.05h-5.36c-2.3,0-4.64,0-6.94-.12-2.31.08-4.64.12-6.94.12h-5.45c-4.22,0-8.52-.14-12.77-.41-4.37.27-8.77.41-13.09.41H256.88c-3.26,0-6.59-.08-9.88-.24-3.3.16-6.63.24-9.89.24h-5c-1.54,0-3.11,0-4.68-.05s-3.15.05-4.69.05h-4.91c-1.28,0-2.56,0-3.83,0s-2.56,0-3.83,0h-5q-1.76,0-3.51,0l-3.52,0h-3.78q-1.71,0-3.42,0l-3.43,0h-2.25c-2.15,0-4.36,0-6.58-.11s-4.52.11-6.71.11H160.35A204.49,204.49,0,0,1,104.84,797Z" fill="#00aa4f"/><path d="M99.88,784.47c-59.5,0-118.06-30-153-78.35A202.37,202.37,0,0,1-85.49,652c-34-35.07-54.17-84.57-54.17-133V483a189.27,189.27,0,0,1,61-139.44,255.12,255.12,0,0,1-13.47-79.86c0-135.91,110.57-246.48,246.48-246.48a252.13,252.13,0,0,1,52.31,5.69,252.06,252.06,0,0,1,52.31-5.69A246.51,246.51,0,0,1,418.39,76a252.47,252.47,0,0,1,46.2,52.19c2.9,1.54,5.76,3.14,8.53,4.8a188.4,188.4,0,0,1,91.33,161V402.36c0,3.94-.13,7.93-.38,11.91a214.88,214.88,0,0,1,19,86.74A207.18,207.18,0,0,1,541,626.68c-2.21,2.94-4.55,5.87-7,8.75a206.24,206.24,0,0,1-54.4,86.27c-37.84,35.4-87.62,54.89-140.17,54.89H327.34c-1.41,0-2.85,0-4.3-.05s-2.88.05-4.3.05h-5.36c-2.29,0-4.62,0-6.94-.13-2.32.09-4.65.13-6.94.13h-5.45c-4.22,0-8.51-.15-12.76-.44-4.37.29-8.77.44-13.1.44H256.88c-3.27,0-6.59-.09-9.89-.26-3.29.17-6.61.26-9.88.26h-5c-1.54,0-3.11,0-4.68-.06s-3.15.06-4.69.06h-4.91c-1.28,0-2.56,0-3.83,0s-2.56,0-3.83,0h-5q-1.76,0-3.51,0l-3.52,0h-3.78q-1.71,0-3.42,0l-3.43,0h-2.25c-2.14,0-4.35,0-6.58-.12-2.27.08-4.53.12-6.71.12h-13.3a191.71,191.71,0,0,1-53.78,7.89Z" fill="#008453"/><path d="M99.88,772c-55.75,0-110.53-28.16-143.1-73.54A189.47,189.47,0,0,1-74.79,645c-32.84-32.92-52.37-79.81-52.37-126V483A177.76,177.76,0,0,1-84.54,367.62a180.68,180.68,0,0,1,20.46-20.27,241.83,241.83,0,0,1-15.59-83.62c0-129,105-234,234-234a239.17,239.17,0,0,1,52.31,6,239,239,0,0,1,52.31-6A234,234,0,0,1,410.3,85.47a239.57,239.57,0,0,1,45.63,52.26c3.67,1.86,7.29,3.85,10.78,5.94A175.84,175.84,0,0,1,552,293.9V402.36c0,4.72-.19,9.48-.58,14.23A201.56,201.56,0,0,1,570.56,501,194.75,194.75,0,0,1,531,619.15c-2.57,3.42-5.31,6.81-8.15,10.1a193.24,193.24,0,0,1-51.78,83.32c-35.52,33.22-82.26,51.52-131.63,51.52H327.34c-1.41,0-2.85,0-4.3-.05s-2.88.05-4.3.05h-5.36c-2.28,0-4.62-.05-6.94-.14-2.33.09-4.66.14-6.94.14h-5.45c-4.22,0-8.5-.16-12.75-.47-4.36.31-8.77.47-13.11.47H256.88c-3.27,0-6.59-.09-9.89-.28-3.29.19-6.61.28-9.88.28h-5c-1.54,0-3.11,0-4.68-.06s-3.15.06-4.69.06h-4.91c-1.28,0-2.56,0-3.83,0s-2.56,0-3.83,0h-5c-1.17,0-2.34,0-3.51,0s-2.35,0-3.52,0h-3.78q-1.71,0-3.42,0l-3.43,0h-2.25c-2.15,0-4.36,0-6.57-.12-2.27.08-4.53.12-6.72.12H161c-1.27,0-2.56,0-3.83,0h-.3a178.63,178.63,0,0,1-52,7.92Z" fill="#00aa4f"/><path d="M99.88,759.47c-52,0-103-26.32-133.23-68.73A176.51,176.51,0,0,1-64.07,638c-31.73-30.75-50.59-75-50.59-119V483A165.2,165.2,0,0,1-75,375.74,168.31,168.31,0,0,1-50,352v-3a229,229,0,0,1-17.17-85.27c0-122.12,99.35-221.48,221.48-221.48a226.39,226.39,0,0,1,52.31,6.33,226.26,226.26,0,0,1,52.31-6.33A221.42,221.42,0,0,1,402.2,95a226.37,226.37,0,0,1,45.05,52.39c4.46,2.14,8.83,4.49,13.05,7a163.29,163.29,0,0,1,79.15,139.5V402.36a163.58,163.58,0,0,1-.84,16.54A188.34,188.34,0,0,1,558.06,501a182.37,182.37,0,0,1-37,110.62c-2.94,3.9-6.09,7.74-9.37,11.44a180.08,180.08,0,0,1-49.12,80.37c-33.19,31-76.91,48.15-123.09,48.15H327.34c-1.41,0-2.85,0-4.3-.06s-2.89.06-4.3.06h-5.36c-2.29,0-4.62-.05-6.94-.15-2.32.1-4.65.15-6.94.15h-5.45c-4.21,0-8.49-.17-12.73-.5-4.37.33-8.79.5-13.13.5H256.88c-3.26,0-6.58-.1-9.89-.3-3.3.2-6.62.3-9.88.3h-5c-1.53,0-3.11,0-4.68-.07s-3.16.07-4.69.07h-4.91c-1.28,0-2.56,0-3.83,0s-2.56,0-3.83,0h-5c-1.17,0-2.34,0-3.51,0s-2.35,0-3.52,0h-3.78c-1.14,0-2.28,0-3.42,0s-2.29,0-3.43,0h-2.25c-2.15,0-4.36,0-6.57-.13-2.26.09-4.52.13-6.72.13H161c-1.27,0-2.56,0-3.83,0l-2.31,0a165.78,165.78,0,0,1-50,7.89Z" fill="#008453"/><path d="M99.88,747C51.63,747,4.42,722.5-23.48,683.06A163.57,163.57,0,0,1-53.31,631c-30.65-28.55-48.85-70.16-48.85-112V483a152.7,152.7,0,0,1,36.63-99.16,155.48,155.48,0,0,1,28-25.53V346.49a215.89,215.89,0,0,1-17.17-82.76c0-115.23,93.75-209,209-209a213.48,213.48,0,0,1,52.31,6.71,213.35,213.35,0,0,1,52.31-6.71,209,209,0,0,1,135.18,49.77,213.33,213.33,0,0,1,44.43,52.6A150,150,0,0,1,527,293.9V402.36a152.56,152.56,0,0,1-1.18,18.86A175.1,175.1,0,0,1,545.56,501a170,170,0,0,1-34.5,103.09c-3.31,4.39-6.88,8.67-10.63,12.76A167.07,167.07,0,0,1,454,694.31c-30.87,28.88-71.55,44.78-114.55,44.78H327.34c-1.41,0-2.86,0-4.3-.06s-2.89.06-4.3.06h-5.36c-2.29,0-4.62-.05-6.94-.16-2.32.11-4.65.16-6.94.16h-5.45c-4.21,0-8.48-.18-12.72-.54-4.37.36-8.79.54-13.14.54H256.88c-3.26,0-6.59-.11-9.89-.33-3.29.22-6.62.33-9.88.33h-5c-1.53,0-3.1,0-4.68-.07s-3.17.07-4.69.07h-4.91c-1.28,0-2.57,0-3.83-.05s-2.56.05-3.83.05h-5c-1.17,0-2.34,0-3.51,0s-2.35,0-3.52,0h-3.78c-1.13,0-2.28,0-3.42,0s-2.29,0-3.43,0h-2.25c-2.16,0-4.36-.05-6.56-.14-2.26.09-4.52.14-6.73.14H161c-1.27,0-2.56,0-3.83-.05s-2.56.05-3.83.05h-.49a153.12,153.12,0,0,1-48,7.88Z" fill="#00aa4f"/><path d="M99.88,734.47c-44.5,0-87.92-22.63-113.48-59.1a150.54,150.54,0,0,1-28.9-51.43A141.94,141.94,0,0,1-89.66,519V483A140.17,140.17,0,0,1-56,392a142.37,142.37,0,0,1,31-27V343.89a202.44,202.44,0,0,1-17.17-80.16C-42.17,155.39,46,67.25,154.31,67.25a200.2,200.2,0,0,1,52.31,7.15,200.14,200.14,0,0,1,52.31-7.15A196.43,196.43,0,0,1,386,114.05,200,200,0,0,1,429.81,167,137.5,137.5,0,0,1,514.45,293.9V402.36a138.9,138.9,0,0,1-1.63,21.18A161.66,161.66,0,0,1,533.06,501a158.59,158.59,0,0,1-43.93,109.63,154,154,0,0,1-43.66,74.55c-28.54,26.7-66.19,41.4-106,41.4H327.34c-1.41,0-2.85,0-4.3-.07s-2.89.07-4.3.07h-5.36c-2.3,0-4.63-.06-6.94-.17-2.31.11-4.64.17-6.94.17h-5.45c-4.2,0-8.47-.2-12.7-.59-4.38.39-8.8.59-13.16.59H256.88c-3.27,0-6.59-.12-9.89-.35-3.29.23-6.61.35-9.88.35h-5c-1.54,0-3.11,0-4.68-.08s-3.16.08-4.69.08h-4.91c-1.28,0-2.57,0-3.83-.05s-2.56.05-3.83.05h-5c-1.17,0-2.34,0-3.51,0s-2.35,0-3.52,0h-3.78c-1.13,0-2.28,0-3.42,0s-2.29,0-3.43,0h-2.25c-2.16,0-4.36-.05-6.55-.16-2.26.11-4.53.16-6.74.16H161c-1.27,0-2.56,0-3.83-.05s-2.55.05-3.83.05h-2.57a140.26,140.26,0,0,1-45.9,7.88Z" fill="#008453"/><path d="M99.88,722c-40.76,0-80.39-20.78-103.61-54.29a137.78,137.78,0,0,1-27.9-50.87A128.65,128.65,0,0,1-77.16,519V483a127.65,127.65,0,0,1,30.63-82.92,129.1,129.1,0,0,1,34-28.1v-30.8a189.29,189.29,0,0,1-17.17-77.48c0-101.44,82.53-184,184-184a187.42,187.42,0,0,1,52.31,7.64,187.32,187.32,0,0,1,52.31-7.64,184,184,0,0,1,119,43.82,187.18,187.18,0,0,1,43.13,53.35,125.12,125.12,0,0,1,80.9,117V402.36a124.74,124.74,0,0,1-2.22,23.5A148.36,148.36,0,0,1,520.56,501a145.17,145.17,0,0,1-29.47,88,146.74,146.74,0,0,1-13.32,15.33,140.23,140.23,0,0,1-138.31,109.7H327.34c-1.42,0-2.86,0-4.3-.07s-2.88.07-4.3.07h-5.36c-2.3,0-4.63-.06-6.94-.19-2.31.13-4.64.19-6.94.19h-5.45c-4.2,0-8.46-.22-12.68-.64-4.38.42-8.81.64-13.18.64H256.88c-3.27,0-6.59-.13-9.89-.39-3.29.26-6.61.39-9.88.39h-5c-1.53,0-3.1,0-4.68-.09s-3.16.09-4.69.09h-4.91c-1.28,0-2.57,0-3.83-.06s-2.55.06-3.83.06h-5c-1.17,0-2.35,0-3.52-.05s-2.34.05-3.51.05h-3.78c-1.13,0-2.28,0-3.42-.05s-2.29.05-3.43.05h-2.25c-2.16,0-4.36-.06-6.54-.17-2.26.11-4.53.17-6.75.17H161c-1.27,0-2.56,0-3.83-.06s-2.55.06-3.83.06h-4.75A127.43,127.43,0,0,1,104.84,722Z" fill="#00aa4f"/><path d="M99.88,709.47A114.88,114.88,0,0,1,6.15,660a124.91,124.91,0,0,1-26.83-50.38,115.41,115.41,0,0,1-44-90.62V483A115.2,115.2,0,0,1-37,408.23,116,116,0,0,1,0,379.52v-41.1a176.07,176.07,0,0,1-17.17-74.69c0-94.55,76.92-171.48,171.48-171.48a174.22,174.22,0,0,1,52.31,8.21,174.17,174.17,0,0,1,52.31-8.21,171.47,171.47,0,0,1,110.89,40.84,174,174,0,0,1,42.42,54A112.59,112.59,0,0,1,489.45,293.9V402.36a112.09,112.09,0,0,1-3,25.82A135,135,0,0,1,508.06,501a132.73,132.73,0,0,1-26.95,80.52,134.3,134.3,0,0,1-14.79,16.57,128,128,0,0,1-37.93,68.83c-23.89,22.35-55.47,34.66-88.93,34.66H327.34c-1.41,0-2.86,0-4.3-.08s-2.89.08-4.3.08h-5.36c-2.3,0-4.63-.07-6.94-.21-2.31.14-4.64.21-6.94.21h-5.45a114.12,114.12,0,0,1-12.65-.71,124.39,124.39,0,0,1-13.21.71H256.88c-3.27,0-6.59-.15-9.89-.43-3.29.28-6.61.43-9.88.43h-5c-1.53,0-3.1,0-4.68-.1s-3.16.1-4.69.1h-4.91c-1.27,0-2.56,0-3.83-.07s-2.56.07-3.83.07h-5c-1.17,0-2.35,0-3.52-.05s-2.34.05-3.51.05h-3.78c-1.13,0-2.28,0-3.42-.05s-2.29.05-3.43.05h-2.25c-2.16,0-4.35-.06-6.53-.19-2.26.13-4.53.19-6.76.19H161c-1.26,0-2.55,0-3.83-.07s-2.57.07-3.83.07H148.4l-2.09,0a114.43,114.43,0,0,1-41.47,7.9Z" fill="#008453"/><path d="M99.88,697A102,102,0,0,1,16,652.3a112,112,0,0,1-25.64-50A102.18,102.18,0,0,1-52.16,519V483A102.86,102.86,0,0,1,12.5,387.64V335.53a163,163,0,0,1-17.17-71.8c0-87.66,71.32-159,159-159a161.45,161.45,0,0,1,52.31,8.88,161.41,161.41,0,0,1,52.31-8.88,158.89,158.89,0,0,1,102.79,37.87,160.54,160.54,0,0,1,41.65,54.82A100,100,0,0,1,477,293.9V402.36a99.3,99.3,0,0,1-4,28.14A121.66,121.66,0,0,1,495.56,501a121.21,121.21,0,0,1-40.82,90.74,114.9,114.9,0,0,1-34.89,66,117.06,117.06,0,0,1-80.39,31.29H327.34c-1.42,0-2.86,0-4.3-.09s-2.88.09-4.3.09h-5.36c-2.3,0-4.63-.08-6.94-.24-2.31.16-4.64.24-6.94.24h-5.45a100.75,100.75,0,0,1-12.62-.8,110.7,110.7,0,0,1-13.24.8H256.88c-3.27,0-6.59-.16-9.89-.49-3.29.33-6.61.49-9.88.49h-5c-1.54,0-3.11,0-4.68-.11s-3.15.11-4.69.11h-4.91c-1.27,0-2.56,0-3.83-.07s-2.57.07-3.83.07h-5c-1.16,0-2.34,0-3.52-.06s-2.34.06-3.51.06h-3.78c-1.13,0-2.28,0-3.42-.06s-2.29.06-3.43.06h-2.25c-2.16,0-4.35-.07-6.52-.21-2.26.14-4.53.21-6.77.21H161c-1.26,0-2.54,0-3.83-.07s-2.57.07-3.83.07H148.4c-1.44,0-2.89,0-4.34-.09a101.83,101.83,0,0,1-39.22,8Z" fill="#00aa4f"/><path d="M99.88,684.47a89.22,89.22,0,0,1-73.94-39.86,100.35,100.35,0,0,1-24.3-49.78A90.1,90.1,0,0,1-39.66,519V483A90.34,90.34,0,0,1,25,396.52v-64A149.7,149.7,0,0,1,7.83,263.73c0-80.77,65.71-146.48,146.48-146.48a148.19,148.19,0,0,1,52.31,9.68,148.15,148.15,0,0,1,52.31-9.68,147,147,0,0,1,135.48,90.9,87,87,0,0,1,27.42,10.63,87.92,87.92,0,0,1,42.62,75.12V402.36A86.54,86.54,0,0,1,459,432.8a108.77,108.77,0,0,1-16,152.54,102.06,102.06,0,0,1-31.69,63.33,104.62,104.62,0,0,1-71.85,27.92H327.34c-1.42,0-2.86,0-4.3-.1s-2.88.1-4.3.1h-5.36c-2.3,0-4.63-.09-6.94-.27-2.31.18-4.64.27-6.94.27h-5.45a88.39,88.39,0,0,1-12.58-.9,98.32,98.32,0,0,1-13.28.9H256.88A91.19,91.19,0,0,1,247,676a90.87,90.87,0,0,1-9.88.55h-5c-1.54,0-3.11,0-4.68-.12-1.57.08-3.15.12-4.69.12h-4.91c-1.27,0-2.56,0-3.83-.08s-2.56.08-3.83.08h-5c-1.16,0-2.34,0-3.52-.07s-2.35.07-3.51.07h-3.78c-1.13,0-2.28,0-3.42-.07s-2.3.07-3.43.07h-2.25c-2.15,0-4.33-.08-6.5-.24-2.27.16-4.55.24-6.79.24H161c-1.27,0-2.55,0-3.83-.08s-2.56.08-3.83.08H148.4c-1.91,0-3.84-.06-5.77-.19l-1.3.15a88.94,88.94,0,0,1-36.49,7.92Z" fill="#008453"/><path d="M99.88,672a76.38,76.38,0,0,1-64-35.05,88,88,0,0,1-22.71-49.79A77.48,77.48,0,0,1-27.16,519V483A77.83,77.83,0,0,1,37.65,406.4h0c-.1-1.88-.15-3.67-.15-5.45V329.33a136.53,136.53,0,0,1-17.17-65.6c0-73.87,60.1-134,134-134a135,135,0,0,1,52.31,10.65,134.22,134.22,0,0,1,178.7,79A75,75,0,0,1,452,293.9V402.36a74.48,74.48,0,0,1-7.54,32.72A96.26,96.26,0,0,1,431,578.8c-2.8,48.26-42,85.29-91.56,85.29H327.34c-1.42,0-2.87,0-4.3-.12-1.43.08-2.87.12-4.3.12h-5.36c-2.3,0-4.63-.11-6.94-.32-2.31.21-4.64.32-6.94.32h-5.45a76.39,76.39,0,0,1-12.53-1,86.17,86.17,0,0,1-13.33,1H256.88a76.28,76.28,0,0,1-9.89-.65,76,76,0,0,1-9.88.65h-5c-1.55,0-3.12-.05-4.68-.14-1.57.09-3.14.14-4.69.14h-4.91c-1.27,0-2.55,0-3.83-.1s-2.57.1-3.83.1h-5c-1.16,0-2.34,0-3.52-.08s-2.35.08-3.51.08h-3.78c-1.13,0-2.28,0-3.42-.08s-2.3.08-3.43.08h-2.25c-2.15,0-4.32-.09-6.48-.28-2.27.19-4.56.28-6.81.28H161c-1.26,0-2.55,0-3.83-.1s-2.56.1-3.83.1H148.4c-2,0-4.07-.08-6.1-.25-1.08.15-2.15.27-3.21.37l-1.09.09A76.13,76.13,0,0,1,104.84,672Z" fill="#00aa4f"/><path d="M99.88,659.47a63.53,63.53,0,0,1-54.09-30.24A75.07,75.07,0,0,1,25.1,579a65,65,0,0,1-39.76-60V483a65.28,65.28,0,0,1,65.2-65.2h1.11c-.44-2.26-.8-4.55-1.06-6.85l0-.34c-.15-1.31-.26-2.54-.34-3.84,0-.38-.06-.73-.08-1.08-.09-1.66-.13-3.23-.13-4.78V326a123.41,123.41,0,0,1-17.17-62.27A121.46,121.46,0,0,1,206.62,154.1,121.68,121.68,0,0,1,376,231.4H377a62.48,62.48,0,0,1,62.5,62.5V402.36a62.59,62.59,0,0,1-10.73,35A84.35,84.35,0,0,1,458.06,501a83.17,83.17,0,0,1-16.88,50.43,84.74,84.74,0,0,1-22.51,20.64c0,.4,0,.8,0,1.2,0,43.91-34.8,78.31-79.22,78.31H327.34c-1.43,0-2.87-.05-4.3-.15-1.43.1-2.87.15-4.3.15h-5.36a64.55,64.55,0,0,1-6.94-.38,64.55,64.55,0,0,1-6.94.38h-5.45a63.59,63.59,0,0,1-12.46-1.24,73.18,73.18,0,0,1-13.4,1.24H256.88a63,63,0,0,1-9.89-.78,62.78,62.78,0,0,1-9.88.78h-5c-1.55,0-3.12-.06-4.69-.17-1.56.11-3.13.17-4.68.17h-4.91c-1.27,0-2.55,0-3.83-.12-1.29.08-2.57.12-3.83.12h-5c-1.16,0-2.34,0-3.52-.1s-2.35.1-3.51.1h-3.78c-1.13,0-2.28,0-3.42-.09s-2.3.09-3.43.09h-2.25a63.32,63.32,0,0,1-6.45-.33c-2.27.22-4.57.33-6.84.33H161c-1.27,0-2.56,0-3.83-.12-1.27.08-2.56.12-3.83.12H148.4a63.08,63.08,0,0,1-6.43-.33c-1.34.21-2.7.38-4.06.5l-1.12.1c-.72,0-1.43.1-2.14.13a63.57,63.57,0,0,1-29.81,7.48Z" fill="#008453"/><path d="M99.88,647a50.73,50.73,0,0,1-44.13-25.44,62.2,62.2,0,0,1-18.17-44.24,67.21,67.21,0,0,1,.38-7.12A52.79,52.79,0,0,1-2.16,519V483a52.76,52.76,0,0,1,52.7-52.7h8.22a53.12,53.12,0,0,1,9.75.91l.37-.06A74.67,74.67,0,0,1,63,409.55s0-.3,0-.36c-.12-1.07-.21-2.15-.29-3.3,0-.3,0-.57-.05-.84-.08-1.45-.12-2.79-.12-4.11V322.46a109,109,0,0,1,91.81-167.71,108.94,108.94,0,0,1,52.31,13.38,108.91,108.91,0,0,1,52.31-13.38c53.54,0,98.44,39.14,107.36,90.3A50,50,0,0,1,427,293.9V402.36a50.28,50.28,0,0,1-16.55,37.15,71.33,71.33,0,0,1,20.8,104.4,72.28,72.28,0,0,1-25.54,21.15,66.21,66.21,0,0,1,.52,8.22c0,36.9-29.31,65.81-66.72,65.81H327.34c-1.43,0-2.87-.06-4.3-.18-1.43.12-2.87.18-4.3.18h-5.36a52,52,0,0,1-6.94-.47,52,52,0,0,1-6.94.47h-5.45a50.62,50.62,0,0,1-12.37-1.53,59.56,59.56,0,0,1-13.49,1.53H256.88a51.25,51.25,0,0,1-9.89-1,51.07,51.07,0,0,1-9.88,1h-5c-1.56,0-3.13-.07-4.69-.21-1.56.14-3.13.21-4.68.21h-4.91c-1.27,0-2.56-.05-3.83-.14-1.28.09-2.57.14-3.83.14h-5c-1.17,0-2.35,0-3.52-.12q-1.75.12-3.51.12h-3.78c-1.13,0-2.28,0-3.42-.12-1.15.08-2.29.12-3.43.12h-2.25a50.68,50.68,0,0,1-6.4-.4,59,59,0,0,1-6.89.4H161c-1.27,0-2.55-.05-3.83-.14-1.27.09-2.56.14-3.83.14H148.4a50.61,50.61,0,0,1-6.73-.45c-1.63.3-3.29.52-4.94.68l-.92.08c-1.3.1-2.62.14-3.86.14h-.69A51.34,51.34,0,0,1,104.84,647Z" fill="#00aa4f"/><path d="M99.88,634.47a38.33,38.33,0,0,1-34.1-20.65,49.23,49.23,0,0,1-15.7-36.53,51.13,51.13,0,0,1,3.24-18.1H50.54A40.25,40.25,0,0,1,10.34,519V483a40.25,40.25,0,0,1,40.2-40.2h8.22A39.94,39.94,0,0,1,68.51,444a40.08,40.08,0,0,1,9.76-1.21h8.22a38.93,38.93,0,0,1,5,.31l-.7-.79c-.28-.32-.56-.64-.83-1a62.06,62.06,0,0,1-14.49-33.32l0-.24c-.1-.92-.18-1.84-.25-2.84,0-.24,0-.44,0-.64-.07-1.19-.1-2.3-.1-3.4V318.69a96.49,96.49,0,0,1,131.62-136A96.48,96.48,0,0,1,355.4,262.91l3.79-2a37.49,37.49,0,0,1,55.26,33V402.36a37.5,37.5,0,0,1-55.26,33l-18.11-9.74A62.9,62.9,0,0,1,331.59,441q-1.62,2-3.38,3.81a60,60,0,0,1,14.16,6.52,58.93,58.93,0,1,1,48.89,106,53.43,53.43,0,0,1,2.42,15.9c0,29.89-23.82,53.31-54.22,53.31H327.34a38.42,38.42,0,0,1-4.29-.24,38.78,38.78,0,0,1-4.31.24h-5.36a38.45,38.45,0,0,1-6.94-.63,38.45,38.45,0,0,1-6.94.63h-5.45a38.43,38.43,0,0,1-12.21-2,46.92,46.92,0,0,1-13.65,2H256.88a37.82,37.82,0,0,1-9.89-1.3,37.69,37.69,0,0,1-9.88,1.3h-5a40.85,40.85,0,0,1-4.69-.28,40.68,40.68,0,0,1-4.68.28h-4.91a38,38,0,0,1-3.84-.19,37.58,37.58,0,0,1-3.82.19h-5c-1.17,0-2.35-.05-3.52-.16-1.17.11-2.34.16-3.51.16h-3.78q-1.71,0-3.42-.15c-1.14.1-2.29.15-3.43.15h-2.25a38.17,38.17,0,0,1-6.33-.52,46.29,46.29,0,0,1-7,.52H161a37.92,37.92,0,0,1-3.83-.19,37.63,37.63,0,0,1-3.83.19H148.4a38.14,38.14,0,0,1-7-.64,47.65,47.65,0,0,1-5.84.93l-.71.06c-.95.07-2,.1-2.9.1a38.14,38.14,0,0,1-4.14-.22,38.71,38.71,0,0,1-23,7.65Z" fill="#008453"/><path d="M420.56,501a46.46,46.46,0,0,0-78.14-33.92,47.1,47.1,0,0,0-32-12.48c-5.77,0-18.74.18-30.52.36,17.22-1.76,32.26-10,42-21.93a49.75,49.75,0,0,0,11-23.65c.07-.4.13-.81.19-1.22s.09-.6.13-.9l31.82,17.11a25,25,0,0,0,36.84-22V293.9a25,25,0,0,0-36.84-22l-25,13.46A84,84,0,0,0,206.62,198,84,84,0,0,0,87.5,314.63v86.31c0,.91,0,1.82.08,2.72l0,.46c0,.78.11,1.55.2,2.32a1.36,1.36,0,0,1,0,.2,49.83,49.83,0,0,0,11.64,26.69c.29.35.6.7.91,1.05l.13.15c11.13,12.66,28.36,20.8,47.69,20.8H116.82a27.54,27.54,0,0,0-15.17,4.55,27.48,27.48,0,0,0-15.16-4.55H78.27a27.66,27.66,0,0,0-9.76,1.78,27.6,27.6,0,0,0-9.75-1.78H50.54A27.73,27.73,0,0,0,22.84,483v36a27.73,27.73,0,0,0,27.7,27.7h8.22a27.79,27.79,0,0,0,9.75-1.78,28.07,28.07,0,0,0,6.41,1.57,26,26,0,0,0-1.47,4.22A37.82,37.82,0,0,0,76,606.09,25.87,25.87,0,0,0,99.88,622h5a26.15,26.15,0,0,0,18.61-7.88h3.62a26.45,26.45,0,0,0,4.88.45c.62,0,1.34,0,2-.07l.47,0a33.67,33.67,0,0,0,6.81-1.35,26,26,0,0,0,7.2,1h4.91a25.68,25.68,0,0,0,3.83-.28,25.88,25.88,0,0,0,3.83.28h10.95a34.36,34.36,0,0,0,7.1-.74,26.08,26.08,0,0,0,6.19.74h2.25a26.12,26.12,0,0,0,3.43-.23,26.2,26.2,0,0,0,3.42.23h3.78a25.66,25.66,0,0,0,3.51-.24,25.8,25.8,0,0,0,3.52.24h5a25.65,25.65,0,0,0,3.82-.28,25.91,25.91,0,0,0,3.84.28h4.91a26.22,26.22,0,0,0,4.69-.42,26,26,0,0,0,4.68.42h5a25.77,25.77,0,0,0,9.88-2,25.82,25.82,0,0,0,9.89,2h11.31a34.32,34.32,0,0,0,13.93-2.91,26,26,0,0,0,11.93,2.91h5.45a26.1,26.1,0,0,0,6.94-.94,26.1,26.1,0,0,0,6.94.94h5.36a25.85,25.85,0,0,0,4.31-.36,25.61,25.61,0,0,0,4.29.36h12.12c23.39,0,41.72-17.93,41.72-40.81a40.17,40.17,0,0,0-9.32-25.93c.76,0,1.53.06,2.3.06A46.45,46.45,0,0,0,420.56,501Z" fill="#00aa4f"/></g><g id="desc-megogo"><path d="M99.88,609.47a13.46,13.46,0,0,1-13.25-11.18c-7.11-4.12-11.55-11.77-11.55-21,0-8.57,3.84-15.79,10.1-20.1a13.12,13.12,0,0,1,1.47-6.28A13,13,0,0,1,98.17,544h6.67a13.46,13.46,0,0,1,8.49,3,16.56,16.56,0,0,1,25.85,6h14.13a13.52,13.52,0,0,1,3,.33,13.08,13.08,0,0,1,2.95-.33h6.66a13.43,13.43,0,0,1,8.89,3.34,13,13,0,0,1,8.73-3.34h8a13.58,13.58,0,0,1,6.21,1.5,13.63,13.63,0,0,1,6.22-1.5h6.22a13.34,13.34,0,0,1,3,.33,13.23,13.23,0,0,1,3-.33h6.63a13.65,13.65,0,0,1,4.71.84,13.41,13.41,0,0,1,4.7-.84h5a13.4,13.4,0,0,1,9.1,3.56,13,13,0,0,1,9-3.56h12.62a20.46,20.46,0,0,1,11.64,3.58,13,13,0,0,1,12.91-11.47h7.16a13.51,13.51,0,0,1,6.94,1.91,13.51,13.51,0,0,1,6.94-1.91h5.36a13.7,13.7,0,0,1,3.47.45,13.43,13.43,0,0,1,3.42-.45h13.83c16.38,0,29.22,12.4,29.22,28.23s-12.84,28.31-29.22,28.31H327.34a13.43,13.43,0,0,1-4.28-.7,13.72,13.72,0,0,1-4.32.7h-5.36a13.59,13.59,0,0,1-6.94-1.9,13.59,13.59,0,0,1-6.94,1.9h-5.45A13.43,13.43,0,0,1,283,595.78a21.4,21.4,0,0,1-14.8,5.81H256.88a13.38,13.38,0,0,1-9.88-4.34,13.42,13.42,0,0,1-9.89,4.34h-5a13.17,13.17,0,0,1-4.68-.84,13.43,13.43,0,0,1-4.69.84h-4.91A13.16,13.16,0,0,1,214,601a13,13,0,0,1-3.82.56h-5a13.17,13.17,0,0,1-3.52-.47,13.26,13.26,0,0,1-3.51.47h-3.78a13.05,13.05,0,0,1-3.42-.45,13.33,13.33,0,0,1-3.43.45h-2.25a13.33,13.33,0,0,1-5.82-1.33,21.46,21.46,0,0,1-7.47,1.33H161a13.36,13.36,0,0,1-3.82-.55,13.55,13.55,0,0,1-3.84.55H148.4a13.54,13.54,0,0,1-7.16-2,20.62,20.62,0,0,1-8,2.43l-.22,0c-.31,0-.73,0-1.05,0a13.5,13.5,0,0,1-3.79-.53c-.5,0-1,.08-1.52.08h-5a13.2,13.2,0,0,1-4.28-.7,13.5,13.5,0,0,1-12.57,8.58Z" fill="#008453"/><path d="M374.16,534.91a33.94,33.94,0,0,1-31.8-22.17c-4.15,13.31-16.07,22.17-31.34,22.17-14.29,0-26.3-8.07-31.64-19.9a33.89,33.89,0,0,1-61.67.14c-4.78,12-16.15,19.76-30.48,19.76a34.53,34.53,0,0,1-28.74-14.74,15.2,15.2,0,0,1-15.15,14H116.82a15.21,15.21,0,0,1-15.17-14.13,15.21,15.21,0,0,1-15.16,14.13H78.27a15.17,15.17,0,0,1-9.76-3.55,15.15,15.15,0,0,1-9.75,3.55H50.54A15.2,15.2,0,0,1,35.34,519V483a15.2,15.2,0,0,1,15.2-15.2h8.22a15.15,15.15,0,0,1,9.75,3.55,15.2,15.2,0,0,1,9.76-3.55h8.22A15.2,15.2,0,0,1,101.65,482a15.2,15.2,0,0,1,15.17-14.13h26.52A15.21,15.21,0,0,1,158.5,482a34.07,34.07,0,0,1,28.16-14.89c11.7,0,22.66,5.88,28.59,15.34a15.13,15.13,0,0,1,2.07,5.29,33.89,33.89,0,0,1,62.1-.64,34.12,34.12,0,0,1,31-20c11.7,0,22.65,5.88,28.59,15.34a15.19,15.19,0,0,1,2.33,8.05c.12.19.25.38.37.58a33.9,33.9,0,1,1,32.41,43.83Z" fill="#008453"/><path d="M106.64,565.48q-.81-.06-.81-.81v-7.21a1,1,0,0,0-1-1H98.17c-.5,0-.68.5-.27,1.08a5.72,5.72,0,0,1,1,3.74v3.38a.71.71,0,0,1-.76.81c-6.71.59-10.59,5.45-10.59,11.81s3.88,11.21,10.59,11.76a.71.71,0,0,1,.76.81V596a1,1,0,0,0,.95.94h5a1,1,0,0,0,1-.94v-6.17q0-.75.81-.81c6.67-.59,10.54-5.41,10.54-11.76S113.31,566.07,106.64,565.48Zm-7.71,19.24c0,.59-.31.81-.63.72-2.2-.77-3.74-3.78-3.74-8.2s1.54-7.39,3.74-8.11c.32,0,.63.14.63.72Zm7.53.68c-.32.09-.63-.14-.63-.73V569.85c0-.58.31-.76.63-.72,2.21.72,3.74,3.7,3.74,8.11S108.67,584.63,106.46,585.4Zm21.17-19v21.71a1,1,0,0,1-1,1h-5a1,1,0,0,1-.94-1V570.26a5.63,5.63,0,0,0-1-3.74c-.4-.59-.22-1.08.27-1.08h6.67A1,1,0,0,1,127.63,566.43Zm.45-6.85a4.06,4.06,0,1,1-4.05-4A4,4,0,0,1,128.08,559.58Zm26.22,6.8v21.76a1,1,0,0,1-1,1H148.4a1,1,0,0,1-1-1v-18a1,1,0,0,0-.94-1h-5.09a1,1,0,0,0-1,1v4.82a25.45,25.45,0,0,1-1.49,9.55,7.9,7.9,0,0,1-6.75,5,.63.63,0,0,1-.77-.54l-.49-2.66a.68.68,0,0,1,.9-.81c1.89.32,3.06-1.4,3.6-2.84a27.21,27.21,0,0,0,1-8.2v-4.23a5.63,5.63,0,0,0-1-3.74c-.41-.59-.23-1.08.27-1.08h17.84A1,1,0,0,1,154.3,566.38Zm17.62,6.85h-4.06a1,1,0,0,1-.94-1.08v-5.77a1,1,0,0,0-1-.94h-6.66c-.5,0-.68.49-.27,1.08a5.7,5.7,0,0,1,1,3.74v17.88a1,1,0,0,0,.95,1h10.95c4.64,0,8.51-3.51,8.51-7.88S176.56,573.23,171.92,573.23Zm-2.17,12.21h-1.93a1,1,0,0,1-.9-1v-6.54a1,1,0,0,1,.9-1h1.93c2.12,0,3.47,1.71,3.47,4.15S171.87,585.44,169.75,585.44Zm41.32-19.1v21.85a.85.85,0,0,1-.9.9h-5a.92.92,0,0,1-1-.9V576.61c.05-.45-.54-.49-.67-.09l-4.15,11.67a1.39,1.39,0,0,1-1.26.9h-3.78a1.4,1.4,0,0,1-1.22-.9L189,576.52a.32.32,0,1,0-.63.14v11.53a.9.9,0,0,1-.9.9h-2.25a.85.85,0,0,1-.9-.9V570.26a5.63,5.63,0,0,0-1-3.74c-.4-.59-.22-1.08.27-1.08h8a1.35,1.35,0,0,1,1.21.9l4.69,13.56a.29.29,0,0,0,.58,0l4.73-13.56a1.4,1.4,0,0,1,1.22-.9h6.22A.87.87,0,0,1,211.07,566.34Zm27,0v21.76a1,1,0,0,1-.94,1h-5a1,1,0,0,1-1-1V575.8c0-.36-.32-.45-.5-.13l-6.8,12.61c-.27.49-.59.81-1.08.81h-4.91a1,1,0,0,1-1-1V570.26a5.63,5.63,0,0,0-1-3.74c-.4-.59-.22-1.08.27-1.08h6.63a1,1,0,0,1,1,.94v12.35c0,.36.32.45.5.13l6.8-12.61c.27-.5.59-.81,1.08-.81h5A1,1,0,0,1,238.05,566.38Zm34.42,10.23c-.36-.22-.45-.4,0-.67a5.73,5.73,0,0,0,2.52-4.6c0-3.11-3.11-5.9-7.16-5.9H255.17c-.49,0-.67.49-.27,1.08a5.63,5.63,0,0,1,1,3.74v17.88a1,1,0,0,0,.94,1h11.31c4.64,0,8.11-3.15,8.11-6.58A6.78,6.78,0,0,0,272.47,576.61ZM262.83,570a.92.92,0,0,1,.95-.94h1.8a2.52,2.52,0,0,1,2.52,2.75,2.64,2.64,0,0,1-2.21,2.79h-2.11a1,1,0,0,1-.95-1Zm3.38,15.41h-2.43a1,1,0,0,1-.95-1v-5.18a.93.93,0,0,1,.95-.95h2.43c1.71,0,2.93,1.81,2.93,3.65S267.92,585.44,266.21,585.44Zm53.56-26.89v29.59a1,1,0,0,1-1,1h-5.36a1,1,0,0,1-1-1V576a1,1,0,0,0-.95-1h-9.91a.93.93,0,0,0-.94,1v12.16a1,1,0,0,1-1,1h-5.45a1,1,0,0,1-.95-1V562.38a5.68,5.68,0,0,0-1-3.74c-.41-.59-.23-1.09.27-1.09h7.16a1,1,0,0,1,1,1V570a.94.94,0,0,0,.94,1h9.91a1,1,0,0,0,.95-1V558.55a1,1,0,0,1,1-1h5.36A1,1,0,0,1,319.77,558.55Zm19.69-1H325.63c-.49,0-.67.5-.27,1.09a5.61,5.61,0,0,1,1,3.74v25.76a1,1,0,0,0,.94,1h12.12c9.55,0,16.72-7.07,16.72-15.81S349,557.55,339.46,557.55Zm-1.12,27.53h-3.56a.94.94,0,0,1-.95-1V562.6a1,1,0,0,1,.95-1h3.56c5.76,0,9.91,4.6,9.91,11.76S344.1,585.08,338.34,585.08Z" fill="#fff"/><path d="M78.27,483h8.22v36H78.27V498.08L69,513.34h-.93l-9.29-15.26V519H50.54V483h8.22l9.75,16Zm38.55,36h26.52v-7.91H125v-6.37h18.31V496.9H125v-6h18.31V483H116.82Zm70.1-12.84h9.6c-1.28,3.44-4.41,5.54-9.19,5.54-7,0-11.3-4.47-11.3-10.58,0-6.32,4.52-10.78,10.58-10.78,4.06,0,7.29,1.84,8.78,4.21l7-4a18.38,18.38,0,0,0-15.72-8.22,18.65,18.65,0,0,0-18.85,18.75c0,10.32,8.12,18.65,19.42,18.65C197.29,519.71,205,513,205,502V499h-18ZM267.21,501a18.7,18.7,0,1,1-18.7-18.7A18.55,18.55,0,0,1,267.21,501ZM259,501a10.48,10.48,0,1,0-10.48,10.68A10.22,10.22,0,0,0,259,501Zm51.73,5.14h9.6c-1.28,3.44-4.42,5.54-9.19,5.54-7,0-11.3-4.47-11.3-10.58,0-6.32,4.52-10.78,10.58-10.78,4.06,0,7.29,1.84,8.78,4.21l7-4a18.4,18.4,0,0,0-15.72-8.22,18.65,18.65,0,0,0-18.85,18.75c0,10.32,8.11,18.65,19.41,18.65,10.07,0,17.72-6.68,17.72-17.67V499h-18ZM392.86,501a18.7,18.7,0,1,1-18.7-18.7A18.54,18.54,0,0,1,392.86,501Zm-8.22,0a10.48,10.48,0,1,0-10.48,10.68A10.22,10.22,0,0,0,384.64,501Z" fill="#fff"/><g id="Layer_1_copy_16" data-name="Layer 1 copy 16"><rect x="-1675.47" y="-1272.95" width="5094.33" height="2865.56" fill="none"/><rect x="-88.31" y="-380.17" width="1920" height="1080" fill="none"/><path d="M364,560a.22.22,0,0,0,0-.42l-1.29-.45c-1-.33.54-2.91,1.29-2.19l1,.9a.23.23,0,0,0,.36-.21l-.24-1.32c-.12-.54.54-.78,1.23-.78s1.41.27,1.29.75l-.24,1.35a.2.2,0,0,0,.33.18l1-.9c.84-.78,2.25,1.92,1.29,2.22l-1.29.45c-.21.06-.15.33,0,.39l1.29.45c1,.33-.51,2.88-1.26,2.22l-1-.9a.19.19,0,0,0-.33.18l.24,1.35c.12.54-.54.78-1.23.78s-1.47-.27-1.32-.78l.3-1.35c.06-.18-.21-.33-.36-.18l-1,.87c-.81.78-2.25-1.86-1.29-2.16Z" fill="#fff"/></g></g><g id="icon-megogo"><path d="M137.46,438.4A37.51,37.51,0,0,1,100,400.94V310.21A71.49,71.49,0,0,1,206.62,215a71.48,71.48,0,0,1,113.65,85.42,38.64,38.64,0,0,1,.7,4.15h9.75L371,282.89a12.5,12.5,0,0,1,18.42,11V402.36a12.5,12.5,0,0,1-18.42,11l-40.31-21.68h-9.53v9.25a37.5,37.5,0,0,1-37.46,37.46Z" fill="#008453"/><path d="M333.87,317.07H308.69v-8.38a24.73,24.73,0,0,0-2.16-10.15,59,59,0,1,0-99.91-62,59,59,0,1,0-93.92,69,25.41,25.41,0,0,0-.2,3.16v92.25a25,25,0,0,0,25,25H283.73a25,25,0,0,0,25-25V379.19h25.18L377,402.36V293.9Z" fill="#fff"/></g><g id="title-megogo"><path d="M368.62,179.23a13.33,13.33,0,0,1-10.94-5.78,13.3,13.3,0,0,1-10.93,5.78h-1.56a13.28,13.28,0,0,1-11.2-6,29.28,29.28,0,0,1-5.59.53,28.78,28.78,0,0,1-9.91-1.73,13.05,13.05,0,0,1-5.41,1.17H308.8a15.31,15.31,0,0,1-7.24-1.79,13.41,13.41,0,0,1-6.72,1.79h-3.36a13.3,13.3,0,0,1-9.45-3.94,13.42,13.42,0,0,1-9.51,3.94h-3.28a13.4,13.4,0,0,1-7-2,13.4,13.4,0,0,1-7,2H251.8a13,13,0,0,1-3.07-.36,13,13,0,0,1-3.08.36h-15.6a13.36,13.36,0,0,1-2.39-.21,13.17,13.17,0,0,1-2.35.21h-4.16a15.17,15.17,0,0,1-6.41-1.38,13.52,13.52,0,0,1-6,1.38h-3.28a13.44,13.44,0,0,1-5.94-1.38,15.22,15.22,0,0,1-6.42,1.38H189a13.15,13.15,0,0,1-5.53-1.23,29.35,29.35,0,0,1-20,.06,13.05,13.05,0,0,1-5.41,1.17h-4.28a15.31,15.31,0,0,1-7.24-1.79,13.41,13.41,0,0,1-6.72,1.79h-3.36a13.24,13.24,0,0,1-8.1-2.75,13.27,13.27,0,0,1-8.1,2.75h-3.76a13.83,13.83,0,0,1-9.42-3.73,13.8,13.8,0,0,1-9.42,3.73h-2a13.57,13.57,0,0,1-4.31-.71,25.24,25.24,0,0,1-8,1.27c-8.63,0-16.35-3.94-20.66-10.53a13.06,13.06,0,0,1,3.23-17.84l-.33-.5-.95-1.52a13.6,13.6,0,0,1,.61-15.71l.12-.15c4-4.92,10.52-7.87,17.54-7.87a23.77,23.77,0,0,1,13,3.64,13,13,0,0,1,8.44-3.07h5.28a14,14,0,0,1,13,9,12.3,12.3,0,0,1,.86-2.06A12.93,12.93,0,0,1,135,120.16h4.84a13.35,13.35,0,0,1,6.73,1.8,14.78,14.78,0,0,1,7.19-1.8h2.48a13,13,0,0,1,6.22,1.58A29,29,0,0,1,184,121.6a13.08,13.08,0,0,1,6-1.44h3.08a15.13,15.13,0,0,1,6.45,1.4,13.37,13.37,0,0,1,6-1.4h3.28a13.4,13.4,0,0,1,6,1.4,15.21,15.21,0,0,1,6.45-1.4h2.24a13.21,13.21,0,0,1,2.52.24,13.34,13.34,0,0,1,2.54-.24h16.52a13.68,13.68,0,0,1,2.65.25,13,13,0,0,1,2.58-.25h4.88a13.31,13.31,0,0,1,7,2,13.31,13.31,0,0,1,7-2h3.28a13.41,13.41,0,0,1,8.82,3.29,13,13,0,0,1,8.66-3.29h4.84a13.35,13.35,0,0,1,6.73,1.8,14.78,14.78,0,0,1,7.19-1.8h2.48a13,13,0,0,1,6.22,1.58,29,29,0,0,1,24.45,1.19,12.93,12.93,0,0,1,8-2.77h17.11a13.39,13.39,0,0,1,13.38,13.38v15.73h0a13.32,13.32,0,0,1,3.49,9.78l-.4,7.45c0,.13,0,.25,0,.38a13.34,13.34,0,0,1-13.34,12.34Z" fill="#008453"/><path d="M93.21,152.85c0,4.64-3.76,8.36-9.88,8.36-4.36,0-8.2-1.8-10.2-4.88a.64.64,0,0,1,.24-1l1.4-.92a.73.73,0,0,1,1.08.24,8.68,8.68,0,0,0,6.6,3.32,5,5,0,0,0,5.2-5.36c0-3-1.76-5.08-5.2-5.08h-1.6a.9.9,0,0,1-.92-.88v-1.4a.91.91,0,0,1,.92-.92h1.6a4.44,4.44,0,0,0,4.28-4.76c0-2.56-1.76-4.31-4.6-4.31a4.94,4.94,0,0,0-4.6,2.71.77.77,0,0,1-1.36.2l-1-1.6a1.08,1.08,0,0,1-.08-1.31,10.19,10.19,0,0,1,7.8-3.21c5.76,0,9.24,3,9.24,7.4a7.51,7.51,0,0,1-3.28,5.8c-.28.2-.28.48,0,.64A7.93,7.93,0,0,1,93.21,152.85Zm27.66,7a.61.61,0,0,1-.64.84h-3.76a1.42,1.42,0,0,1-1.2-.84L113,153.45a.91.91,0,0,0-1-.6h-9.76c-.56,0-.92.16-1.08.6l-2.32,6.36a1.37,1.37,0,0,1-1.2.84h-2c-.56,0-.84-.4-.68-.84l8.72-22.88a6,6,0,0,0,.44-2,2.72,2.72,0,0,0-.28-1.27.62.62,0,0,1,.52-1h5.28a1.39,1.39,0,0,1,1.28.88Zm-9.56-11-3.84-10.84a.34.34,0,0,0-.32-.28.38.38,0,0,0-.36.28l-3.92,10.84c-.2.56,0,.88.52.88h7.36C111.31,149.65,111.51,149.33,111.31,148.77Zm36-2.8c-.4-.48-.48-.68-.12-1.12l9.16-11.31c.4-.49.28-.88-.2-.88h-2.48a2.17,2.17,0,0,0-1.88.88l-8.52,10.63a1,1,0,0,1-.8.4h-1.2c-.4,0-.6-.24-.6-.68V133.54a.89.89,0,0,0-.92-.88H135c-.44,0-.64.43-.28,1a5,5,0,0,1,.92,3.31v22.88a.87.87,0,0,0,.84.84h3.36a.89.89,0,0,0,.92-.84V148.49a.65.65,0,0,1,.64-.72h.76a1,1,0,0,1,.72.4l9,11.64a2.43,2.43,0,0,0,2,.84H158c.48,0,.68-.4.32-.84Zm41.19.72c0,8.2-6.35,14.52-15.19,14.52s-15.08-6.32-15.08-14.52,6.36-14.6,15.08-14.6S188.54,138.41,188.54,146.69Zm-5.59,0c0-6.36-4-11.35-9.6-11.35s-9.48,5-9.48,11.35,4,11.36,9.48,11.36S183,153,183,146.65Zm32.92-.68a.94.94,0,0,1-.2-1.12l8-11.31c.4-.49.28-.88-.2-.88h-2.24a2,2,0,0,0-1.88.88l-7.44,10.63a1,1,0,0,1-.8.4h-.8c-.4,0-.6-.24-.6-.68V133.54a.89.89,0,0,0-.92-.88h-3.28a.89.89,0,0,0-.92.88v10.35c0,.44-.2.68-.6.68h-.8a1,1,0,0,1-.8-.4L195,133.54a2,2,0,0,0-1.88-.88H190c-.6,0-.72.68,0,1a8.78,8.78,0,0,1,2.8,2.87l5.84,8.28a.94.94,0,0,1-.2,1.12l-9.76,13.84c-.36.44-.16.84.32.84h4.16a2,2,0,0,0,1.84-.84l7.88-11.64a.84.84,0,0,1,.72-.4H204a.65.65,0,0,1,.64.72v11.32a.89.89,0,0,0,.92.84h3.28a.89.89,0,0,0,.92-.84V148.49a.65.65,0,0,1,.64-.72h.36a.84.84,0,0,1,.72.4l7.88,11.64a2,2,0,0,0,1.84.84h4.16c.48,0,.68-.4.32-.84Zm29.78,11.48H235.17a.83.83,0,0,1-.84-.88v-7.72a.85.85,0,0,1,.84-.88h8a.88.88,0,0,0,.84-.88v-1.48a.87.87,0,0,0-.84-.84h-8a.85.85,0,0,1-.84-.88v-7.16a.88.88,0,0,1,.84-.88H242a11.33,11.33,0,0,1,3.52.6c.55.2,1,0,.88-.56l-.36-2.39a1,1,0,0,0-1-.84H228.53c-.44,0-.6.43-.24,1a5,5,0,0,1,.92,3.31v22.88a.87.87,0,0,0,.84.84h15.6a.88.88,0,0,0,.88-.84v-1.48A.89.89,0,0,0,245.65,157.45Zm26.87-24.79h-3.28a.89.89,0,0,0-.92.88v10.35a.88.88,0,0,1-.84.88H256.92a.83.83,0,0,1-.84-.88V133.54a.89.89,0,0,0-.92-.88h-4.88c-.44,0-.6.43-.24,1a5,5,0,0,1,.92,3.31v22.88a.87.87,0,0,0,.84.84h3.36a.89.89,0,0,0,.92-.84v-11a.83.83,0,0,1,.84-.88h10.56a.88.88,0,0,1,.84.88v11a.89.89,0,0,0,.92.84h3.28a.89.89,0,0,0,.92-.84V133.54A.89.89,0,0,0,272.52,132.66ZM302.4,146c-.4-.48-.48-.68-.12-1.12l9.16-11.31c.4-.49.28-.88-.2-.88h-2.48a2.17,2.17,0,0,0-1.88.88l-8.52,10.63a1,1,0,0,1-.8.4h-1.2c-.4,0-.6-.24-.6-.68V133.54a.89.89,0,0,0-.92-.88H290c-.44,0-.64.43-.28,1a5,5,0,0,1,.92,3.31v22.88a.87.87,0,0,0,.84.84h3.36a.89.89,0,0,0,.92-.84V148.49a.65.65,0,0,1,.64-.72h.76a1,1,0,0,1,.72.4l9,11.64a2.43,2.43,0,0,0,2,.84h4.28c.48,0,.68-.4.32-.84Zm41.19.72c0,8.2-6.35,14.52-15.19,14.52s-15.08-6.32-15.08-14.52,6.36-14.6,15.08-14.6S343.59,138.41,343.59,146.69Zm-5.59,0c0-6.36-4-11.35-9.6-11.35s-9.48,5-9.48,11.35,4,11.36,9.48,11.36S338,153,338,146.65Zm33.46,11.68-.4,7.52a.92.92,0,0,1-.88.88h-1.56c-.48,0-.76-.4-.88-.88l-1.2-4.28a1.27,1.27,0,0,0-1.08-.92H349.91a1.27,1.27,0,0,0-1.08.92l-1.2,4.28c-.12.48-.4.88-.88.88h-1.56a.92.92,0,0,1-.88-.88l-.4-7.52a.77.77,0,0,1,.76-.88h1.56c.8,0,1-.12,1.2-.8a50.5,50.5,0,0,0,3.2-16.84v-2.88a5,5,0,0,0-.92-3.31c-.36-.53-.2-1,.24-1h17.11a.88.88,0,0,1,.88.88v23a.86.86,0,0,0,.88.88h1.76A.86.86,0,0,1,371.46,158.33Zm-8.64-21.56a.9.9,0,0,0-.88-.92h-6.88a.9.9,0,0,0-.88.92v2.36a57,57,0,0,1-2.87,17.52.59.59,0,0,0,.6.8h10a.86.86,0,0,0,.88-.88Z" fill="#fde619"/></g><rect x="-88.31" y="25.97" width="590" height="673.87" fill="none"/></svg>